<?xml version="1.0" encoding="utf-8"?>
<!-- Generator: Adobe Illustrator 23.0.5, SVG Export Plug-In . SVG Version: 6.00 Build 0)  -->
<svg version="1.1" id="Layer_1" xmlns="http://www.w3.org/2000/svg" xmlns:xlink="http://www.w3.org/1999/xlink" x="0px" y="0px"
	 viewBox="0 0 352 352" style="enable-background:new 0 0 352 352;" xml:space="preserve">
<g>
	<path d="M144.2-0.1c42.1,0,84.2,0,126.3,0c11,0,17.5,6.5,17.5,17.6c0.1,39.1,0.1,78.2,0.1,117.3c0,44.8,0,89.6,0,134.4
		c0,2.4-0.1,4.8-0.7,7.1c-1.9,7.1-7.9,11.6-15.8,11.8c-5.7,0.1-11.4,0-17.1,0c-78.5,0-157,0-235.5,0c-2.5,0-5.1-0.1-7.4-0.7
		c-7.4-2-11.6-8.1-11.7-16.5c0-19.8,0-39.6,0-59.4c0-62.9,0-125.8,0-188.7c0-2.2-0.1-4.4,0-6.6C0.2,6.8,6.8,0.2,16.1-0.1
		c2.4-0.1,4.8,0,7.2,0C63.6-0.1,103.9-0.1,144.2-0.1C144.2-0.1,144.2-0.1,144.2-0.1z M32,32c0,1.8,0,3.1,0,4.4
		c0,71.7,0,143.4,0,215.1c0,4.4,0,4.4,4.3,4.4c71.7,0,143.4,0,215.1,0c4.5,0,4.5,0,4.5-4.7c0-31.4,0-62.8,0-94.2
		c0-40.5,0-81,0-121.5c0-2.9-0.9-3.6-3.7-3.6c-72.2,0.1-144.4,0-216.6,0C34.6,32,33.5,32,32,32z"/>
	<path d="M320,320c0-1.5,0-2.6,0-3.7c0-72.1,0-144.2,0-216.3c0-3.9,0-3.9-3.9-4c-3.2,0-6.4-0.1-9.6,0c-1.7,0-2.6-0.5-2.5-2.4
		c0.1-9.1,0.1-18.2,0-27.3c0-1.8,0.6-2.5,2.4-2.5c10,0.1,20-0.2,30,0.1c9.6,0.3,15.7,7.1,15.8,17.2c0.1,19.7,0,39.4,0,59.1
		c0,64.1,0,128.2,0,192.3c0,5.1-0.5,10-4.1,14c-3.6,4.1-8.3,5.6-13.7,5.6c-25.1,0-50.2,0-75.3,0c-58.9,0-117.8,0-176.7,0
		c-4,0-7.8-0.4-11.2-2.7c-4.4-2.9-7-7-7.1-12.2c-0.2-10.4-0.2-20.8-0.1-31.2c0-0.7,1.3-2,2-2c9.3-0.1,18.6-0.1,27.9,0
		c0.7,0,1.9,1.3,2,2.1c0.2,3.5,0.3,7,0.1,10.5c-0.1,2.6,0.7,3.4,3.4,3.4c19.9-0.1,39.8,0,59.7,0c52.2,0,104.4,0,156.6,0
		C316.9,320,318.2,320,320,320z"/>
	<path d="M73.1,127.9c18.5,0,36.5,0,54.8,0c0-18.3,0-36.3,0-54.6c1.3-0.1,2.2-0.2,3.2-0.2c8.5,0,17,0.1,25.5-0.1
		c2.7-0.1,3.6,0.7,3.6,3.5c-0.1,15.8,0,31.6,0,47.4c0,1.2,0,2.4,0,3.9c18.3,0,36.4,0,54.6,0c0,10.8,0,21.3,0,32
		c-1.4,0.1-2.6,0.2-3.9,0.2c-15.3,0-30.6,0-45.9,0c-5.5,0-4.9-0.7-4.9,4.7c0,15.5-0.1,31,0.1,46.5c0,2.9-0.8,3.8-3.7,3.7
		c-8.2-0.2-16.4,0-24.6,0c-1.2,0-2.4,0-3.9,0c0-18.4,0-36.4,0-54.8c-1.6,0-2.7,0-3.9,0c-15.8,0-31.6-0.1-47.4,0
		c-3,0-3.7-0.9-3.6-3.7c0.2-8.4,0.1-16.8,0.1-25.2C73.1,130.3,73.1,129.3,73.1,127.9z"/>
</g>
</svg>
