<svg xmlns="http://www.w3.org/2000/svg" viewBox="0 0 1080 1080"><title>Artboard 3</title><path d="M-5.61,1079.86c-1.77-12.7-1.15-25.59-3.18-38.28-.43-2.68-1.54-5.56,1.22-8.13a4.91,4.91,0,0,1,3.34-1.55c6.94-.48,13.88-1.13,20.83-1.42,2.23-.1,3.12-.73,3.14-2.91a31.44,31.44,0,0,1,.5-3.58c.35-2.79,1.34-3.39,4.51-3,5.38.63,10.91-.08,16.37-.21,6.85-.16,8.21,1.12,8.66,7.89,1,15.35,2.12,30.69,3,46,.14,2.35.89,2.73,3.14,2.73,4.25,0,8.48-1,12.77,0,5.43,1.18,6.53.36,5.46-4.92-2.06-10.14-1.16-20.46-2.33-30.64-.7-6.1-1.37-12.21-1.81-18.34-.13-1.81-.87-4,1.07-5.49.68-.54.09-.87-.32-1.17-2-1.5-2-3.63-1.84-5.81.8-.78,3.84,1.71,2.71-1.86.94-.92,1.12-1.6-.53-1.7l-.83-.48c-.6-2.13-4.81-4.51,1.44-6.07-2.49-1.07-3.15-2.06-3.07-4.15.27-6.94.39-13.9-.9-20.83-.71-3.82,1-6.1,4.85-6.3,8.28-.44,16.6-.1,24.85-1.29,1.92-.28,2.92.94,3.24,2.79,1.6,9.37,3.08,18.76,2.47,28.32,0,.4-.23,1.08-.08,1.16,3.66,2.12,2.82,7.21,6.4,9.55-4.87.64-2.29,4.94-1.91,6.07,1.45,4.28.45,8.56.94,12.78,1,8.75,1,17.63,1.36,26.46.26,5.61.61,11.22.79,16.83.1,3,1.07,4.21,4.42,3.67,2.57-.41,5.33.24,8,.6,2.13.3,3.16-.09,3.19-2.58.1-6.94,1-13.84-.66-20.77-1.11-4.53.22-5.32,4.69-4.75a69.44,69.44,0,0,0,18,.39c3.92-.52,5.47.66,5.68,4.59.65,11.77.27,23.54.12,35.31-.07,5.29-2.28,7.23-7.54,7-32.45-1.67-64.94-2.49-97.36-4.85-16-1.17-32-2.13-48.05-3ZM28,1065.65c.77-.8.52-7.77-.31-8.52-.42-.38-10.25.18-10.33.65-.48,2.6-.87,5.27.19,7.75C18,1066.58,27.17,1066.5,28,1065.65Zm-2-16.49c1.74-2.35,1.19-4.73,1.19-7,0-1.08-.69-1.25-1.6-1.24-2.53,0-5.06-.1-7.58,0-1.05.06-2.78-.2-2.63,1.65.17,2.21-.38,5.71,1.4,6.27A18.49,18.49,0,0,0,26,1049.16Zm-15.51.52c.91-.82.59-1.63.51-2.4-.49-4.79-1.4-5.3-8.18-5.58-2.49-.1-3.87.49-3.71,3.19.11,1.77-.83,4.16,1.52,4.85C3.93,1050.72,7.36,1050.26,10.51,1049.68Zm73.13-14.16a1.69,1.69,0,0,0,.75-1.83,33.43,33.43,0,0,1-.35-5.44c.37-3.71-2.52-3-4.26-3-2.75,0-.81,2.18-.88,3.29a24.37,24.37,0,0,0,.52,5.14C79.85,1036.77,82.11,1035.4,83.64,1035.52Zm11,21c.74,1.72,2.63,1.42,4.06,1.18,1.66-.28.82-2,.87-3.06.06-1.43,0-2.86-.06-4.29,0-1.23-.6-2.36-1.9-1.87s-3.73-1.24-4.08.86S92.91,1054.15,94.65,1056.51Zm3.52-20.87c.52-.44.41-8.16-.07-8.48a1.84,1.84,0,0,0-1.12-.33c-1.38.15-3.8-.84-3.3,1.88.44,2.39-2.28,6,2.26,7A7.88,7.88,0,0,0,98.17,1035.64ZM85.54,998.21a13.54,13.54,0,0,0-1.7-7c-.5-.94-3.65-1.13-4.45-.08-1.3,1.71-1.52,4.57,0,6.16S83.36,997.82,85.54,998.21ZM88,982.94c1.73-.81,3.74.23,4.82-1.22a6.49,6.49,0,0,0,.4-6.31c-.75-1.63-3.33-.39-5.07-.65C88.08,977.3,88,979.85,88,982.94ZM83.76,985c1.27-5.93-.23-7.2-5.62-5.65C79.84,981.21,82.52,981.84,83.76,985Z" style="fill:#474747"/><path d="M347.2,929.62c1.57,2.72,3,5.55,5.34,7.74-.2.19-.42.56-.58.53-6.51-1-12.22,3.8-18.75,2.53-1.61-.32-1.09.84-1.27,1.66-1.22,5.58-.83,11.22-.6,16.83a224.79,224.79,0,0,0,4.05,31.64c1.81,9.84,1.3,19.83,2,29.75.63,9.58.13,19.15.25,28.72.14,10.7-.37,21.42-.58,32.13,0,2.53-.51,4.68-3.17,5.89a46.16,46.16,0,0,1-24.88,3.73c-2.46-.28-2.46-1.49-2.06-3.62,3.92-20.87,4.69-42,5.46-63.18.11-3.08.15-6.17.51-9.22a121.5,121.5,0,0,0-3.55-45.37c-2.22-8.56-4.41-17.23-8.78-25-1.41-2.53-3.24-4.8-6.76-4.68a45.91,45.91,0,0,1-7.2-.53,3.3,3.3,0,0,1-3.16-2.57c-.26-1.17-.63-2.44.72-3.23,6-3.56,8.69-10,12.87-15.17a12.66,12.66,0,0,1,8.22-5c1.72-.26,2.78-.44,1.77-2.93-1.62-4-.21-6,3.9-6.89,1.37-.29,1.37-.29.48-2.35,3.52-.59,4.14,2.76,6,4.4,1.73,2.19,3.9,4.06,4.37,7.07.13.82,1.22,2.28,1.72,1.76,1.8-1.85,2.89.57,4.32.38l1.89.42a5.44,5.44,0,0,0,4.88,5c3.23.53,5.22,2.42,7.16,4.57C343.41,926.39,345,928.37,347.2,929.62Zm-14,3.74c1.57,1.28,3.42,2.19,5,3.36,2.65,1.9,3.3-1.76,5.32-1.59.36,0,1.5-2.35.28-3.08-2.87-1.7-4.49-4.45-6.61-6.79-.56-.62-1.38-1-2.06-.41s-.29,1.18,0,1.84c.84,1.77,1.67,3.55,2.34,5.38a1.5,1.5,0,0,1-.68,2.06c-.83.35-1.07-.51-1.54-.9-2.47-2.05-3.05-5.54-5.57-7.57-1.46,1,1.06,2.28-.85,3.38-1.5-2.71-3.54-5-7.19-3.88-.28,2,.88,3.49,1.42,5.22,2.06,6.52,2,6.11,8.87,5.38C335.06,935.44,332.32,933.86,333.22,933.36Zm-20.7,3.91c3.33.23,7.88,1.86,9.35-.63,1.72-2.92-1.12-6.7-3.13-9.71-.72-1.09-1.77-2-2.94-1.57a4.35,4.35,0,0,0-2.71,2.87C312,931.25,313.37,934.23,312.52,937.27Zm-8.61-10.2c-2.54,2-4.36,8-2.46,9.29,2.11,1.4,4.83,1.17,7.3.73.82-.14.78-8.52,0-9.37C307.39,926.29,306,925.16,303.91,927.07Zm-4.5,9.38c-.15-2.92-1.91-5.38-.52-8.09.59-1.15,3.17-2.32.72-3.8s-2.74,1.27-3.83,2.38a6.32,6.32,0,0,0-.78,1.4c-1.22,2.1-4.69,4-3.75,5.95C292.62,937.19,296.52,935.51,299.41,936.45Z" style="fill:#474747"/><path d="M247.17,999.68c-4.78,2.31-3.35,5.81-3.32,9.54.06,7,1.89,13.82,1.72,20.83-.18,7.23-.24,14.48.06,21.71a221.47,221.47,0,0,1-2.12,40.44c-.54,3.82-2.09,5.71-6.21,5.52-8.52-.4-17.09.78-25.59-.94-2.12-.43-2.33-1.22-1.8-3,6.59-21.88,3.6-44,2-66.18-.17-2.35-1.07-4.69.41-7,1.17-1.83-1.94-2.36-1.38-4.73s.24-13.09,1.22-15c.35-.7,1.13-1.44.29-2.07-3.88-2.89-2.86-7.12-3-11-.16-4.17,2.13-6.27,6.28-6.26,7.09,0,14.2.14,21.29,0,3.51-.08,3.77,2.87,3.65,4.58-.19,2.46-.07,4.37,1.43,6.38.62.84.47,2.33.5,3.53C242.63,998.79,242.94,1001.18,247.17,999.68Zm-11.08,49.4c.73-.61,1.28-7.74.77-8.28-.16-.17-.46-.4-.64-.36-1.67.43-4.32-1.17-4.91,1.06s-1.58,5.34.82,7.45C233.29,1050,234.88,1049.11,236.09,1049.08ZM222.5,994.27c1.69-2.33.5-4.61-.5-6-1.41-2-4.53-1.1-6-.26s-1.31,4.11,0,5.45C217.67,995.08,220.32,994,222.5,994.27Zm5.26,82c-2.38.28-4.92-.08-6.62.94-2.48,1.49-.78,4.61,0,6,.94,1.64,4.07.43,5.32-.51C228.11,1081.48,227.44,1078.8,227.76,1076.24Zm-.65-45.89c.38-2,1.21-4.58-.18-5.69-1.77-1.39-4.49-.1-6.22,1-1.09.68-2.73,3.12-1,4.69C221.89,1032.2,224.47,1030.52,227.11,1030.35Zm9.38,27.9c-1.56-.8-3.76-.92-4.5,0a5,5,0,0,0-.14,5.32c1,1.58,2.74.2,3.8-.48C237.44,1061.94,236.58,1060,236.49,1058.25Z" style="fill:#474747"/><path d="M389.18,1089.83l-3.61,3.11c-13.36,3.12-26.48,7.24-40,9.53-3.53.59-5.13-1.11-4.55-4.64,3-18.15,3.83-36.47,4.43-54.81.19-5.84.73-11.67,1.11-17.5,0-.67.12-1.34.12-2,0-6,0-5.88,6.21-5.74,6.73.14,7,1.53,6.22-6.45-.23-2.17.24-3.2,2.68-3.21,4,0,8-.73,12,.16,3.2.72,5.57,2.14,5.47,6.23-.22,9.28-2.58,18.28-3.2,27.5-.31,4.75-1.09,9.47-1.78,15.16,4.46-4.39,7.1-9,10.37-13a11.74,11.74,0,0,1,2.68-3c1.62-1,3.23-1.58,4.43,1.15a123.64,123.64,0,0,1,5.57,15.48,8.73,8.73,0,0,1-.33,5c-2.29,8.06-4.35,16.19-6.49,24.29v0C390,1088.08,389.61,1089,389.18,1089.83Zm-16.57-72.94c1-1,1.1-6.75.23-7.44a4,4,0,0,0-5.41.37,4.94,4.94,0,0,0-.54,6.49C368.27,1018.05,370.8,1016.68,372.61,1016.89Zm8,35.19c-.89-.26-1.09.42-1.14,1.1-.07,1.08.75,1.24,1.57,1.38,3,.51,5.73-.47,8.52-1.18,1.22-.31,1.49-1.44,1.21-2.55a1.69,1.69,0,0,0-2.26-1.09C385.86,1050.33,383,1050.39,380.61,1052.08Zm-19.44-16.94a6.81,6.81,0,0,0,.09-6.47c-.75-1.24-3.42-1.19-4.22,0-1.34,2-.78,4.74.12,6.75C357.8,1036.86,359.68,1034.92,361.17,1035.14Zm.16,31.33c1.83,1.15,3.55.08,5.27-.3,1.17-.26,2.27-.78,2.23-2.32,0-.78-.3-1.26-1.16-1.1a48.92,48.92,0,0,0-5.39,1.07C361.06,1064.18,361,1065.32,361.33,1066.47Zm0-20.44c-2.61,1.1-5.34-.13-5.43,3.37,0,1.78.74,2.66,2.24,2.46C361.15,1051.48,360.07,1048.73,361.33,1046Z" style="fill:#474747"/><path d="M271.21,989.14c1.15,2.92.85,6.86,5.64,6a10.07,10.07,0,0,1-.22,1.07c-4.06-.39-4.08,1.89-3.92,5.09.2,4.2.15,7.83,4.06,11,4.48,3.67,10.17,7.27,11.62,13,1.37,5.37,0,11.38.18,17.14.16,5.16-.67,10.37-1.33,15.53-.45,3.61.46,5.38,4.47,5.22,3.45-.13,8-.91,10.07.87s-.43,6.18-.56,9.48c-.21,5.35-.93,10.67-1.38,16a3.81,3.81,0,0,1-3.28,3.87c-9,2.31-18.34,1.75-27.5,2.76-4.67.52-9.35,1.68-14.2.32-2-.55-2.45-1.13-2.17-2.84,3-18.5,1.74-37.15,1.93-55.74a15.4,15.4,0,0,1,2.91-8.5c3.47-5.38,5.81-11.54,9.62-16.63,3.22-4.29,3.45-8.61,3.33-13.43-.06-2.37-.65-3.54-3.2-3.17-.58.08-1.72.42-1.52-1,.07-.53.24-1.15.95-1C271.58,995.52,270.35,991.63,271.21,989.14Zm-1.68,81.77c.31-.37,0-.11-.19.24-2.52,6.35-2.74,13.17-4,19.78-.22,1.15.84,1.1,1.63,1.18,6,.58,7.62-.78,8.27-6.89a15,15,0,0,0,.28-3.17c-.36-3.67.3-7.52-1.72-10.91C272.92,1069.66,271.86,1068.41,269.53,1070.91Zm9.07-16.62c1.23-2.25.86-4.81,1.22-7.24.24-1.57-.25-2.18-2-1.84-4.2.8-8.43,1.48-12.66,2.14-1.36.21-2.24.73-2.3,2.24-.09,2.38-.47,4.76.18,7.11,0,.13.76.22,1.09.11,3.59-1.1,7.33-.88,11-1.44A22.24,22.24,0,0,0,278.6,1054.29Zm1.2-21.77c-2.46-4.41-4.1-8.62-7.09-12.31a64.53,64.53,0,0,0-7,10.38c-.83,1.41-1.44,3.3,1.47,3.08C271.19,1033.37,275.21,1032.94,279.8,1032.52Z" style="fill:#474747"/><path d="M196.56,1096.27a4,4,0,0,1-2.66.7c-8.57-.09-17.14-.12-25.71-.3-4.65-.09-6.34-2.18-5.53-6.87,3.33-19.45,2.75-38.9.18-58.35-.32-2.43-.18-4.52,2.11-6,2.45-1.52,3.6.69,5.11,1.8,7.86,5.75,15.61,11.68,23.61,17.23,4,2.75,5.85,6,5.94,10.9a263.74,263.74,0,0,1-1.9,38.42A2.94,2.94,0,0,1,196.56,1096.27Zm-6.15-41.65c-5-3.61-9.21-6.62-13.42-9.6-.51-.36-1.54-.86-1.72-.68-2.5,2.54-.89,5.9-1.61,8.82-.38,1.54.51,1.73,1.79,1.7C180.09,1054.74,184.73,1054.7,190.41,1054.62ZM184,1088.21c1.77-.36,3.91.63,5.74-.74,1.1-.82,1.51-8.15.55-8.35-1.74-.37-3.71-.76-5.28.64C183.86,1080.74,183,1087.2,184,1088.21Zm-4.87-24.73c-1.48.27-3.29-1.07-5.21.06-.45.27,0,7.85.51,8.12a5.22,5.22,0,0,0,5.29-.16C180.72,1070.9,180.42,1064.89,179.08,1063.48Z" style="fill:#474747"/><path d="M71.68,1009.18c1.13,3.57-1.91,1.08-2.71,1.86-2.15-2.22.2-2.93,1.35-4l.83.48Z" style="fill:#f3e23a"/><path d="M266.35,992.58c-.08-.05-.23-.12-.22-.16a.88.88,0,0,1,.16-.28c.09.05.24.12.23.16S266.41,992.49,266.35,992.58Z" style="fill:#f3e23a"/><path d="M267.93,990.49l.06.36c0-.12-.06-.24-.08-.36Z" style="fill:#f3e23a"/><path d="M28,1065.65c-.82.85-10,.93-10.45-.12-1.06-2.48-.67-5.15-.19-7.75.08-.47,9.91-1,10.33-.65C28.51,1057.88,28.76,1064.85,28,1065.65Z" style="fill:#f3e23a"/><path d="M26,1049.16a18.49,18.49,0,0,1-9.22-.3c-1.78-.56-1.23-4.06-1.4-6.27-.15-1.85,1.58-1.59,2.63-1.65,2.52-.14,5,0,7.58,0,.91,0,1.6.16,1.6,1.24C27.21,1044.43,27.76,1046.81,26,1049.16Z" style="fill:#f3e23a"/><path d="M10.51,1049.68c-3.15.58-6.58,1-9.86.06-2.35-.69-1.41-3.08-1.52-4.85-.16-2.7,1.22-3.29,3.71-3.19,6.78.28,7.69.79,8.18,5.58C11.1,1048.05,11.42,1048.86,10.51,1049.68Z" style="fill:#f3e23a"/><path d="M83.64,1035.52c-1.53-.12-3.79,1.25-4.22-1.81a24.37,24.37,0,0,1-.52-5.14c.07-1.11-1.87-3.26.88-3.29,1.74,0,4.63-.74,4.26,3a33.43,33.43,0,0,0,.35,5.44A1.69,1.69,0,0,1,83.64,1035.52Z" style="fill:#f3e23a"/><path d="M94.65,1056.51c-1.74-2.36-1.49-5-1.11-7.18s2.68-.33,4.08-.86,1.86.64,1.9,1.87c0,1.43.12,2.86.06,4.29,0,1.09.79,2.78-.87,3.06C97.28,1057.93,95.39,1058.23,94.65,1056.51Z" style="fill:#f3e23a"/><path d="M98.17,1035.64a7.88,7.88,0,0,1-2.23.08c-4.54-1-1.82-4.62-2.26-7-.5-2.72,1.92-1.73,3.3-1.88a1.84,1.84,0,0,1,1.12.33C98.58,1027.48,98.69,1035.2,98.17,1035.64Z" style="fill:#f3e23a"/><path d="M85.54,998.21c-2.18-.39-4.77.53-6.16-.93s-1.29-4.45,0-6.16c.8-1,4-.86,4.45.08A13.54,13.54,0,0,1,85.54,998.21Z" style="fill:#f3e23a"/><path d="M88,982.94c.06-3.09.1-5.64.15-8.18,1.74.26,4.32-1,5.07.65a6.49,6.49,0,0,1-.4,6.31C91.72,983.17,89.71,982.13,88,982.94Z" style="fill:#f3e23a"/><path d="M83.76,985c-1.24-3.18-3.92-3.81-5.62-5.65C83.53,977.82,85,979.09,83.76,985Z" style="fill:#f3e23a"/><path d="M333.22,933.36c-.9.5,1.84,2.08-1.21,2.4-6.89.73-6.81,1.14-8.87-5.38-.54-1.73-1.7-3.27-1.42-5.22,3.65-1.1,5.69,1.17,7.19,3.88,1.91-1.1-.61-2.42.85-3.38,2.52,2,3.1,5.52,5.57,7.57.47.39.71,1.25,1.54.9a1.5,1.5,0,0,0,.68-2.06c-.67-1.83-1.5-3.61-2.34-5.38-.32-.66-.56-1.39,0-1.84s1.5-.21,2.06.41c2.12,2.34,3.74,5.09,6.61,6.79,1.22.73.08,3.11-.28,3.08-2-.17-2.67,3.49-5.32,1.59C336.64,935.55,334.79,934.64,333.22,933.36Z" style="fill:#f3e23a"/><path d="M312.52,937.27c.85-3-.49-6,.57-9a4.35,4.35,0,0,1,2.71-2.87c1.17-.43,2.22.48,2.94,1.57,2,3,4.85,6.79,3.13,9.71C320.4,939.13,315.85,937.5,312.52,937.27Z" style="fill:#f3e23a"/><path d="M303.91,927.07c2-1.91,3.48-.78,4.82.65.8.85.84,9.23,0,9.37-2.47.44-5.19.67-7.3-.73C299.55,935.1,301.37,929.12,303.91,927.07Z" style="fill:#f3e23a"/><path d="M299.41,936.45c-2.89-.94-6.79.74-8.16-2.16-.94-2,2.53-3.85,3.75-5.95a6.32,6.32,0,0,1,.78-1.4c1.09-1.11,1.51-3.79,3.83-2.38s-.13,2.65-.72,3.8C297.5,931.07,299.26,933.53,299.41,936.45Z" style="fill:#f3e23a"/><path d="M236.09,1049.08c-1.21,0-2.8.9-4-.13-2.4-2.11-1.43-5.1-.82-7.45s3.24-.63,4.91-1.06c.18,0,.48.19.64.36C237.37,1041.34,236.82,1048.47,236.09,1049.08Z" style="fill:#f3e23a"/><path d="M222.5,994.27c-2.18-.26-4.83.81-6.45-.83-1.32-1.34-1.41-4.63,0-5.45s4.55-1.73,6,.26C223,989.66,224.19,991.94,222.5,994.27Z" style="fill:#f3e23a"/><path d="M227.76,1076.24c-.32,2.56.35,5.24-1.27,6.45-1.25.94-4.38,2.15-5.32.51-.81-1.41-2.51-4.53,0-6C222.84,1076.16,225.38,1076.52,227.76,1076.24Z" style="fill:#f3e23a"/><path d="M227.11,1030.35c-2.64.17-5.22,1.85-7.35,0-1.78-1.57-.14-4,1-4.69,1.73-1.06,4.45-2.35,6.22-1C228.32,1025.77,227.49,1028.31,227.11,1030.35Z" style="fill:#f3e23a"/><path d="M236.49,1058.25c.09,1.75.95,3.69-.84,4.84-1.06.68-2.8,2.06-3.8.48a5,5,0,0,1,.14-5.32C232.73,1057.33,234.93,1057.45,236.49,1058.25Z" style="fill:#f3e23a"/><path d="M372.61,1016.89c-1.81-.21-4.34,1.16-5.72-.58a4.94,4.94,0,0,1,.54-6.49,4,4,0,0,1,5.41-.37C373.71,1010.14,373.62,1015.92,372.61,1016.89Z" style="fill:#f3e23a"/><path d="M380.61,1052.08c2.43-1.69,5.25-1.75,7.9-2.34a1.69,1.69,0,0,1,2.26,1.09c.28,1.11,0,2.24-1.21,2.55-2.79.71-5.56,1.69-8.52,1.18-.82-.14-1.64-.3-1.57-1.38C379.52,1052.5,379.72,1051.82,380.61,1052.08Z" style="fill:#f3e23a"/><path d="M361.17,1035.14c-1.49-.22-3.37,1.72-4,.3-.9-2-1.46-4.75-.12-6.75.8-1.21,3.47-1.26,4.22,0A6.81,6.81,0,0,1,361.17,1035.14Z" style="fill:#f3e23a"/><path d="M361.33,1066.47c-.33-1.15-.27-2.29.95-2.65a48.92,48.92,0,0,1,5.39-1.07c.86-.16,1.13.32,1.16,1.1,0,1.54-1.06,2.06-2.23,2.32C364.88,1066.55,363.16,1067.62,361.33,1066.47Z" style="fill:#f3e23a"/><path d="M361.33,1046c-1.26,2.7-.18,5.45-3.19,5.83-1.5.2-2.28-.68-2.24-2.46C356,1045.9,358.72,1047.13,361.33,1046Z" style="fill:#f3e23a"/><path d="M269.53,1070.91c2.33-2.5,3.39-1.25,4.28.23,2,3.39,1.36,7.24,1.72,10.91a15,15,0,0,1-.28,3.17c-.65,6.11-2.29,7.47-8.27,6.89-.79-.08-1.85,0-1.63-1.18,1.25-6.61,1.47-13.43,4-19.78C269.48,1070.8,269.84,1070.54,269.53,1070.91Z" style="fill:#f3e23a"/><path d="M278.6,1054.29a22.24,22.24,0,0,1-3.47,1.08c-3.65.56-7.39.34-11,1.44-.33.11-1,0-1.09-.11-.65-2.35-.27-4.73-.18-7.11.06-1.51.94-2,2.3-2.24,4.23-.66,8.46-1.34,12.66-2.14,1.73-.34,2.22.27,2,1.84C279.46,1049.48,279.83,1052,278.6,1054.29Z" style="fill:#f3e23a"/><path d="M279.8,1032.52c-4.59.42-8.61.85-12.65,1.15-2.91.22-2.3-1.67-1.47-3.08a64.53,64.53,0,0,1,7-10.38C275.7,1023.9,277.34,1028.11,279.8,1032.52Z" style="fill:#f3e23a"/><path d="M190.41,1054.62c-5.68.08-10.32.12-15,.24-1.28,0-2.17-.16-1.79-1.7.72-2.92-.89-6.28,1.61-8.82.18-.18,1.21.32,1.72.68C181.2,1048,185.38,1051,190.41,1054.62Z" style="fill:#f3e23a"/><path d="M184,1088.21c-1-1-.09-7.47,1-8.45,1.57-1.4,3.54-1,5.28-.64,1,.2.55,7.53-.55,8.35C187.86,1088.84,185.72,1087.85,184,1088.21Z" style="fill:#f3e23a"/><path d="M179.08,1063.48c1.34,1.41,1.64,7.42.59,8a5.22,5.22,0,0,1-5.29.16c-.49-.27-1-7.85-.51-8.12C175.79,1062.41,177.6,1063.75,179.08,1063.48Z" style="fill:#f3e23a"/><path d="M614,1088.25c-1.07-7.71-.69-15.55-1.93-23.25-.26-1.63-.93-3.38.75-4.94a3,3,0,0,1,2-.94c4.22-.29,8.43-.69,12.65-.87,1.36,0,1.9-.44,1.91-1.76a18.15,18.15,0,0,1,.31-2.18c.21-1.69.81-2,2.74-1.83,3.26.39,6.62,0,9.94-.12,4.16-.1,5,.68,5.26,4.79.62,9.32,1.28,18.64,1.85,28,.08,1.43.54,1.65,1.91,1.66,2.58,0,5.14-.59,7.75,0,3.3.72,4,.21,3.32-3-1.26-6.16-.71-12.43-1.42-18.61-.42-3.71-.83-7.42-1.1-11.14-.08-1.1-.52-2.4.65-3.33.42-.33.06-.53-.19-.71-1.21-.91-1.21-2.21-1.12-3.53.48-.48,2.33,1,1.65-1.13.57-.56.68-1-.32-1l-.51-.29c-.36-1.29-2.92-2.73.87-3.68-1.51-.65-1.91-1.25-1.86-2.52a56.43,56.43,0,0,0-.55-12.65c-.43-2.33.63-3.71,3-3.83,5-.27,10.08-.06,15.09-.78,1.17-.17,1.77.57,2,1.69,1,5.69,1.87,11.39,1.5,17.2,0,.25-.14.66,0,.71,2.22,1.28,1.72,4.37,3.89,5.8-3,.38-1.4,3-1.16,3.68.88,2.6.27,5.2.57,7.76.63,5.32.58,10.71.83,16.08.15,3.4.36,6.81.47,10.22.06,1.84.65,2.55,2.69,2.23a17,17,0,0,1,4.84.36c1.29.18,1.92,0,1.94-1.57.06-4.21.63-8.4-.4-12.61-.68-2.75.13-3.23,2.84-2.88a42.54,42.54,0,0,0,10.93.23c2.38-.31,3.32.4,3.45,2.79.39,7.15.17,14.3.07,21.44,0,3.22-1.38,4.4-4.58,4.23-19.7-1-39.43-1.51-59.13-3-9.71-.7-19.45-1.29-29.18-1.84Zm20.41-8.64c.47-.48.32-4.71-.19-5.17-.25-.23-6.22.11-6.27.4a8,8,0,0,0,.12,4.71C628.3,1080.18,633.87,1080.13,634.37,1079.61Zm-1.2-10c1.06-1.42.72-2.87.73-4.26,0-.66-.42-.76-1-.75-1.53,0-3.07-.07-4.6,0-.64,0-1.69-.12-1.6,1,.11,1.34-.22,3.47.85,3.81A11.26,11.26,0,0,0,633.17,1069.6Zm-9.41.32c.55-.5.35-1,.3-1.46-.3-2.91-.85-3.22-5-3.39-1.51-.06-2.36.3-2.26,1.94.07,1.07-.5,2.52.92,3A12.93,12.93,0,0,0,623.76,1069.92Zm44.41-8.61a1,1,0,0,0,.46-1.11,20.49,20.49,0,0,1-.22-3.3c.23-2.25-1.53-1.81-2.58-1.8-1.68,0-.5,1.32-.54,2a15.19,15.19,0,0,0,.32,3.13C665.87,1062.08,667.24,1061.24,668.17,1061.31Zm6.68,12.76c.46,1,1.6.85,2.47.71s.5-1.19.53-1.86c0-.86,0-1.74,0-2.61s-.37-1.43-1.16-1.13-2.26-.75-2.48.53A5.41,5.41,0,0,0,674.85,1074.07Zm2.14-12.68c.32-.27.25-5,0-5.15a1.06,1.06,0,0,0-.68-.2c-.83.09-2.3-.51-2,1.14.27,1.45-1.39,3.63,1.37,4.26A5,5,0,0,0,677,1061.39Zm-7.67-22.74a8.19,8.19,0,0,0-1-4.25c-.3-.57-2.21-.69-2.7-.05a3,3,0,0,0,0,3.74C666.43,1039,668,1038.42,669.32,1038.65Zm1.49-9.27c1.05-.49,2.27.14,2.93-.74a4,4,0,0,0,.24-3.83c-.46-1-2-.24-3.08-.4C670.87,1026,670.84,1027.51,670.81,1029.38Zm-2.57,1.27c.78-3.61-.14-4.38-3.41-3.44C665.86,1028.33,667.49,1028.71,668.24,1030.65Z" style="fill:#474747"/><path d="M828.24,997a19.49,19.49,0,0,0,3.24,4.7c-.11.11-.25.34-.34.32-4-.64-7.43,2.31-11.39,1.54-1-.2-.67.51-.78,1-.73,3.38-.5,6.81-.36,10.22a136.9,136.9,0,0,0,2.46,19.22c1.1,6,.79,12,1.19,18.06.38,5.82.08,11.63.15,17.44.09,6.51-.22,13-.35,19.52,0,1.54-.31,2.84-1.93,3.58a28.12,28.12,0,0,1-15.11,2.26c-1.49-.17-1.49-.9-1.25-2.19,2.39-12.68,2.85-25.53,3.32-38.38.07-1.87.09-3.75.31-5.6a73.73,73.73,0,0,0-2.16-27.55c-1.35-5.2-2.68-10.47-5.33-15.22-.86-1.54-2-2.91-4.1-2.84a28,28,0,0,1-4.38-.32,2,2,0,0,1-1.92-1.56c-.15-.71-.38-1.48.44-2,3.67-2.16,5.28-6.09,7.82-9.21a7.67,7.67,0,0,1,5-3.06c1-.16,1.68-.27,1.07-1.78-1-2.46-.12-3.67,2.37-4.19.83-.17.83-.17.3-1.43,2.13-.36,2.51,1.68,3.64,2.68,1.05,1.32,2.36,2.46,2.65,4.29.08.5.74,1.38,1.05,1.07,1.09-1.12,1.75.35,2.62.23l1.15.25a3.3,3.3,0,0,0,3,3,7.35,7.35,0,0,1,4.35,2.77A13.59,13.59,0,0,0,828.24,997Zm-8.49,2.27c1,.78,2.08,1.33,3.06,2,1.61,1.15,2-1.07,3.23-1,.21,0,.91-1.43.17-1.87-1.74-1-2.73-2.71-4-4.13-.34-.38-.83-.6-1.25-.25s-.17.72,0,1.12c.51,1.07,1,2.15,1.42,3.27a.9.9,0,0,1-.41,1.25c-.51.21-.65-.31-.94-.55-1.5-1.25-1.85-3.36-3.38-4.6-.88.59.64,1.39-.51,2.06-.92-1.65-2.16-3-4.37-2.36-.17,1.18.53,2.12.86,3.17,1.25,4,1.2,3.71,5.39,3.27C820.87,1000.53,819.2,999.57,819.75,999.27Zm-12.57,2.37c2,.15,4.79,1.14,5.68-.38,1-1.77-.68-4.07-1.9-5.9-.44-.66-1.08-1.21-1.79-1a2.67,2.67,0,0,0-1.64,1.74C806.88,998,807.7,999.8,807.18,1001.64ZM802,995.45c-1.54,1.25-2.65,4.87-1.5,5.64a6.11,6.11,0,0,0,4.44.45c.5-.09.47-5.18,0-5.7C804.07,995,803.19,994.29,802,995.45Zm-2.73,5.7c-.1-1.77-1.16-3.27-.32-4.92.36-.7,1.93-1.4.44-2.31s-1.67.78-2.33,1.45a4.11,4.11,0,0,0-.47.85c-.74,1.28-2.85,2.41-2.28,3.62C795.09,1001.6,797.46,1000.58,799.22,1001.15Z" style="fill:#474747"/><path d="M767.49,1039.55c-2.9,1.41-2,3.53-2,5.8,0,4.26,1.15,8.39,1,12.64-.11,4.4-.15,8.8,0,13.19a134.5,134.5,0,0,1-1.28,24.56c-.33,2.32-1.27,3.47-3.78,3.35-5.17-.24-10.38.48-15.54-.57-1.29-.26-1.41-.74-1.09-1.81,4-13.29,2.19-26.75,1.2-40.19-.11-1.43-.65-2.85.24-4.25.72-1.12-1.17-1.44-.83-2.88s.15-7.94.74-9.14c.21-.42.69-.87.17-1.25-2.35-1.76-1.73-4.33-1.82-6.66-.09-2.54,1.3-3.81,3.81-3.8,4.32,0,8.63.08,12.94,0,2.13,0,2.29,1.74,2.21,2.78a5.17,5.17,0,0,0,.87,3.87,4,4,0,0,1,.3,2.15C764.73,1039,764.92,1040.46,767.49,1039.55Zm-6.73,30c.44-.37.77-4.7.47-5-.1-.11-.28-.25-.39-.22-1,.26-2.63-.72-3,.64s-1,3.24.49,4.52C759.06,1070.1,760,1069.57,760.76,1069.55Zm-8.26-33.29a3,3,0,0,0-.3-3.65c-.85-1.21-2.75-.67-3.62-.16s-.79,2.5,0,3.31C749.58,1036.76,751.18,1036.1,752.5,1036.26Zm3.2,49.79c-1.44.17-3,0-4,.57-1.51.9-.47,2.8,0,3.66s2.47.25,3.23-.31C755.92,1089.23,755.5,1087.6,755.7,1086.05Zm-.39-27.88c.23-1.23.73-2.78-.12-3.45-1.07-.84-2.72-.06-3.77.59-.66.4-1.66,1.89-.58,2.84C752.13,1059.3,753.7,1058.28,755.31,1058.17Zm5.7,16.95c-1-.48-2.29-.56-2.74,0a3,3,0,0,0-.08,3.23c.6,1,1.66.13,2.3-.29C761.58,1077.36,761.06,1076.18,761,1075.12Z" style="fill:#474747"/><path d="M853.74,1094.3l-2.19,1.89c-8.12,1.9-16.09,4.4-24.32,5.79-2.15.36-3.12-.67-2.76-2.82,1.82-11,2.32-22.15,2.69-33.29.11-3.54.44-7.08.67-10.63,0-.4.07-.81.07-1.21,0-3.66,0-3.57,3.77-3.49,4.09.09,4.28.93,3.78-3.92-.14-1.31.15-1.94,1.63-1.95,2.43,0,4.88-.44,7.29.1,1.94.44,3.38,1.3,3.32,3.79-.13,5.63-1.57,11.1-1.94,16.7-.19,2.88-.67,5.75-1.08,9.21,2.71-2.67,4.31-5.45,6.3-7.92a7.18,7.18,0,0,1,1.62-1.79c1-.58,2-1,2.69.7a74.66,74.66,0,0,1,3.38,9.4,5.21,5.21,0,0,1-.2,3.07c-1.39,4.89-2.64,9.83-3.94,14.75v0ZM843.67,1050c.62-.59.67-4.1.14-4.52a2.44,2.44,0,0,0-3.28.23,3,3,0,0,0-.33,3.94C841,1050.71,842.58,1049.88,843.67,1050Zm4.87,21.38c-.54-.16-.67.25-.7.66,0,.66.46.76.95.84,1.81.31,3.49-.29,5.18-.72.74-.18.91-.87.73-1.55s-.81-.78-1.37-.66C851.72,1070.31,850,1070.35,848.54,1071.38Zm-11.81-10.29a4.17,4.17,0,0,0,0-3.94,1.75,1.75,0,0,0-2.56,0c-.81,1.21-.47,2.88.07,4.1C834.68,1062.13,835.82,1061,836.73,1061.09Zm.09,19c1.11.69,2.16,0,3.21-.19.7-.16,1.38-.47,1.35-1.41,0-.47-.18-.76-.7-.67a32.24,32.24,0,0,0-3.28.65C836.66,1078.72,836.63,1079.42,836.82,1080.12Zm0-12.42c-1.59.67-3.25-.08-3.3,2,0,1.08.44,1.61,1.36,1.49C836.71,1071,836.06,1069.34,836.83,1067.7Z" style="fill:#474747"/><path d="M782.09,1033.15c.7,1.77.51,4.17,3.43,3.61a6.3,6.3,0,0,1-.14.65c-2.46-.23-2.48,1.15-2.38,3.09.13,2.56.09,4.76,2.47,6.71,2.72,2.23,6.17,4.41,7,7.88.83,3.27,0,6.92.11,10.41a61.13,61.13,0,0,1-.8,9.43c-.28,2.2.28,3.27,2.71,3.18,2.09-.09,4.83-.56,6.12.52s-.26,3.75-.34,5.76c-.13,3.25-.57,6.48-.84,9.72a2.32,2.32,0,0,1-2,2.35c-5.49,1.4-11.14,1.06-16.71,1.68-2.83.31-5.67,1-8.62.19-1.19-.34-1.49-.69-1.32-1.73,1.8-11.23,1.06-22.56,1.18-33.85a9.29,9.29,0,0,1,1.76-5.16c2.11-3.27,3.53-7,5.84-10.1,2-2.61,2.1-5.23,2-8.16,0-1.44-.4-2.15-1.95-1.93-.35,0-1,.26-.92-.58.05-.32.15-.7.58-.58C782.32,1037,781.57,1034.66,782.09,1033.15Zm-1,49.66c.19-.22,0-.06-.11.15-1.54,3.85-1.67,8-2.43,12-.13.7.51.67,1,.72,3.63.35,4.63-.48,5-4.19a10.57,10.57,0,0,0,.17-1.93c-.23-2.22.18-4.56-1.05-6.62C783.13,1082.05,782.48,1081.29,781.07,1082.81Zm5.51-10.09c.75-1.37.52-2.92.74-4.4.14-1-.16-1.32-1.21-1.12-2.55.49-5.11.9-7.68,1.3-.83.13-1.36.44-1.4,1.36a14.22,14.22,0,0,0,.11,4.32c0,.08.46.13.66.07,2.18-.67,4.46-.54,6.67-.88A13.75,13.75,0,0,0,786.58,1072.72Zm.73-13.22c-1.5-2.68-2.49-5.24-4.31-7.48a38.85,38.85,0,0,0-4.27,6.3c-.5.86-.88,2,.89,1.87C782.08,1060,784.52,1059.75,787.31,1059.5Z" style="fill:#474747"/><path d="M736.75,1098.22a2.42,2.42,0,0,1-1.61.42c-5.21-.06-10.41-.07-15.62-.18-2.82-.06-3.85-1.33-3.36-4.18,2-11.81,1.68-23.62.11-35.43-.19-1.48-.11-2.75,1.28-3.62s2.19.42,3.11,1.09c4.77,3.5,9.48,7.1,14.34,10.47a7.51,7.51,0,0,1,3.6,6.62,159.67,159.67,0,0,1-1.15,23.34A1.83,1.83,0,0,1,736.75,1098.22Zm-3.73-25.3c-3.06-2.19-5.6-4-8.15-5.83-.31-.22-.94-.53-1-.42-1.52,1.55-.54,3.58-1,5.36-.23.94.31,1,1.09,1C726.75,1073,729.56,1073,733,1072.92Zm-3.93,20.4c1.08-.22,2.38.38,3.49-.45.67-.5.92-4.95.33-5.08-1.06-.22-2.25-.46-3.2.39C729,1088.78,728.48,1092.7,729.09,1093.32Zm-3-15c-.9.16-2-.65-3.17,0-.27.17,0,4.77.31,4.94a3.18,3.18,0,0,0,3.21-.1C727.13,1082.8,727,1079.15,726.14,1078.3Z" style="fill:#474747"/><path d="M660.91,1045.32c.68,2.17-1.17.65-1.65,1.13-1.3-1.35.12-1.78.82-2.46l.51.29Z" style="fill:#f3e23a"/><path d="M779.14,1035.24s-.14-.08-.14-.1a.59.59,0,0,1,.1-.17s.15.07.14.1A.5.5,0,0,1,779.14,1035.24Z" style="fill:#f3e23a"/><path d="M780.1,1034l0,.22,0-.22Z" style="fill:#f3e23a"/><path d="M634.37,1079.61c-.5.52-6.07.57-6.34-.06a8,8,0,0,1-.12-4.71c.05-.29,6-.63,6.27-.4C634.69,1074.9,634.84,1079.13,634.37,1079.61Z" style="fill:#f3e23a"/><path d="M633.17,1069.6a11.26,11.26,0,0,1-5.6-.18c-1.07-.34-.74-2.47-.85-3.81-.09-1.12,1-1,1.6-1,1.53-.09,3.07,0,4.6,0,.56,0,1,.09,1,.75C633.89,1066.73,634.23,1068.18,633.17,1069.6Z" style="fill:#f3e23a"/><path d="M623.76,1069.92a12.93,12.93,0,0,1-6,0c-1.42-.43-.85-1.88-.92-3-.1-1.64.75-2,2.26-1.94,4.11.17,4.66.48,5,3.39C624.11,1068.93,624.31,1069.42,623.76,1069.92Z" style="fill:#f3e23a"/><path d="M668.17,1061.31c-.93-.07-2.3.77-2.56-1.09a15.19,15.19,0,0,1-.32-3.13c0-.67-1.14-2,.54-2,1,0,2.81-.45,2.58,1.8a20.49,20.49,0,0,0,.22,3.3A1,1,0,0,1,668.17,1061.31Z" style="fill:#f3e23a"/><path d="M674.85,1074.07a5.41,5.41,0,0,1-.67-4.36c.22-1.28,1.63-.21,2.48-.53s1.13.39,1.16,1.13.07,1.75,0,2.61c0,.67.48,1.69-.53,1.86S675.31,1075.11,674.85,1074.07Z" style="fill:#f3e23a"/><path d="M677,1061.39a5,5,0,0,1-1.35,0c-2.76-.63-1.1-2.81-1.37-4.26-.3-1.65,1.17-1,2-1.14a1.06,1.06,0,0,1,.68.2C677.24,1056.43,677.31,1061.12,677,1061.39Z" style="fill:#f3e23a"/><path d="M669.32,1038.65c-1.32-.23-2.89.33-3.74-.56a3,3,0,0,1,0-3.74c.49-.64,2.4-.52,2.7.05A8.19,8.19,0,0,1,669.32,1038.65Z" style="fill:#f3e23a"/><path d="M670.81,1029.38c0-1.87.06-3.42.09-5,1.06.16,2.62-.59,3.08.4a4,4,0,0,1-.24,3.83C673.08,1029.52,671.86,1028.89,670.81,1029.38Z" style="fill:#f3e23a"/><path d="M668.24,1030.65c-.75-1.94-2.38-2.32-3.41-3.44C668.1,1026.27,669,1027,668.24,1030.65Z" style="fill:#f3e23a"/><path d="M819.75,999.27c-.55.3,1.12,1.26-.73,1.46-4.19.44-4.14.69-5.39-3.27-.33-1.05-1-2-.86-3.17,2.21-.67,3.45.71,4.37,2.36,1.15-.67-.37-1.47.51-2.06,1.53,1.24,1.88,3.35,3.38,4.6.29.24.43.76.94.55a.9.9,0,0,0,.41-1.25c-.41-1.12-.91-2.2-1.42-3.27-.19-.4-.34-.85,0-1.12s.91-.13,1.25.25c1.29,1.42,2.28,3.09,4,4.13.74.44,0,1.88-.17,1.87-1.23-.11-1.62,2.11-3.23,1C821.83,1000.6,820.71,1000.05,819.75,999.27Z" style="fill:#f3e23a"/><path d="M807.18,1001.64c.52-1.84-.3-3.65.35-5.49a2.67,2.67,0,0,1,1.64-1.74c.71-.26,1.35.29,1.79,1,1.22,1.83,2.94,4.13,1.9,5.9C812,1002.78,809.2,1001.79,807.18,1001.64Z" style="fill:#f3e23a"/><path d="M802,995.45c1.24-1.16,2.12-.47,2.93.39.48.52.51,5.61,0,5.7a6.11,6.11,0,0,1-4.44-.45C799.3,1000.32,800.41,996.7,802,995.45Z" style="fill:#f3e23a"/><path d="M799.22,1001.15c-1.76-.57-4.13.45-5-1.31-.57-1.21,1.54-2.34,2.28-3.62a4.11,4.11,0,0,1,.47-.85c.66-.67.92-2.3,2.33-1.45s-.08,1.61-.44,2.31C798.06,997.88,799.12,999.38,799.22,1001.15Z" style="fill:#f3e23a"/><path d="M760.76,1069.55c-.74,0-1.7.55-2.41-.08-1.45-1.28-.86-3.1-.49-4.52s2-.38,3-.64c.11,0,.29.11.39.22C761.53,1064.85,761.2,1069.18,760.76,1069.55Z" style="fill:#f3e23a"/><path d="M752.5,1036.26c-1.32-.16-2.92.5-3.91-.5-.8-.81-.86-2.81,0-3.31s2.77-1,3.62.16A3,3,0,0,1,752.5,1036.26Z" style="fill:#f3e23a"/><path d="M755.31,1058.17c-1.61.11-3.18,1.13-4.47,0-1.08-1-.08-2.44.58-2.84,1.05-.65,2.7-1.43,3.77-.59C756,1055.39,755.54,1056.94,755.31,1058.17Z" style="fill:#f3e23a"/><path d="M761,1075.12c0,1.06.57,2.24-.52,2.94-.64.42-1.7,1.25-2.3.29a3,3,0,0,1,.08-3.23C758.72,1074.56,760.06,1074.64,761,1075.12Z" style="fill:#f3e23a"/><path d="M843.67,1050c-1.09-.12-2.63.71-3.47-.35a3,3,0,0,1,.33-3.94,2.44,2.44,0,0,1,3.28-.23C844.34,1045.9,844.29,1049.41,843.67,1050Z" style="fill:#f3e23a"/><path d="M848.54,1071.38c1.47-1,3.18-1.07,4.79-1.43.56-.12,1.19,0,1.37.66s0,1.37-.73,1.55c-1.69.43-3.37,1-5.18.72-.49-.08-1-.18-.95-.84C847.87,1071.63,848,1071.22,848.54,1071.38Z" style="fill:#f3e23a"/><path d="M836.73,1061.09c-.91-.14-2.05,1-2.44.18-.54-1.22-.88-2.89-.07-4.1a1.75,1.75,0,0,1,2.56,0A4.17,4.17,0,0,1,836.73,1061.09Z" style="fill:#f3e23a"/><path d="M836.82,1080.12c-.19-.7-.16-1.4.58-1.62a32.24,32.24,0,0,1,3.28-.65c.52-.09.68.2.7.67,0,.94-.65,1.25-1.35,1.41C839,1080.16,837.93,1080.81,836.82,1080.12Z" style="fill:#f3e23a"/><path d="M836.83,1067.7c-.77,1.64-.12,3.31-1.94,3.54-.92.12-1.39-.41-1.36-1.49C833.58,1067.62,835.24,1068.37,836.83,1067.7Z" style="fill:#f3e23a"/><path d="M786.58,1072.72a13.75,13.75,0,0,1-2.11.65c-2.21.34-4.49.21-6.67.88-.2.06-.63,0-.66-.07a14.22,14.22,0,0,1-.11-4.32c0-.92.57-1.23,1.4-1.36,2.57-.4,5.13-.81,7.68-1.3,1-.2,1.35.17,1.21,1.12C787.1,1069.8,787.33,1071.35,786.58,1072.72Z" style="fill:#f3e23a"/><path d="M787.31,1059.5c-2.79.25-5.23.51-7.69.69-1.77.14-1.39-1-.89-1.87A38.85,38.85,0,0,1,783,1052C784.82,1054.26,785.81,1056.82,787.31,1059.5Z" style="fill:#f3e23a"/><path d="M733,1072.92c-3.46,0-6.27.07-9.09.14-.78,0-1.32-.09-1.09-1,.44-1.78-.54-3.81,1-5.36.11-.11.74.2,1,.42C727.42,1068.89,730,1070.73,733,1072.92Z" style="fill:#f3e23a"/><path d="M726.14,1078.3c.81.85,1,4.5.35,4.87a3.18,3.18,0,0,1-3.21.1c-.29-.17-.58-4.77-.31-4.94C724.14,1077.65,725.24,1078.46,726.14,1078.3Z" style="fill:#f3e23a"/><path d="M1082.83,1092.4c-10.47.6-20.94,1.23-31.39,2-21.18,1.54-42.4,2.08-63.6,3.17-3.44.18-4.88-1.09-4.92-4.55-.1-7.69-.35-15.38.07-23.06.14-2.57,1.15-3.34,3.72-3a45.76,45.76,0,0,0,11.75-.25c2.92-.38,3.79.14,3.06,3.1-1.11,4.52-.49,9-.43,13.56,0,1.63.69,1.88,2.08,1.69a18.11,18.11,0,0,1,5.21-.39c2.19.35,2.82-.41,2.89-2.4.11-3.67.34-7.33.51-11,.26-5.76.21-11.56.89-17.28.32-2.76-.33-5.55.61-8.35.26-.74,1.94-3.55-1.24-4,2.33-1.53,1.79-4.86,4.18-6.24.1-.06,0-.5-.05-.76-.4-6.25.56-12.38,1.61-18.5.21-1.21.86-2,2.12-1.82,5.39.78,10.82.55,16.23.84,2.49.13,3.63,1.62,3.17,4.12a60.84,60.84,0,0,0-.59,13.61c0,1.36-.38,2-2,2.7,4.09,1,1.34,2.58.94,4l-.54.31c-1.08.07-1,.51-.35,1.11-.73,2.34,1.26.71,1.77,1.22.11,1.42.11,2.81-1.2,3.79-.26.2-.65.42-.2.77,1.26,1,.78,2.4.69,3.59-.29,4-.72,8-1.18,12-.76,6.65-.17,13.39-1.52,20-.7,3.45,0,4,3.56,3.21,2.81-.61,5.57,0,8.35,0,1.47,0,2-.24,2-1.78.61-10,1.33-20,2-30.08.29-4.43,1.18-5.26,5.66-5.16,3.57.09,7.18.55,10.69.14,2.07-.24,2.72.14,2.95,2a23.51,23.51,0,0,1,.33,2.34c0,1.42.59,1.83,2,1.89,4.54.2,9.07.62,13.6.94a3.19,3.19,0,0,1,2.18,1c1.81,1.67,1.08,3.56.8,5.31-1.32,8.29-.92,16.71-2.07,25Zm-10.71-14.57a8.75,8.75,0,0,0,.13-5.07c-.06-.31-6.48-.67-6.75-.42-.54.49-.71,5-.2,5.56S1071.83,1078.51,1072.12,1077.83Zm.49-10.9c1.16-.36.8-2.65.91-4.09.1-1.21-1-1-1.71-1.08-1.65-.09-3.31,0-5,0-.59,0-1,.1-1,.81,0,1.49-.36,3,.78,4.58A12.1,12.1,0,0,0,1072.61,1066.93Zm10.55.58c1.53-.45.92-2,1-3.17.1-1.76-.8-2.15-2.43-2.08-4.42.18-5,.52-5.34,3.64-.05.5-.26,1,.33,1.57A13.78,13.78,0,0,0,1083.16,1067.51ZM1031.7,1057a16.1,16.1,0,0,0,.34-3.36c0-.72,1.22-2.13-.58-2.15-1.13,0-3-.49-2.78,1.94a21.24,21.24,0,0,1-.23,3.55,1.11,1.11,0,0,0,.49,1.2C1029.94,1058.14,1031.42,1059,1031.7,1057Zm-9.22,10.2c-.23-1.37-1.75-.22-2.67-.56s-1.22.42-1.24,1.22-.08,1.87,0,2.8c0,.72-.52,1.82.57,2,.93.16,2.17.35,2.65-.77A5.8,5.8,0,0,0,1022.48,1067.24Zm-1.57-8.89c3-.68,1.19-3,1.47-4.58.33-1.78-1.25-1.13-2.15-1.23a1.21,1.21,0,0,0-.73.22c-.32.21-.39,5.25,0,5.54A5.44,5.44,0,0,0,1020.91,1058.35Zm10.82-25.11a3.27,3.27,0,0,0,0-4c-.52-.69-2.58-.56-2.91,0a8.86,8.86,0,0,0-1.11,4.58C1029.13,1033.59,1030.81,1034.19,1031.73,1033.24Zm-5.72-14.71c-1.14.17-2.82-.64-3.31.42a4.25,4.25,0,0,0,.26,4.13c.71.95,2,.27,3.15.79C1026.07,1021.85,1026,1020.19,1026,1018.53Zm6.53,3c-3.53-1-4.51-.18-3.68,3.69C1029.68,1023.15,1031.43,1022.74,1032.54,1021.54Z" style="fill:#474747"/><path d="M860.35,985.71a7.91,7.91,0,0,1,4.68-3,3.54,3.54,0,0,0,3.18-3.26l1.23-.27c.94.13,1.65-1.46,2.83-.25.33.34,1-.61,1.12-1.15.31-2,1.73-3.19,2.85-4.61,1.22-1.08,1.63-3.27,3.92-2.88-.58,1.35-.58,1.35.32,1.53,2.68.56,3.61,1.87,2.55,4.51-.66,1.62,0,1.74,1.15,1.91a8.23,8.23,0,0,1,5.37,3.3c2.73,3.35,4.47,7.58,8.41,9.91.88.52.64,1.34.47,2.11a2.16,2.16,0,0,1-2.07,1.68,31,31,0,0,1-4.7.34c-2.3-.07-3.49,1.41-4.42,3.06-2.85,5.11-4.28,10.78-5.73,16.36a79.6,79.6,0,0,0-2.32,29.64c.24,2,.26,4,.34,6,.5,13.82,1,27.64,3.56,41.28.27,1.39.26,2.18-1.34,2.36a30.14,30.14,0,0,1-16.25-2.43c-1.74-.79-2-2.2-2.08-3.85-.13-7-.47-14-.38-21,.08-6.25-.24-12.5.17-18.76.43-6.48.1-13,1.28-19.43a147.11,147.11,0,0,0,2.64-20.68c.15-3.66.41-7.35-.39-11-.11-.54.22-1.29-.83-1.09-4.26.83-8-2.33-12.25-1.64-.1,0-.25-.23-.37-.35a20.63,20.63,0,0,0,3.48-5.06A14.73,14.73,0,0,0,860.35,985.71Zm6.35,7.34c4.5.48,4.45.74,5.79-3.52.35-1.12,1.11-2.13.93-3.4-2.39-.72-3.72.76-4.7,2.53-1.24-.71.4-1.58-.55-2.21-1.65,1.33-2,3.61-3.64,4.95-.31.25-.46.82-1,.59a1,1,0,0,1-.44-1.35c.44-1.2,1-2.36,1.53-3.51.2-.43.36-.91,0-1.2s-1-.14-1.35.26c-1.38,1.53-2.45,3.33-4.32,4.44-.79.47-.05,2,.18,2,1.32-.11,1.75,2.28,3.48,1,1-.76,2.26-1.36,3.29-2.2C866.49,991.81,864.7,992.84,866.7,993.05Zm12.35-4.92a2.82,2.82,0,0,0-1.76-1.87c-.77-.28-1.45.31-1.93,1-1.31,2-3.16,4.44-2,6.34,1,1.63,3.93.57,6.11.42C878.87,992.05,879.75,990.1,879.05,988.13Zm2.85-.33c-.52.56-.55,6,0,6.12,1.61.29,3.39.44,4.77-.48s.05-4.72-1.61-6.06C883.71,986.13,882.78,986.87,881.9,987.8Zm11.42,4.29c.61-1.3-1.65-2.51-2.44-3.89a4.49,4.49,0,0,0-.52-.91c-.71-.73-1-2.48-2.5-1.56s.09,1.73.47,2.49c.91,1.77-.24,3.38-.34,5.28C889.88,992.89,892.43,994,893.32,992.09Z" style="fill:#474747"/><path d="M925.12,1032.42a4.39,4.39,0,0,1,.33-2.31,5.56,5.56,0,0,0,.94-4.17c-.09-1.11.08-3,2.38-3,4.63.11,9.27,0,13.91,0,2.71,0,4.2,1.36,4.1,4.09-.1,2.5.57,5.26-2,7.15-.55.42,0,.9.18,1.35.64,1.29.44,8.27.81,9.84s-1.67,1.89-.9,3.09c1,1.5.37,3,.26,4.57-1.07,14.45-3,28.94,1.29,43.23.35,1.15.21,1.66-1.18,1.94-5.55,1.13-11.15.36-16.71.62-2.7.13-3.71-1.11-4.06-3.61a144,144,0,0,1-1.38-26.41c.19-4.72.15-9.46,0-14.18s1.09-9,1.13-13.61c0-2.44,1-4.72-2.17-6.23C924.88,1035.79,925.09,1034.23,925.12,1032.42Zm6.82,34.57c1.57-1.38.94-3.33.54-4.86s-2.12-.41-3.21-.69c-.11,0-.31.12-.42.23-.33.35,0,5,.5,5.41C930.15,1067.1,931.18,1067.66,931.94,1067Zm10.5-36.26c.87-.87.93-3,0-3.56s-3-1.13-3.89.17a3.18,3.18,0,0,0-.32,3.93C939.66,1031.1,941.39,1031.81,942.44,1030.73Zm-6.81,58.3c.81.62,2.86,1.41,3.47.34s1.64-3,0-3.93c-1.11-.67-2.77-.44-4.32-.62C935,1086.49,934.57,1088.24,935.63,1089Zm4.4-34.21c1.15-1,.09-2.63-.63-3.06-1.13-.7-2.91-1.54-4.06-.63-.91.72-.37,2.38-.12,3.71C937,1055,938.63,1056.05,940,1054.82Zm-10.39,21.41c.69.45,1.84,1.35,2.48.31a3.22,3.22,0,0,0-.09-3.47c-.48-.6-1.92-.52-2.94,0C929,1074.21,928.48,1075.48,929.64,1076.23Z" style="fill:#474747"/><path d="M828.51,1092v0c-1.4-5.29-2.75-10.6-4.24-15.86a5.77,5.77,0,0,1-.22-3.31,82.75,82.75,0,0,1,3.64-10.1c.79-1.79,1.83-1.38,2.89-.76a7.58,7.58,0,0,1,1.75,1.93c2.14,2.65,3.86,5.64,6.78,8.51-.45-3.71-1-6.8-1.17-9.9-.4-6-1.94-11.9-2.08-18-.07-2.67,1.48-3.6,3.57-4.07,2.58-.58,5.22-.12,7.84-.1,1.59,0,1.9.68,1.75,2.1-.54,5.21-.33,4.3,4.07,4.21,4-.09,4-.18,4,3.75,0,.43.05.87.08,1.31.25,3.81.6,7.62.72,11.43.4,12,.94,24,2.89,35.8.39,2.31-.66,3.42-3,3-8.85-1.49-17.43-4.18-26.15-6.22l-2.36-2Zm15.4-46.32a3.23,3.23,0,0,0-.35-4.24,2.64,2.64,0,0,0-3.53-.24c-.57.45-.52,4.22.15,4.86C841.35,1045.91,843,1046.81,843.91,1045.67Zm-14.12,21.84a1.11,1.11,0,0,0-1.48.71,1.24,1.24,0,0,0,.79,1.67c1.82.46,3.63,1.1,5.57.77.53-.09,1.07-.2,1-.9,0-.45-.16-.89-.74-.72C833.36,1067.93,831.52,1067.9,829.79,1067.51Zm20.47-9.34c.59-1.31,1-3.11.09-4.41a1.9,1.9,0,0,0-2.76,0,4.5,4.5,0,0,0,0,4.23C848.62,1057.83,849.85,1059.1,850.26,1058.17Zm-3.34,18.54a34.26,34.26,0,0,0-3.52-.71c-.56-.1-.74.22-.75.73,0,1,.69,1.34,1.45,1.51,1.12.25,2.25,1,3.44.2C847.76,1077.69,847.72,1076.94,846.92,1076.71Zm2.7-7.81c1,.12,1.5-.45,1.47-1.61-.06-2.29-1.84-1.48-3.55-2.21C848.37,1066.85,847.66,1068.65,849.62,1068.9Z" style="fill:#474747"/><path d="M909.35,1031.24c.47-.12.57.29.62.63.13.9-.61.68-1,.63-1.67-.24-2.05.52-2.09,2.07-.08,3.15.07,6,2.18,8.78,2.49,3.32,4,7.35,6.28,10.86a10,10,0,0,1,1.9,5.55c.13,12.15-.67,24.33,1.26,36.41.18,1.12-.14,1.5-1.42,1.86-3.17.89-6.22.13-9.27-.21-6-.66-12.06-.3-18-1.8a2.5,2.5,0,0,1-2.14-2.53c-.29-3.48-.76-7-.9-10.45-.09-2.16-1.71-5.07-.37-6.19s4.33-.66,6.58-.57c2.62.1,3.22-1.06,2.92-3.41a64.38,64.38,0,0,1-.86-10.15c.12-3.76-.78-7.68.11-11.2.95-3.73,4.66-6.08,7.59-8.47,2.56-2.1,2.52-4.47,2.66-7.22.1-2.09.08-3.58-2.57-3.32,0,0-.06-.31-.14-.7,3.13.6,2.93-2,3.68-3.89C907,1029.55,906.17,1032.09,909.35,1031.24Zm-4.63,50.25c-1.32,2.21-.89,4.73-1.13,7.12a10.41,10.41,0,0,0,.18,2.07c.43,4,1.5,4.89,5.41,4.51.51,0,1.21,0,1.06-.77-.82-4.32-1-8.78-2.61-12.92-.09-.23-.32-.4-.12-.16C906,1079.7,905.29,1080.52,904.72,1081.49Zm-.87-10.3c2.38.36,4.83.22,7.17.94.22.07.69,0,.71-.08a15,15,0,0,0,.13-4.64c0-1-.62-1.32-1.51-1.46-2.76-.44-5.52-.88-8.26-1.4-1.13-.22-1.46.18-1.3,1.2.23,1.59,0,3.26.79,4.73A16.39,16.39,0,0,0,903.85,1071.19Zm5.22-14.18c1.9.14,1.5-1.09,1-2a42.89,42.89,0,0,0-4.6-6.78c-1.95,2.41-3,5.16-4.63,8C903.8,1056.54,906.43,1056.81,909.07,1057Z" style="fill:#474747"/><path d="M954.43,1096.33a171.25,171.25,0,0,1-1.24-25.11,8.08,8.08,0,0,1,3.87-7.12c5.23-3.62,10.29-7.49,15.43-11.25,1-.73,1.74-2.17,3.34-1.17s1.59,2.29,1.38,3.88c-1.69,12.71-2.06,25.41.12,38.12.52,3.06-.58,4.43-3.62,4.49-5.6.12-11.2.13-16.79.19a2.6,2.6,0,0,1-1.74-.45A1.94,1.94,0,0,1,954.43,1096.33ZM969,1070.85c.83,0,1.42-.1,1.17-1.1-.47-1.92.58-4.11-1.06-5.77-.11-.12-.79.21-1.12.45-2.75,1.94-5.48,3.91-8.76,6.27C962.91,1070.75,965.94,1070.77,969,1070.85Zm-6.21,16.27c-1-.92-2.31-.66-3.45-.42-.63.13-.36,4.92.35,5.46,1.2.89,2.6.25,3.76.48C964.07,1092,963.47,1087.76,962.76,1087.12Zm3.45-5.4a3.38,3.38,0,0,0,3.45.11c.32-.18.64-5.13.34-5.31-1.25-.73-2.44.14-3.41,0C965.72,1077.4,965.53,1081.33,966.21,1081.72Z" style="fill:#474747"/><path d="M1036.75,1041c-.73,2.34,1.26.71,1.77,1.22,1.41-1.45-.13-1.91-.88-2.64l-.54.31Z" style="fill:#f3e23a"/><path d="M909.59,1030.17s.15-.08.14-.11a.58.58,0,0,0-.11-.18s-.15.08-.14.11A.58.58,0,0,0,909.59,1030.17Z" style="fill:#f3e23a"/><path d="M908.55,1028.81l0,.23.05-.23Z" style="fill:#f3e23a"/><path d="M1065.3,1077.9c.53.55,6.53.61,6.82-.07a8.75,8.75,0,0,0,.13-5.07c-.06-.31-6.48-.67-6.75-.42C1065,1072.83,1064.79,1077.38,1065.3,1077.9Z" style="fill:#f3e23a"/><path d="M1066.59,1067.13a12.1,12.1,0,0,0,6-.2c1.16-.36.8-2.65.91-4.09.1-1.21-1-1-1.71-1.08-1.65-.09-3.31,0-5,0-.59,0-1,.1-1,.81C1065.81,1064,1065.45,1065.6,1066.59,1067.13Z" style="fill:#f3e23a"/><path d="M1076.71,1067.47a13.78,13.78,0,0,0,6.45,0c1.53-.45.92-2,1-3.17.1-1.76-.8-2.15-2.43-2.08-4.42.18-5,.52-5.34,3.64C1076.33,1066.4,1076.12,1066.93,1076.71,1067.47Z" style="fill:#f3e23a"/><path d="M1028.94,1058.22c1-.08,2.48.82,2.76-1.18a16.1,16.1,0,0,0,.34-3.36c0-.72,1.22-2.13-.58-2.15-1.13,0-3-.49-2.78,1.94a21.24,21.24,0,0,1-.23,3.55A1.11,1.11,0,0,0,1028.94,1058.22Z" style="fill:#f3e23a"/><path d="M1021.75,1071.93a5.8,5.8,0,0,0,.73-4.69c-.23-1.37-1.75-.22-2.67-.56s-1.22.42-1.24,1.22-.08,1.87,0,2.8c0,.72-.52,1.82.57,2C1020,1072.86,1021.27,1073.05,1021.75,1071.93Z" style="fill:#f3e23a"/><path d="M1019.45,1058.3a5.44,5.44,0,0,0,1.46,0c3-.68,1.19-3,1.47-4.58.33-1.78-1.25-1.13-2.15-1.23a1.21,1.21,0,0,0-.73.22C1019.18,1053,1019.11,1058,1019.45,1058.3Z" style="fill:#f3e23a"/><path d="M1027.7,1033.85c1.43-.26,3.11.34,4-.61a3.27,3.27,0,0,0,0-4c-.52-.69-2.58-.56-2.91,0A8.86,8.86,0,0,0,1027.7,1033.85Z" style="fill:#f3e23a"/><path d="M1026.11,1023.87c0-2-.07-3.68-.1-5.34-1.14.17-2.82-.64-3.31.42a4.25,4.25,0,0,0,.26,4.13C1023.67,1024,1025,1023.35,1026.11,1023.87Z" style="fill:#f3e23a"/><path d="M1028.86,1025.23c.82-2.08,2.57-2.49,3.68-3.69C1029,1020.52,1028,1021.36,1028.86,1025.23Z" style="fill:#f3e23a"/><path d="M865.91,991.48c.58.33-1.21,1.36.79,1.57,4.5.48,4.45.74,5.79-3.52.35-1.12,1.11-2.13.93-3.4-2.39-.72-3.72.76-4.7,2.53-1.24-.71.4-1.58-.55-2.21-1.65,1.33-2,3.61-3.64,4.95-.31.25-.46.82-1,.59a1,1,0,0,1-.44-1.35c.44-1.2,1-2.36,1.53-3.51.2-.43.36-.91,0-1.2s-1-.14-1.35.26c-1.38,1.53-2.45,3.33-4.32,4.44-.79.47-.05,2,.18,2,1.32-.11,1.75,2.28,3.48,1C863.67,992.92,864.88,992.32,865.91,991.48Z" style="fill:#f3e23a"/><path d="M879.43,994c-.56-2,.32-3.94-.38-5.91a2.82,2.82,0,0,0-1.76-1.87c-.77-.28-1.45.31-1.93,1-1.31,2-3.16,4.44-2,6.34C874.28,995.25,877.25,994.19,879.43,994Z" style="fill:#f3e23a"/><path d="M885.05,987.38c-1.34-1.25-2.27-.51-3.15.42-.52.56-.55,6,0,6.12,1.61.29,3.39.44,4.77-.48S886.71,988.72,885.05,987.38Z" style="fill:#f3e23a"/><path d="M888,993.5c1.89-.61,4.44.49,5.33-1.41.61-1.3-1.65-2.51-2.44-3.89a4.49,4.49,0,0,0-.52-.91c-.71-.73-1-2.48-2.5-1.56s.09,1.73.47,2.49C889.24,990,888.09,991.6,888,993.5Z" style="fill:#f3e23a"/><path d="M929.35,1067.08c.8,0,1.83.58,2.59-.09,1.57-1.38.94-3.33.54-4.86s-2.12-.41-3.21-.69c-.11,0-.31.12-.42.23C928.52,1062,928.88,1066.68,929.35,1067.08Z" style="fill:#f3e23a"/><path d="M938.24,1031.27c1.42-.17,3.15.54,4.2-.54.87-.87.93-3,0-3.56s-3-1.13-3.89.17A3.18,3.18,0,0,0,938.24,1031.27Z" style="fill:#f3e23a"/><path d="M935.22,1054.84c1.73.11,3.41,1.21,4.81,0,1.15-1,.09-2.63-.63-3.06-1.13-.7-2.91-1.54-4.06-.63C934.43,1051.85,935,1053.51,935.22,1054.84Z" style="fill:#f3e23a"/><path d="M929.09,1073.07c-.06,1.14-.61,2.41.55,3.16.69.45,1.84,1.35,2.48.31a3.22,3.22,0,0,0-.09-3.47C931.55,1072.47,930.11,1072.55,929.09,1073.07Z" style="fill:#f3e23a"/><path d="M840.18,1046.05c1.17-.14,2.83.76,3.73-.38a3.23,3.23,0,0,0-.35-4.24,2.64,2.64,0,0,0-3.53-.24C839.46,1041.64,839.51,1045.41,840.18,1046.05Z" style="fill:#f3e23a"/><path d="M835,1069c-1.59-1.11-3.43-1.14-5.16-1.53a1.11,1.11,0,0,0-1.48.71,1.24,1.24,0,0,0,.79,1.67c1.82.46,3.63,1.1,5.57.77.53-.09,1.07-.2,1-.9C835.66,1069.31,835.53,1068.87,835,1069Z" style="fill:#f3e23a"/><path d="M847.64,1058c1-.14,2.21,1.13,2.62.2.59-1.31,1-3.11.09-4.41a1.9,1.9,0,0,0-2.76,0A4.5,4.5,0,0,0,847.64,1058Z" style="fill:#f3e23a"/><path d="M847.54,1078.44c.22-.75.18-1.5-.62-1.73a34.26,34.26,0,0,0-3.52-.71c-.56-.1-.74.22-.75.73,0,1,.69,1.34,1.45,1.51C845.22,1078.49,846.35,1079.19,847.54,1078.44Z" style="fill:#f3e23a"/><path d="M847.54,1065.08c.83,1.77.12,3.57,2.08,3.82,1,.12,1.5-.45,1.47-1.61C851,1065,849.25,1065.81,847.54,1065.08Z" style="fill:#f3e23a"/><path d="M901.58,1070.48a16.39,16.39,0,0,0,2.27.71c2.38.36,4.83.22,7.17.94.22.07.69,0,.71-.08a15,15,0,0,0,.13-4.64c0-1-.62-1.32-1.51-1.46-2.76-.44-5.52-.88-8.26-1.4-1.13-.22-1.46.18-1.3,1.2C901,1067.34,900.78,1069,901.58,1070.48Z" style="fill:#f3e23a"/><path d="M900.8,1056.26c3,.28,5.63.55,8.27.75,1.9.14,1.5-1.09,1-2a42.89,42.89,0,0,0-4.6-6.78C903.48,1050.63,902.41,1053.38,900.8,1056.26Z" style="fill:#f3e23a"/><path d="M959.2,1070.7c3.71,0,6.74.07,9.77.15.83,0,1.42-.1,1.17-1.1-.47-1.92.58-4.11-1.06-5.77-.11-.12-.79.21-1.12.45C965.21,1066.37,962.48,1068.34,959.2,1070.7Z" style="fill:#f3e23a"/><path d="M966.59,1076.48c-.87.92-1.06,4.85-.38,5.24a3.38,3.38,0,0,0,3.45.11c.32-.18.64-5.13.34-5.31C968.75,1075.79,967.56,1076.66,966.59,1076.48Z" style="fill:#f3e23a"/><path d="M634.83,1093.4c-10.47.6-20.94,1.23-31.39,2-21.18,1.54-42.4,2.08-63.6,3.17-3.44.18-4.88-1.09-4.92-4.55-.1-7.69-.35-15.38.07-23.06.14-2.57,1.15-3.34,3.72-3a45.76,45.76,0,0,0,11.75-.25c2.92-.38,3.79.14,3.06,3.1-1.11,4.52-.49,9-.43,13.56,0,1.63.69,1.88,2.08,1.69a18.11,18.11,0,0,1,5.21-.39c2.19.35,2.82-.41,2.89-2.4.11-3.67.34-7.33.51-11,.26-5.76.21-11.56.89-17.28.32-2.76-.33-5.55.61-8.35.26-.74,1.94-3.55-1.24-4,2.33-1.53,1.79-4.86,4.18-6.24.1-.06,0-.5-.05-.76-.4-6.25.56-12.38,1.61-18.5.21-1.21.86-2,2.12-1.82,5.39.78,10.82.55,16.23.84,2.49.13,3.63,1.62,3.17,4.12a60.84,60.84,0,0,0-.59,13.61c0,1.36-.38,2-2,2.7,4.09,1,1.34,2.58.94,4l-.54.31c-1.08.07-1,.51-.35,1.11-.73,2.34,1.26.71,1.77,1.22.11,1.42.11,2.81-1.2,3.79-.26.2-.65.42-.2.77,1.26,1,.78,2.4.69,3.59-.29,4-.72,8-1.18,12-.76,6.65-.17,13.39-1.52,20-.7,3.45,0,4,3.56,3.21,2.81-.61,5.57,0,8.35,0,1.47,0,2-.24,2.05-1.78.61-10,1.33-20,2-30.08.29-4.43,1.18-5.26,5.66-5.16,3.57.09,7.18.55,10.69.14,2.07-.24,2.72.14,3,2a23.51,23.51,0,0,1,.33,2.34c0,1.42.59,1.83,2,1.89,4.54.2,9.07.62,13.6.94a3.19,3.19,0,0,1,2.18,1c1.81,1.67,1.08,3.56.8,5.31-1.32,8.29-.92,16.71-2.07,25Zm-10.71-14.57a8.75,8.75,0,0,0,.13-5.07c-.06-.31-6.48-.67-6.75-.42-.54.49-.71,5-.2,5.56S623.83,1079.51,624.12,1078.83Zm.49-10.9c1.16-.36.8-2.65.91-4.09.1-1.21-1-1-1.71-1.08-1.65-.09-3.31,0-5,0-.59,0-1.05.1-1,.81,0,1.49-.36,3,.78,4.58A12.1,12.1,0,0,0,624.61,1067.93Zm10.55.58c1.53-.45.92-2,1-3.17.1-1.76-.8-2.15-2.43-2.08-4.42.18-5,.52-5.34,3.64,0,.5-.26,1,.33,1.57A13.78,13.78,0,0,0,635.16,1068.51ZM583.7,1058a16.1,16.1,0,0,0,.34-3.36c0-.72,1.22-2.13-.58-2.15-1.13,0-3-.49-2.78,1.94a21.24,21.24,0,0,1-.23,3.55,1.11,1.11,0,0,0,.49,1.2C581.94,1059.14,583.42,1060,583.7,1058Zm-9.22,10.2c-.23-1.37-1.75-.22-2.67-.56s-1.22.42-1.24,1.22-.08,1.87,0,2.8c0,.72-.52,1.82.57,2,.93.16,2.17.35,2.65-.77A5.8,5.8,0,0,0,574.48,1068.24Zm-1.57-8.89c3-.68,1.19-3,1.47-4.58.33-1.78-1.25-1.13-2.15-1.23a1.21,1.21,0,0,0-.73.22c-.32.21-.39,5.25,0,5.54A5.44,5.44,0,0,0,572.91,1059.35Zm10.82-25.11a3.27,3.27,0,0,0,0-4c-.52-.69-2.58-.56-2.91,0a8.86,8.86,0,0,0-1.11,4.58C581.13,1034.59,582.81,1035.19,583.73,1034.24ZM578,1019.53c-1.14.17-2.82-.64-3.31.42a4.25,4.25,0,0,0,.26,4.13c.71,1,2,.27,3.15.79C578.07,1022.85,578,1021.19,578,1019.53Zm6.53,3c-3.53-1-4.51-.18-3.68,3.69C581.68,1024.15,583.43,1023.74,584.54,1022.54Z" style="fill:#474747"/><path d="M412.35,986.71a7.91,7.91,0,0,1,4.68-3,3.54,3.54,0,0,0,3.18-3.26l1.23-.27c.94.13,1.65-1.46,2.83-.25.33.34,1-.61,1.12-1.15.31-2,1.73-3.19,2.85-4.61,1.22-1.08,1.63-3.27,3.92-2.88-.58,1.35-.58,1.35.32,1.53,2.68.56,3.61,1.87,2.55,4.51-.66,1.62,0,1.74,1.15,1.91a8.23,8.23,0,0,1,5.37,3.3c2.73,3.35,4.47,7.58,8.41,9.91.88.52.64,1.34.47,2.11a2.16,2.16,0,0,1-2.07,1.68,31,31,0,0,1-4.7.34c-2.3-.07-3.49,1.41-4.42,3.06-2.85,5.11-4.28,10.78-5.73,16.36a79.6,79.6,0,0,0-2.32,29.64c.24,2,.26,4,.34,6,.5,13.82,1,27.64,3.56,41.28.27,1.39.26,2.18-1.34,2.36a30.14,30.14,0,0,1-16.25-2.43c-1.74-.79-2.05-2.2-2.08-3.85-.13-7-.47-14-.38-21,.08-6.25-.24-12.5.17-18.76.43-6.48.1-13,1.28-19.43a147.11,147.11,0,0,0,2.64-20.68c.15-3.66.41-7.35-.39-11-.11-.54.22-1.29-.83-1.09-4.26.83-8-2.33-12.25-1.64-.1,0-.25-.23-.37-.35a20.63,20.63,0,0,0,3.48-5.06A14.73,14.73,0,0,0,412.35,986.71Zm6.35,7.34c4.5.48,4.45.74,5.79-3.52.35-1.12,1.11-2.13.93-3.4-2.39-.72-3.72.76-4.7,2.53-1.24-.71.4-1.58-.55-2.21-1.65,1.33-2,3.61-3.64,4.95-.31.25-.46.82-1,.59a1,1,0,0,1-.44-1.35c.44-1.2,1-2.36,1.53-3.51.2-.43.36-.91,0-1.2s-1-.14-1.35.26c-1.38,1.53-2.45,3.33-4.32,4.44-.79.47,0,2,.18,2,1.32-.11,1.75,2.28,3.48,1,1.05-.76,2.26-1.36,3.29-2.2C418.49,992.81,416.7,993.84,418.7,994.05Zm12.35-4.92a2.82,2.82,0,0,0-1.76-1.87c-.77-.28-1.45.31-1.93,1-1.31,2-3.16,4.44-2,6.34,1,1.63,3.93.57,6.11.42C430.87,993.05,431.75,991.1,431.05,989.13Zm2.85-.33c-.52.56-.55,6,0,6.12,1.61.29,3.39.44,4.77-.48s0-4.72-1.61-6.06C435.71,987.13,434.78,987.87,433.9,988.8Zm11.42,4.29c.61-1.3-1.65-2.51-2.44-3.89a4.49,4.49,0,0,0-.52-.91c-.71-.73-1-2.48-2.5-1.56s.09,1.73.47,2.49c.91,1.77-.24,3.38-.34,5.28C441.88,993.89,444.43,995,445.32,993.09Z" style="fill:#474747"/><path d="M477.12,1033.42a4.39,4.39,0,0,1,.33-2.31,5.56,5.56,0,0,0,.94-4.17c-.09-1.11.08-3,2.38-3,4.63.11,9.27,0,13.91,0,2.71,0,4.2,1.36,4.1,4.09-.1,2.5.57,5.26-2,7.15-.55.42,0,.9.18,1.35.64,1.29.44,8.27.81,9.84s-1.67,1.89-.9,3.09c1,1.5.37,3,.26,4.57-1.07,14.45-3,28.94,1.29,43.23.35,1.15.21,1.66-1.18,1.94-5.55,1.13-11.15.36-16.71.62-2.7.13-3.71-1.11-4.06-3.61a144,144,0,0,1-1.38-26.41c.19-4.72.15-9.46,0-14.18s1.09-9,1.13-13.61c0-2.44.95-4.72-2.17-6.23C476.88,1036.79,477.09,1035.23,477.12,1033.42Zm6.82,34.57c1.57-1.38.94-3.33.54-4.86s-2.12-.41-3.21-.69c-.11,0-.31.12-.42.23-.33.35,0,5,.5,5.41C482.15,1068.1,483.18,1068.66,483.94,1068Zm10.5-36.26c.87-.87.93-3,0-3.56s-3-1.13-3.89.17a3.18,3.18,0,0,0-.32,3.93C491.66,1032.1,493.39,1032.81,494.44,1031.73Zm-6.81,58.3c.81.62,2.86,1.41,3.47.34s1.64-3,0-3.93c-1.11-.67-2.77-.44-4.32-.62C487,1087.49,486.57,1089.24,487.63,1090Zm4.4-34.21c1.15-1,.09-2.63-.63-3.06-1.13-.7-2.91-1.54-4.06-.63-.91.72-.37,2.38-.12,3.71C489,1056,490.63,1057.05,492,1055.82Zm-10.39,21.41c.69.45,1.84,1.35,2.48.31a3.22,3.22,0,0,0-.09-3.47c-.48-.6-1.92-.52-2.94,0C481,1075.21,480.48,1076.48,481.64,1077.23Z" style="fill:#474747"/><path d="M380.51,1093v0c-1.4-5.29-2.75-10.6-4.24-15.86a5.77,5.77,0,0,1-.22-3.31,82.75,82.75,0,0,1,3.64-10.1c.79-1.79,1.83-1.38,2.89-.76a7.58,7.58,0,0,1,1.75,1.93c2.14,2.65,3.86,5.64,6.78,8.51-.45-3.71-1-6.8-1.17-9.9-.4-6-1.94-11.9-2.08-18-.07-2.67,1.48-3.6,3.57-4.07,2.58-.58,5.22-.12,7.84-.1,1.59,0,1.9.68,1.75,2.1-.54,5.21-.33,4.3,4.07,4.21,4-.09,4-.18,4.05,3.75,0,.43.05.87.08,1.31.25,3.81.6,7.62.72,11.43.4,12,.94,24,2.89,35.8.39,2.31-.66,3.42-3,3-8.85-1.49-17.43-4.18-26.15-6.22l-2.36-2Zm15.4-46.32a3.23,3.23,0,0,0-.35-4.24,2.64,2.64,0,0,0-3.53-.24c-.57.45-.52,4.22.15,4.86C393.35,1046.91,395,1047.81,395.91,1046.67Zm-14.12,21.84a1.11,1.11,0,0,0-1.48.71,1.24,1.24,0,0,0,.79,1.67c1.82.46,3.63,1.1,5.57.77.53-.09,1.07-.2,1-.9,0-.45-.16-.89-.74-.72C385.36,1068.93,383.52,1068.9,381.79,1068.51Zm20.47-9.34c.59-1.31,1-3.11.09-4.41a1.9,1.9,0,0,0-2.76,0,4.5,4.5,0,0,0,.05,4.23C400.62,1058.83,401.85,1060.1,402.26,1059.17Zm-3.34,18.54a34.26,34.26,0,0,0-3.52-.71c-.56-.1-.74.22-.75.73,0,1,.69,1.34,1.45,1.51,1.12.25,2.25,1,3.44.2C399.76,1078.69,399.72,1077.94,398.92,1077.71Zm2.7-7.81c1,.12,1.5-.45,1.47-1.61-.06-2.29-1.84-1.48-3.55-2.21C400.37,1067.85,399.66,1069.65,401.62,1069.9Z" style="fill:#474747"/><path d="M461.35,1032.24c.47-.12.57.29.62.63.13.9-.61.68-1,.63-1.67-.24-2.05.52-2.09,2.07-.08,3.15.07,6,2.18,8.78,2.49,3.32,4,7.35,6.28,10.86a10,10,0,0,1,1.9,5.55c.13,12.15-.67,24.33,1.26,36.41.18,1.12-.14,1.5-1.42,1.86-3.17.89-6.22.13-9.27-.21-6-.66-12.06-.3-18-1.8a2.5,2.5,0,0,1-2.14-2.53c-.29-3.48-.76-7-.9-10.45-.09-2.16-1.71-5.07-.37-6.19s4.33-.66,6.58-.57c2.62.1,3.22-1.06,2.92-3.41a64.38,64.38,0,0,1-.86-10.15c.12-3.76-.78-7.68.11-11.2.95-3.73,4.66-6.08,7.59-8.47,2.56-2.1,2.52-4.47,2.66-7.22.1-2.09.08-3.58-2.57-3.32,0,0-.06-.31-.14-.7,3.13.6,2.93-2,3.68-3.89C459,1030.55,458.17,1033.09,461.35,1032.24Zm-4.63,50.25c-1.32,2.21-.89,4.73-1.13,7.12a10.41,10.41,0,0,0,.18,2.07c.43,4,1.5,4.89,5.41,4.51.51,0,1.21,0,1.06-.77-.82-4.32-1-8.78-2.61-12.92-.09-.23-.32-.4-.12-.16C458,1080.7,457.29,1081.52,456.72,1082.49Zm-.87-10.3c2.38.36,4.83.22,7.17.94.22.07.69,0,.71-.08a15,15,0,0,0,.13-4.64c0-1-.62-1.32-1.51-1.46-2.76-.44-5.52-.88-8.26-1.4-1.13-.22-1.46.18-1.3,1.2.23,1.59,0,3.26.79,4.73A16.39,16.39,0,0,0,455.85,1072.19Zm5.22-14.18c1.9.14,1.5-1.09,1-2a42.89,42.89,0,0,0-4.6-6.78c-1.95,2.41-3,5.16-4.63,8C455.8,1057.54,458.43,1057.81,461.07,1058Z" style="fill:#474747"/><path d="M506.43,1097.33a171.25,171.25,0,0,1-1.24-25.11,8.08,8.08,0,0,1,3.87-7.12c5.23-3.62,10.29-7.49,15.43-11.25,1-.73,1.74-2.17,3.34-1.17s1.59,2.29,1.38,3.88c-1.69,12.71-2.06,25.41.12,38.12.52,3.06-.58,4.43-3.62,4.49-5.6.12-11.2.13-16.79.19a2.6,2.6,0,0,1-1.74-.45A1.94,1.94,0,0,1,506.43,1097.33ZM521,1071.85c.83,0,1.42-.1,1.17-1.1-.47-1.92.58-4.11-1.06-5.77-.11-.12-.79.21-1.12.45-2.75,1.94-5.48,3.91-8.76,6.27C514.91,1071.75,517.94,1071.77,521,1071.85Zm-6.21,16.27c-1-.92-2.31-.66-3.45-.42-.63.13-.36,4.92.35,5.46,1.2.89,2.6.25,3.76.48C516.07,1093,515.47,1088.76,514.76,1088.12Zm3.45-5.4a3.38,3.38,0,0,0,3.45.11c.32-.18.64-5.13.34-5.31-1.25-.73-2.44.14-3.41,0C517.72,1078.4,517.53,1082.33,518.21,1082.72Z" style="fill:#474747"/><path d="M588.75,1042c-.73,2.34,1.26.71,1.77,1.22,1.41-1.45-.13-1.91-.88-2.64l-.54.31Z" style="fill:#f3e23a"/><path d="M461.59,1031.17c.05,0,.15-.08.14-.11a.58.58,0,0,0-.11-.18c-.05,0-.15.08-.14.11A.58.58,0,0,0,461.59,1031.17Z" style="fill:#f3e23a"/><path d="M460.55,1029.81l0,.23.05-.23Z" style="fill:#f3e23a"/><path d="M617.3,1078.9c.53.55,6.53.61,6.82-.07a8.75,8.75,0,0,0,.13-5.07c-.06-.31-6.48-.67-6.75-.42C617,1073.83,616.79,1078.38,617.3,1078.9Z" style="fill:#f3e23a"/><path d="M618.59,1068.13a12.1,12.1,0,0,0,6-.2c1.16-.36.8-2.65.91-4.09.1-1.21-1-1-1.71-1.08-1.65-.09-3.31,0-5,0-.59,0-1.05.1-1,.81C617.81,1065,617.45,1066.6,618.59,1068.13Z" style="fill:#f3e23a"/><path d="M628.71,1068.47a13.78,13.78,0,0,0,6.45,0c1.53-.45.92-2,1-3.17.1-1.76-.8-2.15-2.43-2.08-4.42.18-5,.52-5.34,3.64C628.33,1067.4,628.12,1067.93,628.71,1068.47Z" style="fill:#f3e23a"/><path d="M580.94,1059.22c1-.08,2.48.82,2.76-1.18a16.1,16.1,0,0,0,.34-3.36c0-.72,1.22-2.13-.58-2.15-1.13,0-3-.49-2.78,1.94a21.24,21.24,0,0,1-.23,3.55A1.11,1.11,0,0,0,580.94,1059.22Z" style="fill:#f3e23a"/><path d="M573.75,1072.93a5.8,5.8,0,0,0,.73-4.69c-.23-1.37-1.75-.22-2.67-.56s-1.22.42-1.24,1.22-.08,1.87,0,2.8c0,.72-.52,1.82.57,2C572,1073.86,573.27,1074.05,573.75,1072.93Z" style="fill:#f3e23a"/><path d="M571.45,1059.3a5.44,5.44,0,0,0,1.46,0c3-.68,1.19-3,1.47-4.58.33-1.78-1.25-1.13-2.15-1.23a1.21,1.21,0,0,0-.73.22C571.18,1054,571.11,1059,571.45,1059.3Z" style="fill:#f3e23a"/><path d="M579.7,1034.85c1.43-.26,3.11.34,4-.61a3.27,3.27,0,0,0,0-4c-.52-.69-2.58-.56-2.91,0A8.86,8.86,0,0,0,579.7,1034.85Z" style="fill:#f3e23a"/><path d="M578.11,1024.87c0-2-.07-3.68-.1-5.34-1.14.17-2.82-.64-3.31.42a4.25,4.25,0,0,0,.26,4.13C575.67,1025,577,1024.35,578.11,1024.87Z" style="fill:#f3e23a"/><path d="M580.86,1026.23c.82-2.08,2.57-2.49,3.68-3.69C581,1021.52,580,1022.36,580.86,1026.23Z" style="fill:#f3e23a"/><path d="M417.91,992.48c.58.33-1.21,1.36.79,1.57,4.5.48,4.45.74,5.79-3.52.35-1.12,1.11-2.13.93-3.4-2.39-.72-3.72.76-4.7,2.53-1.24-.71.4-1.58-.55-2.21-1.65,1.33-2,3.61-3.64,4.95-.31.25-.46.82-1,.59a1,1,0,0,1-.44-1.35c.44-1.2,1-2.36,1.53-3.51.2-.43.36-.91,0-1.2s-1-.14-1.35.26c-1.38,1.53-2.45,3.33-4.32,4.44-.79.47,0,2,.18,2,1.32-.11,1.75,2.28,3.48,1C415.67,993.92,416.88,993.32,417.91,992.48Z" style="fill:#f3e23a"/><path d="M431.43,995c-.56-2,.32-3.94-.38-5.91a2.82,2.82,0,0,0-1.76-1.87c-.77-.28-1.45.31-1.93,1-1.31,2-3.16,4.44-2,6.34C426.28,996.25,429.25,995.19,431.43,995Z" style="fill:#f3e23a"/><path d="M437.05,988.38c-1.34-1.25-2.27-.51-3.15.42-.52.56-.55,6,0,6.12,1.61.29,3.39.44,4.77-.48S438.71,989.72,437.05,988.38Z" style="fill:#f3e23a"/><path d="M440,994.5c1.89-.61,4.44.49,5.33-1.41.61-1.3-1.65-2.51-2.44-3.89a4.49,4.49,0,0,0-.52-.91c-.71-.73-1-2.48-2.5-1.56s.09,1.73.47,2.49C441.24,991,440.09,992.6,440,994.5Z" style="fill:#f3e23a"/><path d="M481.35,1068.08c.8,0,1.83.58,2.59-.09,1.57-1.38.94-3.33.54-4.86s-2.12-.41-3.21-.69c-.11,0-.31.12-.42.23C480.52,1063,480.88,1067.68,481.35,1068.08Z" style="fill:#f3e23a"/><path d="M490.24,1032.27c1.42-.17,3.15.54,4.2-.54.87-.87.93-3,0-3.56s-3-1.13-3.89.17A3.18,3.18,0,0,0,490.24,1032.27Z" style="fill:#f3e23a"/><path d="M487.22,1055.84c1.73.11,3.41,1.21,4.81,0,1.15-1,.09-2.63-.63-3.06-1.13-.7-2.91-1.54-4.06-.63C486.43,1052.85,487,1054.51,487.22,1055.84Z" style="fill:#f3e23a"/><path d="M481.09,1074.07c-.06,1.14-.61,2.41.55,3.16.69.45,1.84,1.35,2.48.31a3.22,3.22,0,0,0-.09-3.47C483.55,1073.47,482.11,1073.55,481.09,1074.07Z" style="fill:#f3e23a"/><path d="M392.18,1047.05c1.17-.14,2.83.76,3.73-.38a3.23,3.23,0,0,0-.35-4.24,2.64,2.64,0,0,0-3.53-.24C391.46,1042.64,391.51,1046.41,392.18,1047.05Z" style="fill:#f3e23a"/><path d="M387,1070c-1.59-1.11-3.43-1.14-5.16-1.53a1.11,1.11,0,0,0-1.48.71,1.24,1.24,0,0,0,.79,1.67c1.82.46,3.63,1.1,5.57.77.53-.09,1.07-.2,1-.9C387.66,1070.31,387.53,1069.87,387,1070Z" style="fill:#f3e23a"/><path d="M399.64,1059c1-.14,2.21,1.13,2.62.2.59-1.31,1-3.11.09-4.41a1.9,1.9,0,0,0-2.76,0A4.5,4.5,0,0,0,399.64,1059Z" style="fill:#f3e23a"/><path d="M399.54,1079.44c.22-.75.18-1.5-.62-1.73a34.26,34.26,0,0,0-3.52-.71c-.56-.1-.74.22-.75.73,0,1,.69,1.34,1.45,1.51C397.22,1079.49,398.35,1080.19,399.54,1079.44Z" style="fill:#f3e23a"/><path d="M399.54,1066.08c.83,1.77.12,3.57,2.08,3.82,1,.12,1.5-.45,1.47-1.61C403,1066,401.25,1066.81,399.54,1066.08Z" style="fill:#f3e23a"/><path d="M453.58,1071.48a16.39,16.39,0,0,0,2.27.71c2.38.36,4.83.22,7.17.94.22.07.69,0,.71-.08a15,15,0,0,0,.13-4.64c0-1-.62-1.32-1.51-1.46-2.76-.44-5.52-.88-8.26-1.4-1.13-.22-1.46.18-1.3,1.2C453,1068.34,452.78,1070,453.58,1071.48Z" style="fill:#f3e23a"/><path d="M452.8,1057.26c3,.28,5.63.55,8.27.75,1.9.14,1.5-1.09,1-2a42.89,42.89,0,0,0-4.6-6.78C455.48,1051.63,454.41,1054.38,452.8,1057.26Z" style="fill:#f3e23a"/><path d="M511.2,1071.7c3.71,0,6.74.07,9.77.15.83,0,1.42-.1,1.17-1.1-.47-1.92.58-4.11-1.06-5.77-.11-.12-.79.21-1.12.45C517.21,1067.37,514.48,1069.34,511.2,1071.7Z" style="fill:#f3e23a"/><path d="M518.59,1077.48c-.87.92-1.06,4.85-.38,5.24a3.38,3.38,0,0,0,3.45.11c.32-.18.64-5.13.34-5.31C520.75,1076.79,519.56,1077.66,518.59,1077.48Z" style="fill:#f3e23a"/></svg>