<svg xmlns="http://www.w3.org/2000/svg" viewBox="0 0 476.12 479.32"><title>Artboard 15</title><circle cx="238.06" cy="239.66" r="237.34" style="fill:#2b2b2b"/><path d="M12.75,387v0Zm2.55.52v0Zm106.4-335h-.51l.51-.51h1l-.51-.52c1.53,0,2.56,0,3.07-.51l-.51-.51h-1.54c-3.07,0-5.11,0-6.65.51h-2l-.52.51-1.53.52H111l-2,.51-2.56.51-1,.51-.51.51h-1.54a1.87,1.87,0,0,0-1.53.51,1.88,1.88,0,0,1-1.54.51H98.68l-1,.52a1.89,1.89,0,0,1-1.54.51l-1,.51c0-.51-.51-.51-1,0l-3.07,1a1.89,1.89,0,0,1-1.54.51c-2,0-3.07.52-3.07,1.54h-.51l-1,.51-3.58,1.53-4.61,1.54-1.53.51-2.56,1h-.51c0,.51,0,.51-.51.51h-1l-.51.52a4.67,4.67,0,0,1-3.59,1.53l-2,1-1.54.52a3.9,3.9,0,0,1-2.55,1h.51c-1.54,0-2,.51-2,1h-.51c-.51-.51-.51-.51-1,0a1.89,1.89,0,0,1-1.54.51c-.51,0-1,0-1,.51l-1,.52-2.56,1,1-1v-.52l-1,.52c-.51,0-.51,0-.51.51v.51l-1,.51-1,.51c-.51-.51-.51-.51-.51,0l-.51.51H47L45,76l-1,.51c-.51,0-.51,0-.51.51h-.51l-.52.51-2,1-2,1c-1,0-2,.51-3.58,1.53h.51a1.87,1.87,0,0,0-1.53.51l-.51.51c-1,0-1.54.52-1.54,1-.51-.51-1,0-2,.51h.51l-.51.51c-1,0-1.54,0-2.05.51l-.51.51-1,.52v1a1.85,1.85,0,0,1-.52,1.53A1.89,1.89,0,0,0,25,89.79v3.07a1.87,1.87,0,0,0-.51,1.53v2l-.51,2c-.51.51-.51,1.54-.51,3.07v1l-.51,2v4.09l-.52.51v4.1L22,114.85v5.63c-.51.51-.51,1-.51,2.56v5.62c-.51.51-.51,1.54-.51,3.58v9.21a1.87,1.87,0,0,0-.51,1.53v.52h-.51l.51.51v13.3a1.87,1.87,0,0,0-.51,1.53c0,3.58,0,5.12-.51,5.63v5.62c0,1.54,0,2.56-.52,3.07v7.16h-.51v.52c.51,0,.51,0,.51.51V187c0,.52,0,.52-.51.52V188l.51.51v2l-.51.52v1c0,.51,0,.51-.51,0V234c-.51,0-.51,0-.51.51v1h-.51c0,.51,0,.51.51.51v4.6c0,.51,0,1-.51,1v-.52l-.51-1v7.67h0v21.49l.51.51-.51.51.51,2.56v6.65l-.51,7.67v16.88c.51.51.51,2.05.51,5.11l-.51,4.1,1,21v15.86h.51a1.87,1.87,0,0,0-.51,1.53l.51,2.56v17.9l.51,5.12v4.09c0,17.9,1,28.13,2.56,30.69v3.07l.51,2L22,419.2l1,2.05v2l.51,1H24l.51.52,1,.51,1-1h1.53v.52h1l1.54,1c.51.51,1,.51,1.53-.51h.51l.52.51,1-1h.51c0,.51.51,1,1.54,1l1,.51.51.51h1.53l.52.51h.51v1c.51,0,.51,0,.51-.51,0-1,.51-1.54,1.53-1,0,.51,0,.51.52,0v-1.53l1,.51a1.9,1.9,0,0,1,.51-1.54l.51-1v-1h.51v1a1.11,1.11,0,0,0,1-1v-3.58H46v-1l.52-.51v-1H47l1,2.05c.51-.52.51-1,.51-2.56l-.51-1,.51-.52c0-1,0-1.53.51-2v-1c.51,0,.51-.52.51-1-.51-1-.51-1.53,0-2v-4.61a1,1,0,0,1,0-1.53v-13.3c-.51-.51-.51-.51,0-1v-7.17a1.85,1.85,0,0,1,.52-1.53v-7.16l.51-4.09c0-1.54,0-2.05-.51-2.56l.51-1v-5.12h.51a1.87,1.87,0,0,1-.51-1.53v-2.56l-.51-.51v-1l.51-.51h.51l-.51-.51c.51-.51.51-.51,0-1-.51,0-.51,0-.51-.51V335.31c-.52-.51-.52-1-.52-2.56v-2l.52-.51-.52-1v-.51c.52-.51.52-1.53.52-4.09V303.09c.51-1,.51-3.07.51-6.65V290.3a1.9,1.9,0,0,1,.51-1.54V285.7l.51-9.72V263.7c.51-.51.51-.51,0-1v-2.56c.51-.51.51-1,.51-2.05s0-1.53-.51-2v-1.54a1.87,1.87,0,0,1,.51-1.53v-1c-.51,0-.51-.52-.51-1,.51-.51.51-1,.51-2.55v-3.59l.51-1.53c0-.51,0-1-.51-1v-3.58c.51-.51.51-1,.51-2.56l-.51-3.58a2.57,2.57,0,0,0,0-3.07v-1.54c.51-.51.51-.51,0-1v-.51c.51-.51.51-1,.51-2.05v-2c-.51,0-.51-.51-.51-1a1,1,0,0,0,0-1.54l.51-1v-2.56l-.51-1a1.89,1.89,0,0,0,.51-1.54V190l.52-.51c0-1.53,0-2,.51-2v-3.58c-.51-.52-.51-.52,0-1v-8.69c0-1,0-1.54.51-1.54l.51-1v-.51c-.51,0-.51,0-.51-.51l-.51-1v-3.07c-.51,0-.51,0,0-.51l.51-1v-2a3.27,3.27,0,0,1,0-3.07l-.51-.51v-2h.51v-2.56l.51-1v-1l-.51-3.58.51-1v-2.56c.51,0,.51,0,.51-.51V143.5c0-1.54,0-2.05-.51-2.56,0-1.54,0-2.05.51-2.56v-.51l.51-1.54a1.87,1.87,0,0,1-.51-1.53v-2.56a1.87,1.87,0,0,1,.51-1.53v-7.16c.51-.51.51-1,.51-2v-4.6a1.87,1.87,0,0,0,.52-1.54c0-.51,0-.51-.52-.51a1.85,1.85,0,0,0,.52-1.53l.51-.51v-4.1h.51v-.51l.51-.51h.51c.51,0,.51,0,.51-.51h.51c.52.51.52.51,1,0v-1l.51-.52h1a1.1,1.1,0,0,1,1-1l2.55-1.53h.51l-2,1.53-1,1-1,.52h-.51v1c.51,0,.51,0,.51-.51l3.07-2,1-.51v-.51l.52-.51c.51-.51,1-1,1.53-1v.52l.51-.52h.51l2-1.53h.51l1-.51,1.54-1c0-.51,0-.51.51-.51s.51,0,.51.51v-.51l1-1A1.88,1.88,0,0,0,78.22,97l.51-.51h.51c0-1,1-1.54,2.56-1.54l1.53-1,.52-.51.51-.51a6.26,6.26,0,0,0,4.6-2,3.92,3.92,0,0,0,2.56-1H92l.51-.51c0-.52.51-.52,1-.52s1,0,1-.51.51-.51,1-.51l.51-.51h.51c0-.51.52-.51,1-.51a1.87,1.87,0,0,0,1.53-.51l2-1,1-.51c.51,0,.51,0,.51-.51a7.92,7.92,0,0,1,3.58-1.53h-.51c.51-.52,1-.52,2-.52-.51-.51,0-1,1-1.53a1.87,1.87,0,0,1,1.53-.51c.52,0,.52,0,1-.51L115.56,78l3.07-1.53a1.87,1.87,0,0,1,1.53-.51c.51,0,.51,0,.51-.51h1l.51-.52,4.6-1,4.09-1,.52-.51v-.52a1.87,1.87,0,0,0,1.53-.51c-1,0-1.53,0-2,.51s-1,.52-2.55.52h-2l-2,1v-.51l-5.63,1.53h-1l-1,.51-5.11,2-1,.51a1.87,1.87,0,0,0-1.53.51l-1.53.51-1,.52c.51,0,.51,0,.51-.52L109.42,77A3.92,3.92,0,0,1,112,76l2.56-1.54,2-.51h.51l12.79-3.58L133,68.82l1-.52v-.51h-1.53l.51-1,1-.51h-.51a1.87,1.87,0,0,1-1.53.51h-1.54c0-.51,0-.51-.51-.51l-.51-.51-.51-.52c-.51,0-.51,0,0-.51.51,0,.51,0,.51-.51V63.7l-1-.51h-.51v-1h.51c.51-.52,0-.52-.51-.52s-.52,0-.52-.51l.52-.51c.51-.51.51-.51,1,0,.51,0,0-.51-.51-1-.51.51-.51.51-.51,0-.52,0-.52,0-.52-.51v-1l1-1h-2v-.51l-.51-1V55h-6.65l-1,.52h-1.54l-2,.51H113c-.51.51-.51.51-.51,0-.51,0-.51,0-.51-.51h2.56L114,55l3.59-1h1.53l1-.51,1-.51.51-.51c-.51.51,0,.51.51.51l.51-.51h-1ZM16.84,268.82h-.51l.51-.52Zm0-8.19c-.51-.51-.51-.51,0-.51Zm0-14.83v-2.05c.51,1,.51,1.54,0,1.54Zm0,.51v0Zm.51-51.15v0Zm0,39.38v0Zm0,9.21c.51.51.51.51,0,.51Zm.51-80.82v0Zm0,3.07v0Zm0,27.11h0Zm1-44.5h0Zm-.51,53.2v0Zm0,89.51v0Zm.51-148.85v0Zm0,15.35c.52.51.52.51,0,1Zm.52,41.94c-.52.51-.52.51-.52,0Zm-.52,167.78v0Zm0,31.71v0Zm.52-263.43v0Zm0,27.11v0Zm0,224.56h0Zm1-268v0Zm0,7.68v0Zm0,10.74v0Zm0,76.21v0Zm.51,147.32c-.51-.51-.51-.51,0-.51Zm0-252.69v-.51c.51.51.51.51,0,1Zm.51,4.1v-.52l.51.52Zm0,8.18v0Zm6.65,34.27c-.51.51-.51,2.56,0,5.63-.51,0-.51.51-.51,1V167l-.51,6.13v10.23a1.9,1.9,0,0,0-.51,1.54l.51,1.53c-.51.51-.51.51,0,.51V190l-.51,6.14v9.72c0,.51,0,1-.51.51v.51c-.52,0-.52,0-.52.51A1.87,1.87,0,0,0,25,205.9v-6.65H24V209h.51c0,.51,0,.51.51.51,0,.51,0,.51.51,0-.51,0-.51.51,0,1V209h.52V212l-1,1.53v0a1.87,1.87,0,0,1,.51-1.53v3.58l-.51.51c-.51.51-.51.51-.51,0v2.56a1.89,1.89,0,0,1-.51-1.54v6.14l-.51,5.12v13.3c0,2.55,0,4.09-.51,4.6v1a1.85,1.85,0,0,1-.52-1.53l-.51-.51V196.18c.51-.51.51-1.53.51-3.58V174.7c-.51-.51-.51-.51,0-.51.52-.52.52-.52,0-1s-.51-.51,0-1v-4.09H23c-.52-.51-.52-1,0-1V165c-.52-1.54-.52-2,0-2v-9.72a2.28,2.28,0,0,0,0-2.55c0-1.54,0-2,.51-2.56v-5.63c0-2,0-3.07.51-3.58v-2.56l-.51-.51c.51-.51.51-2.55.51-7.16l.51-.51v-3.07l.51-.51V116.9c.51-.51.51-2.56.51-6.14v-.51l.52-1v-3.06a45.32,45.32,0,0,0,1.53-10.75c0-1,0-1.53.51-2l.51-2.56V87.74c.51,0,.51,0,.51-.51a1.88,1.88,0,0,0,1.54-.51l3.07-1.54,2-1,2.56-1.53a3.84,3.84,0,0,0,2-.52c.51-.51,1-.51,1.53-1l1-.51,1-.51a1.87,1.87,0,0,1,1.53-.51h1l1-.51.51-.52h1A1.89,1.89,0,0,1,50.6,78l5.62-2c.52-.51,1-.51,2.05-.51h-.51c0,.51-1,1-2.56,1.53h-.51l-.51.51h-.51c0,.51,0,.51.51.51a1.87,1.87,0,0,0,1.53-.51l1-.51-2.05,1.53-2.56,1.54.51-.51a1,1,0,0,1,1.54,0h1l.51-.51h1.54l2.55-1.54h1.54l.51-.51-2.56,1.53h-.51l-2,1h-.52c-.51,0-1,0-1,.51l-1,.51-3.07,1.53a1.86,1.86,0,0,1-1.54.52c-1.53,1.53-2.55,2-4.09,2l-2,1-1,.51-5.62,2.55-2,1-1,1h-.51v2a1.85,1.85,0,0,0-.52,1.53c0,1.54,0,2-.51,2.56v2.56c-.51.51-.51,1-.51,2.55l-.51,2.56v4.6c-.51,0-.51,0-.51.52v4.09l-.51,1v2.56l-.51,1v5.63l-.52,4.6v5.12a1.87,1.87,0,0,1-.51,1.53v2.05l-.51,4.6v13.3Zm-5.63,95.65c.52.51.52.51,0,1l.52-1h-.52l.52-.51Zm.52-158v-.52l.51-.51v.51Zm0,3.58v2c.51-.51.51-2,.51-3.58Zm0,31.71v0Zm.51-34.27.51-.51Zm0,102.3.51-.51v2.05Zm0,59.85v0Zm1-76.22v-1l-.51-1c-.51.51-.51,1,0,1ZM24,182.88h.51v1Zm0,5.63c.51.51.51.51,0,1Zm0,1c.51.51.51.51,0,.51Zm0,14.32h.51v.52H24Zm0,16.37v0Zm0,1.54v0Zm0,38.87v0Zm.51-84.91v0Zm.51,4.09h-.51c.51,0,.51,0,.51-.51ZM24.51,326.1v0Zm1-183.63V142c.52.51.52,1,0,1Zm0,66v-1c.52,0,.52,0,.52.52Zm.52-69.57c.51-.51.51-.51.51,0Zm0,61.38v0Zm.51,7.68-.51,1v-2.05c0,.51,0,.51.51.51Zm-.51,1.53v0Zm.51-72.12c-.51,0-.51,0,0-.51Zm0,43.48v.51a1,1,0,0,1,0-1.54Zm0,1v0ZM27.07,210h0Zm0-66.49v0Zm0,1.53v0Zm.51,4.6v3.07c-.51,0-.51,0-.51-.51v-2.56c0-.51,0-1,.51-.51Zm0,5.12-.51.51v-.51Zm-.51,33.76v0Zm0,2.56v0Zm.51-43a1,1,0,0,1,0-1.54Zm0-7.16v0Zm0,0v0Zm13.3,96.67h-.51l.51.52-.51-.52c0,.52,0,.52.51.52l2.56,2c0,.51,0,.51.51.51h.51a1.87,1.87,0,0,0,1.53.51c0,.52,0,.52.52.52H47c.51,0,.51,0,.51.51h1l.51.51h1v-.51h2.55c.52,0,1,0,1-.51H55.2v.51c0-.51,0-.51.51,0,.51-.51.51-.51.51,0v.51h.52v-.51c-.52,0-.52,0-.52-.51h1.54v-.52h.51v-.51c.51.51.51.51.51,0h.51l.51-.51h.52c.51,0,.51,0,.51-.51h.51v-.51h1.53v-.51h1.54v-.51h.51l.51-.52h.51l.51.52-.51-.52.51-.51H67l.51-.51H69c.51,0,.51,0,.51-.51h1l.51-.51v.51h.51l-.51-.51h.51v.51h.51v-1h1v0c.52,0,.52,0,.52.51.51,0,.51,0,.51-.51h1c0-.52,0-.52.51-.52s1-.51,1.54-1h.51l1-.51.51-.51h1.54V232h.51v.51h.51v0c-.51,0-.51,0-.51.51l1.53-.51v0l.51-.51h.52l.51-.51,1.53-.52h.51l1-1,1.53-.51h.51a1.89,1.89,0,0,1,1.54-.51l.51-.51a1.85,1.85,0,0,1,1.53-.52l.51-.51,2.56-1.53h.51c0-.51,0-.51.52-.51v-.51c.51,0,.51,0,.51.51v-.51c.51,0,.51,0,.51-.52h.51l.51-.51h.51l1-1,1-.51h.51a1.1,1.1,0,0,0,1-1c.51,0,1.54-.52,3.07-2.05,1-1,1.54-2,1-2.56h.51v-1h.51v-.51l-.51-1v-.51l.51-.51-.51-.51c-.51-.51-.51-.51,0-.51l-.51-1-1-1v-.51c-.51,0-.51,0-.51-.51l-.51-1-.51-1-.51-1-.52-.51-.51-.51v-.51c-.51,0-.51,0-.51-.52h-.51v-1l-.51-1c-.51,0-.51,0-.51-.51v-.52c-.51,0-.51,0-.51-.51v-.51l-.52-.51c-.51,0-.51,0-.51-.51v-.51l-.51-.51-.51-1c0-.51,0-.51-.51-.51a1.1,1.1,0,0,1-1-1h-.52l-.51-.51c0-.51,0-1-.51-1v.52H95.1l-.51-.52v-.51c-.51,0-.51,0-.51-.51h-1l-.51-.51c0,.51,0,.51-.51,0,0,.51,0,.51-.51.51H91c0,.51,0,.51-.51.51H90l-.51.51H87.94c-.51,0-.51,0-.51.52H85.89c-.51.51-.51.51-.51,0h-1v.51h-.51c0,.51,0,.51.51.51-.51,0-.51,0-.51-.51h-.52v1c0,.51-.51.51-1,.51l-1,.51h-.51v.51c-.51-.51-.51-.51-1,0h-.51c-.51,0-.51,0-.51.52H76.17c-.51.51-1,.51-1,1H73.62l-1.54.51h-1v.51H70c-.52-.51-.52-.51-.52,0H69l-.51.51H67v.51l-.52-.51c-.51,0-.51,0,0,.51h-1l-.51.52h-.51c0,.51,0,.51-.51,0v.51h-.51c-.52,0-.52,0-.52.51-.51-.51-.51-.51-.51,0h-1v.51h-.51c-.51,0-.51,0-.51.51H59.8l-.51.51h-2c-.51,0-.51,0-.51.52h-.52c0,.51,0,.51-.51,0v.51l-.51-.51h-.51v.51c0,.51,0,.51-.51.51h-.51c0,.51,0,.51-.51.51,0,.51,0,.51-.52,0v.51l-.51-.51-.51.51h-1a1.1,1.1,0,0,1-1,1v-.51c-.51,0-.51,0-.51.51V208c-.51,0-.51,0-.51-.52-.51,0-.51,0-.51.52l-.51.51c-.51-.51-.51-.51-.51,0h-.51V209c-.52,0-.52,0-.52.51v0q0-.76-1.53,0H44l-.51.51-.51.51H41.39v1h-.51V212l-.51.51c0-.51,0-.51.51-.51V210.5h-.51V212c0,.51,0,.51-.51.51l-.52.51v.51h-.51v.51c-.51,0-.51,0-.51.52v0h-.51c.51.51.51.51,0,.51s-.51,0-.51.51h-.51l-.51.51h-.52v.51c0,.51,0,.51-.51,0,0,.51-.51,1-1.53,1h0c.51.52.51.52,0,1h-.51l-2.05.51v0H29.63l-1-.51c-.51,0-.51,0,0,.51h-.51l.51.51h1l1,.51h.51c0,.51.51.51,1.53.51h.52v.52l1-.52h1l-.51.52v.51H33.21l-1.54-.51H30.14v.51h-.51v.51l.51.51v.51c0-.51,0-.51.51-.51.51.51.51.51.51,1h.51l.51,1v.51l.51.51v.51h.52l.51.51.51,1v.52c.51,0,.51,0,.51.51v.51l.51.51v.51h.51l.52,1V232c.51,0,.51,0,.51.51l.51.51.51,1h.51v.51l.51.52.51.51v0l.52.51,2,1,.51.51h-1l-.51-.51v.51c0-.51,0-.51-.51-.51v.51ZM28.6,139.4v0Zm.51-55.75h0Zm1,134.53h0Zm1-1h-.51v-.51Zm0,1h0Zm.51-1.54v.51h0Zm0,.51v0Zm.51,0v0Zm.51.51h0Zm0,2.05v-.51c.52,0,.52,0,.52.51Zm1-1.53h0Zm1-2.56v0Zm.51-10.74h0Zm.51,9.72v1l.52-.51v-.51c-.52,0-.52,0,0-.52v-.51c-.52-.51-.52-.51-.52,0s0,.51-.51.51Zm-.51,0v0Zm.51,6.13h.52l-.52.52h-.51Zm.52-6.65h.51c0,.52,0,.52-.51.52Zm1,0h-.51l1-.51H37.3Zm.51,4.61h0Zm.51,26.08v1c-.51,0-.51,0-.51-.51Zm-.51,14.84v0Zm1-55.76v1.54l-.51-.51Zm0,7.68v0c-.51,0-.51,0-.51-.51v-.52l.51-.51.51-.51v1h0V211h-.51Zm-.51,2.55v.52h.51a1.9,1.9,0,0,1-.51-1.54l.51-.51v4.09l-.51-1Zm.51,3.07v.51a1.88,1.88,0,0,1-.51,1.54v-.51l.51-1c0-.51,0-.51-.51-.51Zm-.51,1v0Zm.51,4.09v0h0Zm1-44v2.56q-.78,4.6,0,6.13c.51,0,.51,0,.51.52v1L39.86,190v-1.53l-.52.51a1.87,1.87,0,0,0-.51-1.53,1.88,1.88,0,0,1,.51-1.54,1.87,1.87,0,0,0-.51-1.53c.51-.51.51-1,.51-2.56v-4.09Zm-1,10.23v0Zm.51,6.65h0Zm0,1c-.51.51-.51.51-.51,0Zm0,1a1.9,1.9,0,0,0-.51,1.54v-2.05C38.83,197.2,38.83,197.2,39.34,197.2Zm-.51,16.37v0Zm0,7.16v0Zm0,13.3v0Zm0,26.09v0Zm.51-66.5c-.51-.51-.51-.51,0-.51Zm3.59,92.08v-1l.51-6.65v-6.14c0-3.58,0-5.62-.51-6.13v-4.61l.51.51V251.42a1.88,1.88,0,0,1-.51,1.54v1.53c-.52,0-.52,0-.52-.51,0-1.53,0-2-.51-2.56v-3.58c0,.52,0,.52-.51,0v-1l-.51-.51.51-1v-.52c0-.51,0-.51.51-.51v.51a2.24,2.24,0,0,0-.51-2.55v-2.05l.51-.51h.51l-.51-1.53-.51-.52v-4.09l.51-2,.51,1.53v-3.07l-.51-1c0-.51,0-1,.51-1v-.51a1.85,1.85,0,0,1,.52-1.53v-1c-.52,0-.52-.52-.52-1v-1c-.51,0-.51-.51-.51-1.53v-2.56c0-4.09,0-6.14.51-6.65v-44l.52-.51c-.52,0-.52-.51,0-1l-.52-1v-4.6c.52,0,.52,0,.52-.51v-.52c-.52,0-.52,0-.52.52v-2l-.51-1v1c0,1.53,0,3.07-.51,3.58l-.51-.51v-.51l-.51.51c.51.51.51.51,0,1v1l.51.52c-.51,0-.51,0-.51.51V167l-.51,4.09v2c0,1.54,0,2.56-.52,3.07v-5.11c0-.51,0-.51.52-.51v-2.05c-.52,0-.52,0-.52-.51a1.86,1.86,0,0,0,.52-1.54V161.4c0-1.54,0-2.05-.52-2.56v-3.07c0-.51,0-.51.52-.51l.51-1V152.7c-.51-.51-.51-1,0-1v-4.6l.51-.52v-.51c-.51,0-.51,0-.51-.51.51-.51.51-1,.51-2v6.65h1v1.53h1l.51-.51a1.88,1.88,0,0,0,.51-1.54q-.77-.76,0-4.6V139.4c.51-.51.51-1.53.51-3.07v-4.6c.51-.51.51-1.53.51-3.07v-3.07l.51-4.09V120c.51,0,.51-.52.51-1.54v-5.11l.52-1v-.51c-.52-1-1-1.53-.52-2s.52-1,.52-2v-1.53c.51-.52.51-1,.51-2v-1c.51,0,.51-.51.51-1l.51-.51V101c.51,0,.51,0,.51-.51s.51-.51,1-.51l.52-.51h.51l2-.52h.52l2-1-.51.51-.51.51a1.1,1.1,0,0,1-1,1c-.52,0-1,0-1,.51h-.51c0,.51,0,.51-.51.51H50.6l-1,.51c0,.51,0,.51-.51.51h-.51v1c-.51.51-.51.51,0,1v.51l.51-1v-1.54h.51v-.51c.52,0,1,0,1-.51l2-.51-.51,1,2-1h.51l2.05-1h.51l-1.54,1a1.1,1.1,0,0,0-1,1h.51v.51c-.51,0-1,.52-1.53,1a1.89,1.89,0,0,1-1.54.51v.51h-.51v5.63l-.51.51v3.07a1.87,1.87,0,0,1-.51,1.53v1.54l-.51,4.09v4.6l-.52,4.61v1l-.51,2-.51,3.58v7.17l-.51,1v14.83c0,1.54,0,2.56-.51,3.07v7.67l-.51.52v.51c.51,0,.51,0,.51.51v2L47,175.72v9.72l-.51,3.07v16.88a1.85,1.85,0,0,1-.52,1.53v8.19l.52-.51v.51c-.52,0-.52,0-.52.51v13.81l-.51,11.25v6.65c-.51.51-.51,1-.51,2.56v16.37l-.51,4.6c0,.51,0,.51-.51.51V278c-.51,2.05-.51,5.63-.51,11.26v1a1.9,1.9,0,0,0-.51-1.54Zm-3.59-109v0Zm.52,35.3v.51l-.52-.51Zm-.52,12.79v0Zm.52,11.76v0Zm.51.51h0Zm0-27.11c.51-.51.51-.51.51,0S40.88,210.5,40.37,210Zm0,26.6v0ZM55.2,94.39h-.51v.51a4.68,4.68,0,0,0-2.56,1.54l-2.56,1-1,.51-1,1H47l-.51.52H46v2c-.51.51-.51,1-.51,2L45,107.69l-.51,1.53v1.54l-.51,1c.51,0,.51.51,0,1v.51c-.51,0-.51,0-.51.51l-.51,3.07c-.52,1.53-.52,2.55,0,3.07,0,1,0,1.53-.52,2v6.14c-.51.51-.51,2-.51,4.09v2l-.51,2.56v-.52c0-1,0-1.53-.51-2l.51-1V130.2a1.89,1.89,0,0,0,.51-1.54v-.51a1.56,1.56,0,0,1,0-2.05V121a1.9,1.9,0,0,1,.51-1.54V116.9c0-1.54,0-2.56.52-3.07v-2.56l-1-1v-4.09a1.88,1.88,0,0,1,.51-1.54v3.07c.52,0,1-1.53,1.54-4.09v-1a1.88,1.88,0,0,1,.51-1.54V99H45v-.51h1.54c0-.51.51-.51,1.53-1l2.05-1h.51c0-.51,0-.51.51-.51h.51l1.54-1,1-.51h1ZM40.88,139.92c0-1.54,0-2,.51-2v.51c0,1.54,0,2.56-.51,2.05Zm0,2.55V142c.51.51.51.51,0,1Zm0,9.72.51.51-.51,1Zm0,78.77v0Zm0,6.65h.51v.52Zm0,1c0-.51,0-.51.51,0C40.88,238.13,40.88,238.13,40.88,238.64Zm.51,12.78v-1l-.51-.51c.51-.51.51-.51,1,0v.51Zm.51-12.78h-.51v-.51Zm0,32.73c.51,0,.51,0,.51-.51v1a1,1,0,0,1,0,1.54V275l-.51-1c0,.51,0,.51-.51,0l.51-2.05Zm-.51,16.88v0Zm.51-1c-.51-.51-.51-.51,0-1Zm0-131v-.51l.51,1Zm0,69.57v0Zm.51,1H41.9l.51-.51Zm0,.51h0Zm-.51,8.7.51,1c-.51.51-.51.51-.51,0Zm0,4.6v-.51c.51.51.51.51,0,1Zm0,5.12.51.51-.51.51Zm.51-141.69v0Zm0,6.65v0Zm.52,110v1.54l-.52-.51Zm-.52,17.91.52.51Zm.52-30.18V210a1.53,1.53,0,0,1,0-2Zm0,8.18c-.52-.51-.52-.51,0-1Zm0,2.05v1a1,1,0,0,1,0-1.53Zm0-22.51.51-2v2.55Zm0,1.54c.51.51.51.51,0,1Zm0,2v-.51l.51.51c0,.51,0,.51-.51.51Zm0,1c.51.52.51.52,0,1Zm0,2.56.51-.51a1.9,1.9,0,0,1-.51,1.54Zm0,7.16v0Zm0,1.54v0Zm0,1v0Zm0,24.55h0Zm1.53,2-1.53-.51h.51Zm-1.53,20,.51.51c-.51,0-.51,0-.51.51Zm.51-161.13v0ZM44,176.74h0Zm-.51,5.12v-1H44c0,1,0,1.53-.51,2Zm0,3.07v-.51c0-.51,0-.51.51-.51Zm0,1v-.51L44,186c-.51,0-.51,0-.51.51Zm0,3.58v0Zm0,2.05v0Zm0,35.29H44v1Zm0,3.58H44v2.05Zm0,3.07v0Zm.51,2.56h-.51l.51-.51Zm-.51,12.79v0Zm0-11.26v0ZM44,176.23c-.51-.51-.51-.51,0-1Zm0,3.58c-.51-.51-.51-.51,0-.51Zm0,54.73c-.51-.51-.51-.51,0-1Zm.51-71.1V165l-.51-.51v-1c.51,0,.51,0,.51-.51Zm0,3.59H44v-1l.51-.51Zm0,1.53-.51.51v-1ZM44,170.09v0Zm0,2v0Zm0,2.05v0Zm0,43h0Zm0,1.54h0Zm0,3.07.51-.51a1.87,1.87,0,0,1-.51,1.53Zm0,2.55v0Zm0,4.61v0Zm0,6.14v0Zm0,2.55h.51v.52Zm.51-23.53v.52c-.51-.52-.51-1,0-1Zm0,2c-.51-.51-.51-.51,0-.51Zm0,3.07c-.51-.51-.51-.51,0-.51Zm0-143.73L45,75Zm0,75.19v-2c0-.51,0-.51.51-.51v2.56Zm0,4.09v0Zm0,5.63v0ZM45,201.81l-.51-.51H45Zm-.51.51.51.51-.51,1v-1.53Zm0,7.67h0Zm0,2.56v0Zm0,8.18v0ZM45,144.52v0Zm0,1V145c.51.51.51.51,0,1Zm0,2.05v0Zm0,47.06v0Zm0,1v0Zm0,0v0Zm0,1v0Zm0,3.58v0Zm32.23,5.12v.51h-.52l-1,.51h-1l-1,.51v.51H72.08l-1,.52h.51l.51.51V208l.51.51c-.51,0-.51,0-.51.51v.51h0V210l-.51.51-.51-.51v-.51c-.51,0-.51,0,0,.51,0,.51,0,.51-.51.51v0l-1,.52L69,210.5V210l-.51.51c.51,0,.51,0,0,.52v-.52H68l-.51.52v.51a1,1,0,0,1-1.54,0l-.51.51c0,.51,0,.51-.51.51h-1v.51c0-.51-.51,0-1,.51h-.51c-.51,0-.51,0-.51.51h-.51v.52h-1c-.52,0-.52,0-.52.51h-.51v.51c0,.51,0,.51-.51.51h-.51v0h.51c-.51,0-.51,0-.51.51v.51l1-.51v1h2.05v-.51h.51v.51h-1v.52h-1v1h-1v-.51l-.51.51v0h-1v.51l-.51-1h1l-.51-1v-1c-.51,0-.51,0-.51-.51s0-.51-.52,0l-.51.51h-1l-.51.51h-1v.51c0,.52,0,.52-.52,0l-.51.52-.51-.52-.51.52c0,.51,0,.51-.51.51h-.51c.51.51.51.51,0,.51-.52-.51-.52,0-.52.51-.51-.51-.51-.51-.51,0h-.51c0-.51,0-.51-.51-.51v.51h-.51v.51c-.51-.51-.51-.51-1,0H46c0-.51,0-.51.52-.51v-1l.51.51v-.51h.51l.51-.51c0-.52-.51,0-1,.51h-.51v-.51H46c0,.51,0,.51-.51.51l-.51-.51.51-.52v-.51l-.51-.51h.51v-.51l.51-.51,1-1h1c.51,0,.51,0,.51-.52h.51l.51-.51h1.54v-.51l.51.51.51-.51h.51v-.51h1c.51,0,1-.51,1.53-1h.51l.51-.51h1.54c0-.52,0-.52.51-.52h1c0-.51,0-.51.51-.51h1l.51-.51h.51c.51,0,.51,0,.51-.51h1v-.51h1.53V208h1l.51-.52c.52.52.52.52.52,0l2-.51.51-.51.52.51h.51c0-.51,0-.51.51-.51l1-.51h.51c0-.51,0-.51.51,0,0-.51.52-.51,1,0h.51c-.51,0-.51,0-.51.51l.51-.51h.51l.51-.51c1-.51,1.54-.51,2,0ZM45,210v0Zm.51-135.55h1c0-.51,0-.51.51-.51l-.51.51Zm0,44v0Zm0,13.3c0-.51,0-.51.51-.51-.51-.51-.51-.51,0-1v2Zm0,4.6v-2H46v1.53Zm0,.52v0Zm0,1v0Zm0,1v-.51l.51.51c-.51,0-.51,0-.51.51Zm0,1v0Zm0,1v0Zm0,.51v0ZM46,172.14l-.51.51v-.51Zm-.51,3.58v0Zm0,3.07v0Zm0,7.16v0Zm0,34.78v-.51c0,.51,0,.51.51.51Zm1-124.29h0Zm0,29.15v.51a1.54,1.54,0,0,0,0,2.05v.51a17.7,17.7,0,0,1-.52-3.07ZM46,129.17v0Zm.52,87h0ZM46,217.66v0Zm0,3.07v0Zm1-101.79v-2.55l-.51,5.11V122Zm-.51,32.23v0Zm0,65.47v0Zm0,1.54v0ZM47,146.56c-.51-.51-.51-.51,0-.51Zm0-72.12h0Zm0,40.92v-.51l.51-1v1.53Zm0,1v0Zm0,22c.51,0,.51,0,0,.51Zm0,4.09v0Zm0,40.92v0ZM47,209v0Zm1.53-102.81-.51,1c.51,0,.51,0,0,.51v.51c0,.51,0,.51-.51.51v-1.53a1.9,1.9,0,0,1,.51-1.54c0-.51,0-.51.51-.51Zm-1,3.58H48l-.51.51Zm0,1c.51.51.51.51,0,.51Zm0,1.53v0Zm0,21.49v0Zm0,.51v0ZM48,222.78v.51h-.51c0-.51,0-1,.51-1v-.51c.51,0,1-.51,1.53-1h1c.51,0,.51,0,.51-.51l.51.51c.51,0,1,0,1-.51h.52c.51.51.51.51.51,0l1-.51h.51c0-.51,0-.51.51,0v.51H54.18l.51.51c-.51.52-.51.52-1,0h-1l-.51.52-.51.51.51,1-.51.51v-1H50.09c0,.51,0,.51-.52.51l-.51-.51v.51h-.51v.51H48Zm-.51,17.9v0ZM48,123.55V122c.51.51.51,1,0,2Zm0,2v0Zm0,2v0Zm.51,90h.51v.52H48Zm.51-101.27h-.51c.51,0,.51,0,.51-.52Zm-.51,108.44v0Zm1-7.17h0Zm-.51,167.27h0Zm.51-167.78h.52v.51h-.52Zm.52,25.07c0,.51,0,.51-.52,0Zm-.52,39.89v0Zm0,87h0Zm1-151.92c-.51.51-.51.51-.51,0Zm-.51,7.16v0Zm0,18.42v0Zm.51,20.46h0Zm-.51,25.57c.51,0,.51,0,.51.52Zm0,25.07v0Zm0,44.5v0Zm0,2.05v0Zm1-257.8c0,.51,0,.51-.51.51ZM50.6,215.11h0Zm.51,1.53h.51c0,.51-.51.51-1,.51ZM50.6,353.73v0Zm.51,2h0Zm.51-253.71h0Zm-.51,1.54h0Zm.51,119.69h0Zm-.51,1c.51.52.51.52,0,.52Zm0,23h0ZM52.64,93.88l-1,.51v-.51a1.88,1.88,0,0,1,1.54-.51Zm-1,7.16h0Zm.51,56.78v.51l-.51-2.05.51.52v.51h1c0,.51,0,.51-.52.51,0,1,0,1.53-.51,2Zm-.51,48.59v0Zm0,8.19v0Zm0,6.13v0Zm11.77,9.21h1l.51-1c0,.51,0,.51.51.51v-.51h.51c.51-.51,1-.51,1,0l.51-.51h1c0-.52,0-.52.51-.52s.51,0,.51-.51l1-.51h2v1.54h-1c0,.51,0,.51.51.51v.51c.51,0,.51,0,.51-.51h1v-.51c0-1-.52-1.54-1-1.54,0-.51,0-.51.51-.51v.51c.52.51.52.51.52,0h.51c0,.51,0,.51.51.51v.51h.51a1.87,1.87,0,0,1,1.53-.51h1c0-.51,0-.51.51-.51,0-.51,0-.51.51,0h1v.51c.52.51.52.51,0,.51l-1,.52h-1v.51H77.2l-.52.51h-1v.51h-1v.51h-1l-.52.51h-.51c-.51,0-.51,0-.51.52h-1c0,.51,0,.51-.51.51-.51.51-.51.51-.51,0v.51h-.52V233c-.51-.51-.51-.51-.51,0H68c0,.51,0,.51-.51.51H67l-.52.51h-.51v.51H64.41l-1,1-1,.51v-.51c0,.51,0,.51-.51.51h-.51l-1.54,1h-1l-.51.51h-.51c0,.52,0,.52-.51.52h-.51v.51h-1l-2-.51h-.51l.51-.52h.51l-.51-.51h-.51l.51-.51v-.51h-1c0-.51,0-.51-.51-.51h-.51v-.51h1.54l1-.52V234h1c0-.51,0-.51.51-.51l.51-.51h.52l.51-.51h.51c0-.51,0-.51.51,0,0-.51,0-.51.51,0V232h.51v-.51h1V231h1a1.87,1.87,0,0,0,1.53-.51v-.51Zm-11.77,7.67v-.51h.51v.51Zm0,0v0Zm0,6.14h0Zm0,.51h.51v.51Zm0,15.35v0Zm0,3.58v0Zm1-160.61h-.51l.51-.52Zm-.51,79.79v0Zm0,6.14v0Zm0,28.13v-.51h.51Zm0,9.72v0Zm0,1.53v0Zm.51,9.72h-.51c0-.51,0-.51.51-.51Zm0,5.12h0ZM53.67,78l-1,.51c-.51,0-.51,0,0-.51Zm-.51,23.53.51.51h-1Zm-.52,71.1h0Zm.52,10.23-.52-.51Zm0,24.55h0Zm-.52,7.17v0Zm.52,1.53c0,.51,0,.51-.52,0Zm-.52.51v0Zm0,20.46h0Zm.52-143.73v0Zm0,83.37h0Zm0,5.12v0Zm.51,25.57.51.52-.51.51v-1.54h0v.51c0-.51,0-.51.51,0Zm0,8.7c-.51,0-.51,0,0-.51Zm0-144.25c0-.51,0-.51.51-.51Zm0,84.92h0Zm0,11.76v0Zm.51,6.14-.51,1v-.51Zm0,62.91-.51-.51Zm-.51,4.61v0Zm.51-91.56v-1.54l.51,1.54Zm.51,1.53h0Zm0,13.3-.51-1c0-.51,0-.51.51-.51Zm-.51,48.59v0Zm0,1.54v0Zm0,0h0Zm.51-77.75v0Zm0,5.11v0Zm.51,52.69h0Zm-.51.51v0Zm0,6.14c0-.51,0-.51.51-.51Zm0,2.56v0Zm0,37.34v0Zm.51.51-.51-.51Zm0-27.11c-.51-.51-.51-.51,0-.51ZM55.71,188h0Zm0,16.37c-.51,0-.51,0-.51-.52Zm-.51,11.25v0Zm.51,26.6c0,.51,0,.51-.51,0Zm-.51,0v0ZM57.76,97h-.51l-1.54,1c0-.51.51-1,1.54-1.53Zm-2,23.53h0Zm0,94.63h0Zm0,0v0Zm0,4.6.51-.51v.51Zm.51-44.5c-.51-.51-.51-.51,0-.51Zm1-104.86-1,.51v-.51Zm-.51,144.76h-.52c0-.51,0-.51.52-.51Zm.51-107.42h0Zm-.51,4.09v0Zm1,102.82h-.51l.51-.52Zm-.51-106.4h0Zm0,134.53h0ZM58.27,76h.51c0,.51-.51.51-1,.51Zm-.51,20.46h0Zm0,110v0Zm0,4.09h0Zm.51,2.05h-.51V212h.51Zm-.51,1.53h0Zm0,2.56c.51,0,.51,0,.51.51Zm0,1v0Zm1-3.58h0Zm0-12.78h0Zm0,12.27c.51.51.51.51,0,.51Zm0,27.62v0ZM60.32,75.47c0-.52.51-.52,1-.52L59.8,76h-.51Zm-1,23c.51-.51.51-.51.51,0Zm.51,115.09h0Zm-.51.51v0ZM59.8,69.33c.52,0,1,0,.52.51ZM59.8,212v0Zm0,1,.52.51H59.8Zm.52-143.22h0Zm0,171.35v0Zm0,1v0Zm1-147.32h0Zm0,118.16c-.51.51-.51.51-.51,0Zm.51-118.67h0Zm0,2.56v.51h-.51Zm-.51,115.6h.51v.51Zm.51-143.73,1-.52Zm3.07,4.6v.51l-2.56,1h-.51l.51-.51ZM62.36,212.55l-.51.51v-.51Zm-.51,4.6h0Zm.51,14.33h0Zm0-13.82c-.51-.51-.51-.51,0-.51Zm.51-149.87h0ZM62.36,210.5v0Zm0,6.14v0c.51,0,1,0,1-.51v-1l.51,1v.51c0,.51,0,.51-.51,0v.51c0-.51,0-.51-.52-.51v.51h-.51v-.51Zm0,14.84c0-.52,0-.52.51-.52Zm0,8.69v0ZM62.87,77v0Zm.52,133.5h0Zm0,2.05h-.52c0-.51,0-.51.52-.51ZM62.87,233v0Zm0,6.14v0Zm.52,1.53h0Zm.51-173.4h0Zm-.51.51h0Zm0,142.71V210l.51.51ZM63.9,212c0,.51,0,.51-.51,0Zm-.51,18.41h.51V231h-.51Zm0,0v0ZM63.9,233h0Zm.51-31.2h0Zm0,10.23h0Zm-.51,4.6v0Zm0,22v0Zm.51-26.6v-.51c.51,0,.51,0,.51.51Zm0,4.09h0Zm0,13.81v0Zm1-13.81c-.51,0-.51,0-.51-.51Zm-.51,0v0Zm0,23c0-.51,0-.51.51,0Zm1-161.64h0Zm5.63,25.58,1-1v.52c.51,0,.51,0,.51.51h-.51L70,104.62a1.9,1.9,0,0,1-1.54.51c0,1-1,1.54-2.56,1.54v.51l-.51-.51c.51,0,.51,0,.51-.51h.51v-.52l1-.51h1l.51-.51h0l.51-1,1-.51h.51v-.51h.51ZM65.43,209.48v0Zm0,6.14v0Zm0,23v0Zm.51-165.22c-.51,0-.51,0,0-.51Zm0,127.88v0Zm0,8.18v0Zm0,.51v0Zm.51,1c-.51.51-.51.51-.51,0ZM67,66.77h0Zm0,5.63c0,.51,0,.51-.52.51ZM66.45,209c.52.51.52.51,0,.51Zm.52.51h0Zm0,0h0Zm0,1c0,.52,0,.52.51,0Zm0,0v0Zm.51-9.2v0Zm1,13.81h-1l.51-.51ZM68,201.81v0ZM68,209h0Zm1-8.19h0ZM69,209h0Zm-.51,1.53v0Zm0,0v0Zm0,1v0Zm0,3.07h0Zm0,22.5v0ZM69,65.23v0ZM69,209c0-.51.51-.51,2-1v.51a1.9,1.9,0,0,0-1.54.51Zm0-.51v0Zm0,.51v0Zm0,5.63v0ZM69,231v0Zm0-.51v0Zm.51-30.18v0Zm0,9.72h0Zm0,28.14v0Zm2-28.65V210c0-.51,0-.51-.51-.51Zm.51,20c0,.51,0,.51-.51.51Zm.51-3.07c0,.51,0,.51-.51.51Zm.51-13.3v.51c0-.51,0-.51-.51-.51Zm-.51,13.3c.51.51.51.51,0,.51Zm0,2.56v0Zm.51-28.65v0Zm0,26.09h0Zm0,0v0Zm.52,7.67-.52-.51Zm0,.51h0Zm1,1h0ZM75.15,208v-1h.51v1Zm1,1h0Zm-.51,18.41v0ZM76.68,98h0Zm7.17-3.07h.51l2.55-1L81.29,97c-1.54.51-2.05,0-1.54-.51s1-.51,2-.51l1-.52a.5.5,0,0,0,.51-.51ZM80.27,226.36h.51c0,.51,0,.51-.51,0v0Zm0,6.14v0ZM81.8,232h0Zm.51-135h0Zm2-.51h-.51l.51-.51Zm-.51,97.7v0Zm0,.51v0Zm1,0h0ZM86.4,94.9h0Zm.51-35.8v.51c0-.51,0-.51.52-.51Zm1,34.27h-.51a3.9,3.9,0,0,1,2.55-1ZM91,92.86l2-1.54,1-.51a1,1,0,0,0-1.54,0l-.51.51c0-.51.51-1,2-1.53h-1l-1.53,1-.51.51v.51l-2.56,1.54c-.51,0-.51,0-.51.51h.51l1-.51ZM88.45,229.43h0ZM89,194.14v0Zm.51,0v0Zm1-101.28h0Zm.51-2h0Zm.51,1h0Zm.51-4.6h0Zm2.56-28.64-.51.51ZM95.1,56h0ZM94.59,90.3l.51-.51h.51ZM95.1,56l.51-.51V56Zm2.05,32.73h.51l-1,.52Zm.51,0h-.51l1-.51Zm-.51-.51v0Zm2,132.48h0Zm3.58-141.17h.51l-2,1h.51Zm1.54-21h0c0-.52,0-.52.51-.52Zm1.53,20.46-2,.51,1-1c.51,0,1,0,1-.51h.51l3.07-1h-.51c0,.51,0,.51-.51.51Zm1,146.8v0ZM108.4,57.56h0Zm0-2.56c.51-.51,2.56-1,6.65-2-1,0-1.54,0-2,.51a1.87,1.87,0,0,1-1.53.51,1.89,1.89,0,0,0-1.54.51A1.87,1.87,0,0,1,108.4,55Zm0,27.11h0Zm4.6-2-2,1a1.87,1.87,0,0,1,1.53-.51Zm0,1-.51.51v-.51Zm1-3.58c0,.51,0,.51-.51.51,0-.51.51-.51,1-.51Zm-.51,3.07c.51,0,.51,0,0,.51l1-.51c.51,0,.51,0,.51-.51,0,.51,0,.51-.51.51Zm3.58-28.13V53h-1.53l.51-.51Zm-1,27.62c.51,0,.51,0,.51-.51Zm1-.51h0Zm.52-27.11,1-.51,1-.52.51.52h-.51Zm0,25.57h0Zm2.55-26.6c0-.51,0-.51.51-.51Zm.51,1h0Zm.52,2.55c0,.52,0,.52-.52.52Zm-.52,18.93h0Zm2.56-23.53c0,1-.51,1-1,.51l-1,.51h.51l-.51-.51h1.53l.51-.51v0Zm-2,3.07h0Zm1-3.07h0Zm1,2.05h0Zm1,23h0Zm.51-23.53c.51,0,.51,0,0,.51Zm4.6,4.6h0Zm.51,0h0Zm.51,15.34h0Z" style="fill:#ffec00"/><path d="M311.47,35.06l-2.05,9.71v3.07h.51l-.51,9.72v9.72l-1,15.35v1.53c0,2.56,0,4.6-.51,5.12a12.29,12.29,0,0,1,0,6.13A7.58,7.58,0,0,0,308.4,99a21.13,21.13,0,0,1-.51,6.14l-1,27.11.51,4.61a37.75,37.75,0,0,1-1,6.13v8.19c.51.51.51,1.53.51,3.07a10.47,10.47,0,0,0,0,5.62l-.51,5.12.51,3.07-.51,10.74-.51,6.14v7.67l-.51,4.09v1.54c.51,1.53.51,6.65.51,15.34-.51,2.56-.51,13.81-.51,33.76V253a5.61,5.61,0,0,0,0,4.09v7.16c0,1.54,0,2.56.51,3.07v5.63c-.51.51-.51,1.53-.51,3.07,0,1,0,1.53.51,2v11.26c0,.51,0,1,.51,1v3.07l-.51-1.54a2.29,2.29,0,0,0,0,2.56v2.05l.51,5.11-.51,4.09c.51.52.51,2.05.51,4.61l-.51,3.58v7.67l-.51,7.16,1,4.09-.51,2.56v3.58l-.51,8.7c.51.51.51,4.6.51,11.25,0,2.56,0,4.09.51,5.12,0,2.55,0,4.6-.51,5.62,0,1.54,0,2.05.51,2.56.51,2.05,0,3.58-.51,4.09v1l.51,2,.51,3.07a21.16,21.16,0,0,1-.51,6.14V390a1.56,1.56,0,0,0,0,2,1.87,1.87,0,0,0,.51,1.53,1.88,1.88,0,0,1-.51,1.54l-1-1v4.6l.51,3.58v4.09c-.51,2-.51,3.58,0,4.09l-1.54-7.16a1.89,1.89,0,0,1-.51,1.54c-.51.51-.51,1,0,2l-.51,1,.51,1.53c.51,1,.51,1.54,0,2V412c.51.51.51,1.53.51,3.07l.52,6.14.51,3.58v2l-.51.51c0-1,0-1.53-.52-2v-1l-.51-1,.51,3.58-.51,1V431c-.51.52-.51,1,0,2.05v3.58l-.51-.51-1-1,.51,4.6.51,1q-.76-2.3-1.53-1.53l-.51,3.07v2c-.52,0-.52-1-.52-2.55s-.51-2.56-1-2.56v1c-.51,0-.51-.51-.51-1h-.51l-.51-.51-1-1.54c0-.51,0-.51-.51-.51h-.51l-.51-2-.51-.51v-1c-.51,0-.51,0-.51.51,0,1.54,0,2.05-.52,2.56,0,.51-.51,0-1-.51-.51,1-.51,1.53-1,1.53L291,434c-1,.51-1.54.51-1.54-1v-.51L289,431l-.51.52c-.51,0-.51.51-.51,1a2.85,2.85,0,0,0-.51,3.07c0,.51,0,.51-.52,0-1-1-1.53-2.05-1-2.56l-.51-.51V431a1.87,1.87,0,0,1-.51-1.53,3.27,3.27,0,0,1,0-3.07c-1-5.63-2.05-9.72-2.56-12.28a3.07,3.07,0,0,0,.51-2c-.51-1-.51-1.54-1-2.05l-.51-1.53.51-4.61c-.51-.51-.51-1.53-.51-3.58l-.51-4.09c0-1,0-1.53-.52-2l.52-1V390c-.52-.51-1-2.55-1-5.62l-.51-4.1v-4.09a4.34,4.34,0,0,1,0-3.58c-.51-.51-.51-2.56-.51-5.62v-1c-.51-.51-.51-2-.51-4.6v-4.09c-.51-1.54-.51-2.56,0-3.07v-1c-.51-.51-.51-2-.51-3.58v-8.69c-.52-.51-.52-1.54-.52-3.58V301.55a16.94,16.94,0,0,1,0-7.16l-.51-7.67a10,10,0,0,1,.51-4.09,19.23,19.23,0,0,0-.51-5.63c0-5.63,0-9.21.51-10.23v-5.12h-.51c0-3.58,0-5.62.51-7.16-.51-.51-.51-2-.51-5.11v-4.09l.51-1v-1.53l-.51-1c0-2.56,0-4.1-.51-4.61l.51-1c0-4.6,0-6.65-.51-7.16l1-7.67a19.3,19.3,0,0,1-.51-5.63V209c0-4.6,0-7.67.51-9.72v-.51l-1.53,7.67-3.07,15.35c-.51,1.53-.51,2-1,2.55l-2.05,12.28-1,5.12L267,253a1.87,1.87,0,0,1-.51,1.53l-.51,1v2l-.51,1.54a1.87,1.87,0,0,0-.51,1.53c0,1,0,1.54-.51,2.05a1.87,1.87,0,0,0,.51,1.53l-.51,1-1,4.09v1c-.51.51-.51.51,0,.51v1a25.53,25.53,0,0,0-1.53,8.19l-.51.51a3.9,3.9,0,0,0-1,2.56l-.52,2v1l-.51,3.07-.51,3.07.51,2-1,1a6.66,6.66,0,0,0-1,4.1c0,3.58-.52,5.62-1,6.13v1.54c0,1.53,0,2-.51,2.56s-.51,1-.51,2v.51L223,311.78v-1c-.51-.51-.51-1-.51-2.05l.51-.51-.51-1-.51-1.54.51.52v-1c0-3.58,0-6.14-.51-6.65l-.51-1V297l-.51-.51h.51c-.51-.51-.51-1.54-.51-4.09v-1a1.87,1.87,0,0,1-.51-1.53,1.89,1.89,0,0,1,.51-1.54c-.51,0-.51,0-.51-.51l-.51-1v-1.54c0-1,0-1.53-.52-1.53v-1l-1-10.23-.51-5.12c0-1.53,0-3.07-.51-3.58l-1-10.74-2.56-17.9v-4.61a2.29,2.29,0,0,1,0-2.56c0-1.53,0-2-.51-2.55l-1-7.68-1-7.67c-.51-.51-.51-1-.51-2v-1.54l-1.54-9.72c.52-.51,0-2-.51-4.6v-.51l.51-4.09c-.51,1.53-1,3.06-.51,4.09-.51-.51-.51-1-.51-2.56a1.87,1.87,0,0,0,.51-1.53l-1,2c0,3.07,0,5.12-.51,6.14l-1,6.14v3.07c0,1.53-.52,5.11-1,10.74,0,3.58,0,5.11-.51,5.63v2l-1,9.72-.51,6.14-.52,3.07C201,256,200,264.21,200,267.28l-.51,4.6-.52-1v2.05a12.09,12.09,0,0,1,0,6.14c-.51,2.55-1,4.09-.51,5.11,0,2.56-.51,4.6-1,5.12l-1,11.25-.52,3.07c-.51,1-.51,2.56-.51,5.11v1.54c0,1,0,1.53-.51,2a92.52,92.52,0,0,0-1,9.72v8.19c-.51,4.6-1,7.16-2,8.69l-.51,4.09-.51.52.51,3.07-.51,4.09-1,7.16c0,2.56-.51,4.09-1,4.6l.52,5.12c0,.51,0,.51-.52.51v5.11a1.9,1.9,0,0,0-.51,1.54c0,1,0,1.53-.51,2v3.07c-.51.51-.51,1-.51,2.05v1.53c0,2.56,0,4.1-.51,4.61v4.6c0,1.54,0,2-.51,2.56l-.52,3.58v3.07h-.51l-.51,1v-7.16c.51-.51.51-1,.51-2.56-.51,0-.51.51-.51,1v-4.61l-.51,2.05V389l.51-.51v-4.09l-.51-.51,1-4.61v-8.69c.51-.52.51-1,1-2.56l-.52-4.61c0-.51,0-.51-.51-.51a13.22,13.22,0,0,0,1.54-5.62v-2.05l-.51,1v2.56l-1,4.09-1,11.26-.51,4.09a1.55,1.55,0,0,0,0,2c0,1,0,1.54-.51,2.05,0,1.54-.51,4.09-1,7.67,0,1.54,0,2-.51,2.56l-.51,3.07v1.53l-.51-.51c0,.51,0,.51-.51,0l-1,.51-.52,3.07v1l-.51-.51v-1l-.51-1.53-.51-1-.51-.51v1l-.51,1v2.05l-.52,1v-1.54a7.45,7.45,0,0,0,.52-3.58c-.52-.51-.52-1.53-.52-2.55l-.51.51-.51,2-.51-.51.51-1h-.51l.51-1c0-.52,0-.52-.51-.52l-.51.52-.51,1v1.53l-.51-1.53v-.51l-.52-1-.51-2v2c-.51-.51-.51,0-1,1v.51h-.51c-.51.51-.51,2-.51,4.6v1l-.52,1.53v.51c-.51-.51-.51-.51,0-1v-1l-.51-.52v.52c-.51.51-.51,1.53-.51,3.58l-.51-1,.51-2c-.51,0-.51-.51-.51-1.54l.51-6.14-.51-3.58c0-1,0-1.53.51-2l-.51-1,1-13.81,2-18.92c0-4.09,0-6.65.51-7.67v-4.1l.51-1,.51-8.18v-1a39.69,39.69,0,0,1,1-7.67V312.29l-1,9.72-.51,9.72-1,8.7-.51,6.65c-.51,12.27-1.54,18.92-2.56,19.95v5.62l-1,8.19v7.67l-.51,4.09-.52,1.54V390l-.51-1,.51-1.53c0-8.19,0-13.3.52-14.84l1-6.65v-4.6c.51-.51.51-1.54.51-3.58v-1c.51,0,.51-.52.51-1a2.29,2.29,0,0,1,0-2.56v-8.69a45.93,45.93,0,0,1,1-5.63v-5.62l1.54-14.33v-2c-.51-1.54,0-3.58.51-6.14,0-1,0-1.54.51-2.05a1.87,1.87,0,0,0-.51-1.53v-2.56l-.51-1c.51-3.58,1-5.63,1-6.65l.51-5.63a9.81,9.81,0,0,0,.52-4.09c0-1.53,0-2.56-.52-3.07l1-5.63v-6.65c0-1.53,0-2,.51-2.55v-7.16l1-1v-1.53c0-2.56.51-7.16,1-13.3v-3.58c.52-.51.52-2,.52-4.6l.51-5.12v-3.58l.51-4.6c.51-.52.51-3.58.51-8.19a4.32,4.32,0,0,0,1-3.07C178,213.06,178,212,178,210c1-1.53,1-3.07.51-3.58v-1c.52-2,.52-3.07,0-3.07l.52-1,.51-3.58c0-1,0-1.54-.51-2.05.51,0,.51-.51,1-2V187c.51-.51.51-1.53.51-3.06s0-2-.51-2.56v-.51h.51v-3.07l.51-6.14c-.51-1,0-2.56.51-4.6v-.52c0-4.6,0-7.67.51-8.69v-1l.52-2.05.51,1v-1c-.51-.51-.51-1-.51-2.56l.51-4.09v-5.63c0-4.6,0-7.67.51-9.2v-4.61l.51-2c.51,0,.51,1.53,0,5.11a1,1,0,0,0,0,1.54v1.53c.51,0,.51,0,.51.51l-.51,1,.51-.51V130.2l1-8.7v-7.16c0-1.53.52-4.09,1-7.67v-1.54l.51-2c0-1,0-1.54.51-1.54V98.48a10,10,0,0,1,.51-4.09c.51-1,.51-3.07.51-5.63a12.47,12.47,0,0,1,0-6.13c.52-.52.52-2,.52-4.61a20.42,20.42,0,0,1,1-3.07l-.51-6.13,1-6.14a1.89,1.89,0,0,1,.51-1.54V56l.51-3.58,29.16-1.54v.51a1.88,1.88,0,0,0,.51,1.54v1.53H222l-.51.51.51-.51v2l.51,3.07v1L224,67.79l.51,3.58c.51.51.51,1,.51,2.56l-1,2.56.51,1,1,6.65,1.54,9.21V98l.51,1v.52l1.53,8.18-.51,1.53A90.39,90.39,0,0,1,230.14,122v.51a28.47,28.47,0,0,1,1.53,8.7l.51,3.07v2.56a6.55,6.55,0,0,0,1,4.09c0,2,0,3.07.51,3.58l1,7.16v4.09c-.51.51-.51.51,0,1a1.87,1.87,0,0,0,.51,1.53c0,4.09.51,7.16,1.54,8.7l1,7.67v1c0,2.05,0,3.58.51,4.6v2.56l.51,2.05c.51.51.51,1,.51,2,0,1.54,0,2.05-.51,2.56l.51,1.54c-.51.51,0,1.53.51,3.07.52,1,.52,3.06.52,5.62l1,7.67c0,3.07,0,5.12.51,6.14v2.05l1-2.05a1.85,1.85,0,0,1,.52-1.53v-2c-.52-.51,0-2,1-4.6v-1c0-.52.51-1.54,1-3.59l.51-2c-.51.51-.51.51-.51,0l.51-.51c0-1.54,0-2.56.51-3.07.52-1,.52-2.56.52-4.61a6,6,0,0,1,1-3.58l.51-3.06v.51c.51-.51.51-1.54.51-3.58,0-1.54,0-3.07.51-3.58s1-2.56,1-6.14l.51-1v-.51c0-.51.51-1,1-1.53v-2.56c.51,0,.51,0,.51-.51l-.51.51a1.87,1.87,0,0,0,.51-1.53l.51-1v-.51c0-1,0-1.53.52-2v-4.1l2.55-10.23a3.82,3.82,0,0,0,.51-2.55,1,1,0,0,1,0-1.54l1-5.11,1.53-8.19c.51-2,1-3.07,1-3.58a6,6,0,0,1,1-3.58c0-.51,0-1,.51-1l.51-1.54v-2l.51-1v-2.55c.51-.51.51-1.54.51-3.07a3.88,3.88,0,0,0,1-2.56l-.51-1a6.28,6.28,0,0,0,1.53-4.61l.51-.51h-.51V101L267,93.37c.52-.51.52-1.54.52-3.07a1.9,1.9,0,0,1,.51-1.54v.52l1-2.56v-.51l1-4.61c.52-.51.52-2,.52-5.11,0-.51.51-1,1-1.54a42.07,42.07,0,0,0,1.53-9.2v-1c1.54-8.69,3.07-13.3,3.58-13.3l-.51-.51,1.54-2.55h-.52l-.51.51c.51-.51,1-2,1.54-4.61,0-3.58.51-5.62,1-5.62V36.08ZM165.17,394.65v0Zm0,1v0Zm1-336.57v0Zm.51,276.72-.51,1Zm.51-.51c0,.51,0,.51-.51.51Zm1-12.27c-.51,1-.51,3.06-.51,5.62l-.51-2.56.51-4.09v-.51Zm-.51,15.85c-.51.51-.51.51-.51,0Zm0-18.92.51-.51Zm.51,2,1-7.67v4.6Zm1.54,6.65v0Zm.51-20,.51-.51Zm1-11.76v0Zm1-35.3c0-.51,0-1,.51-1Zm0,0v0Zm1-13.81-.51,1Zm0,7.68V250.4l-.51,3.07Zm.51,49.61,1-10.23-.51,1v2.55l-.51,3.07-.51,10.23v2.56a1,1,0,0,0,0,1.53Zm.51-57.8-.51,1,.51-7.17-1,6.65v-2c0-4.09,0-7.16.51-8.7v-2l.51-4.61.51-2c.51-.52.51-1,.51-2v.51c0,1,0,1.54-.51,2v9.72l-.51,7.16Zm-.51,7.16c0,.51,0,.51-.51,0Zm0-6.13v0Zm1.53-20.47c0,2.56,0,4.61-.51,5.63V233C174.89,230.45,174.89,228.92,175.4,227.89Zm0,56.27-.51,6.14,1-3.07v-.51Zm2-76.73v5.12l-.51,2-1,6.13-.52,2.05,3.07-27.62c0,1.53-.51,4.6-1,9.21Zm-2,20.46c0-1,0-1.53.52-1-.52,0-.52,0-.52.51Zm1-17.39c0,.52,0,.52-.51,0v-1Zm.51-14.32.51.51ZM179,405.39c-.52,0-.52,0-.52.51C178.47,405.39,178.47,405.39,179,405.39Zm-.52,1v0Zm0,0v0Zm1.54-244V167c0-.52-.51-.52-1,0v-1a26.39,26.39,0,0,1,1-5.62v-5.12l.51-2.56v-1.53c0-4.61,0-7.16.51-7.67l.51-2.56v-2.05l.51,1.54c.52.51.52,1-.51,2v1c0,2,0,3.06-.51,3.58v3.58l-.51,1H181v8.18l-.51.52v-.52Zm3.07-14.32c0,.51,0,.51-.51,0Zm1-1.54c-.51-.51-.51-2-.51-4.6.51-.51.51-1,.51-2.56v-.51c-.51,1.54-.51,4.09-.51,8.7Zm1-38.36-1,1.54Zm-.51,7.67c0,.52,0,.52.51.52v.51c-.51,0-.51,1-.51,3.07L184.1,123c0-2.56,0-4.61.51-5.12Zm-.51,278.78v0Zm1-280.82v1c-.51,0-.51,0-.51.51Zm-.51,1.53v0ZM185.12,386v.51a1.87,1.87,0,0,0-.51-1.53Zm.51,0v-1a26.43,26.43,0,0,1,1-4.61l-.51-3.06v4.09c-.52,1.53-1,2.56-.52,2.56v.51a1.87,1.87,0,0,0-.51,1.53Zm0,8.19v-1a1.89,1.89,0,0,0-.51,1.54Zm0-3.59v0Zm0,0v0Zm1-16.87.51-2.05v-1c-.51,0-.51,0-.51.51Zm1.53-15.86c0-1.54,0-2.56.51-3.07,0-1.54,0-2.56.52-3.07-.52-.51-.52-1-.52-2.56l.52-1.53-.52,1v5.12l-1,2v3.07c0,1.54,0,2.56-.51,3.07v6.65c0-3.07,0-5.12.51-6.14S188.19,359.86,188.19,357.82Zm-.51-17.39v-.51c-.51.51-.51.51,0,1Zm1.54-12.79-.52,2.56Zm.51-246.55v0Zm2.55-7.67v0Zm0,70.59v0Zm.52-31.72v9.21l1-13.3.51-1L194.84,97l.51,5.11c0-2,0-3.07.51-3.58-.51,0-.51-1.53,0-5.11-.51-1-.51-3.58-.51-8.19l-.51-4.6c-.51,2.56-.51,3.58,0,3.58v.51c-.51,0-.51-.51-.51-1v1A125,125,0,0,1,192.8,100v7.16l.51-3.07.51,1v2.56l-1,1.53v3.07Zm1,20c-.51,0-.51.51-.51,1v1C193.31,133.27,193.31,132.75,193.82,132.24ZM196.38,56c-1.54,0-2,0-2.56.51h2.56c0,2.56-.52,7.16-1,13.3v1l1,5.12,1,5.11.51-5.11v3.58c0,1,0,1.53-.51,2l1,3.07v-2c0-3.07,0-5.12.51-5.63s.52-1.53.52-2.56a1,1,0,0,1,0-1.53l.51-1.54V66.26c-.51-.51-.51-2.05-.51-4.61l-1-5.11,1-.51v1a2.26,2.26,0,0,0,0,2.56v.51l.51-2V56h0V55h1V53.47l5.63-.51-3.58.51v1h1v-1h1v1h.51v-1l2.56.51v-.51h.51v1a1.89,1.89,0,0,0,1.54-.51l.51-1H200.47l12.27-.51L196.89,53a1,1,0,0,0,0,1.53C196.89,55.52,196.89,56,196.38,56ZM193.82,94.9l.51-.51Zm.51,27.62.51-.51v-.51c-.51.51-1,3.58-1,8.19v.51c0-2.56,0-4.61.51-5.12Zm0-37.34.51-.51v.51Zm0,8.19h.51c0,.51,0,1-.51,1Zm0,6.14c0-2.56,0-4.1.51-4.61Zm.51-14.33v0Zm0,32.74,1.54-12.79v.51c.51,0,.51,0,0-.51l.51-6.14V97.46l-.51-3.07-.52,1a2.29,2.29,0,0,0,0,2.56v2c0,1.53,0,2-.51,2.56s-.51,1-.51,2.55v12.79Zm.51-28.13v0Zm.51,217.39.52-2.05ZM198.42,56v.51h-2V56Zm-1,68,.51-5.12v-1c0-1,0-2,.51-2.56v-5.62c0-1.54,0-2-.51-2.56v4.6l-1.53,13.3.51.51Zm-1,181.07v0ZM197.91,55c.51,0,1,.52,1.54,1h-1c-.51,0-.51,0-.51-.51Zm.51,18.42v.51a1.88,1.88,0,0,0-.51,1.54Zm-.51,2v0Zm0,33.75.51,1h-.51Zm.51-36.82v0Zm0,0v0Zm.51,43.47v3.07l-.51,3.07,1-5.11v-1Zm-.51,162.66c.51-.51.51-2,.51-4.09a1.89,1.89,0,0,1-.51,1.54Zm1-216.88a1.88,1.88,0,0,0-.52,1.54A1.88,1.88,0,0,1,199.45,61.65Zm0-5.62h0Zm.51,31.2-.51,4.6v1c0,1.53,0,2.55.51,3.07l.51-6.14v-.51L201,85.7l1-6.14c-.51,0-.51,0-.51-.51L201,75.47a30.35,30.35,0,0,1-1,7.16ZM199.45,123v0ZM200,55V53h0l.51,1Zm1,83.89v0ZM204.05,56h0Zm-1.54,28.64v0Zm0,92.07v.52c.52,0,.52,0,.52-.52ZM204.05,165c0,2.05,0,3.58-.51,4.6v3.58c0-2,0-3.58.51-4.6l.51-2.56v-4.6C204.05,161.91,204.05,162.93,204.05,165Zm0,20v3.58a18.21,18.21,0,0,0,.51-3.07,21.16,21.16,0,0,1,.51-6.14v-2l-.51.51v3.07a1.26,1.26,0,0,0-.51,2Zm2.56-131.46h0Zm-1.54,117.65v4.6l.51-2.05v-5.11l-.51,1v1.54Zm0,44.5v0Zm2.56-55.24v-1.54c1-6.65,1.53-11.76,2.05-15.34V142l-1-9.72c-.51-.51-.51-2.55-.51-5.11l-1,12.27-1,7.68.51,4.6v-.51l.51-3.07,1.53-7.16a10,10,0,0,0-.51,4.09c0,2.56,0,4.09-.51,5.12s-.51,3.06-.51,6.13a42.78,42.78,0,0,1,1-6.65l.51-1-.51,1,.51,2.05c-.51.51-.51,1.53-.51,3.07l-.51,4.6Zm-1.53,21.48c.51-.51.51-.51,0-1Zm.51,32.22a1,1,0,0,1,0-1.53ZM210.19,53h0Zm-2.05,148.85-1,1.53Zm0-57.29a1.88,1.88,0,0,0,.51-1.54v4.61Zm0,51.15.51-1.53Zm0,6.65.51-.51c0-.51,0-.51.51,0Zm.51-61.89v0ZM209.16,55h0ZM224,293.37c.51.51.51,1,.51,2.56L225,299a1.88,1.88,0,0,0,.51,1.54c0,2.05,0,3.07.51,3.58v-1.53l.52-3.07-1-3.07,1,2.55v-1l1-7.67h.51l-.51-2.05-.51-7.16-2.56-19.95c0-1.53,0-2.55-.51-3.07l-.51-2.55v-3.07l-.52-4.61-1-4.6.51-3.58c-1.53-9.72-2.55-15.86-2.55-18.93-.52-.51-1-3.07-1-7.67l-1-6.14a22.52,22.52,0,0,1-1-5.11v-3.07c-.51-.51-.51-1-.51-2.56s0-2-.52-2.56l-2-16.36c-.51-8.19-1-11.77-1-11.26l-.51-3.58-.51-2.56v1l-.51,2.55v3.07l-.51,2.05v2.56l-.51,2-.51.51v2.56l.51,3.07c0,2,0,3.07.51,3.58v1.54a38.11,38.11,0,0,1,1,9.2c0,.52.51,2.56,1,5.12l1,9.21.51,8.18a40.33,40.33,0,0,1,1,7.16l2.56,18.42v.51l1,5.62c0,1,.51,3.07,1,6.65a21.16,21.16,0,0,1,.51,6.14c-.51,1.54-.51,3.07,0,3.58v.51a7.63,7.63,0,0,1,.51,3.58,3.27,3.27,0,0,0,0,3.07,46.22,46.22,0,0,1,1.53,12.79l.51,1.54.52,5.11.51.51ZM210.19,180.84c-.51-.52-.51-.52-.51,0S209.68,181.35,210.19,180.84Zm9.2-126.35h-3.06l-.52-2.55-3.07.51-1,.51.51,1h1v1h0l-.52,1c.52,0,.52,0,.52-.51V55h2l-.51,1.54c-.51,5.63-1,9.21-1,11.25l.51,2,.51,3.58,1,7.16a26.67,26.67,0,0,0,1,5.63v-4.1l-.51-4.6.51,4.09.51,1c0-1.54,0-2.56-.51-3.07v-.51l1.53-10.75v-.51c-.51-1-.51-2.56-.51-5.11a10,10,0,0,0-.51-4.09c-.51-2.05-1-3.07-1-3.59Zm-6.65,118.16a21.21,21.21,0,0,1-1-7.16Zm-1,7.67v0Zm0,0c.51,0,.51.52.51,1.54Zm.51-23v0Zm.51-104.86h.52V53c0,.51,0,1,.51,1h-.51v-.51Zm2.56,45-2-18.41V75.47l-.52,1v3.07l1.54,10.74c.51,1.53.51,4.6.51,8.18.51.51.51,1.54.51,3.07l.51-1-.51-1ZM214.79,190l-2-17.39a98.92,98.92,0,0,1,2,16.37ZM213.77,54a1.87,1.87,0,0,0,1.53.51l-2,.51Zm1,134.53-.51.51v1a1.87,1.87,0,0,1-.51-1.53l.51-.51Zm-.51-126.86v0Zm.51,4.1.51,1Zm0,70.07v0ZM216.33,55c-.52,0-1,0-1-.51h1Zm-1,11.77v0Zm1,6.14c0,.51,0,.51-.52,0s-.51-1.54-.51-3.07l.51,1C215.81,71.88,215.81,72.4,216.33,72.91Zm-1,60.87.51-2.56-.51,1Zm0,58.82a1.88,1.88,0,0,1,.51,1.54Zm0,66v0Zm1-60.87c-.52-.52-.52-1.54-.52-3.58C215.81,195.67,215.81,197.2,216.33,197.72Zm0-121.74c-.52,0-.52-.51,0-1Zm0,123.78.51,1v1.54l1,10.23v.51c-.51-.51-.51-1-.51-2.56l-1-8.18a1,1,0,0,1,0-1.54Zm0-124.81v0Zm.51,38.37v1l.51,4.09a1.88,1.88,0,0,1,.51,1.54,26.07,26.07,0,0,0,1,6.65v.51c-.51-1-.51-2.56-.51-4.61a10,10,0,0,0-.51-4.09c-.51-2-.51-3.07,0-3.58l-1-6.14Zm1-28.14-.51-1a1.9,1.9,0,0,0,.51,1.54Zm5.63,23v-1.53l-.52-3.58c-.51-.51-.51-2-.51-3.58l-2-15.35a1.56,1.56,0,0,1,0-2V80.58l-.51-2v2l-.52,3.07c0,2.56,0,3.58-.51,4.09v1c0,2,0,3.07-.51,3.58l-.51-5.62.51,7.16V99l.51,2.05-.51,2.56a44.74,44.74,0,0,0,1.54,10.74v2.56l.51,1c0,1.53,0,2,.51,2.56v4.6l.51,1,.51,1.54v1c-.51,1-.51,1.54,0,2.05l1,7.67c0,.51,0,.51.52.51v2.56a1,1,0,0,0,0,1.53c.51,3.58,1,5.12,1,5.63,0,2,0,3.58.51,4.09.51,5.63,1,9.21,1,11.77v4.09c1.54,4.09,2.05,8.7,2.05,14.32l2.56,14.84v1c.51,2.56.51,3.58,0,3.58v3.58l-.51-.51v.51l-1-5.63-.51.51a37.75,37.75,0,0,1-1-6.13v-1.54l-1-6.14c0-2.55,0-4.6-.52-5.62l-.51-2.56a1.87,1.87,0,0,0,.51,1.53V186l.52,4.09v3.07c.51,0,.51,1,.51,3.07.51,3.58,1,5.63,1,7.16l.51,1v4.09c0,2.56,0,3.58.51,4.09l.51,1.53v2c.52,1.53.52,2.56,0,2.05v2c0,2.56,0,4.09.52,4.61s.51,2,.51,3.58v2l2,9.21v2.05a1,1,0,0,0,0,1.53v1h.52v4.61l1.53,5.11v1c-.51.52-.51.52,0,1v-2.56l-.51-4.09.51-1a1.9,1.9,0,0,1-.51-1.54,6.6,6.6,0,0,0-1-4.09l.51-1c0-1.54,0-2.05-.51-2.05v-1l-.52-1.54.52,1v1h.51a68.69,68.69,0,0,0-1-9.72v-3.07a1,1,0,0,1,0-1.53l.52.51.51,3.07v1.53c0,2.05,0,3.58.51,4.6l.51-1,.51,1-1,1.54v2a1.87,1.87,0,0,1,.51,1.53c0,1,0,1.53.51,2.05l-.51.51v.51l.51-1c0,2.55,0,3.58.51,4.09v2l.51-2.55c.52-.52.52-1,.52-2v1c.51.51.51,1,.51,2.05v2.05c0,.51,0,.51.51.51,0-2.56,0-3.58-.51-4.1l-.51-1.53,1-3.07,1-6.14-.51-3.07v-2.55c0-2.56,0-4.1-.51-4.61-.51,0-.51,0-.51-.51v-6.14l-1-5.62c0-1.54-1.53-11.77-4.09-30.18a45,45,0,0,0-1-8.19,15.79,15.79,0,0,1-.51-5.11V166l-1-4.6c.52-1,0-2.56-.51-5.12v-2l-.51-2.05-1-11.76A68.12,68.12,0,0,0,226,130.2a92.65,92.65,0,0,0-2-15.86c0-2.56,0-4.09-.51-4.6A1,1,0,0,1,223.49,108.2Zm-2.05,6.14q-.76-1.53-3.07-21.48v-.52l1.54,11.26Zm-1.53,18.93-1-5.63v.51Zm-1,88v0Zm1-85.94-.52,1,.52,1.54a4.34,4.34,0,0,0,1,3.07v1a2.29,2.29,0,0,0,0,2.56l.51,4.09.51,7.16v-9.21l-1-6.13-1-6.65Zm.51-41.94v0Zm.51-41.43.51,1.53V53Zm0,34.27v0Zm0,18.92c.51,0,.51,0,.51.51Zm.51,1v0Zm1,5.11v.51l-1-5.62Zm.51,15.35-1.53-8.19v-3.07L223,125.59v1Zm-1-60.36v0Zm1,49.1v0Zm0,1v0Zm0,14.32v0Zm.52,33.76c0,1.53,0,2,.51,2.56h.51a11.59,11.59,0,0,1-.51-3.59l-.51-1v-2.56c-.52,0-.52,1-.52,2.56C223.49,162.93,223.49,163.44,223.49,164.47Zm0-43v0Zm.51,16.37h-.51v-5.12l.51,5.63Zm.51,1.53c-.51,0-.51-.51-.51-1Zm.51,36.32v-1l-.51.51c0,.51,0,1,.51,1Zm1-26.6a2.29,2.29,0,0,0,0,2.56v1.53c-.51-.51-.51-2-.51-5.62a1.89,1.89,0,0,1-.51-1.54l.51,1C226,147.59,226,148.1,226,149.12Zm-1,140.16.51,1Zm.51,1v0Zm1,16.88c-.52.51-.52,2-.52,4.09l26.09,1,.51-5.11h-3.58l-.51,3.58v.51l-18.41-.51v-4.09h-.52v-1a1.87,1.87,0,0,1-.51-1.53c0-.51,0-.51-.51-.51l.51,1,.51,2.05c-.51-.51-1.53-.51-3.06-.51Zm0-160.62.51.52h-.51Zm0,11.26v0Zm0,130.94v0Zm.51-126.34a1,1,0,0,0,0-1.53c.51,0,.51,0,.51.51v2Zm0,140.16v0Zm.51-136.07.51,1.54Zm0,135.55v0Zm.51-131.45v0Zm.51-10.75v0Zm.51,6.14v-.51c-.51-.51-.51-.51,0-.51Zm.51,13.81c.52,1,.52,1.54,0,2.05v-2.05l-.51-1Zm0,3.58c.52.52.52,1.54.52,4.1Zm0,26.09v0Zm0,0c.52.51.52,1.54.52,3.58C229.62,212.55,229.62,211.53,229.62,209.48Zm0,97.19v0Zm1-132.48-.51,1.53v-.51Zm0,16.88c-.51,0-.51,0-.51-.52s0-.51.51,0Zm1-4.1c0-1,0-1.53-.51-2Zm-.51,8.7v0Zm1,3.58v2.05l-.51.51.51-1a3.82,3.82,0,0,0-.51-2.55v-.51a1.9,1.9,0,0,1-.51-1.54v1Zm3.07,107.42c-2,0-3.58,0-4.09.51l2.56.51v.51l.51-.51h1Zm-3.07-85.94c-.51,0-.51,0-.51-.51Zm0-14.83c.51.51,1,3.07,1,6.65Zm0,15.86v0Zm1-8.7.51,3.07c-.51-.51-.51-1.53-.51-3.58Zm.51,94.12c0,.51,0,.51.51.51Zm2-73.15-1.53-13.81v-.51l.51,1.54,1.53,13.29c0,2.05,0,3.07.52,3.59v1.53c0-.51,0-1-.52-1Zm-1.53,70.59h.51v-1.53Zm1.53-63.94v.51h-.51v.52Zm0,55.25v0Zm1-52.69v0Zm1,33.25c-.51-.51-.51-1-1-1a22.62,22.62,0,0,0,1,5.11v-4.09Zm-1,13.81c.51-2.56,1-4.6,1-5.12Zm.51,16.88v0Zm.51-54.22c.51.51.51,1,.51,2.56l.51,1c-.51-.51-.51-2.05-.51-4.09l-.51-1.54V253Zm1-57.29h0Zm.51,63.94v2.56l-1,4.09a32.62,32.62,0,0,0,1.53,7.67l.52,4.09c0-2.55,0-4.09.51-4.6v-1.54c.51-.51.51-1.53.51-3.06,0-1,0-1.54.51-2.05l.51-1-.51-1v-.51l.51-.51v-2.56c0-1.53,0-2.55-.51-3.07l-1-5.11-1,8.18-.51.51Zm-.51,17.9v0Zm1-15.86-.51,2.56v-2.56Zm0,33.25h-.51V297c.51,0,.51,0,.51-.51V294.9Zm0-29.66a1.86,1.86,0,0,1,.52-1.54Zm0,3.58v-3.07a3,3,0,0,1,.52,2,3.84,3.84,0,0,0-.52,2Zm.52-69.06v0Zm.51,22.51v-1.54l-.51-2c.51.51.51,2,.51,4.09Zm-.51,46.55a25.84,25.84,0,0,0,1-6.14l1-1-.51,1-.51,4.09v1l-1,1.54v-.51Zm.51,4.6-.51-2.05.51.51Zm0,14.32-.51,1Zm0-1.53v-2l.51-.51v-.51c-.51,0-.51,0-.51.51Zm.51,22.5v-.51h0c0,.51,0,.51-.51.51Zm0-26.08v0Zm0,24v0Zm1-19.44-.51-3.07c0,2,0,3.58.51,4.09Zm0-13.3v0Zm.51-17.39v0Zm1-12.28-.51.51.51,1Zm0,39.9-.51-.51c0,1,0,1.53.51,2.05Zm4.09,23H245v-1l-.51-2.56-.51-1c0,2,0,3.58.51,4.09v.51l-1-.51v1l1.53.51Zm1-98.21c-2,10.74-3.07,16.37-3.07,17.9l-1,4.61-.51,3.06.51,3.59-.51,3.06-.51,1.54h.51l.51-1v-2.56l.51,1a1.9,1.9,0,0,0,.51,1.54l-.51,1,.51,1.53v.51l.51,1c0,1,0,1.53.52,1.53l-.52-4.09v-1L248,233l1.53-7.67.51-2.05.52-2c.51-.52.51-2.05.51-3.59l1-5.11c0-1.53,0-2.05.51-2.56l1-6.14,2-8.69,1-4.09c0-1.54,0-2,.52-2.56v-1c.51-2.56,1-4.1.51-4.61,0-.51.51-1,1-1.53v-1l.51-5.62.51-3.07c.52-.51.52-1.54.52-3.07,0-2.56.51-3.58,1-3.58,0-1.54,0-2,.51-2.56v.51c0-.51,0-.51.51-.51v-1h-.51l.51-1v-.52l.51-1,.51-3.07c.52-.51.52-1.53.52-3.58v-1l1.53-7.16.51-2v2.56l-.51,2.56c.51-.52,1-2.56,1.53-7.16L270,127.13l-.51-2.56,1.54-5.63v1c0,.51,0,.51.51,0v-1.54a17.72,17.72,0,0,0,1.53-6.14,1.87,1.87,0,0,0-.51-1.53,45.63,45.63,0,0,1,1.54-7.67v1c.51.51.51.51.51,0v-1.53A4.67,4.67,0,0,0,276.17,99V97a4.32,4.32,0,0,1,1-3.07v-1l-.51.51c0,.51,0,.51-.51.51v-.51l1-2.56,1-6.65c0-4.09,0-6.65.51-7.67v-1c.51-1,.51-2.56.51-5.12a5.66,5.66,0,0,1,0-4.09v-1a42.23,42.23,0,0,0-1.53,9.21L277.19,76v2l-.51,2.56a26.12,26.12,0,0,0-1,4.6,71.91,71.91,0,0,0-2.05,8.7l-2,7.67a42.78,42.78,0,0,0-1,6.65l-1,4.61a3.07,3.07,0,0,0-.51,2,1.9,1.9,0,0,1-.51,1.54l-4.6,22.5-3.07,13.81-1,6.14L258.27,165l-1,6.14c-1.54,5.11-2.05,8.18-2.05,9.72a19.09,19.09,0,0,0-1,6.13,17.6,17.6,0,0,0-1.54,6.14l-1.53,5.63c.51,1,.51,1.53,0,2v-.51A68.32,68.32,0,0,0,249.06,209Zm-4.6,41.43v-1c0,.51,0,.51-.51.51Zm.51,56.78v1l-.51-1Zm0-68v0Zm.51,5.62-.51,3.07Zm.51-4.09.51-1Zm0,0c.51-.51.51,0,0,.51Zm.51,2.56-.51,1.53v-.51Zm.52-6.65a1.88,1.88,0,0,1-.52,1.54Zm-.52,1.54v0Zm0,10.74H247v-1Zm2.05,62.4v0Zm1.53-93.61c.52,1.54,0,3.59-.51,5.63-.51.51-.51.51-.51,0v-.51A15.16,15.16,0,0,0,250.08,217.66Zm0,55.76v0ZM250.6,209l.51-1Zm0,1v0Zm0,7.67v0Zm0,64.45.51-1c0,.51,0,.51-.51.51Zm.51,25.58v.51l-.51.51Zm-.51,2.05v0Zm.51-73.66v0Zm23.53-43.48c.51-.51.51-2,0-3.58.51-.51.51-1,.51-2.56,0-1,0-1.53.51-2a4.34,4.34,0,0,0,1-3.07v-6.14c0-2.05,0-3.58.51-4.09l-1.53,5.62q-3.07,14.58-3.07,16.88l-.51,1.54v0c-.51,0-.51.51-.51,1v1l-.51,2.56v.51l-1,.51v.52L268,208a26.17,26.17,0,0,0-1,4.6v2a2.36,2.36,0,0,0-1.53,2.55v3.58h-.51l.51-.51-.51.51-.51,2.05c.51-.51.51-1,.51-2.05v3.58a3.82,3.82,0,0,1,.51-2.55c.51-.51.51-1,.51-2l.51,1-.51,1-.51.51,1-1-.51,3.58.51-1c0,2.56,0,3.58-.51,4.09a26.07,26.07,0,0,0-1,6.65,10,10,0,0,0-.51,4.1c-.51.51-.51.51-.51,1a1.85,1.85,0,0,1-.52,1.53,4.36,4.36,0,0,0-1,3.07c-.51,2.56-1,6.65-2,12.28-.52,0-.52,0-.52-.51h.52v-.51c-.52,0-.52,0-.52.51-.51.51-.51.51-.51,0l1-1c0-1.53,0-2,.51-2.55l-.51-2,1.53-5.11v-2c0-1.53,0-2.05.51-2.56,0-.51.51-1,1-1.53s0-1.54-.51-2.05c.51,0,.51,0,.51-.51v-3.07c.52-.51.52-1.53.52-3.07l-.52,1-.51.51c-.51,0-.51.51-.51,1.53v1c-.51.52-.51,1-.51,2.05l-5.63,28.65a13.12,13.12,0,0,1-1,3.58,37.75,37.75,0,0,1-1,6.13l-1.54,10.23-1,7.17v1.53c.51.51.51,1,.51,2.56l.51,1.53.51,5.12v1l.52-1v-1.54l1-6.14a1.87,1.87,0,0,0,.51-1.53,17.77,17.77,0,0,1,1.53-6.14l-.51-1.53c.51,0,.51-1,.51-3.07l1-3.07v-1.54l.51-3.06a20.42,20.42,0,0,0,1-3.07v-1.54c-.51-.51-.51-.51,0-1l1-2.56v-1l1.53-8.19a1.87,1.87,0,0,1,.51-1.53l-.51-.51,1-3.58c.51-.51.51-2,.51-3.58a52.2,52.2,0,0,1,2.05-11.26L268,222.27c.51-.51,1-1,1-1.54s0-.51.51-.51v-1a3.27,3.27,0,0,1,0-3.07,1.87,1.87,0,0,1,.51-1.53l.52-1.54c.51-.51.51-1,.51-2l-.51-1,2.55-9.72v-2l.51-1.54.52-2.55A1.88,1.88,0,0,1,274.64,192.6Zm-22.51,12.79-.51,1v-2c.51-.52.51-1,.51-2.05Zm0,4.6c0,1,0,1.54-.51,2C251.62,211,251.62,210.5,252.13,210Zm-.51,2v0Zm.51,94.12v-.52c-.51,0-.51,0-.51-.51Zm0-26.6.51,2Zm.51-116.63.51-.51v.51l-.51.51Zm.51,3.58a1.9,1.9,0,0,0-.51,1.54Zm0,35.81v5.11l-.51.52a1.88,1.88,0,0,1,.51-1.54Zm.52-44v0Zm.51,39.9.51-1v.52Zm0,0v0Zm0,92.07c0-1.54,0-2.05.51-2.56v.51C254.18,288.76,254.18,289.28,254.18,290.3Zm1-102.3v-.51a1.87,1.87,0,0,1-.51,1.53Zm-.51,7.67v0Zm.51,91.56v0Zm.51-104.86c.51-.51.51,0,0,1.54Zm0,27.11,1-2V205.9Zm.51-21.48,1-1v1a4.27,4.27,0,0,0-1,3.07Zm.51-8.19a9.19,9.19,0,0,1,1.54-5.62,22.52,22.52,0,0,0-1,5.11Zm.52,2.56c.51-3.58,1-5.11,1.53-5.11Zm0,19.95v1.53l1-3.58c.51-1.53.51-2.55,0-3.07Zm1-61.89v0Zm0,30.18.51-2.05c0,2.05,0,3.07-.51,3.07Zm0,25.06,1-2v1Zm1,57.29a4.34,4.34,0,0,1-1,3.07Zm0,11.25c0,1,0,1.54-.51,2.05a15,15,0,0,1,1-4.61C259.29,262.17,259.29,262.68,259.29,264.21Zm-.51,2.05v0Zm1-7.16c0-1,0-1.54.52-1.54A1.87,1.87,0,0,1,259.8,259.1Zm1-97.7c-.51,0-.51.51-.51,1a1.87,1.87,0,0,1,.51-1.53Zm-.51,95.14v0ZM261.85,164l.51.51v-1Zm1-12.28v.51c0,1.54,0,2.05-.51,2.56Zm-.51,8.18v0Zm1-10.74-.51,1.54Zm.52-1.53-.52,1.53Zm.51,77.75c0,.51,0,1-.51,1v-.51a1.9,1.9,0,0,1,.51-1.54l-.51,2.05c0,1,0,1.53-.52,2,.52,0,.52,0,.52-.52v1Zm-.51-77.75v-1.54l.51-3.07Zm.51,79.28c-.51,0-.51,0-.51-.51Zm1-124.81v0ZM267,133.27l-.51,1Zm-.51,90c.51,0,.51,0,0,.51ZM270,116.9l.52-3.58L268,127.64l-1,1ZM267,133.27l.52-2.56Zm.52,79.28c0-2.56,0-3.58.51-4.09v1c-.51.51-.51,1.54-.51,4.09Zm2-84.91-.51,1-1,3.58.51-1a11.54,11.54,0,0,1,.51-3.58ZM268,132.75c.51.52.51.52,0,.52Zm0,75.71,1-2.05a1.9,1.9,0,0,1-.51,1.54Zm2.56-95.14,3.06-13.81Zm1.53,1-1,2.56v-.51Zm-1,4.09v0Zm.51,77.75.51-1-.51,1.53Zm4.09-106.9.51-.52v.52l-1.53,6.65-1,3.58.52-2.05Zm.51-34.79-1,.51Zm-.51,41.44v3.58c-.51,0-.51,0-.51-.52Zm.51-7.17.51-1ZM276.68,388l-.51-.51c0-.52,0-.52.51,0Zm1.54-310.49v3.58l-1.54,4.09Zm-1.54,7.67v0Zm0,1.54v0Zm1,.51c0,.51,0,.51.51.51V85.18C278.22,86.21,278.22,86.72,277.71,87.23Zm.51,13.3a1.87,1.87,0,0,1-.51,1.53v2l.51-1.53v-2Zm0-23c0-.51,0-1,.51-1Zm7.16-33.76V37.61l-1.54,7.16c-.51.52-.51,1-.51,2.56s0,2.05-.51,2.56h1v-.51c0-.51.52-1,1-1.54l-.51,1.54a9.91,9.91,0,0,0,1.53-5.12ZM282.82,55v0Zm13.81,52.69v0Zm9.21,166.24v0Zm0,5.63v0Zm0,6.14v0Zm0,1.53v0Zm0,2v0Z" style="fill:#ffec00"/><path d="M342.15,387v0Zm2.56.52v0Zm106.39-335h-.51l.51-.51h1l-.51-.52c1.54,0,2.56,0,3.07-.51l-.51-.51h-1.53c-3.07,0-5.12,0-6.65.51h-2.05l-.51.51-1.54.52h-1.53l-2.05.51-2.55.51-1,.51-.51.51h-1.53a1.88,1.88,0,0,0-1.54.51,1.87,1.87,0,0,1-1.53.51h-1.54l-1,.52a1.87,1.87,0,0,1-1.53.51l-1,.51c0-.51-.51-.51-1,0l-3.07,1a1.87,1.87,0,0,1-1.53.51c-2.05,0-3.07.52-3.07,1.54h-.51l-1,.51-3.58,1.53-4.6,1.54-1.54.51-2.55,1h-.52c0,.51,0,.51-.51.51h-1l-.51.52a4.65,4.65,0,0,1-3.58,1.53l-2.05,1-1.53.52a3.92,3.92,0,0,1-2.56,1h.51c-1.53,0-2,.51-2,1h-.52c-.51-.51-.51-.51-1,0a1.87,1.87,0,0,1-1.53.51c-.52,0-1,0-1,.51l-1,.52-2.56,1,1-1v-.52l-1,.52c-.51,0-.51,0-.51.51v.51l-1,.51-1,.51c-.51-.51-.51-.51-.51,0l-.51.51h-.51l-2.05,1-1,.51c-.51,0-.51,0-.51.51h-.51l-.51.51-2.05,1-2,1c-1,0-2,.51-3.58,1.53h.52a1.88,1.88,0,0,0-1.54.51l-.51.51c-1,0-1.53.52-1.53,1-.52-.51-1,0-2.05.51h.51l-.51.51c-1,0-1.54,0-2,.51l-.51.51-1,.52v1a1.87,1.87,0,0,1-.51,1.53,1.89,1.89,0,0,0-.51,1.54v3.07a1.85,1.85,0,0,0-.52,1.53v2l-.51,2c-.51.51-.51,1.54-.51,3.07v1l-.51,2v4.09l-.51.51v4.1l-.51,1.53v5.63c-.52.51-.52,1-.52,2.56v5.62c-.51.51-.51,1.54-.51,3.58v9.21a1.87,1.87,0,0,0-.51,1.53v.52h-.51l.51.51v13.3a1.87,1.87,0,0,0-.51,1.53c0,3.58,0,5.12-.51,5.63v5.62c0,1.54,0,2.56-.51,3.07v7.16h-.51v.52c.51,0,.51,0,.51.51V187c0,.52,0,.52-.51.52V188l.51.51v2l-.51.52v1c0,.51,0,.51-.52,0V234c-.51,0-.51,0-.51.51v1h-.51c0,.51,0,.51.51.51v4.6c0,.51,0,1-.51,1v-.52l-.51-1v7.67h0v21.49l.51.51-.51.51.51,2.56v6.65l-.51,7.67v16.88c.51.51.51,2.05.51,5.11l-.51,4.1,1,21v15.86h.51a1.87,1.87,0,0,0-.51,1.53l.51,2.56v17.9l.52,5.12v4.09c0,17.9,1,28.13,2.55,30.69v3.07l.51,2,.52,2.05,1,2.05v2l.51,1h.51l.51.52,1,.51,1-1h1.53v.52h1l1.53,1c.51.51,1,.51,1.54-.51h.51l.51.51,1-1h.51c0,.51.52,1,1.54,1l1,.51.51.51h1.54l.51.51h.51v1c.51,0,.51,0,.51-.51,0-1,.51-1.54,1.54-1,0,.51,0,.51.51,0v-1.53l1,.51a1.9,1.9,0,0,1,.51-1.54l.51-1v-1h.52v1a1.1,1.1,0,0,0,1-1v-3.58h-.51v-1l.51-.51v-1h.51l1,2.05c.51-.52.51-1,.51-2.56l-.51-1,.51-.52c0-1,0-1.53.52-2v-1c.51,0,.51-.52.51-1-.51-1-.51-1.53,0-2v-4.61a1,1,0,0,1,0-1.53v-13.3c-.51-.51-.51-.51,0-1v-7.17a1.87,1.87,0,0,1,.51-1.53v-7.16l.51-4.09c0-1.54,0-2.05-.51-2.56l.51-1v-5.12h.51a1.87,1.87,0,0,1-.51-1.53v-2.56l-.51-.51v-1l.51-.51h.51l-.51-.51c.51-.51.51-.51,0-1-.51,0-.51,0-.51-.51V335.31c-.51-.51-.51-1-.51-2.56v-2l.51-.51-.51-1v-.51c.51-.51.51-1.53.51-4.09V303.09c.51-1,.51-3.07.51-6.65V290.3a1.9,1.9,0,0,1,.51-1.54V285.7L381,276V263.7c.52-.51.52-.51,0-1v-2.56c.52-.51.52-1,.52-2.05s0-1.53-.52-2v-1.54a1.85,1.85,0,0,1,.52-1.53v-1c-.52,0-.52-.52-.52-1,.52-.51.52-1,.52-2.55v-3.59l.51-1.53c0-.51,0-1-.51-1v-3.58c.51-.51.51-1,.51-2.56l-.51-3.58a2.57,2.57,0,0,0,0-3.07v-1.54c.51-.51.51-.51,0-1v-.51c.51-.51.51-1,.51-2.05v-2c-.51,0-.51-.51-.51-1a1,1,0,0,0,0-1.54l.51-1v-2.56l-.51-1a1.89,1.89,0,0,0,.51-1.54V190l.51-.51c0-1.53,0-2,.51-2v-3.58c-.51-.52-.51-.52,0-1v-8.69c0-1,0-1.54.51-1.54l.51-1v-.51c-.51,0-.51,0-.51-.51l-.51-1v-3.07c-.51,0-.51,0,0-.51l.51-1v-2a3.27,3.27,0,0,1,0-3.07l-.51-.51v-2h.51v-2.56l.51-1v-1l-.51-3.58.51-1v-2.56c.51,0,.51,0,.51-.51V143.5c0-1.54,0-2.05-.51-2.56,0-1.54,0-2.05.51-2.56v-.51l.52-1.54a1.85,1.85,0,0,1-.52-1.53v-2.56a1.85,1.85,0,0,1,.52-1.53v-7.16c.51-.51.51-1,.51-2v-4.6a1.89,1.89,0,0,0,.51-1.54c0-.51,0-.51-.51-.51a1.87,1.87,0,0,0,.51-1.53l.51-.51v-4.1h.51v-.51l.51-.51h.52c.51,0,.51,0,.51-.51h.51c.51.51.51.51,1,0v-1l.51-.52h1a1.1,1.1,0,0,1,1-1l2.56-1.53h.51l-2.05,1.53-1,1-1,.52h-.52v1c.52,0,.52,0,.52-.51l3.06-2,1-.51v-.51l.51-.51c.51-.51,1-1,1.53-1v.52l.52-.52h.51l2-1.53h.51l1-.51L404,99c0-.51,0-.51.51-.51s.51,0,.51.51v-.51l1-1a1.87,1.87,0,0,0,1.53-.51l.51-.51h.52c0-1,1-1.54,2.55-1.54l1.54-1,.51-.51.51-.51a6.25,6.25,0,0,0,4.6-2,3.9,3.9,0,0,0,2.56-1h.51l.51-.51c0-.52.52-.52,1-.52s1,0,1-.51.51-.51,1-.51l.52-.51H426c0-.51.51-.51,1-.51a1.87,1.87,0,0,0,1.53-.51l2.05-1,1-.51c.51,0,.51,0,.51-.51a8,8,0,0,1,3.59-1.53h-.52c.52-.52,1-.52,2.05-.52-.51-.51,0-1,1-1.53a1.89,1.89,0,0,1,1.54-.51c.51,0,.51,0,1-.51L445,78,448,76.49a1.88,1.88,0,0,1,1.54-.51c.51,0,.51,0,.51-.51h1l.51-.52,4.61-1,4.09-1,.51-.51v-.52a1.87,1.87,0,0,0,1.53-.51c-1,0-1.53,0-2,.51s-1,.52-2.56.52H455.7l-2,1v-.51L448,74.44h-1L446,75l-5.12,2-1,.51a1.89,1.89,0,0,0-1.54.51l-1.53.51-1,.52c.51,0,.51,0,.51-.52L438.82,77a4,4,0,0,1,2.56-1l2.56-1.54,2.05-.51h.51l12.78-3.58,3.07-1.53,1-.52v-.51h-1.54l.51-1,1-.51h-.51a1.9,1.9,0,0,1-1.54.51H459.8c0-.51,0-.51-.52-.51l-.51-.51-.51-.52c-.51,0-.51,0,0-.51.51,0,.51,0,.51-.51V63.7l-1-.51h-.51v-1h.51c.51-.52,0-.52-.51-.52s-.51,0-.51-.51l.51-.51c.51-.51.51-.51,1,0,.51,0,0-.51-.51-1-.51.51-.51.51-.51,0-.51,0-.51,0-.51-.51v-1l1-1H455.7v-.51l-.51-1V55h-6.65l-1,.52H446l-2.05.51h-1.53c-.52.51-.52.51-.52,0-.51,0-.51,0-.51-.51h2.56l-.51-.52L447,54h1.53l1-.51,1-.51.51-.51c-.51.51,0,.51.51.51l.51-.51h-1ZM346.24,268.82h-.51l.51-.52Zm0-8.19c-.51-.51-.51-.51,0-.51Zm0-14.83v-2.05c.51,1,.51,1.54,0,1.54Zm0,.51v0Zm.51-51.15v0Zm0,39.38v0Zm0,9.21c.51.51.51.51,0,.51Zm.51-80.82v0Zm0,3.07v0Zm0,27.11h0Zm1-44.5h0Zm-.51,53.2v0Zm0,89.51v0Zm.51-148.85v0Zm0,15.35c.51.51.51.51,0,1Zm.51,41.94c-.51.51-.51.51-.51,0Zm-.51,167.78v0Zm0,31.71v0Zm.51-263.43v0Zm0,27.11v0Zm0,224.56h0Zm1-268v0Zm0,7.68v0Zm0,10.74v0Zm0,76.21v0Zm.51,147.32c-.51-.51-.51-.51,0-.51Zm0-252.69v-.51c.51.51.51.51,0,1Zm.51,4.1v-.52l.52.52Zm0,8.18v0Zm6.65,34.27c-.51.51-.51,2.56,0,5.63-.51,0-.51.51-.51,1V167l-.51,6.13v10.23a1.9,1.9,0,0,0-.51,1.54l.51,1.53c-.51.51-.51.51,0,.51V190l-.51,6.14v9.72c0,.51,0,1-.51.51v.51c-.51,0-.51,0-.51.51a1.87,1.87,0,0,0-.51-1.53v-6.65h-1V209h.51c0,.51,0,.51.52.51,0,.51,0,.51.51,0-.51,0-.51.51,0,1V209h.51V212l-1,1.53v0a1.87,1.87,0,0,1,.51-1.53v3.58l-.51.51c-.52.51-.52.51-.52,0v2.56a1.89,1.89,0,0,1-.51-1.54v6.14l-.51,5.12v13.3c0,2.55,0,4.09-.51,4.6v1a1.87,1.87,0,0,1-.51-1.53l-.51-.51V196.18c.51-.51.51-1.53.51-3.58V174.7c-.51-.51-.51-.51,0-.51.51-.52.51-.52,0-1s-.51-.51,0-1v-4.09h.51c-.51-.51-.51-1,0-1V165c-.51-1.54-.51-2,0-2v-9.72a2.28,2.28,0,0,0,0-2.55c0-1.54,0-2,.51-2.56v-5.63c0-2,0-3.07.51-3.58v-2.56l-.51-.51c.51-.51.51-2.55.51-7.16l.51-.51v-3.07l.52-.51V116.9c.51-.51.51-2.56.51-6.14v-.51l.51-1v-3.06A45.32,45.32,0,0,0,357,95.41c0-1,0-1.53.51-2l.52-2.56V87.74c.51,0,.51,0,.51-.51a1.87,1.87,0,0,0,1.53-.51l3.07-1.54,2.05-1,2.55-1.53a3.81,3.81,0,0,0,2-.52c.51-.51,1-.51,1.54-1l1-.51,1-.51a1.88,1.88,0,0,1,1.54-.51h1l1-.51.51-.52h1A1.87,1.87,0,0,1,380,78l5.63-2c.51-.51,1-.51,2-.51h-.51c0,.51-1,1-2.56,1.53h-.51l-.51.51h-.51c0,.51,0,.51.51.51a1.9,1.9,0,0,0,1.54-.51l1-.51-2.05,1.53-2.55,1.54.51-.51a1,1,0,0,1,1.53,0h1l.52-.51h1.53l2.56-1.54h1.53l.51-.51-2.55,1.53h-.51l-2.05,1h-.51c-.51,0-1,0-1,.51l-1,.51-3.07,1.53a1.85,1.85,0,0,1-1.53.52c-1.54,1.53-2.56,2-4.09,2l-2.05,1-1,.51-5.63,2.55-2.05,1-1,1h-.51v2a1.87,1.87,0,0,0-.51,1.53c0,1.54,0,2-.51,2.56v2.56c-.51.51-.51,1-.51,2.55l-.52,2.56v4.6c-.51,0-.51,0-.51.52v4.09l-.51,1v2.56l-.51,1v5.63l-.51,4.6v5.12a1.87,1.87,0,0,1-.51,1.53v2.05l-.52,4.6v13.3Zm-5.62,95.65c.51.51.51.51,0,1l.51-1h-.51l.51-.51Zm.51-158v-.52l.51-.51v.51Zm0,3.58v2c.51-.51.51-2,.51-3.58Zm0,31.71v0Zm.51-34.27.51-.51Zm0,102.3.51-.51v2.05Zm0,59.85v0Zm1-76.22v-1l-.51-1c-.51.51-.51,1,0,1Zm-.51,3.07h.51v1Zm0,5.63c.51.51.51.51,0,1Zm0,1c.51.51.51.51,0,.51Zm0,14.32h.51v.52h-.51Zm0,16.37v0Zm0,1.54v0Zm0,38.87v0Zm.51-84.91v0Zm.52,4.09h-.52c.52,0,.52,0,.52-.51Zm-.52,146.29v0Zm1-183.63V142c.51.51.51,1,0,1Zm0,66v-1c.51,0,.51,0,.51.52Zm.51-69.57c.51-.51.51-.51.51,0Zm0,61.38v0ZM356,208l-.51,1v-2.05c0,.51,0,.51.51.51Zm-.51,1.53v0Zm.51-72.12c-.51,0-.51,0,0-.51Zm0,43.48v.51a1,1,0,0,1,0-1.54Zm0,1v0Zm.51,28.13h0Zm0-66.49v0Zm0,1.53v0Zm.51,4.6v3.07c-.51,0-.51,0-.51-.51v-2.56c0-.51,0-1,.51-.51Zm0,5.12-.51.51v-.51Zm-.51,33.76v0Zm0,2.56v0Zm.51-43a1,1,0,0,1,0-1.54Zm0-7.16v0Zm0,0v0Zm13.3,96.67h-.51l.51.52-.51-.52c0,.52,0,.52.51.52l2.56,2c0,.51,0,.51.51.51h.51a1.89,1.89,0,0,0,1.54.51c0,.52,0,.52.51.52h.51c.51,0,.51,0,.51.51h1l.52.51h1v-.51h2.56c.51,0,1,0,1-.51h1.53v.51c0-.51,0-.51.52,0,.51-.51.51-.51.51,0v.51h.51v-.51c-.51,0-.51,0-.51-.51h1.53v-.52h.51v-.51c.52.51.52.51.52,0h.51l.51-.51h.51c.51,0,.51,0,.51-.51h.51v-.51h1.54v-.51h1.53v-.51h.51l.51-.52h.52l.51.52-.51-.52.51-.51h.51l.51-.51h1.54c.51,0,.51,0,.51-.51h1l.51-.51v.51H401l-.51-.51H401v.51h.51v-1h1v0c.51,0,.51,0,.51.51.51,0,.51,0,.51-.51h1c0-.52,0-.52.51-.52s1-.51,1.54-1h.51l1-.51.52-.51h1.53V232h.51v.51h.51v0c-.51,0-.51,0-.51.51l1.54-.51v0l.51-.51h.51l.51-.51,1.54-.52h.51l1-1,1.53-.51h.52a1.87,1.87,0,0,1,1.53-.51l.51-.51a1.86,1.86,0,0,1,1.54-.52l.51-.51,2.56-1.53H426c0-.51,0-.51.51-.51v-.51c.51,0,.51,0,.51.51v-.51c.51,0,.51,0,.51-.52h.51l.51-.51h.52l1-1,1-.51h.51a1.11,1.11,0,0,0,1-1c.51,0,1.53-.52,3.07-2.05,1-1,1.53-2,1-2.56h.51v-1h.51v-.51l-.51-1v-.51l.51-.51-.51-.51c-.51-.51-.51-.51,0-.51l-.51-1-1-1v-.51c-.52,0-.52,0-.52-.51l-.51-1-.51-1-.51-1-.51-.51-.51-.51v-.51c-.52,0-.52,0-.52-.52h-.51v-1l-.51-1c-.51,0-.51,0-.51-.51v-.52c-.51,0-.51,0-.51-.51v-.51l-.51-.51c-.51,0-.51,0-.51-.51v-.51l-.52-.51-.51-1c0-.51,0-.51-.51-.51a1.1,1.1,0,0,1-1-1H426l-.51-.51c0-.51,0-1-.52-1v.52h-.51l-.51-.52v-.51c-.51,0-.51,0-.51-.51h-1l-.52-.51c0,.51,0,.51-.51,0,0,.51,0,.51-.51.51h-.51c0,.51,0,.51-.51.51h-.51l-.51.51h-1.54c-.51,0-.51,0-.51.52H415.3c-.52.51-.52.51-.52,0h-1v.51h-.51c0,.51,0,.51.51.51-.51,0-.51,0-.51-.51h-.51v1c0,.51-.51.51-1,.51l-1,.51h-.51v.51c-.51-.51-.51-.51-1,0h-.51c-.52,0-.52,0-.52.52h-2.55c-.52.51-1,.51-1,1H403l-1.54.51h-1v.51h-1c-.51-.51-.51-.51-.51,0h-.51l-.52.51h-1.53v.51l-.51-.51c-.51,0-.51,0,0,.51h-1l-.51.52h-.51c0,.51,0,.51-.51,0v.51h-.51c-.51,0-.51,0-.51.51-.51-.51-.51-.51-.51,0h-1v.51h-.51c-.51,0-.51,0-.51.51h-.51l-.51.51h-2.05c-.51,0-.51,0-.51.52h-.51c0,.51,0,.51-.51,0v.51l-.52-.51h-.51v.51c0,.51,0,.51-.51.51h-.51c0,.51,0,.51-.51.51,0,.51,0,.51-.51,0v.51l-.51-.51-.52.51h-1a1.1,1.1,0,0,1-1,1v-.51c-.51,0-.51,0-.51.51V208c-.52,0-.52,0-.52-.52-.51,0-.51,0-.51.52l-.51.51c-.51-.51-.51-.51-.51,0h-.51V209c-.51,0-.51,0-.51.51v0c0-.51-.51-.51-1.54,0h-.51l-.51.51-.51.51h-1.54v1h-.51V212l-.51.51c0-.51,0-.51.51-.51V210.5h-.51V212c0,.51,0,.51-.51.51l-.51.51v.51h-.51v.51c-.52,0-.52,0-.52.52v0h-.51c.51.51.51.51,0,.51s-.51,0-.51.51h-.51l-.51.51h-.51v.51c0,.51,0,.51-.51,0,0,.51-.52,1-1.54,1h0c.51.52.51.52,0,1h-.51l-2.05.51v0H359l-1-.51c-.52,0-.52,0,0,.51h-.52l.52.51h1l1,.51h.51c0,.51.52.51,1.54.51h.51v.52l1-.52h1l-.52.52v.51h-1.53l-1.53-.51h-1.54v.51H359v.51l.51.51v.51c0-.51,0-.51.51-.51.51.51.51.51.51,1h.52l.51,1v.51l.51.51v.51h.51l.51.51.51,1v.52c.51,0,.51,0,.51.51v.51l.52.51v.51h.51l.51,1V232c.51,0,.51,0,.51.51l.51.51.51,1h.51v.51l.52.52.51.51v0l.51.51,2.05,1,.51.51h-1l-.51-.51v.51c0-.51,0-.51-.51-.51v.51ZM358,139.4v0Zm.51-55.75h0Zm1,134.53h0Zm1-1h-.51v-.51Zm0,1h0Zm.52-1.54v.51h0Zm0,.51v0Zm.51,0v0Zm.51.51h0Zm0,2.05v-.51c.51,0,.51,0,.51.51Zm1-1.53h0Zm1-2.56v0Zm.52-10.74h0Zm.51,9.72v1l.51-.51v-.51c-.51,0-.51,0,0-.52v-.51c-.51-.51-.51-.51-.51,0s0,.51-.51.51Zm-.51,0v0Zm.51,6.13h.51l-.51.52h-.51Zm.51-6.65h.51c0,.52,0,.52-.51.52Zm1,0h-.51l1-.51h-.51Zm.51,4.61h0Zm.51,26.08v1c-.51,0-.51,0-.51-.51Zm-.51,14.84v0Zm1-55.76v1.54l-.52-.51Zm0,7.68v0c-.52,0-.52,0-.52-.51v-.52l.52-.51.51-.51v1h0V211h-.51Zm-.52,2.55v.52h.52a1.88,1.88,0,0,1-.52-1.54l.52-.51v4.09l-.52-1Zm.52,3.07v.51a1.86,1.86,0,0,1-.52,1.54v-.51l.52-1c0-.51,0-.51-.52-.51Zm-.52,1v0Zm.52,4.09v0h0Zm1-44v2.56q-.76,4.6,0,6.13c.51,0,.51,0,.51.52v1l-.51,1.53v-1.53l-.51.51a1.87,1.87,0,0,0-.51-1.53,1.88,1.88,0,0,1,.51-1.54,1.87,1.87,0,0,0-.51-1.53c.51-.51.51-1,.51-2.56v-4.09Zm-1,10.23v0Zm.51,6.65h0Zm0,1c-.51.51-.51.51-.51,0Zm0,1a1.9,1.9,0,0,0-.51,1.54v-2.05C368.24,197.2,368.24,197.2,368.75,197.2Zm-.51,16.37v0Zm0,7.16v0Zm0,13.3v0Zm0,26.09v0Zm.51-66.5c-.51-.51-.51-.51,0-.51Zm3.58,92.08v-1l.51-6.65v-6.14c0-3.58,0-5.62-.51-6.13v-4.61l.51.51V251.42a1.88,1.88,0,0,1-.51,1.54v1.53c-.51,0-.51,0-.51-.51,0-1.53,0-2-.51-2.56v-3.58c0,.52,0,.52-.52,0v-1l-.51-.51.51-1v-.52c0-.51,0-.51.52-.51v.51a2.23,2.23,0,0,0-.52-2.55v-2.05l.52-.51h.51l-.51-1.53-.52-.52v-4.09l.52-2,.51,1.53v-3.07l-.51-1c0-.51,0-1,.51-1v-.51a1.87,1.87,0,0,1,.51-1.53v-1c-.51,0-.51-.52-.51-1v-1c-.51,0-.51-.51-.51-1.53v-2.56c0-4.09,0-6.14.51-6.65v-44l.51-.51c-.51,0-.51-.51,0-1l-.51-1v-4.6c.51,0,.51,0,.51-.51v-.52c-.51,0-.51,0-.51.52v-2l-.51-1v1c0,1.53,0,3.07-.52,3.58l-.51-.51v-.51l-.51.51c.51.51.51.51,0,1v1l.51.52c-.51,0-.51,0-.51.51V167l-.51,4.09v2c0,1.54,0,2.56-.51,3.07v-5.11c0-.51,0-.51.51-.51v-2.05c-.51,0-.51,0-.51-.51a1.88,1.88,0,0,0,.51-1.54V161.4c0-1.54,0-2.05-.51-2.56v-3.07c0-.51,0-.51.51-.51l.51-1V152.7c-.51-.51-.51-1,0-1v-4.6l.51-.52v-.51c-.51,0-.51,0-.51-.51.51-.51.51-1,.51-2v6.65h1v1.53h1l.51-.51a1.88,1.88,0,0,0,.51-1.54q-.77-.76,0-4.6V139.4c.51-.51.51-1.53.51-3.07v-4.6c.51-.51.51-1.53.51-3.07v-3.07l.52-4.09V120c.51,0,.51-.52.51-1.54v-5.11l.51-1v-.51c-.51-1-1-1.53-.51-2s.51-1,.51-2v-1.53c.51-.52.51-1,.51-2v-1c.51,0,.51-.51.51-1l.51-.51V101c.51,0,.51,0,.51-.51s.52-.51,1-.51l.51-.51H380l2.05-.52h.51l2-1-.51.51-.51.51a1.1,1.1,0,0,1-1,1c-.51,0-1,0-1,.51H381c0,.51,0,.51-.51.51H380l-1,.51c0,.51,0,.51-.51.51H378v1c-.51.51-.51.51,0,1v.51l.52-1v-1.54H379v-.51c.51,0,1,0,1-.51l2.05-.51-.51,1,2-1h.51l2.05-1h.51l-1.53,1a1.1,1.1,0,0,0-1,1h.51v.51c-.51,0-1,.52-1.53,1a1.87,1.87,0,0,1-1.53.51v.51H381v5.63l-.51.51v3.07a1.87,1.87,0,0,1-.51,1.53v1.54l-.51,4.09v4.6l-.51,4.61v1l-.51,2-.52,3.58v7.17l-.51,1v14.83c0,1.54,0,2.56-.51,3.07v7.67l-.51.52v.51c.51,0,.51,0,.51.51v2l-.51,2.05v9.72l-.51,3.07v16.88a1.87,1.87,0,0,1-.51,1.53v8.19l.51-.51v.51c-.51,0-.51,0-.51.51v13.81l-.51,11.25v6.65c-.52.51-.52,1-.52,2.56v16.37l-.51,4.6c0,.51,0,.51-.51.51V278c-.51,2.05-.51,5.63-.51,11.26v1a1.9,1.9,0,0,0-.51-1.54Zm-3.58-109v0Zm.51,35.3v.51l-.51-.51Zm-.51,12.79v0Zm.51,11.76v0Zm.51.51h0Zm0-27.11c.51-.51.51-.51.51,0S370.28,210.5,369.77,210Zm0,26.6v0ZM384.6,94.39h-.51v.51a4.63,4.63,0,0,0-2.55,1.54l-2.56,1L378,98l-1,1h-.51l-.51.52h-.51v2c-.51.51-.51,1-.51,2l-.52,4.09-.51,1.53v1.54l-.51,1c.51,0,.51.51,0,1v.51c-.51,0-.51,0-.51.51l-.51,3.07c-.51,1.53-.51,2.55,0,3.07,0,1,0,1.53-.51,2v6.14c-.51.51-.51,2-.51,4.09v2l-.52,2.56v-.52c0-1,0-1.53-.51-2l.51-1V130.2a1.87,1.87,0,0,0,.52-1.54v-.51a1.54,1.54,0,0,1,0-2.05V121a1.9,1.9,0,0,1,.51-1.54V116.9c0-1.54,0-2.56.51-3.07v-2.56l-1-1v-4.09a1.88,1.88,0,0,1,.51-1.54v3.07c.51,0,1-1.53,1.53-4.09v-1a1.88,1.88,0,0,1,.51-1.54V99h.51v-.51h1.54c0-.51.51-.51,1.53-1l2.05-1H380c0-.51,0-.51.51-.51H381l1.54-1,1-.51h1Zm-14.32,45.53c0-1.54,0-2,.51-2v.51c0,1.54,0,2.56-.51,2.05Zm0,2.55V142c.51.51.51.51,0,1Zm0,9.72.51.51-.51,1Zm0,78.77v0Zm0,6.65h.51v.52Zm0,1c0-.51,0-.51.51,0C370.28,238.13,370.28,238.13,370.28,238.64Zm.51,12.78v-1l-.51-.51c.51-.51.51-.51,1,0v.51Zm.52-12.78h-.52v-.51Zm0,32.73c.51,0,.51,0,.51-.51v1a1,1,0,0,1,0,1.54V275l-.51-1c0,.51,0,.51-.52,0l.52-2.05Zm-.52,16.88v0Zm.52-1c-.52-.51-.52-.51,0-1Zm0-131v-.51l.51,1Zm0,69.57v0Zm.51,1h-.51l.51-.51Zm0,.51h0Zm-.51,8.7.51,1c-.51.51-.51.51-.51,0Zm0,4.6v-.51c.51.51.51.51,0,1Zm0,5.12.51.51-.51.51Zm.51-141.69v0Zm0,6.65v0Zm.51,110v1.54l-.51-.51Zm-.51,17.91.51.51Zm.51-30.18V210a1.55,1.55,0,0,1,0-2Zm0,8.18c-.51-.51-.51-.51,0-1Zm0,2.05v1a1,1,0,0,1,0-1.53Zm0-22.51.51-2v2.55Zm0,1.54c.51.51.51.51,0,1Zm0,2v-.51l.51.51c0,.51,0,.51-.51.51Zm0,1c.51.52.51.52,0,1Zm0,2.56.51-.51a1.9,1.9,0,0,1-.51,1.54Zm0,7.16v0Zm0,1.54v0Zm0,1v0Zm0,24.55h0Zm1.53,2-1.53-.51h.51Zm-1.53,20,.51.51c-.51,0-.51,0-.51.51Zm.51-161.13v0Zm.51,78.26h0Zm-.51,5.12v-1h.51c0,1,0,1.53-.51,2Zm0,3.07v-.51c0-.51,0-.51.51-.51Zm0,1v-.51l.51.51c-.51,0-.51,0-.51.51Zm0,3.58v0Zm0,2.05v0Zm0,35.29h.51v1Zm0,3.58h.51v2.05Zm0,3.07v0Zm.51,2.56h-.51l.51-.51Zm-.51,12.79v0Zm0-11.26v0Zm.51-61.38c-.51-.51-.51-.51,0-1Zm0,3.58c-.51-.51-.51-.51,0-.51Zm0,54.73c-.51-.51-.51-.51,0-1Zm.51-71.1V165l-.51-.51v-1c.51,0,.51,0,.51-.51Zm0,3.59h-.51v-1l.51-.51Zm0,1.53-.51.51v-1Zm-.51,1.53v0Zm0,2v0Zm0,2.05v0Zm0,43h0Zm0,1.54h0Zm0,3.07.51-.51a1.87,1.87,0,0,1-.51,1.53Zm0,2.55v0Zm0,4.61v0Zm0,6.14v0Zm0,2.55h.51v.52Zm.51-23.53v.52c-.51-.52-.51-1,0-1Zm0,2c-.51-.51-.51-.51,0-.51Zm0,3.07c-.51-.51-.51-.51,0-.51Zm0-143.73.51-.52Zm0,75.19v-2c0-.51,0-.51.51-.51v2.56Zm0,4.09v0Zm0,5.63v0Zm.51,41.43-.51-.51h.51Zm-.51.51.51.51-.51,1v-1.53Zm0,7.67h0Zm0,2.56v0Zm0,8.18v0Zm.51-76.21v0Zm0,1V145c.52.51.52.51,0,1Zm0,2.05v0Zm0,47.06v0Zm0,1v0Zm0,0v0Zm0,1v0Zm0,3.58v0Zm32.23,5.12v.51h-.51l-1,.51h-1l-1,.51v.51h-1.54l-1,.52H401l.51.51V208l.52.51c-.52,0-.52,0-.52.51v.51h0V210l-.51.51-.51-.51v-.51c-.51,0-.51,0,0,.51,0,.51,0,.51-.51.51v0l-1,.52-.51-.52V210l-.52.51c.52,0,.52,0,0,.52v-.52h-.51l-.51.52v.51a1,1,0,0,1-1.53,0l-.52.51c0,.51,0,.51-.51.51h-1v.51c0-.51-.51,0-1,.51h-.51c-.52,0-.52,0-.52.51h-.51v.52h-1c-.51,0-.51,0-.51.51h-.51v.51c0,.51,0,.51-.51.51h-.52v0h.52c-.52,0-.52,0-.52.51v.51l1-.51v1h2v-.51h.51v.51h-1v.52h-1v1h-1v-.51l-.52.51v0h-1v.51l-.51-1h1l-.51-1v-1c-.51,0-.51,0-.51-.51s0-.51-.51,0l-.51.51h-1l-.51.51h-1v.51c0,.52,0,.52-.51,0l-.51.52-.52-.52-.51.52c0,.51,0,.51-.51.51h-.51c.51.51.51.51,0,.51-.51-.51-.51,0-.51.51-.51-.51-.51-.51-.51,0H378c0-.51,0-.51-.51-.51v.51h-.51v.51c-.51-.51-.51-.51-1,0h-.51c0-.51,0-.51.51-.51v-1l.51.51v-.51h.51l.51-.51c0-.52-.51,0-1,.51h-.51v-.51h-.51c0,.51,0,.51-.51.51l-.52-.51.52-.52v-.51l-.52-.51h.52v-.51l.51-.51,1-1h1c.51,0,.51,0,.51-.52h.52l.51-.51h1.53v-.51l.51.51.52-.51h.51v-.51h1c.51,0,1-.51,1.53-1h.52l.51-.51h1.53c0-.52,0-.52.51-.52h1c0-.51,0-.51.51-.51h1l.51-.51h.51c.52,0,.52,0,.52-.51h1v-.51h1.53V208h1l.51-.52c.51.52.51.52.51,0l2.05-.51.51-.51.51.51H400c0-.51,0-.51.51-.51l1-.51H402c0-.51,0-.51.51,0,0-.51.51-.51,1,0H404c-.51,0-.51,0-.51.51l.51-.51h.51l.51-.51c1-.51,1.54-.51,2.05,0ZM374.37,210v0Zm.52-135.55h1c0-.51,0-.51.51-.51l-.51.51Zm0,44v0Zm0,13.3c0-.51,0-.51.51-.51-.51-.51-.51-.51,0-1v2Zm0,4.6v-2h.51v1.53Zm0,.52v0Zm0,1v0Zm0,1v-.51l.51.51c-.51,0-.51,0-.51.51Zm0,1v0Zm0,1v0Zm0,.51v0Zm.51,30.69-.51.51v-.51Zm-.51,3.58v0Zm0,3.07v0Zm0,7.16v0Zm0,34.78v-.51c0,.51,0,.51.51.51Zm1-124.29h0Zm0,29.15v.51a1.56,1.56,0,0,0,0,2.05v.51a18,18,0,0,1-.51-3.07Zm-.51,3.58v0Zm.51,87h0Zm-.51,1.53v0Zm0,3.07v0Zm1-101.79v-2.55l-.51,5.11V122Zm-.51,32.23v0Zm0,65.47v0Zm0,1.54v0Zm.51-71.62c-.51-.51-.51-.51,0-.51Zm0-72.12h0Zm0,40.92v-.51l.51-1v1.53Zm0,1v0Zm0,22c.51,0,.51,0,0,.51Zm0,4.09v0Zm0,40.92v0Zm0,25.58v0ZM378,106.16l-.51,1c.51,0,.51,0,0,.51v.51c0,.51,0,.51-.51.51v-1.53a1.9,1.9,0,0,1,.51-1.54c0-.51,0-.51.51-.51Zm-1,3.58h.51l-.51.51Zm0,1c.51.51.51.51,0,.51Zm0,1.53v0Zm0,21.49v0Zm0,.51v0Zm.51,88.49v.51h-.51c0-.51,0-1,.51-1v-.51c.51,0,1-.51,1.54-1h1c.51,0,.51,0,.51-.51l.51.51c.52,0,1,0,1-.51h.51c.51.51.51.51.51,0l1-.51h.51c0-.51,0-.51.52,0v.51h-1.54l.51.51c-.51.52-.51.52-1,0h-1l-.51.52-.52.51.52,1-.52.51v-1h-1.53c0,.51,0,.51-.51.51l-.51-.51v.51H378v.51h-.51Zm-.51,17.9v0Zm.51-117.13V122c.51.51.51,1,0,2Zm0,2v0Zm0,2v0Zm.51,90h.52v.52h-1Zm.52-101.27H378c.52,0,.52,0,.52-.52ZM378,224.83v0Zm1-7.17h0Zm-.51,167.27h0ZM379,217.15h.51v.51H379Zm.51,25.07c0,.51,0,.51-.51,0ZM379,282.11v0Zm0,87h0Zm1-151.92c-.51.51-.51.51-.51,0Zm-.51,7.16v0Zm0,18.42v0Zm.51,20.46h0Zm-.51,25.57c.51,0,.51,0,.51.52Zm0,25.07v0Zm0,44.5v0Zm0,2.05v0Zm1-257.8c0,.51,0,.51-.51.51ZM380,215.11h0Zm.51,1.53H381c0,.51-.51.51-1,.51ZM380,353.73v0Zm.51,2h0ZM381,102.06h0Zm-.51,1.54h0ZM381,223.29h0Zm-.51,1c.51.52.51.52,0,.52Zm0,23h0Zm1.54-153.45-1,.51v-.51a1.9,1.9,0,0,1,1.54-.51ZM381,101h0Zm.52,56.78v.51l-.52-2.05.52.52v.51h1c0,.51,0,.51-.51.51,0,1,0,1.53-.51,2ZM381,206.41v0Zm0,8.19v0Zm0,6.13v0Zm11.77,9.21h1l.51-1c0,.51,0,.51.51.51v-.51h.52c.51-.51,1-.51,1,0l.51-.51h1c0-.52,0-.52.52-.52s.51,0,.51-.51l1-.51H402v1.54h-1c0,.51,0,.51.51.51v.51c.52,0,.52,0,.52-.51h1v-.51c0-1-.51-1.54-1-1.54,0-.51,0-.51.51-.51v.51c.51.51.51.51.51,0h.51c0,.51,0,.51.51.51v.51h.51a1.89,1.89,0,0,1,1.54-.51h1c0-.51,0-.51.51-.51,0-.51,0-.51.51,0h1v.51c.51.51.51.51,0,.51l-1,.52h-1v.51h-.51l-.51.51h-1v.51h-1v.51h-1l-.51.51H402c-.52,0-.52,0-.52.52h-1c0,.51,0,.51-.51.51-.51.51-.51.51-.51,0v.51h-.51V233c-.51-.51-.51-.51-.51,0h-1c0,.51,0,.51-.51.51h-.51l-.51.51h-.51v.51h-1.54l-1,1-1,.51v-.51c0,.51,0,.51-.52.51h-.51l-1.53,1h-1l-.52.51h-.51c0,.52,0,.52-.51.52h-.51v.51h-1l-2.05-.51h-.51l.51-.52h.51l-.51-.51h-.51l.51-.51v-.51h-1c0-.51,0-.51-.51-.51H381v-.51h1.54l1-.52V234h1c0-.51,0-.51.52-.51l.51-.51h.51l.51-.51h.51c0-.51,0-.51.51,0,0-.51,0-.51.52,0V232h.51v-.51h1V231h1a1.89,1.89,0,0,0,1.54-.51v-.51ZM381,237.61v-.51h.52v.51Zm0,0v0Zm0,6.14h0Zm0,.51h.52v.51Zm0,15.35v0Zm0,3.58v0Zm1-160.61h-.51l.51-.52Zm-.51,79.79v0Zm0,6.14v0Zm0,28.13v-.51h.51Zm0,9.72v0Zm0,1.53v0Zm.51,9.72h-.51c0-.51,0-.51.51-.51Zm0,5.12h0Zm1-164.71-1,.51c-.51,0-.51,0,0-.51Zm-.51,23.53.51.51h-1Zm-.51,71.1h0Zm.51,10.23-.51-.51Zm0,24.55h0Zm-.51,7.17v0Zm.51,1.53c0,.51,0,.51-.51,0Zm-.51.51v0Zm0,20.46h0Zm.51-143.73v0Zm0,83.37h0Zm0,5.12v0Zm.51,25.57.51.52-.51.51v-1.54h0v.51c0-.51,0-.51.51,0Zm0,8.7c-.51,0-.51,0,0-.51Zm0-144.25c0-.51,0-.51.51-.51Zm0,84.92h0Zm0,11.76v0Zm.51,6.14-.51,1v-.51Zm0,62.91-.51-.51Zm-.51,4.61v0Zm.51-91.56v-1.54l.51,1.54Zm.51,1.53h0Zm0,13.3-.51-1c0-.51,0-.51.51-.51Zm-.51,48.59v0Zm0,1.54v0Zm0,0h0Zm.51-77.75v0Zm0,5.11v0Zm.51,52.69h0Zm-.51.51v0Zm0,6.14c0-.51,0-.51.51-.51Zm0,2.56v0Zm0,37.34v0Zm.51.51-.51-.51Zm0-27.11c-.51-.51-.51-.51,0-.51Zm.52-27.62h0Zm0,16.37c-.52,0-.52,0-.52-.52Zm-.52,11.25v0Zm.52,26.6c0,.51,0,.51-.52,0Zm-.52,0v0ZM387.16,97h-.51l-1.53,1q0-.77,1.53-1.53Zm-2,23.53h0Zm0,94.63h0Zm0,0v0Zm0,4.6.51-.51v.51Zm.51-44.5c-.51-.51-.51-.51,0-.51Zm1-104.86-1,.51v-.51Zm-.51,144.76h-.51c0-.51,0-.51.51-.51Zm.51-107.42h0Zm-.51,4.09v0Zm1,102.82h-.51l.51-.52Zm-.51-106.4h0Zm0,134.53h0Zm1-166.75h.52c0,.51-.52.51-1,.51Zm-.51,20.46h0Zm0,110v0Zm0,4.09h0Zm.51,2.05h-.51V212h.51Zm-.51,1.53h0Zm0,2.56c.51,0,.51,0,.51.51Zm0,1v0Zm1-3.58h0Zm0-12.78h0Zm0,12.27c.51.51.51.51,0,.51Zm0,27.62v0Zm1.53-165.72c0-.52.51-.52,1-.52l-1.53,1h-.51Zm-1,23c.51-.51.51-.51.51,0Zm.51,115.09h0Zm-.51.51v0Zm.51-144.75c.51,0,1,0,.51.51Zm0,142.71v0Zm0,1,.51.51h-.51Zm.51-143.22h0Zm0,171.35v0Zm0,1v0Zm1-147.32h0Zm0,118.16c-.51.51-.51.51-.51,0Zm.51-118.67h0Zm0,2.56v.51h-.51Zm-.51,115.6h.51v.51Zm.51-143.73,1-.52Zm3.07,4.6v.51l-2.55,1h-.52l.52-.51Zm-2.55,139.13-.52.51v-.51Zm-.52,4.6h0Zm.52,14.33h0Zm0-13.82c-.52-.51-.52-.51,0-.51Zm.51-149.87h0Zm-.51,142.71v0Zm0,6.14v0c.51,0,1,0,1-.51v-1l.51,1v.51c0,.51,0,.51-.51,0v.51c0-.51,0-.51-.51-.51v.51h-.51v-.51Zm0,14.84c0-.52,0-.52.51-.52Zm0,8.69v0ZM392.28,77v0Zm.51,133.5h0Zm0,2.05h-.51c0-.51,0-.51.51-.51ZM392.28,233v0Zm0,6.14v0Zm.51,1.53h0Zm.51-173.4h0Zm-.51.51h0Zm0,142.71V210l.51.51Zm.51,1.54c0,.51,0,.51-.51,0Zm-.51,18.41h.51V231h-.51Zm0,0v0Zm.51,2.56h0Zm.51-31.2h0Zm0,10.23h0Zm-.51,4.6v0Zm0,22v0Zm.51-26.6v-.51c.51,0,.51,0,.51.51Zm0,4.09h0Zm0,13.81v0Zm1-13.81c-.51,0-.51,0-.51-.51Zm-.51,0v0Zm0,23c0-.51,0-.51.51,0Zm1-161.64h0ZM401,103.09l1-1v.52c.51,0,.51,0,.51.51H402l-2.56,1.53a1.88,1.88,0,0,1-1.54.51c0,1-1,1.54-2.55,1.54v.51l-.52-.51c.52,0,.52,0,.52-.51h.51v-.52l1-.51h1l.52-.51h0l.51-1,1-.51h.51v-.51H401Zm-6.14,106.39v0Zm0,6.14v0Zm0,23v0Zm.52-165.22c-.52,0-.52,0,0-.51Zm0,127.88v0Zm0,8.18v0Zm0,.51v0Zm.51,1c-.51.51-.51.51-.51,0Zm.51-144.25h0Zm0,5.63c0,.51,0,.51-.51.51ZM395.86,209c.51.51.51.51,0,.51Zm.51.51h0Zm0,0h0Zm0,1c0,.52,0,.52.51,0Zm0,0v0Zm.51-9.2v0Zm1,13.81h-1l.51-.51Zm-.51-13.3v0Zm0,7.16h0Zm1-8.19h0Zm0,8.19h0Zm-.52,1.53v0Zm0,0v0Zm0,1v0Zm0,3.07h0Zm0,22.5v0Zm.52-171.87v0Zm0,143.74c0-.51.51-.51,2-1v.51a1.87,1.87,0,0,0-1.53.51Zm0-.51v0Zm0,.51v0Zm0,5.63v0Zm0,16.36v0Zm0-.51v0Zm.51-30.18v0Zm0,9.72h0Zm0,28.14v0Zm2-28.65V210c0-.51,0-.51-.51-.51Zm.51,20c0,.51,0,.51-.51.51Zm.52-3.07c0,.51,0,.51-.52.51Zm.51-13.3v.51c0-.51,0-.51-.51-.51Zm-.51,13.3c.51.51.51.51,0,.51Zm0,2.56v0Zm.51-28.65v0Zm0,26.09h0Zm0,0v0ZM403,234l-.51-.51Zm0,.51h0Zm1,1h0Zm.51-27.62v-1h.51v1Zm1,1h0Zm-.52,18.41v0Zm1-129.41h0Zm7.16-3.07h.51l2.56-1L410.69,97c-1.53.51-2,0-1.53-.51s1-.51,2-.51l1-.52a.5.5,0,0,0,.51-.51Zm-3.58,131.46h.51c0,.51,0,.51-.51,0v0Zm0,6.14v0Zm1.53-.51h0Zm.51-135h0Zm2.05-.51h-.51l.51-.51Zm-.51,97.7v0Zm0,.51v0Zm1,0h0Zm1.54-99.75h0Zm.51-35.8v.51c0-.51,0-.51.51-.51Zm1,34.27h-.51a3.91,3.91,0,0,1,2.56-1Zm3.07-.51,2-1.54,1-.51a1,1,0,0,0-1.54,0l-.51.51c0-.51.51-1,2.05-1.53h-1l-1.54,1-.51.51v.51l-2.56,1.54c-.51,0-.51,0-.51.51h.51l1-.51Zm-2.56,136.57h0Zm.51-35.29v0Zm.52,0v0Zm1-101.28h0Zm.51-2h0Zm.51,1h0Zm.51-4.6h0ZM424,58.59l-.51.51ZM424.5,56h0ZM424,90.3l.51-.51H425ZM424.5,56l.51-.51V56Zm2.05,32.73h.51l-1,.52Zm.51,0h-.51l1-.51Zm-.51-.51v0Zm2,132.48h0Zm3.58-141.17h.52l-2.05,1h.51Zm1.54-21h0c0-.52,0-.52.51-.52Zm1.53,20.46-2,.51,1-1c.51,0,1,0,1-.51h.52l3.06-1h-.51c0,.51,0,.51-.51.51Zm1,146.8v0ZM437.8,57.56h0Zm0-2.56c.51-.51,2.56-1,6.65-2-1,0-1.53,0-2,.51a1.9,1.9,0,0,1-1.54.51,1.87,1.87,0,0,0-1.53.51A1.9,1.9,0,0,1,437.8,55Zm0,27.11h0Zm4.61-2-2.05,1a1.87,1.87,0,0,1,1.53-.51Zm0,1-.52.51v-.51Zm1-3.58c0,.51,0,.51-.51.51,0-.51.51-.51,1-.51Zm-.51,3.07c.51,0,.51,0,0,.51l1-.51c.51,0,.51,0,.51-.51,0,.51,0,.51-.51.51Zm3.58-28.13V53H445l.51-.51Zm-1,27.62c.52,0,.52,0,.52-.51Zm1-.51h0ZM447,52.45l1-.51,1-.52.52.52h-.52ZM447,78h0Zm2.56-26.6c0-.51,0-.51.51-.51Zm.51,1h0Zm.51,2.55c0,.52,0,.52-.51.52Zm-.51,18.93h0Zm2.56-23.53c0,1-.52,1-1,.51l-1,.51h.51l-.51-.51h1.53l.52-.51v0Zm-2.05,3.07h0Zm1-3.07h0Zm1,2.05h0Zm1,23h0Zm.51-23.53c.51,0,.51,0,0,.51Zm4.6,4.6h0Zm.51,0h0Zm.52,15.34h0Z" style="fill:#ffec00"/></svg>