<svg xmlns="http://www.w3.org/2000/svg" viewBox="0 0 476.12 479.32"><title>Artboard 14</title><circle cx="238.06" cy="239.66" r="238.45" style="fill:#2b2b2b"/><path d="M11.7,387.66v0Zm2.57.51v0ZM121.16,51.57h-.52l.52-.51h1l-.51-.51c1.54,0,2.57,0,3.08-.52l-.51-.51H122.7c-3.09,0-5.14,0-6.68.51H114l-.51.52-1.54.51h-1.55l-2,.51-2.57.52-1,.51-.51.52h-1.55a1.9,1.9,0,0,0-1.54.51,1.88,1.88,0,0,1-1.54.51H98l-1,.52a1.89,1.89,0,0,1-1.54.51l-1,.52c0-.52-.51-.52-1,0l-3.08,1a1.87,1.87,0,0,1-1.54.52c-2.06,0-3.08.51-3.08,1.54h-.52l-1,.51-3.59,1.54-4.63,1.55-1.54.51-2.57,1h-.51c0,.51,0,.51-.52.51h-1l-.52.52a4.69,4.69,0,0,1-3.6,1.54l-2.05,1L62.06,68a4,4,0,0,1-2.57,1H60c-1.54,0-2,.51-2,1h-.52c-.51-.51-.51-.51-1,0a1.86,1.86,0,0,1-1.54.52c-.51,0-1,0-1,.51l-1,.52-2.57,1,1-1V71.1l-1,.52c-.52,0-.52,0-.52.51v.51l-1,.52-1,.51c-.52-.51-.52-.51-.52,0l-.51.52h-.51l-2.06,1-1,.52c-.51,0-.51,0-.51.51H42l-.52.52-2,1-2.06,1c-1,0-2.06.51-3.6,1.54h.52a1.86,1.86,0,0,0-1.54.52l-.52.51c-1,0-1.54.51-1.54,1-.51-.52-1,0-2.06.51h.52l-.52.52c-1,0-1.54,0-2,.51l-.52.51-1,.52v1a1.88,1.88,0,0,1-.52,1.54A1.88,1.88,0,0,0,24,89.09v3.08a1.9,1.9,0,0,0-.51,1.54v2.06l-.52,2c-.51.52-.51,1.55-.51,3.09v1L22,104v4.11l-.51.52v4.11L21,114.27v5.65c-.52.52-.52,1-.52,2.57v5.65c-.51.52-.51,1.55-.51,3.6V141a1.88,1.88,0,0,0-.52,1.54v.52h-.51l.51.51v13.36a1.9,1.9,0,0,0-.51,1.54c0,3.6,0,5.14-.51,5.66v5.65c0,1.54,0,2.57-.52,3.08v7.2h-.51v.51c.51,0,.51,0,.51.52v5.65c0,.51,0,.51-.51.51v.52l.51.51v2.06l-.51.51v1c0,.51,0,.51-.52,0V234c-.51,0-.51,0-.51.51v1h-.51c0,.51,0,.51.51.51v4.63c0,.51,0,1-.51,1v-.52l-.52-1v7.71h0v21.59l.52.51-.52.51.52,2.57v6.68l-.52,7.71v17c.52.51.52,2.06.52,5.14l-.52,4.11,1,21.07v15.93h.51a1.89,1.89,0,0,0-.51,1.54l.51,2.57v18l.52,5.14V382c0,18,1,28.26,2.57,30.83v3.09l.51,2.05L21,420l1,2v2.06l.52,1H23l.52.51,1,.51,1-1h1.54v.51h1l1.54,1c.52.51,1,.51,1.54-.52h.52l.51.52,1-1h.51c0,.51.52,1,1.54,1l1,.51.52.51h1.54l.51.52h.52v1c.51,0,.51,0,.51-.52,0-1,.51-1.54,1.54-1,0,.52,0,.52.52,0V426.2l1,.52a1.86,1.86,0,0,1,.52-1.54l.51-1v-1h.51v1a1.11,1.11,0,0,0,1-1v-3.6H45.1v-1l.51-.51v-1h.52l1,2.06c.52-.52.52-1,.52-2.57l-.52-1,.52-.51c0-1,0-1.54.51-2.06v-1c.52,0,.52-.51.52-1-.52-1-.52-1.55,0-2.06v-4.62a1,1,0,0,1,0-1.55V389.2c-.52-.51-.52-.51,0-1V381a1.89,1.89,0,0,1,.51-1.54v-7.2l.51-4.11c0-1.54,0-2.05-.51-2.57l.51-1V359.4h.52a1.88,1.88,0,0,1-.52-1.54v-2.57l-.51-.52v-1l.51-.51h.52l-.52-.51c.52-.52.52-.52,0-1-.51,0-.51,0-.51-.52V335.76c-.51-.52-.51-1-.51-2.57v-2.06l.51-.51-.51-1v-.51c.51-.52.51-1.54.51-4.11V303.38c.51-1,.51-3.08.51-6.68v-6.16a1.89,1.89,0,0,1,.52-1.55v-3.08l.51-9.76V263.81c.52-.51.52-.51,0-1v-2.56c.52-.52.52-1,.52-2.06s0-1.54-.52-2.06v-1.54a1.87,1.87,0,0,1,.52-1.54v-1c-.52,0-.52-.51-.52-1,.52-.52.52-1,.52-2.57v-3.6l.51-1.54c0-.52,0-1-.51-1v-3.6c.51-.51.51-1,.51-2.57l-.51-3.59a2.6,2.6,0,0,0,0-3.09v-1.54c.51-.51.51-.51,0-1v-.51c.51-.52.51-1,.51-2.06v-2.05c-.51,0-.51-.52-.51-1a1,1,0,0,0,0-1.54l.51-1V216l-.51-1a1.89,1.89,0,0,0,.51-1.54V189.81l.51-.51c0-1.54,0-2.06.52-2.06v-3.59c-.52-.52-.52-.52,0-1v-8.74c0-1,0-1.54.51-1.54l.51-1v-.51c-.51,0-.51,0-.51-.52l-.51-1v-3.09c-.52,0-.52,0,0-.51l.51-1v-2a3.31,3.31,0,0,1,0-3.09l-.51-.51v-2.06h.51v-2.57l.51-1v-1l-.51-3.6.51-1V145.1c.52,0,.52,0,.52-.51v-1.54c0-1.54,0-2.06-.52-2.57,0-1.54,0-2.06.52-2.57v-.52l.51-1.54a1.88,1.88,0,0,1-.51-1.54v-2.57a1.89,1.89,0,0,1,.51-1.54V123c.52-.52.52-1,.52-2.06v-4.62a1.91,1.91,0,0,0,.51-1.55c0-.51,0-.51-.51-.51a1.89,1.89,0,0,0,.51-1.54l.51-.52V108.1h.52v-.51l.51-.52H58c.51,0,.51,0,.51-.51H59c.52.51.52.51,1,0v-1l.52-.51h1a1.12,1.12,0,0,1,1-1l2.57-1.54h.51L63.6,104l-1,1-1,.51H61v1c.51,0,.51,0,.51-.51L64.63,104l1-.51V103l.52-.51c.51-.51,1-1,1.54-1v.52l.51-.52h.52l2.05-1.54h.52l1-.51,1.54-1c0-.52,0-.52.51-.52s.51,0,.51.52v-.52l1-1a1.86,1.86,0,0,0,1.54-.52l.52-.51h.51c0-1,1-1.54,2.57-1.54l1.54-1,.52-.51.51-.52a6.3,6.3,0,0,0,4.63-2,4,4,0,0,0,2.57-1h.51l.51-.52c0-.51.52-.51,1-.51s1,0,1-.51.51-.52,1-.52l.51-.51H96c0-.51.52-.51,1-.51a1.86,1.86,0,0,0,1.54-.52l2.06-1,1-.51c.51,0,.51,0,.51-.51a7.87,7.87,0,0,1,3.6-1.55h-.52c.52-.51,1-.51,2.06-.51-.51-.51,0-1,1-1.54a1.87,1.87,0,0,1,1.54-.52c.51,0,.51,0,1-.51L115,77.27l3.08-1.54a1.88,1.88,0,0,1,1.54-.52c.52,0,.52,0,.52-.51h1l.51-.51,4.62-1,4.12-1,.51-.51V71.1a1.89,1.89,0,0,0,1.54-.51c-1,0-1.54,0-2.05.51s-1,.52-2.57.52h-2.06l-2.06,1v-.51l-5.65,1.54h-1l-1,.52-5.14,2-1,.52a1.89,1.89,0,0,0-1.54.51l-1.54.51-1,.52c.51,0,.51,0,.51-.52l2.57-1.54a4,4,0,0,1,2.57-1L114,73.67l2.06-.51h.51l12.85-3.6L132.46,68l1-.51V67H132l.51-1,1-.51H133a1.88,1.88,0,0,1-1.54.51h-1.54c0-.51,0-.51-.51-.51l-.52-.51-.51-.52c-.51,0-.51,0,0-.51.51,0,.51,0,.51-.52v-.51l-1-.51h-.52v-1h.52c.51-.52,0-.52-.52-.52s-.51,0-.51-.51l.51-.51c.52-.52.52-.52,1,0,.51,0,0-.52-.51-1-.52.51-.52.51-.52,0-.51,0-.51,0-.51-.52v-1l1-1h-2.06v-.51l-.51-1v-.52h-6.68l-1,.52H116l-2.06.51h-1.54c-.51.52-.51.52-.51,0-.52,0-.52,0-.52-.51H114l-.51-.52,3.59-1h1.55l1-.52,1-.51.52-.52c-.52.52,0,.52.51.52l.51-.52h-1ZM15.81,269h-.52l.52-.51Zm0-8.22c-.52-.51-.52-.51,0-.51Zm0-14.9v-2.06c.51,1,.51,1.54,0,1.54Zm0,.51v0ZM16.32,195v0Zm0,39.57v0Zm0,9.25c.51.51.51.51,0,.51Zm.51-81.19v0Zm0,3.08v0Zm0,27.24h0Zm1-44.71h0Zm-.51,53.44v0Zm0,89.93v0ZM17.86,142v0Zm0,15.42c.52.51.52.51,0,1Zm.52,42.14c-.52.51-.52.51-.52,0Zm-.52,168.55v0Zm0,31.86v0Zm.52-264.65v0Zm0,27.24v0Zm0,225.59h0Zm1-269.28v0Zm0,7.71v0Zm0,10.79v0Zm0,76.57v0Zm.52,148c-.52-.52-.52-.52,0-.52Zm0-253.87v-.51c.51.51.51.51,0,1Zm.51,4.11v-.51l.52.51Zm0,8.23v0Zm6.68,34.43c-.51.51-.51,2.57,0,5.65-.51,0-.51.51-.51,1v5.14l-.52,6.16v10.28a1.9,1.9,0,0,0-.51,1.54l.51,1.54c-.51.52-.51.52,0,.52v3.08L25.57,196v9.76c0,.52,0,1-.51.52v.51c-.52,0-.52,0-.52.51a1.9,1.9,0,0,0-.51-1.54v-6.68H23v9.77h.52c0,.51,0,.51.51.51,0,.51,0,.51.51,0-.51,0-.51.51,0,1v-1.54h.52v3.08l-1,1.54v0a1.89,1.89,0,0,1,.51-1.54v3.6L24,216c-.51.51-.51.51-.51,0v2.57a1.87,1.87,0,0,1-.52-1.54v6.16l-.51,5.14v13.37c0,2.56,0,4.11-.52,4.62v1a1.9,1.9,0,0,1-.51-1.54l-.51-.52V196c.51-.52.51-1.54.51-3.6v-18c-.51-.52-.51-.52,0-.52.51-.51.51-.51,0-1s-.51-.51,0-1v-4.12H22c-.51-.51-.51-1,0-1v-2.06c-.51-1.54-.51-2,0-2v-9.77a2.27,2.27,0,0,0,0-2.57c0-1.54,0-2.05.52-2.57V142c0-2.06,0-3.08.51-3.6v-2.57l-.51-.51c.51-.51.51-2.57.51-7.2l.52-.51v-3.08L24,124v-7.7c.51-.52.51-2.57.51-6.17v-.52l.52-1v-3.09A45.69,45.69,0,0,0,26.6,94.74c0-1,0-1.54.51-2l.52-2.57V87c.51,0,.51,0,.51-.51A1.89,1.89,0,0,0,29.68,86l3.09-1.55,2-1,2.57-1.55a3.93,3.93,0,0,0,2.06-.51c.51-.51,1-.51,1.54-1l1-.51,1-.52a1.9,1.9,0,0,1,1.54-.51h1l1-.51.51-.52h1a1.9,1.9,0,0,1,1.54-.51l5.66-2.06c.51-.51,1-.51,2-.51h-.51c0,.51-1,1-2.57,1.54h-.52l-.51.52h-.51c0,.51,0,.51.51.51a1.89,1.89,0,0,0,1.54-.51l1-.52-2.06,1.54-2.56,1.54.51-.51a1,1,0,0,1,1.54,0h1l.51-.51H56.4L59,76.76h1.55l.51-.52-2.57,1.54H58l-2.06,1h-.51c-.52,0-1,0-1,.51l-1,.52-3.08,1.54a1.9,1.9,0,0,1-1.54.51C47.15,83.44,46.13,84,44.58,84l-2,1-1,.51-5.65,2.57-2.06,1-1,1h-.52v2a1.9,1.9,0,0,0-.51,1.54c0,1.55,0,2.06-.52,2.57v2.57c-.51.52-.51,1-.51,2.57L30.2,104v4.63c-.52,0-.52,0-.52.51v4.11l-.51,1v2.57l-.52,1v5.65l-.51,4.62v5.14a1.91,1.91,0,0,1-.51,1.55v2l-.52,4.63v13.36ZM21.46,251c.51.51.51.51,0,1l.51-1h-.51l.51-.52ZM22,92.17v-.51l.52-.52v.52Zm0,3.6v2c.52-.51.52-2,.52-3.59Zm0,31.86v0Zm.52-34.43.51-.51Zm0,102.78.51-.52v2.06Zm0,60.12v0Zm1-76.57v-1l-.52-1c-.51.51-.51,1,0,1ZM23,182.62h.52v1Zm0,5.65c.52.51.52.51,0,1Zm0,1c.52.51.52.51,0,.51Zm0,14.39h.52v.51H23Zm0,16.44v0Zm0,1.54v0Zm0,39.06v0Zm.52-85.31v0Zm.51,4.11h-.51c.51,0,.51,0,.51-.51Zm-.51,147v0Zm1-184.49v-.51c.52.51.52,1,0,1Zm0,66.29v-1c.52,0,.52,0,.52.52Zm.52-69.89c.51-.51.51-.51.51,0Zm0,61.67v0Zm.51,7.71-.51,1v-2.06c0,.51,0,.51.51.51Zm-.51,1.54v0Zm.51-72.46c-.51,0-.51,0,0-.51Zm0,43.68v.52a1,1,0,0,1,0-1.55Zm0,1v0Zm.51,28.26h0Zm0-66.8v0Zm0,1.54v0Zm.52,4.62v3.09c-.52,0-.52,0-.52-.52v-2.57c0-.51,0-1,.52-.51Zm0,5.14-.52.52v-.52Zm-.52,33.92v0Zm0,2.57v0Zm.52-43.17a1,1,0,0,1,0-1.54Zm0-7.19v0Zm0,0v0ZM40,237.6h-.51l.51.52-.51-.52c0,.52,0,.52.51.52l2.57,2c0,.52,0,.52.51.52h.52a1.88,1.88,0,0,0,1.54.51c0,.52,0,.52.51.52h.52c.51,0,.51,0,.51.51h1l.51.51h1v-.51h2.57c.51,0,1,0,1-.51h1.54v.51c0-.51,0-.51.51,0,.52-.51.52-.51.52,0v.51h.51v-.51c-.51,0-.51,0-.51-.51h1.54v-.52h.51v-.51c.52.51.52.51.52,0h.51l.51-.52h.52c.51,0,.51,0,.51-.51h.52v-.51h1.54v-.52H63.6v-.51h.51l.52-.52h.51l.51.52-.51-.52.51-.51h.52l.51-.51h1.54c.52,0,.52,0,.52-.52h1l.51-.51v.51h.51l-.51-.51h.51v.51h.52v-1h1v0c.51,0,.51,0,.51.52.51,0,.51,0,.51-.52h1c0-.51,0-.51.51-.51s1-.51,1.55-1H77l1-.51.51-.51H80V232h.52v.52h.51v0c-.51,0-.51,0-.51.51l1.54-.51v0l.51-.52h.52l.51-.51,1.54-.52h.52l1-1,1.55-.52h.51a1.89,1.89,0,0,1,1.54-.51l.52-.52a1.88,1.88,0,0,1,1.54-.51l.51-.51,2.57-1.55H96c0-.51,0-.51.52-.51v-.51c.51,0,.51,0,.51.51v-.51c.52,0,.52,0,.52-.52H98l.51-.51h.52l1-1,1-.51h.52a1.11,1.11,0,0,0,1-1c.52,0,1.55-.51,3.09-2.06,1-1,1.54-2,1-2.57h.51v-1h.51V215l-.51-1v-.51l.51-.51-.51-.52c-.51-.51-.51-.51,0-.51l-.51-1-1-1v-.51c-.52,0-.52,0-.52-.51l-.51-1-.51-1-.52-1-.51-.51-.52-.52v-.51c-.51,0-.51,0-.51-.51h-.51v-1l-.52-1c-.51,0-.51,0-.51-.51v-.52c-.51,0-.51,0-.51-.51v-.51l-.52-.52c-.51,0-.51,0-.51-.51V198l-.52-.51-.51-1c0-.51,0-.51-.51-.51a1.11,1.11,0,0,1-1-1H96l-.51-.51c0-.52,0-1-.51-1v.51h-.52l-.51-.51v-.51c-.52,0-.52,0-.52-.52h-1l-.52-.51c0,.51,0,.51-.51,0,0,.51,0,.51-.51.51h-.52c0,.52,0,.52-.51.52h-.52l-.51.51H87.24c-.52,0-.52,0-.52.51H85.18c-.51.52-.51.52-.51,0h-1v.52h-.51c0,.51,0,.51.51.51-.51,0-.51,0-.51-.51h-.52v1c0,.52-.51.52-1,.52l-1,.51H80V197c-.51-.52-.51-.52-1,0H78.5c-.51,0-.51,0-.51.51H75.42c-.52.51-1,.51-1,1H72.85l-1.54.51h-1v.52h-1c-.51-.52-.51-.52-.51,0h-.52l-.51.51H66.17v.51l-.52-.51c-.51,0-.51,0,0,.51h-1l-.52.52H63.6c0,.51,0,.51-.51,0v.51h-.52c-.51,0-.51,0-.51.52-.52-.52-.52-.52-.52,0h-1v.51H60c-.51,0-.51,0-.51.51H59l-.51.52H56.4c-.51,0-.51,0-.51.51h-.51c0,.51,0,.51-.52,0v.51l-.51-.51h-.52v.51c0,.52,0,.52-.51.52h-.51c0,.51,0,.51-.52.51,0,.52,0,.52-.51,0v.52l-.51-.52-.52.52h-1a1.1,1.1,0,0,1-1,1v-.51c-.52,0-.52,0-.52.51v.52c-.51,0-.51,0-.51-.52-.52,0-.52,0-.52.52l-.51.51c-.51-.51-.51-.51-.51,0h-.52v.52c-.51,0-.51,0-.51.51v0c0-.51-.52-.51-1.54,0H43l-.51.51-.51.52H40.47v1H40v.51l-.51.51c0-.51,0-.51.51-.51v-1.54h-.51v1.54c0,.51,0,.51-.52.51l-.51.52v.51H37.9V214c-.51,0-.51,0-.51.52v0h-.51c.51.51.51.51,0,.51s-.52,0-.52.52h-.51l-.52.51h-.51v.51c0,.52,0,.52-.51,0,0,.52-.52,1-1.54,1h0c.51.52.51.52,0,1h-.52l-2.05.51v0H28.65l-1-.51c-.52,0-.52,0,0,.51h-.52l.52.52h1l1,.51h.52c0,.52.51.52,1.54.52h.51v.51l1-.51h1l-.52.51v.51H32.25l-1.54-.51H29.17v.51h-.52v.52l.52.51v.51c0-.51,0-.51.51-.51.52.51.52.51.52,1h.51l.51,1v.51l.52.51v.52h.51l.52.51.51,1v.51c.51,0,.51,0,.51.52v.51l.52.52v.51h.51l.51,1V232c.52,0,.52,0,.52.52l.51.51.52,1h.51v.51l.51.51.52.52v0l.51.51,2.06,1,.51.51h-1l-.51-.51v.51c0-.51,0-.51-.51-.51v.51ZM27.63,138.94v0Zm.51-56h0Zm1,135.16h0Zm1-1h-.52v-.52Zm0,1h0Zm.51-1.55v.52h0Zm0,.52v0Zm.51,0v0Zm.52.51h0Zm0,2.06v-.52c.51,0,.51,0,.51.52Zm1-1.54h0Zm1-2.57v0Zm.52-10.8h0Zm.51,9.77v1l.51-.52v-.51c-.51,0-.51,0,0-.52v-.51c-.51-.51-.51-.51-.51,0s0,.51-.51.51Zm-.51,0v0Zm.51,6.17h.51l-.51.51h-.51Zm.51-6.69h.52c0,.52,0,.52-.52.52Zm1,0h-.51l1-.51h-.52Zm.52,4.63h0Zm.51,26.21v1c-.51,0-.51,0-.51-.52Zm-.51,14.9v0Zm1-56v1.54l-.51-.52Zm0,7.71v0c-.51,0-.51,0-.51-.52v-.51l.51-.52.52-.51v1h0v.51H37.9ZM37.39,214v.52h.51a1.9,1.9,0,0,1-.51-1.54l.51-.52v4.11l-.51-1Zm.51,3.09v.51a1.88,1.88,0,0,1-.51,1.54v-.51l.51-1c0-.51,0-.51-.51-.51Zm-.51,1v0Zm.51,4.11v0h0Zm1-44.2v2.57c-.51,3.09-.51,5.14,0,6.17.52,0,.52,0,.52.51v1l-.52,1.54v-1.54l-.51.51a1.88,1.88,0,0,0-.52-1.54,1.87,1.87,0,0,1,.52-1.54,1.87,1.87,0,0,0-.52-1.54c.52-.51.52-1,.52-2.57v-4.11Zm-1,10.28v0Zm.52,6.68h0Zm0,1c-.52.51-.52.51-.52,0Zm0,1a1.86,1.86,0,0,0-.52,1.54v-2.06C37.9,197,37.9,197,38.42,197Zm-.52,16.44v0Zm0,7.2v0Zm0,13.36v0Zm0,26.21v0Zm.52-66.81c-.52-.51-.52-.51,0-.51Zm3.6,92.5v-1l.51-6.68V272c0-3.59,0-5.65-.51-6.16v-4.63l.51.52V251.48A1.89,1.89,0,0,1,42,253v1.54c-.52,0-.52,0-.52-.51,0-1.54,0-2.06-.51-2.57v-3.6c0,.52,0,.52-.52,0v-1l-.51-.51.51-1v-.51c0-.52,0-.52.52-.52v.52a2.26,2.26,0,0,0-.52-2.57v-2.06l.52-.51h.51L41,238.12l-.52-.52v-4.11l.52-2.05L41.5,233V229.9l-.51-1c0-.52,0-1,.51-1v-.51a1.89,1.89,0,0,1,.52-1.55v-1c-.52,0-.52-.52-.52-1v-1c-.51,0-.51-.51-.51-1.54v-2.57c0-4.11,0-6.17.51-6.68v-44.2l.52-.51c-.52,0-.52-.51,0-1l-.52-1v-4.62c.52,0,.52,0,.52-.51v-.52c-.52,0-.52,0-.52.52V158l-.51-1v1c0,1.54,0,3.08-.52,3.6L40,161v-.51l-.51.51c.51.52.51.52,0,1v1l.51.51c-.51,0-.51,0-.51.52v2.57l-.52,4.11v2c0,1.55,0,2.57-.51,3.09V170.8c0-.52,0-.52.51-.52v-2.05c-.51,0-.51,0-.51-.52a1.88,1.88,0,0,0,.51-1.54V161c0-1.54,0-2.05-.51-2.57v-3.08c0-.51,0-.51.51-.51l.52-1V152.3c-.52-.52-.52-1,0-1v-4.63l.51-.51v-.51c-.51,0-.51,0-.51-.52.51-.51.51-1,.51-2v6.68h1v1.54h1l.51-.51a1.91,1.91,0,0,0,.51-1.55q-.76-.77,0-4.62v-5.65c.52-.52.52-1.55.52-3.09v-4.62c.51-.52.51-1.54.51-3.09v-3.08l.51-4.11v-1.54c.52,0,.52-.52.52-1.54v-5.14l.51-1v-.51c-.51-1-1-1.55-.51-2.06s.51-1,.51-2.06v-1.54c.52-.51.52-1,.52-2v-1c.51,0,.51-.51.51-1l.51-.51v-.52c.52,0,.52,0,.52-.51s.51-.51,1-.51l.51-.52h.51l2.06-.51h.51l2.06-1-.52.51-.51.52a1.11,1.11,0,0,1-1,1c-.51,0-1,0-1,.51h-.52c0,.51,0,.51-.51.51h-.52l-1,.52c0,.51,0,.51-.52.51h-.51v1c-.52.51-.52.51,0,1V104l.51-1v-1.54h.52v-.51c.51,0,1,0,1-.52l2.06-.51-.51,1,2-1h.51l2.06-1h.51l-1.54,1a1.11,1.11,0,0,0-1,1h.52v.51c-.52,0-1,.52-1.54,1a1.9,1.9,0,0,1-1.54.51v.52h-.52v5.65l-.51.51v3.09a1.87,1.87,0,0,1-.52,1.54v1.54l-.51,4.11v4.63l-.51,4.62v1l-.52,2.06-.51,3.59v7.2l-.52,1V159c0,1.54,0,2.57-.51,3.08v7.71l-.51.51v.52c.51,0,.51,0,.51.51v2.06l-.51,2v9.77l-.52,3.08v17a1.89,1.89,0,0,1-.51,1.54V215l.51-.51V215c-.51,0-.51,0-.51.52v13.87l-.52,11.31v6.68c-.51.51-.51,1-.51,2.57v16.44L43.56,271c0,.51,0,.51-.52.51v6.68c-.51,2.06-.51,5.65-.51,11.31v1A1.91,1.91,0,0,0,42,289Zm-3.6-109.46v0Zm.51,35.46v.51l-.51-.51Zm-.51,12.85v0Zm.51,11.82v0Zm.52.51h0Zm0-27.24c.51-.51.51-.51.51,0S40,210.37,39.45,209.85Zm0,26.73v0ZM54.35,93.71h-.52v.52a4.65,4.65,0,0,0-2.56,1.54l-2.57,1-1,.51-1,1h-.51l-.52.51H45.1v2.06c-.52.51-.52,1-.52,2l-.51,4.11-.51,1.55v1.54l-.52,1c.52,0,.52.51,0,1v.52c-.51,0-.51,0-.51.51L42,116.33c-.52,1.54-.52,2.56,0,3.08,0,1,0,1.54-.52,2v6.17c-.51.51-.51,2.06-.51,4.11v2.06l-.52,2.57v-.52c0-1,0-1.54-.51-2l.51-1v-3.08a1.89,1.89,0,0,0,.52-1.55v-.51a1.54,1.54,0,0,1,0-2v-5.14a1.91,1.91,0,0,1,.51-1.55v-2.56c0-1.55,0-2.57.52-3.09v-2.57l-1-1v-4.11A1.9,1.9,0,0,1,41.5,104v3.08c.52,0,1-1.54,1.54-4.11v-1a1.89,1.89,0,0,1,.52-1.55v-2h.51v-.52h1.54c0-.51.52-.51,1.54-1l2.06-1h.51c0-.51,0-.51.52-.51h.51l1.54-1,1-.52h1ZM40,139.45c0-1.54,0-2.06.51-2.06v.52c0,1.54,0,2.57-.51,2.05ZM40,142v-.51c.51.51.51.51,0,1Zm0,9.76.51.52-.51,1Zm0,79.14v0Zm0,6.68h.51v.52Zm0,1c0-.51,0-.51.51,0C40,238.12,40,238.12,40,238.63Zm.51,12.85v-1l-.51-.51c.51-.52.51-.52,1,0v.51ZM41,238.63h-.52v-.51Zm0,32.89c.51,0,.51,0,.51-.51v1a1,1,0,0,1,0,1.55v1.54l-.51-1c0,.51,0,.51-.52,0L41,272Zm-.52,17v0Zm.52-1c-.52-.51-.52-.51,0-1Zm0-131.56v-.51l.51,1Zm0,69.89v0Zm.51,1H41l.51-.51Zm0,.52h0ZM41,236.06l.51,1c-.51.51-.51.51-.51,0Zm0,4.63v-.52c.51.52.51.52,0,1Zm0,5.14.51.51-.51.51Zm.51-142.35v0Zm0,6.68v0ZM42,220.65v1.54l-.52-.52Zm-.52,18,.52.52ZM42,208.31v1.54a1.54,1.54,0,0,1,0-2Zm0,8.22c-.52-.51-.52-.51,0-1Zm0,2.06v1a1,1,0,0,1,0-1.54ZM42,196l.51-2.06v2.57Zm0,1.54c.51.51.51.51,0,1Zm0,2.06v-.52l.51.52c0,.51,0,.51-.51.51Zm0,1c.51.52.51.52,0,1Zm0,2.57.51-.51A1.89,1.89,0,0,1,42,204.2Zm0,7.2v0Zm0,1.54v0Zm0,1v0Zm0,24.66h0Zm1.54,2.06L42,239.15h.51ZM42,259.7l.51.52c-.51,0-.51,0-.51.51Zm.51-161.88v0ZM43,176.45h0Zm-.51,5.14v-1H43c0,1,0,1.54-.51,2.06Zm0,3.08v-.51c0-.51,0-.51.51-.51Zm0,1v-.51l.51.51c-.51,0-.51,0-.51.51Zm0,3.6v0Zm0,2v0Zm0,35.46H43v1Zm0,3.6H43v2.06Zm0,3.08v0Zm.51,2.57h-.51l.51-.51Zm-.51,12.85v0Zm0-11.31v0ZM43,175.94c-.51-.52-.51-.52,0-1Zm0,3.59c-.51-.51-.51-.51,0-.51Zm0,55c-.51-.51-.51-.51,0-1Zm.52-71.43v1.54l-.52-.51v-1c.52,0,.52,0,.52-.51Zm0,3.6H43v-1l.52-.52Zm0,1.54-.52.51v-1ZM43,169.77v0Zm0,2.06v0Zm0,2v0Zm0,43.17h0Zm0,1.54h0Zm0,3.08.52-.51A1.87,1.87,0,0,1,43,222.7Zm0,2.57v0Zm0,4.63v0ZM43,235v0Zm0,2.57h.52v.52ZM43.56,214v.52c-.52-.52-.52-1,0-1Zm0,2.06c-.52-.51-.52-.51,0-.51Zm0,3.08c-.52-.51-.52-.51,0-.51Zm0-144.4.51-.51Zm0,75.54v-2.05c0-.52,0-.52.51-.52v2.57Zm0,4.11v0Zm0,5.66v0Zm.51,41.62-.51-.51h.51Zm-.51.52.51.51-.51,1v-1.54Zm0,7.7h0Zm0,2.57v0Zm0,8.23v0Zm.51-76.57v0Zm0,1v-.51c.51.51.51.51,0,1Zm0,2.06v0Zm0,47.28v0Zm0,1v0Zm0,0v0Zm0,1v0Zm0,3.6v0Zm32.38,5.14v.51h-.52l-1,.52h-1l-1,.51v.51H71.31l-1,.52h.51l.52.51v-.51l.51.51c-.51,0-.51,0-.51.52v.51h0v.51l-.52.52-.51-.52v-.51c-.51,0-.51,0,0,.51,0,.52,0,.52-.51.52v0l-1,.51-.52-.51v-.52l-.51.52c.51,0,.51,0,0,.51v-.51H67.2l-.52.51v.52a1,1,0,0,1-1.54,0l-.51.51c0,.51,0,.51-.52.51h-1v.52c0-.52-.52,0-1,.51h-.52c-.51,0-.51,0-.51.51h-.51v.52h-1c-.52,0-.52,0-.52.51h-.51v.52c0,.51,0,.51-.51.51h-.52v0H58c-.52,0-.52,0-.52.51v.52l1-.52v1h2.06v-.51H61v.51H60v.52H59v1H58v-.51l-.52.51v0h-1v.52l-.51-1h1l-.52-1v-1c-.51,0-.51,0-.51-.51s0-.51-.51,0l-.52.51h-1l-.51.52h-1v.51c0,.52,0,.52-.51,0l-.51.52-.52-.52-.51.52c0,.51,0,.51-.52.51h-.51c.51.51.51.51,0,.51-.51-.51-.51,0-.51.52-.52-.52-.52-.52-.52,0h-.51c0-.52,0-.52-.52-.52v.52h-.51v.51c-.51-.51-.51-.51-1,0H45.1c0-.51,0-.51.51-.51v-1l.52.51v-.51h.51l.51-.51c0-.52-.51,0-1,.51h-.52v-.51H45.1c0,.51,0,.51-.52.51l-.51-.51.51-.52v-.51l-.51-.52h.51V216l.52-.51,1-1h1c.52,0,.52,0,.52-.52h.51l.52-.51h1.54v-.51l.51.51.52-.51h.51v-.52h1c.51,0,1-.51,1.54-1h.51l.52-.52h1.54c0-.51,0-.51.51-.51h1c0-.52,0-.52.51-.52h1l.52-.51H61c.51,0,.51,0,.51-.51h1v-.52h1.54v-.51h1l.51-.52c.52.52.52.52.52,0l2-.51.52-.51.51.51h.52c0-.51,0-.51.51-.51l1-.52h.51c0-.51,0-.51.52,0,0-.51.51-.51,1,0h.52c-.52,0-.52,0-.52.52l.52-.52h.51l.51-.51c1-.52,1.55-.52,2.06,0Zm-32.38,4.62v0Zm.51-136.18h1c0-.51,0-.51.52-.51l-.52.51Zm0,44.2v0Zm0,13.36c0-.52,0-.52.52-.52-.52-.51-.52-.51,0-1v2.05Zm0,4.62v-2h.52v1.54Zm0,.52v0Zm0,1v0Zm0,1v-.51l.52.51c-.52,0-.52,0-.52.52Zm0,1v0Zm0,1v0Zm0,.51v0Zm.52,30.84-.52.51v-.51Zm-.52,3.59v0Zm0,3.09v0Zm0,7.19v0Zm0,35v-.52c0,.52,0,.52.52.52Zm1-124.88h0Zm0,29.29v.52a1.56,1.56,0,0,0,0,2v.51a18.19,18.19,0,0,1-.51-3.08Zm-.51,3.6v0ZM45.61,216h0Zm-.51,1.54v0Zm0,3.09v0Zm1-102.27v-2.57L45.61,121v.51Zm-.52,32.38v0Zm0,65.77v0Zm0,1.55v0Zm.52-72c-.52-.51-.52-.51,0-.51Zm0-72.46h0Zm0,41.11v-.51l.51-1v1.54Zm0,1v0Zm0,22.1c.51,0,.51,0,0,.51Zm0,4.11v0Zm0,41.11v0Zm0,25.7v0Zm1.54-103.3-.52,1c.52,0,.52,0,0,.51v.52c0,.51,0,.51-.51.51v-1.54a1.89,1.89,0,0,1,.51-1.54c0-.51,0-.51.52-.51Zm-1,3.6h.51l-.51.51Zm0,1c.51.51.51.51,0,.51Zm0,1.54v0Zm0,21.58v0Zm0,.52v0Zm.51,88.9v.51h-.51c0-.51,0-1,.51-1v-.52c.52,0,1-.51,1.55-1h1c.52,0,.52,0,.52-.52l.51.52c.52,0,1,0,1-.52h.51c.52.52.52.52.52,0l1-.51h.52c0-.52,0-.52.51,0v.51H53.32l.51.52c-.51.51-.51.51-1,0h-1l-.51.51-.52.51.52,1-.52.51v-1H49.21c0,.51,0,.51-.51.51l-.52-.51v.51h-.51v.51h-.52Zm-.51,18v0ZM47.15,123v-1.55c.52.52.52,1,0,2.06Zm0,2v0Zm0,2.06v0Zm.52,90.44h.51v.52h-1Zm.51-101.75h-.51c.51,0,.51,0,.51-.51Zm-.51,109v0Zm1-7.2h0Zm-.52,168.05h0Zm.52-168.56h.51v.51H48.7Zm.51,25.18c0,.51,0,.51-.51,0Zm-.51,40.08v0Zm0,87.36h0Zm1-152.62c-.51.51-.51.51-.51,0Zm-.51,7.19v0Zm0,18.5v0Zm.51,20.56h0ZM49.21,289c.51,0,.51,0,.51.52Zm0,25.18v0Zm0,44.71v0Zm0,2.06v0Zm1-259c0,.51,0,.51-.52.51ZM49.72,215h0Zm.52,1.54h.51c0,.52-.51.52-1,.52Zm-.52,137.73v0Zm.52,2.05h0Zm.51-254.89h0ZM50.24,103h0Zm.51,120.25h0Zm-.51,1c.51.52.51.52,0,.52Zm0,23.13h0ZM51.78,93.2l-1,.51V93.2a1.9,1.9,0,0,1,1.54-.51Zm-1,7.19h0Zm.52,57.05V158l-.52-2.06.52.52v.51h1c0,.52,0,.52-.51.52,0,1,0,1.54-.51,2.05Zm-.52,48.82v0Zm0,8.22v0Zm0,6.17v0Zm11.82,9.25h1l.51-1c0,.51,0,.51.52.51v-.51h.51c.51-.52,1-.52,1,0l.51-.52h1c0-.51,0-.51.51-.51s.52,0,.52-.51l1-.52h2v1.54h-1c0,.52,0,.52.52.52v.51c.51,0,.51,0,.51-.51h1v-.52c0-1-.51-1.54-1-1.54,0-.51,0-.51.52-.51v.51c.51.52.51.52.51,0h.51c0,.52,0,.52.52.52v.51h.51a1.89,1.89,0,0,1,1.54-.51h1c0-.52,0-.52.51-.52,0-.51,0-.51.52,0h1v.52c.51.51.51.51,0,.51l-1,.51H77v.52h-.51l-.52.51h-1v.52h-1v.51h-1l-.51.51h-.52c-.51,0-.51,0-.51.52h-1c0,.51,0,.51-.51.51-.52.52-.52.52-.52,0v.52h-.51V233c-.52-.51-.52-.51-.52,0h-1c0,.51,0,.51-.52.51h-.51l-.52.52h-.51v.51H63.6l-1,1-1,.51v-.51c0,.51,0,.51-.51.51h-.51l-1.55,1H58l-.52.51h-.51c0,.52,0,.52-.52.52h-.51v.51h-1l-2-.51h-.52l.52-.52h.51l-.51-.51h-.52l.52-.51v-.52h-1c0-.51,0-.51-.51-.51h-.52V235h1.54l1-.51V234h1c0-.52,0-.52.51-.52l.52-.51h.51l.51-.51h.52c0-.52,0-.52.51,0,0-.52,0-.52.52,0V232h.51v-.51h1v-.52h1a1.9,1.9,0,0,0,1.54-.51v-.51Zm-11.82,7.7v-.51h.52v.51Zm0,0v0Zm0,6.17h0Zm0,.51h.52v.52Zm0,15.42v0Zm0,3.6v0Zm1-161.36h-.51l.51-.52Zm-.51,80.16v0Zm0,6.17v0Zm0,28.26V216h.51Zm0,9.77v0Zm0,1.54v0Zm.51,9.76h-.51c0-.51,0-.51.51-.51Zm0,5.14h0Zm1-165.47-1,.51c-.51,0-.51,0,0-.51Zm-.52,23.64.52.51h-1Zm-.51,71.43h0Zm.51,10.28-.51-.52Zm0,24.66h0Zm-.51,7.2v0Zm.51,1.54c0,.51,0,.51-.51,0Zm-.51.51v0Zm0,20.56h0Zm.51-144.4v0Zm0,83.76h0Zm0,5.14v0Zm.52,25.69.51.52-.51.51v-1.54h0v.51c0-.51,0-.51.51,0Zm0,8.74c-.52,0-.52,0,0-.51Zm0-144.92c0-.51,0-.51.51-.51Zm0,85.31h0Zm0,11.82v0Zm.51,6.17-.51,1v-.51Zm0,63.2-.51-.51Zm-.51,4.63v0Zm.51-92V148.7l.51,1.54Zm.51,1.54h0Zm0,13.36-.51-1c0-.52,0-.52.51-.52ZM53.32,214v0Zm0,1.55v0Zm0,0h0Zm.51-78.12v0Zm0,5.14v0Zm.52,52.93h0Zm-.52.52v0Zm0,6.17c0-.52,0-.52.52-.52Zm0,2.56v0Zm0,37.52v0Zm.52.51-.52-.51Zm0-27.23c-.52-.52-.52-.52,0-.52Zm.51-27.75h0Zm0,16.44c-.51,0-.51,0-.51-.51Zm-.51,11.31v0Zm.51,26.72c0,.51,0,.51-.51,0Zm-.51,0v0ZM56.92,96.28H56.4l-1.54,1c0-.51.52-1,1.54-1.54Zm-2.06,23.64h0Zm0,95.07h0Zm0,0v0Zm0,4.63.52-.52v.52Zm.52-44.71c-.52-.51-.52-.51,0-.51Zm1-105.35-1,.51v-.51ZM55.89,215h-.51c0-.51,0-.51.51-.51Zm.51-107.92h0Zm-.51,4.12v0Zm1,103.29H56.4l.52-.52ZM56.4,107.59h0Zm0,135.15h0Zm1-167.53H58c0,.52-.52.52-1,.52Zm-.51,20.56h0Zm0,110.49v0Zm0,4.11h0Zm.51,2h-.51v-.51h.51ZM56.92,214h0Zm0,2.57c.51,0,.51,0,.51.52Zm0,1v0Zm1-3.6h0Zm0-12.84h0Zm0,12.33c.51.51.51.51,0,.51Zm0,27.75v0ZM59.49,74.7c0-.51.51-.51,1-.51l-1.55,1h-.51Zm-1,23.12c.51-.51.51-.51.51,0ZM59,213.45h0Zm-.51.51v0ZM59,68.53c.52,0,1,0,.52.52Zm0,143.38v0Zm0,1,.52.51H59Zm.52-143.89h0Zm0,172.15v0Zm0,1v0Zm1-148h0Zm0,118.71c-.52.51-.52.51-.52,0ZM61,93.71h0Zm0,2.57v.52h-.51Zm-.51,116.14H61v.52ZM61,68l1-.51Zm3.08,4.62v.52l-2.57,1H61l.51-.52ZM61.54,212.42l-.51.52v-.52ZM61,217.05h0Zm.51,14.39h0Zm0-13.88c-.51-.51-.51-.51,0-.51ZM62.06,67h0Zm-.52,143.38v0Zm0,6.16v0c.52,0,1,0,1-.51v-1l.52,1v.51c0,.52,0,.52-.52,0v.52c0-.52,0-.52-.51-.52v.52h-.52v-.52Zm0,14.91c0-.52,0-.52.52-.52Zm0,8.73v0Zm.52-163.93v0Zm.51,134.13h0Zm0,2h-.51c0-.51,0-.51.51-.51ZM62.06,233v0Zm0,6.17v0Zm.51,1.54h0Zm.52-174.21h0Zm-.52.51h0Zm0,143.38v-.52l.52.52Zm.52,1.54c0,.51,0,.51-.52,0Zm-.52,18.5h.52v.51h-.52Zm0,0v0Zm.52,2.57h0Zm.51-31.35h0Zm0,10.28h0Zm-.51,4.62v0Zm0,22.1v0Zm.51-26.72v-.51c.51,0,.51,0,.51.51Zm0,4.11h0Zm0,13.88v0Zm1-13.88c-.52,0-.52,0-.52-.51Zm-.52,0v0Zm0,23.13c0-.52,0-.52.52,0Zm1-162.39h0Zm5.65,25.69,1-1v.52c.52,0,.52,0,.52.51h-.52L69.25,104a1.87,1.87,0,0,1-1.54.52c0,1-1,1.54-2.57,1.54v.51l-.51-.51c.51,0,.51,0,.51-.52h.51V105l1-.51h1l.51-.52h0l.52-1,1-.51h.51v-.51h.51ZM64.63,209.34v0Zm0,6.17v0Zm0,23.12v0Zm.51-166c-.51,0-.51,0,0-.51Zm0,128.48v0Zm0,8.22v0Zm0,.51v0Zm.51,1c-.51.52-.51.52-.51,0ZM66.17,66h0Zm0,5.66c0,.51,0,.51-.52.51Zm-.52,137.21c.52.51.52.51,0,.51Zm.52.51h0Zm0,0h0Zm0,1c0,.51,0,.51.51,0Zm0,0v0Zm.51-9.25v0Zm1,13.87h-1l.52-.51Zm-.51-13.36v0Zm0,7.2h0Zm1-8.23h0Zm0,8.23h0Zm-.51,1.54v0Zm0,0v0Zm0,1v0Zm0,3.08h0Zm0,22.61v0Zm.51-172.67v0Zm0,144.41c0-.52.52-.52,2.06-1v.51a1.87,1.87,0,0,0-1.54.52Zm0-.52v0Zm0,.52v0Zm0,5.65v0Zm0,16.44v0Zm0-.51v0Zm.52-30.32v0Zm0,9.76h0Zm0,28.27v0Zm2.05-28.78v.51c0-.51,0-.51-.51-.51Zm.52,20c0,.52,0,.52-.52.52Zm.51-3.08c0,.51,0,.51-.51.51Zm.52-13.36v.51c0-.51,0-.51-.52-.51Zm-.52,13.36c.52.51.52.51,0,.51Zm0,2.57v0Zm.52-28.78v0Zm0,26.21h0Zm0,0v0Zm.51,7.71-.51-.52Zm0,.51h0Zm1,1h0Zm.51-27.75v-1h.51v1Zm1,1h0Zm-.52,18.5v0Zm1-130h0Zm7.2-3.08h.51l2.57-1-5.65,3.08c-1.54.52-2.06,0-1.54-.51s1-.51,2-.51l1-.52a.5.5,0,0,0,.51-.51ZM79.53,226.3H80c0,.51,0,.51-.51,0v0Zm0,6.17v0Zm1.54-.52h0Zm.52-135.67h0Zm2-.51h-.51l.51-.51Zm-.51,98.15v0Zm0,.52v0Zm1,0h0ZM85.7,94.23h0Zm.51-36v.52c0-.52,0-.52.51-.52Zm1,34.44h-.52a3.93,3.93,0,0,1,2.57-1Zm3.08-.52,2.06-1.54,1-.51a1,1,0,0,0-1.54,0l-.51.51c0-.51.51-1,2.05-1.54h-1l-1.54,1-.52.51v.51l-2.57,1.55c-.51,0-.51,0-.51.51h.51l1-.51ZM87.75,229.38h0Zm.52-35.46v0Zm.51,0v0Zm1-101.75h0Zm.51-2h0Zm.52,1h0Zm.51-4.62h0Zm2.57-28.78-.52.51Zm.51-2.57h0ZM93.92,89.6l.51-.51H95Zm.51-34.43.52-.51v.51Zm2.06,32.89H97l-1,.51Zm.51,0h-.51l1-.51Zm-.51-.51v0Zm2.05,133.1h0Zm3.6-141.84h.51l-2.05,1h.51Zm1.54-21.07h0c0-.51,0-.51.52-.51Zm1.54,20.56-2,.51,1-1c.51,0,1,0,1-.51h.52l3.08-1h-.51c0,.52,0,.52-.52.52Zm1,147.48v0Zm1.54-169.07h0Zm0-2.57c.52-.51,2.57-1,6.68-2-1,0-1.54,0-2,.51a1.87,1.87,0,0,1-1.54.52,1.88,1.88,0,0,0-1.54.51A1.91,1.91,0,0,1,107.79,54.14Zm0,27.24h0Zm4.63-2.06-2.06,1a1.91,1.91,0,0,1,1.55-.51Zm0,1-.51.52v-.52Zm1-3.59c0,.51,0,.51-.52.51,0-.51.52-.51,1-.51Zm-.52,3.08c.52,0,.52,0,0,.51l1-.51c.51,0,.51,0,.51-.52,0,.52,0,.52-.51.52Zm3.6-28.27v.52H115l.51-.52Zm-1,27.75c.52,0,.52,0,.52-.51Zm1-.51h0ZM117,51.57l1-.51,1-.51.51.51h-.51Zm0,25.7h0Zm2.57-26.72c0-.52,0-.52.52-.52Zm.52,1h0Zm.51,2.57c0,.52,0,.52-.51.52Zm-.51,19h0Zm2.57-23.64c0,1-.52,1-1,.51l-1,.52h.52l-.52-.52h1.54l.52-.51v0Zm-2.06,3.08h0Zm1-3.08h0Zm1,2h0Zm1,23.13h0Zm.52-23.64c.51,0,.51,0,0,.51Zm4.62,4.63h0Zm.52,0h0Zm.51,15.41h0Z" style="fill:#c70039"/><path d="M311.81,34.1l-2.06,9.77V47h.52l-.52,9.76v9.77l-1,15.41v1.55c0,2.57,0,4.62-.51,5.13a12.45,12.45,0,0,1,0,6.17,7.69,7.69,0,0,0,.51,3.6,21.38,21.38,0,0,1-.51,6.17l-1,27.23.52,4.63a38.41,38.41,0,0,1-1,6.16v8.23c.51.51.51,1.54.51,3.08a10.58,10.58,0,0,0,0,5.65l-.51,5.14.51,3.08-.51,10.8-.51,6.16v7.71l-.52,4.11V198c.52,1.55.52,6.68.52,15.42-.52,2.57-.52,13.88-.52,33.92V253a5.67,5.67,0,0,0,0,4.11v7.2c0,1.54,0,2.57.52,3.08v5.65c-.52.52-.52,1.54-.52,3.09,0,1,0,1.54.52,2.05v11.31c0,.51,0,1,.51,1v3.08l-.51-1.54a2.27,2.27,0,0,0,0,2.57v2.05l.51,5.14-.51,4.11c.51.52.51,2.06.51,4.63l-.51,3.59v7.71l-.52,7.2,1,4.11-.51,2.57v3.6l-.52,8.73c.52.52.52,4.63.52,11.31,0,2.57,0,4.11.51,5.14,0,2.57,0,4.62-.51,5.65,0,1.54,0,2.05.51,2.57.51,2.05,0,3.6-.51,4.11v1l.51,2.05.51,3.09a21.28,21.28,0,0,1-.51,6.16v1.54a1.58,1.58,0,0,0,0,2.06,1.89,1.89,0,0,0,.51,1.54,1.88,1.88,0,0,1-.51,1.54l-1-1v4.62l.52,3.6v4.11c-.52,2.05-.52,3.6,0,4.11l-1.55-7.19a1.9,1.9,0,0,1-.51,1.54c-.51.51-.51,1,0,2.05l-.51,1,.51,1.54c.51,1,.51,1.54,0,2.06v.51c.51.52.51,1.54.51,3.09l.52,6.16.51,3.6v2.05l-.51.52c0-1,0-1.54-.52-2.06v-1l-.51-1,.51,3.59-.51,1v3.09c-.51.51-.51,1,0,2.05v3.6l-.51-.52-1-1,.51,4.62.52,1c-.52-1.54-1-2.06-1.55-1.54l-.51,3.08v2.06c-.51,0-.51-1-.51-2.57s-.52-2.57-1-2.57v1c-.52,0-.52-.52-.52-1H299l-.51-.52-1-1.54c0-.51,0-.51-.51-.51h-.52l-.51-2.06-.52-.51v-1c-.51,0-.51,0-.51.52,0,1.54,0,2.05-.51,2.56,0,.52-.52,0-1-.51-.52,1-.52,1.54-1,1.54l-1-3.08c-1,.51-1.54.51-1.54-1v-.51l-.51-1.54-.52.51c-.51,0-.51.51-.51,1a2.87,2.87,0,0,0-.51,3.08c0,.51,0,.51-.52,0-1-1-1.54-2.05-1-2.57l-.51-.51v-1.54a1.91,1.91,0,0,1-.51-1.55,3.24,3.24,0,0,1,0-3.08c-1-5.65-2.06-9.76-2.57-12.33a3.12,3.12,0,0,0,.51-2.06c-.51-1-.51-1.54-1-2l-.51-1.55.51-4.62c-.51-.51-.51-1.54-.51-3.6l-.52-4.11c0-1,0-1.54-.51-2.05l.51-1v-3.09c-.51-.51-1-2.57-1-5.65l-.52-4.11v-4.11a4.38,4.38,0,0,1,0-3.6c-.51-.51-.51-2.57-.51-5.65v-1c-.51-.51-.51-2-.51-4.62v-4.11c-.52-1.55-.52-2.57,0-3.09v-1c-.52-.51-.52-2.05-.52-3.59v-8.74c-.51-.51-.51-1.54-.51-3.6v-36a16.76,16.76,0,0,1,0-7.19l-.52-7.71a9.89,9.89,0,0,1,.52-4.11,19.11,19.11,0,0,0-.52-5.66c0-5.65,0-9.25.52-10.27v-5.14h-.52c0-3.6,0-5.66.52-7.2-.52-.51-.52-2.05-.52-5.14v-4.11l.52-1v-1.54l-.52-1c0-2.57,0-4.12-.51-4.63l.51-1c0-4.62,0-6.68-.51-7.19l1-7.71a19,19,0,0,1-.52-5.65v-6.68c0-4.63,0-7.71.52-9.77v-.51l-1.54,7.71-3.09,15.41c-.51,1.54-.51,2.06-1,2.57l-2.05,12.34-1,5.14L267.1,253a1.89,1.89,0,0,1-.51,1.54l-.52,1v2.06l-.51,1.54a1.87,1.87,0,0,0-.52,1.54c0,1,0,1.54-.51,2a1.91,1.91,0,0,0,.51,1.55l-.51,1-1,4.12v1c-.51.52-.51.52,0,.52v1a25.56,25.56,0,0,0-1.54,8.23l-.51.51a3.88,3.88,0,0,0-1,2.57l-.52,2.06v1l-.51,3.09-.51,3.08.51,2.06-1,1a6.71,6.71,0,0,0-1,4.12c0,3.59-.52,5.65-1,6.16v1.54c0,1.55,0,2.06-.52,2.57s-.51,1-.51,2.06v.51l-32.38-.51v-1c-.51-.51-.51-1-.51-2l.51-.52-.51-1-.51-1.54.51.52v-1c0-3.6,0-6.17-.51-6.68l-.52-1v-.51l-.51-.52h.51c-.51-.51-.51-1.54-.51-4.11v-1a2.58,2.58,0,0,1,0-3.08c-.51,0-.51,0-.51-.51l-.52-1V285.4c0-1,0-1.55-.51-1.55v-1l-1-10.28-.51-5.14c0-1.54,0-3.08-.52-3.6l-1-10.79-2.57-18v-4.62a2.31,2.31,0,0,1,0-2.57c0-1.54,0-2.06-.51-2.57l-1-7.71-1-7.71c-.52-.51-.52-1-.52-2v-1.54L209,196.49c.51-.51,0-2.05-.51-4.62v-.52l.51-4.11c-.51,1.54-1,3.09-.51,4.11-.52-.51-.52-1-.52-2.57a1.86,1.86,0,0,0,.52-1.54l-1,2.06c0,3.08,0,5.14-.52,6.16l-1,6.17v3.08c0,1.55-.52,5.14-1,10.8,0,3.59,0,5.14-.52,5.65v2.05l-1,9.77-.52,6.17-.51,3.08c-1.54,13.87-2.57,22.1-2.57,25.18l-.51,4.62-.52-1v2.05a12.21,12.21,0,0,1,0,6.17c-.51,2.57-1,4.11-.51,5.14,0,2.57-.52,4.62-1,5.14l-1,11.3-.51,3.09c-.52,1-.52,2.57-.52,5.14v1.54c0,1,0,1.54-.51,2.05a94.88,94.88,0,0,0-1,9.77v8.22c-.51,4.62-1,7.19-2.05,8.74l-.52,4.11-.51.51.51,3.08-.51,4.11-1,7.2c0,2.57-.51,4.11-1,4.62l.52,5.14c0,.52,0,.52-.52.52v5.14a1.88,1.88,0,0,0-.51,1.54c0,1,0,1.54-.51,2.05v3.09c-.52.51-.52,1-.52,2v1.54c0,2.57,0,4.11-.51,4.63v4.62c0,1.55,0,2.06-.52,2.57l-.51,3.6v3.08h-.51l-.52,1V396.4c.52-.52.52-1,.52-2.57-.52,0-.52.51-.52,1v-4.63l-.51,2.06v-2.57l.51-.52v-4.11l-.51-.51,1-4.63v-8.73c.51-.52.51-1,1-2.57l-.51-4.63c0-.51,0-.51-.51-.51a13.52,13.52,0,0,0,1.54-5.65V355.8l-.52,1v2.57l-1,4.11-1,11.3-.52,4.11a1.58,1.58,0,0,0,0,2.06c0,1,0,1.54-.51,2.06,0,1.54-.51,4.11-1,7.7,0,1.55,0,2.06-.51,2.57l-.51,3.09v1.54l-.52-.51c0,.51,0,.51-.51,0l-1,.51L178.2,401v1l-.52-.51v-1l-.51-1.54-.52-1-.51-.51v1l-.51,1v2.06l-.52,1V401a7.52,7.52,0,0,0,.52-3.59,3.84,3.84,0,0,1-.52-2.57l-.51.51-.52,2.06-.51-.52.51-1h-.51l.51-1c0-.52,0-.52-.51-.52l-.51.52-.52,1v1.55l-.51-1.55v-.51l-.51-1-.52-2v2c-.51-.51-.51,0-1,1v.51h-.51c-.51.52-.51,2.06-.51,4.63v1l-.52,1.54v.51c-.51-.51-.51-.51,0-1v-1l-.51-.52v.52c-.52.51-.52,1.54-.52,3.59l-.51-1,.51-2.06c-.51,0-.51-.51-.51-1.54l.51-6.17-.51-3.6c0-1,0-1.54.51-2.05l-.51-1,1-13.87,2.05-19c0-4.11,0-6.68.52-7.71V343l.51-1,.52-8.22v-1a39.87,39.87,0,0,1,1-7.7V312.63l-1,9.77-.52,9.76-1,8.74-.51,6.68c-.51,12.33-1.54,19-2.57,20v5.65l-1,8.22v7.71l-.51,4.11-.52,1.55v-4.12l-.51-1,.51-1.55c0-8.22,0-13.36.52-14.9l1-6.68V362c.51-.52.51-1.55.51-3.6v-1c.51,0,.51-.51.51-1a2.31,2.31,0,0,1,0-2.57V345a46.31,46.31,0,0,1,1-5.65V333.7L170,319.31v-2.05c-.51-1.54,0-3.6.52-6.17,0-1,0-1.54.51-2a1.91,1.91,0,0,0-.51-1.55v-2.57l-.52-1c.52-3.6,1-5.66,1-6.68l.52-5.66a10.07,10.07,0,0,0,.51-4.11c0-1.54,0-2.57-.51-3.08l1-5.65V272c0-1.54,0-2,.52-2.56v-7.2l1-1V259.7c0-2.57.52-7.19,1-13.36v-3.6c.52-.51.52-2.05.52-4.62l.51-5.14v-3.6l.51-4.62c.52-.52.52-3.6.52-8.23a4.35,4.35,0,0,0,1-3.08c-.52-.51-.52-1.54-.52-3.6,1-1.54,1-3.08.52-3.59v-1c.51-2.06.51-3.08,0-3.08l.51-1,.51-3.6c0-1,0-1.54-.51-2.06.51,0,.51-.51,1-2.05v-6.68c.51-.52.51-1.54.51-3.08s0-2.06-.51-2.57v-.52h.51v-3.08l.52-6.17c-.52-1,0-2.57.51-4.62v-.52c0-4.62,0-7.71.51-8.73v-1l.52-2.06.51,1v-1c-.51-.51-.51-1-.51-2.57l.51-4.11V142c0-4.63,0-7.71.51-9.25v-4.63l.52-2c.51,0,.51,1.54,0,5.14a1,1,0,0,0,0,1.54v1.54c.51,0,.51,0,.51.52l-.51,1,.51-.51v-5.65l1-8.74v-7.19c0-1.55.51-4.12,1-7.71v-1.54l.51-2.06c0-1,0-1.54.52-1.54V97.82a10.09,10.09,0,0,1,.51-4.11c.51-1,.51-3.08.51-5.65a12.63,12.63,0,0,1,0-6.17c.52-.51.52-2,.52-4.62a19.68,19.68,0,0,1,1-3.08L189.5,68l1-6.17a1.89,1.89,0,0,1,.51-1.54V55.17l.52-3.6L220.85,50v.52a1.9,1.9,0,0,0,.51,1.54v1.54h.52l-.52.51.52-.51v2.06l.51,3.08v1L223.93,67l.52,3.6c.51.51.51,1,.51,2.57l-1,2.57.52,1,1,6.68L227,92.69v4.62l.51,1v.51l1.54,8.22-.51,1.55a89.5,89.5,0,0,1,1.54,12.84V122a28.38,28.38,0,0,1,1.54,8.73l.51,3.09v2.57a6.69,6.69,0,0,0,1,4.11c0,2.05,0,3.08.52,3.6l1,7.19v4.11c-.51.51-.51.51,0,1a1.87,1.87,0,0,0,.52,1.54c0,4.11.51,7.19,1.54,8.74l1,7.71v1c0,2.06,0,3.6.51,4.63v2.57l.52,2c.51.52.51,1,.51,2.06,0,1.54,0,2.05-.51,2.57l.51,1.54c-.51.51,0,1.54.51,3.08.52,1,.52,3.09.52,5.66l1,7.7c0,3.09,0,5.14.52,6.17v2.06l1-2.06a1.89,1.89,0,0,1,.51-1.54v-2.06c-.51-.51,0-2,1-4.62v-1c0-.51.51-1.54,1-3.6l.51-2c-.51.51-.51.51-.51,0L246,198c0-1.54,0-2.57.51-3.08.52-1,.52-2.57.52-4.62a5.93,5.93,0,0,1,1-3.6l.51-3.08v.51c.51-.51.51-1.54.51-3.6,0-1.54,0-3.08.52-3.6s1-2.56,1-6.16l.52-1v-.51c0-.52.51-1,1-1.55v-2.57c.51,0,.51,0,.51-.51l-.51.51a1.88,1.88,0,0,0,.51-1.54l.51-1v-.52c0-1,0-1.54.52-2.05v-4.12l2.57-10.27a3.88,3.88,0,0,0,.51-2.57,1,1,0,0,1,0-1.54l1-5.14,1.54-8.23c.51-2,1-3.08,1-3.59a6,6,0,0,1,1-3.6c0-.51,0-1,.51-1l.51-1.54v-2l.52-1v-2.57c.51-.52.51-1.54.51-3.09a3.88,3.88,0,0,0,1-2.57l-.51-1a6.32,6.32,0,0,0,1.54-4.63l.51-.51h-.51v-.52l1.54-7.7c.51-.52.51-1.55.51-3.09a1.87,1.87,0,0,1,.52-1.54v.51l1-2.56v-.52l1-4.62c.52-.52.52-2.06.52-5.14,0-.52.51-1,1-1.54a42.29,42.29,0,0,0,1.55-9.25v-1c1.54-8.74,3.08-13.36,3.59-13.36l-.51-.52,1.54-2.57h-.51l-.52.52c.52-.52,1-2.06,1.55-4.63,0-3.6.51-5.65,1-5.65V35.13Zm-147,361.27v0Zm0,1v0Zm1-338.15v0Zm.52,278-.52,1Zm.51-.51c0,.51,0,.51-.51.51Zm1-12.34c-.52,1-.52,3.09-.52,5.66l-.51-2.57.51-4.11v-.52Zm-.52,15.94c-.51.51-.51.51-.51,0Zm0-19,.52-.51Zm.52,2.06,1-7.71v4.62Zm1.54,6.68v0Zm.51-20,.52-.52Zm1-11.82v0Zm1-35.46c0-.52,0-1,.51-1Zm0,0v0Zm1-13.88-.52,1Zm0,7.71v-5.14l-.52,3.08Zm.51,49.85,1-10.28-.52,1v2.57l-.51,3.08-.51,10.28v2.57a1,1,0,0,0,0,1.54Zm.51-58.07-.51,1,.51-7.2-1,6.68v-2c0-4.11,0-7.2.51-8.74V235l.51-4.62.52-2.06c.51-.51.51-1,.51-2v.51c0,1,0,1.54-.51,2.06v9.76l-.52,7.2Zm-.51,7.19c0,.52,0,.52-.51,0Zm0-6.16v0Zm1.54-20.56c0,2.57,0,4.63-.51,5.65V233C174.6,230.41,174.6,228.87,175.11,227.84Zm0,56.53-.51,6.17,1-3.09v-.51Zm2.06-77.09v5.14l-.52,2.06-1,6.17-.52,2L178.2,195c0,1.54-.52,4.63-1,9.25Zm-2.06,20.56c0-1,0-1.54.52-1-.52,0-.52,0-.52.52Zm1-17.47c0,.51,0,.51-.51,0v-1Zm.51-14.39.52.51Zm2.06,210.18c-.51,0-.51,0-.51.52C178.2,406.16,178.2,406.16,178.71,406.16Zm-.51,1v0Zm0,0v0Zm1.54-245.13v4.63c0-.52-.52-.52-1,0v-1a26.09,26.09,0,0,1,1-5.65v-5.14l.51-2.57v-1.54c0-4.63,0-7.2.52-7.71l.51-2.57v-2.06l.51,1.54c.52.52.52,1-.51,2.06v1c0,2,0,3.08-.51,3.59v3.6l-.52,1h.52v8.22l-.52.52v-.52Zm3.08-14.39c0,.52,0,.52-.51,0Zm1-1.54c-.52-.51-.52-2-.52-4.62.52-.52.52-1,.52-2.57v-.52c-.52,1.54-.52,4.11-.52,8.74Zm1-38.54-1,1.54Zm-.52,7.71c0,.51,0,.51.52.51v.52c-.52,0-.52,1-.52,3.08l-.51,3.08c0-2.57,0-4.62.51-5.14Zm-.51,280.07v0Zm1-282.13v1c-.52,0-.52,0-.52.51Zm-.52,1.54v0Zm.52,271.85v.52a1.86,1.86,0,0,0-.52-1.54Zm.51,0v-1a25.64,25.64,0,0,1,1-4.63l-.52-3.08V382c-.51,1.54-1,2.57-.51,2.57v.51a1.9,1.9,0,0,0-.51,1.54Zm0,8.23v-1a1.89,1.89,0,0,0-.51,1.54Zm0-3.6v0Zm0,0v0Zm1-17,.51-2.06v-1c-.51,0-.51,0-.51.51ZM188,358.37c0-1.54,0-2.57.51-3.08,0-1.55,0-2.57.52-3.09-.52-.51-.52-1-.52-2.57l.52-1.54-.52,1v5.14l-1,2.05v3.09c0,1.54,0,2.57-.52,3.08v6.68c0-3.08,0-5.14.52-6.17S188,360.42,188,358.37Zm-.51-17.47v-.52c-.52.52-.52.52,0,1ZM189,328.05l-.52,2.57Zm.51-247.7v0Zm2.57-7.71v0Zm0,70.92v0Zm.51-31.86V121l1-13.36.52-1,.51-10.28.51,5.14c0-2,0-3.08.52-3.6-.52,0-.52-1.54,0-5.13-.52-1-.52-3.6-.52-8.23l-.51-4.62c-.51,2.57-.51,3.6,0,3.6V84c-.51,0-.51-.51-.51-1v1a125.37,125.37,0,0,1-1.55,15.42v7.19l.52-3.08.51,1v2.56l-1,1.55v3.08Zm1,20c-.51,0-.51.52-.51,1v1C193.1,132.77,193.1,132.26,193.61,131.74Zm2.57-76.57c-1.54,0-2.05,0-2.57.52h2.57c0,2.56-.51,7.19-1,13.36v1l1,5.14,1,5.14.51-5.14v3.6c0,1,0,1.54-.51,2.06l1,3.08V81.89c0-3.08,0-5.13.51-5.65s.52-1.54.52-2.57a1,1,0,0,1,0-1.54l.51-1.54V65.45c-.51-.51-.51-2.06-.51-4.63l-1-5.13,1-.52v1a2.27,2.27,0,0,0,0,2.57v.51l.51-2.05V55.17h0v-1h1V52.6l5.65-.51-3.6.51v1h1v-1h1v1h.51v-1l2.57.52V52.6h.52v1a1.9,1.9,0,0,0,1.54-.51l.51-1H200.29l12.34-.52-15.93.52a1,1,0,0,0,0,1.54C196.7,54.66,196.7,55.17,196.18,55.17Zm-2.57,39.06.52-.52Zm.52,27.75.51-.52V121c-.51.51-1,3.6-1,8.22v.52c0-2.57,0-4.63.52-5.14Zm0-37.52.51-.51v.51Zm0,8.23h.51c0,.51,0,1-.51,1Zm0,6.16c0-2.57,0-4.11.51-4.62Zm.51-14.39v0Zm0,32.89,1.54-12.84V105c.52,0,.52,0,0-.51l.52-6.17V96.8l-.52-3.09-.51,1a2.27,2.27,0,0,0,0,2.57v2.06c0,1.54,0,2-.52,2.57s-.51,1-.51,2.57v12.84Zm.51-28.26v0Zm.52,218.4.51-2.05Zm2.57-252.32v.52h-2.06v-.52Zm-1,68.35.51-5.14v-1a3.84,3.84,0,0,1,.52-2.57v-5.65c0-1.54,0-2.06-.52-2.57v4.63l-1.54,13.36.52.51Zm-1,181.92v0Zm1.54-251.3c.52,0,1,.52,1.55,1h-1c-.52,0-.52,0-.52-.51Zm.52,18.5v.52a1.87,1.87,0,0,0-.52,1.54Zm-.52,2.06v0Zm0,33.92.52,1h-.52Zm.52-37v0Zm0,0v0Zm.51,43.68v3.08l-.51,3.08,1-5.13v-1Zm-.51,163.42c.51-.52.51-2.06.51-4.12a1.91,1.91,0,0,1-.51,1.55Zm1-217.9a1.89,1.89,0,0,0-.52,1.55A1.89,1.89,0,0,1,199.27,60.82Zm0-5.65h0Zm.51,31.35-.51,4.62v1c0,1.54,0,2.57.51,3.09l.51-6.17v-.52l.52-3.59,1-6.17c-.51,0-.51,0-.51-.51l-.51-3.6a30.44,30.44,0,0,1-1,7.19Zm-.51,36v0Zm.51-68.35v-2h0l.51,1Zm1,84.28v0Zm3.08-83.25h0ZM202.35,84v0Zm0,92.5V177c.51,0,.51,0,.51-.51Zm1.54-11.82c0,2.06,0,3.6-.51,4.63v3.59c0-2,0-3.59.51-4.62l.51-2.57V161C203.89,161.55,203.89,162.58,203.89,164.63Zm0,20v3.6a18.19,18.19,0,0,0,.51-3.08,21,21,0,0,1,.52-6.17V177l-.52.52v3.08a1.28,1.28,0,0,0-.51,2.06ZM206.46,52.6h0Zm-1.54,118.2v4.62l.51-2v-5.14l-.51,1v1.54Zm0,44.71v0Zm2.57-55.5v-1.55c1-6.68,1.54-11.82,2-15.41v-1.54l-1-9.77c-.52-.51-.52-2.57-.52-5.14l-1,12.34-1,7.7.51,4.63v-.51l.51-3.09,1.55-7.19a9.91,9.91,0,0,0-.52,4.11c0,2.57,0,4.11-.51,5.14s-.52,3.08-.52,6.16a43.29,43.29,0,0,1,1-6.68l.52-1-.52,1,.52,2.06c-.52.51-.52,1.54-.52,3.08l-.51,4.63ZM206,181.59c.51-.51.51-.51,0-1Zm.51,32.37a1,1,0,0,1,0-1.54Zm3.6-161.87h0ZM208,201.63l-1,1.54Zm0-57.55a1.89,1.89,0,0,0,.52-1.55v4.63Zm0,51.38.52-1.54Zm0,6.69.52-.52c0-.51,0-.51.51,0Zm.52-62.19v0ZM209,54.14h0Zm14.9,239.48c.52.51.52,1,.52,2.57l.51,3.08a1.88,1.88,0,0,0,.51,1.54c0,2.06,0,3.09.52,3.6v-1.54l.51-3.08-1-3.09,1,2.57v-1l1-7.7H228l-.51-2.06-.51-7.2-2.57-20c0-1.54,0-2.57-.52-3.08l-.51-2.57v-3.08l-.52-4.63-1-4.62.51-3.6c-1.54-9.76-2.57-15.93-2.57-19-.51-.52-1-3.09-1-7.71l-1-6.17a22.37,22.37,0,0,1-1-5.14v-3.08c-.52-.52-.52-1-.52-2.57s0-2.06-.51-2.57L213.65,177c-.51-8.22-1-11.82-1-11.3l-.52-3.6-.51-2.57v1l-.51,2.57v3.08l-.52,2.06v2.57l-.51,2-.52.52v2.57l.52,3.08c0,2.06,0,3.08.51,3.6v1.54a37.92,37.92,0,0,1,1,9.25c0,.51.51,2.57,1,5.14l1,9.25.52,8.22a40.72,40.72,0,0,1,1,7.19l2.57,18.51v.51l1,5.65c0,1,.52,3.09,1,6.68a21,21,0,0,1,.52,6.17c-.52,1.54-.52,3.08,0,3.6v.51a7.69,7.69,0,0,1,.51,3.6,3.29,3.29,0,0,0,0,3.08,46.22,46.22,0,0,1,1.54,12.85l.51,1.54.52,5.14.51.51ZM210.06,180.56c-.52-.51-.52-.51-.52,0S209.54,181.08,210.06,180.56Zm9.25-126.93h-3.09l-.51-2.57-3.08.51-1,.52.51,1h1v1h0l-.51,1c.51,0,.51,0,.51-.51v-.52h2.06l-.52,1.55c-.51,5.65-1,9.25-1,11.3l.52,2.06.51,3.59,1,7.2a26.09,26.09,0,0,0,1,5.65V81.38l-.52-4.62.52,4.11.51,1c0-1.54,0-2.57-.51-3.08V78.3l1.54-10.79V67c-.51-1-.51-2.57-.51-5.14a9.91,9.91,0,0,0-.52-4.11c-.51-2.05-1-3.08-1-3.6Zm-6.68,118.71a21.13,21.13,0,0,1-1-7.2Zm-1,7.71v0Zm0,0c.51,0,.51.51.51,1.54Zm.51-23.13v0Zm.52-105.35h.51v.52c0,.51,0,1,.51,1h-.51V52.6ZM215.2,96.8l-2.06-18.5V74.7l-.51,1v3.08l1.54,10.79c.51,1.54.51,4.63.51,8.22.52.52.52,1.55.52,3.09l.51-1-.51-1Zm-.52,93-2.05-17.47a101.09,101.09,0,0,1,2.05,16.44Zm-1-136.69a1.91,1.91,0,0,0,1.55.51l-2.06.51Zm1,135.15-.51.51v1a1.87,1.87,0,0,1-.52-1.54l.52-.51Zm-.51-127.45v0Zm.51,4.12.52,1Zm0,70.4v0Zm1.54-81.2c-.51,0-1,0-1-.51h1ZM215.2,66v0Zm1,6.17c0,.51,0,.51-.51,0s-.51-1.54-.51-3.08l.51,1C215.71,71.1,215.71,71.62,216.22,72.13Zm-1,61.15.51-2.57-.51,1Zm0,59.1a1.9,1.9,0,0,1,.51,1.54Zm0,66.29v0Zm1-61.15c-.51-.51-.51-1.54-.51-3.6C215.71,195.46,215.71,197,216.22,197.52Zm0-122.31c-.51,0-.51-.51,0-1Zm0,124.37.52,1v1.55l1,10.27v.52c-.52-.52-.52-1-.52-2.57l-1-8.22a1,1,0,0,1,0-1.55Zm0-125.39v0Zm.52,38.54v1l.51,4.11a1.86,1.86,0,0,1,.52,1.54,26.24,26.24,0,0,0,1,6.68v.51c-.51-1-.51-2.57-.51-4.62a10.07,10.07,0,0,0-.51-4.11c-.52-2.06-.52-3.09,0-3.6l-1-6.17Zm1-28.27-.52-1a1.88,1.88,0,0,0,.52,1.54Zm5.65,23.13v-1.54l-.52-3.6c-.51-.51-.51-2.06-.51-3.6l-2-15.41a1.56,1.56,0,0,1,0-2.06V79.84l-.52-2.06v2.06l-.51,3.08c0,2.57,0,3.6-.52,4.11v1c0,2.06,0,3.08-.51,3.6L217.77,86l.51,7.19v5.14l.51,2-.51,2.57a45.25,45.25,0,0,0,1.54,10.8v2.57l.52,1c0,1.54,0,2.06.51,2.57v4.63l.51,1,.52,1.54v1c-.52,1-.52,1.55,0,2.06l1,7.71c0,.51,0,.51.52.51V141a1,1,0,0,0,0,1.54c.51,3.6,1,5.14,1,5.66,0,2.05,0,3.59.51,4.11.51,5.65,1,9.25,1,11.82v4.11c1.54,4.11,2,8.73,2,14.39l2.57,14.9v1c.52,2.57.52,3.6,0,3.6v3.59l-.51-.51v.51l-1-5.65-.51.51a37.31,37.31,0,0,1-1-6.16V192.9l-1-6.17c0-2.57,0-4.63-.51-5.65l-.52-2.57a1.88,1.88,0,0,0,.52,1.54v5.65l.51,4.11v3.09c.52,0,.52,1,.52,3.08.51,3.6,1,5.65,1,7.19l.52,1v4.11c0,2.57,0,3.6.51,4.11l.52,1.54V216c.51,1.54.51,2.57,0,2.06v2c0,2.57,0,4.11.51,4.63s.51,2.05.51,3.59v2.06l2.06,9.25v2.06a1,1,0,0,0,0,1.54v1h.51v4.63l1.54,5.14v1c-.51.51-.51.51,0,1v-2.57l-.51-4.11.51-1a1.91,1.91,0,0,1-.51-1.55,6.62,6.62,0,0,0-1-4.11l.52-1c0-1.55,0-2.06-.52-2.06v-1l-.51-1.54.51,1v1h.52a70.86,70.86,0,0,0-1-9.77V226.3a1,1,0,0,1,0-1.54l.51.51.52,3.08v1.55c0,2,0,3.59.51,4.62l.51-1,.52,1-1,1.54v2.06a1.89,1.89,0,0,1,.51,1.54c0,1,0,1.54.52,2.06l-.52.51v.51l.52-1c0,2.56,0,3.59.51,4.11v2l.52-2.57c.51-.51.51-1,.51-2.05v1c.51.52.51,1,.51,2.06v2.06c0,.51,0,.51.52.51,0-2.57,0-3.6-.52-4.11l-.51-1.54,1-3.09,1-6.16-.52-3.09v-2.57c0-2.57,0-4.11-.51-4.62-.52,0-.52,0-.52-.52v-6.16l-1-5.65c0-1.55-1.55-11.82-4.12-30.32a45.39,45.39,0,0,0-1-8.23,15.65,15.65,0,0,1-.52-5.14v-2.05l-1-4.63c.51-1,0-2.57-.52-5.14v-2l-.51-2.06-1-11.82A68.93,68.93,0,0,0,226,129.69a93.09,93.09,0,0,0-2.06-15.93c0-2.57,0-4.12-.51-4.63A1,1,0,0,1,223.42,107.59Zm-2.06,6.17q-.77-1.55-3.08-21.59v-.51l1.54,11.3Zm-1.54,19-1-5.65v.51Zm-1,88.39v0Zm1-86.33-.51,1,.51,1.54a4.38,4.38,0,0,0,1,3.09v1a2.31,2.31,0,0,0,0,2.57l.51,4.11.52,7.19v-9.25l-1-6.17-1-6.68Zm.52-42.14v0Zm.51-41.63.51,1.54v-.51Zm0,34.43v0Zm0,19c.51,0,.51,0,.51.51Zm.51,1v0Zm1,5.14v.52l-1-5.66Zm.51,15.42-1.54-8.22v-3.09l1.54,10.28v1Zm-1-60.64v0Zm1,49.33v0Zm0,1v0Zm0,14.39v0Zm.52,33.92c0,1.54,0,2,.51,2.57h.52a11.5,11.5,0,0,1-.52-3.6l-.51-1v-2.57c-.52,0-.52,1-.52,2.57C223.42,162.58,223.42,163.09,223.42,164.12Zm0-43.17v0Zm.51,16.44h-.51v-5.13l.51,5.65Zm.52,1.55c-.52,0-.52-.52-.52-1Zm.51,36.48v-1l-.51.51c0,.51,0,1,.51,1Zm1-26.72a2.27,2.27,0,0,0,0,2.57v1.54c-.52-.51-.52-2.05-.52-5.65a1.9,1.9,0,0,1-.51-1.54l.51,1C226,147.16,226,147.67,226,148.7Zm-1,140.81.51,1Zm.51,1v0Zm1,16.95c-.51.52-.51,2.06-.51,4.11l26.21,1,.51-5.14h-3.6l-.51,3.6v.51l-18.5-.51V307h-.51v-1a1.87,1.87,0,0,1-.52-1.54c0-.51,0-.51-.51-.51l.51,1,.52,2.06c-.52-.51-1.55-.51-3.09-.51Zm0-161.36.52.51h-.52Zm0,11.31v0Zm0,131.55v0ZM227,162.06a1,1,0,0,0,0-1.54c.51,0,.51,0,.51.51v2.06Zm0,140.81v0Zm.51-136.7.51,1.54Zm0,136.18v0ZM228,170.28v0Zm.52-10.79v0Zm.51,6.17v-.52c-.51-.51-.51-.51,0-.51Zm.52,13.87c.51,1,.51,1.55,0,2.06v-2.06l-.52-1Zm0,3.6c.51.52.51,1.54.51,4.11Zm0,26.21v0Zm0,0c.51.51.51,1.54.51,3.6C229.59,212.42,229.59,211.4,229.59,209.34Zm0,97.64v0Zm1-133.1-.51,1.54v-.51Zm0,17c-.51,0-.51,0-.51-.51s0-.52.51,0Zm1-4.11c0-1,0-1.54-.51-2.06Zm-.51,8.73v0Zm1,3.6v2.06l-.51.51.51-1a3.9,3.9,0,0,0-.51-2.57v-.51a1.89,1.89,0,0,1-.51-1.54v1ZM235.24,307c-2.06,0-3.6,0-4.11.51l2.57.52v.51l.51-.51h1Zm-3.09-86.33c-.51,0-.51,0-.51-.52Zm0-14.91c.52.52,1,3.09,1,6.68Zm0,15.93v0Zm1-8.73.52,3.08c-.52-.51-.52-1.54-.52-3.6Zm.52,94.55c0,.52,0,.52.51.52ZM235.75,234l-1.54-13.88v-.51l.51,1.54,1.55,13.36c0,2.06,0,3.08.51,3.6v1.54c0-.51,0-1-.51-1Zm-1.54,70.91h.51v-1.54Zm1.54-64.23v.51h-.51v.52Zm0,55.5v0Zm1-52.93v0Zm1,33.4c-.52-.51-.52-1-1-1a22.27,22.27,0,0,0,1,5.14v-4.11Zm-1,13.88c.51-2.57,1-4.63,1-5.14Zm.51,16.95v0Zm.52-54.47c.51.51.51,1,.51,2.57l.52,1c-.52-.52-.52-2.06-.52-4.11l-.51-1.54V253Zm1-57.56h0Zm.51,64.24v2.57l-1,4.11a33.1,33.1,0,0,0,1.54,7.71l.52,4.11c0-2.57,0-4.11.51-4.62V272c.51-.51.51-1.54.51-3.08,0-1,0-1.54.52-2.05l.51-1-.51-1v-.51l.51-.52v-2.57c0-1.54,0-2.57-.51-3.08l-1-5.14-1,8.22-.51.52Zm-.51,18v0Zm1-15.93-.51,2.57v-2.57Zm0,33.4h-.51v2.06c.51,0,.51,0,.51-.52v-1.54Zm0-29.81a1.88,1.88,0,0,1,.52-1.54Zm0,3.6v-3.08a3,3,0,0,1,.52,2.05,3.87,3.87,0,0,0-.52,2.06Zm.52-69.37v0Zm.51,22.61v-1.54l-.51-2.06c.51.51.51,2.06.51,4.11ZM240.38,269a25.92,25.92,0,0,0,1-6.17l1-1-.51,1-.52,4.12v1l-1,1.55V269Zm.51,4.63-.51-2.06.51.51Zm0,14.39-.51,1Zm0-1.55v-2.05l.51-.52v-.51c-.51,0-.51,0-.51.51ZM241.4,309v-.52h0c0,.52,0,.52-.51.52Zm0-26.21v0Zm0,24.15v0Zm1-19.53-.51-3.08c0,2.05,0,3.6.51,4.11Zm0-13.36v0Zm.52-17.47v0Zm1-12.34-.51.52.51,1Zm0,40.09-.51-.52c0,1,0,1.55.51,2.06Zm4.12,23.12H245v-1l-.51-2.57-.52-1c0,2.05,0,3.6.52,4.11v.51l-1-.51v1l1.54.51Zm1-98.66c-2.05,10.79-3.08,16.44-3.08,18l-1,4.63-.51,3.08.51,3.6-.51,3.08-.52,1.54h.52l.51-1v-2.57l.52,1a1.91,1.91,0,0,0,.51,1.55l-.51,1,.51,1.54v.52l.51,1c0,1,0,1.54.52,1.54l-.52-4.11v-1l1.55-9.25,1.54-7.71.51-2.06.51-2.05c.52-.51.52-2.06.52-3.6l1-5.14c0-1.54,0-2,.51-2.57l1-6.16,2-8.74,1-4.11c0-1.54,0-2.06.52-2.57v-1c.51-2.57,1-4.11.51-4.62,0-.52.51-1,1-1.54v-1l.51-5.65.51-3.09c.52-.51.52-1.54.52-3.08,0-2.57.51-3.6,1-3.6,0-1.54,0-2,.51-2.57v.52c0-.52,0-.52.51-.52v-1H262l.51-1v-.52l.52-1,.51-3.08c.52-.51.52-1.54.52-3.6v-1l1.54-7.2.51-2.05v2.57l-.51,2.56c.51-.51,1-2.56,1.54-7.19l3.08-12.85-.51-2.57,1.54-5.65v1c0,.51,0,.51.51,0v-1.54a17.79,17.79,0,0,0,1.55-6.17,1.87,1.87,0,0,0-.52-1.54,47.1,47.1,0,0,1,1.54-7.71v1c.52.51.52.51.52,0v-1.54a4.67,4.67,0,0,0,1.54-3.6V96.28a4.3,4.3,0,0,1,1-3.08v-1l-.52.52c0,.51,0,.51-.51.51v-.51l1-2.57,1-6.68c0-4.12,0-6.68.51-7.71v-1c.51-1,.51-2.57.51-5.14a5.71,5.71,0,0,1,0-4.11v-1a42.66,42.66,0,0,0-1.54,9.25l-.51,1.54v2.06l-.52,2.57a26.25,26.25,0,0,0-1,4.62,69.36,69.36,0,0,0-2.06,8.74l-2.06,7.71a43.07,43.07,0,0,0-1,6.68l-1,4.62a3.13,3.13,0,0,0-.51,2.06,1.87,1.87,0,0,1-.52,1.54L264,138.42l-3.09,13.88-1,6.16-1.54,6.17-1,6.17c-1.55,5.14-2.06,8.22-2.06,9.76a19.28,19.28,0,0,0-1,6.17,17.68,17.68,0,0,0-1.54,6.17l-1.54,5.65c.51,1,.51,1.54,0,2v-.51A70.73,70.73,0,0,0,249.11,208.83Zm-4.62,41.62v-1c0,.52,0,.52-.52.52Zm.51,57v1l-.51-1Zm0-68.34v0Zm.52,5.65-.52,3.08Zm.51-4.11.51-1Zm0,0c.51-.52.51,0,0,.51Zm.51,2.57L246,244.8v-.52Zm.52-6.68a1.88,1.88,0,0,1-.52,1.54Zm-.52,1.54v0Zm0,10.79h.52v-1Zm2.06,62.69v0Zm1.54-94c.51,1.54,0,3.6-.51,5.65-.52.52-.52.52-.52,0v-.51A15,15,0,0,0,250.14,217.56Zm0,56v0Zm.51-64.75.52-1Zm0,1v0Zm0,7.71v0Zm0,64.75.52-1c0,.52,0,.52-.52.52Zm.52,25.7v.51l-.52.52Zm-.52,2.05v0Zm.52-74v0Zm23.64-43.68c.51-.51.51-2,0-3.6.51-.51.51-1,.51-2.57,0-1,0-1.54.52-2.05a4.35,4.35,0,0,0,1-3.08v-6.17c0-2.06,0-3.6.52-4.11l-1.54,5.65q-3.09,14.64-3.09,17l-.51,1.54v0c-.52,0-.52.51-.52,1v1l-.51,2.57v.51l-1,.51v.52l-2.05,6.68a25.58,25.58,0,0,0-1,4.62v2.06a2.37,2.37,0,0,0-1.54,2.57v3.6H265l.52-.52-.52.52-.51,2c.51-.51.51-1,.51-2v3.59a3.82,3.82,0,0,1,.52-2.57c.51-.51.51-1,.51-2l.52,1-.52,1-.51.52,1-1-.52,3.6.52-1c0,2.57,0,3.6-.52,4.11a26.23,26.23,0,0,0-1,6.68,10.09,10.09,0,0,0-.51,4.11c-.51.52-.51.52-.51,1a1.87,1.87,0,0,1-.52,1.54,4.37,4.37,0,0,0-1,3.08c-.51,2.57-1,6.69-2.05,12.34-.52,0-.52,0-.52-.52h.52v-.51c-.52,0-.52,0-.52.51-.51.52-.51.52-.51,0l1-1c0-1.55,0-2.06.51-2.57l-.51-2.06,1.54-5.14v-2.05c0-1.54,0-2.06.51-2.57,0-.52.52-1,1-1.54s0-1.55-.51-2.06c.51,0,.51,0,.51-.51v-3.09c.52-.51.52-1.54.52-3.08l-.52,1L263,232c-.52,0-.52.52-.52,1.54v1c-.51.51-.51,1-.51,2.06l-5.65,28.77a13.21,13.21,0,0,1-1,3.6,37.4,37.4,0,0,1-1,6.17l-1.54,10.28-1,7.19v1.54c.52.52.52,1,.52,2.57l.51,1.54.51,5.14v1l.52-1v-1.54l1-6.17a1.88,1.88,0,0,0,.51-1.54,17.69,17.69,0,0,1,1.54-6.16l-.51-1.55c.51,0,.51-1,.51-3.08l1-3.08v-1.54l.51-3.09a19.68,19.68,0,0,0,1-3.08V271c-.51-.52-.51-.52,0-1l1-2.57v-1l1.54-8.22a1.89,1.89,0,0,1,.51-1.54l-.51-.52,1-3.59c.51-.52.51-2.06.51-3.6a52.36,52.36,0,0,1,2.06-11.31l2.57-15.41c.51-.52,1-1,1-1.54s0-.52.51-.52v-1a3.29,3.29,0,0,1,0-3.08,1.89,1.89,0,0,1,.51-1.54l.52-1.54c.51-.52.51-1,.51-2.06l-.51-1,2.57-9.76V198l.51-1.54.51-2.57A1.88,1.88,0,0,1,274.81,192.38ZM252.2,205.23l-.52,1V204.2c.52-.51.52-1,.52-2Zm0,4.62c0,1,0,1.55-.52,2.06C251.68,210.88,251.68,210.37,252.2,209.85Zm-.52,2.06v0Zm.52,94.56V306c-.52,0-.52,0-.52-.51Zm0-26.73.51,2.06Zm.51-117.16.51-.52v.52l-.51.51Zm.51,3.59a1.9,1.9,0,0,0-.51,1.54Zm0,36v5.13l-.51.52a1.88,1.88,0,0,1,.51-1.54Zm.52-44.2v0Zm.51,40.08.52-1v.51Zm0,0v0Zm0,92.51c0-1.55,0-2.06.52-2.57v.51C254.25,289,254.25,289.51,254.25,290.54Zm1-102.78v-.52a1.88,1.88,0,0,1-.51,1.54Zm-.51,7.7v0Zm.51,92v0Zm.51-105.35c.52-.51.52,0,0,1.55Zm0,27.24,1-2.06v-1.54Zm.52-21.58,1-1v1a4.3,4.3,0,0,0-1,3.08Zm.51-8.23a9.27,9.27,0,0,1,1.54-5.65,22.84,22.84,0,0,0-1,5.14Zm.52,2.57c.51-3.59,1-5.14,1.54-5.14Zm0,20.05v1.54l1-3.6c.52-1.54.52-2.57,0-3.08Zm1-62.19v0Zm0,30.32.52-2.05c0,2.05,0,3.08-.52,3.08Zm0,25.18,1-2.05v1Zm1,57.56a4.3,4.3,0,0,1-1,3.08Zm0,11.31c0,1,0,1.54-.51,2.05a15.07,15.07,0,0,1,1-4.62C259.39,262.27,259.39,262.78,259.39,264.33Zm-.51,2.05v0Zm1-7.19c0-1,0-1.54.52-1.54A1.88,1.88,0,0,1,259.9,259.19Zm1-98.16c-.51,0-.51.52-.51,1a1.89,1.89,0,0,1,.51-1.54Zm-.51,95.59v0Zm1.54-93,.51.52v-1Zm1-12.33v.51c0,1.55,0,2.06-.52,2.57Zm-.52,8.22v0Zm1-10.79-.51,1.54Zm.52-1.54-.52,1.54Zm.51,78.11c0,.51,0,1-.51,1v-.52a1.9,1.9,0,0,1,.51-1.54L264,226.3c0,1,0,1.54-.52,2,.52,0,.52,0,.52-.51v1ZM264,147.16v-1.54l.51-3.09Zm.51,79.65c-.51,0-.51,0-.51-.51Zm1-125.39v0Zm1.54,31.35-.51,1Zm-.51,90.44c.51,0,.51,0,0,.52Zm3.59-106.88.52-3.6-2.57,14.39-1,1Zm-3.08,16.44.51-2.57Zm.51,79.65c0-2.57,0-3.59.52-4.11v1c-.52.51-.52,1.54-.52,4.11Zm2.06-85.3-.51,1-1,3.6.51-1a11.42,11.42,0,0,1,.52-3.59Zm-1.54,5.14c.51.51.51.51,0,.51Zm0,76.05,1-2.05a1.88,1.88,0,0,1-.52,1.54Zm2.57-95.58,3.08-13.88Zm1.54,1-1,2.57v-.52Zm-1,4.11v0Zm.51,78.11.52-1-.52,1.54Zm4.12-107.41.51-.51v.51l-1.54,6.69-1,3.59.51-2Zm.51-34.94-1,.51Zm-.51,41.63v3.59c-.52,0-.52,0-.52-.51Zm.51-7.2.51-1Zm.51,300.63-.51-.52c0-.51,0-.51.51,0Zm1.55-311.93v3.59l-1.55,4.11Zm-1.55,7.7v0Zm0,1.55v0Zm1,.51c0,.51,0,.51.52.51V84.46C278.41,85.49,278.41,86,277.89,86.52Zm.52,13.36a1.87,1.87,0,0,1-.52,1.54v2.06l.52-1.54V99.88Zm0-23.12c0-.52,0-1,.51-1Zm7.19-33.92V36.67l-1.54,7.2c-.52.51-.52,1-.52,2.57s0,2.05-.51,2.56h1v-.51c0-.51.51-1,1-1.54l-.52,1.54a9.9,9.9,0,0,0,1.54-5.14ZM283,54.14v0Zm13.88,52.93v0Zm9.25,167v0Zm0,5.65v0Zm0,6.17v0Zm0,1.54v0Zm0,2.06v0Z" style="fill:#c70039"/><path d="M342.63,387.66v0Zm2.57.51v0ZM452.09,51.57h-.51l.51-.51h1l-.51-.51c1.54,0,2.57,0,3.08-.52l-.51-.51h-1.54c-3.09,0-5.14,0-6.69.51H444.9l-.51.52-1.55.51H441.3l-2.05.51-2.57.52-1,.51-.51.52h-1.55a1.9,1.9,0,0,0-1.54.51,1.89,1.89,0,0,1-1.54.51H429l-1,.52a1.89,1.89,0,0,1-1.54.51l-1,.52c0-.52-.51-.52-1,0l-3.08,1a1.87,1.87,0,0,1-1.54.52c-2.06,0-3.08.51-3.08,1.54h-.52l-1,.51-3.59,1.54-4.63,1.55-1.54.51-2.57,1h-.51c0,.51,0,.51-.52.51h-1l-.51.52a4.7,4.7,0,0,1-3.6,1.54l-2,1L393,68a4,4,0,0,1-2.57,1h.51c-1.54,0-2.06.51-2.06,1h-.51c-.51-.51-.51-.51-1,0a1.86,1.86,0,0,1-1.54.52c-.51,0-1,0-1,.51l-1,.52-2.57,1,1-1V71.1l-1,.52c-.52,0-.52,0-.52.51v.51l-1,.52-1,.51c-.52-.51-.52-.51-.52,0l-.51.52h-.51l-2.06,1-1,.52c-.51,0-.51,0-.51.51H373l-.51.52-2.06,1-2.05,1c-1,0-2.06.51-3.6,1.54h.52a1.89,1.89,0,0,0-1.55.52l-.51.51c-1,0-1.54.51-1.54,1-.52-.52-1,0-2.06.51h.52l-.52.52c-1,0-1.54,0-2,.51l-.52.51L356,85v1a1.88,1.88,0,0,1-.52,1.54,1.88,1.88,0,0,0-.51,1.54v3.08a1.88,1.88,0,0,0-.52,1.54v2.06l-.51,2c-.51.52-.51,1.55-.51,3.09v1l-.52,2v4.11l-.51.52v4.11l-.52,1.54v5.65c-.51.52-.51,1-.51,2.57v5.65c-.51.52-.51,1.55-.51,3.6V141a1.88,1.88,0,0,0-.52,1.54v.52h-.51l.51.51v13.36a1.9,1.9,0,0,0-.51,1.54c0,3.6,0,5.14-.52,5.66v5.65c0,1.54,0,2.57-.51,3.08v7.2h-.51v.51c.51,0,.51,0,.51.52v5.65c0,.51,0,.51-.51.51v.52l.51.51v2.06l-.51.51v1c0,.51,0,.51-.52,0V234c-.51,0-.51,0-.51.51v1h-.51c0,.51,0,.51.51.51v4.63c0,.51,0,1-.51,1v-.52l-.52-1v7.71h0v21.59l.52.51-.52.51.52,2.57v6.68l-.52,7.71v17c.52.51.52,2.06.52,5.14l-.52,4.11,1,21.07v15.93h.51a1.89,1.89,0,0,0-.51,1.54l.51,2.57v18l.52,5.14V382c0,18,1,28.26,2.57,30.83v3.09l.51,2.05.51,2.06,1,2v2.06l.52,1h.51l.51.51,1,.51,1-1h1.54v.51h1l1.54,1c.51.51,1,.51,1.54-.52h.52l.51.52,1-1h.51c0,.51.52,1,1.54,1l1,.51.52.51h1.54l.51.52h.51v1c.52,0,.52,0,.52-.52,0-1,.51-1.54,1.54-1,0,.52,0,.52.51,0V426.2l1,.52a1.86,1.86,0,0,1,.52-1.54l.51-1v-1h.51v1a1.11,1.11,0,0,0,1-1v-3.6H376v-1l.51-.51v-1h.52l1,2.06c.52-.52.52-1,.52-2.57l-.52-1,.52-.51c0-1,0-1.54.51-2.06v-1c.51,0,.51-.51.51-1-.51-1-.51-1.55,0-2.06v-4.62a1,1,0,0,1,0-1.55V389.2c-.51-.51-.51-.51,0-1V381a1.87,1.87,0,0,1,.52-1.54v-7.2l.51-4.11c0-1.54,0-2.05-.51-2.57l.51-1V359.4h.52a1.88,1.88,0,0,1-.52-1.54v-2.57l-.51-.52v-1l.51-.51h.52l-.52-.51c.52-.52.52-.52,0-1-.51,0-.51,0-.51-.52V335.76c-.52-.52-.52-1-.52-2.57v-2.06l.52-.51-.52-1v-.51c.52-.52.52-1.54.52-4.11V303.38c.51-1,.51-3.08.51-6.68v-6.16a1.89,1.89,0,0,1,.52-1.55v-3.08l.51-9.76V263.81c.51-.51.51-.51,0-1v-2.56c.51-.52.51-1,.51-2.06s0-1.54-.51-2.06v-1.54a1.89,1.89,0,0,1,.51-1.54v-1c-.51,0-.51-.51-.51-1,.51-.52.51-1,.51-2.57v-3.6l.52-1.54c0-.52,0-1-.52-1v-3.6c.52-.51.52-1,.52-2.57l-.52-3.59a2.56,2.56,0,0,0,0-3.09v-1.54c.52-.51.52-.51,0-1v-.51c.52-.52.52-1,.52-2.06v-2.05c-.52,0-.52-.52-.52-1a1,1,0,0,0,0-1.54l.52-1V216l-.52-1a1.87,1.87,0,0,0,.52-1.54V189.81l.51-.51c0-1.54,0-2.06.52-2.06v-3.59c-.52-.52-.52-.52,0-1v-8.74c0-1,0-1.54.51-1.54l.51-1v-.51c-.51,0-.51,0-.51-.52l-.51-1v-3.09c-.52,0-.52,0,0-.51l.51-1v-2a3.31,3.31,0,0,1,0-3.09l-.51-.51v-2.06h.51v-2.57l.51-1v-1l-.51-3.6.51-1V145.1c.52,0,.52,0,.52-.51v-1.54c0-1.54,0-2.06-.52-2.57,0-1.54,0-2.06.52-2.57v-.52l.51-1.54a1.88,1.88,0,0,1-.51-1.54v-2.57a1.89,1.89,0,0,1,.51-1.54V123c.52-.52.52-1,.52-2.06v-4.62a1.91,1.91,0,0,0,.51-1.55c0-.51,0-.51-.51-.51a1.89,1.89,0,0,0,.51-1.54l.51-.52V108.1h.52v-.51l.51-.52h.51c.52,0,.52,0,.52-.51h.51c.52.51.52.51,1,0v-1l.51-.51h1a1.12,1.12,0,0,1,1-1l2.57-1.54h.51l-2,1.54-1,1-1,.51H392v1c.51,0,.51,0,.51-.51l3.09-2.06,1-.51V103l.52-.51c.51-.51,1-1,1.54-1v.52l.51-.52h.52l2.05-1.54h.52l1-.51,1.55-1c0-.52,0-.52.51-.52s.51,0,.51.52v-.52l1-1a1.86,1.86,0,0,0,1.54-.52l.52-.51h.51c0-1,1-1.54,2.57-1.54l1.54-1,.52-.51.51-.52a6.27,6.27,0,0,0,4.62-2,3.93,3.93,0,0,0,2.57-1h.52l.51-.52c0-.51.52-.51,1-.51s1,0,1-.51.51-.52,1-.52l.51-.51h.51c0-.51.52-.51,1-.51a1.87,1.87,0,0,0,1.54-.52l2.06-1,1-.51c.51,0,.51,0,.51-.51a7.87,7.87,0,0,1,3.6-1.55h-.52c.52-.51,1-.51,2.06-.51-.52-.51,0-1,1-1.54a1.86,1.86,0,0,1,1.54-.52c.51,0,.51,0,1-.51l4.11-1.54L449,75.73a1.87,1.87,0,0,1,1.54-.52c.52,0,.52,0,.52-.51h1l.52-.51,4.62-1,4.11-1,.52-.51V71.1a1.89,1.89,0,0,0,1.54-.51c-1,0-1.54,0-2.06.51s-1,.52-2.57.52h-2l-2.06,1v-.51L449,73.67h-1l-1,.52-5.13,2-1,.52a1.88,1.88,0,0,0-1.54.51l-1.55.51-1,.52c.51,0,.51,0,.51-.52l2.57-1.54a3.93,3.93,0,0,1,2.57-1l2.57-1.54,2.05-.51h.52l12.85-3.6L463.4,68l1-.51V67h-1.54l.51-1,1-.51h-.52a1.88,1.88,0,0,1-1.54.51h-1.54c0-.51,0-.51-.51-.51l-.52-.51-.51-.52c-.52,0-.52,0,0-.51.51,0,.51,0,.51-.52v-.51l-1-.51h-.51v-1h.51c.52-.52,0-.52-.51-.52s-.51,0-.51-.51l.51-.51c.51-.52.51-.52,1,0,.51,0,0-.52-.52-1-.51.51-.51.51-.51,0-.51,0-.51,0-.51-.52v-1l1-1h-2v-.51l-.52-1v-.52h-6.68l-1,.52H447l-2.05.51h-1.54c-.52.52-.52.52-.52,0-.51,0-.51,0-.51-.51h2.57l-.51-.52,3.59-1h1.54l1-.52,1-.51.51-.52c-.51.52,0,.52.52.52l.51-.52h-1ZM346.75,269h-.52l.52-.51Zm0-8.22c-.52-.51-.52-.51,0-.51Zm0-14.9v-2.06c.51,1,.51,1.54,0,1.54Zm0,.51v0Zm.51-51.39v0Zm0,39.57v0Zm0,9.25c.51.51.51.51,0,.51Zm.51-81.19v0Zm0,3.08v0Zm0,27.24h0Zm1-44.71h0Zm-.51,53.44v0Zm0,89.93v0ZM348.8,142v0Zm0,15.42c.51.51.51.51,0,1Zm.51,42.14c-.51.51-.51.51-.51,0Zm-.51,168.55v0Zm0,31.86v0Zm.51-264.65v0Zm0,27.24v0Zm0,225.59h0Zm1-269.28v0Zm0,7.71v0Zm0,10.79v0Zm0,76.57v0Zm.52,148c-.52-.52-.52-.52,0-.52Zm0-253.87v-.51c.51.51.51.51,0,1Zm.51,4.11v-.51l.51.51Zm0,8.23v0Zm6.68,34.43c-.51.51-.51,2.57,0,5.65-.51,0-.51.51-.51,1v5.14l-.52,6.16v10.28a1.9,1.9,0,0,0-.51,1.54l.51,1.54c-.51.52-.51.52,0,.52v3.08l-.51,6.17v9.76c0,.52,0,1-.51.52v.51c-.52,0-.52,0-.52.51a1.9,1.9,0,0,0-.51-1.54v-6.68h-1v9.77h.51c0,.51,0,.51.52.51,0,.51,0,.51.51,0-.51,0-.51.51,0,1v-1.54H356v3.08l-1,1.54v0a1.89,1.89,0,0,1,.51-1.54v3.6L355,216c-.52.51-.52.51-.52,0v2.57a1.89,1.89,0,0,1-.51-1.54v6.16l-.51,5.14v13.37c0,2.56,0,4.11-.52,4.62v1a1.9,1.9,0,0,1-.51-1.54l-.52-.52V196c.52-.52.52-1.54.52-3.6v-18c-.52-.52-.52-.52,0-.52.51-.51.51-.51,0-1s-.52-.51,0-1v-4.12h.51c-.51-.51-.51-1,0-1v-2.06c-.51-1.54-.51-2,0-2v-9.77a2.27,2.27,0,0,0,0-2.57c0-1.54,0-2.05.52-2.57V142c0-2.06,0-3.08.51-3.6v-2.57l-.51-.51c.51-.51.51-2.57.51-7.2l.51-.51v-3.08L355,124v-7.7c.51-.52.51-2.57.51-6.17v-.52l.52-1v-3.09a45.69,45.69,0,0,0,1.54-10.79c0-1,0-1.54.51-2l.52-2.57V87c.51,0,.51,0,.51-.51a1.89,1.89,0,0,0,1.54-.51l3.08-1.55,2.06-1,2.57-1.55a3.89,3.89,0,0,0,2.05-.51c.52-.51,1-.51,1.55-1l1-.51,1-.52a1.9,1.9,0,0,1,1.54-.51h1l1-.51.51-.52h1a1.89,1.89,0,0,1,1.54-.51l5.66-2.06c.51-.51,1-.51,2.05-.51h-.51c0,.51-1,1-2.57,1.54h-.52l-.51.52h-.51c0,.51,0,.51.51.51a1.89,1.89,0,0,0,1.54-.51l1-.52-2.06,1.54-2.57,1.54.52-.51a1,1,0,0,1,1.54,0h1l.51-.51h1.54l2.57-1.54h1.54l.52-.52-2.57,1.54h-.52l-2.05,1h-.51c-.52,0-1,0-1,.51l-1,.52-3.08,1.54a1.91,1.91,0,0,1-1.55.51c-1.54,1.55-2.56,2.06-4.11,2.06l-2,1-1,.51-5.65,2.57-2.06,1-1,1h-.51v2a1.9,1.9,0,0,0-.51,1.54c0,1.55,0,2.06-.52,2.57v2.57c-.51.52-.51,1-.51,2.57l-.52,2.57v4.63c-.51,0-.51,0-.51.51v4.11l-.51,1v2.57l-.52,1v5.65l-.51,4.62v5.14a1.91,1.91,0,0,1-.51,1.55v2l-.52,4.63v13.36ZM352.4,251c.51.51.51.51,0,1l.51-1h-.51l.51-.52Zm.51-158.8v-.51l.52-.52v.52Zm0,3.6v2c.52-.51.52-2,.52-3.59Zm0,31.86v0Zm.52-34.43.51-.51Zm0,102.78.51-.52v2.06Zm0,60.12v0Zm1-76.57v-1l-.51-1c-.51.51-.51,1,0,1Zm-.51,3.09h.51v1Zm0,5.65c.51.51.51.51,0,1Zm0,1c.51.51.51.51,0,.51Zm0,14.39h.51v.51h-.51Zm0,16.44v0Zm0,1.54v0Zm0,39.06v0Zm.51-85.31v0Zm.52,4.11h-.52c.52,0,.52,0,.52-.51Zm-.52,147v0Zm1-184.49v-.51c.52.51.52,1,0,1Zm0,66.29v-1c.52,0,.52,0,.52.52Zm.52-69.89c.51-.51.51-.51.51,0Zm0,61.67v0Zm.51,7.71-.51,1v-2.06c0,.51,0,.51.51.51Zm-.51,1.54v0Zm.51-72.46c-.51,0-.51,0,0-.51Zm0,43.68v.52a1,1,0,0,1,0-1.55Zm0,1v0Zm.51,28.26h0Zm0-66.8v0Zm0,1.54v0Zm.52,4.62v3.09c-.52,0-.52,0-.52-.52v-2.57c0-.51,0-1,.52-.51Zm0,5.14-.52.52v-.52ZM357,188.27v0Zm0,2.57v0Zm.52-43.17a1,1,0,0,1,0-1.54Zm0-7.19v0Zm0,0v0ZM370.9,237.6h-.52l.52.52-.52-.52c0,.52,0,.52.52.52l2.57,2c0,.52,0,.52.51.52h.52a1.88,1.88,0,0,0,1.54.51c0,.52,0,.52.51.52h.52c.51,0,.51,0,.51.51h1l.51.51h1v-.51h2.57c.51,0,1,0,1-.51h1.54v.51c0-.51,0-.51.51,0,.52-.51.52-.51.52,0v.51h.51v-.51c-.51,0-.51,0-.51-.51h1.54v-.52h.51v-.51c.51.51.51.51.51,0h.52l.51-.52h.52c.51,0,.51,0,.51-.51h.51v-.51H393v-.52h1.54v-.51h.51l.52-.52h.51l.51.52-.51-.52.51-.51h.52l.51-.51h1.54c.52,0,.52,0,.52-.52h1l.52-.51v.51h.51l-.51-.51h.51v.51h.52v-1h1v0c.52,0,.52,0,.52.52.51,0,.51,0,.51-.52h1c0-.51,0-.51.51-.51s1-.51,1.55-1h.51l1-.51.51-.51H411V232h.52v.52H412v0c-.51,0-.51,0-.51.51l1.54-.51v0l.51-.52h.52l.51-.51,1.54-.52h.52l1-1,1.54-.52h.52a1.89,1.89,0,0,1,1.54-.51l.51-.52a1.91,1.91,0,0,1,1.55-.51l.51-.51,2.57-1.55h.51c0-.51,0-.51.52-.51v-.51c.51,0,.51,0,.51.51v-.51c.51,0,.51,0,.51-.52H429l.51-.51H430l1-1,1-.51h.52a1.11,1.11,0,0,0,1-1c.52,0,1.55-.51,3.09-2.06,1-1,1.54-2,1-2.57h.52v-1h.51V215l-.51-1v-.51l.51-.51-.51-.52c-.52-.51-.52-.51,0-.51l-.52-1-1-1v-.51c-.52,0-.52,0-.52-.51l-.51-1-.51-1-.52-1-.51-.51-.52-.52v-.51c-.51,0-.51,0-.51-.51h-.51v-1l-.52-1c-.51,0-.51,0-.51-.51v-.52c-.52,0-.52,0-.52-.51v-.51l-.51-.52c-.51,0-.51,0-.51-.51V198l-.52-.51-.51-1c0-.51,0-.51-.52-.51a1.11,1.11,0,0,1-1-1h-.52l-.51-.51c0-.52,0-1-.51-1v.51h-.52l-.51-.51v-.51c-.52,0-.52,0-.52-.52h-1l-.52-.51c0,.51,0,.51-.51,0,0,.51,0,.51-.52.51h-.51c0,.52,0,.52-.51.52h-.52l-.51.51h-1.54c-.52,0-.52,0-.52.51h-1.54c-.51.52-.51.52-.51,0h-1v.52h-.51c0,.51,0,.51.51.51-.51,0-.51,0-.51-.51h-.52v1c0,.52-.51.52-1,.52l-1,.51H411V197c-.51-.52-.51-.52-1,0h-.51c-.51,0-.51,0-.51.51h-2.57c-.52.51-1,.51-1,1h-1.54l-1.54.51h-1v.52h-1c-.51-.52-.51-.52-.51,0h-.52l-.51.51h-1.54v.51l-.52-.51c-.51,0-.51,0,0,.51h-1l-.52.52h-.51c0,.51,0,.51-.52,0v.51h-.51c-.51,0-.51,0-.51.52-.52-.52-.52-.52-.52,0h-1v.51h-.51c-.51,0-.51,0-.51.51h-.52l-.51.52h-2.06c-.51,0-.51,0-.51.51h-.51c0,.51,0,.51-.52,0v.51l-.51-.51h-.52v.51c0,.52,0,.52-.51.52h-.51c0,.51,0,.51-.52.51,0,.52,0,.52-.51,0v.52l-.52-.52-.51.52h-1a1.1,1.1,0,0,1-1,1v-.51c-.51,0-.51,0-.51.51v.52c-.51,0-.51,0-.51-.52-.52,0-.52,0-.52.52l-.51.51c-.51-.51-.51-.51-.51,0h-.52v.52c-.51,0-.51,0-.51.51v0c0-.51-.52-.51-1.54,0H374l-.51.51-.52.52h-1.54v1h-.51v.51l-.52.51c0-.51,0-.51.52-.51v-1.54h-.52v1.54c0,.51,0,.51-.51.51l-.51.52v.51h-.52V214c-.51,0-.51,0-.51.52v0h-.51c.51.51.51.51,0,.51s-.52,0-.52.52h-.51l-.52.51h-.51v.51c0,.52,0,.52-.51,0,0,.52-.52,1-1.55,1h0c.52.52.52.52,0,1h-.51l-2.06.51v0h-1.54l-1-.51c-.52,0-.52,0,0,.51h-.52l.52.52h1l1,.51h.51c0,.52.52.52,1.55.52h.51v.51l1-.51h1l-.52.51v.51h-1.54l-1.54-.51h-1.54v.51h-.52v.52l.52.51v.51c0-.51,0-.51.51-.51.51.51.51.51.51,1h.52l.51,1v.51l.52.51v.52h.51l.51.51.52,1v.51c.51,0,.51,0,.51.52v.51l.52.52v.51h.51l.51,1V232c.52,0,.52,0,.52.52l.51.51.52,1h.51v.51l.51.51.52.52v0l.51.51,2.06,1,.51.51h-1l-.51-.51v.51c0-.51,0-.51-.52-.51v.51Zm-12.33-98.66v0Zm.51-56h0Zm1,135.16h0Zm1-1h-.51v-.52Zm0,1h0Zm.52-1.55v.52h0Zm0,.52v0Zm.51,0v0Zm.52.51h0Zm0,2.06v-.52c.51,0,.51,0,.51.52Zm1-1.54h0Zm1-2.57v0Zm.52-10.8h0Zm.51,9.77v1l.51-.52v-.51c-.51,0-.51,0,0-.52v-.51c-.51-.51-.51-.51-.51,0s0,.51-.51.51Zm-.51,0v0Zm.51,6.17h.51l-.51.51h-.51Zm.51-6.69h.52c0,.52,0,.52-.52.52Zm1,0h-.51l1-.51h-.52Zm.52,4.63h0Zm.51,26.21v1c-.51,0-.51,0-.51-.52Zm-.51,14.9v0Zm1-56v1.54l-.51-.52Zm0,7.71v0c-.51,0-.51,0-.51-.52v-.51l.51-.52.52-.51v1h0v.51h-.52Zm-.51,2.56v.52h.51a1.9,1.9,0,0,1-.51-1.54l.51-.52v4.11l-.51-1Zm.51,3.09v.51a1.88,1.88,0,0,1-.51,1.54v-.51l.51-1c0-.51,0-.51-.51-.51Zm-.51,1v0Zm.51,4.11v0h0Zm1-44.2v2.57c-.51,3.09-.51,5.14,0,6.17.51,0,.51,0,.51.51v1l-.51,1.54v-1.54l-.51.51a1.88,1.88,0,0,0-.52-1.54,1.87,1.87,0,0,1,.52-1.54,1.87,1.87,0,0,0-.52-1.54c.52-.51.52-1,.52-2.57v-4.11Zm-1,10.28v0Zm.52,6.68h0Zm0,1c-.52.51-.52.51-.52,0Zm0,1a1.86,1.86,0,0,0-.52,1.54v-2.06C368.84,197,368.84,197,369.36,197Zm-.52,16.44v0Zm0,7.2v0Zm0,13.36v0Zm0,26.21v0Zm.52-66.81c-.52-.51-.52-.51,0-.51Zm3.59,92.5v-1l.52-6.68V272c0-3.59,0-5.65-.52-6.16v-4.63l.52.52V251.48A1.87,1.87,0,0,1,373,253v1.54c-.51,0-.51,0-.51-.51,0-1.54,0-2.06-.51-2.57v-3.6c0,.52,0,.52-.52,0v-1l-.51-.51.51-1v-.51c0-.52,0-.52.52-.52v.52a2.26,2.26,0,0,0-.52-2.57v-2.06l.52-.51h.51l-.51-1.54-.52-.52v-4.11l.52-2.05.51,1.54V229.9l-.51-1c0-.52,0-1,.51-1v-.51a1.91,1.91,0,0,1,.51-1.55v-1c-.51,0-.51-.52-.51-1v-1c-.51,0-.51-.51-.51-1.54v-2.57c0-4.11,0-6.17.51-6.68v-44.2l.51-.51c-.51,0-.51-.51,0-1l-.51-1v-4.62c.51,0,.51,0,.51-.51v-.52c-.51,0-.51,0-.51.52V158l-.51-1v1c0,1.54,0,3.08-.52,3.6l-.51-.52v-.51l-.52.51c.52.52.52.52,0,1v1l.52.51c-.52,0-.52,0-.52.52v2.57l-.51,4.11v2c0,1.55,0,2.57-.51,3.09V170.8c0-.52,0-.52.51-.52v-2.05c-.51,0-.51,0-.51-.52a1.88,1.88,0,0,0,.51-1.54V161c0-1.54,0-2.05-.51-2.57v-3.08c0-.51,0-.51.51-.51l.51-1V152.3c-.51-.52-.51-1,0-1v-4.63l.52-.51v-.51c-.52,0-.52,0-.52-.52.52-.51.52-1,.52-2v6.68h1v1.54h1l.52-.51a1.91,1.91,0,0,0,.51-1.55q-.76-.77,0-4.62v-5.65c.52-.52.52-1.55.52-3.09v-4.62c.51-.52.51-1.54.51-3.09v-3.08l.51-4.11v-1.54c.52,0,.52-.52.52-1.54v-5.14l.51-1v-.51c-.51-1-1-1.55-.51-2.06s.51-1,.51-2.06v-1.54c.52-.51.52-1,.52-2v-1c.51,0,.51-.51.51-1l.51-.51v-.52c.52,0,.52,0,.52-.51s.51-.51,1-.51l.52-.52h.51l2.06-.51h.51l2.06-1-.52.51-.51.52a1.11,1.11,0,0,1-1,1c-.51,0-1,0-1,.51h-.51c0,.51,0,.51-.51.51h-.52l-1,.52c0,.51,0,.51-.51.51h-.51v1c-.52.51-.52.51,0,1V104l.51-1v-1.54h.51v-.51c.52,0,1,0,1-.52l2.06-.51-.52,1,2.06-1h.51l2.06-1h.51l-1.54,1a1.11,1.11,0,0,0-1,1h.52v.51c-.52,0-1,.52-1.54,1a1.91,1.91,0,0,1-1.55.51v.52h-.51v5.65l-.51.51v3.09a1.87,1.87,0,0,1-.52,1.54v1.54l-.51,4.11v4.63l-.52,4.62v1l-.51,2.06-.51,3.59v7.2l-.52,1V159c0,1.54,0,2.57-.51,3.08v7.71l-.51.51v.52c.51,0,.51,0,.51.51v2.06l-.51,2v9.77l-.52,3.08v17a1.89,1.89,0,0,1-.51,1.54V215l.51-.51V215c-.51,0-.51,0-.51.52v13.87l-.52,11.31v6.68c-.51.51-.51,1-.51,2.57v16.44L374.5,271c0,.51,0,.51-.52.51v6.68c-.51,2.06-.51,5.65-.51,11.31v1A1.89,1.89,0,0,0,373,289Zm-3.59-109.46v0Zm.51,35.46v.51l-.51-.51Zm-.51,12.85v0Zm.51,11.82v0Zm.51.51h0Zm0-27.24c.52-.51.52-.51.52,0S370.9,210.37,370.38,209.85Zm0,26.73v0ZM385.29,93.71h-.52v.52a4.7,4.7,0,0,0-2.57,1.54l-2.57,1-1,.51-1,1h-.51l-.52.51H376v2.06c-.52.51-.52,1-.52,2l-.51,4.11-.51,1.55v1.54l-.52,1c.52,0,.52.51,0,1v.52c-.51,0-.51,0-.51.51l-.52,3.09c-.51,1.54-.51,2.56,0,3.08,0,1,0,1.54-.51,2v6.17c-.51.51-.51,2.06-.51,4.11v2.06l-.52,2.57v-.52c0-1,0-1.54-.51-2l.51-1v-3.08a1.89,1.89,0,0,0,.52-1.55v-.51a1.54,1.54,0,0,1,0-2v-5.14a1.91,1.91,0,0,1,.51-1.55v-2.56c0-1.55,0-2.57.51-3.09v-2.57l-1-1v-4.11a1.9,1.9,0,0,1,.51-1.54v3.08c.51,0,1-1.54,1.54-4.11v-1a1.89,1.89,0,0,1,.52-1.55v-2H375v-.52h1.54c0-.51.52-.51,1.54-1l2.06-1h.51c0-.51,0-.51.52-.51h.51l1.54-1,1-.52h1ZM370.9,139.45c0-1.54,0-2.06.51-2.06v.52c0,1.54,0,2.57-.51,2.05Zm0,2.57v-.51c.51.51.51.51,0,1Zm0,9.76.51.52-.51,1Zm0,79.14v0Zm0,6.68h.51v.52Zm0,1c0-.51,0-.51.51,0C370.9,238.12,370.9,238.12,370.9,238.63Zm.51,12.85v-1l-.51-.51c.51-.52.51-.52,1,0v.51Zm.52-12.85h-.52v-.51Zm0,32.89c.51,0,.51,0,.51-.51v1a1,1,0,0,1,0,1.55v1.54l-.51-1c0,.51,0,.51-.52,0l.52-2.06Zm-.52,17v0Zm.52-1c-.52-.51-.52-.51,0-1Zm0-131.56v-.51l.51,1Zm0,69.89v0Zm.51,1h-.51l.51-.51Zm0,.52h0Zm-.51,8.73.51,1c-.51.51-.51.51-.51,0Zm0,4.63v-.52c.51.52.51.52,0,1Zm0,5.14.51.51-.51.51Zm.51-142.35v0Zm0,6.68v0ZM373,220.65v1.54l-.51-.52Zm-.51,18,.51.52Zm.51-30.32v1.54a1.56,1.56,0,0,1,0-2Zm0,8.22c-.51-.51-.51-.51,0-1Zm0,2.06v1a1,1,0,0,1,0-1.54ZM373,196l.52-2.06v2.57Zm0,1.54c.52.51.52.51,0,1Zm0,2.06v-.52l.52.52c0,.51,0,.51-.52.51Zm0,1c.52.52.52.52,0,1Zm0,2.57.52-.51a1.87,1.87,0,0,1-.52,1.54Zm0,7.2v0Zm0,1.54v0Zm0,1v0Zm0,24.66h0Zm1.55,2.06-1.55-.51h.52Zm-1.55,20,.52.52c-.52,0-.52,0-.52.51Zm.52-161.88v0Zm.51,78.63h0Zm-.51,5.14v-1H374c0,1,0,1.54-.51,2.06Zm0,3.08v-.51c0-.51,0-.51.51-.51Zm0,1v-.51l.51.51c-.51,0-.51,0-.51.51Zm0,3.6v0Zm0,2v0Zm0,35.46H374v1Zm0,3.6H374v2.06Zm0,3.08v0Zm.51,2.57h-.51l.51-.51Zm-.51,12.85v0Zm0-11.31v0Zm.51-61.66c-.51-.52-.51-.52,0-1Zm0,3.59c-.51-.51-.51-.51,0-.51Zm0,55c-.51-.51-.51-.51,0-1Zm.52-71.43v1.54l-.52-.51v-1c.52,0,.52,0,.52-.51Zm0,3.6H374v-1l.52-.52Zm0,1.54-.52.51v-1Zm-.52,1.54v0Zm0,2.06v0Zm0,2v0Zm0,43.17h0Zm0,1.54h0Zm0,3.08.52-.51a1.87,1.87,0,0,1-.52,1.54Zm0,2.57v0Zm0,4.63v0Zm0,6.16v0Zm0,2.57h.52v.52ZM374.5,214v.52c-.52-.52-.52-1,0-1Zm0,2.06c-.52-.51-.52-.51,0-.51Zm0,3.08c-.52-.51-.52-.51,0-.51Zm0-144.4.51-.51Zm0,75.54v-2.05c0-.52,0-.52.51-.52v2.57Zm0,4.11v0Zm0,5.66v0Zm.51,41.62-.51-.51H375Zm-.51.52.51.51-.51,1v-1.54Zm0,7.7h0Zm0,2.57v0Zm0,8.23v0Zm.51-76.57v0Zm0,1v-.51c.51.51.51.51,0,1Zm0,2.06v0Zm0,47.28v0Zm0,1v0Zm0,0v0Zm0,1v0Zm0,3.6v0Zm32.38,5.14v.51h-.52l-1,.52h-1l-1,.51v.51h-1.54l-1,.52h.51l.52.51v-.51l.51.51c-.51,0-.51,0-.51.52v.51h0v.51l-.52.52-.51-.52v-.51c-.52,0-.52,0,0,.51,0,.52,0,.52-.52.52v0l-1,.51-.52-.51v-.52l-.51.52c.51,0,.51,0,0,.51v-.51h-.52l-.51.51v.52a1,1,0,0,1-1.54,0l-.51.51c0,.51,0,.51-.52.51h-1v.52c0-.52-.51,0-1,.51h-.52c-.51,0-.51,0-.51.51h-.52v.52h-1c-.52,0-.52,0-.52.51h-.51v.52c0,.51,0,.51-.52.51h-.51v0h.51c-.51,0-.51,0-.51.51v.52l1-.52v1h2.05v-.51H392v.51h-1v.52h-1v1h-1v-.51l-.51.51v0h-1v.52l-.51-1h1l-.52-1v-1c-.51,0-.51,0-.51-.51s0-.51-.51,0l-.52.51h-1l-.51.52h-1v.51c0,.52,0,.52-.51,0l-.52.52-.51-.52-.51.52c0,.51,0,.51-.52.51h-.51c.51.51.51.51,0,.51-.52-.51-.52,0-.52.52-.51-.52-.51-.52-.51,0h-.51c0-.52,0-.52-.52-.52v.52h-.51v.51c-.51-.51-.51-.51-1,0H376c0-.51,0-.51.51-.51v-1l.52.51v-.51h.51l.51-.51c0-.52-.51,0-1,.51h-.52v-.51H376c0,.51,0,.51-.52.51l-.51-.51.51-.52v-.51l-.51-.52h.51V216l.52-.51,1-1h1c.52,0,.52,0,.52-.52h.51l.51-.51h1.55v-.51l.51.51.51-.51h.52v-.52h1c.51,0,1-.51,1.54-1h.51l.52-.52h1.54c0-.51,0-.51.51-.51h1c0-.52,0-.52.51-.52h1l.51-.51H392c.51,0,.51,0,.51-.51h1v-.52h1.54v-.51h1l.51-.52c.52.52.52.52.52,0l2.05-.51.52-.51.51.51h.51c0-.51,0-.51.52-.51l1-.52h.51c0-.51,0-.51.51,0,0-.51.52-.51,1,0h.52c-.52,0-.52,0-.52.52l.52-.52h.51l.51-.51c1-.52,1.55-.52,2.06,0ZM375,209.85v0Zm.51-136.18h1c0-.51,0-.51.52-.51l-.52.51Zm0,44.2v0Zm0,13.36c0-.52,0-.52.52-.52-.52-.51-.52-.51,0-1v2.05Zm0,4.62v-2H376v1.54Zm0,.52v0Zm0,1v0Zm0,1v-.51l.52.51c-.52,0-.52,0-.52.52Zm0,1v0Zm0,1v0Zm0,.51v0Zm.52,30.84-.52.51v-.51Zm-.52,3.59v0Zm0,3.09v0Zm0,7.19v0Zm0,35v-.52c0,.52,0,.52.52.52Zm1-124.88h0Zm0,29.29v.52a1.56,1.56,0,0,0,0,2v.51a18.19,18.19,0,0,1-.51-3.08Zm-.51,3.6v0Zm.51,87.36h0Zm-.51,1.54v0Zm0,3.09v0Zm1-102.27v-2.57l-.52,5.14v.51Zm-.52,32.38v0Zm0,65.77v0Zm0,1.55v0Zm.52-72c-.52-.51-.52-.51,0-.51Zm0-72.46h0Zm0,41.11v-.51l.51-1v1.54Zm0,1v0Zm0,22.1c.51,0,.51,0,0,.51Zm0,4.11v0Zm0,41.11v0Zm0,25.7v0Zm1.54-103.3-.52,1c.52,0,.52,0,0,.51v.52c0,.51,0,.51-.51.51v-1.54a1.89,1.89,0,0,1,.51-1.54c0-.51,0-.51.52-.51Zm-1,3.6h.51l-.51.51Zm0,1c.51.51.51.51,0,.51Zm0,1.54v0Zm0,21.58v0Zm0,.52v0Zm.51,88.9v.51h-.51c0-.51,0-1,.51-1v-.52c.52,0,1-.51,1.54-1h1c.52,0,.52,0,.52-.52l.51.52c.51,0,1,0,1-.52h.51c.52.52.52.52.52,0l1-.51h.52c0-.52,0-.52.51,0v.51h-1.54l.51.52c-.51.51-.51.51-1,0h-1l-.52.51-.51.51.51,1-.51.51v-1h-1.54c0,.51,0,.51-.52.51l-.51-.51v.51h-.51v.51h-.52Zm-.51,18v0ZM378.09,123v-1.55c.52.52.52,1,0,2.06Zm0,2v0Zm0,2.06v0Zm.52,90.44h.51v.52h-1Zm.51-101.75h-.51c.51,0,.51,0,.51-.51Zm-.51,109v0Zm1-7.2h0Zm-.51,168.05h0Zm.51-168.56h.52v.51h-.52Zm.52,25.18c0,.51,0,.51-.52,0Zm-.52,40.08v0Zm0,87.36h0Zm1-152.62c-.51.51-.51.51-.51,0Zm-.51,7.19v0Zm0,18.5v0Zm.51,20.56h0ZM380.15,289c.51,0,.51,0,.51.52Zm0,25.18v0Zm0,44.71v0Zm0,2.06v0Zm1-259c0,.51,0,.51-.52.51ZM380.66,215h0Zm.52,1.54h.51c0,.52-.51.52-1,.52Zm-.52,137.73v0Zm.52,2.05h0Zm.51-254.89h0Zm-.51,1.54h0Zm.51,120.25h0Zm-.51,1c.51.52.51.52,0,.52Zm0,23.13h0ZM382.72,93.2l-1,.51V93.2a1.89,1.89,0,0,1,1.54-.51Zm-1,7.19h0Zm.51,57.05V158l-.51-2.06.51.52v.51h1c0,.52,0,.52-.51.52,0,1,0,1.54-.52,2.05Zm-.51,48.82v0Zm0,8.22v0Zm0,6.17v0Zm11.82,9.25h1l.51-1c0,.51,0,.51.52.51v-.51h.51c.51-.52,1-.52,1,0l.51-.52h1c0-.51,0-.51.51-.51s.52,0,.52-.51l1-.52h2.06v1.54h-1c0,.52,0,.52.52.52v.51c.51,0,.51,0,.51-.51h1v-.52c0-1-.52-1.54-1-1.54,0-.51,0-.51.51-.51v.51c.52.52.52.52.52,0h.51c0,.52,0,.52.52.52v.51h.51a1.89,1.89,0,0,1,1.54-.51h1c0-.52,0-.52.51-.52,0-.51,0-.51.52,0h1v.52c.52.51.52.51,0,.51l-1,.51h-1v.52h-.51l-.52.51h-1v.52h-1v.51h-1l-.52.51h-.51c-.51,0-.51,0-.51.52h-1c0,.51,0,.51-.52.51-.51.52-.51.52-.51,0v.52h-.51V233c-.52-.51-.52-.51-.52,0h-1c0,.51,0,.51-.51.51h-.51l-.52.52h-.51v.51h-1.54l-1,1-1,.51v-.51c0,.51,0,.51-.51.51h-.52l-1.54,1h-1l-.51.51h-.51c0,.52,0,.52-.52.52h-.51v.51h-1l-2.05-.51h-.52l.52-.52h.51l-.51-.51h-.52l.52-.51v-.52h-1c0-.51,0-.51-.52-.51h-.51V235h1.54l1-.51V234h1c0-.52,0-.52.51-.52l.52-.51h.51l.51-.51h.52c0-.52,0-.52.51,0,0-.52,0-.52.51,0V232h.52v-.51h1v-.52h1a1.91,1.91,0,0,0,1.55-.51v-.51Zm-11.82,7.7v-.51h.51v.51Zm0,0v0Zm0,6.17h0Zm0,.51h.51v.52Zm0,15.42v0Zm0,3.6v0Zm1-161.36h-.52l.52-.52Zm-.52,80.16v0Zm0,6.17v0Zm0,28.26V216h.52Zm0,9.77v0Zm0,1.54v0Zm.52,9.76h-.52c0-.51,0-.51.52-.51Zm0,5.14h0Zm1-165.47-1,.51c-.52,0-.52,0,0-.51Zm-.52,23.64.52.51h-1Zm-.51,71.43h0Zm.51,10.28-.51-.52Zm0,24.66h0Zm-.51,7.2v0Zm.51,1.54c0,.51,0,.51-.51,0Zm-.51.51v0Zm0,20.56h0Zm.51-144.4v0Zm0,83.76h0Zm0,5.14v0Zm.52,25.69.51.52-.51.51v-1.54h0v.51c0-.51,0-.51.51,0Zm0,8.74c-.52,0-.52,0,0-.51Zm0-144.92c0-.51,0-.51.51-.51Zm0,85.31h0Zm0,11.82v0Zm.51,6.17-.51,1v-.51Zm0,63.2-.51-.51Zm-.51,4.63v0Zm.51-92V148.7l.51,1.54Zm.51,1.54h0Zm0,13.36-.51-1c0-.52,0-.52.51-.52ZM384.26,214v0Zm0,1.55v0Zm0,0h0Zm.51-78.12v0Zm0,5.14v0Zm.52,52.93h0Zm-.52.52v0Zm0,6.17c0-.52,0-.52.52-.52Zm0,2.56v0Zm0,37.52v0Zm.52.51-.52-.51Zm0-27.23c-.52-.52-.52-.52,0-.52Zm.51-27.75h0Zm0,16.44c-.51,0-.51,0-.51-.51Zm-.51,11.31v0Zm.51,26.72c0,.51,0,.51-.51,0Zm-.51,0v0Zm2.57-145.95h-.52l-1.54,1c0-.51.52-1,1.54-1.54Zm-2.06,23.64h0Zm0,95.07h0Zm0,0v0Zm0,4.63.52-.52v.52Zm.52-44.71c-.52-.51-.52-.51,0-.51Zm1-105.35-1,.51v-.51ZM386.83,215h-.51c0-.51,0-.51.51-.51Zm.51-107.92h0Zm-.51,4.12v0Zm1,103.29h-.52l.52-.52Zm-.52-106.89h0Zm0,135.15h0Zm1-167.53h.51c0,.52-.51.52-1,.52Zm-.51,20.56h0Zm0,110.49v0Zm0,4.11h0Zm.51,2h-.51v-.51h.51Zm-.51,1.54h0Zm0,2.57c.51,0,.51,0,.51.52Zm0,1v0Zm1-3.6h0Zm0-12.84h0Zm0,12.33c.52.51.52.51,0,.51Zm0,27.75v0Zm1.55-166.5c0-.51.51-.51,1-.51l-1.54,1h-.51Zm-1,23.12c.51-.51.51-.51.51,0Zm.51,115.63h0Zm-.51.51v0Zm.51-145.43c.52,0,1,0,.52.52Zm0,143.38v0Zm0,1,.52.51h-.52Zm.52-143.89h0Zm0,172.15v0Zm0,1v0Zm1-148h0Zm0,118.71c-.51.51-.51.51-.51,0ZM392,93.71h0Zm0,2.57v.52h-.52Zm-.52,116.14H392v.52ZM392,68l1-.51Zm3.08,4.62v.52l-2.57,1H392l.51-.52Zm-2.57,139.78-.51.52v-.52Zm-.51,4.63h0Zm.51,14.39h0Zm0-13.88c-.51-.51-.51-.51,0-.51ZM393,67h0Zm-.52,143.38v0Zm0,6.16v0c.52,0,1,0,1-.51v-1l.51,1v.51c0,.52,0,.52-.51,0v.52c0-.52,0-.52-.51-.52v.52h-.52v-.52Zm0,14.91c0-.52,0-.52.52-.52Zm0,8.73v0ZM393,76.24v0Zm.51,134.13h0Zm0,2H393c0-.51,0-.51.51-.51ZM393,233v0Zm0,6.17v0Zm.51,1.54h0ZM394,66.48h0Zm-.51.51h0Zm0,143.38v-.52l.51.52Zm.51,1.54c0,.51,0,.51-.51,0Zm-.51,18.5H394v.51h-.51Zm0,0v0ZM394,233h0Zm.52-31.35h0Zm0,10.28h0Zm-.52,4.62v0Zm0,22.1v0Zm.52-26.72v-.51c.51,0,.51,0,.51.51Zm0,4.11h0Zm0,13.88v0Zm1-13.88c-.52,0-.52,0-.52-.51Zm-.52,0v0Zm0,23.13c0-.52,0-.52.52,0Zm1-162.39h0Zm5.65,25.69,1-1v.52c.51,0,.51,0,.51.51h-.51L400.19,104a1.87,1.87,0,0,1-1.54.52c0,1-1,1.54-2.57,1.54v.51l-.51-.51c.51,0,.51,0,.51-.52h.51V105l1-.51h1l.51-.52h0l.52-1,1-.51h.52v-.51h.51Zm-6.16,106.89v0Zm0,6.17v0Zm0,23.12v0Zm.51-166c-.51,0-.51,0,0-.51Zm0,128.48v0Zm0,8.22v0Zm0,.51v0Zm.51,1c-.51.52-.51.52-.51,0ZM397.11,66h0Zm0,5.66c0,.51,0,.51-.52.51Zm-.52,137.21c.52.51.52.51,0,.51Zm.52.51h0Zm0,0h0Zm0,1c0,.51,0,.51.51,0Zm0,0v0Zm.51-9.25v0Zm1,13.87h-1l.51-.51Zm-.52-13.36v0Zm0,7.2h0Zm1-8.23h0Zm0,8.23h0Zm-.51,1.54v0Zm0,0v0Zm0,1v0Zm0,3.08h0Zm0,22.61v0Zm.51-172.67v0Zm0,144.41c0-.52.52-.52,2.06-1v.51a1.86,1.86,0,0,0-1.54.52Zm0-.52v0Zm0,.52v0Zm0,5.65v0Zm0,16.44v0Zm0-.51v0Zm.52-30.32v0Zm0,9.76h0Zm0,28.27v0Zm2.05-28.78v.51c0-.51,0-.51-.51-.51Zm.52,20c0,.52,0,.52-.52.52Zm.51-3.08c0,.51,0,.51-.51.51Zm.51-13.36v.51c0-.51,0-.51-.51-.51Zm-.51,13.36c.51.51.51.51,0,.51Zm0,2.57v0Zm.51-28.78v0Zm0,26.21h0Zm0,0v0Zm.52,7.71-.52-.52Zm0,.51h0Zm1,1h0Zm.51-27.75v-1h.51v1Zm1,1h0Zm-.52,18.5v0Zm1-130h0Zm7.2-3.08h.51l2.57-1-5.65,3.08c-1.55.52-2.06,0-1.55-.51s1-.51,2.06-.51l1-.52a.5.5,0,0,0,.51-.51Zm-3.6,132.07H411c0,.51,0,.51-.51,0v0Zm0,6.17v0ZM412,232h0Zm.51-135.67h0Zm2.06-.51h-.51l.51-.51Zm-.51,98.15v0Zm0,.52v0Zm1,0h0Zm1.55-100.21h0Zm.51-36v.52c0-.52,0-.52.51-.52Zm1,34.44h-.52a3.91,3.91,0,0,1,2.57-1Zm3.08-.52,2.06-1.54,1-.51a1,1,0,0,0-1.54,0l-.51.51c0-.51.51-1,2-1.54h-1l-1.55,1-.51.51v.51l-2.57,1.55c-.51,0-.51,0-.51.51h.51l1-.51Zm-2.57,137.21h0Zm.51-35.46v0Zm.52,0v0Zm1-101.75h0Zm.51-2h0Zm.51,1h0Zm.52-4.62h0Zm2.57-28.78-.52.51Zm.51-2.57h0Zm-.51,34.43.51-.51h.52Zm.51-34.43.52-.51v.51Zm2.06,32.89h.51l-1,.51Zm.51,0h-.51l1-.51Zm-.51-.51v0Zm2.05,133.1h0Zm3.6-141.84h.51l-2,1h.51Zm1.54-21.07h0c0-.51,0-.51.52-.51Zm1.54,20.56-2.05.51,1-1c.51,0,1,0,1-.51h.52l3.08-1h-.51c0,.52,0,.52-.52.52Zm1,147.48v0Zm1.54-169.07h0Zm0-2.57c.52-.51,2.57-1,6.68-2-1,0-1.54,0-2.05.51a1.88,1.88,0,0,1-1.54.52,1.91,1.91,0,0,0-1.55.51A1.88,1.88,0,0,1,438.73,54.14Zm0,27.24h0Zm4.63-2.06-2.06,1a1.9,1.9,0,0,1,1.54-.51Zm0,1-.52.52v-.52Zm1-3.59c0,.51,0,.51-.52.51,0-.51.52-.51,1-.51Zm-.52,3.08c.52,0,.52,0,0,.51l1-.51c.51,0,.51,0,.51-.52,0,.52,0,.52-.51.52Zm3.6-28.27v.52h-1.54l.51-.52Zm-1,27.75c.51,0,.51,0,.51-.51Zm1-.51h0ZM448,51.57l1-.51,1-.51.51.51H450Zm0,25.7h0Zm2.57-26.72c0-.52,0-.52.52-.52Zm.52,1h0Zm.51,2.57c0,.52,0,.52-.51.52Zm-.51,19h0Zm2.57-23.64c0,1-.52,1-1,.51l-1,.52h.51l-.51-.52h1.54l.52-.51v0Zm-2.06,3.08h0Zm1-3.08h0Zm1,2h0Zm1,23.13h0Zm.52-23.64c.51,0,.51,0,0,.51Zm4.62,4.63h0Zm.52,0h0Zm.51,15.41h0Z" style="fill:#c70039"/></svg>