<svg xmlns="http://www.w3.org/2000/svg" viewBox="0 0 476.12 479.32"><title>Artboard 8</title><circle cx="238.06" cy="239.66" r="238" style="fill:#ffec00"/><path d="M22.35,390.49v0Zm2.45.49v0ZM126.66,70.22h-.49l.49-.49h1l-.49-.49c1.47,0,2.44,0,2.93-.49l-.49-.49h-1.46c-2.94,0-4.9,0-6.37.49h-2l-.49.49-1.47.49h-1.47l-2,.49-2.45.49-1,.49-.49.49H109a1.8,1.8,0,0,0-1.47.49,1.8,1.8,0,0,1-1.47.49h-1.47l-1,.49a1.8,1.8,0,0,1-1.47.49l-1,.49c0-.49-.49-.49-1,0l-2.94,1a1.8,1.8,0,0,1-1.47.49c-2,0-2.93.49-2.93,1.47h-.49l-1,.48L88,79,83.56,80.5,82.09,81l-2.45,1h-.49c0,.49,0,.49-.49.49h-1L77.2,83a4.45,4.45,0,0,1-3.43,1.47l-2,1-1.47.49a3.74,3.74,0,0,1-2.45,1h.49c-1.47,0-2,.49-2,1h-.49c-.49-.49-.49-.49-1,0a1.8,1.8,0,0,1-1.47.49c-.49,0-1,0-1,.49l-1,.49-2.44,1,1-1v-.49l-1,.49c-.49,0-.49,0-.49.49v.49l-1,.49-1,.49c-.49-.49-.49-.49-.49,0l-.49.49h-.49l-2,1-1,.49c-.49,0-.49,0-.49.49h-.49l-.49.49-2,1-2,1a6.46,6.46,0,0,0-3.42,1.47h.48a1.79,1.79,0,0,0-1.46.49l-.49.49c-1,0-1.47.49-1.47,1-.49-.49-1,0-2,.49H39l-.49.49c-1,0-1.47,0-2,.49l-.49.49-1,.49v1a1.8,1.8,0,0,1-.49,1.47A1.8,1.8,0,0,0,34.1,106v2.94a1.8,1.8,0,0,0-.49,1.47v2l-.49,2c-.49.49-.49,1.47-.49,2.94v1l-.49,2v3.92l-.49.49v3.91L31.16,130v5.39c-.49.49-.49,1-.49,2.45v5.39c-.49.49-.49,1.47-.49,3.42v8.82a1.8,1.8,0,0,0-.49,1.47v.49H29.2l.49.49v12.73a1.8,1.8,0,0,0-.49,1.47c0,3.43,0,4.9-.49,5.39v5.38c0,1.47,0,2.45-.49,2.94v6.86h-.49v.49c.49,0,.49,0,.49.49V199c0,.49,0,.49-.49.49V200l.49.49v2l-.49.49v1c0,.49,0,.49-.49,0v40.16c-.48,0-.48,0-.48.49v1h-.49c0,.49,0,.49.49.49v4.4c0,.49,0,1-.49,1v-.49l-.49-1v7.35h0v20.57l.49.49-.49.49.49,2.45v6.36L25.78,295v16.16c.49.49.49,2,.49,4.89L25.78,320l1,20.08v15.18h.48a1.82,1.82,0,0,0-.48,1.47l.48,2.45v17.14l.49,4.9v3.91c0,17.14,1,26.94,2.45,29.39v2.94l.49,1.95.49,2,1,2v2l.49,1h.49l.49.49,1,.49,1-1H37v.49h1l1.47,1c.49.49,1,.49,1.47-.49h.49l.49.49,1-1h.49c0,.49.48,1,1.46,1l1,.49.49.49h1.47l.49.49h.49v1c.49,0,.49,0,.49-.49,0-1,.49-1.47,1.47-1,0,.49,0,.49.49,0v-1.47l1,.49a1.8,1.8,0,0,1,.49-1.47l.49-1v-1h.49v1a1.05,1.05,0,0,0,1-1v-3.43h-.49v-1l.49-.49v-1h.49l1,2c.49-.49.49-1,.49-2.45l-.49-1,.49-.49c0-1,0-1.47.49-2v-1c.49,0,.49-.49.49-1-.49-1-.49-1.47,0-2v-4.41a.92.92,0,0,1,0-1.47V392c-.49-.49-.49-.49,0-1v-6.86a1.78,1.78,0,0,1,.49-1.46V375.8l.49-3.92c0-1.47,0-2-.49-2.45l.49-1v-4.89h.49a1.8,1.8,0,0,1-.49-1.47v-2.45l-.49-.49v-1l.49-.49h.49l-.49-.49c.49-.49.49-.49,0-1-.49,0-.49,0-.49-.49V341c-.49-.49-.49-1-.49-2.45v-2l.49-.49-.49-1v-.49c.49-.49.49-1.47.49-3.91V310.18c.49-1,.49-2.94.49-6.37v-5.87a1.8,1.8,0,0,1,.49-1.47v-2.94l.49-9.31V272.47c.49-.49.49-.49,0-1V269c.49-.49.49-1,.49-2s0-1.47-.49-2v-1.46a1.8,1.8,0,0,1,.49-1.47v-1c-.49,0-.49-.49-.49-1,.49-.49.49-1,.49-2.45v-3.43l.49-1.47c0-.49,0-1-.49-1v-3.43c.49-.49.49-1,.49-2.44l-.49-3.43a2.45,2.45,0,0,0,0-2.94v-1.47c.49-.49.49-.49,0-1v-.49c.49-.49.49-1,.49-2v-2c-.49,0-.49-.49-.49-1a.91.91,0,0,0,0-1.46l.49-1v-2.45l-.49-1a1.8,1.8,0,0,0,.49-1.47V202l.48-.49c0-1.47,0-2,.49-2v-3.42c-.49-.49-.49-.49,0-1v-8.33c0-1,0-1.47.49-1.47l.49-1v-.49c-.49,0-.49,0-.49-.49l-.49-1v-2.93c-.49,0-.49,0,0-.49l.49-1v-2a3.12,3.12,0,0,1,0-2.94l-.49-.49v-2H62v-2.45l.49-1v-1L62,162.77l.49-1v-2.45c.49,0,.49,0,.49-.49v-1.47c0-1.47,0-2-.49-2.45,0-1.47,0-2,.49-2.45V152l.49-1.47a1.8,1.8,0,0,1-.49-1.47v-2.45a1.77,1.77,0,0,1,.49-1.46v-6.86c.49-.49.49-1,.49-2v-4.41a1.8,1.8,0,0,0,.49-1.47c0-.49,0-.49-.49-.49a1.8,1.8,0,0,0,.49-1.47L65,128v-3.92h.49v-.49l.49-.49h.49c.49,0,.49,0,.49-.49h.49c.49.49.49.49,1,0v-1l.49-.49h1a1.05,1.05,0,0,1,1-1l2.45-1.47h.49l-2,1.47-1,1-1,.49h-.49v1c.49,0,.49,0,.49-.49l2.94-2,1-.49v-.49l.49-.49c.49-.49,1-1,1.47-1v.49l.49-.49h.49l2-1.47h.49l1-.49,1.47-1c0-.49,0-.49.49-.49s.49,0,.49.49v-.49l1-1a1.8,1.8,0,0,0,1.47-.49l.49-.49H86c0-1,1-1.46,2.45-1.46l1.47-1,.49-.49.49-.49a6,6,0,0,0,4.4-2,3.74,3.74,0,0,0,2.45-1h.49l.49-.49c0-.49.49-.49,1-.49s1,0,1-.49.49-.49,1-.49l.49-.49h.49c0-.49.49-.49,1-.49a1.8,1.8,0,0,0,1.47-.49l2-1,1-.49c.49,0,.49,0,.49-.49A7.55,7.55,0,0,1,112,99.11h-.48c.48-.49,1-.49,2-.49-.49-.49,0-1,1-1.47a1.8,1.8,0,0,1,1.47-.49c.49,0,.49,0,1-.49l3.92-1.47,2.94-1.46a1.8,1.8,0,0,1,1.47-.49c.49,0,.49,0,.49-.49h1l.49-.49,4.4-1,3.92-1,.49-.49v-.49a1.8,1.8,0,0,0,1.47-.49c-1,0-1.47,0-2,.49s-1,.49-2.45.49h-2l-2,1v-.49l-5.38,1.47h-1l-1,.49-4.9,2-1,.49a1.82,1.82,0,0,0-1.47.48l-1.47.49-1,.49c.49,0,.49,0,.49-.49l2.45-1.46a3.74,3.74,0,0,1,2.45-1l2.45-1.47,2-.49h.49l12.24-3.43,2.94-1.47,1-.49v-.49h-1.47l.49-1,1-.49h-.49a1.8,1.8,0,0,1-1.47.49H135c0-.49,0-.49-.49-.49L134,83l-.49-.49c-.49,0-.49,0,0-.49.49,0,.49,0,.49-.49V81l-1-.49h-.49v-1H133c.49-.49,0-.49-.49-.49s-.49,0-.49-.49l.49-.49c.49-.49.49-.49,1,0,.49,0,0-.49-.49-1-.49.48-.49.48-.49,0-.49,0-.49,0-.49-.49v-1l1-1h-2v-.49l-.49-1v-.49h-6.36l-1,.49h-1.47l-2,.49h-1.47c-.49.49-.49.49-.49,0-.49,0-.49,0-.49-.49h2.45l-.49-.49,3.43-1h1.47l1-.49,1-.49.49-.49c-.49.49,0,.49.49.49l.49-.49h-1ZM26.27,277.37h-.49l.49-.49Zm0-7.84c-.49-.49-.49-.49,0-.49Zm0-14.2v-2q.74,1.47,0,1.47Zm0,.49v0Zm.49-49v0Zm0,37.71v0Zm0,8.81c.48.49.48.49,0,.49ZM27.24,176v0Zm0,2.94v0Zm0,25.95h0Zm1-42.6h0Zm-.49,50.93v0Zm0,85.69v0Zm.49-142.5v0Zm0,14.69c.49.49.49.49,0,1Zm.49,40.16c-.49.49-.49.49-.49,0Zm-.49,160.62v0Zm0,30.36v0ZM28.71,150v0Zm0,26v0Zm0,215h0Zm1-256.61v0Zm0,7.35v0Zm0,10.28v0Zm0,73v0Zm.49,141c-.49-.49-.49-.49,0-.49Zm0-241.92v-.49c.49.49.49.49,0,1Zm.49,3.92v-.49l.49.49Zm0,7.83v0ZM37,168.65c-.49.49-.49,2.45,0,5.39-.49,0-.49.49-.49,1v4.89l-.49,5.88v9.8a1.78,1.78,0,0,0-.49,1.46l.49,1.47c-.49.49-.49.49,0,.49V202l-.49,5.88v9.3c0,.49,0,1-.49.49v.49c-.49,0-.49,0-.49.49a1.8,1.8,0,0,0-.49-1.47v-6.36h-1v9.3h.49c0,.49,0,.49.49.49,0,.49,0,.49.49,0-.49,0-.49.49,0,1v-1.47h.49V223l-1,1.47v0a1.8,1.8,0,0,1,.49-1.47v3.43l-.49.49c-.49.49-.49.49-.49,0v2.45a1.8,1.8,0,0,1-.49-1.47v5.87l-.49,4.9v12.73c0,2.45,0,3.92-.49,4.41v1a1.8,1.8,0,0,1-.49-1.47l-.49-.49v-47c.49-.49.49-1.47.49-3.43V187.26c-.49-.49-.49-.49,0-.49.49-.49.49-.49,0-1s-.49-.49,0-1v-3.92h.49c-.49-.49-.49-1,0-1V178c-.49-1.47-.49-2,0-2v-9.31a2.19,2.19,0,0,0,0-2.45c0-1.47,0-2,.49-2.44v-5.39c0-2,0-2.94.49-3.43v-2.45l-.49-.49c.49-.49.49-2.45.49-6.85l.49-.49v-2.94l.49-.49v-7.35c.49-.49.49-2.45.49-5.87v-.49l.49-1v-2.94a43.18,43.18,0,0,0,1.47-10.28c0-1,0-1.47.49-2l.49-2.45V104c.49,0,.49,0,.49-.49a1.8,1.8,0,0,0,1.47-.49l2.94-1.47,2-1,2.45-1.47a3.7,3.7,0,0,0,2-.49c.49-.49,1-.49,1.47-1l1-.49,1-.49a1.8,1.8,0,0,1,1.47-.49h1l1-.49.49-.49h1a1.8,1.8,0,0,1,1.47-.49l5.38-2c.49-.49,1-.49,2-.49h-.49c0,.49-1,1-2.45,1.47H62.5l-.49.49h-.49c0,.48,0,.48.49.48a1.82,1.82,0,0,0,1.47-.48l1-.49-2,1.46-2.44,1.47.49-.49a.91.91,0,0,1,1.46,0h1l.49-.49H65l2.45-1.46h1.47l.49-.49-2.45,1.46h-.49l-2,1H64c-.49,0-1,0-1,.49l-1,.49-2.93,1.47a1.8,1.8,0,0,1-1.47.49c-1.47,1.47-2.45,2-3.92,2l-2,1-1,.49L45.36,105l-2,1-1,1h-.49v2a1.8,1.8,0,0,0-.49,1.47c0,1.46,0,2-.49,2.44v2.45c-.49.49-.49,1-.49,2.45L40,120.17v4.41c-.49,0-.49,0-.49.49V129L39,130v2.45l-.49,1v5.39L38,143.19v4.89a1.8,1.8,0,0,1-.49,1.47v2L37,155.92v12.73Zm-5.39,91.58c.49.49.49.49,0,1l.49-1h-.49l.49-.49Zm.49-151.32v-.49l.49-.49v.49Zm0,3.42v2c.49-.49.49-2,.49-3.42Zm0,30.37v0Zm.49-32.81.49-.49Zm0,97.94.49-.49v2Zm0,57.29v0Zm1-73v-1l-.49-1c-.49.49-.49,1,0,1Zm-.49,2.94h.49v1Zm0,5.38c.49.49.49.49,0,1Zm0,1c.49.49.49.49,0,.49Zm0,13.71h.49v.49h-.49Zm0,15.67v0Zm0,1.47v0Zm0,37.22v0Zm.49-81.29v0Zm.49,3.92h-.49c.49,0,.49,0,.49-.49Zm-.49,140.06v0Zm1-175.81v-.49c.49.49.49,1,0,1Zm0,63.17v-1c.49,0,.49,0,.49.49Zm.49-66.6c.49-.49.49-.49.49,0Zm0,58.77v0Zm.49,7.34-.49,1v-2c0,.49,0,.49.49.49Zm-.49,1.47v0Zm.49-69.05c-.49,0-.49,0,0-.49Zm0,41.63v.49a.92.92,0,0,1,0-1.47Zm0,1v0Zm.49,26.93h0Zm0-63.66v0Zm0,1.47v0Zm.49,4.4v2.94c-.49,0-.49,0-.49-.49v-2.45c0-.49,0-1,.49-.49Zm0,4.9-.49.49v-.49Zm-.49,32.32v0Zm0,2.45v0Zm.49-41.13a.92.92,0,0,1,0-1.47Zm0-6.86v0Zm0,0v0Zm12.73,92.55h-.49l.49.49-.49-.49c0,.49,0,.49.49.49l2.45,2c0,.49,0,.49.49.49h.49a1.8,1.8,0,0,0,1.47.49c0,.49,0,.49.49.49h.49c.49,0,.49,0,.49.49h1l.49.49h1v-.49h2.45c.48,0,1,0,1-.49H63v.49c0-.49,0-.49.49,0,.49-.49.49-.49.49,0v.49h.49v-.49c-.49,0-.49,0-.49-.49h1.47v-.49h.49v-.49c.49.49.49.49.49,0h.49l.49-.49h.49c.49,0,.49,0,.49-.49h.49V249h1.47v-.49h1.47V248h.49l.49-.49h.49l.49.49-.49-.49.49-.48h.49l.49-.49h1.47c.49,0,.49,0,.49-.49h1l.48-.49V246h.49l-.49-.49h.49V246h.49v-1h1v0c.49,0,.49,0,.49.49.49,0,.49,0,.49-.49h1c0-.49,0-.49.49-.49s1-.49,1.47-1h.49l1-.49.49-.49h1.47v-.49H88v.49h.49v0c-.49,0-.49,0-.49.49l1.47-.49v0l.49-.49h.49l.49-.49,1.47-.49h.49l1-1,1.46-.49h.49a1.8,1.8,0,0,1,1.47-.49l.49-.49a1.8,1.8,0,0,1,1.47-.49l.49-.49,2.45-1.47h.49c0-.49,0-.49.49-.49v-.49c.49,0,.49,0,.49.49v-.49c.49,0,.49,0,.49-.49h.49l.49-.49h.49l1-1,1-.49h.49a1.05,1.05,0,0,0,1-1c.49,0,1.47-.49,2.93-1.95,1-1,1.47-2,1-2.45h.49v-1h.49V226l-.49-1v-.49l.49-.49-.49-.49c-.49-.49-.49-.49,0-.49l-.49-1-1-1v-.49c-.48,0-.48,0-.48-.49l-.49-1-.49-1-.49-1-.49-.49-.49-.49v-.49c-.49,0-.49,0-.49-.49h-.49v-1l-.49-1c-.49,0-.49,0-.49-.49v-.49c-.49,0-.49,0-.49-.49v-.49l-.49-.49c-.49,0-.49,0-.49-.49v-.49l-.49-.49-.49-1c0-.49,0-.49-.49-.49a1.05,1.05,0,0,1-1-1h-.49l-.49-.49c0-.49,0-1-.49-1v.49h-.49l-.49-.49v-.49c-.49,0-.49,0-.49-.49h-1l-.49-.49c0,.49,0,.49-.49,0,0,.49,0,.49-.49.49h-.49c0,.49,0,.49-.49.49h-.49l-.49.49H94.34c-.49,0-.49,0-.49.49H92.38c-.49.49-.49.49-.49,0h-1v.49h-.49c0,.49,0,.49.49.49-.49,0-.49,0-.49-.49h-.49v1c0,.49-.49.49-1,.49l-1,.49h-.49v.49c-.49-.49-.49-.49-1,0H86c-.49,0-.49,0-.49.49H83.07c-.49.49-1,.49-1,1H80.62l-1.47.49h-1v.49h-1c-.49-.49-.49-.49-.49,0h-.49l-.49.49H74.26v.49l-.49-.49c-.49,0-.49,0,0,.49h-1l-.49.49h-.49c0,.49,0,.49-.49,0v.49h-.49c-.49,0-.49,0-.49.48-.49-.48-.49-.48-.49,0h-1v.49h-.49c-.49,0-.49,0-.49.49H67.4l-.49.49H65c-.49,0-.49,0-.49.49H64c0,.49,0,.49-.49,0v.49l-.49-.49H62.5v.49c0,.49,0,.49-.49.49h-.49c0,.49,0,.49-.49.49,0,.49,0,.49-.48,0v.49l-.49-.49-.49.49h-1a1.05,1.05,0,0,1-1,1v-.49c-.49,0-.49,0-.49.49v.49c-.49,0-.49,0-.49-.49-.49,0-.49,0-.49.49l-.49.49c-.49-.49-.49-.49-.49,0h-.49v.49c-.49,0-.49,0-.49.49v0q0-.74-1.47,0h-.49l-.49.49-.49.49H49.77v1h-.49V223l-.49.49c0-.49,0-.49.49-.49v-1.47h-.49V223c0,.49,0,.49-.49.49l-.49.49v.49h-.49V225c-.49,0-.49,0-.49.49v0h-.49c.49.49.49.49,0,.49s-.49,0-.49.49h-.49l-.49.49h-.49v.49c0,.49,0,.49-.49,0,0,.49-.48,1-1.46,1h0c.49.49.49.49,0,1h-.49l-2,.49v0H38.51l-1-.49c-.49,0-.49,0,0,.49H37l.49.49h1l1,.48H40c0,.49.49.49,1.47.49h.49v.49l1-.49h1l-.48.49v.49H41.94l-1.47-.49H39v.49h-.49v.49l.49.49v.49c0-.49,0-.49.49-.49.49.49.49.49.49,1h.49l.49,1v.49l.49.49v.49h.49l.49.49.49,1v.49c.49,0,.49,0,.49.49v.49l.48.49v.49h.49l.49,1v.49c.49,0,.49,0,.49.49l.49.49.49,1h.49v.49l.49.49.49.49v0l.49.49,2,1,.49.48h-1l-.49-.48v.48c0-.48,0-.48-.49-.48v.48Zm-11.75-94v0ZM38,100.09h0Zm1,128.8h0Zm1-1h-.49v-.49Zm0,1h0Zm.49-1.47v.49h0Zm0,.49v0Zm.49,0v0Zm.49.49h0Zm0,2v-.49c.49,0,.49,0,.49.49Zm1-1.47h0Zm1-2.45v0Zm.48-10.29h0Zm.49,9.31v1l.49-.49v-.49c-.49,0-.49,0,0-.49v-.49c-.49-.49-.49-.49-.49,0s0,.49-.49.49Zm-.49,0v0Zm.49,5.87h.49l-.49.49h-.49Zm.49-6.36h.49c0,.49,0,.49-.49.49Zm1,0h-.49l1-.49h-.49Zm.49,4.41h0Zm.49,25v1c-.49,0-.49,0-.49-.49Zm-.49,14.2v0Zm1-53.38v1.47l-.49-.49Zm0,7.35v0c-.49,0-.49,0-.49-.49v-.49l.49-.49.49-.49v1h0V222h-.49ZM46.83,225v.49h.49a1.8,1.8,0,0,1-.49-1.47l.49-.49v3.92l-.49-1Zm.49,2.94v.49a1.8,1.8,0,0,1-.49,1.47v-.49l.49-1c0-.49,0-.49-.49-.49Zm-.49,1v0Zm.49,3.91v0h0Zm1-42.11v2.45c-.49,2.94-.49,4.89,0,5.87.49,0,.49,0,.49.49v1L48.3,202v-1.47l-.49.49a1.8,1.8,0,0,0-.49-1.47,1.8,1.8,0,0,1,.49-1.47,1.8,1.8,0,0,0-.49-1.47c.49-.48.49-1,.49-2.44V190.2Zm-1,9.79v0Zm.49,6.37h0Zm0,1c-.49.49-.49.49-.49,0Zm0,1a1.8,1.8,0,0,0-.49,1.47v-2C47.32,208.81,47.32,208.81,47.81,208.81Zm-.49,15.67v0Zm0,6.85v0Zm0,12.74v0Zm0,25v0Zm.49-63.66c-.49-.49-.49-.49,0-.49Zm3.43,88.15v-1l.49-6.37v-5.87c0-3.43,0-5.39-.49-5.88V270l.49.49v-9.79a1.8,1.8,0,0,1-.49,1.47v1.47c-.49,0-.49,0-.49-.49,0-1.47,0-2-.49-2.45v-3.43c0,.49,0,.49-.49,0v-1l-.49-.49.49-1v-.49c0-.49,0-.49.49-.49v.49a2.15,2.15,0,0,0-.49-2.45v-2l.49-.49h.49L50.26,248l-.49-.49v-3.91l.49-2,.49,1.47v-2.94l-.49-1c0-.49,0-1,.49-1v-.49a1.8,1.8,0,0,1,.49-1.47v-1c-.49,0-.49-.49-.49-1v-1c-.49,0-.49-.49-.49-1.47v-2.44c0-3.92,0-5.88.49-6.37V180.89l.49-.49c-.49,0-.49-.49,0-1l-.49-1V174c.49,0,.49,0,.49-.49v-.49c-.49,0-.49,0-.49.49v-2l-.49-1v1c0,1.47,0,2.94-.49,3.43l-.49-.49V174l-.49.49c.49.49.49.49,0,1v1l.49.49c-.49,0-.49,0-.49.49v2.44l-.49,3.92v2c0,1.47,0,2.45-.49,2.94v-4.9c0-.49,0-.49.49-.49v-2c-.49,0-.49,0-.49-.49a1.79,1.79,0,0,0,.49-1.46v-4.9c0-1.47,0-2-.49-2.45v-2.94c0-.49,0-.49.49-.49l.49-1V166.2c-.49-.49-.49-1,0-1v-4.4l.49-.49v-.49c-.49,0-.49,0-.49-.49.49-.49.49-1,.49-2v6.36h1v1.47h1l.49-.49a1.8,1.8,0,0,0,.49-1.47c-.49-.49-.49-1.95,0-4.4v-5.39c.49-.49.49-1.47.49-2.94v-4.41c.49-.49.49-1.46.49-2.93v-2.94l.49-3.92v-1.47c.49,0,.49-.49.49-1.47v-4.9l.49-1V127c-.49-1-1-1.47-.49-2s.49-1,.49-2v-1.47c.49-.49.49-1,.49-2v-1c.49,0,.49-.49.49-1l.49-.49v-.49c.49,0,.49,0,.49-.49s.49-.49,1-.49l.49-.49h.49l2-.49H61l2-1-.49.49-.49.49a1.05,1.05,0,0,1-1,1c-.48,0-1,0-1,.49h-.49c0,.49,0,.49-.49.49h-.49l-1,.49c0,.49,0,.49-.49.49h-.49v1c-.49.49-.49.49,0,1v.49l.49-1v-1.47h.49v-.49c.49,0,1,0,1-.49l2-.49-.49,1,1.95-1h.49l2-1H65l-1.47,1a1.05,1.05,0,0,0-1,1H63v.49c-.49,0-1,.49-1.47,1a1.78,1.78,0,0,1-1.46.49v.49h-.49v5.39l-.49.49v2.93a1.8,1.8,0,0,1-.49,1.47v1.47l-.49,3.92v4.41l-.49,4.41v1l-.49,1.95-.49,3.43v6.86l-.49,1v14.2c0,1.47,0,2.45-.49,2.94v7.34l-.49.49v.49c.49,0,.49,0,.49.49v2l-.49,2v9.3l-.49,2.94v16.16a1.8,1.8,0,0,1-.49,1.47V226l.49-.49V226c-.49,0-.49,0-.49.49v13.22l-.49,10.77v6.37c-.49.49-.49,1-.49,2.45v15.67l-.49,4.41c0,.49,0,.49-.49.49v6.36c-.49,2-.49,5.39-.49,10.78v1a1.8,1.8,0,0,0-.49-1.47ZM47.81,189.22v0ZM48.3,223v.49l-.49-.49Zm-.49,12.24v0Zm.49,11.27v0Zm.49.49h0Zm0-26c.49-.49.49-.49.49,0S49.28,221.54,48.79,221.05Zm0,25.47v0ZM63,110.38H62.5v.49a4.46,4.46,0,0,0-2.44,1.46l-2.45,1-1,.49-1,1h-.49l-.49.49h-.49v2c-.49.49-.49,1-.49,2l-.49,3.92-.49,1.47v1.47l-.49,1c.49,0,.49.49,0,1v.48c-.49,0-.49,0-.49.49l-.49,2.94q-.74,2.21,0,2.94c0,1,0,1.47-.49,2v5.88c-.49.49-.49,2-.49,3.91v2L49.77,151v-.49c0-1,0-1.47-.49-2l.49-1v-2.93a1.8,1.8,0,0,0,.49-1.47v-.49a1.49,1.49,0,0,1,0-2v-4.9a1.8,1.8,0,0,1,.49-1.47v-2.45c0-1.47,0-2.45.49-2.94v-2.44l-1-1v-3.92a1.8,1.8,0,0,1,.49-1.47v2.94c.49,0,1-1.47,1.47-3.92v-1a1.8,1.8,0,0,1,.49-1.47v-2h.49v-.49h1.47c0-.49.49-.49,1.47-1l2-1h.49c0-.49,0-.49.49-.49h.49l1.46-1,1-.49h1ZM49.28,154c0-1.47,0-2,.49-2v.49c0,1.47,0,2.45-.49,2Zm0,2.45v-.49c.49.49.49.49,0,1Zm0,9.3.49.49-.49,1Zm0,75.42v0Zm0,6.36h.49V248Zm0,1c0-.49,0-.49.49,0C49.28,248,49.28,248,49.28,248.47Zm.49,12.25v-1l-.49-.49c.49-.49.49-.49,1,0v.49Zm.49-12.25h-.49V248Zm0,31.35c.49,0,.49,0,.49-.49v1a.91.91,0,0,1,0,1.46v1.47l-.49-1c0,.49,0,.49-.49,0l.49-1.95ZM49.77,296v0Zm.49-1c-.49-.49-.49-.49,0-1Zm0-125.37v-.49l.49,1Zm0,66.6v0Zm.49,1h-.49l.49-.49Zm0,.49h0ZM50.26,246l.49,1c-.49.48-.49.48-.49,0Zm0,4.4v-.49c.49.49.49.49,0,1Zm0,4.9.49.49-.49.49Zm.49-135.65v0Zm0,6.37v0Zm.49,105.28v1.47l-.49-.49Zm-.49,17.14.49.49Zm.49-28.89v1.47a1.49,1.49,0,0,1,0-2Zm0,7.84c-.49-.49-.49-.49,0-1Zm0,2v1a.92.92,0,0,1,0-1.47Zm0-21.55.49-2v2.45Zm0,1.47c.49.49.49.49,0,1Zm0,2v-.49l.49.49c0,.49,0,.49-.49.49Zm0,1c.49.49.49.49,0,1Zm0,2.44.49-.49a1.8,1.8,0,0,1-.49,1.47Zm0,6.86v0Zm0,1.47v0Zm0,1v0Zm0,23.5h0Zm1.47,2L51.24,249h.49Zm-1.47,19.1.49.49c-.49,0-.49,0-.49.49Zm.49-154.26v0Zm.49,74.93h0Zm-.49,4.9v-1h.49c0,1,0,1.47-.49,2Zm0,2.93v-.49c0-.48,0-.48.49-.48Zm0,1v-.49l.49.49c-.49,0-.49,0-.49.49Zm0,3.43v0Zm0,2v0Zm0,33.79h.49v1Zm0,3.43h.49v2Zm0,2.94v0Zm.49,2.45h-.49l.49-.49Zm-.49,12.24v0Zm0-10.78v0Zm.49-58.76c-.49-.49-.49-.49,0-1Zm0,3.43c-.49-.49-.49-.49,0-.49Zm0,52.4c-.49-.49-.49-.49,0-1Zm.49-68.07V178l-.49-.49v-1c.49,0,.49,0,.49-.49Zm0,3.42h-.49v-1l.49-.49Zm0,1.47-.49.49v-1Zm-.49,1.47v0Zm0,2v0Zm0,2v0Zm0,41.14h0Zm0,1.47h0Zm0,2.93.49-.49a1.8,1.8,0,0,1-.49,1.47Zm0,2.45v0Zm0,4.41v0Zm0,5.88v0Zm0,2.44h.49V248ZM52.71,225v.49c-.49-.49-.49-1,0-1Zm0,2c-.49-.49-.49-.49,0-.49Zm0,2.94c-.49-.49-.49-.49,0-.49Zm0-137.61.49-.49Zm0,72v-2c0-.49,0-.49.49-.49v2.44Zm0,3.92v0Zm0,5.39v0Zm.49,39.67-.49-.49h.49Zm-.49.48.49.49-.49,1V213.7Zm0,7.35h0Zm0,2.45v0Zm0,7.83v0Zm.49-73v0Zm0,1v-.49c.49.49.49.49,0,1Zm0,2v0Zm0,45.05v0Zm0,1v0Zm0,0v0Zm0,1v0Zm0,3.43v0Zm30.85,4.89v.49h-.49l-1,.49h-1l-1,.49v.49H79.15l-1,.49h.49l.49.49v-.49l.49.49c-.49,0-.49,0-.49.49v.49h0v.49l-.49.49-.49-.49v-.49c-.48,0-.48,0,0,.49,0,.49,0,.49-.48.49v0l-1,.49-.49-.49v-.49l-.49.49c.49,0,.49,0,0,.49v-.49h-.49l-.49.49v.49a.92.92,0,0,1-1.47,0l-.49.49c0,.49,0,.49-.49.49h-1V224c0-.49-.49,0-1,.49h-.49c-.49,0-.49,0-.49.49h-.49v.49h-1c-.49,0-.49,0-.49.49h-.49v.49c0,.49,0,.49-.49.49h-.49v0h.49c-.49,0-.49,0-.49.49v.49l1-.49v1h2v-.49h.49v.49h-1v.49h-1v1h-1v-.49l-.49.49v0H65v.49l-.49-1h1l-.49-1v-1c-.49,0-.49,0-.49-.49s0-.49-.49,0l-.49.49h-1l-.49.49H61v.49c0,.49,0,.49-.48,0l-.49.49-.49-.49-.49.49c0,.49,0,.49-.49.49H58.1c.49.49.49.49,0,.49-.49-.49-.49,0-.49.49-.49-.49-.49-.49-.49,0h-.49c0-.49,0-.49-.49-.49v.49h-.49v.48c-.49-.48-.49-.48-1,0h-.49c0-.48,0-.48.49-.48v-1l.49.49v-.49h.49l.49-.49c0-.49-.49,0-1,.49h-.49v-.49h-.49c0,.49,0,.49-.49.49l-.49-.49.49-.49v-.49l-.49-.49h.49v-.49l.49-.49,1-1h1c.49,0,.49,0,.49-.49h.49l.49-.49h1.47V224l.49.49.49-.49h.49v-.49h1c.49,0,1-.49,1.47-1h.49L64,222h1.47c0-.49,0-.49.49-.49h1c0-.49,0-.49.49-.49h1l.49-.49h.49c.49,0,.49,0,.49-.49h1v-.49H72.3v-.49h1l.49-.49c.49.49.49.49.49,0l2-.49.49-.49.49.49h.49c0-.49,0-.49.48-.49l1-.49h.49c0-.49,0-.49.49,0,0-.49.49-.49,1,0h.49c-.49,0-.49,0-.49.49l.49-.49h.49l.49-.49c1-.49,1.47-.49,2,0ZM53.2,221.05v0Zm.49-129.77h1c0-.49,0-.49.49-.49l-.49.49Zm0,42.11v0Zm0,12.73c0-.49,0-.49.49-.49-.49-.48-.49-.48,0-1v2Zm0,4.41v-2h.49V150Zm0,.49v0Zm0,1v0Zm0,1v-.49l.49.49c-.49,0-.49,0-.49.49Zm0,1v0Zm0,1v0Zm0,.49v0Zm.49,29.38-.49.49v-.49Zm-.49,3.43v0Zm0,2.94v0Zm0,6.85v0Zm0,33.3v-.49c0,.49,0,.49.49.49Zm1-119h0Zm0,27.92v.49a1.49,1.49,0,0,0,0,2v.49a17.33,17.33,0,0,1-.49-2.94Zm-.49,3.43v0Zm.49,83.25h0Zm-.49,1.47v0Zm0,2.93v0Zm1-97.45v-2.45l-.49,4.9v.49Zm-.49,30.85v0Zm0,62.69v0Zm0,1.47v0Zm.49-68.56c-.49-.49-.49-.49,0-.49Zm0-69.05h0Zm0,39.17V130l.49-1v1.47Zm0,1v0Zm0,21.06c.49,0,.49,0,0,.49Zm0,3.92v0Zm0,39.18v0Zm0,24.48v0Zm1.47-98.43-.49,1c.49,0,.49,0,0,.49v.49c0,.49,0,.49-.49.49v-1.47a1.8,1.8,0,0,1,.49-1.47c0-.49,0-.49.49-.49Zm-1,3.43h.49l-.49.49Zm0,1c.49.49.49.49,0,.49Zm0,1.47v0Zm0,20.56v0Zm0,.49v0Zm.49,84.72v.49h-.49c0-.49,0-1,.49-1v-.49c.49,0,1-.49,1.47-1h1c.49,0,.49,0,.49-.49l.49.49c.49,0,1,0,1-.49H61c.49.49.49.49.49,0l1-.48H63c0-.49,0-.49.49,0v.48H62l.49.49c-.49.49-.49.49-1,0h-1l-.49.49-.49.49.49,1-.49.49v-1H58.1c0,.49,0,.49-.49.49l-.49-.49v.49h-.49v.49h-.49Zm-.49,17.14v0Zm.49-112.14v-1.47c.49.49.49,1,0,2Zm0,2v0Zm0,2v0Zm.49,86.19h.49v.49h-1Zm.49-97h-.49c.49,0,.49,0,.49-.49Zm-.49,103.82v0Zm1-6.85h0Zm-.49,160.13h0Zm.49-160.62h.49v.49h-.49Zm.49,24c0,.49,0,.49-.49,0Zm-.49,38.2v0Zm0,83.25h0Zm1-145.44c-.49.49-.49.49-.49,0Zm-.49,6.85v0Zm0,17.63v0ZM58.59,272h0Zm-.49,24.49c.49,0,.49,0,.49.49Zm0,24v0Zm0,42.61v0Zm0,2v0Zm1-246.82c0,.49,0,.49-.49.49ZM58.59,226h0Zm.49,1.47h.49c0,.49-.49.49-1,.49Zm-.49,131.24v0Zm.49,2h0Zm.49-242.9h0Zm-.49,1.47h0Zm.49,114.59h0Zm-.49,1c.49.49.49.49,0,.49Zm0,22h0Zm1.47-146.91-1,.49v-.49A1.79,1.79,0,0,1,61,109.4Zm-1,6.85h0Zm.49,54.36v.49l-.49-2,.49.49v.49h1c0,.49,0,.49-.48.49,0,1,0,1.47-.49,2Zm-.49,46.52v0Zm0,7.84v0Zm0,5.87v0Zm11.26,8.82h1l.49-1c0,.49,0,.49.49.49v-.49h.49c.49-.49,1-.49,1,0l.49-.49h1c0-.49,0-.49.49-.49s.49,0,.49-.49l1-.49h2v1.47h-1c0,.49,0,.49.49.49v.49c.49,0,.49,0,.49-.49h1v-.49c0-1-.49-1.47-1-1.47,0-.49,0-.49.49-.49v.49c.49.49.49.49.49,0h.49c0,.49,0,.49.49.49v.49h.49a1.8,1.8,0,0,1,1.47-.49h1c0-.49,0-.49.49-.49,0-.49,0-.49.49,0h1v.49c.49.49.49.49,0,.49l-1,.49h-1v.49h-.49l-.49.49h-1v.49h-1v.49h-1l-.49.49h-.49c-.49,0-.49,0-.49.49h-1c0,.49,0,.49-.48.49-.49.49-.49.49-.49,0v.49h-.49v.49c-.49-.49-.49-.49-.49,0h-1c0,.49,0,.49-.49.49h-.49l-.49.49h-.49v.49H71.81l-1,1-1,.49v-.49c0,.49,0,.49-.49.49h-.49l-1.47,1h-1l-.49.48h-.49c0,.49,0,.49-.49.49h-.49v.49h-1l-2-.49H61l.49-.49H62l-.49-.48H61l.49-.49V246h-1c0-.49,0-.49-.49-.49h-.49v-.49H61l1-.49v-.49h1c0-.49,0-.49.49-.49l.49-.49h.49l.49-.49h.49c0-.49,0-.49.49,0,0-.49,0-.49.49,0v-.49h.49v-.49h1v-.49h1a1.8,1.8,0,0,0,1.47-.49v-.49Zm-11.26,7.34V247h.49v.48Zm0,0v0Zm0,5.88h0Zm0,.49h.49v.49Zm0,14.69v0Zm0,3.43v0Zm1-153.77h-.49l.49-.49Zm-.49,76.4v0Zm0,5.87v0Zm0,26.94v-.49h.49Zm0,9.3v0Zm0,1.47v0Zm.49,9.3h-.49c0-.48,0-.48.49-.48Zm0,4.9h0Zm1-157.69-1,.49c-.49,0-.49,0,0-.49ZM61,117.23l.49.49h-1Zm-.48,68.07h0Zm.48,9.8-.48-.49Zm0,23.5h0Zm-.48,6.86v0Zm.48,1.47c0,.49,0,.49-.48,0Zm-.48.49v0Zm0,19.59h0ZM61,109.4v0Zm0,79.82h0Zm0,4.9v0Zm.49,24.48.49.49-.49.49v-1.47h0v.49c0-.49,0-.49.49,0Zm0,8.33c-.49,0-.49,0,0-.49Zm0-138.1c0-.49,0-.49.49-.49Zm0,81.29h0Zm0,11.26v0Zm.49,5.88-.49,1v-.49Zm0,60.23-.49-.48Zm-.49,4.41v0ZM62,164.24v-1.47l.49,1.47Zm.49,1.47h0Zm0,12.74-.49-1c0-.49,0-.49.49-.49ZM62,225v0Zm0,1.47v0Zm0,0h0ZM62.5,152v0Zm0,4.9v0ZM63,207.34h0Zm-.49.49v0Zm0,5.87c0-.48,0-.48.49-.48Zm0,2.45v0Zm0,35.75v0Zm.49.49-.49-.49Zm0-25.95c-.49-.49-.49-.49,0-.49ZM63.48,200h0Zm0,15.67c-.49,0-.49,0-.49-.49ZM63,226.44v0Zm.49,25.46c0,.49,0,.49-.49,0Zm-.49,0v0Zm2.45-139.08H65l-1.47,1q0-.73,1.47-1.47Zm-2,22.53h0Zm0,90.6h0Zm0,0v0Zm0,4.41.49-.49v.49ZM64,187.75c-.49-.49-.49-.49,0-.49ZM65,87.36l-1,.49v-.49ZM64.46,226H64c0-.49,0-.49.49-.49ZM65,123.11h0ZM64.46,127v0Zm1,98.43H65l.49-.49ZM65,123.6h0Zm0,128.79h0Zm1-159.64h.49c0,.49-.49.49-1,.49Zm-.49,19.58h0Zm0,105.29v0Zm0,3.92h0Zm.49,2h-.49V223h.49ZM65.44,225h0Zm0,2.45c.49,0,.49,0,.49.49Zm0,1v0Zm1-3.43h0Zm0-12.24h0Zm0,11.75c.49.49.49.49,0,.49Zm0,26.44v0ZM67.89,92.26c0-.49.49-.49,1-.49l-1.47,1h-.49Zm-1,22c.49-.49.49-.49.49,0Zm.49,110.19h0Zm-.49.49v0ZM67.4,86.38c.49,0,1,0,.49.49ZM67.4,223v0Zm0,1,.49.49H67.4Zm.49-137.12h0Zm0,164v0Zm0,1v0Zm1-141h0Zm0,113.12c-.49.49-.49.49-.49,0Zm.49-113.61h0Zm0,2.44v.49h-.49ZM68.87,223.5h.49V224Zm.49-137.61,1-.49ZM72.3,90.3v.49l-2.45,1h-.49l.49-.49ZM69.85,223.5l-.49.49v-.49Zm-.49,4.41h0Zm.49,13.71h0Zm0-13.22c-.49-.49-.49-.49,0-.49Zm.49-143.49h0Zm-.49,136.63v0Zm0,5.88v0c.49,0,1,0,1-.49v-1l.49,1v.49c0,.49,0,.49-.49,0v.49c0-.49,0-.49-.49-.49v.49h-.49v-.49Zm0,14.2c0-.49,0-.49.49-.49Zm0,8.32v0Zm.49-156.21v0Zm.49,127.81h0Zm0,2h-.49c0-.49,0-.49.49-.49Zm-.49,19.59v0Zm0,5.87v0Zm.49,1.47h0Zm.49-166h0Zm-.49.49h0Zm0,136.63v-.49l.49.49Zm.49,1.47c0,.49,0,.49-.49,0Zm-.49,17.63h.49v.49h-.49Zm0,0v0Zm.49,2.45h0Zm.49-29.87h0Zm0,9.79h0Zm-.49,4.41v0Zm0,21.05v0ZM71.81,223v-.49c.49,0,.49,0,.49.49Zm0,3.92h0Zm0,13.22v0Zm1-13.22c-.49,0-.49,0-.49-.49Zm-.49,0v0Zm0,22c0-.49,0-.49.49,0Zm1-154.74h0Zm5.38,24.48,1-1v.49c.49,0,.49,0,.49.49h-.49l-2.44,1.47a1.8,1.8,0,0,1-1.47.49c0,1-1,1.47-2.45,1.47v.49l-.49-.49c.49,0,.49,0,.49-.49h.49v-.49l1-.49h1l.49-.49h0l.49-1,1-.49h.48v-.49h.49ZM72.79,220.56v0Zm0,5.88v0Zm0,22v0ZM73.28,90.3c-.49,0-.49,0,0-.49Zm0,122.43v0Zm0,7.83v0Zm0,.49v0Zm.49,1c-.49.49-.49.49-.49,0Zm.49-138.1h0Zm0,5.39c0,.49,0,.49-.49.49Zm-.49,130.75c.49.49.49.49,0,.49Zm.49.49h0Zm0,0h0Zm0,1c0,.49,0,.49.49,0Zm0,0v0Zm.49-8.81v0Zm1,13.22h-1l.49-.49Zm-.49-12.73v0Zm0,6.85h0Zm1-7.83h0Zm0,7.83h0Zm-.49,1.47v0Zm0,0v0Zm0,1v0Zm0,2.94h0Zm0,21.55v0Zm.49-164.55v0Zm0,137.61c0-.49.49-.49,2-1v.49a1.79,1.79,0,0,0-1.46.49Zm0-.49v0Zm0,.49v0Zm0,5.39v0Zm0,15.67v0Zm0-.49v0Zm.49-28.89v0Zm0,9.3h0Zm0,26.93v0Zm2-27.42v.49c0-.49,0-.49-.49-.49Zm.49,19.1c0,.49,0,.49-.49.49Zm.49-2.94c0,.49,0,.49-.49.49ZM80.13,224v.49c0-.49,0-.49-.49-.49Zm-.49,12.73c.49.49.49.49,0,.49Zm0,2.45v0Zm.49-27.42v0Zm0,25h0Zm0,0v0Zm.49,7.35-.49-.49Zm0,.49h0Zm1,1h0Zm.49-26.45v-1h.49v1Zm1,1h0Zm-.49,17.63v0Zm1-123.9h0Zm6.86-2.93h.49l2.45-1L88,112.82c-1.47.49-2,0-1.47-.49s1-.49,2-.49l1-.48a.48.48,0,0,0,.49-.49ZM87,236.72h.49c0,.49,0,.49-.49,0v0Zm0,5.88v0Zm1.47-.49h0ZM89,112.82h0Zm2-.49h-.49l.49-.49Zm-.49,93.54v0Zm0,.49v0Zm1,0h0Zm1.47-95.49h0Zm.49-34.28v.49c0-.49,0-.49.49-.49Zm1,32.81h-.49a3.72,3.72,0,0,1,2.44-1Zm2.93-.49,2-1.47,1-.49a.92.92,0,0,0-1.47,0l-.49.49c0-.49.49-1,2-1.47h-1l-1.47,1-.49.49v.49l-2.44,1.47c-.49,0-.49,0-.49.49h.49l1-.49ZM94.83,239.66h0Zm.48-33.79v0Zm.49,0v0Zm1-97h0Zm.49-2h0Zm.49,1h0Zm.49-4.41h0ZM100.7,76.1l-.49.49Zm.49-2.45h0Zm-.49,32.81.49-.49h.49Zm.49-32.81.49-.49v.49Zm2,31.34h.49l-1,.49Zm.49,0h-.49l1-.49Zm-.49-.49v0Zm2,126.83h0Zm3.43-135.16H109l-2,1h.49ZM110,76.1h0c0-.49,0-.49.49-.49Zm1.47,19.58-2,.49,1-1c.49,0,1,0,1-.49H112l2.94-1h-.49c0,.49,0,.49-.49.49Zm1,140.55v0Zm1.47-161.11h0Zm0-2.45c.49-.49,2.45-1,6.37-2-1,0-1.47,0-2,.49a1.8,1.8,0,0,1-1.47.49,1.8,1.8,0,0,0-1.47.49A1.8,1.8,0,0,1,113.92,72.67Zm0,26h0Zm4.41-2-2,1a1.8,1.8,0,0,1,1.47-.49Zm0,1-.49.49v-.49Zm1-3.42c0,.48,0,.48-.49.48,0-.48.49-.48,1-.48Zm-.49,2.93c.49,0,.49,0,0,.49l1-.49c.49,0,.49,0,.49-.49,0,.49,0,.49-.49.49Zm3.43-26.93v.49h-1.47l.49-.49Zm-1,26.44c.49,0,.49,0,.49-.49Zm1-.49h0Zm.49-25.95,1-.49,1-.49.49.49h-.49Zm0,24.48h0Zm2.45-25.46c0-.49,0-.49.49-.49Zm.49,1h0Zm.49,2.45c0,.49,0,.49-.49.49Zm-.49,18.12h0Zm2.45-22.53c0,1-.49,1-1,.49l-1,.49h.49l-.49-.49h1.47l.49-.49v0Zm-2,2.94h0Zm1-2.94h0Zm1,2h0Zm1,22h0Zm.49-22.53c.49,0,.49,0,0,.49ZM134,74.14h0Zm.49,0h0ZM135,88.83h0Z" style="fill:#2b2b2b"/><path d="M308.34,53.57l-2,9.3v2.94h.49l-.49,9.31v9.3l-1,14.69v1.47c0,2.45,0,4.41-.49,4.9a11.77,11.77,0,0,1,0,5.88,7.24,7.24,0,0,0,.49,3.42,20.19,20.19,0,0,1-.49,5.88l-1,26,.49,4.41a36.18,36.18,0,0,1-1,5.88v7.83c.49.49.49,1.47.49,2.94a10,10,0,0,0,0,5.39l-.49,4.9.49,2.93-.49,10.29-.49,5.87v7.35l-.49,3.92v1.47c.49,1.47.49,6.36.49,14.69-.49,2.45-.49,13.22-.49,32.32v5.39a5.34,5.34,0,0,0,0,3.91V273c0,1.47,0,2.45.49,2.94v5.39c-.49.48-.49,1.46-.49,2.93,0,1,0,1.47.49,2V297c0,.49,0,1,.49,1v2.93L303,299.4a2.19,2.19,0,0,0,0,2.45v2l.49,4.9-.49,3.92c.49.49.49,2,.49,4.4l-.49,3.43v7.35l-.49,6.85,1,3.92L303,341v3.43l-.49,8.32c.49.49.49,4.41.49,10.78,0,2.45,0,3.91.49,4.89,0,2.45,0,4.41-.49,5.39,0,1.47,0,2,.49,2.45a4.46,4.46,0,0,1-.49,3.92v1l.49,2,.49,2.93a20.19,20.19,0,0,1-.49,5.88v1.47a1.49,1.49,0,0,0,0,2,1.8,1.8,0,0,0,.49,1.47,1.8,1.8,0,0,1-.49,1.47l-1-1v4.4l.49,3.43v3.92c-.49,2-.49,3.43,0,3.92l-1.47-6.86a1.8,1.8,0,0,1-.49,1.47c-.49.49-.49,1,0,2l-.49,1L301,412c.49,1,.49,1.47,0,2v.49c.49.49.49,1.47.49,2.94l.49,5.87.49,3.43v2l-.49.49c0-1,0-1.47-.49-2v-1l-.49-1,.49,3.43-.49,1v2.94c-.49.49-.49,1,0,1.95V438l-.49-.49-1-1,.49,4.41.49,1q-.74-2.21-1.47-1.47l-.49,2.94v2c-.49,0-.49-1-.49-2.45s-.49-2.45-1-2.45v1c-.49,0-.49-.49-.49-1h-.48l-.49-.49-1-1.47c0-.49,0-.49-.49-.49h-.49l-.49-2-.49-.49v-1c-.49,0-.49,0-.49.49,0,1.47,0,2-.49,2.45,0,.49-.49,0-1-.49-.49,1-.49,1.47-1,1.47l-1-2.94c-1,.49-1.47.49-1.47-1v-.48l-.49-1.47-.49.49c-.49,0-.49.49-.49,1a2.72,2.72,0,0,0-.49,2.93c0,.49,0,.49-.49,0-1-1-1.47-2-1-2.45l-.49-.48v-1.47a1.8,1.8,0,0,1-.49-1.47,3.12,3.12,0,0,1,0-2.94c-1-5.39-2-9.31-2.45-11.75a3,3,0,0,0,.49-2c-.49-1-.49-1.47-1-2l-.49-1.47.49-4.41c-.49-.49-.49-1.47-.49-3.43l-.48-3.91c0-1,0-1.47-.49-2l.49-1v-2.94c-.49-.49-1-2.45-1-5.39l-.49-3.92v-3.91a4.14,4.14,0,0,1,0-3.43c-.49-.49-.49-2.45-.49-5.39v-1c-.49-.49-.49-2-.49-4.4v-3.92q-.74-2.2,0-2.94v-1c-.49-.49-.49-2-.49-3.43v-8.32c-.49-.49-.49-1.47-.49-3.43V308.71a16.19,16.19,0,0,1,0-6.86l-.49-7.34a9.55,9.55,0,0,1,.49-3.92,18.37,18.37,0,0,0-.49-5.39c0-5.38,0-8.81.49-9.79v-4.9H275c0-3.43,0-5.39.49-6.85-.49-.49-.49-2-.49-4.9v-3.92l.49-1v-1.47l-.49-1c0-2.45,0-3.92-.49-4.4l.49-1c0-4.41,0-6.37-.49-6.86l1-7.35a18.27,18.27,0,0,1-.49-5.38v-6.37c0-4.41,0-7.34.49-9.3v-.49l-1.47,7.34-2.94,14.69c-.49,1.47-.49,2-1,2.45l-2,11.76-1,4.89-1.47,10.78a1.8,1.8,0,0,1-.49,1.47l-.49,1v2l-.49,1.47a1.8,1.8,0,0,0-.49,1.47c0,1,0,1.47-.49,2a1.8,1.8,0,0,0,.49,1.47l-.49,1-1,3.92v1c-.49.49-.49.49,0,.49v1a24.26,24.26,0,0,0-1.47,7.83l-.49.49a3.74,3.74,0,0,0-1,2.45l-.49,2v1l-.49,2.94-.49,2.93.49,2-1,1a6.33,6.33,0,0,0-1,3.92c0,3.43-.49,5.39-1,5.88v1.47c0,1.46,0,1.95-.49,2.44s-.49,1-.49,2V319l-30.85-.49v-1c-.49-.49-.49-1-.49-2l.49-.48-.49-1-.49-1.47.49.49v-1c0-3.43,0-5.88-.49-6.37l-.49-1v-.49l-.49-.49h.49c-.49-.49-.49-1.47-.49-3.92v-1a1.77,1.77,0,0,1-.49-1.46,1.8,1.8,0,0,1,.49-1.47c-.49,0-.49,0-.49-.49l-.49-1V293c0-1,0-1.47-.49-1.47v-1l-1-9.79-.49-4.9c0-1.47,0-2.94-.49-3.43l-1-10.28-2.45-17.14v-4.41a2.19,2.19,0,0,1,0-2.45c0-1.47,0-2-.49-2.45l-1-7.34-1-7.35c-.49-.49-.49-1-.49-2v-1.47l-1.46-9.3c.49-.49,0-2-.49-4.41v-.49l.49-3.92c-.49,1.47-1,2.94-.49,3.92-.49-.49-.49-1-.49-2.45a1.8,1.8,0,0,0,.49-1.47l-1,2c0,2.94,0,4.9-.49,5.88l-1,5.88v2.93c0,1.47-.49,4.9-1,10.29,0,3.43,0,4.89-.49,5.38v2l-1,9.31-.49,5.87L204,251.9c-1.47,13.22-2.45,21.06-2.45,24l-.49,4.41-.49-1v2a11.72,11.72,0,0,1,0,5.87c-.49,2.45-1,3.92-.49,4.9,0,2.45-.49,4.41-1,4.9l-1,10.77-.49,2.94c-.49,1-.49,2.45-.49,4.89V317c0,1,0,1.47-.49,2a88.26,88.26,0,0,0-1,9.31v7.83c-.49,4.41-1,6.86-1.95,8.33l-.49,3.92-.49.49.49,2.93-.49,3.92-1,6.86c0,2.45-.49,3.91-1,4.4l.49,4.9c0,.49,0,.49-.49.49v4.9a1.8,1.8,0,0,0-.49,1.47c0,1,0,1.47-.49,2v2.93c-.49.49-.49,1-.49,2v1.47c0,2.45,0,3.92-.49,4.41v4.41c0,1.47,0,2-.49,2.45l-.49,3.42v2.94h-.49l-.49,1v-6.85c.49-.49.49-1,.49-2.45-.49,0-.49.49-.49,1v-4.41l-.49,2v-2.45l.49-.49V388l-.49-.49,1-4.4v-8.33c.49-.49.49-1,1-2.45l-.49-4.41c0-.49,0-.49-.49-.49a12.7,12.7,0,0,0,1.47-5.38v-2l-.49,1v2.45l-1,3.91-1,10.78-.49,3.92a1.48,1.48,0,0,0,0,1.95c0,1,0,1.47-.49,2,0,1.47-.49,3.92-1,7.35,0,1.47,0,2-.49,2.45l-.49,2.94v1.47l-.49-.49c0,.49,0,.49-.49,0l-1,.49-.49,2.93v1l-.49-.49v-1l-.49-1.47-.49-1-.49-.49v1l-.49,1v2l-.49,1v-1.47a7.24,7.24,0,0,0,.49-3.42,3.67,3.67,0,0,1-.49-2.45l-.49.49-.48,2-.49-.49.49-1h-.49l.49-1c0-.49,0-.49-.49-.49l-.49.49-.49,1v1.47l-.49-1.47v-.49l-.49-1-.49-2v2c-.49-.49-.49,0-1,1v.49h-.49c-.49.49-.49,2-.49,4.4v1l-.49,1.47v.49c-.49-.49-.49-.49,0-1v-1l-.49-.49v.49c-.49.49-.49,1.47-.49,3.43l-.49-1,.49-2c-.49,0-.49-.49-.49-1.47l.49-5.87-.49-3.43c0-1,0-1.47.49-2l-.49-1,1-13.22,2-18.12c0-3.92,0-6.37.49-7.35v-3.91l.49-1,.49-7.84v-1a37.62,37.62,0,0,1,1-7.34V319l-1,9.31-.49,9.3-1,8.33-.49,6.36c-.49,11.76-1.47,18.12-2.45,19.1v5.39l-1,7.83V392l-.49,3.92-.49,1.47v-3.92l-.49-1,.49-1.47c0-7.83,0-12.73.49-14.2l1-6.37V366c.49-.49.49-1.47.49-3.43v-1c.49,0,.49-.49.49-1a2.19,2.19,0,0,1,0-2.45v-8.33a44,44,0,0,1,1-5.38v-5.39l1.47-13.71v-2c-.49-1.47,0-3.43.49-5.88,0-1,0-1.47.49-2a1.79,1.79,0,0,0-.49-1.46v-2.45l-.49-1c.49-3.43,1-5.39,1-6.37l.49-5.39a9.48,9.48,0,0,0,.49-3.91c0-1.47,0-2.45-.49-2.94l1-5.39v-6.36c0-1.47,0-2,.49-2.45V271l1-1v-1.47c0-2.45.48-6.85,1-12.73v-3.43c.49-.49.49-2,.49-4.41l.49-4.89v-3.43l.49-4.41c.49-.49.49-3.43.49-7.83a4.14,4.14,0,0,0,1-2.94c-.49-.49-.49-1.47-.49-3.43,1-1.47,1-2.94.49-3.43v-1q.74-2.94,0-2.94l.49-1,.49-3.43c0-1,0-1.47-.49-2,.49,0,.49-.49,1-2V199c.49-.49.49-1.47.49-2.93s0-2-.49-2.45v-.49H183V190.2l.49-5.88c-.49-1,0-2.45.49-4.41v-.48c0-4.41,0-7.35.49-8.33v-1l.49-2,.49,1v-1c-.49-.49-.49-1-.49-2.45l.49-3.91v-5.39c0-4.41,0-7.35.49-8.82v-4.4l.49-2c.49,0,.49,1.47,0,4.89a.92.92,0,0,0,0,1.47v1.47c.49,0,.49,0,.49.49l-.49,1,.49-.49v-5.38l1-8.33v-6.86c0-1.46.49-3.91,1-7.34v-1.47l.49-2c0-1,0-1.47.49-1.47v-2.94a9.5,9.5,0,0,1,.49-3.91c.49-1,.49-2.94.49-5.39a11.94,11.94,0,0,1,0-5.88c.49-.49.49-2,.49-4.41a19.66,19.66,0,0,1,1-2.93l-.49-5.88,1-5.88a1.8,1.8,0,0,1,.49-1.47V73.65l.49-3.43,27.91-1.47v.49a1.8,1.8,0,0,0,.49,1.47v1.47h.49l-.49.49.49-.49v2l.49,2.94v1l1.47,6.86.49,3.43c.49.49.49,1,.49,2.45l-1,2.45.49,1,1,6.36,1.47,8.82v4.4l.49,1v.49l1.46,7.84-.49,1.47a85.65,85.65,0,0,1,1.47,12.24v.49a27.17,27.17,0,0,1,1.47,8.32l.49,2.94V151a6.33,6.33,0,0,0,1,3.92c0,2,0,2.94.49,3.43l1,6.85v3.92c-.49.49-.49.49,0,1a1.8,1.8,0,0,0,.49,1.47c0,3.92.49,6.86,1.47,8.32l1,7.35v1c0,2,0,3.43.49,4.41v2.45l.49,2c.49.49.49,1,.49,2,0,1.47,0,2-.49,2.45l.49,1.47c-.49.49,0,1.47.49,2.94.49,1,.49,2.94.49,5.39l1,7.34c0,2.94,0,4.9.49,5.88v2l1-2a1.8,1.8,0,0,1,.49-1.47v-2c-.49-.49,0-2,1-4.41v-1c0-.49.49-1.47,1-3.42l.48-2c-.48.49-.48.49-.48,0l.48-.49c0-1.47,0-2.45.49-2.94.49-1,.49-2.45.49-4.41a5.71,5.71,0,0,1,1-3.43l.49-2.93v.48c.49-.48.49-1.46.49-3.42,0-1.47,0-2.94.49-3.43s1-2.45,1-5.88l.49-1v-.49c0-.49.49-1,1-1.47v-2.44c.49,0,.49,0,.49-.49l-.49.49A1.8,1.8,0,0,0,252,177l.49-1v-.49c0-1,0-1.47.49-2v-3.92l2.45-9.79a3.67,3.67,0,0,0,.49-2.45.92.92,0,0,1,0-1.47l1-4.9,1.47-7.83c.49-2,1-2.94,1-3.43a5.71,5.71,0,0,1,1-3.43c0-.49,0-1,.49-1l.49-1.47v-2l.49-1v-2.45c.49-.48.49-1.46.49-2.93a3.79,3.79,0,0,0,1-2.45l-.49-1a6,6,0,0,0,1.47-4.41l.49-.49h-.49v-.49l1.47-7.34c.49-.49.49-1.47.49-2.94a1.8,1.8,0,0,1,.49-1.47v.49l1-2.45v-.49l1-4.41c.49-.49.49-2,.49-4.89,0-.49.49-1,1-1.47A40.21,40.21,0,0,0,271.61,83V82c1.47-8.32,2.94-12.73,3.43-12.73l-.49-.49L276,66.3h-.49l-.49.49q.73-.74,1.47-4.41c0-3.42.49-5.38,1-5.38V54.55ZM168.28,397.84v0Zm0,1v0Zm1-322.23v0Zm.49,264.93-.49,1Zm.49-.49c0,.49,0,.49-.49.49Zm1-11.75c-.49,1-.49,2.94-.49,5.38l-.49-2.44.49-3.92v-.49Zm-.49,15.18c-.49.49-.49.49-.49,0Zm0-18.12.49-.49Zm.49,2,1-7.35v4.41Zm1.47,6.36v0Zm.49-19.1.49-.48Zm1-11.26v0Zm1-33.79c0-.49,0-1,.49-1Zm0,0v0Zm1-13.22-.49,1Zm0,7.34v-4.89l-.49,2.94Zm.49,47.51,1-9.8-.48,1v2.45l-.49,2.94-.49,9.79V321a.92.92,0,0,0,0,1.47Zm.49-55.34-.49,1,.49-6.86-1,6.37v-2c0-3.92,0-6.86.49-8.32v-2l.49-4.41.48-2c.49-.49.49-1,.49-2v.49c0,1,0,1.47-.49,2v9.3l-.48,6.86Zm-.49,6.86c0,.49,0,.49-.49,0Zm0-5.88v0Zm1.46-19.59c0,2.45,0,4.41-.49,5.39v-.49C177.58,240.64,177.58,239.17,178.07,238.19Zm0,53.87-.49,5.88,1-2.94v-.49Zm2-73.46v4.9l-.49,2-1,5.87-.49,2L181,206.85c0,1.47-.49,4.41-1,8.81Zm-2,19.59c0-1,0-1.47.49-1-.49,0-.49,0-.49.49Zm1-16.65c0,.49,0,.49-.49,0v-1Zm.49-13.71.49.49Zm2,200.29c-.49,0-.49,0-.49.49C181,408.12,181,408.12,181.5,408.12Zm-.49,1v0Zm0,0v0Zm1.47-233.59v4.4c0-.48-.49-.48-1,0v-1a25.28,25.28,0,0,1,1-5.39v-4.9l.49-2.45v-1.47c0-4.4,0-6.85.49-7.34l.49-2.45v-2l.49,1.47c.49.49.49,1-.49,2v1c0,2,0,2.94-.49,3.43v3.42l-.49,1h.49v7.84l-.49.49v-.49Zm2.94-13.71c0,.49,0,.49-.49,0Zm1-1.47c-.49-.49-.49-2-.49-4.41.49-.49.49-1,.49-2.45V153c-.49,1.47-.49,3.92-.49,8.33Zm1-36.73-1,1.47Zm-.49,7.34c0,.49,0,.49.49.49v.49c-.49,0-.49,1-.49,2.94l-.49,2.94c0-2.45,0-4.41.49-4.9Zm-.49,266.9v0Zm1-268.86v1c-.49,0-.49,0-.49.49Zm-.49,1.47v0Zm.49,259.06V390a1.8,1.8,0,0,0-.49-1.47Zm.49,0v-1a24.86,24.86,0,0,1,1-4.41l-.49-2.93v3.91c-.49,1.47-1,2.45-.49,2.45V388a1.8,1.8,0,0,0-.49,1.47Zm0,7.84v-1a1.8,1.8,0,0,0-.49,1.47Zm0-3.43v0Zm0,0v0Zm1-16.16.49-2v-1c-.49,0-.49,0-.49.49Zm1.47-15.18c0-1.47,0-2.45.49-2.94,0-1.47,0-2.45.49-2.94-.49-.49-.49-1-.49-2.45l.49-1.47-.49,1v4.9l-1,2v2.94c0,1.47,0,2.45-.49,2.93v6.37c0-2.94,0-4.9.49-5.88S190.32,364.54,190.32,362.58Zm-.49-16.65v-.49c-.49.49-.49.49,0,1Zm1.47-12.25-.49,2.45Zm.49-236v0Zm2.45-7.34v0Zm0,67.58v0Zm.48-30.36v8.81l1-12.73.49-1,.49-9.8.49,4.9c0-2,0-2.94.49-3.43-.49,0-.49-1.47,0-4.89-.49-1-.49-3.43-.49-7.84l-.49-4.41c-.49,2.45-.49,3.43,0,3.43v.49c-.49,0-.49-.49-.49-1v1a119,119,0,0,1-1.47,14.69v6.86l.49-2.94.49,1v2.45l-1,1.47v2.94Zm1,19.09c-.49,0-.49.49-.49,1v1C195.21,147.59,195.21,147.1,195.7,146.61Zm2.45-73c-1.47,0-2,0-2.45.49h2.45c0,2.45-.49,6.85-1,12.73v1l1,4.9,1,4.89.49-4.89v3.42c0,1,0,1.47-.49,2l1,2.94v-2c0-2.94,0-4.89.49-5.38a3.67,3.67,0,0,0,.49-2.45.92.92,0,0,1,0-1.47l.49-1.47v-4.9c-.49-.49-.49-2-.49-4.41l-1-4.89,1-.49v1a2.19,2.19,0,0,0,0,2.45v.48l.49-2v-2h0v-1h1V71.2l5.39-.49-3.43.49v1h1v-1h1v1H207v-1l2.45.49V71.2h.49v1a1.8,1.8,0,0,0,1.47-.49l.48-1h-9.79l11.75-.49-15.18.49a.92.92,0,0,0,0,1.47C198.64,73.16,198.64,73.65,198.15,73.65Zm-2.45,37.22.49-.49Zm.49,26.44.49-.49v-.49c-.49.49-1,3.43-1,7.84v.49c0-2.45,0-4.41.49-4.9Zm0-35.75.49-.49v.49Zm0,7.84h.49c0,.49,0,1-.49,1Zm0,5.87c0-2.45,0-3.91.49-4.4Zm.49-13.71v0Zm0,31.34,1.47-12.24v.49c.49,0,.49,0,0-.49l.49-5.88v-1.47l-.49-2.93-.49,1a2.17,2.17,0,0,0,0,2.44v2c0,1.47,0,2-.49,2.45s-.49,1-.49,2.45V132.9Zm.49-26.93v0Zm.49,208.13.49-2Zm2.45-240.45v.49h-2v-.49Zm-1,65.13.49-4.9v-1a3.67,3.67,0,0,1,.49-2.45v-5.38c0-1.47,0-2-.49-2.45V127l-1.47,12.73.49.49Zm-1,173.36v0Zm1.47-239.47c.49,0,1,.49,1.47,1h-1c-.49,0-.49,0-.49-.49Zm.49,17.63v.49a1.8,1.8,0,0,0-.49,1.47Zm-.49,2v0Zm0,32.32.49,1h-.49Zm.49-35.26v0Zm0,0v0Zm.49,41.62v2.94l-.49,2.94,1-4.9v-1Zm-.49,155.73c.49-.49.49-2,.49-3.92a1.8,1.8,0,0,1-.49,1.47Zm1-207.64a1.8,1.8,0,0,0-.49,1.47A1.8,1.8,0,0,1,201.09,79Zm0-5.38h0Zm.49,29.87-.49,4.41v1c0,1.47,0,2.45.49,2.93l.49-5.87v-.49l.49-3.43,1-5.88c-.49,0-.49,0-.49-.49l-.49-3.42a28.91,28.91,0,0,1-1,6.85Zm-.49,34.28v0Zm.49-65.13v-2h0l.49,1Zm1,80.31v0Zm2.94-79.33h0ZM204,101.07v0Zm0,88.15v.49c.49,0,.49,0,.49-.49ZM205.5,178c0,1.95,0,3.42-.49,4.4v3.43c0-2,0-3.43.49-4.41l.49-2.44v-4.41C205.5,175,205.5,176,205.5,178Zm0,19.09v3.43a17.33,17.33,0,0,0,.49-2.94,20.15,20.15,0,0,1,.49-5.87v-2l-.49.49v2.94a1.21,1.21,0,0,0-.49,2ZM208,71.2h0Zm-1.47,112.63v4.41l.49-2v-4.9l-.49,1v1.47Zm0,42.61v0Zm2.45-52.89v-1.47c1-6.37,1.47-11.26,2-14.69v-1.47l-1-9.31c-.49-.49-.49-2.44-.49-4.89l-1,11.75-1,7.35.49,4.4v-.49l.49-2.93,1.47-6.86a9.55,9.55,0,0,0-.49,3.92c0,2.45,0,3.91-.49,4.89s-.49,2.94-.49,5.88a40.75,40.75,0,0,1,1-6.37l.49-1-.49,1,.49,2c-.49.49-.49,1.47-.49,2.94l-.49,4.41Zm-1.47,20.57c.49-.49.49-.49,0-1ZM208,225a.92.92,0,0,1,0-1.47Zm3.43-154.26h0Zm-2,142.51-1,1.46Zm0-54.85a1.8,1.8,0,0,0,.49-1.47v4.41Zm0,49,.49-1.47Zm0,6.36.49-.48c0-.49,0-.49.49,0Zm.49-59.25v0Zm.49-81.78h0Zm14.2,228.2c.49.49.49,1,.49,2.45l.49,2.94a1.8,1.8,0,0,0,.49,1.47c0,2,0,2.94.49,3.43v-1.47l.49-2.94-1-2.94,1,2.45v-1l1-7.34h.48l-.48-2-.49-6.86L225.09,270c0-1.47,0-2.45-.49-2.94l-.49-2.45V261.7l-.49-4.41-1-4.41.49-3.43c-1.47-9.3-2.45-15.18-2.45-18.12-.49-.49-1-2.93-1-7.34l-1-5.88a21.6,21.6,0,0,1-1-4.89v-2.94c-.49-.49-.49-1-.49-2.45s0-2-.49-2.45l-2-15.67c-.49-7.84-1-11.26-1-10.77l-.49-3.43-.49-2.45v1l-.49,2.45v2.94l-.49,1.95v2.45l-.48,2-.49.49v2.45l.49,2.94c0,2,0,2.94.48,3.43v1.46a36.5,36.5,0,0,1,1,8.82c0,.49.49,2.45,1,4.9l1,8.81.49,7.84a38.34,38.34,0,0,1,1,6.85l2.45,17.63v.49l1,5.39c0,1,.49,2.94,1,6.37a20.08,20.08,0,0,1,.49,5.87c-.49,1.47-.49,2.94,0,3.43v.49a7.27,7.27,0,0,1,.49,3.43,3.12,3.12,0,0,0,0,2.94,44,44,0,0,1,1.47,12.24l.49,1.47.49,4.9.49.48ZM211.38,193.14c-.49-.49-.49-.49-.49,0S210.89,193.63,211.38,193.14Zm8.81-121h-2.94l-.49-2.45-2.94.49-1,.49.49,1h1v1h0l-.49,1c.49,0,.49,0,.49-.49v-.49h2l-.49,1.47c-.49,5.38-1,8.81-1,10.77l.49,2,.49,3.43,1,6.85a25.28,25.28,0,0,0,1,5.39V98.62l-.49-4.4.49,3.91.49,1c0-1.47,0-2.45-.49-2.94v-.49l1.47-10.28v-.49c-.49-1-.49-2.45-.49-4.9a9.5,9.5,0,0,0-.49-3.91c-.49-2-1-2.94-1-3.43ZM213.82,185.3a20.27,20.27,0,0,1-1-6.85Zm-1,7.35v0Zm0,0c.49,0,.49.49.49,1.47Zm.49-22v0Zm.49-100.39h.49v.49c0,.49,0,1,.49,1h-.49V71.2Zm2.45,43.09-2-17.63V92.26l-.49,1v2.93l1.47,10.29c.49,1.47.49,4.41.49,7.83.49.49.49,1.47.49,2.94l.49-1-.49-1ZM215.78,202l-2-16.65a96,96,0,0,1,2,15.67Zm-1-130.26a1.8,1.8,0,0,0,1.47.49l-2,.49Zm1,128.79-.49.49v1a1.8,1.8,0,0,1-.49-1.47l.49-.49ZM215.29,79v0Zm.49,3.92.49,1Zm0,67.09v0Zm1.47-77.37c-.49,0-1,0-1-.49h1Zm-1,11.26v0Zm1,5.88c0,.49,0,.49-.49,0s-.49-1.47-.49-2.94l.49,1C216.76,88.83,216.76,89.32,217.25,89.81Zm-1,58.27.49-2.45-.49,1Zm0,56.32a1.8,1.8,0,0,1,.49,1.47Zm0,63.17v0Zm1-58.27c-.49-.49-.49-1.47-.49-3.43C216.76,207.34,216.76,208.81,217.25,209.3Zm0-116.55c-.49,0-.49-.49,0-1Zm0,118.51.49,1v1.46l1,9.8V224c-.49-.49-.49-1-.49-2.45l-1-7.84a.91.91,0,0,1,0-1.46Zm0-119.49v0Zm.49,36.72v1l.49,3.92a1.8,1.8,0,0,1,.49,1.47,24.83,24.83,0,0,0,1,6.37v.49c-.49-1-.49-2.45-.49-4.41a9.55,9.55,0,0,0-.49-3.92c-.49-2-.49-2.94,0-3.43l-1-5.87Zm1-26.93-.49-1a1.8,1.8,0,0,0,.49,1.47Zm5.39,22v-1.47l-.49-3.43c-.49-.49-.49-2-.49-3.43l-2-14.69a1.49,1.49,0,0,1,0-2V97.15l-.49-2v2l-.49,2.94c0,2.45,0,3.43-.49,3.92v1c0,2,0,2.94-.49,3.43l-.49-5.39.49,6.86v4.89l.49,2-.49,2.45a43,43,0,0,0,1.47,10.28v2.45l.49,1c0,1.47,0,2,.49,2.45v4.41l.49,1,.49,1.47v1c-.49,1-.49,1.47,0,2l1,7.34c0,.49,0,.49.49.49v2.45a.92.92,0,0,0,0,1.47c.49,3.43,1,4.9,1,5.39,0,2,0,3.42.49,3.91.49,5.39,1,8.82,1,11.27v3.91c1.47,3.92,1.95,8.33,1.95,13.72L231,209.3v1c.49,2.45.49,3.42,0,3.42v3.43l-.49-.49v.49l-1-5.38-.49.49a36,36,0,0,1-1-5.88v-1.47l-1-5.88c0-2.45,0-4.4-.49-5.38l-.49-2.45a1.8,1.8,0,0,0,.49,1.47V198l.49,3.92v2.94c.49,0,.49,1,.49,2.94.49,3.43,1,5.39,1,6.85l.49,1v3.92c0,2.45,0,3.43.49,3.92L230,225v2c.49,1.47.49,2.45,0,2v2c0,2.45,0,3.92.49,4.41s.49,2,.49,3.43v2l2,8.81v2a.92.92,0,0,0,0,1.47v1h.49v4.41l1.47,4.9v1c-.49.48-.49.48,0,1v-2.44l-.49-3.92.49-1a1.8,1.8,0,0,1-.49-1.47,6.33,6.33,0,0,0-1-3.92l.49-1c0-1.47,0-2-.49-2v-1l-.49-1.46.49,1v1h.49a67,67,0,0,0-1-9.3v-2.94a.92.92,0,0,1,0-1.47l.49.49.49,2.94v1.47c0,2,0,3.43.49,4.41l.49-1,.49,1-1,1.47V248a1.8,1.8,0,0,1,.49,1.47c0,1,0,1.47.49,2l-.49.49v.49l.49-1c0,2.45,0,3.43.49,3.92v2l.49-2.45c.49-.49.49-1,.49-2v1c.49.49.49,1,.49,2v2c0,.49,0,.49.49.49,0-2.45,0-3.43-.49-3.92l-.49-1.47,1-2.94,1-5.87-.49-2.94v-2.45c0-2.45,0-3.92-.49-4.41-.49,0-.49,0-.49-.49v-5.87l-1-5.39c0-1.47-1.47-11.26-3.92-28.89a42.89,42.89,0,0,0-1-7.84,15.11,15.11,0,0,1-.49-4.9v-1.95l-1-4.41c.49-1,0-2.45-.49-4.9v-2l-.49-2-1-11.26a65.86,65.86,0,0,0-1.47-9.79,88.54,88.54,0,0,0-2-15.19c0-2.44,0-3.91-.49-4.4A.92.92,0,0,1,224.11,123.6Zm-2,5.87q-.74-1.47-2.94-20.56v-.49l1.47,10.77Zm-1.47,18.12-1-5.38v.49Zm-1,84.23v0Zm1-82.27-.49,1,.49,1.47a4.14,4.14,0,0,0,1,2.94v1a2.19,2.19,0,0,0,0,2.45l.49,3.92.49,6.85v-8.81l-1-5.88-1-6.37Zm.49-40.15v0Zm.49-39.67.49,1.47v-.49Zm0,32.81v0Zm0,18.12c.49,0,.49,0,.49.49Zm.49,1v0Zm1,4.9V127l-1-5.39Zm.49,14.69-1.47-7.84v-2.94l1.47,9.8v1Zm-1-57.79v0Zm1,47v0Zm0,1v0Zm0,13.72v0Zm.49,32.32c0,1.47,0,2,.49,2.44h.49a11,11,0,0,1-.49-3.42l-.49-1v-2.45c-.49,0-.49,1-.49,2.45C224.11,176,224.11,176.49,224.11,177.47Zm0-41.14v0ZM224.6,152h-.49v-4.9l.49,5.39Zm.49,1.47c-.49,0-.49-.49-.49-1Zm.49,34.77v-1l-.49.49c0,.49,0,1,.49,1Zm1-25.47a2.19,2.19,0,0,0,0,2.45v1.47c-.49-.49-.49-2-.49-5.38a1.8,1.8,0,0,1-.49-1.47l.49,1C226.56,161.31,226.56,161.8,226.56,162.77Zm-1,134.19.49,1Zm.49,1v0Zm1,16.16c-.49.49-.49,1.95-.49,3.91l25,1,.49-4.89h-3.43l-.49,3.42V318l-17.63-.49v-3.91H230v-1a1.8,1.8,0,0,1-.49-1.47c0-.49,0-.49-.49-.49l.49,1,.49,2c-.49-.49-1.47-.49-2.93-.49Zm0-153.77.49.49h-.49Zm0,10.77v0Zm0,125.37v0Zm.49-121a.92.92,0,0,0,0-1.47c.49,0,.49,0,.49.49v2Zm0,134.18v0ZM228,179.43l.48,1.46Zm0,129.77v0Zm.48-125.86v0Zm.49-10.28v0Zm.49,5.88v-.49c-.49-.49-.49-.49,0-.49Zm.49,13.22c.49,1,.49,1.47,0,2v-2l-.49-1Zm0,3.43c.49.49.49,1.46.49,3.91Zm0,25v0Zm0,0c.49.49.49,1.47.49,3.43C230,223.5,230,222.52,230,220.56Zm0,93.05v0Zm1-126.84-.49,1.47v-.49Zm0,16.16c-.49,0-.49,0-.49-.49s0-.49.49,0Zm1-3.92c0-1,0-1.47-.49-2Zm-.49,8.33v0Zm1,3.43v2l-.49.49.49-1a3.67,3.67,0,0,0-.49-2.45v-.49a1.8,1.8,0,0,1-.49-1.47v1Zm2.94,102.84c-2,0-3.43,0-3.92.49l2.45.49v.49l.49-.49h1Zm-2.94-82.28c-.49,0-.49,0-.49-.49Zm0-14.2c.49.49,1,2.94,1,6.37Zm0,15.18v0Zm1-8.32.49,2.94c-.49-.49-.49-1.47-.49-3.43Zm.49,90.11c0,.49,0,.49.49.49Zm2-70-1.47-13.23v-.48l.49,1.46,1.47,12.74c0,2,0,2.93.49,3.42v1.47c0-.49,0-1-.49-1Zm-1.47,67.58h.49v-1.47Zm1.47-61.22v.49h-.49v.49Zm0,52.89v0Zm1-50.44v0Zm1,31.83c-.49-.49-.49-1-1-1a21.56,21.56,0,0,0,1,4.9v-3.92Zm-1,13.23c.49-2.45,1-4.41,1-4.9Zm.49,16.16v0Zm.49-51.91c.49.49.49,1,.49,2.44l.49,1c-.49-.49-.49-1.95-.49-3.91l-.49-1.47v2Zm1-54.85h0Zm.49,61.21V271l-1,3.92a31,31,0,0,0,1.47,7.34l.49,3.92c0-2.45,0-3.92.49-4.41v-1.46c.49-.49.49-1.47.49-2.94,0-1,0-1.47.49-2l.49-1-.49-1V273l.49-.49V270c0-1.47,0-2.45-.49-2.94l-1-4.89-1,7.83-.49.49Zm-.49,17.14v0Zm1-15.18-.49,2.45v-2.45Zm0,31.83h-.49v2c.49,0,.49,0,.49-.49v-1.47Zm0-28.4a1.8,1.8,0,0,1,.49-1.47Zm0,3.43v-2.94a3,3,0,0,1,.49,2,3.7,3.7,0,0,0-.49,2Zm.49-66.11v0Zm.49,21.54v-1.47l-.49-2c.49.49.49,2,.49,3.91Zm-.49,44.57a24.59,24.59,0,0,0,1-5.88l1-1-.49,1-.49,3.92v1l-1,1.47v-.49Zm.49,4.4-.49-1.95.49.49Zm0,13.72-.49,1Zm0-1.47v-2l.49-.49v-.49c-.49,0-.49,0-.49.49Zm.49,21.54v-.48h0c0,.48,0,.48-.49.48Zm0-25v0Zm0,23v0Zm1-18.61-.49-2.94c0,2,0,3.43.49,3.92Zm0-12.74v0Zm.49-16.65v0Zm1-11.75-.49.49.49,1Zm0,38.2-.49-.49c0,1,0,1.47.49,2Zm3.91,22h-2.93v-1l-.49-2.45-.49-1c0,2,0,3.43.49,3.92v.49l-1-.49v1l1.47.49Zm1-94c-2,10.29-2.94,15.67-2.94,17.14l-1,4.41-.49,2.94.49,3.42-.49,2.94-.49,1.47h.49l.49-1V249l.49,1a1.82,1.82,0,0,0,.48,1.47l-.48,1,.48,1.47v.49l.49,1c0,1,0,1.47.49,1.47l-.49-3.92v-1l1.47-8.81,1.47-7.35.49-2,.49-2c.49-.49.49-1.95.49-3.42l1-4.9c0-1.47,0-2,.49-2.45l1-5.88,2-8.32,1-3.92c0-1.47,0-2,.49-2.45v-1c.49-2.45,1-3.91.49-4.4,0-.49.49-1,1-1.47v-1l.49-5.39.49-2.94c.49-.49.49-1.47.49-2.94,0-2.44.49-3.42,1-3.42,0-1.47,0-2,.49-2.45V176c0-.49,0-.49.49-.49v-1h-.49l.49-1v-.49l.49-1,.49-2.94c.48-.49.48-1.47.48-3.43v-1l1.47-6.85.49-2v2.45l-.49,2.45c.49-.49,1-2.45,1.47-6.86l2.94-12.24-.49-2.45,1.47-5.39v1c0,.49,0,.49.49,0v-1.47a17,17,0,0,0,1.47-5.87,1.8,1.8,0,0,0-.49-1.47,44.2,44.2,0,0,1,1.47-7.35v1c.49.49.49.49.49,0v-1.47a4.45,4.45,0,0,0,1.47-3.43v-2a4.13,4.13,0,0,1,1-2.93v-1l-.49.49c0,.49,0,.49-.49.49v-.49l1-2.45,1-6.37c0-3.92,0-6.36.49-7.34v-1c.49-1,.49-2.45.49-4.9a5.41,5.41,0,0,1,0-3.92v-1A40.21,40.21,0,0,0,276,91.28l-.49,1.47v2L275,97.15a24.86,24.86,0,0,0-1,4.41,66.81,66.81,0,0,0-2,8.33l-2,7.34a40.75,40.75,0,0,0-1,6.37l-1,4.41a2.91,2.91,0,0,0-.49,2,1.8,1.8,0,0,1-.49,1.47L262.79,153l-2.93,13.22-1,5.88L257.41,178l-1,5.87c-1.47,4.9-2,7.84-2,9.31a18.21,18.21,0,0,0-1,5.87,16.94,16.94,0,0,0-1.47,5.88l-1.47,5.39c.49,1,.49,1.47,0,2v-.49A66.28,66.28,0,0,0,248.59,220.07Zm-4.4,39.67v-1c0,.49,0,.49-.49.49Zm.49,54.36v1l-.49-1Zm0-65.14v0Zm.49,5.39-.49,2.94Zm.48-3.92.49-1Zm0,0c.49-.49.49,0,0,.49Zm.49,2.45-.49,1.47v-.49Zm.49-6.36a1.78,1.78,0,0,1-.49,1.46Zm-.49,1.46v0Zm0,10.29h.49v-1Zm2,59.74v0Zm1.47-89.61c.49,1.47,0,3.42-.49,5.38-.49.49-.49.49-.49,0v-.49A14.44,14.44,0,0,0,249.57,228.4Zm0,53.37v0Zm.49-61.7.49-1Zm0,1v0Zm0,7.35v0Zm0,61.7.49-1c0,.49,0,.49-.49.49Zm.49,24.49v.49l-.49.48Zm-.49,2v0Zm.49-70.51v0Zm22.53-41.63c.49-.49.49-2,0-3.43.49-.49.49-1,.49-2.45,0-1,0-1.47.49-2a4.09,4.09,0,0,0,1-2.93v-5.88c0-2,0-3.43.49-3.92l-1.47,5.39q-2.94,14-2.94,16.16l-.49,1.47v0c-.49,0-.49.49-.49,1v1l-.49,2.45v.49l-1,.49v.49l-2,6.36a24.86,24.86,0,0,0-1,4.41v2a2.26,2.26,0,0,0-1.47,2.45v3.42h-.49l.49-.49-.49.49-.49,2c.49-.49.49-1,.49-2v3.43a3.67,3.67,0,0,1,.49-2.45c.49-.49.49-1,.49-1.95l.49,1-.49,1-.49.49,1-1-.49,3.43.49-1c0,2.45,0,3.43-.49,3.92a24.83,24.83,0,0,0-1,6.37,9.53,9.53,0,0,0-.49,3.91c-.49.49-.49.49-.49,1a1.82,1.82,0,0,1-.48,1.47,4.14,4.14,0,0,0-1,2.94c-.49,2.45-1,6.37-2,11.75-.49,0-.49,0-.49-.49h.49v-.49c-.49,0-.49,0-.49.49-.49.49-.49.49-.49,0l1-1c0-1.47,0-2,.49-2.45l-.49-2,1.47-4.9v-2c0-1.47,0-2,.49-2.45,0-.49.49-1,1-1.47s0-1.47-.49-2c.49,0,.49,0,.49-.49v-2.94c.48-.49.48-1.47.48-2.94l-.48,1-.49.49c-.49,0-.49.49-.49,1.47v1c-.49.49-.49,1-.49,2l-5.39,27.42a12.47,12.47,0,0,1-1,3.43,35.92,35.92,0,0,1-1,5.87L252,293l-1,6.85v1.47c.49.49.49,1,.49,2.45l.49,1.47.49,4.9v1l.49-1v-1.47l1-5.88a1.8,1.8,0,0,0,.49-1.47,16.9,16.9,0,0,1,1.47-5.87l-.49-1.47c.49,0,.49-1,.49-2.94l1-2.94v-1.47l.49-2.94a19.28,19.28,0,0,0,1-2.93v-1.47c-.49-.49-.49-.49,0-1l1-2.45v-1l1.47-7.84a1.8,1.8,0,0,1,.49-1.47l-.49-.49,1-3.42c.49-.49.49-2,.49-3.43a49.34,49.34,0,0,1,1.95-10.78l2.45-14.69c.49-.49,1-1,1-1.47s0-.49.49-.49v-1a3.12,3.12,0,0,1,0-2.94,1.8,1.8,0,0,1,.49-1.47l.49-1.47c.49-.49.49-1,.49-2l-.49-1,2.45-9.3v-2l.49-1.47.49-2.45A1.8,1.8,0,0,1,273.08,204.4Zm-21.55,12.24-.49,1v-2c.49-.49.49-1,.49-2Zm0,4.41c0,1,0,1.47-.49,2C251,222,251,221.54,251.53,221.05Zm-.49,2v0Zm.49,90.11v-.49c-.49,0-.49,0-.49-.49Zm0-25.47.49,2ZM252,176l.49-.49V176l-.49.49Zm.49,3.43a1.77,1.77,0,0,0-.49,1.46Zm0,34.27v4.9l-.49.49a1.8,1.8,0,0,1,.49-1.47Zm.49-42.11v0Zm.49,38.2.49-1v.49Zm0,0v0Zm0,88.15c0-1.47,0-2,.49-2.45V296C253.49,296.47,253.49,297,253.49,297.94Zm1-97.95v-.49A1.8,1.8,0,0,1,254,201Zm-.49,7.35v0Zm.49,87.66v0ZM255,194.61q.73-.74,0,1.47Zm0,25.95,1-2v-1.47Zm.49-20.57,1-1v1a4.14,4.14,0,0,0-1,2.94Zm.49-7.83a8.8,8.8,0,0,1,1.47-5.39,21.56,21.56,0,0,0-1,4.9Zm.49,2.45c.49-3.43,1-4.9,1.47-4.9Zm0,19.09v1.47l1-3.42q.73-2.2,0-2.94Zm1-59.25v0Zm0,28.89.49-2c0,2,0,2.94-.49,2.94Zm0,24,1-2v1Zm1,54.85a4.11,4.11,0,0,1-1,2.93Zm0,10.77c0,1,0,1.47-.49,2a14.31,14.31,0,0,1,1-4.41C258.39,271,258.39,271.49,258.39,273Zm-.49,2v0Zm1-6.86c0-1,0-1.47.49-1.47A1.8,1.8,0,0,1,258.88,268.06Zm1-93.53c-.49,0-.49.49-.49,1a1.8,1.8,0,0,1,.49-1.47Zm-.49,91.08v0ZM260.84,177l.49.49v-1Zm1-11.76v.49c0,1.47,0,2-.49,2.45Zm-.49,7.84v0Zm1-10.29-.49,1.47Zm.48-1.46-.48,1.46Zm.49,74.43c0,.49,0,1-.49,1v-.49a1.8,1.8,0,0,1,.49-1.47l-.49,2c0,1,0,1.47-.48,2,.48,0,.48,0,.48-.49v1Zm-.49-74.43v-1.47l.49-2.94Zm.49,75.9c-.49,0-.49,0-.49-.49Zm1-119.49v0Zm1.47,29.87-.49,1Zm-.49,86.19c.49,0,.49,0,0,.49Zm3.43-101.86.49-3.43-2.45,13.72-1,1Zm-2.94,15.67.49-2.44Zm.49,75.91c0-2.45,0-3.43.49-3.92v1c-.49.49-.49,1.47-.49,3.92Zm2-81.29-.49,1-1,3.42.49-1a11,11,0,0,1,.49-3.42Zm-1.47,4.89c.49.49.49.49,0,.49Zm0,72.48,1-2a1.8,1.8,0,0,1-.49,1.47Zm2.45-91.09,2.94-13.22Zm1.47,1-1,2.45v-.49Zm-1,3.92v0Zm.49,74.44.49-1-.49,1.47Zm3.92-102.35.49-.49v.49l-1.47,6.36-1,3.43.49-2Zm.49-33.3-1,.49Zm-.49,39.66v3.43c-.49,0-.49,0-.49-.49Zm.49-6.85.49-1ZM275,391.47l-.49-.49c0-.49,0-.49.49,0Zm1.47-297.25v3.42L275,101.56ZM275,101.56v0Zm0,1.47v0Zm1,.49c0,.49,0,.49.49.49v-2.45C276.51,102.54,276.51,103,276,103.52Zm.49,12.73a1.8,1.8,0,0,1-.49,1.47v2l.49-1.47v-2Zm0-22c0-.49,0-1,.49-1Zm6.85-32.33V56l-1.47,6.85c-.49.49-.49,1-.49,2.45s0,2-.49,2.45h1v-.49c0-.49.49-1,1-1.47l-.49,1.47a9.45,9.45,0,0,0,1.47-4.9Zm-2.45,10.78v0Zm13.23,50.44v0ZM303,282.26v0Zm0,5.39v0Zm0,5.88v0Zm0,1.47v0Zm0,2v0Z" style="fill:#2b2b2b"/><path d="M337.71,390.49v0Zm2.45.49v0ZM442,70.22h-.49l.49-.49h1l-.49-.49c1.47,0,2.45,0,2.94-.49l-.49-.49h-1.47c-2.94,0-4.9,0-6.36.49h-2l-.49.49-1.47.49h-1.47l-2,.49-2.45.49-1,.49-.49.49h-1.47a1.8,1.8,0,0,0-1.47.49,1.8,1.8,0,0,1-1.47.49H420l-1,.49a1.8,1.8,0,0,1-1.47.49l-1,.49c0-.49-.49-.49-1,0l-2.94,1a1.8,1.8,0,0,1-1.47.49q-2.94,0-2.94,1.47h-.49l-1,.48L403.33,79l-4.4,1.47-1.47.49L395,82h-.49c0,.49,0,.49-.49.49h-1l-.49.49a4.45,4.45,0,0,1-3.43,1.47l-2,1-1.46.49a3.74,3.74,0,0,1-2.45,1h.49c-1.47,0-2,.49-2,1h-.49c-.49-.49-.49-.49-1,0a1.8,1.8,0,0,1-1.47.49c-.49,0-1,0-1,.49l-1,.49-2.45,1,1-1v-.49l-1,.49c-.49,0-.49,0-.49.49v.49l-1,.49-1,.49c-.49-.49-.49-.49-.49,0l-.49.49h-.49l-1.95,1-1,.49c-.49,0-.49,0-.49.49h-.49l-.49.49-2,1-2,1a6.51,6.51,0,0,0-3.43,1.47h.49a1.8,1.8,0,0,0-1.47.49l-.49.49c-1,0-1.47.49-1.47,1-.49-.49-1,0-2,.49h.49l-.49.49c-1,0-1.47,0-1.95.49l-.49.49-1,.49v1a1.8,1.8,0,0,1-.49,1.47,1.8,1.8,0,0,0-.49,1.47v2.94a1.8,1.8,0,0,0-.49,1.47v2l-.49,2c-.49.49-.49,1.47-.49,2.94v1l-.49,2v3.92l-.49.49v3.91l-.49,1.47v5.39c-.49.49-.49,1-.49,2.45v5.39c-.49.49-.49,1.47-.49,3.42v8.82a1.8,1.8,0,0,0-.49,1.47v.49h-.49l.49.49v12.73a1.8,1.8,0,0,0-.49,1.47c0,3.43,0,4.9-.49,5.39v5.38c0,1.47,0,2.45-.49,2.94v6.86h-.49v.49c.49,0,.49,0,.49.49V199c0,.49,0,.49-.49.49V200l.49.49v2l-.49.49v1c0,.49,0,.49-.49,0v40.16c-.49,0-.49,0-.49.49v1h-.49c0,.49,0,.49.49.49v4.4c0,.49,0,1-.49,1v-.49l-.49-1v7.35h0v20.57l.49.49-.49.49.49,2.45v6.36l-.49,7.35v16.16c.49.49.49,2,.49,4.89l-.49,3.92,1,20.08v15.18h.49a1.8,1.8,0,0,0-.49,1.47l.49,2.45v17.14l.49,4.9v3.91c0,17.14,1,26.94,2.45,29.39v2.94l.49,1.95.49,2,1,2v2l.49,1h.49l.49.49,1,.49,1-1h1.46v.49h1l1.47,1c.49.49,1,.49,1.47-.49h.49l.49.49,1-1h.49c0,.49.49,1,1.47,1l1,.49.49.49h1.47l.49.49h.49v1c.49,0,.49,0,.49-.49,0-1,.49-1.47,1.47-1,0,.49,0,.49.49,0v-1.47l1,.49a1.8,1.8,0,0,1,.49-1.47l.49-1v-1h.49v1a1.05,1.05,0,0,0,1-1v-3.43h-.49v-1l.49-.49v-1h.49l1,2c.49-.49.49-1,.49-2.45l-.49-1,.49-.49c0-1,0-1.47.49-2v-1c.49,0,.49-.49.49-1-.49-1-.49-1.47,0-2v-4.41a.92.92,0,0,1,0-1.47V392c-.49-.49-.49-.49,0-1v-6.86a1.78,1.78,0,0,1,.49-1.46V375.8l.49-3.92c0-1.47,0-2-.49-2.45l.49-1v-4.89h.49a1.8,1.8,0,0,1-.49-1.47v-2.45l-.49-.49v-1l.49-.49h.49l-.49-.49c.49-.49.49-.49,0-1-.49,0-.49,0-.49-.49V341c-.49-.49-.49-1-.49-2.45v-2l.49-.49-.49-1v-.49c.49-.49.49-1.47.49-3.91V310.18c.49-1,.49-2.94.49-6.37v-5.87a1.8,1.8,0,0,1,.49-1.47v-2.94l.49-9.31V272.47c.49-.49.49-.49,0-1V269c.49-.49.49-1,.49-2s0-1.47-.49-2v-1.46a1.8,1.8,0,0,1,.49-1.47v-1c-.49,0-.49-.49-.49-1,.49-.49.49-1,.49-2.45v-3.43l.49-1.47c0-.49,0-1-.49-1v-3.43c.49-.49.49-1,.49-2.44l-.49-3.43a2.45,2.45,0,0,0,0-2.94v-1.47c.49-.49.49-.49,0-1v-.49c.49-.49.49-1,.49-2v-2c-.49,0-.49-.49-.49-1a.91.91,0,0,0,0-1.46l.49-1v-2.45l-.49-1a1.8,1.8,0,0,0,.49-1.47V202l.49-.49c0-1.47,0-2,.49-2v-3.42c-.49-.49-.49-.49,0-1v-8.33c0-1,0-1.47.49-1.47l.49-1v-.49c-.49,0-.49,0-.49-.49l-.49-1v-2.93c-.49,0-.49,0,0-.49l.49-1v-2a3.12,3.12,0,0,1,0-2.94l-.49-.49v-2h.49v-2.45l.49-1v-1l-.49-3.43.49-1v-2.45c.49,0,.49,0,.49-.49v-1.47c0-1.47,0-2-.49-2.45,0-1.47,0-2,.49-2.45V152l.49-1.47a1.8,1.8,0,0,1-.49-1.47v-2.45a1.77,1.77,0,0,1,.49-1.46v-6.86c.49-.49.49-1,.49-2v-4.41a1.8,1.8,0,0,0,.49-1.47c0-.49,0-.49-.49-.49a1.8,1.8,0,0,0,.49-1.47l.49-.48v-3.92h.49v-.49l.49-.49h.49c.49,0,.49,0,.49-.49h.49c.49.49.49.49,1,0v-1l.49-.49h1a1.05,1.05,0,0,1,1-1l2.44-1.47h.49l-2,1.47-1,1-1,.49h-.49v1c.49,0,.49,0,.49-.49l2.93-2,1-.49v-.49l.49-.49c.49-.49,1-1,1.47-1v.49l.49-.49h.49l2-1.47h.49l1-.49,1.47-1c0-.49,0-.49.49-.49s.49,0,.49.49v-.49l1-1a1.8,1.8,0,0,0,1.47-.49l.49-.49h.49c0-1,1-1.46,2.44-1.46l1.47-1,.49-.49.49-.49a6,6,0,0,0,4.41-2,3.74,3.74,0,0,0,2.45-1h.49l.49-.49c0-.49.49-.49,1-.49s1,0,1-.49.49-.49,1-.49l.49-.49H418c0-.49.49-.49,1-.49a1.77,1.77,0,0,0,1.46-.49l2-1,1-.49c.49,0,.49,0,.49-.49a7.55,7.55,0,0,1,3.43-1.47h-.49c.49-.49,1-.49,2-.49-.49-.49,0-1,1-1.47a1.8,1.8,0,0,1,1.47-.49c.49,0,.49,0,1-.49l3.92-1.47,2.93-1.46a1.8,1.8,0,0,1,1.47-.49c.49,0,.49,0,.49-.49h1l.49-.49,4.41-1,3.92-1,.49-.49v-.49a1.8,1.8,0,0,0,1.47-.49c-1,0-1.47,0-2,.49s-1,.49-2.45.49h-2l-2,1v-.49l-5.39,1.47h-1l-1,.49-4.9,2-1,.49a1.82,1.82,0,0,0-1.47.48l-1.47.49-1,.49c.49,0,.49,0,.49-.49l2.45-1.46a3.74,3.74,0,0,1,2.45-1l2.45-1.47,2-.49h.48l12.25-3.43,2.94-1.47,1-.49v-.49h-1.47l.49-1,1-.49h-.49a1.8,1.8,0,0,1-1.47.49h-1.47c0-.49,0-.49-.49-.49l-.49-.49-.49-.49c-.49,0-.49,0,0-.49.49,0,.49,0,.49-.49V81l-1-.49h-.49v-1h.49c.49-.49,0-.49-.49-.49s-.49,0-.49-.49l.49-.49c.49-.49.49-.49,1,0,.49,0,0-.49-.49-1-.49.48-.49.48-.49,0-.49,0-.49,0-.49-.49v-1l1-1h-2v-.49l-.49-1v-.49h-6.37l-1,.49h-1.46l-2,.49H433.7c-.49.49-.49.49-.49,0-.49,0-.49,0-.49-.49h2.45l-.49-.49,3.42-1h1.47l1-.49,1-.49.49-.49c-.49.49,0,.49.49.49l.49-.49h-1ZM341.63,277.37h-.49l.49-.49Zm0-7.84c-.49-.49-.49-.49,0-.49Zm0-14.2v-2q.74,1.47,0,1.47Zm0,.49v0Zm.49-49v0Zm0,37.71v0Zm0,8.81c.49.49.49.49,0,.49Zm.49-77.37v0Zm0,2.94v0Zm0,25.95h0Zm1-42.6h0Zm-.49,50.93v0Zm0,85.69v0Zm.49-142.5v0Zm0,14.69c.49.49.49.49,0,1Zm.49,40.16c-.49.49-.49.49-.49,0Zm-.49,160.62v0Zm0,30.36v0Zm.49-252.2v0Zm0,26v0Zm0,215h0Zm1-256.61v0Zm0,7.35v0Zm0,10.28v0Zm0,73v0Zm.49,141c-.49-.49-.49-.49,0-.49Zm0-241.92v-.49c.49.49.49.49,0,1ZM346,128v-.49l.49.49Zm0,7.83v0Zm6.36,32.81c-.48.49-.48,2.45,0,5.39-.48,0-.48.49-.48,1v4.89l-.49,5.88v9.8a1.78,1.78,0,0,0-.49,1.46l.49,1.47c-.49.49-.49.49,0,.49V202l-.49,5.88v9.3c0,.49,0,1-.49.49v.49c-.49,0-.49,0-.49.49a1.8,1.8,0,0,0-.49-1.47v-6.36h-1v9.3H349c0,.49,0,.49.49.49,0,.49,0,.49.49,0-.49,0-.49.49,0,1v-1.47h.49V223l-1,1.47v0A1.8,1.8,0,0,1,350,223v3.43l-.49.49c-.49.49-.49.49-.49,0v2.45a1.8,1.8,0,0,1-.49-1.47v5.87l-.49,4.9v12.73c0,2.45,0,3.92-.49,4.41v1a1.8,1.8,0,0,1-.49-1.47l-.49-.49v-47c.49-.49.49-1.47.49-3.43V187.26c-.49-.49-.49-.49,0-.49.49-.49.49-.49,0-1s-.49-.49,0-1v-3.92h.49c-.49-.49-.49-1,0-1V178c-.49-1.47-.49-2,0-2v-9.31a2.19,2.19,0,0,0,0-2.45c0-1.47,0-2,.49-2.44v-5.39c0-2,0-2.94.49-3.43v-2.45L348,150c.49-.49.49-2.45.49-6.85l.49-.49v-2.94l.49-.49v-7.35c.49-.49.49-2.45.49-5.87v-.49l.49-1v-2.94a43.18,43.18,0,0,0,1.47-10.28c0-1,0-1.47.48-2l.49-2.45V104c.49,0,.49,0,.49-.49a1.8,1.8,0,0,0,1.47-.49l2.94-1.47,2-1,2.45-1.47a3.7,3.7,0,0,0,2-.49c.49-.49,1-.49,1.47-1l1-.49,1-.49a1.8,1.8,0,0,1,1.47-.49h1l1-.49.49-.49h1A1.8,1.8,0,0,1,374,94.7l5.39-2c.49-.49,1-.49,2-.49h-.49c0,.49-1,1-2.45,1.47h-.49l-.49.49h-.49c0,.48,0,.48.49.48a1.82,1.82,0,0,0,1.47-.48l1-.49-2,1.46-2.45,1.47.49-.49a.92.92,0,0,1,1.47,0h1l.49-.49h1.47l2.45-1.46h1.47l.49-.49-2.45,1.46h-.49l-2,1h-.49c-.49,0-1,0-1,.49l-1,.49-2.94,1.47a1.8,1.8,0,0,1-1.47.49c-1.47,1.47-2.45,2-3.91,2l-2,1-1,.49L360.73,105l-2,1-1,1h-.49v2a1.8,1.8,0,0,0-.49,1.47c0,1.46,0,2-.49,2.44v2.45c-.49.49-.49,1-.49,2.45l-.49,2.45v4.41c-.49,0-.49,0-.49.49V129l-.49,1v2.45l-.49,1v5.39l-.49,4.41v4.89a1.8,1.8,0,0,1-.49,1.47v2l-.49,4.41v12.73ZM347,260.23c.49.49.49.49,0,1l.49-1H347l.49-.49Zm.49-151.32v-.49l.49-.49v.49Zm0,3.42v2c.49-.49.49-2,.49-3.42Zm0,30.37v0Zm.49-32.81.49-.49Zm0,97.94.49-.49v2Zm0,57.29v0Zm1-73v-1l-.49-1c-.49.49-.49,1,0,1Zm-.49,2.94H349v1Zm0,5.38c.49.49.49.49,0,1Zm0,1c.49.49.49.49,0,.49Zm0,13.71H349v.49h-.49Zm0,15.67v0Zm0,1.47v0Zm0,37.22v0Zm.49-81.29v0Zm.49,3.92H349c.49,0,.49,0,.49-.49ZM349,332.22v0Zm1-175.81v-.49c.49.49.49,1,0,1Zm0,63.17v-1c.49,0,.49,0,.49.49Zm.49-66.6c.49-.49.49-.49.49,0Zm0,58.77v0Zm.49,7.34-.49,1v-2c0,.49,0,.49.49.49Zm-.49,1.47v0Zm.49-69.05c-.49,0-.49,0,0-.49Zm0,41.63v.49a.92.92,0,0,1,0-1.47Zm0,1v0Zm.49,26.93h0Zm0-63.66v0Zm0,1.47v0Zm.49,4.4v2.94c-.49,0-.49,0-.49-.49v-2.45c0-.49,0-1,.49-.49Zm0,4.9-.49.49v-.49Zm-.49,32.32v0Zm0,2.45v0Zm.49-41.13a.92.92,0,0,1,0-1.47Zm0-6.86v0Zm0,0v0Zm12.73,92.55h-.49l.49.49-.49-.49c0,.49,0,.49.49.49l2.45,2c0,.49,0,.49.49.49h.49a1.79,1.79,0,0,0,1.46.49c0,.49,0,.49.49.49h.49c.49,0,.49,0,.49.49h1l.49.49h1v-.49h2.45c.49,0,1,0,1-.49h1.47v.49c0-.49,0-.49.49,0,.49-.49.49-.49.49,0v.49h.49v-.49c-.49,0-.49,0-.49-.49h1.47v-.49h.49v-.49c.49.49.49.49.49,0h.49l.49-.49h.49c.49,0,.49,0,.49-.49h.49V249h1.47v-.49h1.46V248h.49l.49-.49h.49l.49.49-.49-.49.49-.48h.49l.49-.49h1.47c.49,0,.49,0,.49-.49h1l.49-.49V246H394l-.49-.49H394V246h.49v-1h1v0c.49,0,.49,0,.49.49.49,0,.49,0,.49-.49h1c0-.49,0-.49.49-.49s1-.49,1.47-1h.49l1-.49.49-.49h1.47v-.49h.48v.49h.49v0c-.49,0-.49,0-.49.49l1.47-.49v0l.49-.49h.49l.49-.49,1.47-.49h.49l1-1,1.47-.49h.49a1.8,1.8,0,0,1,1.47-.49l.49-.49a1.8,1.8,0,0,1,1.47-.49l.49-.49,2.45-1.47H418c0-.49,0-.49.49-.49v-.49c.49,0,.49,0,.49.49v-.49c.49,0,.49,0,.49-.49H420l.48-.49H421l1-1,1-.49h.49a1.05,1.05,0,0,0,1-1c.49,0,1.47-.49,2.94-1.95,1-1,1.47-2,1-2.45h.49v-1h.49V226l-.49-1v-.49l.49-.49-.49-.49c-.49-.49-.49-.49,0-.49l-.49-1-1-1v-.49c-.49,0-.49,0-.49-.49l-.49-1-.49-1-.49-1-.49-.49-.49-.49v-.49c-.49,0-.49,0-.49-.49h-.49v-1l-.49-1c-.49,0-.49,0-.49-.49v-.49c-.49,0-.49,0-.49-.49v-.49l-.49-.49c-.49,0-.49,0-.49-.49v-.49l-.49-.49-.48-1c0-.49,0-.49-.49-.49a1.05,1.05,0,0,1-1-1H418l-.49-.49c0-.49,0-1-.49-1v.49h-.49l-.49-.49v-.49c-.49,0-.49,0-.49-.49h-1l-.49-.49c0,.49,0,.49-.49,0,0,.49,0,.49-.49.49h-.49c0,.49,0,.49-.49.49h-.49l-.49.49H409.7c-.49,0-.49,0-.49.49h-1.47c-.49.49-.49.49-.49,0h-1v.49h-.49c0,.49,0,.49.49.49-.49,0-.49,0-.49-.49h-.49v1c0,.49-.49.49-1,.49l-1,.49h-.48v.49c-.49-.49-.49-.49-1,0h-.49c-.49,0-.49,0-.49.49h-2.45c-.49.49-1,.49-1,1H396l-1.47.49h-1v.49h-1c-.49-.49-.49-.49-.49,0h-.49l-.49.49h-1.47v.49l-.49-.49c-.49,0-.49,0,0,.49h-1l-.49.49h-.49c0,.49,0,.49-.49,0v.49h-.48c-.49,0-.49,0-.49.48-.49-.48-.49-.48-.49,0h-1v.49h-.49c-.49,0-.49,0-.49.49h-.49l-.49.49h-2c-.49,0-.49,0-.49.49h-.49c0,.49,0,.49-.49,0v.49l-.49-.49h-.49v.49c0,.49,0,.49-.49.49h-.49c0,.49,0,.49-.49.49,0,.49,0,.49-.49,0v.49l-.49-.49-.49.49h-1a1.05,1.05,0,0,1-1,1v-.49c-.49,0-.49,0-.49.49v.49c-.49,0-.49,0-.49-.49-.49,0-.49,0-.49.49l-.49.49c-.49-.49-.49-.49-.49,0H370v.49c-.49,0-.49,0-.49.49v0c0-.49-.48-.49-1.46,0h-.49l-.49.49-.49.49h-1.47v1h-.49V223l-.49.49c0-.49,0-.49.49-.49v-1.47h-.49V223c0,.49,0,.49-.49.49l-.49.49v.49h-.49V225c-.49,0-.49,0-.49.49v0h-.49c.49.49.49.49,0,.49s-.49,0-.49.49h-.49l-.49.49h-.49v.49c0,.49,0,.49-.49,0,0,.49-.49,1-1.47,1h0c.49.49.49.49,0,1h-.49l-2,.49v0h-1.47l-1-.49c-.49,0-.49,0,0,.49h-.49l.49.49h1l1,.48h.49c0,.49.49.49,1.47.49h.49v.49l1-.49h1l-.49.49v.49H357.3l-1.47-.49h-1.47v.49h-.49v.49l.49.49v.49c0-.49,0-.49.49-.49.49.49.49.49.49,1h.49l.49,1v.49l.49.49v.49h.49l.49.49.49,1v.49c.49,0,.49,0,.49.49v.49l.49.49v.49h.49l.49,1v.49c.49,0,.49,0,.49.49l.49.49.49,1h.49v.49l.49.49.49.49v0l.49.49,2,1,.49.48h-1l-.49-.48v.48c0-.48,0-.48-.49-.48v.48Zm-11.76-94v0Zm.49-53.38h0Zm1,128.8h0Zm1-1h-.49v-.49Zm0,1h0Zm.49-1.47v.49h0Zm0,.49v0Zm.49,0v0Zm.49.49h0Zm0,2v-.49c.49,0,.49,0,.49.49Zm1-1.47h0Zm1-2.45v0Zm.49-10.29h0Zm.49,9.31v1l.49-.49v-.49c-.49,0-.49,0,0-.49v-.49c-.49-.49-.49-.49-.49,0s0,.49-.49.49Zm-.49,0v0Zm.49,5.87h.49l-.49.49h-.49Zm.49-6.36h.49c0,.49,0,.49-.49.49Zm1,0h-.49l1-.49h-.49Zm.49,4.41h0Zm.49,25v1c-.49,0-.49,0-.49-.49Zm-.49,14.2v0Zm1-53.38v1.47l-.49-.49Zm0,7.35v0c-.49,0-.49,0-.49-.49v-.49l.49-.49.49-.49v1h0V222h-.49ZM362.2,225v.49h.49a1.8,1.8,0,0,1-.49-1.47l.49-.49v3.92l-.49-1Zm.49,2.94v.49a1.8,1.8,0,0,1-.49,1.47v-.49l.49-1c0-.49,0-.49-.49-.49Zm-.49,1v0Zm.49,3.91v0h0Zm1-42.11v2.45c-.49,2.94-.49,4.89,0,5.87.49,0,.49,0,.49.49v1l-.49,1.47v-1.47l-.49.49a1.8,1.8,0,0,0-.49-1.47,1.8,1.8,0,0,1,.49-1.47,1.8,1.8,0,0,0-.49-1.47c.49-.48.49-1,.49-2.44V190.2Zm-1,9.79v0Zm.49,6.37h0Zm0,1c-.49.49-.49.49-.49,0Zm0,1a1.8,1.8,0,0,0-.49,1.47v-2C362.69,208.81,362.69,208.81,363.18,208.81Zm-.49,15.67v0Zm0,6.85v0Zm0,12.74v0Zm0,25v0Zm.49-63.66c-.49-.49-.49-.49,0-.49Zm3.43,88.15v-1l.49-6.37v-5.87c0-3.43,0-5.39-.49-5.88V270l.49.49v-9.79a1.8,1.8,0,0,1-.49,1.47v1.47c-.49,0-.49,0-.49-.49,0-1.47,0-2-.49-2.45v-3.43c0,.49,0,.49-.49,0v-1l-.49-.49.49-1v-.49c0-.49,0-.49.49-.49v.49a2.15,2.15,0,0,0-.49-2.45v-2l.49-.49h.49l-.49-1.47-.49-.49v-3.91l.49-2,.49,1.47v-2.94l-.49-1c0-.49,0-1,.49-1v-.49a1.8,1.8,0,0,1,.49-1.47v-1c-.49,0-.49-.49-.49-1v-1c-.49,0-.49-.49-.49-1.47v-2.44c0-3.92,0-5.88.49-6.37V180.89l.49-.49c-.49,0-.49-.49,0-1l-.49-1V174c.49,0,.49,0,.49-.49v-.49c-.49,0-.49,0-.49.49v-2l-.49-1v1c0,1.47,0,2.94-.49,3.43l-.49-.49V174l-.49.49c.49.49.49.49,0,1v1l.49.49c-.49,0-.49,0-.49.49v2.44l-.49,3.92v2c0,1.47,0,2.45-.49,2.94v-4.9c0-.49,0-.49.49-.49v-2c-.49,0-.49,0-.49-.49a1.79,1.79,0,0,0,.49-1.46v-4.9c0-1.47,0-2-.49-2.45v-2.94c0-.49,0-.49.49-.49l.49-1V166.2c-.49-.49-.49-1,0-1v-4.4l.49-.49v-.49c-.49,0-.49,0-.49-.49.49-.49.49-1,.49-2v6.36h1v1.47h1l.49-.49a1.8,1.8,0,0,0,.49-1.47c-.49-.49-.49-1.95,0-4.4v-5.39c.49-.49.49-1.47.49-2.94v-4.41c.49-.49.49-1.46.49-2.93v-2.94l.49-3.92v-1.47c.48,0,.48-.49.48-1.47v-4.9l.49-1V127c-.49-1-1-1.47-.49-2s.49-1,.49-2v-1.47c.49-.49.49-1,.49-2v-1c.49,0,.49-.49.49-1l.49-.49v-.49c.49,0,.49,0,.49-.49s.49-.49,1-.49l.49-.49H374l2-.49h.49l2-1-.49.49-.49.49a1.05,1.05,0,0,1-1,1c-.49,0-1,0-1,.49h-.49c0,.49,0,.49-.49.49H374l-1,.49c0,.49,0,.49-.49.49H372v1c-.49.49-.49.49,0,1v.49l.49-1v-1.47H373v-.49c.49,0,1,0,1-.49l2-.49-.49,1,2-1h.49l2-1h.49l-1.47,1a1.05,1.05,0,0,0-1,1h.49v.49c-.49,0-1,.49-1.47,1a1.8,1.8,0,0,1-1.47.49v.49h-.49v5.39l-.49.49v2.93A1.8,1.8,0,0,1,374,130v1.47l-.49,3.92v4.41l-.49,4.41v1l-.49,1.95-.49,3.43v6.86l-.49,1v14.2c0,1.47,0,2.45-.49,2.94v7.34l-.49.49v.49c.49,0,.49,0,.49.49v2l-.49,2v9.3l-.49,2.94v16.16a1.8,1.8,0,0,1-.49,1.47V226l.49-.49V226c-.49,0-.49,0-.49.49v13.22l-.48,10.77v6.37c-.49.49-.49,1-.49,2.45v15.67l-.49,4.41c0,.49,0,.49-.49.49v6.36c-.49,2-.49,5.39-.49,10.78v1a1.8,1.8,0,0,0-.49-1.47Zm-3.43-104.31v0Zm.49,33.79v.49l-.49-.49Zm-.49,12.24v0Zm.49,11.27v0Zm.49.49h0Zm0-26c.49-.49.49-.49.49,0S364.65,221.54,364.16,221.05Zm0,25.47v0Zm14.2-136.14h-.49v.49a4.51,4.51,0,0,0-2.45,1.46l-2.45,1-1,.49-1,1h-.49l-.49.49h-.49v2c-.48.49-.48,1-.48,2l-.49,3.92-.49,1.47v1.47l-.49,1c.49,0,.49.49,0,1v.48c-.49,0-.49,0-.49.49l-.49,2.94q-.74,2.21,0,2.94c0,1,0,1.47-.49,2v5.88c-.49.49-.49,2-.49,3.91v2l-.49,2.45v-.49c0-1,0-1.47-.49-2l.49-1v-2.93a1.8,1.8,0,0,0,.49-1.47v-.49a1.49,1.49,0,0,1,0-2v-4.9a1.8,1.8,0,0,1,.49-1.47v-2.45c0-1.47,0-2.45.49-2.94v-2.44l-1-1v-3.92a1.8,1.8,0,0,1,.49-1.47v2.94c.49,0,1-1.47,1.47-3.92v-1a1.8,1.8,0,0,1,.49-1.47v-2h.49v-.49H370c0-.49.49-.49,1.47-1l2-1H374c0-.49,0-.49.49-.49h.49l1.47-1,1-.49h1ZM364.65,154c0-1.47,0-2,.49-2v.49c0,1.47,0,2.45-.49,2Zm0,2.45v-.49c.49.49.49.49,0,1Zm0,9.3.49.49-.49,1Zm0,75.42v0Zm0,6.36h.49V248Zm0,1c0-.49,0-.49.49,0C364.65,248,364.65,248,364.65,248.47Zm.49,12.25v-1l-.49-.49c.49-.49.49-.49,1,0v.49Zm.49-12.25h-.49V248Zm0,31.35c.49,0,.49,0,.49-.49v1a.91.91,0,0,1,0,1.46v1.47l-.49-1c0,.49,0,.49-.49,0l.49-1.95ZM365.14,296v0Zm.49-1c-.49-.49-.49-.49,0-1Zm0-125.37v-.49l.49,1Zm0,66.6v0Zm.49,1h-.49l.49-.49Zm0,.49h0Zm-.49,8.33.49,1c-.49.48-.49.48-.49,0Zm0,4.4v-.49c.49.49.49.49,0,1Zm0,4.9.49.49-.49.49Zm.49-135.65v0Zm0,6.37v0Zm.49,105.28v1.47l-.49-.49Zm-.49,17.14.49.49Zm.49-28.89v1.47a1.49,1.49,0,0,1,0-2Zm0,7.84c-.49-.49-.49-.49,0-1Zm0,2v1a.92.92,0,0,1,0-1.47Zm0-21.55.49-2v2.45Zm0,1.47c.49.49.49.49,0,1Zm0,2v-.49l.49.49c0,.49,0,.49-.49.49Zm0,1c.49.49.49.49,0,1Zm0,2.44.49-.49a1.8,1.8,0,0,1-.49,1.47Zm0,6.86v0Zm0,1.47v0Zm0,1v0Zm0,23.5h0Zm1.47,2-1.47-.49h.49Zm-1.47,19.1.49.49c-.49,0-.49,0-.49.49Zm.49-154.26v0Zm.49,74.93h0Zm-.49,4.9v-1h.49c0,1,0,1.47-.49,2Zm0,2.93v-.49c0-.48,0-.48.49-.48Zm0,1v-.49l.49.49c-.49,0-.49,0-.49.49Zm0,3.43v0Zm0,2v0Zm0,33.79h.49v1Zm0,3.43h.49v2Zm0,2.94v0Zm.49,2.45h-.49l.49-.49Zm-.49,12.24v0Zm0-10.78v0Zm.49-58.76c-.49-.49-.49-.49,0-1Zm0,3.43c-.49-.49-.49-.49,0-.49Zm0,52.4c-.49-.49-.49-.49,0-1Zm.49-68.07V178l-.49-.49v-1c.49,0,.49,0,.49-.49Zm0,3.42h-.49v-1l.49-.49Zm0,1.47-.49.49v-1Zm-.49,1.47v0Zm0,2v0Zm0,2v0Zm0,41.14h0Zm0,1.47h0Zm0,2.93.49-.49a1.8,1.8,0,0,1-.49,1.47Zm0,2.45v0Zm0,4.41v0Zm0,5.88v0Zm0,2.44h.49V248Zm.49-22.52v.49c-.49-.49-.49-1,0-1Zm0,2c-.49-.49-.49-.49,0-.49Zm0,2.94c-.49-.49-.49-.49,0-.49Zm0-137.61.49-.49Zm0,72v-2c0-.49,0-.49.49-.49v2.44Zm0,3.92v0Zm0,5.39v0Zm.49,39.67-.49-.49h.49Zm-.49.48.49.49-.49,1V213.7Zm0,7.35h0Zm0,2.45v0Zm0,7.83v0Zm.49-73v0Zm0,1v-.49c.49.49.49.49,0,1Zm0,2v0Zm0,45.05v0Zm0,1v0Zm0,0v0Zm0,1v0Zm0,3.43v0Zm30.85,4.89v.49h-.49l-1,.49h-1l-1,.49v.49h-1.47l-1,.49H394l.49.49v-.49l.49.49c-.49,0-.49,0-.49.49v.49h0v.49l-.49.49-.49-.49v-.49c-.49,0-.49,0,0,.49,0,.49,0,.49-.49.49v0l-1,.49-.49-.49v-.49l-.49.49c.49,0,.49,0,0,.49v-.49h-.49l-.49.49v.49a.92.92,0,0,1-1.47,0l-.49.49c0,.49,0,.49-.49.49h-1V224c0-.49-.48,0-1,.49h-.49c-.49,0-.49,0-.49.49h-.49v.49h-1c-.49,0-.49,0-.49.49h-.49v.49c0,.49,0,.49-.49.49h-.49v0h.49c-.49,0-.49,0-.49.49v.49l1-.49v1h2v-.49h.49v.49h-1v.49h-1v1h-1v-.49l-.49.49v0h-1v.49l-.49-1h1l-.49-1v-1c-.49,0-.49,0-.49-.49s0-.49-.49,0l-.49.49h-1l-.49.49h-1v.49c0,.49,0,.49-.49,0l-.49.49-.49-.49-.49.49c0,.49,0,.49-.49.49h-.49c.49.49.49.49,0,.49-.49-.49-.49,0-.49.49-.49-.49-.49-.49-.49,0H372c0-.49,0-.49-.49-.49v.49H371v.48c-.49-.48-.49-.48-1,0h-.49c0-.48,0-.48.49-.48v-1l.49.49v-.49H371l.49-.49c0-.49-.49,0-1,.49H370v-.49h-.49c0,.49,0,.49-.48.49l-.49-.49.49-.49v-.49l-.49-.49h.49v-.49l.48-.49,1-1h1c.49,0,.49,0,.49-.49h.49l.49-.49h1.47V224l.49.49.49-.49h.49v-.49h1c.49,0,1-.49,1.47-1h.49l.49-.49h1.47c0-.49,0-.49.49-.49h1c0-.49,0-.49.49-.49h1l.49-.49h.49c.49,0,.49,0,.49-.49h1v-.49h1.46v-.49h1l.49-.49c.49.49.49.49.49,0l2-.49.49-.49.49.49h.49c0-.49,0-.49.49-.49l1-.49H395c0-.49,0-.49.49,0,0-.49.49-.49,1,0H397c-.49,0-.49,0-.49.49l.49-.49h.49l.49-.49c1-.49,1.47-.49,2,0Zm-30.85,4.41v0Zm.49-129.77h1c0-.49,0-.49.49-.49l-.49.49Zm0,42.11v0Zm0,12.73c0-.49,0-.49.48-.49-.48-.48-.48-.48,0-1v2Zm0,4.41v-2h.48V150Zm0,.49v0Zm0,1v0Zm0,1v-.49l.48.49c-.48,0-.48,0-.48.49Zm0,1v0Zm0,1v0Zm0,.49v0Zm.48,29.38-.48.49v-.49Zm-.48,3.43v0Zm0,2.94v0Zm0,6.85v0Zm0,33.3v-.49c0,.49,0,.49.48.49Zm1-119h0Zm0,27.92v.49a1.49,1.49,0,0,0,0,2v.49a17.33,17.33,0,0,1-.49-2.94Zm-.49,3.43v0Zm.49,83.25h0Zm-.49,1.47v0Zm0,2.93v0Zm1-97.45v-2.45l-.49,4.9v.49ZM370,164.73v0Zm0,62.69v0Zm0,1.47v0Zm.49-68.56c-.49-.49-.49-.49,0-.49Zm0-69.05h0Zm0,39.17V130l.49-1v1.47Zm0,1v0Zm0,21.06c.49,0,.49,0,0,.49Zm0,3.92v0Zm0,39.18v0Zm0,24.48v0ZM372,121.64l-.49,1c.49,0,.49,0,0,.49v.49c0,.49,0,.49-.49.49v-1.47a1.8,1.8,0,0,1,.49-1.47c0-.49,0-.49.49-.49Zm-1,3.43h.49l-.49.49Zm0,1c.49.49.49.49,0,.49Zm0,1.47v0Zm0,20.56v0Zm0,.49v0Zm.49,84.72v.49H371c0-.49,0-1,.49-1v-.49c.49,0,1-.49,1.47-1h1c.49,0,.49,0,.49-.49l.49.49c.49,0,1,0,1-.49h.49c.49.49.49.49.49,0l1-.48h.49c0-.49,0-.49.49,0v.48h-1.47l.49.49c-.49.49-.49.49-1,0h-1l-.49.49-.49.49.49,1-.49.49v-1h-1.47c0,.49,0,.49-.49.49l-.49-.49v.49H372v.49h-.49ZM371,250.43v0Zm.49-112.14v-1.47c.49.49.49,1,0,2Zm0,2v0Zm0,2v0ZM372,228.4h.49v.49h-1Zm.49-97H372c.49,0,.49,0,.49-.49ZM372,235.25v0Zm1-6.85h0Zm-.49,160.13h0ZM373,227.91h.49v.49H373Zm.49,24c0,.49,0,.49-.49,0ZM373,290.1v0Zm0,83.25h0Zm1-145.44c-.49.49-.49.49-.49,0Zm-.49,6.85v0Zm0,17.63v0ZM374,272h0Zm-.49,24.49c.49,0,.49,0,.49.49Zm0,24v0Zm0,42.61v0Zm0,2v0Zm1-246.82c0,.49,0,.49-.49.49ZM374,226h0Zm.49,1.47h.49c0,.49-.49.49-1,.49ZM374,358.66v0Zm.49,2h0Zm.49-242.9h0Zm-.49,1.47h0Zm.49,114.59h0Zm-.49,1c.49.49.49.49,0,.49Zm0,22h0Zm1.47-146.91-1,.49v-.49a1.8,1.8,0,0,1,1.47-.49Zm-1,6.85h0Zm.49,54.36v.49l-.49-2,.49.49v.49h1c0,.49,0,.49-.49.49,0,1,0,1.47-.49,2Zm-.49,46.52v0Zm0,7.84v0Zm0,5.87v0Zm11.27,8.82h1l.49-1c0,.49,0,.49.49.49v-.49h.49c.49-.49,1-.49,1,0l.49-.49h1c0-.49,0-.49.49-.49s.49,0,.49-.49l1-.49h2v1.47h-1c0,.49,0,.49.49.49v.49c.49,0,.49,0,.49-.49h1v-.49c0-1-.49-1.47-1-1.47,0-.49,0-.49.49-.49v.49c.49.49.49.49.49,0h.49c0,.49,0,.49.49.49v.49h.49a1.8,1.8,0,0,1,1.47-.49h1c0-.49,0-.49.49-.49,0-.49,0-.49.49,0h1v.49c.49.49.49.49,0,.49l-1,.49h-1v.49h-.49l-.49.49h-1v.49h-1v.49h-1l-.49.49H395c-.49,0-.49,0-.49.49h-1c0,.49,0,.49-.49.49-.49.49-.49.49-.49,0v.49h-.49v.49c-.49-.49-.49-.49-.49,0h-1c0,.49,0,.49-.49.49h-.49l-.49.49h-.49v.49h-1.47l-1,1-1,.49v-.49c0,.49,0,.49-.49.49h-.49l-1.47,1h-1l-.49.48h-.49c0,.49,0,.49-.49.49h-.49v.49h-1l-2-.49h-.49l.49-.49h.49l-.49-.48h-.49l.49-.49V246h-1c0-.49,0-.49-.49-.49h-.49v-.49h1.47l1-.49v-.49h1c0-.49,0-.49.49-.49l.49-.49h.49l.49-.49h.49c0-.49,0-.49.49,0,0-.49,0-.49.49,0v-.49h.49v-.49h1v-.49h1a1.8,1.8,0,0,0,1.47-.49v-.49Zm-11.27,7.34V247h.49v.48Zm0,0v0Zm0,5.88h0Zm0,.49h.49v.49Zm0,14.69v0Zm0,3.43v0Zm1-153.77h-.49l.49-.49Zm-.49,76.4v0Zm0,5.87v0Zm0,26.94v-.49h.49Zm0,9.3v0Zm0,1.47v0Zm.49,9.3h-.49c0-.48,0-.48.49-.48Zm0,4.9h0Zm1-157.69-1,.49c-.49,0-.49,0,0-.49Zm-.49,22.53.49.49h-1Zm-.49,68.07h0Zm.49,9.8-.49-.49Zm0,23.5h0Zm-.49,6.86v0Zm.49,1.47c0,.49,0,.49-.49,0Zm-.49.49v0Zm0,19.59h0Zm.49-137.61v0Zm0,79.82h0Zm0,4.9v0Zm.49,24.48.49.49-.49.49v-1.47h0v.49c0-.49,0-.49.49,0Zm0,8.33c-.49,0-.49,0,0-.49Zm0-138.1c0-.49,0-.49.49-.49Zm0,81.29h0Zm0,11.26v0Zm.49,5.88-.49,1v-.49Zm0,60.23-.49-.48Zm-.49,4.41v0Zm.49-87.66v-1.47l.49,1.47Zm.49,1.47h0Zm0,12.74-.49-1c0-.49,0-.49.49-.49ZM377.38,225v0Zm0,1.47v0Zm0,0h0Zm.49-74.44v0Zm0,4.9v0Zm.49,50.44h0Zm-.49.49v0Zm0,5.87c0-.48,0-.48.49-.48Zm0,2.45v0Zm0,35.75v0Zm.49.49-.49-.49Zm0-25.95c-.49-.49-.49-.49,0-.49Zm.49-26.45h0Zm0,15.67c-.49,0-.49,0-.49-.49Zm-.49,10.78v0Zm.49,25.46c0,.49,0,.49-.49,0Zm-.49,0v0Zm2.45-139.08h-.49l-1.47,1q0-.73,1.47-1.47Zm-2,22.53h0Zm0,90.6h0Zm0,0v0Zm0,4.41.49-.49v.49Zm.49-42.61c-.49-.49-.49-.49,0-.49Zm1-100.39-1,.49v-.49ZM379.83,226h-.49c0-.49,0-.49.49-.49Zm.49-102.84h0Zm-.49,3.92v0Zm1,98.43h-.49l.49-.49Zm-.49-101.86h0Zm0,128.79h0Zm1-159.64h.49c0,.49-.49.49-1,.49Zm-.49,19.58h0Zm0,105.29v0Zm0,3.92h0Zm.49,2h-.49V223h.49Zm-.49,1.47h0Zm0,2.45c.49,0,.49,0,.49.49Zm0,1v0Zm1-3.43h0Zm0-12.24h0Zm0,11.75c.49.49.49.49,0,.49Zm0,26.44v0Zm1.47-158.66c0-.49.49-.49,1-.49l-1.47,1h-.49Zm-1,22c.49-.49.49-.49.49,0Zm.49,110.19h0Zm-.49.49v0Zm.49-138.59c.49,0,1,0,.49.49Zm0,136.63v0Zm0,1,.49.49h-.49Zm.49-137.12h0Zm0,164v0Zm0,1v0Zm1-141h0Zm0,113.12c-.49.49-.49.49-.49,0Zm.49-113.61h0Zm0,2.44v.49h-.49Zm-.49,110.68h.49V224Zm.49-137.61,1-.49Zm2.93,4.41v.49l-2.44,1h-.49l.49-.49Zm-2.44,133.2-.49.49v-.49Zm-.49,4.41h0Zm.49,13.71h0Zm0-13.22c-.49-.49-.49-.49,0-.49Zm.49-143.49h0Zm-.49,136.63v0Zm0,5.88v0c.49,0,1,0,1-.49v-1l.48,1v.49c0,.49,0,.49-.48,0v.49c0-.49,0-.49-.49-.49v.49h-.49v-.49Zm0,14.2c0-.49,0-.49.49-.49Zm0,8.32v0Zm.49-156.21v0Zm.49,127.81h0Zm0,2h-.49c0-.49,0-.49.49-.49Zm-.49,19.59v0Zm0,5.87v0Zm.49,1.47h0Zm.48-166h0Zm-.48.49h0Zm0,136.63v-.49l.48.49Zm.48,1.47c0,.49,0,.49-.48,0Zm-.48,17.63h.48v.49h-.48Zm0,0v0Zm.48,2.45h0Zm.49-29.87h0Zm0,9.79h0Zm-.49,4.41v0Zm0,21.05v0Zm.49-25.46v-.49c.49,0,.49,0,.49.49Zm0,3.92h0Zm0,13.22v0Zm1-13.22c-.49,0-.49,0-.49-.49Zm-.49,0v0Zm0,22c0-.49,0-.49.49,0Zm1-154.74h0ZM394,118.7l1-1v.49c.49,0,.49,0,.49.49H395l-2.45,1.47a1.8,1.8,0,0,1-1.47.49c0,1-1,1.47-2.45,1.47v.49l-.49-.49c.49,0,.49,0,.49-.49h.49v-.49l1-.49h1l.49-.49h0l.49-1,1-.49h.49v-.49H394Zm-5.88,101.86v0Zm0,5.88v0Zm0,22v0Zm.49-158.17c-.49,0-.49,0,0-.49Zm0,122.43v0Zm0,7.83v0Zm0,.49v0Zm.49,1c-.49.49-.49.49-.49,0Zm.49-138.1h0Zm0,5.39c0,.49,0,.49-.49.49Zm-.49,130.75c.49.49.49.49,0,.49Zm.49.49h0Zm0,0h0Zm0,1c0,.49,0,.49.49,0Zm0,0v0Zm.49-8.81v0Zm1,13.22h-1l.49-.49Zm-.49-12.73v0Zm0,6.85h0Zm1-7.83h0Zm0,7.83h0Zm-.49,1.47v0Zm0,0v0Zm0,1v0Zm0,2.94h0Zm0,21.55v0Zm.49-164.55v0Zm0,137.61c0-.49.49-.49,2-1v.49a1.8,1.8,0,0,0-1.47.49Zm0-.49v0Zm0,.49v0Zm0,5.39v0Zm0,15.67v0Zm0-.49v0Zm.49-28.89v0Zm0,9.3h0Zm0,26.93v0Zm2-27.42v.49c0-.49,0-.49-.49-.49Zm.49,19.1c0,.49,0,.49-.49.49Zm.49-2.94c0,.49,0,.49-.49.49ZM395.5,224v.49c0-.49,0-.49-.49-.49ZM395,236.72c.49.49.49.49,0,.49Zm0,2.45v0Zm.49-27.42v0Zm0,25h0Zm0,0v0Zm.49,7.35-.49-.49Zm0,.49h0Zm1,1h0Zm.49-26.45v-1H398v1Zm1,1h0ZM398,237.7v0Zm1-123.9h0Zm6.85-2.93h.49l2.45-1-5.39,2.93c-1.46.49-1.95,0-1.46-.49s1-.49,1.95-.49l1-.48a.48.48,0,0,0,.49-.49Zm-3.42,125.85h.49c0,.49,0,.49-.49,0v0Zm0,5.88v0Zm1.46-.49h0Zm.49-129.29h0Zm2-.49h-.49l.49-.49Zm-.49,93.54v0Zm0,.49v0Zm1,0h0Zm1.47-95.49h0Zm.49-34.28v.49c0-.49,0-.49.49-.49Zm1,32.81h-.49a3.74,3.74,0,0,1,2.45-1Zm2.94-.49,2-1.47,1-.49a.92.92,0,0,0-1.47,0l-.49.49c0-.49.49-1,2-1.47h-1l-1.47,1-.49.49v.49l-2.45,1.47c-.49,0-.49,0-.49.49h.49l1-.49Zm-2.45,130.75h0Zm.49-33.79v0Zm.49,0v0Zm1-97h0Zm.49-2h0Zm.49,1h0Zm.49-4.41h0Zm2.45-27.42-.49.49Zm.49-2.45h0Zm-.49,32.81.49-.49h.49Zm.49-32.81.49-.49v.49Zm2,31.34H419l-1,.49Zm.49,0h-.49l1-.49Zm-.49-.49v0Zm2,126.83h0ZM423.9,96.17h.49l-2,1h.49Zm1.47-20.07h0c0-.49,0-.49.49-.49Zm1.47,19.58-2,.49,1-1c.49,0,1,0,1-.49h.49l2.94-1h-.49c0,.49,0,.49-.49.49Zm1,140.55v0Zm1.47-161.11h0Zm0-2.45c.49-.49,2.45-1,6.37-2-1,0-1.47,0-2,.49a1.8,1.8,0,0,1-1.47.49,1.8,1.8,0,0,0-1.47.49A1.8,1.8,0,0,1,429.29,72.67Zm0,26h0Zm4.41-2-2,1a1.8,1.8,0,0,1,1.47-.49Zm0,1-.49.49v-.49Zm1-3.42c0,.48,0,.48-.49.48,0-.48.49-.48,1-.48Zm-.49,2.93c.49,0,.49,0,0,.49l1-.49c.49,0,.49,0,.49-.49,0,.49,0,.49-.49.49Zm3.42-26.93v.49h-1.46l.49-.49Zm-1,26.44c.49,0,.49,0,.49-.49Zm1-.49h0Zm.49-25.95,1-.49,1-.49.49.49h-.49Zm0,24.48h0Zm2.45-25.46c0-.49,0-.49.49-.49Zm.49,1h0Zm.49,2.45c0,.49,0,.49-.49.49ZM441,90.79h0Zm2.45-22.53c0,1-.49,1-1,.49l-1,.49H442l-.49-.49H443l.49-.49v0Zm-2,2.94h0Zm1-2.94h0Zm1,2h0Zm1,22h0ZM445,69.73c.49,0,.49,0,0,.49Zm4.41,4.41h0Zm.49,0h0Zm.49,14.69h0Z" style="fill:#2b2b2b"/></svg>