<svg xmlns="http://www.w3.org/2000/svg" viewBox="0 0 476.12 479.32"><title>Artboard 11</title><circle cx="238.06" cy="239.66" r="237.66" style="fill:#f5f5f5"/><path d="M12.44,387.17v0Zm2.56.51v0ZM121.54,52.2H121l.51-.52h1l-.52-.51c1.54,0,2.56,0,3.08-.51l-.52-.51h-1.53c-3.08,0-5.12,0-6.66.51h-2l-.51.51-1.54.51h-1.54l-2,.52-2.56.51-1,.51-.51.51H103.1a1.87,1.87,0,0,0-1.53.51,1.88,1.88,0,0,1-1.54.52H98.49l-1,.51a1.89,1.89,0,0,1-1.54.51l-1,.51c0-.51-.52-.51-1,0l-3.07,1a1.89,1.89,0,0,1-1.54.51c-2,0-3.07.51-3.07,1.54h-.51l-1,.51-3.58,1.53L76.47,63l-1.54.51-2.56,1h-.51c0,.51,0,.51-.51.51h-1l-.51.51a4.65,4.65,0,0,1-3.59,1.54l-2,1-1.53.52a3.92,3.92,0,0,1-2.56,1h.51c-1.54,0-2.05.51-2.05,1H58c-.51-.51-.51-.51-1,0a1.85,1.85,0,0,1-1.53.52c-.51,0-1,0-1,.51l-1,.51-2.56,1,1-1v-.51l-1,.51c-.51,0-.51,0-.51.51v.52l-1,.51-1,.51c-.52-.51-.52-.51-.52,0l-.51.51h-.51l-2,1-1,.51c-.52,0-.52,0-.52.51h-.51l-.51.51-2,1-2.05,1c-1,0-2,.51-3.58,1.54H35a1.9,1.9,0,0,0-1.54.51l-.51.51c-1,0-1.54.51-1.54,1-.51-.52-1,0-2,.51h.51l-.51.51c-1,0-1.54,0-2.05.51l-.52.52-1,.51v1a1.89,1.89,0,0,1-.51,1.54,1.88,1.88,0,0,0-.51,1.54v3.07a1.86,1.86,0,0,0-.52,1.54v2l-.51,2.05c-.51.52-.51,1.54-.51,3.08v1l-.51,2v4.1l-.52.51v4.1l-.51,1.53v5.64c-.51.51-.51,1-.51,2.56v5.63c-.51.51-.51,1.54-.51,3.59v9.22a1.87,1.87,0,0,0-.51,1.53v.52h-.52l.52.51V157.2a1.85,1.85,0,0,0-.52,1.53c0,3.59,0,5.12-.51,5.64V170c0,1.54,0,2.56-.51,3.07v7.17h-.51v.52c.51,0,.51,0,.51.51v5.63c0,.52,0,.52-.51.52v.51l.51.51v2.05l-.51.51v1c0,.51,0,.51-.51,0v42c-.52,0-.52,0-.52.51v1h-.51c0,.51,0,.51.51.51v4.61c0,.52,0,1-.51,1v-.51l-.51-1v7.68h0v21.52l.51.51-.51.51.51,2.56v6.66L16,287.29V304.2c.51.51.51,2.05.51,5.12l-.51,4.1,1,21v15.87h.52a1.88,1.88,0,0,0-.52,1.54l.52,2.56v17.93l.51,5.12v4.1c0,17.93,1,28.17,2.56,30.73v3.07l.51,2.05.51,2.05,1,2.05v2.05l.51,1h.51l.51.52,1,.51,1-1h1.54v.52h1l1.54,1c.51.51,1,.51,1.54-.51h.51l.51.51,1-1h.51c0,.51.51,1,1.53,1l1,.51.51.51h1.54l.51.52h.51v1c.51,0,.51,0,.51-.51,0-1,.52-1.54,1.54-1,0,.52,0,.52.51,0v-1.53l1,.51a1.9,1.9,0,0,1,.51-1.54l.51-1v-1h.51v1a1.1,1.1,0,0,0,1-1v-3.58h-.51v-1l.51-.51v-1h.51l1,2.05c.52-.52.52-1,.52-2.56l-.52-1,.52-.51c0-1,0-1.54.51-2.05v-1c.51,0,.51-.52.51-1-.51-1-.51-1.54,0-2.05v-4.61a1,1,0,0,1,0-1.53V388.71c-.51-.51-.51-.51,0-1v-7.17a1.87,1.87,0,0,1,.51-1.53v-7.17l.52-4.1c0-1.54,0-2-.52-2.56l.52-1V359h.51a1.88,1.88,0,0,1-.51-1.54V354.9l-.52-.51v-1l.52-.51h.51l-.51-.52c.51-.51.51-.51,0-1-.52,0-.52,0-.52-.51V335.44c-.51-.51-.51-1-.51-2.56v-2.05l.51-.51-.51-1v-.51c.51-.51.51-1.53.51-4.1V303.17c.52-1,.52-3.07.52-6.66v-6.14a1.88,1.88,0,0,1,.51-1.54v-3.07l.51-9.73v-12.3c.51-.51.51-.51,0-1v-2.56c.51-.51.51-1,.51-2s0-1.54-.51-2.05v-1.54a1.87,1.87,0,0,1,.51-1.53v-1c-.51,0-.51-.51-.51-1,.51-.51.51-1,.51-2.56v-3.59l.51-1.54c0-.51,0-1-.51-1v-3.58c.51-.52.51-1,.51-2.57l-.51-3.58a1.89,1.89,0,0,0,.51-1.54,1.87,1.87,0,0,0-.51-1.53v-1.54c.51-.51.51-.51,0-1v-.51c.51-.51.51-1,.51-2.05v-2c-.51,0-.51-.51-.51-1a1,1,0,0,0,0-1.54l.51-1V216.1l-.51-1a1.87,1.87,0,0,0,.51-1.53V190l.52-.52c0-1.53,0-2,.51-2v-3.59c-.51-.51-.51-.51,0-1V174.1c0-1,0-1.54.51-1.54l.51-1V171c-.51,0-.51,0-.51-.52l-.51-1v-3.07c-.51,0-.51,0,0-.52l.51-1v-2a3.27,3.27,0,0,1,0-3.07l-.51-.52v-2h.51v-2.57l.51-1v-1L53.93,149l.51-1v-2.56c.52,0,.52,0,.52-.52v-1.53c0-1.54,0-2.05-.52-2.56,0-1.54,0-2.05.52-2.57v-.51l.51-1.53a1.9,1.9,0,0,1-.51-1.54V132.1a1.89,1.89,0,0,1,.51-1.54v-7.17c.51-.51.51-1,.51-2v-4.61a1.87,1.87,0,0,0,.51-1.53c0-.52,0-.52-.51-.52a1.87,1.87,0,0,0,.51-1.53l.51-.52v-4.09h.52V108l.51-.51h.51c.51,0,.51,0,.51-.51h.52c.51.51.51.51,1,0v-1l.51-.52h1a1.1,1.1,0,0,1,1-1l2.56-1.54h.51l-2,1.54-1,1-1,.52h-.52v1c.52,0,.52,0,.52-.51l3.07-2,1-.51v-.51l.52-.52c.51-.51,1-1,1.53-1v.51l.51-.51h.52l2-1.54h.51l1-.51,1.54-1c0-.52,0-.52.51-.52s.51,0,.51.52v-.52l1-1A1.87,1.87,0,0,0,78,96.76l.52-.52H79c0-1,1-1.53,2.56-1.53l1.54-1,.51-.51.51-.51a6.25,6.25,0,0,0,4.61-2,3.92,3.92,0,0,0,2.56-1h.51l.52-.52c0-.51.51-.51,1-.51s1,0,1-.51.52-.51,1-.51l.51-.52h.51c0-.51.52-.51,1-.51A1.87,1.87,0,0,0,99,86l2-1,1-.52c.51,0,.51,0,.51-.51a8,8,0,0,1,3.59-1.54h-.52c.52-.51,1-.51,2-.51-.51-.51,0-1,1-1.53a1.85,1.85,0,0,1,1.53-.52c.51,0,.51,0,1-.51l4.09-1.53,3.08-1.54a1.87,1.87,0,0,1,1.53-.51c.52,0,.52,0,.52-.52h1l.51-.51,4.61-1,4.1-1,.51-.51v-.51a1.88,1.88,0,0,0,1.54-.51c-1,0-1.54,0-2.05.51s-1,.51-2.56.51h-2l-2.05,1v-.52l-5.63,1.54h-1l-1,.51-5.12,2-1,.51a1.85,1.85,0,0,0-1.53.52l-1.54.51-1,.51c.51,0,.51,0,.51-.51l2.56-1.54a3.9,3.9,0,0,1,2.56-1l2.56-1.54,2-.51h.51l12.81-3.59,3.07-1.53,1-.52v-.51H132.3l.51-1,1-.52h-.51a1.85,1.85,0,0,1-1.53.52h-1.54c0-.52,0-.52-.51-.52l-.52-.51-.51-.51c-.51,0-.51,0,0-.51.51,0,.51,0,.51-.51v-.52l-1-.51h-.51v-1h.51c.51-.52,0-.52-.51-.52s-.51,0-.51-.51l.51-.51c.51-.51.51-.51,1,0,.51,0,0-.51-.51-1-.51.51-.51.51-.51,0-.51,0-.51,0-.51-.52v-1l1-1h-2v-.52l-.51-1v-.51H119l-1,.51h-1.54l-2,.51h-1.54c-.51.51-.51.51-.51,0-.51,0-.51,0-.51-.51h2.56l-.51-.51,3.58-1H119l1-.51,1-.51.51-.51c-.51.51,0,.51.51.51l.52-.51h-1Zm-105,216.65H16l.51-.51Zm0-8.19c-.51-.51-.51-.51,0-.51Zm0-14.85v-2.05q.77,1.53,0,1.53Zm0,.51v0Zm.51-51.22v0Zm0,39.44v0Zm0,9.22c.52.51.52.51,0,.51Zm.52-80.93v0Zm0,3.07v0Zm0,27.15h0Zm1-44.56h0Zm-.51,53.27v0Zm0,89.63v0Zm.51-149v0Zm0,15.37c.51.51.51.51,0,1Zm.51,42c-.51.51-.51.51-.51,0Zm-.51,168v0Zm0,31.76v0Zm.51-263.79v0Zm0,27.15v0Zm0,224.85h0Zm1-268.39v0Zm0,7.69v0Zm0,10.75v0Zm0,76.32v0Zm.51,147.51c-.51-.51-.51-.51,0-.51Zm0-253V108c.51.52.51.52,0,1Zm.51,4.09v-.51l.51.51Zm0,8.2v0Zm6.66,34.32c-.51.51-.51,2.56,0,5.63-.51,0-.51.51-.51,1v5.12l-.52,6.14v10.25a1.87,1.87,0,0,0-.51,1.53l.51,1.54c-.51.51-.51.51,0,.51V190l-.51,6.14v9.73c0,.52,0,1-.51.52v.51c-.51,0-.51,0-.51.51a1.9,1.9,0,0,0-.51-1.54V199.2h-1v9.73h.51c0,.51,0,.51.52.51,0,.51,0,.51.51,0-.51,0-.51.51,0,1v-1.53h.51V212l-1,1.54v0a1.89,1.89,0,0,1,.51-1.54v3.59l-.51.51c-.52.51-.52.51-.52,0v2.56a1.88,1.88,0,0,1-.51-1.54v6.15l-.51,5.12v13.32c0,2.56,0,4.1-.51,4.61v1a1.85,1.85,0,0,1-.52-1.53l-.51-.52V196.12c.51-.51.51-1.53.51-3.58V174.61c-.51-.51-.51-.51,0-.51.52-.51.52-.51,0-1s-.51-.51,0-1V168h.52c-.52-.51-.52-1,0-1v-2.05c-.52-1.54-.52-2,0-2V153.1a2.29,2.29,0,0,0,0-2.56c0-1.54,0-2,.51-2.56v-5.64c0-2.05,0-3.07.51-3.58V136.2l-.51-.52c.51-.51.51-2.56.51-7.17l.51-.51v-3.07l.52-.51v-7.69c.51-.51.51-2.56.51-6.14v-.52l.51-1V106A45.46,45.46,0,0,0,27.3,95.22c0-1,0-1.54.51-2l.51-2.56V87.54c.51,0,.51,0,.51-.52a1.88,1.88,0,0,0,1.54-.51L33.44,85l2.05-1,2.56-1.54a3.87,3.87,0,0,0,2.05-.51c.51-.51,1-.51,1.54-1l1-.51,1-.52a1.87,1.87,0,0,1,1.53-.51h1l1-.51.51-.51h1a1.88,1.88,0,0,1,1.54-.51l5.63-2c.51-.52,1-.52,2.05-.52h-.51c0,.52-1,1-2.56,1.54h-.52l-.51.51h-.51c0,.52,0,.52.51.52a1.87,1.87,0,0,0,1.54-.52l1-.51-2.05,1.54-2.56,1.53.51-.51a1,1,0,0,1,1.54,0h1l.51-.51H57l2.57-1.54H61.1l.51-.51-2.56,1.54h-.51l-2,1H56c-.51,0-1,0-1,.51l-1,.52L50.86,81.9a1.89,1.89,0,0,1-1.54.51c-1.54,1.54-2.56,2-4.1,2l-2,1-1,.51-5.63,2.56-2.05,1-1,1h-.51v2a1.88,1.88,0,0,0-.51,1.54c0,1.53,0,2-.51,2.56v2.56c-.52.51-.52,1-.52,2.56l-.51,2.56v4.61c-.51,0-.51,0-.51.51v4.1l-.51,1v2.56l-.51,1v5.63l-.52,4.61v5.12a1.88,1.88,0,0,1-.51,1.54v2.05l-.51,4.61v13.32Zm-5.64,95.78c.52.51.52.51,0,1l.52-1h-.52l.52-.51Zm.52-158.27v-.51l.51-.52v.52Zm0,3.58v2.05c.51-.51.51-2.05.51-3.58Zm0,31.76v0Zm.51-34.32.51-.51Zm0,102.44.51-.51v2Zm0,59.93v0Zm1-76.32v-1l-.51-1c-.51.52-.51,1,0,1Zm-.51,3.08h.51v1Zm0,5.63c.51.51.51.51,0,1Zm0,1c.51.52.51.52,0,.52Zm0,14.35h.51v.51h-.51Zm0,16.39v0Zm0,1.53v0Zm0,38.93v0Zm.51-85v0Zm.52,4.1h-.52c.52,0,.52,0,.52-.51Zm-.52,146.49v0Zm1-183.88v-.51c.51.51.51,1,0,1Zm0,66.08v-1c.51,0,.51,0,.51.51Zm.51-69.66c.51-.52.51-.52.51,0Zm0,61.46v0Zm.51,7.68-.51,1v-2.05c0,.51,0,.51.51.51Zm-.51,1.54v0Zm.51-72.22c-.51,0-.51,0,0-.51Zm0,43.54v.51a1,1,0,0,1,0-1.54Zm0,1v0ZM26.78,210h0Zm0-66.58v0Zm0,1.53v0Zm.52,4.61v3.08c-.52,0-.52,0-.52-.52v-2.56c0-.51,0-1,.52-.51Zm0,5.12-.52.52v-.52Zm-.52,33.81v0Zm0,2.56v0Zm.52-43a1,1,0,0,1,0-1.54Zm0-7.17v0Zm0,0v0Zm13.31,96.8H40.1l.51.51-.51-.51c0,.51,0,.51.51.51l2.56,2c0,.51,0,.51.52.51h.51a1.86,1.86,0,0,0,1.54.52c0,.51,0,.51.51.51h.51c.51,0,.51,0,.51.51h1l.51.51h1v-.51h2.56c.52,0,1,0,1-.51H55v.51c0-.51,0-.51.51,0,.51-.51.51-.51.51,0v.51h.51v-.51c-.51,0-.51,0-.51-.51h1.54v-.51H58v-.52c.51.52.51.52.51,0h.51l.52-.51h.51c.51,0,.51,0,.51-.51h.51v-.51h1.54v-.51h1.53v-.52h.52l.51-.51h.51l.51.51-.51-.51.51-.51h.52l.51-.51h1.53c.52,0,.52,0,.52-.52h1l.51-.51v.51h.52l-.52-.51h.52v.51h.51v-1h1v0c.51,0,.51,0,.51.51.52,0,.52,0,.52-.51h1c0-.51,0-.51.51-.51s1-.51,1.54-1h.51l1-.51.51-.51h1.54V232h.51v.51h.51v0c-.51,0-.51,0-.51.51l1.53-.51v0l.52-.51h.51l.51-.52,1.54-.51h.51l1-1,1.54-.51h.51a1.87,1.87,0,0,1,1.54-.52l.51-.51a1.89,1.89,0,0,1,1.54-.51l.51-.51,2.56-1.54h.51c0-.51,0-.51.52-.51v-.51c.51,0,.51,0,.51.51v-.51c.51,0,.51,0,.51-.52h.51l.51-.51h.52l1-1,1-.52h.51a1.1,1.1,0,0,0,1-1c.51,0,1.54-.51,3.08-2.05,1-1,1.53-2,1-2.56h.51v-1h.51v-.52l-.51-1v-.51l.51-.51-.51-.52c-.51-.51-.51-.51,0-.51l-.51-1-1-1v-.51c-.52,0-.52,0-.52-.51l-.51-1-.51-1-.51-1-.52-.51-.51-.51v-.51c-.51,0-.51,0-.51-.51h-.51v-1l-.51-1c-.52,0-.52,0-.52-.52v-.51c-.51,0-.51,0-.51-.51v-.51l-.51-.51c-.51,0-.51,0-.51-.52v-.51l-.52-.51-.51-1c0-.51,0-.51-.51-.51a1.1,1.1,0,0,1-1-1h-.52l-.51-.51c0-.52,0-1-.51-1v.51h-.51l-.52-.51v-.51c-.51,0-.51,0-.51-.51h-1l-.51-.51c0,.51,0,.51-.52,0,0,.51,0,.51-.51.51h-.51c0,.51,0,.51-.51.51h-.52l-.51.51H87.74c-.52,0-.52,0-.52.51H85.69c-.51.52-.51.52-.51,0h-1v.52h-.51c0,.51,0,.51.51.51-.51,0-.51,0-.51-.51h-.51v1c0,.51-.52.51-1,.51l-1,.51h-.51v.52c-.52-.52-.52-.52-1,0H79c-.51,0-.51,0-.51.51H76c-.52.51-1,.51-1,1H73.39l-1.53.52h-1v.51h-1c-.51-.51-.51-.51-.51,0h-.52l-.51.51H66.74v.51l-.52-.51c-.51,0-.51,0,0,.51h-1l-.51.51h-.52c0,.52,0,.52-.51,0v.52h-.51c-.51,0-.51,0-.51.51-.51-.51-.51-.51-.51,0h-1v.51h-.51c-.51,0-.51,0-.51.51h-.51l-.52.52H57c-.51,0-.51,0-.51.51H56c0,.51,0,.51-.51,0v.51l-.51-.51h-.52v.51c0,.51,0,.51-.51.51h-.51c0,.51,0,.51-.51.51,0,.52,0,.52-.52,0v.52l-.51-.52-.51.52h-1a1.11,1.11,0,0,1-1,1v-.51c-.51,0-.51,0-.51.51v.51c-.51,0-.51,0-.51-.51-.52,0-.52,0-.52.51l-.51.52c-.51-.52-.51-.52-.51,0h-.51v.51c-.51,0-.51,0-.51.51v0c0-.51-.52-.51-1.54,0h-.51l-.52.51-.51.51H41.13v1h-.52V212l-.51.51c0-.51,0-.51.51-.51v-1.54H40.1V212c0,.51,0,.51-.51.51l-.51.52v.51h-.51v.51c-.52,0-.52,0-.52.51v0h-.51c.51.51.51.51,0,.51s-.51,0-.51.52h-.51l-.52.51h-.51v.51c0,.51,0,.51-.51,0,0,.51-.51,1-1.54,1h0c.52.51.52.51,0,1h-.51l-2.05.51v0H29.35l-1-.51c-.51,0-.51,0,0,.51h-.51l.51.51h1l1,.52h.51c0,.51.51.51,1.54.51h.51v.51l1-.51h1l-.51.51v.51H32.93l-1.54-.51H29.86v.51h-.51v.51l.51.52v.51c0-.51,0-.51.51-.51.51.51.51.51.51,1h.51l.52,1v.51l.51.51v.51h.51l.51.51.52,1v.51c.51,0,.51,0,.51.51v.52l.51.51v.51h.51l.51,1V232c.52,0,.52,0,.52.51L37,233l.51,1h.51v.51l.52.51.51.51v0l.51.51,2,1,.51.51h-1l-.52-.51v.51c0-.51,0-.51-.51-.51v.51ZM28.32,139.27v0Zm.51-55.83h0Zm1,134.71h0Zm1-1h-.51v-.51Zm0,1h0Zm.51-1.54v.51h0Zm0,.51v0Zm.52,0v0Zm.51.52h0Zm0,2v-.51c.51,0,.51,0,.51.51Zm1-1.53h0Zm1-2.56v0ZM35,204.83h0Zm.51,9.73v1l.51-.52v-.51c-.51,0-.51,0,0-.51v-.51c-.51-.51-.51-.51-.51,0s0,.51-.51.51Zm-.51,0v0Zm.51,6.15H36l-.51.51H35Zm.51-6.66h.52c0,.51,0,.51-.52.51Zm1,0h-.51l1-.51H37Zm.51,4.61h0Zm.51,26.12v1c-.51,0-.51,0-.51-.52Zm-.51,14.86v0Zm1-55.83v1.53l-.52-.51Zm0,7.68v0c-.52,0-.52,0-.52-.51v-.52l.52-.51.51-.51v1h0V211h-.51Zm-.52,2.56v.51h.52a1.85,1.85,0,0,1-.52-1.53l.52-.52v4.1l-.52-1Zm.52,3.07v.52a1.85,1.85,0,0,1-.52,1.53v-.51l.52-1c0-.52,0-.52-.52-.52Zm-.52,1v0Zm.52,4.09v0h0Zm1-44v2.56q-.77,4.61,0,6.14c.51,0,.51,0,.51.52v1L39.59,190v-1.54l-.51.51a1.87,1.87,0,0,0-.51-1.53,1.88,1.88,0,0,1,.51-1.54,1.89,1.89,0,0,0-.51-1.54c.51-.51.51-1,.51-2.56v-4.1Zm-1,10.24v0Zm.51,6.66h0Zm0,1c-.51.51-.51.51-.51,0Zm0,1a1.87,1.87,0,0,0-.51,1.53v-2.05C38.57,197.15,38.57,197.15,39.08,197.15Zm-.51,16.39v0Zm0,7.17v0Zm0,13.32v0Zm0,26.12v0Zm.51-66.59c-.51-.51-.51-.51,0-.51Zm3.58,92.2v-1l.51-6.66v-6.14c0-3.59,0-5.64-.51-6.15v-4.61l.51.51V251.44a1.9,1.9,0,0,1-.51,1.54v1.53c-.51,0-.51,0-.51-.51,0-1.54,0-2.05-.51-2.56v-3.59c0,.52,0,.52-.51,0v-1l-.52-.51.52-1v-.51c0-.51,0-.51.51-.51v.51a2.26,2.26,0,0,0-.51-2.56v-2.05l.51-.51h.51l-.51-1.54-.51-.51v-4.1l.51-2,.51,1.54v-3.07l-.51-1c0-.51,0-1,.51-1v-.51a1.88,1.88,0,0,1,.51-1.54v-1c-.51,0-.51-.52-.51-1v-1c-.51,0-.51-.52-.51-1.54v-2.56c0-4.1,0-6.15.51-6.66V168l.51-.51c-.51,0-.51-.51,0-1l-.51-1v-4.61c.51,0,.51,0,.51-.51v-.51c-.51,0-.51,0-.51.51v-2.05l-.51-1v1c0,1.54,0,3.07-.51,3.59l-.52-.52v-.51l-.51.51c.51.52.51.52,0,1v1l.51.51c-.51,0-.51,0-.51.52v2.56l-.51,4.1v2c0,1.54,0,2.56-.51,3.08V171c0-.52,0-.52.51-.52v-2c-.51,0-.51,0-.51-.51a1.87,1.87,0,0,0,.51-1.53v-5.13c0-1.53,0-2-.51-2.56v-3.07c0-.51,0-.51.51-.51l.51-1v-1.53c-.51-.52-.51-1,0-1V147l.51-.51v-.51c-.51,0-.51,0-.51-.51.51-.52.51-1,.51-2V150h1v1.53h1l.51-.51a1.86,1.86,0,0,0,.52-1.54q-.78-.76,0-4.61v-5.63c.51-.51.51-1.54.51-3.07v-4.61c.51-.52.51-1.54.51-3.08v-3.07l.51-4.1v-1.53c.52,0,.52-.52.52-1.54v-5.12l.51-1v-.51c-.51-1-1-1.54-.51-2s.51-1,.51-2V106c.51-.52.51-1,.51-2v-1c.51,0,.51-.51.51-1l.51-.51v-.52c.52,0,.52,0,.52-.51s.51-.51,1-.51l.51-.51h.52l2-.51h.52l2.05-1-.52.51-.51.52a1.1,1.1,0,0,1-1,1c-.52,0-1,0-1,.51h-.51c0,.51,0,.51-.51.51h-.51l-1,.52c0,.51,0,.51-.51.51H48.3v1c-.52.52-.52.52,0,1v.51l.51-1v-1.54h.51v-.51c.51,0,1,0,1-.52l2-.51-.51,1,2-1h.51l2.05-1H57l-1.53,1a1.11,1.11,0,0,0-1,1H55v.51c-.52,0-1,.51-1.54,1a1.87,1.87,0,0,1-1.54.52v.51h-.51v5.63l-.51.51v3.08a1.87,1.87,0,0,1-.51,1.53v1.54l-.52,4.1v4.61l-.51,4.61v1l-.51,2.05-.51,3.59v7.17l-.52,1v14.85c0,1.54,0,2.57-.51,3.08V170l-.51.51V171c.51,0,.51,0,.51.51v2.05l-.51,2v9.74l-.51,3.07v16.9a1.89,1.89,0,0,1-.51,1.54v8.19l.51-.51v.51c-.51,0-.51,0-.51.52v13.83l-.52,11.26v6.66c-.51.51-.51,1-.51,2.56v16.39l-.51,4.61c0,.52,0,.52-.51.52v6.65c-.52,2.05-.52,5.64-.52,11.27v1a1.88,1.88,0,0,0-.51-1.54Zm-3.58-109.1v0ZM39.59,212v.51l-.51-.51Zm-.51,12.81v0Zm.51,11.78v0Zm.51.51h0Zm0-27.15c.51-.51.51-.51.51,0S40.61,210.46,40.1,210Zm0,26.64v0ZM55,94.2h-.52v.51a4.71,4.71,0,0,0-2.56,1.53l-2.56,1-1,.51-1,1h-.51l-.51.51h-.51v2.05c-.52.51-.52,1-.52,2l-.51,4.09-.51,1.54v1.54l-.51,1c.51,0,.51.51,0,1v.52c-.52,0-.52,0-.52.51l-.51,3.07c-.51,1.54-.51,2.56,0,3.08,0,1,0,1.53-.51,2V128c-.51.51-.51,2.05-.51,4.1v2.05l-.51,2.56v-.51c0-1,0-1.54-.52-2l.52-1v-3.07a1.89,1.89,0,0,0,.51-1.54V128a1.56,1.56,0,0,1,0-2v-5.12a1.9,1.9,0,0,1,.51-1.54v-2.56c0-1.53,0-2.56.51-3.07V111.1l-1-1V106a1.88,1.88,0,0,1,.51-1.54v3.07c.51,0,1-1.53,1.54-4.09v-1a1.9,1.9,0,0,1,.51-1.54v-2h.51v-.52h1.54c0-.51.51-.51,1.53-1l2-1h.52c0-.51,0-.51.51-.51h.51l1.54-1,1-.51h1ZM40.61,139.78c0-1.54,0-2.05.52-2.05v.51c0,1.54,0,2.57-.52,2Zm0,2.56v-.51c.52.51.52.51,0,1Zm0,9.73.52.52-.52,1Zm0,78.88v0Zm0,6.66h.52v.51Zm0,1c0-.52,0-.52.52,0C40.61,238.12,40.61,238.12,40.61,238.64Zm.52,12.8v-1l-.52-.52c.52-.51.52-.51,1,0v.52Zm.51-12.8h-.51v-.52Zm0,32.78c.51,0,.51,0,.51-.52v1a1,1,0,0,1,0,1.53V275l-.51-1c0,.51,0,.51-.51,0l.51-2.05Zm-.51,16.9v0Zm.51-1c-.51-.51-.51-.51,0-1Zm0-131.12v-.51l.51,1Zm0,69.66v0Zm.51,1h-.51l.51-.51Zm0,.52h0Zm-.51,8.7.51,1c-.51.51-.51.51-.51,0Zm0,4.61v-.51c.51.51.51.51,0,1Zm0,5.13.51.51-.51.51Zm.51-141.88v0Zm0,6.66v0Zm.51,110.12v1.53l-.51-.51Zm-.51,17.93.51.51Zm.51-30.22V210a1.56,1.56,0,0,1,0-2Zm0,8.19c-.51-.51-.51-.51,0-1Zm0,2v1a1,1,0,0,1,0-1.53Zm0-22.54.51-2.05v2.56Zm0,1.54c.51.51.51.51,0,1Zm0,2.05v-.51l.51.51c0,.51,0,.51-.51.51Zm0,1c.51.51.51.51,0,1Zm0,2.56.51-.51a1.89,1.89,0,0,1-.51,1.54Zm0,7.17v0Zm0,1.54v0Zm0,1v0Zm0,24.58h0Zm1.54,2-1.54-.51h.51Zm-1.54,20,.51.51c-.51,0-.51,0-.51.51Zm.51-161.35v0Zm.52,78.37h0Zm-.52,5.12v-1h.52c0,1,0,1.53-.52,2.05Zm0,3.07v-.51c0-.51,0-.51.52-.51Zm0,1v-.51l.52.51c-.52,0-.52,0-.52.51Zm0,3.58v0Zm0,2v0Zm0,35.34h.52v1Zm0,3.59h.52v2.05Zm0,3.07v0Zm.52,2.56h-.52l.52-.51Zm-.52,12.81v0Zm0-11.27v0Zm.52-61.46c-.52-.52-.52-.52,0-1Zm0,3.58c-.52-.51-.52-.51,0-.51Zm0,54.81c-.52-.51-.52-.51,0-1Zm.51-71.2v1.54l-.51-.51v-1c.51,0,.51,0,.51-.51Zm0,3.59h-.51v-1l.51-.51Zm0,1.53-.51.52v-1ZM43.69,170v0Zm0,2.05v0Zm0,2v0Zm0,43h0Zm0,1.54h0Zm0,3.07.51-.51a1.9,1.9,0,0,1-.51,1.54Zm0,2.56v0Zm0,4.61v0Zm0,6.15v0Zm0,2.56h.51v.51Zm.51-23.56v.51c-.51-.51-.51-1,0-1Zm0,2c-.51-.51-.51-.51,0-.51Zm0,3.07c-.51-.51-.51-.51,0-.51Zm0-143.93.51-.51Zm0,75.3v-2c0-.51,0-.51.51-.51v2.56Zm0,4.09v0Zm0,5.64v0Zm.51,41.49-.51-.52h.51Zm-.51.51.51.51-.51,1v-1.54Zm0,7.68h0Zm0,2.56v0Zm0,8.2v0Zm.51-76.32v0Zm0,1v-.52c.51.52.51.52,0,1Zm0,2v0Zm0,47.13v0Zm0,1v0Zm0,0v0Zm0,1v0Zm0,3.59v0ZM77,205.34v.51h-.51l-1,.52h-1l-1,.51v.51H71.86l-1,.51h.52l.51.52v-.52l.51.52c-.51,0-.51,0-.51.51v.51h0V210l-.51.51-.52-.51v-.51c-.51,0-.51,0,0,.51,0,.51,0,.51-.51.51v0l-1,.52-.52-.52V210l-.51.51c.51,0,.51,0,0,.52v-.52h-.51l-.51.52v.51a1,1,0,0,1-1.54,0l-.51.51c0,.51,0,.51-.51.51h-1V213c0-.52-.51,0-1,.51h-.51c-.52,0-.52,0-.52.51H61.1v.51h-1c-.51,0-.51,0-.51.51h-.52v.52c0,.51,0,.51-.51.51H58v0h.51c-.51,0-.51,0-.51.51v.51l1-.51v1H61.1v-.52h.51v.52h-1v.51h-1v1h-1v-.51l-.51.51v0H57v.51l-.51-1h1l-.52-1v-1c-.51,0-.51,0-.51-.51s0-.51-.51,0l-.51.51h-1l-.51.51h-1v.52c0,.51,0,.51-.52,0l-.51.51-.51-.51-.51.51c0,.51,0,.51-.51.51h-.52c.52.51.52.51,0,.51-.51-.51-.51,0-.51.51-.51-.51-.51-.51-.51,0H48.3c0-.51,0-.51-.52-.51v.51h-.51v.52c-.51-.52-.51-.52-1,0h-.51c0-.52,0-.52.51-.52v-1l.51.51v-.51h.51l.51-.51c0-.51-.51,0-1,.51h-.51v-.51h-.51c0,.51,0,.51-.52.51l-.51-.51.51-.51v-.52l-.51-.51h.51v-.51l.52-.51,1-1h1c.52,0,.52,0,.52-.51h.51l.51-.51h1.54V213l.51.51.51-.51h.51v-.52h1c.51,0,1-.51,1.54-1h.51L56,211h1.54c0-.52,0-.52.51-.52h1c0-.51,0-.51.52-.51h1l.51-.51h.51c.52,0,.52,0,.52-.51h1v-.51h1.54v-.52h1l.51-.51c.52.51.52.51.52,0l2-.51.52-.51.51.51h.51c0-.51,0-.51.51-.51l1-.52h.51c0-.51,0-.51.51,0,0-.51.51-.51,1,0h.51c-.51,0-.51,0-.51.52l.51-.52h.51l.51-.51c1-.51,1.54-.51,2,0ZM44.71,210v0Zm.51-135.73h1c0-.51,0-.51.51-.51l-.51.51Zm0,44.05v0Zm0,13.32c0-.52,0-.52.52-.52-.52-.51-.52-.51,0-1v2Zm0,4.61v-2h.52v1.53Zm0,.51v0Zm0,1v0Zm0,1v-.52l.52.52c-.52,0-.52,0-.52.51Zm0,1v0Zm0,1v0Zm0,.51v0Zm.52,30.73-.52.51v-.51Zm-.52,3.58v0Zm0,3.08v0Zm0,7.17v0Zm0,34.83v-.51c0,.51,0,.51.52.51Zm1-124.47h0Zm0,29.2V126a1.56,1.56,0,0,0,0,2v.51a18,18,0,0,1-.51-3.07ZM45.74,129v0Zm.51,87.08h0Zm-.51,1.54v0Zm0,3.07v0Zm1-101.93v-2.56l-.51,5.12v.51Zm-.51,32.27v0Zm0,65.56v0Zm0,1.54v0Zm.51-71.71c-.51-.51-.51-.51,0-.51Zm0-72.22h0Zm0,41v-.52l.51-1v1.54Zm0,1v0Zm0,22c.51,0,.51,0,0,.52Zm0,4.1v0Zm0,41v0Zm0,25.61v0ZM48.3,106l-.52,1c.52,0,.52,0,0,.51V108c0,.52,0,.52-.51.52V107a1.9,1.9,0,0,1,.51-1.54c0-.51,0-.51.52-.51Zm-1,3.58h.51l-.51.51Zm0,1c.51.51.51.51,0,.51Zm0,1.53v0Zm0,21.51v0Zm0,.52v0Zm.51,88.61v.51h-.51c0-.51,0-1,.51-1v-.51c.52,0,1-.51,1.54-1h1c.51,0,.51,0,.51-.51l.51.51c.51,0,1,0,1-.51h.52c.51.51.51.51.51,0l1-.52H55c0-.51,0-.51.51,0v.52H53.93l.51.51c-.51.51-.51.51-1,0h-1l-.51.51-.51.51.51,1-.51.51v-1H49.83c0,.52,0,.52-.51.52l-.51-.52v.52H48.3v.51h-.52Zm-.51,17.92v0Zm.51-117.29v-1.54c.52.52.52,1,0,2.05Zm0,2v0Zm0,2v0Zm.52,90.15h.51v.51h-1Zm.51-101.42H48.3c.51,0,.51,0,.51-.51ZM48.3,224.81v0Zm1-7.17h0Zm-.51,167.48h0Zm.51-168h.51v.52h-.51Zm.51,25.1c0,.51,0,.51-.51,0Zm-.51,40v0Zm0,87.08h0Zm1-152.13c-.52.52-.52.52-.52,0Zm-.52,7.17v0Zm0,18.44v0Zm.52,20.49h0Zm-.52,25.61c.52,0,.52,0,.52.51Zm0,25.1v0Zm0,44.56v0Zm0,2.05v0Zm1-258.15c0,.51,0,.51-.51.51Zm-.51,112.68h0Zm.51,1.54h.51c0,.51-.51.51-1,.51Zm-.51,137.27v0Zm.51,2.05h0Zm.51-254h0Zm-.51,1.54h0Zm.51,119.85h0Zm-.51,1c.51.52.51.52,0,.52Zm0,23.05h0ZM52.39,93.68l-1,.52v-.52a1.88,1.88,0,0,1,1.54-.51Zm-1,7.17h0Zm.51,56.86v.51l-.51-2.05.51.51v.52h1c0,.51,0,.51-.52.51,0,1,0,1.53-.51,2Zm-.51,48.66v0Zm0,8.19v0Zm0,6.15v0Zm11.78,9.22h1l.52-1c0,.52,0,.52.51.52v-.52h.51c.51-.51,1-.51,1,0l.51-.51h1c0-.51,0-.51.51-.51s.52,0,.52-.51l1-.52h2.05v1.54h-1c0,.51,0,.51.51.51v.52c.51,0,.51,0,.51-.52h1v-.51c0-1-.51-1.54-1-1.54,0-.51,0-.51.51-.51v.51c.51.52.51.52.51,0h.52c0,.52,0,.52.51.52v.51h.51a1.89,1.89,0,0,1,1.54-.51h1c0-.52,0-.52.51-.52,0-.51,0-.51.52,0h1v.52c.51.51.51.51,0,.51l-1,.51h-1v.51H77l-.51.52h-1v.51h-1v.51h-1l-.51.51h-.51c-.51,0-.51,0-.51.51h-1c0,.52,0,.52-.51.52-.51.51-.51.51-.51,0v.51H69.3V233c-.52-.51-.52-.51-.52,0h-1c0,.51,0,.51-.51.51h-.51l-.52.52h-.51v.51H64.17l-1,1-1,.51v-.51c0,.51,0,.51-.52.51H61.1l-1.53,1h-1l-.51.51h-.51c0,.51,0,.51-.52.51h-.51v.52h-1l-2-.52h-.51l.51-.51h.51l-.51-.51h-.51l.51-.51v-.52h-1c0-.51,0-.51-.51-.51h-.51v-.51h1.54l1-.51V234h1c0-.52,0-.52.51-.52L56,233h.51l.51-.51h.52c0-.51,0-.51.51,0,0-.51,0-.51.51,0V232h.51v-.52h1V231h1a1.89,1.89,0,0,0,1.54-.51v-.51Zm-11.78,7.68v-.51h.51v.51Zm0,0v0Zm0,6.15h0Zm0,.51h.51v.51Zm0,15.37v0Zm0,3.58v0Zm1-160.83h-.51l.51-.51Zm-.51,79.9v0Zm0,6.15v0Zm0,28.17v-.51h.51Zm0,9.73v0Zm0,1.54v0Zm.51,9.73h-.51c0-.51,0-.51.51-.51Zm0,5.12h0Zm1-164.92-1,.51c-.51,0-.51,0,0-.51Zm-.51,23.56.51.51h-1Zm-.52,71.19h0Zm.52,10.25-.52-.52Zm0,24.58h0Zm-.52,7.17v0Zm.52,1.54c0,.51,0,.51-.52,0Zm-.52.51v0Zm0,20.49h0Zm.52-143.93v0Zm0,83.49h0Zm0,5.12v0Zm.51,25.61.51.51-.51.52v-1.54h0v.51c0-.51,0-.51.51,0Zm0,8.71c-.51,0-.51,0,0-.51Zm0-144.44c0-.51,0-.51.51-.51Zm0,85h0Zm0,11.78v0Zm.51,6.15-.51,1v-.51Zm0,63-.51-.51Zm-.51,4.61v0Zm.51-91.68V149l.51,1.54Zm.51,1.53h0Zm0,13.32-.51-1c0-.52,0-.52.51-.52Zm-.51,48.66v0Zm0,1.54v0Zm0,0h0Zm.51-77.86v0Zm0,5.12v0ZM55,195.61h0Zm-.52.51v0Zm0,6.15c0-.51,0-.51.52-.51Zm0,2.56v0Zm0,37.39v0Zm.52.51-.52-.51Zm0-27.14c-.52-.52-.52-.52,0-.52Zm.51-27.66h0Zm0,16.39c-.51,0-.51,0-.51-.51ZM55,215.59v0Zm.51,26.63c0,.51,0,.51-.51,0Zm-.51,0v0ZM57.52,96.76H57l-1.53,1c0-.51.51-1,1.53-1.54Zm-2.05,23.56h0Zm0,94.75h0Zm0,0v0Zm0,4.61.51-.51v.51ZM56,175.12c-.51-.51-.51-.51,0-.51Zm1-105-1,.51v-.51Zm-.51,145H56c0-.51,0-.51.51-.51ZM57,107.51h0Zm-.51,4.1v0Zm1,103H57l.52-.51ZM57,108h0Zm0,134.71h0Zm1-167h.51c0,.51-.51.51-1,.51Zm-.51,20.48h0Zm0,110.13v0Zm0,4.09h0Zm.51,2h-.51V212H58Zm-.51,1.54h0Zm0,2.56c.51,0,.51,0,.51.51Zm0,1v0Zm1-3.59h0Zm0-12.81h0Zm0,12.3c.51.51.51.51,0,.51Zm0,27.66v0Zm1.54-166c0-.51.51-.51,1-.51l-1.53,1h-.52Zm-1,23.05c.52-.51.52-.51.52,0Zm.52,115.25h0Zm-.52.51v0Zm.52-145c.51,0,1,0,.51.51Zm0,142.9v0Zm0,1,.51.51h-.51Zm.51-143.42h0Zm0,171.59v0Zm0,1v0Zm1-147.51h0ZM61.1,213c-.51.51-.51.51-.51,0ZM61.61,94.2h0Zm0,2.56v.51H61.1ZM61.1,212.51h.51V213Zm.51-143.92,1-.52Zm3.08,4.61v.51l-2.56,1h-.52l.52-.51ZM62.13,212.51l-.52.52v-.52Zm-.52,4.61h0Zm.52,14.34h0Zm0-13.82c-.52-.52-.52-.52,0-.52Zm.51-150.08h0Zm-.51,142.9v0Zm0,6.15v0c.51,0,1,0,1-.51v-1l.51,1v.51c0,.51,0,.51-.51,0v.51c0-.51,0-.51-.51-.51v.51h-.51v-.51Zm0,14.85c0-.51,0-.51.51-.51Zm0,8.71v0Zm.51-163.39v0Zm.51,133.68h0Zm0,2h-.51c0-.51,0-.51.51-.51ZM62.64,233v0Zm0,6.15v0Zm.51,1.53h0Zm.51-173.63h0Zm-.51.51h0Zm0,142.9V210l.51.51Zm.51,1.54c0,.51,0,.51-.51,0Zm-.51,18.44h.51V231h-.51Zm0,0v0Zm.51,2.56h0Zm.51-31.24h0Zm0,10.24h0Zm-.51,4.61v0Zm0,22v0ZM64.17,212v-.51c.52,0,.52,0,.52.51Zm0,4.1h0Zm0,13.83v0Zm1-13.83c-.51,0-.51,0-.51-.51Zm-.51,0v0Zm0,23.05c0-.51,0-.51.51,0Zm1-161.86h0Zm5.64,25.61,1-1v.51c.51,0,.51,0,.51.51h-.51l-2.56,1.54a1.89,1.89,0,0,1-1.54.51c0,1-1,1.54-2.56,1.54V107l-.51-.51c.51,0,.51,0,.51-.51h.51v-.52l1-.51h1l.51-.51h0l.52-1,1-.52h.51v-.51h.52ZM65.2,209.44v0Zm0,6.15v0Zm0,23v0ZM65.71,73.2c-.51,0-.51,0,0-.52Zm0,128v0Zm0,8.2v0Zm0,.51v0Zm.51,1c-.51.51-.51.51-.51,0Zm.52-144.44h0Zm0,5.63c0,.51,0,.51-.52.51Zm-.52,136.76c.52.51.52.51,0,.51Zm.52.51h0Zm0,0h0Zm0,1c0,.52,0,.52.51,0Zm0,0v0Zm.51-9.22v0Zm1,13.83h-1l.51-.51Zm-.51-13.31v0Zm0,7.17h0Zm1-8.2h0Zm0,8.2h0Zm-.51,1.53v0Zm0,0v0Zm0,1v0Zm0,3.07h0Zm0,22.54v0ZM68.78,65v0Zm0,143.93c0-.51.52-.51,2-1v.52a1.87,1.87,0,0,0-1.53.51Zm0-.51v0Zm0,.51v0Zm0,5.63v0Zm0,16.39v0Zm0-.51v0Zm.52-30.22v0Zm0,9.73h0Zm0,28.17v0Zm2-28.68V210c0-.51,0-.51-.52-.51Zm.51,20c0,.51,0,.51-.51.51Zm.51-3.08c0,.51,0,.51-.51.51ZM72.88,213v.51c0-.51,0-.51-.51-.51Zm-.51,13.31c.51.51.51.51,0,.51Zm0,2.56v0Zm.51-28.68v0Zm0,26.12h0Zm0,0v0Zm.51,7.69-.51-.52Zm0,.51h0Zm1,1h0Zm.51-27.66v-1h.51v1Zm1,1h0Zm-.52,18.44v0Zm1-129.59h0Zm7.17-3.07h.51l2.56-1-5.63,3.08c-1.54.51-2,0-1.54-.52s1-.51,2-.51l1-.51a.51.51,0,0,0,.52-.51ZM80.05,226.34h.52c0,.51,0,.51-.52,0v0Zm0,6.15v0Zm1.54-.51h0ZM82.1,96.76h0Zm2.05-.52h-.51l.51-.51Zm-.51,97.83v0Zm0,.52v0Zm1,0h0ZM86.2,94.71h0Zm.51-35.86v.52c0-.52,0-.52.51-.52Zm1,34.32h-.52a4,4,0,0,1,2.56-1Zm3.07-.51,2-1.54,1-.51a1,1,0,0,0-1.53,0l-.52.51c0-.51.52-1,2-1.53h-1l-1.54,1-.51.51v.51l-2.56,1.54c-.51,0-.51,0-.51.51h.51l1-.51ZM88.25,229.42h0Zm.51-35.35v0Zm.51,0v0Zm1-101.41h0Zm.51-2h0Zm.51,1h0ZM91.83,87h0Zm2.56-28.68-.51.51Zm.52-2.56h0ZM94.39,90.1l.52-.51h.51Zm.52-34.32.51-.51v.51Zm2,32.78h.51l-1,.51Zm.51,0H97l1-.51ZM97,88.05v0Zm2,132.66h0Zm3.59-141.37h.51l-2,1h.52Zm1.54-21h0c0-.51,0-.51.51-.51Zm1.53,20.49-2,.51,1-1c.51,0,1,0,1-.51h.52l3.07-1h-.51c0,.51,0,.51-.52.51Zm1,147v0Zm1.53-168.51h0Zm0-2.56c.52-.52,2.56-1,6.66-2-1,0-1.53,0-2,.51a1.87,1.87,0,0,1-1.53.51,1.88,1.88,0,0,0-1.54.51A1.86,1.86,0,0,1,108.22,54.76Zm0,27.14h0Zm4.61-2.05-2,1a1.9,1.9,0,0,1,1.54-.51Zm0,1-.51.51v-.51Zm1-3.59c0,.52,0,.52-.51.52,0-.52.51-.52,1-.52Zm-.51,3.08c.51,0,.51,0,0,.51l1-.51c.51,0,.51,0,.51-.52,0,.52,0,.52-.51.52Zm3.58-28.17v.51h-1.54l.52-.51Zm-1,27.65c.51,0,.51,0,.51-.51Zm1-.51h0Zm.51-27.14,1-.52,1-.51.51.51h-.51Zm0,25.61h0ZM120,51.17c0-.51,0-.51.52-.51Zm.52,1h0Zm.51,2.56c0,.51,0,.51-.51.51Zm-.51,18.95h0Zm2.56-23.56c0,1-.51,1-1,.51l-1,.51h.51l-.51-.51h1.54l.51-.51v0Zm-2,3.07h0Zm1-3.07h0Zm1,2.05h0Zm1,23h0Zm.51-23.56c.52,0,.52,0,0,.52Zm4.61,4.61h0Zm.52,0h0Zm.51,15.37h0Z" style="fill:#2b2b2b"/><path d="M311.56,34.78l-2,9.73v3.08H310l-.51,9.73v9.73l-1,15.36V84c0,2.56,0,4.61-.51,5.12a12.37,12.37,0,0,1,0,6.15,7.65,7.65,0,0,0,.51,3.59A21.13,21.13,0,0,1,308,105l-1,27.15.51,4.61a37.13,37.13,0,0,1-1,6.14v8.2c.52.51.52,1.54.52,3.07a10.35,10.35,0,0,0,0,5.64l-.52,5.12L307,168l-.52,10.76-.51,6.14v7.69l-.51,4.09v1.54c.51,1.54.51,6.66.51,15.37-.51,2.56-.51,13.83-.51,33.8V253a5.61,5.61,0,0,0,0,4.09v7.18c0,1.53,0,2.56.51,3.07V273c-.51.51-.51,1.54-.51,3.08,0,1,0,1.53.51,2v11.27c0,.51,0,1,.51,1v3.07l-.51-1.54a2.29,2.29,0,0,0,0,2.56v2.05l.51,5.13-.51,4.09c.51.52.51,2,.51,4.61l-.51,3.59v7.68l-.51,7.17,1,4.1-.51,2.56V339l-.51,8.7c.51.52.51,4.61.51,11.27,0,2.56,0,4.1.51,5.12,0,2.56,0,4.61-.51,5.64,0,1.53,0,2.05.51,2.56a4.66,4.66,0,0,1-.51,4.1v1l.51,2.05.52,3.07a20.84,20.84,0,0,1-.52,6.15v1.54a1.55,1.55,0,0,0,0,2,1.86,1.86,0,0,0,.52,1.54,1.87,1.87,0,0,1-.52,1.54l-1-1V399l.51,3.59v4.1c-.51,2-.51,3.58,0,4.09l-1.54-7.17a1.89,1.89,0,0,1-.51,1.54c-.51.51-.51,1,0,2l-.51,1,.51,1.54c.51,1,.51,1.54,0,2.05v.51c.51.51.51,1.54.51,3.07l.52,6.15.51,3.59v2l-.51.52c0-1,0-1.54-.52-2.05v-1l-.51-1,.51,3.58-.51,1v3.07c-.51.51-.51,1,0,2v3.59l-.51-.52-1-1,.51,4.61.51,1c-.51-1.53-1-2.05-1.54-1.53l-.51,3.07v2.05c-.51,0-.51-1-.51-2.56s-.51-2.56-1-2.56v1c-.51,0-.51-.51-.51-1h-.51l-.51-.52-1-1.53c0-.51,0-.51-.51-.51h-.51l-.51-2.05-.52-.52v-1c-.51,0-.51,0-.51.51,0,1.54,0,2.05-.51,2.56,0,.52-.51,0-1-.51-.52,1-.52,1.54-1,1.54l-1-3.08c-1,.52-1.54.52-1.54-1v-.51l-.51-1.54-.51.51c-.52,0-.52.52-.52,1a2.87,2.87,0,0,0-.51,3.07c0,.51,0,.51-.51,0-1-1-1.54-2.05-1-2.56l-.51-.51v-1.54a1.88,1.88,0,0,1-.51-1.54,3.27,3.27,0,0,1,0-3.07c-1-5.63-2.05-9.73-2.56-12.29a3.09,3.09,0,0,0,.51-2.05c-.51-1-.51-1.54-1-2l-.51-1.54.51-4.61c-.51-.51-.51-1.53-.51-3.58l-.52-4.1c0-1,0-1.53-.51-2.05l.51-1v-3.07c-.51-.52-1-2.57-1-5.64l-.51-4.1v-4.09a4.28,4.28,0,0,1,0-3.59c-.52-.51-.52-2.56-.52-5.63v-1c-.51-.51-.51-2.05-.51-4.61v-4.1c-.51-1.53-.51-2.56,0-3.07v-1c-.51-.51-.51-2.05-.51-3.59v-8.71c-.51-.51-.51-1.53-.51-3.58V301.64a17,17,0,0,1,0-7.18l-.51-7.68a10.07,10.07,0,0,1,.51-4.1,19.3,19.3,0,0,0-.51-5.63c0-5.63,0-9.22.51-10.24v-5.13h-.51c0-3.58,0-5.63.51-7.17-.51-.51-.51-2-.51-5.12v-4.1l.51-1v-1.54l-.51-1c0-2.56,0-4.1-.52-4.61l.52-1c0-4.61,0-6.65-.52-7.17l1-7.68a19.26,19.26,0,0,1-.51-5.63v-6.66c0-4.61,0-7.69.51-9.73v-.52l-1.54,7.69-3.07,15.36c-.51,1.54-.51,2.05-1,2.56l-2.05,12.3-1,5.12L267,253a1.87,1.87,0,0,1-.51,1.53l-.51,1v2l-.51,1.53a1.88,1.88,0,0,0-.52,1.54c0,1,0,1.54-.51,2a1.9,1.9,0,0,0,.51,1.54l-.51,1-1,4.1v1c-.51.51-.51.51,0,.51v1a25.29,25.29,0,0,0-1.54,8.19l-.51.52a3.9,3.9,0,0,0-1,2.56l-.52,2.05v1l-.51,3.07-.51,3.08.51,2-1,1a6.56,6.56,0,0,0-1,4.1c0,3.58-.51,5.63-1,6.14v1.54c0,1.54,0,2.05-.51,2.56s-.52,1-.52,2.05v.51L223,311.88v-1c-.51-.52-.51-1-.51-2.05l.51-.52-.51-1-.51-1.54.51.52v-1c0-3.58,0-6.15-.51-6.66l-.51-1V297l-.51-.52h.51c-.51-.51-.51-1.53-.51-4.09v-1a2.53,2.53,0,0,1,0-3.07c-.52,0-.52,0-.52-.51l-.51-1v-1.53c0-1,0-1.54-.51-1.54v-1l-1-10.24-.51-5.12c0-1.54,0-3.07-.51-3.59l-1-10.75-2.56-17.93v-4.61a2.26,2.26,0,0,1,0-2.56c0-1.54,0-2-.52-2.56l-1-7.68-1-7.69c-.51-.51-.51-1-.51-2v-1.53l-1.53-9.74c.51-.51,0-2-.52-4.6v-.52l.52-4.09c-.52,1.53-1,3.07-.52,4.09-.51-.51-.51-1-.51-2.56a1.87,1.87,0,0,0,.51-1.53l-1,2c0,3.08,0,5.13-.51,6.15l-1,6.15v3.07c0,1.54-.51,5.12-1,10.76,0,3.58,0,5.12-.51,5.63v2.05l-1,9.73-.51,6.15-.51,3.07c-1.54,13.83-2.56,22-2.56,25.1l-.52,4.61-.51-1V273a12.37,12.37,0,0,1,0,6.15c-.51,2.56-1,4.1-.51,5.12,0,2.56-.51,4.61-1,5.12l-1,11.27-.51,3.07c-.51,1-.51,2.57-.51,5.13v1.53c0,1,0,1.54-.52,2.05a92.58,92.58,0,0,0-1,9.73v8.2c-.51,4.61-1,7.17-2,8.71l-.51,4.09-.51.52.51,3.07-.51,4.1-1,7.17c0,2.56-.51,4.09-1,4.61l.51,5.12c0,.51,0,.51-.51.51v5.12a1.9,1.9,0,0,0-.51,1.54c0,1,0,1.54-.52,2.05V380c-.51.51-.51,1-.51,2.05v1.54c0,2.56,0,4.09-.51,4.61v4.61c0,1.53,0,2.05-.51,2.56l-.52,3.58V402h-.51l-.51,1v-7.17c.51-.51.51-1,.51-2.56-.51,0-.51.51-.51,1v-4.61l-.51,2v-2.56l.51-.51v-4.1l-.51-.51,1-4.61v-8.71c.51-.51.51-1,1-2.56l-.52-4.61c0-.51,0-.51-.51-.51a13.3,13.3,0,0,0,1.54-5.64v-2l-.51,1V359l-1,4.1-1,11.27-.51,4.1a1.53,1.53,0,0,0,0,2c0,1,0,1.54-.52,2.05,0,1.54-.51,4.1-1,7.69,0,1.53,0,2-.51,2.56l-.52,3.07v1.54l-.51-.52c0,.52,0,.52-.51,0l-1,.52-.52,3.07v1l-.51-.51v-1l-.51-1.54-.51-1-.52-.52v1l-.51,1V401l-.51,1v-1.54a7.63,7.63,0,0,0,.51-3.59c-.51-.51-.51-1.53-.51-2.56l-.51.52-.51,2-.52-.51.52-1h-.52l.52-1c0-.51,0-.51-.52-.51l-.51.51-.51,1v1.53l-.51-1.53v-.51l-.52-1-.51-2.05v2.05c-.51-.51-.51,0-1,1v.51h-.51c-.52.51-.52,2.05-.52,4.61v1l-.51,1.54v.51c-.51-.51-.51-.51,0-1v-1l-.51-.51V401c-.51.51-.51,1.54-.51,3.59l-.51-1,.51-2.05c-.51,0-.51-.51-.51-1.53l.51-6.15-.51-3.58c0-1,0-1.54.51-2.05l-.51-1,1-13.83,2-18.95c0-4.1,0-6.66.51-7.68v-4.1l.51-1,.51-8.2v-1a39.89,39.89,0,0,1,1-7.69V312.39l-1,9.73-.51,9.74-1,8.7-.51,6.66c-.52,12.29-1.54,18.95-2.56,20v5.63l-1,8.2v7.68l-.51,4.1-.51,1.53v-4.09l-.52-1,.52-1.54c0-8.19,0-13.31.51-14.85l1-6.66v-4.61c.52-.51.52-1.53.52-3.58v-1c.51,0,.51-.51.51-1a2.29,2.29,0,0,1,0-2.56v-8.71a45.93,45.93,0,0,1,1-5.63v-5.64l1.54-14.34V317c-.51-1.54,0-3.58.51-6.14,0-1,0-1.54.51-2.05a1.88,1.88,0,0,0-.51-1.54v-2.56l-.51-1c.51-3.58,1-5.63,1-6.65l.51-5.64a9.84,9.84,0,0,0,.52-4.1c0-1.53,0-2.56-.52-3.07l1-5.63v-6.66c0-1.54,0-2.05.51-2.56V262.2l1-1v-1.53c0-2.57.51-7.18,1-13.32v-3.59c.51-.51.51-2,.51-4.61l.51-5.12v-3.58l.52-4.61c.51-.52.51-3.59.51-8.2a4.34,4.34,0,0,0,1-3.07c-.51-.51-.51-1.54-.51-3.59,1-1.53,1-3.07.51-3.58v-1c.52-2.05.52-3.07,0-3.07l.52-1,.51-3.58c0-1,0-1.54-.51-2,.51,0,.51-.51,1-2.05V186.9c.51-.51.51-1.53.51-3.07s0-2.05-.51-2.56v-.51h.51v-3.08l.51-6.14c-.51-1,0-2.56.52-4.61v-.51c0-4.61,0-7.69.51-8.71v-1l.51-2.05.51,1v-1c-.51-.51-.51-1-.51-2.56L183,148v-5.64c0-4.61,0-7.68.52-9.22v-4.61l.51-2c.51,0,.51,1.54,0,5.13a1,1,0,0,0,0,1.53v1.54c.51,0,.51,0,.51.51l-.51,1,.51-.52v-5.63l1-8.71v-7.17c0-1.54.52-4.1,1-7.68V105l.51-2c0-1,0-1.53.51-1.53V98.29a9.81,9.81,0,0,1,.52-4.09c.51-1,.51-3.08.51-5.64a12.55,12.55,0,0,1,0-6.15c.51-.51.51-2,.51-4.6a20,20,0,0,1,1-3.08l-.51-6.14,1-6.15a1.89,1.89,0,0,1,.51-1.54V55.78l.51-3.58,29.2-1.54v.51a1.89,1.89,0,0,0,.51,1.54v1.53h.51l-.51.52.51-.52v2l.51,3.08v1L224,67.56l.51,3.59c.51.51.51,1,.51,2.56l-1,2.56.51,1,1,6.66,1.53,9.22v4.61l.51,1v.51l1.54,8.19-.51,1.54a90.65,90.65,0,0,1,1.54,12.8v.52a28.47,28.47,0,0,1,1.53,8.7l.51,3.08v2.56a6.65,6.65,0,0,0,1,4.1c0,2,0,3.07.51,3.58l1,7.17v4.1c-.52.51-.52.51,0,1a1.88,1.88,0,0,0,.51,1.54c0,4.1.51,7.17,1.53,8.71l1,7.68v1c0,2.05,0,3.59.51,4.61v2.57l.51,2c.51.52.51,1,.51,2.05,0,1.54,0,2-.51,2.56l.51,1.54c-.51.51,0,1.54.52,3.07.51,1,.51,3.08.51,5.64l1,7.68c0,3.07,0,5.12.52,6.15v2.05l1-2.05a1.89,1.89,0,0,1,.51-1.54V210c-.51-.51,0-2,1-4.61v-1c0-.51.51-1.54,1-3.59l.51-2c-.51.52-.51.52-.51,0l.51-.51c0-1.54,0-2.56.52-3.07.51-1,.51-2.56.51-4.61a6,6,0,0,1,1-3.59l.51-3.07v.51c.52-.51.52-1.53.52-3.58,0-1.54,0-3.08.51-3.59s1-2.56,1-6.14l.52-1v-.51c0-.51.51-1,1-1.54v-2.56c.51,0,.51,0,.51-.51l-.51.51a1.88,1.88,0,0,0,.51-1.54l.51-1v-.51c0-1,0-1.54.52-2v-4.1l2.56-10.24c.51-.51.51-1.54.51-2.56a1,1,0,0,1,0-1.54l1-5.12,1.54-8.2c.51-2,1-3.07,1-3.58a6,6,0,0,1,1-3.59c0-.51,0-1,.51-1l.51-1.54v-2l.52-1v-2.56c.51-.52.51-1.54.51-3.08a3.9,3.9,0,0,0,1-2.56l-.51-1a6.29,6.29,0,0,0,1.54-4.61l.51-.51h-.51v-.52L267,93.17c.52-.51.52-1.54.52-3.07a1.89,1.89,0,0,1,.51-1.54v.51l1-2.56V86l1-4.61c.51-.51.51-2,.51-5.12,0-.51.51-1,1-1.54a41.75,41.75,0,0,0,1.54-9.22v-1c1.54-8.71,3.07-13.32,3.59-13.32l-.52-.51,1.54-2.56h-.51l-.51.51q.76-.77,1.53-4.61c0-3.59.51-5.63,1-5.63V35.81ZM165.08,394.86v0Zm0,1v0Zm1-337v0Zm.51,277.1-.51,1Zm.52-.51c0,.51,0,.51-.52.51Zm1-12.29c-.51,1-.51,3.07-.51,5.63l-.51-2.56.51-4.1v-.51ZM167.64,339c-.51.51-.51.51-.51,0Zm0-19,.51-.51Zm.51,2.05,1-7.68v4.61Zm1.54,6.66v0Zm.51-20,.51-.52Zm1-11.78v0Zm1-35.35c0-.51,0-1,.51-1Zm0,0v0Zm1-13.83-.51,1Zm0,7.69v-5.12l-.51,3.07Zm.51,49.68,1-10.24-.51,1v2.56l-.52,3.08-.51,10.24v2.56a1,1,0,0,0,0,1.54Zm.52-57.88-.52,1,.52-7.17-1,6.65v-2c0-4.1,0-7.17.51-8.71v-2l.52-4.61.51-2.05c.51-.51.51-1,.51-2v.51c0,1,0,1.54-.51,2.05v9.74l-.51,7.17Zm-.52,7.17c0,.52,0,.52-.51,0Zm0-6.14v0Zm1.54-20.49c0,2.56,0,4.61-.51,5.63V233C174.81,230.44,174.81,228.9,175.32,227.88Zm0,56.34-.51,6.15,1-3.08v-.51Zm2.05-76.83v5.12l-.51,2.05-1,6.15-.51,2,3.07-27.66c0,1.53-.51,4.61-1,9.22Zm-2.05,20.49c0-1,0-1.54.51-1-.51,0-.51,0-.51.52Zm1-17.42c0,.52,0,.52-.51,0v-1Zm.52-14.34.51.51Zm2,209.49c-.52,0-.52,0-.52.51C178.39,405.61,178.39,405.61,178.91,405.61Zm-.52,1v0Zm0,0v0Zm1.54-244.32v4.61c0-.51-.51-.51-1,0v-1a26.58,26.58,0,0,1,1-5.63v-5.12l.51-2.56v-1.54c0-4.61,0-7.17.51-7.68l.52-2.56v-2.05l.51,1.53c.51.52.51,1-.51,2.05v1c0,2,0,3.07-.52,3.58v3.59l-.51,1H181v8.2l-.51.51v-.51ZM183,148c0,.51,0,.51-.51,0Zm1-1.54c-.51-.51-.51-2.05-.51-4.61.51-.51.51-1,.51-2.56v-.51c-.51,1.53-.51,4.09-.51,8.7Zm1-38.42-1,1.54Zm-.51,7.69c0,.51,0,.51.51.51v.51c-.51,0-.51,1-.51,3.08l-.51,3.07c0-2.56,0-4.61.51-5.12ZM184,394.86v0Zm1-281.2v1c-.51,0-.51,0-.51.52Zm-.51,1.54v0Zm.51,271v.51a1.9,1.9,0,0,0-.51-1.54Zm.51,0v-1a26.43,26.43,0,0,1,1-4.61l-.51-3.07v4.1c-.52,1.53-1,2.56-.52,2.56v.51a1.89,1.89,0,0,0-.51,1.54Zm0,8.19v-1a1.88,1.88,0,0,0-.51,1.54Zm0-3.58v0Zm0,0v0Zm1-16.9.51-2.05v-1c-.51,0-.51,0-.51.51ZM188.13,358c0-1.54,0-2.56.51-3.08,0-1.53,0-2.56.51-3.07-.51-.51-.51-1-.51-2.56l.51-1.54-.51,1v5.12l-1,2.05V359c0,1.54,0,2.56-.51,3.07v6.66c0-3.07,0-5.12.51-6.14S188.13,360,188.13,358Zm-.52-17.42v-.51c-.51.51-.51.51,0,1Zm1.54-12.8-.51,2.56Zm.51-246.88v0Zm2.56-7.68v0Zm0,70.68v0Zm.52-31.76v9.22l1-13.32.51-1,.51-10.24.52,5.12c0-2,0-3.07.51-3.59-.51,0-.51-1.53,0-5.12-.51-1-.51-3.58-.51-8.19l-.52-4.61c-.51,2.56-.51,3.58,0,3.58v.51c-.51,0-.51-.51-.51-1v1a125.18,125.18,0,0,1-1.53,15.37V107l.51-3.07.51,1v2.56l-1,1.54v3.07Zm1,20c-.51,0-.51.51-.51,1v1C193.25,133.12,193.25,132.61,193.76,132.1Zm2.56-76.32c-1.54,0-2,0-2.56.51h2.56c0,2.56-.51,7.17-1,13.32v1l1,5.13,1,5.12.52-5.12v3.58c0,1,0,1.54-.52,2l1,3.07v-2c0-3.07,0-5.12.51-5.63s.51-1.54.51-2.56a1,1,0,0,1,0-1.54l.52-1.53V66c-.52-.51-.52-2-.52-4.61l-1-5.12,1-.51v1a2.29,2.29,0,0,0,0,2.56v.51l.52-2.05v-2h0v-1h1V53.22l5.63-.51-3.58.51v1h1v-1h1v1h.51v-1l2.56.51v-.51h.51v1a1.88,1.88,0,0,0,1.54-.51l.51-1H200.42l12.29-.51-15.88.51a1,1,0,0,0,0,1.53C196.83,55.27,196.83,55.78,196.32,55.78Zm-2.56,38.93.51-.51Zm.51,27.66.51-.52v-.51c-.51.51-1,3.59-1,8.2v.51c0-2.56,0-4.61.51-5.12Zm0-37.39.51-.52V85Zm0,8.19h.51c0,.51,0,1-.51,1Zm0,6.15c0-2.56,0-4.1.51-4.61ZM194.78,85v0Zm0,32.78L196.32,105v.51c.51,0,.51,0,0-.51l.51-6.14V97.27l-.51-3.07-.51,1a2.29,2.29,0,0,0,0,2.56v2c0,1.54,0,2-.51,2.56s-.52,1-.52,2.56v12.81Zm.52-28.17v0Zm.51,217.68.51-2Zm2.56-251.49v.51h-2.05v-.51Zm-1,68.12.52-5.12v-1c0-1,0-2.05.51-2.56v-5.64c0-1.54,0-2-.51-2.56v4.61l-1.54,13.32.51.51Zm-1,181.32v0Zm1.54-250.46c.51,0,1,.51,1.53,1h-1c-.51,0-.51,0-.51-.51Zm.51,18.44v.51a1.87,1.87,0,0,0-.51,1.53Zm-.51,2v0Zm0,33.81.51,1h-.51Zm.51-36.88v0Zm0,0v0Zm.51,43.54v3.07l-.51,3.07,1-5.12v-1Zm-.51,162.88c.51-.52.51-2,.51-4.1a1.9,1.9,0,0,1-.51,1.54Zm1-217.18a1.9,1.9,0,0,0-.51,1.54A1.9,1.9,0,0,1,199.39,61.41Zm0-5.63h0ZM199.91,87l-.52,4.61v1c0,1.54,0,2.56.52,3.07l.51-6.14v-.52l.51-3.58,1-6.15c-.51,0-.51,0-.51-.51l-.51-3.59a30.21,30.21,0,0,1-1,7.17Zm-.52,35.86v0Zm.52-68.12v-2h0l.51,1Zm1,84v0Zm3.07-83h0Zm-1.53,28.68v0Zm0,92.2v.51c.51,0,.51,0,.51-.51ZM204,164.88c0,2.05,0,3.58-.51,4.61v3.58c0-2,0-3.58.51-4.61l.52-2.56v-4.61C204,161.81,204,162.83,204,164.88Zm0,20v3.59a17.89,17.89,0,0,0,.52-3.07,21.24,21.24,0,0,1,.51-6.15v-2.05l-.51.51v3.08a1.27,1.27,0,0,0-.52,2.05Zm2.56-131.63h0ZM205,171v4.6l.51-2v-5.13l-.51,1V171Zm0,44.56v0Zm2.56-55.32v-1.54c1-6.66,1.54-11.78,2-15.36v-1.54l-1-9.73c-.51-.51-.51-2.56-.51-5.12l-1,12.29-1,7.68.51,4.61v-.51l.52-3.07,1.53-7.17a10,10,0,0,0-.51,4.09c0,2.56,0,4.1-.51,5.13s-.51,3.07-.51,6.14a42.71,42.71,0,0,1,1-6.66l.51-1-.51,1,.51,2.05c-.51.51-.51,1.54-.51,3.07l-.51,4.61Zm-1.54,21.51c.51-.51.51-.51,0-1Zm.51,32.27a1,1,0,0,1,0-1.54Zm3.59-161.34h0Zm-2.05,149-1,1.53Zm0-57.37a1.88,1.88,0,0,0,.51-1.54v4.61Zm0,51.22.51-1.54Zm0,6.66.51-.51c0-.52,0-.52.52,0Zm.51-62v0Zm.52-85.53h0ZM224,293.44c.51.51.51,1,.51,2.56l.51,3.07a1.86,1.86,0,0,0,.52,1.54c0,2.05,0,3.07.51,3.59v-1.54l.51-3.07-1-3.08,1,2.56v-1l1-7.68h.52l-.52-2.05-.51-7.17-2.56-20c0-1.53,0-2.56-.51-3.07l-.51-2.56v-3.08l-.52-4.61-1-4.61.51-3.58c-1.53-9.73-2.56-15.88-2.56-18.95-.51-.51-1-3.07-1-7.68l-1-6.15a22.69,22.69,0,0,1-1-5.12v-3.08c-.51-.51-.51-1-.51-2.56s0-2.05-.52-2.56l-2-16.39c-.52-8.19-1-11.78-1-11.27l-.51-3.58-.51-2.56v1l-.52,2.56v3.08l-.51,2V171l-.51,2-.51.52v2.56l.51,3.07c0,2.05,0,3.07.51,3.59v1.53a38.21,38.21,0,0,1,1,9.22c0,.51.51,2.56,1,5.12l1,9.22.51,8.2a40.31,40.31,0,0,1,1,7.17l2.56,18.44v.51l1,5.63c0,1,.51,3.08,1,6.66a21.24,21.24,0,0,1,.51,6.15c-.51,1.54-.51,3.07,0,3.59v.51a7.47,7.47,0,0,1,.52,3.58,3.24,3.24,0,0,0,0,3.08,46.25,46.25,0,0,1,1.53,12.8l.51,1.54.52,5.12.51.51ZM210.15,180.76c-.51-.52-.51-.52-.51,0S209.64,181.27,210.15,180.76Zm9.22-126.52H216.3l-.52-2.56-3.07.52-1,.51.51,1h1v1h0l-.51,1c.51,0,.51,0,.51-.51v-.51h2.05l-.51,1.53c-.51,5.64-1,9.22-1,11.27l.51,2,.51,3.59,1,7.17a26.67,26.67,0,0,0,1,5.63V81.9l-.51-4.61.51,4.1.51,1c0-1.53,0-2.56-.51-3.07v-.51l1.53-10.76v-.51c-.51-1-.51-2.56-.51-5.12a10,10,0,0,0-.51-4.1c-.51-2.05-1-3.07-1-3.58Zm-6.66,118.32a21.24,21.24,0,0,1-1-7.17Zm-1,7.68v0Zm0,0c.51,0,.51.52.51,1.54Zm.51-23v0Zm.51-105h.51v.51c0,.51,0,1,.52,1h-.52v-.51Zm2.56,45.07-2.05-18.44V75.24l-.51,1v3.07l1.54,10.76c.51,1.53.51,4.61.51,8.19.51.52.51,1.54.51,3.08l.51-1-.51-1ZM214.76,190l-2-17.42a100.31,100.31,0,0,1,2,16.39Zm-1-136.25a1.87,1.87,0,0,0,1.53.51l-2.05.52Zm1,134.71-.51.51v1a1.9,1.9,0,0,1-.51-1.54l.51-.51Zm-.51-127v0Zm.51,4.1.51,1Zm0,70.17v0Zm1.54-80.92c-.52,0-1,0-1-.52h1Zm-1,11.78v0Zm1,6.14c0,.52,0,.52-.52,0s-.51-1.53-.51-3.07l.51,1C215.78,71.66,215.78,72.17,216.3,72.68Zm-1,60.95.51-2.56-.51,1Zm0,58.91a1.87,1.87,0,0,1,.51,1.53Zm0,66.07v0Zm1-61c-.52-.51-.52-1.54-.52-3.59C215.78,195.61,215.78,197.15,216.3,197.66Zm0-121.9c-.52,0-.52-.52,0-1Zm0,124,.51,1v1.54l1,10.24V213c-.51-.52-.51-1-.51-2.57l-1-8.19a1,1,0,0,1,0-1.54Zm0-125v0Zm.51,38.42v1l.51,4.1a1.88,1.88,0,0,1,.51,1.54,25.49,25.49,0,0,0,1,6.65V127c-.52-1-.52-2.56-.52-4.61a10,10,0,0,0-.51-4.1c-.51-2-.51-3.07,0-3.59l-1-6.14Zm1-28.17-.51-1a1.89,1.89,0,0,0,.51,1.54Zm5.64,23v-1.53L223,102.9c-.51-.51-.51-2.05-.51-3.58L220.39,84a1.56,1.56,0,0,1,0-2V80.37l-.51-2.05v2.05l-.51,3.07c0,2.56,0,3.58-.51,4.1v1c0,2,0,3.07-.52,3.59l-.51-5.64.51,7.17v5.13l.52,2-.52,2.57a45.39,45.39,0,0,0,1.54,10.75v2.56l.51,1c0,1.53,0,2,.52,2.56v4.61l.51,1,.51,1.54v1c-.51,1-.51,1.54,0,2.05l1,7.68c0,.52,0,.52.52.52v2.56a1,1,0,0,0,0,1.53c.51,3.59,1,5.13,1,5.64,0,2,0,3.58.51,4.1.52,5.63,1,9.22,1,11.78v4.09c1.53,4.1,2.05,8.71,2.05,14.35l2.56,14.85v1c.51,2.56.51,3.59,0,3.59v3.58l-.51-.51v.51l-1-5.63-.51.51a38.23,38.23,0,0,1-1-6.14v-1.54l-1-6.15c0-2.56,0-4.61-.51-5.63l-.51-2.56a1.87,1.87,0,0,0,.51,1.53v5.64l.51,4.1v3.07c.51,0,.51,1,.51,3.07.51,3.59,1,5.64,1,7.17l.51,1v4.1c0,2.56,0,3.58.51,4.09l.51,1.54v2c.52,1.54.52,2.56,0,2.05v2c0,2.56,0,4.09.52,4.61s.51,2,.51,3.58v2.05l2.05,9.22v2.05a1,1,0,0,0,0,1.53v1h.51v4.61l1.54,5.12v1c-.52.51-.52.51,0,1v-2.56l-.52-4.1.52-1a1.88,1.88,0,0,1-.52-1.54,6.64,6.64,0,0,0-1-4.1l.51-1c0-1.54,0-2.05-.51-2.05v-1l-.51-1.54.51,1v1h.51a70.07,70.07,0,0,0-1-9.73v-3.08a1,1,0,0,1,0-1.53l.51.51.51,3.07v1.54c0,2,0,3.58.51,4.61l.52-1,.51,1-1,1.53v2.05a1.88,1.88,0,0,1,.52,1.54c0,1,0,1.54.51,2.05l-.51.51v.51l.51-1c0,2.56,0,3.58.51,4.1v2l.51-2.56c.51-.51.51-1,.51-2v1c.52.51.52,1,.52,2v2.05c0,.51,0,.51.51.51,0-2.56,0-3.59-.51-4.1l-.52-1.54,1-3.07,1-6.14-.51-3.08v-2.56c0-2.56,0-4.1-.51-4.61-.51,0-.51,0-.51-.51v-6.15l-1-5.63c0-1.54-1.53-11.78-4.1-30.22a45.07,45.07,0,0,0-1-8.2,15.82,15.82,0,0,1-.51-5.12v-2l-1-4.61c.52-1,0-2.56-.51-5.12v-2l-.51-2.05-1-11.78A69.44,69.44,0,0,0,226,130.05,92.23,92.23,0,0,0,224,114.17c0-2.56,0-4.1-.51-4.61A1,1,0,0,1,223.47,108Zm-2.05,6.15q-.76-1.53-3.08-21.51v-.51l1.54,11.27Zm-1.54,19-1-5.63V128Zm-1,88.1v0Zm1-86.05-.51,1,.51,1.53a4.32,4.32,0,0,0,1,3.08v1a2.26,2.26,0,0,0,0,2.56l.51,4.1.51,7.17v-9.22l-1-6.15-1-6.66Zm.51-42v0Zm.52-41.49.51,1.54v-.51Zm0,34.32v0Zm0,19c.51,0,.51,0,.51.51Zm.51,1v0Zm1,5.12v.51l-1-5.63Zm.51,15.36-1.53-8.19V115.2L223,125.44v1Zm-1-60.44v0Zm1,49.18v0Zm0,1v0Zm0,14.34v0Zm.52,33.81c0,1.53,0,2,.51,2.56h.51a11.63,11.63,0,0,1-.51-3.59l-.51-1v-2.56c-.52,0-.52,1-.52,2.56C223.47,162.83,223.47,163.34,223.47,164.37Zm0-43v0Zm.51,16.39h-.51v-5.12l.51,5.63Zm.51,1.54c-.51,0-.51-.51-.51-1Zm.51,36.36v-1l-.51.51c0,.51,0,1,.51,1ZM226,149a2.29,2.29,0,0,0,0,2.56v1.54c-.51-.51-.51-2-.51-5.64a1.85,1.85,0,0,1-.52-1.53l.52,1C226,147.46,226,148,226,149Zm-1,140.34.52,1Zm.52,1v0Zm1,16.9c-.51.51-.51,2.05-.51,4.1l26.12,1,.51-5.12h-3.58l-.52,3.59v.51l-18.43-.51v-4.1h-.52v-1a1.87,1.87,0,0,1-.51-1.53c0-.52,0-.52-.51-.52l.51,1,.51,2.05c-.51-.51-1.53-.51-3.07-.51Zm0-160.83.51.51h-.51Zm0,11.27v0Zm0,131.12v0Zm.51-126.51a1,1,0,0,0,0-1.54c.51,0,.51,0,.51.51v2.05Zm0,140.34v0Zm.51-136.24.52,1.53Zm0,135.73v0Zm.52-131.64v0Zm.51-10.75v0Zm.51,6.14v-.51c-.51-.51-.51-.51,0-.51Zm.51,13.83c.52,1,.52,1.54,0,2.05v-2.05l-.51-1Zm0,3.59c.52.51.52,1.53.52,4.1Zm0,26.12v0Zm0,0c.52.51.52,1.54.52,3.59C229.61,212.51,229.61,211.49,229.61,209.44Zm0,97.32v0Zm1-132.66-.51,1.53v-.51Zm0,16.9c-.51,0-.51,0-.51-.51s0-.51.51,0Zm1-4.1c0-1,0-1.53-.51-2.05Zm-.51,8.71v0Zm1,3.59v2l-.51.52.51-1c0-1,0-2-.51-2.56v-.51a1.89,1.89,0,0,1-.51-1.54v1Zm3.08,107.56c-2.05,0-3.59,0-4.1.51l2.56.51v.51l.51-.51h1Zm-3.08-86c-.51,0-.51,0-.51-.51Zm0-14.86c.52.52,1,3.08,1,6.66Zm0,15.88v0Zm1-8.7.51,3.07c-.51-.51-.51-1.54-.51-3.59Zm.51,94.24c0,.51,0,.51.51.51Zm2-73.24-1.54-13.83v-.52l.52,1.54,1.53,13.32c0,2.05,0,3.07.51,3.58v1.54c0-.51,0-1-.51-1Zm-1.54,70.68h.52v-1.54Zm1.54-64v.52h-.51v.51Zm0,55.32v0Zm1-52.76v0Zm1,33.3c-.51-.51-.51-1-1-1a22.74,22.74,0,0,0,1,5.13v-4.1Zm-1,13.83c.52-2.56,1-4.61,1-5.12Zm.52,16.9v0Zm.51-54.29c.51.51.51,1,.51,2.56l.51,1c-.51-.51-.51-2.05-.51-4.1l-.51-1.53v2Zm1-57.37h0Zm.51,64v2.56l-1,4.09a32.37,32.37,0,0,0,1.54,7.69l.51,4.09c0-2.56,0-4.09.51-4.61v-1.53c.51-.51.51-1.54.51-3.08,0-1,0-1.53.52-2l.51-1-.51-1v-.51l.51-.52v-2.56c0-1.53,0-2.56-.51-3.07l-1-5.12-1,8.19-.52.51Zm-.51,17.92v0Zm1-15.88-.52,2.57v-2.57Zm0,33.3h-.52v2c.52,0,.52,0,.52-.52V295Zm0-29.71a1.9,1.9,0,0,1,.51-1.54Zm0,3.58v-3.07a3.09,3.09,0,0,1,.51,2.05,3.89,3.89,0,0,0-.51,2.05Zm.51-69.14v0Zm.51,22.53v-1.53l-.51-2.05c.51.51.51,2.05.51,4.1Zm-.51,46.61a25.68,25.68,0,0,0,1-6.14l1-1-.51,1-.52,4.1v1l-1,1.54v-.52Zm.51,4.61-.51-2,.51.51Zm0,14.35-.51,1Zm0-1.54v-2l.51-.51v-.51c-.51,0-.51,0-.51.51Zm.51,22.54v-.52h0c0,.52,0,.52-.51.52Zm0-26.13v0Zm0,24.08v0Zm1-19.47-.51-3.07c0,2,0,3.59.51,4.1Zm0-13.31v0Zm.51-17.42v0Zm1-12.29-.51.51.51,1Zm0,40-.51-.51c0,1,0,1.54.51,2.05Zm4.1,23H245v-1l-.51-2.57-.52-1c0,2,0,3.59.52,4.1v.51l-1-.51v1l1.54.51Zm1-98.34C247,219.68,246,225.32,246,226.85l-1,4.61-.51,3.08.51,3.58-.51,3.08-.52,1.53h.52l.51-1v-2.56l.51,1a1.89,1.89,0,0,0,.51,1.54l-.51,1,.51,1.54v.51l.52,1c0,1,0,1.53.51,1.53l-.51-4.1v-1l1.53-9.22,1.54-7.68.51-2,.51-2.05c.52-.51.52-2.05.52-3.58l1-5.13c0-1.53,0-2,.51-2.56l1-6.14,2.05-8.71,1-4.1c0-1.54,0-2.05.51-2.56v-1c.51-2.57,1-4.1.51-4.61,0-.52.52-1,1-1.54v-1l.51-5.63.51-3.07c.52-.51.52-1.54.52-3.08,0-2.56.51-3.58,1-3.58,0-1.54,0-2,.51-2.56v.51c0-.51,0-.51.51-.51v-1h-.51l.51-1v-.51l.52-1,.51-3.07c.51-.51.51-1.54.51-3.59v-1l1.54-7.17.51-2v2.56l-.51,2.56c.51-.51,1-2.56,1.53-7.17l3.08-12.8-.52-2.56,1.54-5.64v1c0,.51,0,.51.51,0v-1.54a17.59,17.59,0,0,0,1.54-6.15,1.87,1.87,0,0,0-.51-1.53,46.34,46.34,0,0,1,1.53-7.69v1c.52.51.52.51.52,0v-1.54a4.65,4.65,0,0,0,1.53-3.58v-2a4.37,4.37,0,0,1,1-3.08v-1l-.51.51c0,.51,0,.51-.52.51v-.51l1-2.56,1-6.66c0-4.1,0-6.66.51-7.68v-1c.52-1,.52-2.56.52-5.12a5.58,5.58,0,0,1,0-4.1V65a41.75,41.75,0,0,0-1.54,9.22l-.51,1.54v2l-.51,2.56a25.16,25.16,0,0,0-1,4.61,70.07,70.07,0,0,0-2,8.7l-2.05,7.69a42.78,42.78,0,0,0-1,6.65l-1,4.61a3.11,3.11,0,0,0-.51,2.05,1.88,1.88,0,0,1-.51,1.54l-4.61,22.54-3.07,13.83-1,6.14-1.53,6.15-1,6.15c-1.53,5.12-2,8.19-2,9.73a19.11,19.11,0,0,0-1,6.14,17.59,17.59,0,0,0-1.54,6.15l-1.53,5.63c.51,1,.51,1.54,0,2v-.51A68.44,68.44,0,0,0,249.08,208.93Zm-4.61,41.49v-1c0,.51,0,.51-.52.51Zm.51,56.85v1l-.51-1Zm0-68.12v0Zm.51,5.63-.51,3.07Zm.51-4.1.52-1Zm0,0c.52-.51.52,0,0,.52Zm.52,2.56-.52,1.54v-.51Zm.51-6.65a1.87,1.87,0,0,1-.51,1.53Zm-.51,1.53v0Zm0,10.76H247v-1Zm2,62.49v0Zm1.54-93.73c.51,1.53,0,3.58-.51,5.63-.51.51-.51.51-.51,0v-.51A15.26,15.26,0,0,0,250.1,217.64Zm0,55.82v0Zm.51-64.53.52-1Zm0,1v0Zm0,7.69v0Zm0,64.53.52-1c0,.51,0,.51-.52.51Zm.52,25.61v.51l-.52.52Zm-.52,2.05v0Zm.52-73.76v0Zm23.56-43.53c.51-.51.51-2,0-3.59.51-.51.51-1,.51-2.56,0-1,0-1.54.51-2a4.32,4.32,0,0,0,1-3.07v-6.15c0-2.05,0-3.58.51-4.09l-1.54,5.63q-3.07,14.6-3.07,16.9l-.51,1.54v0c-.52,0-.52.51-.52,1v1l-.51,2.56v.51l-1,.51v.51L268,207.9a26.43,26.43,0,0,0-1,4.61v2.05a2.37,2.37,0,0,0-1.53,2.56v3.59H265l.52-.51-.52.51-.51,2c.51-.52.51-1,.51-2v3.58c0-1,0-2,.52-2.56s.51-1,.51-2l.51,1-.51,1-.51.51,1-1-.51,3.59.51-1c0,2.56,0,3.59-.51,4.1a26.06,26.06,0,0,0-1,6.66,10,10,0,0,0-.51,4.1c-.51.51-.51.51-.51,1a1.9,1.9,0,0,1-.51,1.54,4.32,4.32,0,0,0-1,3.07c-.51,2.56-1,6.66-2,12.29-.52,0-.52,0-.52-.51h.52v-.51c-.52,0-.52,0-.52.51-.51.51-.51.51-.51,0l1-1c0-1.54,0-2.05.51-2.57l-.51-2,1.53-5.13v-2c0-1.53,0-2,.51-2.56,0-.51.52-1,1-1.53s0-1.54-.51-2.05c.51,0,.51,0,.51-.51v-3.08c.51-.51.51-1.53.51-3.07l-.51,1-.51.52c-.52,0-.52.51-.52,1.53v1c-.51.51-.51,1-.51,2.05l-5.63,28.68a12.75,12.75,0,0,1-1,3.58,37.93,37.93,0,0,1-1,6.15l-1.54,10.25-1,7.17V294c.51.51.51,1,.51,2.56l.51,1.54.51,5.12v1l.52-1v-1.53l1-6.15a1.89,1.89,0,0,0,.51-1.54,17.83,17.83,0,0,1,1.54-6.14l-.51-1.54c.51,0,.51-1,.51-3.07l1-3.08v-1.53l.52-3.08a20,20,0,0,0,1-3.07V270.9c-.51-.51-.51-.51,0-1l1-2.56v-1l1.53-8.19a1.89,1.89,0,0,1,.51-1.54l-.51-.51,1-3.59c.51-.51.51-2,.51-3.58a51.59,51.59,0,0,1,2.05-11.27L268,222.24c.51-.51,1-1,1-1.53s0-.51.51-.51v-1a3.27,3.27,0,0,1,0-3.07,1.87,1.87,0,0,1,.52-1.54l.51-1.53c.51-.52.51-1,.51-2.05l-.51-1,2.56-9.73v-2.05l.51-1.54.51-2.56A1.85,1.85,0,0,1,274.69,192.54Zm-22.54,12.8-.51,1v-2.05c.51-.51.51-1,.51-2Zm0,4.61c0,1,0,1.54-.51,2.05C251.64,211,251.64,210.46,252.15,210Zm-.51,2.05v0Zm.51,94.25v-.52c-.51,0-.51,0-.51-.51Zm0-26.64.51,2.05Zm.51-116.78.51-.51v.51l-.51.51Zm.51,3.59a1.87,1.87,0,0,0-.51,1.53Zm0,35.85v5.12l-.51.51a1.87,1.87,0,0,1,.51-1.53Zm.52-44.05v0Zm.51,39.95.51-1v.51Zm0,0v0Zm0,92.2c0-1.54,0-2.05.51-2.56v.51C254.2,288.83,254.2,289.34,254.2,290.37Zm1-102.44v-.51a1.87,1.87,0,0,1-.51,1.53Zm-.51,7.68v0Zm.51,91.68v0Zm.52-105c.51-.51.51,0,0,1.54Zm0,27.15,1-2.05v-1.54Zm.51-21.51,1-1v1a4.32,4.32,0,0,0-1,3.07Zm.51-8.2a9.14,9.14,0,0,1,1.54-5.63,22.13,22.13,0,0,0-1,5.12Zm.51,2.56c.51-3.58,1-5.12,1.54-5.12Zm0,20v1.54l1-3.59c.51-1.54.51-2.56,0-3.07Zm1-62v0Zm0,30.22.51-2c0,2,0,3.08-.51,3.08Zm0,25.1,1-2.05v1Zm1,57.37a4.34,4.34,0,0,1-1,3.07Zm0,11.27c0,1,0,1.53-.51,2a15.08,15.08,0,0,1,1-4.61C259.32,262.2,259.32,262.71,259.32,264.25Zm-.51,2v0Zm1-7.17c0-1,0-1.53.52-1.53A1.85,1.85,0,0,1,259.83,259.12Zm1-97.83c-.51,0-.51.52-.51,1a1.89,1.89,0,0,1,.51-1.54Zm-.51,95.27v0Zm1.53-92.71.51.52v-1Zm1-12.29v.51c0,1.54,0,2.05-.52,2.56Zm-.52,8.2v0Zm1-10.76-.51,1.54Zm.51-1.54-.51,1.54Zm.51,77.86c0,.51,0,1-.51,1v-.51a1.9,1.9,0,0,1,.51-1.54l-.51,2.05c0,1,0,1.54-.51,2,.51,0,.51,0,.51-.51v1Zm-.51-77.86v-1.53l.51-3.08Zm.51,79.39c-.51,0-.51,0-.51-.51Zm1-125v0ZM267,133.12l-.51,1Zm-.51,90.15c.51,0,.51,0,0,.51Zm3.59-106.54.51-3.58L268,127.49l-1,1ZM267,133.12l.52-2.56Zm.52,79.39c0-2.56,0-3.58.51-4.09v1c-.51.51-.51,1.54-.51,4.1Zm2-85-.51,1-1,3.59.51-1a11.54,11.54,0,0,1,.51-3.58ZM268,132.61c.51.51.51.51,0,.51Zm0,75.81,1-2a1.87,1.87,0,0,1-.51,1.53Zm2.56-95.27,3.07-13.83Zm1.54,1-1,2.56v-.51Zm-1,4.1v0Zm.51,77.85.52-1-.52,1.53Zm4.1-107,.51-.51v.51l-1.53,6.66-1,3.59.51-2Zm.51-34.83-1,.52Zm-.51,41.49v3.59c-.51,0-.51,0-.51-.51Zm.51-7.17.52-1Zm.52,299.64-.52-.52c0-.51,0-.51.52,0Zm1.53-310.91v3.59L276.74,85ZM276.74,85v0Zm0,1.53v0Zm1,.51c0,.52,0,.52.51.52V85C278.27,86,278.27,86.51,277.76,87Zm.51,13.32a1.89,1.89,0,0,1-.51,1.54v2.05l.51-1.54v-2Zm0-23c0-.51,0-1,.51-1Zm7.17-33.8V37.34l-1.53,7.17c-.52.51-.52,1-.52,2.56s0,2-.51,2.56h1v-.51c0-.51.51-1,1-1.53l-.51,1.53A9.88,9.88,0,0,0,286,44Zm-2.56,11.27v0Zm13.83,52.75v0ZM305.93,274v0Zm0,5.63v0Zm0,6.15v0Zm0,1.53v0Zm0,2v0Z" style="fill:#2b2b2b"/><path d="M342.29,387.17v0Zm2.56.51v0ZM451.39,52.2h-.52l.52-.52h1l-.51-.51c1.54,0,2.56,0,3.07-.51l-.51-.51h-1.54c-3.07,0-5.12,0-6.65.51h-2l-.52.51-1.53.51h-1.54l-2.05.52-2.56.51-1,.51-.52.51H433a1.89,1.89,0,0,0-1.54.51,1.86,1.86,0,0,1-1.54.52h-1.53l-1,.51a1.87,1.87,0,0,1-1.53.51l-1,.51c0-.51-.51-.51-1,0l-3.07,1a1.9,1.9,0,0,1-1.54.51c-2.05,0-3.07.51-3.07,1.54h-.52l-1,.51-3.59,1.53L406.31,63l-1.53.51-2.56,1h-.52c0,.51,0,.51-.51.51h-1l-.51.51a4.65,4.65,0,0,1-3.59,1.54l-2.05,1-1.54.52a3.9,3.9,0,0,1-2.56,1h.52c-1.54,0-2.05.51-2.05,1h-.52c-.51-.51-.51-.51-1,0a1.86,1.86,0,0,1-1.54.52c-.51,0-1,0-1,.51l-1,.51-2.56,1,1-1v-.51l-1,.51c-.51,0-.51,0-.51.51v.52l-1,.51-1,.51c-.51-.51-.51-.51-.51,0l-.51.51h-.51l-2.05,1-1,.51c-.51,0-.51,0-.51.51h-.51l-.51.51-2.05,1-2.05,1c-1,0-2,.51-3.59,1.54h.52a1.88,1.88,0,0,0-1.54.51l-.51.51c-1,0-1.54.51-1.54,1-.51-.52-1,0-2.05.51h.51l-.51.51c-1,0-1.53,0-2.05.51l-.51.52-1,.51v1a1.87,1.87,0,0,1-.52,1.54,1.88,1.88,0,0,0-.51,1.54v3.07a1.88,1.88,0,0,0-.51,1.54v2l-.51,2.05c-.51.52-.51,1.54-.51,3.08v1l-.52,2v4.1l-.51.51v4.1l-.51,1.53v5.64c-.51.51-.51,1-.51,2.56v5.63c-.52.51-.52,1.54-.52,3.59v9.22a1.87,1.87,0,0,0-.51,1.53v.52h-.51l.51.51V157.2a1.87,1.87,0,0,0-.51,1.53c0,3.59,0,5.12-.51,5.64V170c0,1.54,0,2.56-.51,3.07v7.17h-.52v.52c.52,0,.52,0,.52.51v5.63c0,.52,0,.52-.52.52v.51l.52.51v2.05l-.52.51v1c0,.51,0,.51-.51,0v42c-.51,0-.51,0-.51.51v1h-.51c0,.51,0,.51.51.51v4.61c0,.52,0,1-.51,1v-.51l-.52-1v7.68h0v21.52l.52.51-.52.51.52,2.56v6.66l-.52,7.68V304.2c.52.51.52,2.05.52,5.12l-.52,4.1,1,21v15.87h.51a1.9,1.9,0,0,0-.51,1.54l.51,2.56v17.93l.51,5.12v4.1c0,17.93,1,28.17,2.56,30.73v3.07l.52,2.05.51,2.05,1,2.05v2.05l.52,1h.51l.51.52,1,.51,1-1h1.54v.52h1l1.54,1c.51.51,1,.51,1.53-.51h.51l.52.51,1-1h.51c0,.51.52,1,1.54,1l1,.51.52.51h1.53l.52.52H370v1c.51,0,.51,0,.51-.51,0-1,.51-1.54,1.54-1,0,.52,0,.52.51,0v-1.53l1,.51a1.88,1.88,0,0,1,.52-1.54l.51-1v-1h.51v1a1.1,1.1,0,0,0,1-1v-3.58h-.51v-1l.51-.51v-1h.52l1,2.05c.51-.52.51-1,.51-2.56l-.51-1,.51-.51c0-1,0-1.54.52-2.05v-1c.51,0,.51-.52.51-1-.51-1-.51-1.54,0-2.05v-4.61a1,1,0,0,1,0-1.53V388.71c-.51-.51-.51-.51,0-1v-7.17a1.87,1.87,0,0,1,.51-1.53v-7.17l.51-4.1c0-1.54,0-2-.51-2.56l.51-1V359h.51a1.88,1.88,0,0,1-.51-1.54V354.9l-.51-.51v-1l.51-.51h.51l-.51-.52c.51-.51.51-.51,0-1-.51,0-.51,0-.51-.51V335.44c-.51-.51-.51-1-.51-2.56v-2.05l.51-.51-.51-1v-.51c.51-.51.51-1.53.51-4.1V303.17c.51-1,.51-3.07.51-6.66v-6.14a1.88,1.88,0,0,1,.51-1.54v-3.07l.52-9.73v-12.3c.51-.51.51-.51,0-1v-2.56c.51-.51.51-1,.51-2s0-1.54-.51-2.05v-1.54a1.87,1.87,0,0,1,.51-1.53v-1c-.51,0-.51-.51-.51-1,.51-.51.51-1,.51-2.56v-3.59l.51-1.54c0-.51,0-1-.51-1v-3.58c.51-.52.51-1,.51-2.57l-.51-3.58a1.89,1.89,0,0,0,.51-1.54,1.87,1.87,0,0,0-.51-1.53v-1.54c.51-.51.51-.51,0-1v-.51c.51-.51.51-1,.51-2.05v-2c-.51,0-.51-.51-.51-1a1,1,0,0,0,0-1.54l.51-1V216.1l-.51-1a1.87,1.87,0,0,0,.51-1.53V190l.51-.52c0-1.53,0-2,.51-2v-3.59c-.51-.51-.51-.51,0-1V174.1c0-1,0-1.54.52-1.54l.51-1V171c-.51,0-.51,0-.51-.52l-.52-1v-3.07c-.51,0-.51,0,0-.52l.52-1v-2a3.22,3.22,0,0,1,0-3.07l-.52-.52v-2h.52v-2.57l.51-1v-1l-.51-3.59.51-1v-2.56c.51,0,.51,0,.51-.52v-1.53c0-1.54,0-2.05-.51-2.56,0-1.54,0-2.05.51-2.57v-.51l.51-1.53a1.9,1.9,0,0,1-.51-1.54V132.1a1.89,1.89,0,0,1,.51-1.54v-7.17c.52-.51.52-1,.52-2v-4.61a1.87,1.87,0,0,0,.51-1.53c0-.52,0-.52-.51-.52a1.87,1.87,0,0,0,.51-1.53l.51-.52v-4.09h.51V108l.51-.51h.52c.51,0,.51,0,.51-.51h.51c.51.51.51.51,1,0v-1l.51-.52h1a1.1,1.1,0,0,1,1-1l2.56-1.54h.51L394,104.44l-1,1-1,.52h-.51v1c.51,0,.51,0,.51-.51l3.08-2,1-.51v-.51l.51-.52c.51-.51,1-1,1.54-1v.51l.51-.51h.51l2.05-1.54h.51l1-.51,1.54-1c0-.52,0-.52.51-.52s.51,0,.51.52v-.52l1-1a1.88,1.88,0,0,0,1.54-.51l.51-.52h.51c0-1,1-1.53,2.57-1.53l1.53-1,.51-.51.52-.51a6.26,6.26,0,0,0,4.61-2,3.92,3.92,0,0,0,2.56-1h.51l.51-.52c0-.51.51-.51,1-.51s1,0,1-.51.51-.51,1-.51l.51-.52h.51c0-.51.51-.51,1-.51a1.88,1.88,0,0,0,1.54-.51l2-1,1-.52c.52,0,.52,0,.52-.51A8,8,0,0,1,436,82.41h-.51c.51-.51,1-.51,2.05-.51-.51-.51,0-1,1-1.53a1.87,1.87,0,0,1,1.54-.52c.51,0,.51,0,1-.51l4.1-1.53,3.07-1.54a1.9,1.9,0,0,1,1.54-.51c.51,0,.51,0,.51-.52h1l.51-.51,4.61-1,4.1-1,.51-.51v-.51a1.9,1.9,0,0,0,1.54-.51c-1,0-1.54,0-2.05.51s-1,.51-2.56.51H456l-2.05,1v-.52l-5.64,1.54h-1l-1,.51-5.13,2-1,.51a1.87,1.87,0,0,0-1.54.52l-1.53.51-1,.51c.51,0,.51,0,.51-.51l2.56-1.54a4,4,0,0,1,2.57-1l2.56-1.54,2-.51h.51l12.8-3.59,3.08-1.53,1-.52v-.51h-1.54l.52-1,1-.52h-.51a1.87,1.87,0,0,1-1.54.52h-1.54c0-.52,0-.52-.51-.52l-.51-.51-.51-.51c-.51,0-.51,0,0-.51.51,0,.51,0,.51-.51v-.52l-1-.51h-.52v-1h.52c.51-.52,0-.52-.52-.52s-.51,0-.51-.51l.51-.51c.52-.51.52-.51,1,0,.51,0,0-.51-.51-1-.52.51-.52.51-.52,0-.51,0-.51,0-.51-.52v-1l1-1H456v-.52l-.52-1v-.51h-6.65l-1,.51h-1.53l-2,.51h-1.54c-.51.51-.51.51-.51,0-.51,0-.51,0-.51-.51h2.56l-.52-.51,3.59-1h1.54l1-.51,1-.51.52-.51c-.52.51,0,.51.51.51l.51-.51h-1Zm-105,216.65h-.52l.52-.51Zm0-8.19c-.52-.51-.52-.51,0-.51Zm0-14.85v-2.05q.76,1.53,0,1.53Zm0,.51v0Zm.51-51.22v0Zm0,39.44v0Zm0,9.22c.51.51.51.51,0,.51Zm.51-80.93v0Zm0,3.07v0Zm0,27.15h0Zm1-44.56h0Zm-.52,53.27v0Zm0,89.63v0Zm.52-149v0Zm0,15.37c.51.51.51.51,0,1Zm.51,42c-.51.51-.51.51-.51,0Zm-.51,168v0Zm0,31.76v0ZM349,135.68v0Zm0,27.15v0Zm0,224.85h0Zm1-268.39v0Zm0,7.69v0Zm0,10.75v0Zm0,76.32v0Zm.51,147.51c-.51-.51-.51-.51,0-.51Zm0-253V108c.52.52.52.52,0,1Zm.52,4.09v-.51l.51.51Zm0,8.2v0Zm6.66,34.32c-.52.51-.52,2.56,0,5.63-.52,0-.52.51-.52,1v5.12l-.51,6.14v10.25a1.87,1.87,0,0,0-.51,1.53l.51,1.54c-.51.51-.51.51,0,.51V190l-.51,6.14v9.73c0,.52,0,1-.51.52v.51c-.52,0-.52,0-.52.51a1.9,1.9,0,0,0-.51-1.54V199.2h-1v9.73h.51c0,.51,0,.51.51.51,0,.51,0,.51.51,0-.51,0-.51.51,0,1v-1.53h.52V212l-1,1.54v0a1.89,1.89,0,0,1,.51-1.54v3.59l-.51.51c-.51.51-.51.51-.51,0v2.56a1.88,1.88,0,0,1-.51-1.54v6.15l-.51,5.12v13.32c0,2.56,0,4.1-.52,4.61v1a1.87,1.87,0,0,1-.51-1.53l-.51-.52V196.12c.51-.51.51-1.53.51-3.58V174.61c-.51-.51-.51-.51,0-.51.51-.51.51-.51,0-1s-.51-.51,0-1V168h.51c-.51-.51-.51-1,0-1v-2.05c-.51-1.54-.51-2,0-2V153.1a2.26,2.26,0,0,0,0-2.56c0-1.54,0-2,.52-2.56v-5.64c0-2.05,0-3.07.51-3.58V136.2l-.51-.52c.51-.51.51-2.56.51-7.17l.51-.51v-3.07l.51-.51v-7.69c.51-.51.51-2.56.51-6.14v-.52l.52-1V106a45.4,45.4,0,0,0,1.53-10.76c0-1,0-1.54.52-2l.51-2.56V87.54c.51,0,.51,0,.51-.52a1.9,1.9,0,0,0,1.54-.51L363.29,85l2-1,2.56-1.54A3.9,3.9,0,0,0,370,81.9c.51-.51,1-.51,1.53-1l1-.51,1-.52a1.9,1.9,0,0,1,1.54-.51h1l1-.51.51-.51h1a1.87,1.87,0,0,1,1.53-.51l5.64-2c.51-.52,1-.52,2-.52h-.51c0,.52-1,1-2.56,1.54h-.51l-.51.51h-.52c0,.52,0,.52.52.52a1.85,1.85,0,0,0,1.53-.52l1-.51-2,1.54-2.56,1.53.51-.51a1,1,0,0,1,1.54,0h1l.51-.51h1.54l2.56-1.54H391l.51-.51-2.56,1.54h-.51l-2.05,1h-.51c-.52,0-1,0-1,.51l-1,.52L380.7,81.9a1.87,1.87,0,0,1-1.53.51c-1.54,1.54-2.56,2-4.1,2l-2.05,1L372,86l-5.64,2.56-2.05,1-1,1h-.51v2a1.86,1.86,0,0,0-.52,1.54c0,1.53,0,2-.51,2.56v2.56c-.51.51-.51,1-.51,2.56l-.51,2.56v4.61c-.51,0-.51,0-.51.51v4.1l-.52,1v2.56l-.51,1v5.63l-.51,4.61v5.12a1.88,1.88,0,0,1-.51,1.54v2.05l-.51,4.61v13.32ZM352,250.93c.51.51.51.51,0,1l.51-1H352l.51-.51Zm.51-158.27v-.51l.52-.52v.52Zm0,3.58v2.05c.52-.51.52-2.05.52-3.58Zm0,31.76v0Zm.52-34.32.51-.51Zm0,102.44.51-.51v2Zm0,59.93v0Zm1-76.32v-1l-.51-1c-.51.52-.51,1,0,1Zm-.51,3.08h.51v1Zm0,5.63c.51.51.51.51,0,1Zm0,1c.51.52.51.52,0,.52Zm0,14.35h.51v.51h-.51Zm0,16.39v0Zm0,1.53v0Zm0,38.93v0Zm.51-85v0Zm.51,4.1h-.51c.51,0,.51,0,.51-.51Zm-.51,146.49v0Zm1-183.88v-.51c.52.51.52,1,0,1Zm0,66.08v-1c.52,0,.52,0,.52.51Zm.52-69.66c.51-.52.51-.52.51,0Zm0,61.46v0Zm.51,7.68-.51,1v-2.05c0,.51,0,.51.51.51Zm-.51,1.54v0Zm.51-72.22c-.51,0-.51,0,0-.51Zm0,43.54v.51a1,1,0,0,1,0-1.54Zm0,1v0Zm.51,28.17h0Zm0-66.58v0Zm0,1.53v0Zm.51,4.61v3.08c-.51,0-.51,0-.51-.52v-2.56c0-.51,0-1,.51-.51Zm0,5.12-.51.52v-.52Zm-.51,33.81v0Zm0,2.56v0Zm.51-43a1,1,0,0,1,0-1.54Zm0-7.17v0Zm0,0v0Zm13.32,96.8H370l.51.51-.51-.51c0,.51,0,.51.51.51l2.56,2c0,.51,0,.51.51.51h.52a1.85,1.85,0,0,0,1.53.52c0,.51,0,.51.51.51h.52c.51,0,.51,0,.51.51h1l.52.51h1v-.51h2.56c.51,0,1,0,1-.51h1.54v.51c0-.51,0-.51.51,0,.52-.51.52-.51.52,0v.51h.51v-.51c-.51,0-.51,0-.51-.51h1.53v-.51h.51v-.52c.52.52.52.52.52,0h.51l.51-.51h.51c.52,0,.52,0,.52-.51H391v-.51h1.53v-.51H394v-.52h.51l.52-.51h.51l.51.51-.51-.51.51-.51h.51l.51-.51h1.54c.51,0,.51,0,.51-.52h1l.51-.51v.51h.51l-.51-.51h.51v.51h.51v-1h1v0c.51,0,.51,0,.51.51.51,0,.51,0,.51-.51h1c0-.51,0-.51.51-.51s1-.51,1.54-1h.51l1-.51.51-.51h1.54V232h.51v.51h.52v0c-.52,0-.52,0-.52.51l1.54-.51v0L413,232h.51l.52-.52,1.53-.51h.52l1-1,1.54-.51h.51a1.86,1.86,0,0,1,1.54-.52l.51-.51a1.87,1.87,0,0,1,1.53-.51l.52-.51,2.56-1.54h.51c0-.51,0-.51.51-.51v-.51c.51,0,.51,0,.51.51v-.51c.52,0,.52,0,.52-.52h.51l.51-.51h.51l1-1,1-.52h.51a1.1,1.1,0,0,0,1-1c.51,0,1.53-.51,3.07-2.05,1-1,1.54-2,1-2.56h.51v-1h.51v-.52l-.51-1v-.51l.51-.51-.51-.52c-.51-.51-.51-.51,0-.51l-.51-1-1-1v-.51c-.51,0-.51,0-.51-.51l-.51-1-.52-1-.51-1-.51-.51-.51-.51v-.51c-.51,0-.51,0-.51-.51h-.52v-1l-.51-1c-.51,0-.51,0-.51-.52v-.51c-.51,0-.51,0-.51-.51v-.51l-.52-.51c-.51,0-.51,0-.51-.52v-.51l-.51-.51-.51-1c0-.51,0-.51-.51-.51a1.1,1.1,0,0,1-1-1h-.51l-.51-.51c0-.52,0-1-.51-1v.51h-.52l-.51-.51v-.51c-.51,0-.51,0-.51-.51h-1l-.51-.51c0,.51,0,.51-.51,0,0,.51,0,.51-.51.51h-.51c0,.51,0,.51-.52.51h-.51l-.51.51h-1.54c-.51,0-.51,0-.51.51h-1.54c-.51.52-.51.52-.51,0h-1v.52h-.52c0,.51,0,.51.52.51-.52,0-.52,0-.52-.51H413v1c0,.51-.51.51-1,.51l-1,.51h-.51v.52c-.51-.52-.51-.52-1,0h-.52c-.51,0-.51,0-.51.51H405.8c-.51.51-1,.51-1,1h-1.54l-1.54.52h-1v.51h-1c-.52-.51-.52-.51-.52,0h-.51l-.51.51h-1.54v.51l-.51-.51c-.51,0-.51,0,0,.51h-1l-.52.51H394c0,.52,0,.52-.51,0v.52H393c-.52,0-.52,0-.52.51-.51-.51-.51-.51-.51,0h-1v.51h-.51c-.52,0-.52,0-.52.51h-.51l-.51.52h-2c-.51,0-.51,0-.51.51h-.51c0,.51,0,.51-.52,0v.51l-.51-.51h-.51v.51c0,.51,0,.51-.51.51h-.52c0,.51,0,.51-.51.51,0,.52,0,.52-.51,0v.52l-.51-.52-.51.52h-1a1.1,1.1,0,0,1-1,1v-.51c-.51,0-.51,0-.51.51v.51c-.52,0-.52,0-.52-.51-.51,0-.51,0-.51.51l-.51.52c-.51-.52-.51-.52-.51,0h-.52v.51c-.51,0-.51,0-.51.51v0q0-.76-1.53,0h-.52L373,210l-.51.51H371v1h-.51V212l-.51.51c0-.51,0-.51.51-.51v-1.54H370V212c0,.51,0,.51-.51.51l-.52.52v.51h-.51v.51c-.51,0-.51,0-.51.51v0h-.51c.51.51.51.51,0,.51s-.52,0-.52.52h-.51l-.51.51h-.51v.51c0,.51,0,.51-.51,0,0,.51-.52,1-1.54,1h0c.51.51.51.51,0,1h-.51l-2,.51v0h-1.54l-1-.51c-.51,0-.51,0,0,.51h-.51l.51.51h1l1,.52h.51c0,.51.51.51,1.53.51h.52v.51l1-.51h1l-.52.51v.51h-1.53l-1.54-.51H359.7v.51h-.51v.51l.51.52v.51c0-.51,0-.51.52-.51.51.51.51.51.51,1h.51l.51,1v.51l.51.51v.51h.52l.51.51.51,1v.51c.51,0,.51,0,.51.51v.52l.52.51v.51h.51l.51,1V232c.51,0,.51,0,.51.51l.51.51.52,1h.51v.51l.51.51.51.51v0l.52.51,2,1,.52.51h-1l-.51-.51v.51c0-.51,0-.51-.51-.51v.51Zm-12.29-98.34v0Zm.51-55.83h0Zm1,134.71h0Zm1-1h-.51v-.51Zm0,1h0Zm.51-1.54v.51h0Zm0,.51v0Zm.51,0v0Zm.51.52h0Zm0,2v-.51c.52,0,.52,0,.52.51Zm1-1.53h0Zm1-2.56v0Zm.52-10.76h0Zm.51,9.73v1l.51-.52v-.51c-.51,0-.51,0,0-.51v-.51c-.51-.51-.51-.51-.51,0s0,.51-.51.51Zm-.51,0v0Zm.51,6.15h.51l-.51.51h-.51Zm.51-6.66h.51c0,.51,0,.51-.51.51Zm1,0h-.51l1-.51h-.52Zm.52,4.61h0Zm.51,26.12v1c-.51,0-.51,0-.51-.52Zm-.51,14.86v0Zm1-55.83v1.53l-.51-.51Zm0,7.68v0c-.51,0-.51,0-.51-.51v-.52l.51-.51.51-.51v1h0V211h-.51Zm-.51,2.56v.51h.51a1.87,1.87,0,0,1-.51-1.53l.51-.52v4.1l-.51-1Zm.51,3.07v.52a1.87,1.87,0,0,1-.51,1.53v-.51l.51-1c0-.52,0-.52-.51-.52Zm-.51,1v0Zm.51,4.09v0h0Zm1-44v2.56q-.78,4.61,0,6.14c.51,0,.51,0,.51.52v1l-.51,1.54v-1.54l-.52.51a1.87,1.87,0,0,0-.51-1.53,1.88,1.88,0,0,1,.51-1.54,1.89,1.89,0,0,0-.51-1.54c.51-.51.51-1,.51-2.56v-4.1Zm-1,10.24v0Zm.51,6.66h0Zm0,1c-.51.51-.51.51-.51,0Zm0,1a1.87,1.87,0,0,0-.51,1.53v-2.05C368.41,197.15,368.41,197.15,368.92,197.15Zm-.51,16.39v0Zm0,7.17v0Zm0,13.32v0Zm0,26.12v0Zm.51-66.59c-.51-.51-.51-.51,0-.51Zm3.59,92.2v-1l.51-6.66v-6.14c0-3.59,0-5.64-.51-6.15v-4.61l.51.51V251.44a1.9,1.9,0,0,1-.51,1.54v1.53c-.51,0-.51,0-.51-.51,0-1.54,0-2.05-.52-2.56v-3.59c0,.52,0,.52-.51,0v-1l-.51-.51.51-1v-.51c0-.51,0-.51.51-.51v.51a2.24,2.24,0,0,0-.51-2.56v-2.05l.51-.51H372l-.52-1.54-.51-.51v-4.1l.51-2L372,233v-3.07l-.52-1c0-.51,0-1,.52-1v-.51a1.88,1.88,0,0,1,.51-1.54v-1c-.51,0-.51-.52-.51-1v-1c-.52,0-.52-.52-.52-1.54v-2.56c0-4.1,0-6.15.52-6.66V168l.51-.51c-.51,0-.51-.51,0-1l-.51-1v-4.61c.51,0,.51,0,.51-.51v-.51c-.51,0-.51,0-.51.51v-2.05l-.52-1v1c0,1.54,0,3.07-.51,3.59l-.51-.52v-.51l-.51.51c.51.52.51.52,0,1v1l.51.51c-.51,0-.51,0-.51.52v2.56l-.51,4.1v2c0,1.54,0,2.56-.52,3.08V171c0-.52,0-.52.52-.52v-2c-.52,0-.52,0-.52-.51a1.85,1.85,0,0,0,.52-1.53v-5.13c0-1.53,0-2-.52-2.56v-3.07c0-.51,0-.51.52-.51l.51-1v-1.53c-.51-.52-.51-1,0-1V147l.51-.51v-.51c-.51,0-.51,0-.51-.51.51-.52.51-1,.51-2V150h1v1.53h1l.51-.51a1.88,1.88,0,0,0,.51-1.54q-.76-.76,0-4.61v-5.63c.52-.51.52-1.54.52-3.07v-4.61c.51-.52.51-1.54.51-3.08v-3.07l.51-4.1v-1.53c.51,0,.51-.52.51-1.54v-5.12l.51-1v-.51c-.51-1-1-1.54-.51-2s.51-1,.51-2V106c.52-.52.52-1,.52-2v-1c.51,0,.51-.51.51-1l.51-.51v-.52c.51,0,.51,0,.51-.51s.52-.51,1-.51l.51-.51h.51l2.05-.51h.51l2.05-1-.51.51-.51.52a1.11,1.11,0,0,1-1,1c-.51,0-1,0-1,.51h-.51c0,.51,0,.51-.52.51h-.51l-1,.52c0,.51,0,.51-.51.51h-.52v1c-.51.52-.51.52,0,1v.51l.52-1v-1.54h.51v-.51c.51,0,1,0,1-.52l2.05-.51-.51,1,2-1h.51l2-1h.51l-1.54,1a1.1,1.1,0,0,0-1,1h.51v.51c-.51,0-1,.51-1.54,1a1.85,1.85,0,0,1-1.53.52v.51h-.51v5.63l-.52.51v3.08a1.87,1.87,0,0,1-.51,1.53v1.54l-.51,4.1v4.61l-.51,4.61v1l-.51,2.05-.52,3.59v7.17l-.51,1v14.85c0,1.54,0,2.57-.51,3.08V170l-.51.51V171c.51,0,.51,0,.51.51v2.05l-.51,2v9.74l-.52,3.07v16.9a1.89,1.89,0,0,1-.51,1.54v8.19l.51-.51v.51c-.51,0-.51,0-.51.52v13.83l-.51,11.26v6.66c-.51.51-.51,1-.51,2.56v16.39l-.51,4.61c0,.52,0,.52-.52.52v6.65c-.51,2.05-.51,5.64-.51,11.27v1a1.88,1.88,0,0,0-.51-1.54Zm-3.59-109.1v0Zm.52,35.34v.51l-.52-.51Zm-.52,12.81v0Zm.52,11.78v0Zm.51.51h0ZM370,210c.51-.51.51-.51.51,0S370.46,210.46,370,210Zm0,26.64v0ZM384.8,94.2h-.51v.51a4.68,4.68,0,0,0-2.56,1.53l-2.56,1-1,.51-1,1h-.51l-.52.51h-.51v2.05c-.51.51-.51,1-.51,2l-.51,4.09-.51,1.54v1.54l-.52,1c.52,0,.52.51,0,1v.52c-.51,0-.51,0-.51.51l-.51,3.07c-.51,1.54-.51,2.56,0,3.08,0,1,0,1.53-.51,2V128c-.52.51-.52,2.05-.52,4.1v2.05l-.51,2.56v-.51c0-1,0-1.54-.51-2l.51-1v-3.07a1.89,1.89,0,0,0,.51-1.54V128a1.56,1.56,0,0,1,0-2v-5.12a1.88,1.88,0,0,1,.52-1.54v-2.56c0-1.53,0-2.56.51-3.07V111.1l-1-1V106a1.86,1.86,0,0,1,.52-1.54v3.07c.51,0,1-1.53,1.53-4.09v-1a1.88,1.88,0,0,1,.52-1.54v-2h.51v-.52h1.53c0-.51.52-.51,1.54-1l2.05-1h.51c0-.51,0-.51.51-.51h.52l1.53-1,1-.51h1Zm-14.34,45.58c0-1.54,0-2.05.51-2.05v.51c0,1.54,0,2.57-.51,2Zm0,2.56v-.51c.51.51.51.51,0,1Zm0,9.73.51.52-.51,1Zm0,78.88v0Zm0,6.66H371v.51Zm0,1c0-.52,0-.52.51,0C370.46,238.12,370.46,238.12,370.46,238.64Zm.51,12.8v-1l-.51-.52c.51-.51.51-.51,1,0v.52Zm.51-12.8H371v-.52Zm0,32.78c.52,0,.52,0,.52-.52v1a1,1,0,0,1,0,1.53V275l-.52-1c0,.51,0,.51-.51,0l.51-2.05Zm-.51,16.9v0Zm.51-1c-.51-.51-.51-.51,0-1Zm0-131.12v-.51l.52,1Zm0,69.66v0Zm.52,1h-.52l.52-.51Zm0,.52h0Zm-.52,8.7.52,1c-.52.51-.52.51-.52,0Zm0,4.61v-.51c.52.51.52.51,0,1Zm0,5.13.52.51-.52.51ZM372,103.93v0Zm0,6.66v0Zm.51,110.12v1.53l-.51-.51ZM372,238.64l.51.51Zm.51-30.22V210a1.56,1.56,0,0,1,0-2Zm0,8.19c-.51-.51-.51-.51,0-1Zm0,2v1a1,1,0,0,1,0-1.53Zm0-22.54.51-2.05v2.56Zm0,1.54c.51.51.51.51,0,1Zm0,2.05v-.51l.51.51c0,.51,0,.51-.51.51Zm0,1c.51.51.51.51,0,1Zm0,2.56.51-.51a1.89,1.89,0,0,1-.51,1.54Zm0,7.17v0Zm0,1.54v0Zm0,1v0Zm0,24.58h0Zm1.54,2-1.54-.51H373Zm-1.54,20,.51.51c-.51,0-.51,0-.51.51ZM373,98.29v0Zm.51,78.37h0Zm-.51,5.12v-1h.51c0,1,0,1.53-.51,2.05Zm0,3.07v-.51c0-.51,0-.51.51-.51Zm0,1v-.51l.51.51c-.51,0-.51,0-.51.51Zm0,3.58v0Zm0,2v0Zm0,35.34h.51v1Zm0,3.59h.51v2.05Zm0,3.07v0Zm.51,2.56H373l.51-.51ZM373,248.88v0Zm0-11.27v0Zm.51-61.46c-.51-.52-.51-.52,0-1Zm0,3.58c-.51-.51-.51-.51,0-.51Zm0,54.81c-.51-.51-.51-.51,0-1Zm.52-71.2v1.54l-.52-.51v-1c.52,0,.52,0,.52-.51Zm0,3.59h-.52v-1l.52-.51Zm0,1.53-.52.52v-1Zm-.52,1.54v0Zm0,2.05v0Zm0,2v0Zm0,43h0Zm0,1.54h0Zm0,3.07.52-.51a1.88,1.88,0,0,1-.52,1.54Zm0,2.56v0Zm0,4.61v0Zm0,6.15v0Zm0,2.56h.52v.51Zm.52-23.56v.51c-.52-.51-.52-1,0-1Zm0,2c-.52-.51-.52-.51,0-.51Zm0,3.07c-.52-.51-.52-.51,0-.51Zm0-143.93.51-.51Zm0,75.3v-2c0-.51,0-.51.51-.51v2.56Zm0,4.09v0Zm0,5.64v0Zm.51,41.49-.51-.52h.51Zm-.51.51.51.51-.51,1v-1.54Zm0,7.68h0Zm0,2.56v0Zm0,8.2v0Zm.51-76.32v0Zm0,1v-.52c.51.52.51.52,0,1Zm0,2v0Zm0,47.13v0Zm0,1v0Zm0,0v0Zm0,1v0Zm0,3.59v0Zm32.27,5.12v.51h-.52l-1,.52h-1l-1,.51v.51H401.7l-1,.51h.51l.51.52v-.52l.52.52c-.52,0-.52,0-.52.51v.51h0V210l-.51.51-.51-.51v-.51c-.51,0-.51,0,0,.51,0,.51,0,.51-.51.51v0l-1,.52-.51-.52V210l-.51.51c.51,0,.51,0,0,.52v-.52h-.51l-.52.52v.51a1,1,0,0,1-1.53,0l-.51.51c0,.51,0,.51-.52.51h-1V213c0-.52-.51,0-1,.51H392c-.51,0-.51,0-.51.51H391v.51h-1c-.51,0-.51,0-.51.51h-.51v.52c0,.51,0,.51-.51.51h-.52v0h.52c-.52,0-.52,0-.52.51v.51l1-.51v1H391v-.52h.51v.52h-1v.51h-1v1h-1v-.51l-.52.51v0h-1v.51l-.51-1h1l-.51-1v-1c-.51,0-.51,0-.51-.51s0-.51-.51,0l-.52.51h-1l-.51.51h-1v.52c0,.51,0,.51-.51,0l-.51.51-.51-.51-.52.51c0,.51,0,.51-.51.51h-.51c.51.51.51.51,0,.51-.51-.51-.51,0-.51.51-.51-.51-.51-.51-.51,0h-.52c0-.51,0-.51-.51-.51v.51h-.51v.52c-.51-.52-.51-.52-1,0h-.51c0-.52,0-.52.51-.52v-1l.52.51v-.51h.51l.51-.51c0-.51-.51,0-1,.51h-.52v-.51h-.51c0,.51,0,.51-.51.51l-.51-.51.51-.51v-.52l-.51-.51h.51v-.51l.51-.51,1-1h1c.51,0,.51,0,.51-.51h.52l.51-.51h1.53V213l.52.51.51-.51h.51v-.52h1c.52,0,1-.51,1.54-1h.51l.52-.51h1.53c0-.52,0-.52.51-.52h1c0-.51,0-.51.51-.51h1l.51-.51h.51c.51,0,.51,0,.51-.51h1v-.51h1.53v-.52h1l.51-.51c.51.51.51.51.51,0l2.05-.51.51-.51.52.51h.51c0-.51,0-.51.51-.51l1-.52h.52c0-.51,0-.51.51,0,0-.51.51-.51,1,0h.52c-.52,0-.52,0-.52.52l.52-.52h.51l.51-.51c1-.51,1.54-.51,2,0ZM374.56,210v0Zm.51-135.73h1c0-.51,0-.51.52-.51l-.52.51Zm0,44.05v0Zm0,13.32c0-.52,0-.52.51-.52-.51-.51-.51-.51,0-1v2Zm0,4.61v-2h.51v1.53Zm0,.51v0Zm0,1v0Zm0,1v-.52l.51.52c-.51,0-.51,0-.51.51Zm0,1v0Zm0,1v0Zm0,.51v0Zm.51,30.73-.51.51v-.51Zm-.51,3.58v0Zm0,3.08v0Zm0,7.17v0Zm0,34.83v-.51c0,.51,0,.51.51.51Zm1-124.47h0Zm0,29.2V126a1.56,1.56,0,0,0,0,2v.51a18,18,0,0,1-.51-3.07Zm-.51,3.58v0Zm.51,87.08h0Zm-.51,1.54v0Zm0,3.07v0Zm1-101.93v-2.56l-.52,5.12v.51Zm-.52,32.27v0Zm0,65.56v0Zm0,1.54v0Zm.52-71.71c-.52-.51-.52-.51,0-.51Zm0-72.22h0Zm0,41v-.52l.51-1v1.54Zm0,1v0Zm0,22c.51,0,.51,0,0,.52Zm0,4.1v0Zm0,41v0Zm0,25.61v0ZM378.14,106l-.51,1c.51,0,.51,0,0,.51V108c0,.52,0,.52-.51.52V107a1.9,1.9,0,0,1,.51-1.54c0-.51,0-.51.51-.51Zm-1,3.58h.51l-.51.51Zm0,1c.51.51.51.51,0,.51Zm0,1.53v0Zm0,21.51v0Zm0,.52v0Zm.51,88.61v.51h-.51c0-.51,0-1,.51-1v-.51c.51,0,1-.51,1.54-1h1c.51,0,.51,0,.51-.51l.52.51c.51,0,1,0,1-.51h.51c.51.51.51.51.51,0l1-.52h.51c0-.51,0-.51.51,0v.52h-1.53l.51.51c-.51.51-.51.51-1,0h-1l-.51.51-.51.51.51,1-.51.51v-1h-1.54c0,.52,0,.52-.51.52l-.51-.52v.52h-.52v.51h-.51Zm-.51,17.92v0Zm.51-117.29v-1.54c.51.52.51,1,0,2.05Zm0,2v0Zm0,2v0Zm.51,90.15h.52v.51h-1Zm.52-101.42h-.52c.52,0,.52,0,.52-.51Zm-.52,108.59v0Zm1-7.17h0Zm-.51,167.48h0Zm.51-168h.51v.52h-.51Zm.51,25.1c0,.51,0,.51-.51,0Zm-.51,40v0Zm0,87.08h0Zm1-152.13c-.51.52-.51.52-.51,0Zm-.51,7.17v0Zm0,18.44v0Zm.51,20.49h0Zm-.51,25.61c.51,0,.51,0,.51.51Zm0,25.1v0Zm0,44.56v0Zm0,2.05v0Zm1-258.15c0,.51,0,.51-.51.51Zm-.51,112.68h0Zm.51,1.54h.52c0,.51-.52.51-1,.51Zm-.51,137.27v0Zm.51,2.05h0Zm.52-254h0Zm-.52,1.54h0Zm.52,119.85h0Zm-.52,1c.52.52.52.52,0,.52Zm0,23.05h0Zm1.54-153.66-1,.52v-.52a1.87,1.87,0,0,1,1.53-.51Zm-1,7.17h0Zm.51,56.86v.51l-.51-2.05.51.51v.52h1c0,.51,0,.51-.51.51,0,1,0,1.53-.51,2Zm-.51,48.66v0Zm0,8.19v0Zm0,6.15v0ZM393,229.93h1l.51-1c0,.52,0,.52.52.52v-.52h.51c.51-.51,1-.51,1,0l.51-.51h1c0-.51,0-.51.51-.51s.51,0,.51-.51l1-.52h2.05v1.54h-1c0,.51,0,.51.51.51v.52c.52,0,.52,0,.52-.52h1v-.51c0-1-.51-1.54-1-1.54,0-.51,0-.51.51-.51v.51c.51.52.51.52.51,0h.51c0,.52,0,.52.52.52v.51h.51a1.87,1.87,0,0,1,1.53-.51h1c0-.52,0-.52.51-.52,0-.51,0-.51.51,0h1v.52c.51.51.51.51,0,.51l-1,.51h-1v.51h-.51l-.52.52h-1v.51h-1v.51h-1l-.51.51h-.51c-.52,0-.52,0-.52.51h-1c0,.52,0,.52-.51.52-.51.51-.51.51-.51,0v.51h-.52V233c-.51-.51-.51-.51-.51,0h-1c0,.51,0,.51-.52.51h-.51l-.51.52h-.51v.51H394l-1,1-1,.51v-.51c0,.51,0,.51-.51.51H391l-1.54,1h-1l-.52.51h-.51c0,.51,0,.51-.51.51h-.51v.52h-1l-2.05-.52h-.51l.51-.51h.52l-.52-.51h-.51l.51-.51v-.52h-1c0-.51,0-.51-.51-.51h-.51v-.51h1.53l1-.51V234h1c0-.52,0-.52.51-.52l.52-.51h.51l.51-.51h.51c0-.51,0-.51.51,0,0-.51,0-.51.52,0V232h.51v-.52h1V231h1a1.87,1.87,0,0,0,1.53-.51v-.51Zm-11.78,7.68v-.51h.51v.51Zm0,0v0Zm0,6.15h0Zm0,.51h.51v.51Zm0,15.37v0Zm0,3.58v0Zm1-160.83h-.51l.51-.51Zm-.51,79.9v0Zm0,6.15v0Zm0,28.17v-.51h.51Zm0,9.73v0Zm0,1.54v0Zm.51,9.73h-.51c0-.51,0-.51.51-.51Zm0,5.12h0Zm1-164.92-1,.51c-.51,0-.51,0,0-.51Zm-.51,23.56.51.51h-1Zm-.51,71.19h0Zm.51,10.25-.51-.52Zm0,24.58h0Zm-.51,7.17v0Zm.51,1.54c0,.51,0,.51-.51,0Zm-.51.51v0Zm0,20.49h0Zm.51-143.93v0Zm0,83.49h0Zm0,5.12v0Zm.51,25.61.52.51-.52.52v-1.54h0v.51c0-.51,0-.51.52,0Zm0,8.71c-.51,0-.51,0,0-.51Zm0-144.44c0-.51,0-.51.52-.51Zm0,85h0Zm0,11.78v0Zm.52,6.15-.52,1v-.51Zm0,63-.52-.51Zm-.52,4.61v0Zm.52-91.68V149l.51,1.54Zm.51,1.53h0Zm0,13.32-.51-1c0-.52,0-.52.51-.52Zm-.51,48.66v0Zm0,1.54v0Zm0,0h0Zm.51-77.86v0Zm0,5.12v0Zm.51,52.76h0Zm-.51.51v0Zm0,6.15c0-.51,0-.51.51-.51Zm0,2.56v0Zm0,37.39v0Zm.51.51-.51-.51Zm0-27.14c-.51-.52-.51-.52,0-.52Zm.51-27.66h0Zm0,16.39c-.51,0-.51,0-.51-.51Zm-.51,11.27v0Zm.51,26.63c0,.51,0,.51-.51,0Zm-.51,0v0Zm2.56-145.46h-.51l-1.54,1c0-.51.52-1,1.54-1.54Zm-2.05,23.56h0Zm0,94.75h0Zm0,0v0Zm0,4.61.52-.51v.51Zm.52-44.56c-.52-.51-.52-.51,0-.51Zm1-105-1,.51v-.51Zm-.51,145h-.51c0-.51,0-.51.51-.51Zm.51-107.56h0Zm-.51,4.1v0Zm1,103h-.51l.51-.51ZM386.85,108h0Zm0,134.71h0Zm1-167h.52c0,.51-.52.51-1,.51Zm-.51,20.48h0Zm0,110.13v0Zm0,4.09h0Zm.51,2h-.51V212h.51Zm-.51,1.54h0Zm0,2.56c.51,0,.51,0,.51.51Zm0,1v0Zm1-3.59h0Zm0-12.81h0Zm0,12.3c.51.51.51.51,0,.51Zm0,27.66v0Zm1.53-166c0-.51.52-.51,1-.51l-1.54,1h-.51Zm-1,23.05c.51-.51.51-.51.51,0Zm.51,115.25h0Zm-.51.51v0Zm.51-145c.51,0,1,0,.51.51Zm0,142.9v0Zm0,1,.51.51h-.51Zm.51-143.42h0Zm0,171.59v0Zm0,1v0Zm1-147.51h0ZM391,213c-.51.51-.51.51-.51,0Zm.51-118.83h0Zm0,2.56v.51H391ZM391,212.51h.51V213Zm.51-143.92,1-.52Zm3.07,4.61v.51l-2.56,1h-.51l.51-.51ZM392,212.51l-.51.52v-.52Zm-.51,4.61h0Zm.51,14.34h0Zm0-13.82c-.51-.52-.51-.52,0-.52Zm.51-150.08h0ZM392,210.46v0Zm0,6.15v0c.51,0,1,0,1-.51v-1l.51,1v.51c0,.51,0,.51-.51,0v.51c0-.51,0-.51-.52-.51v.51H392v-.51Zm0,14.85c0-.51,0-.51.51-.51Zm0,8.71v0Zm.51-163.39v0ZM393,210.46h0Zm0,2h-.52c0-.51,0-.51.52-.51ZM392.48,233v0Zm0,6.15v0Zm.52,1.53h0Zm.51-173.63h0Zm-.51.51h0Zm0,142.9V210l.51.51Zm.51,1.54c0,.51,0,.51-.51,0ZM393,230.44h.51V231H393Zm0,0v0Zm.51,2.56h0Zm.51-31.24h0ZM394,212h0Zm-.51,4.61v0Zm0,22v0ZM394,212v-.51c.51,0,.51,0,.51.51Zm0,4.1h0Zm0,13.83v0Zm1-13.83c-.52,0-.52,0-.52-.51Zm-.52,0v0Zm0,23.05c0-.51,0-.51.52,0Zm1-161.86h0Zm5.63,25.61,1-1v.51c.51,0,.51,0,.51.51h-.51l-2.56,1.54a1.9,1.9,0,0,1-1.54.51c0,1-1,1.54-2.56,1.54V107l-.51-.51c.51,0,.51,0,.51-.51h.51v-.52l1-.51h1l.51-.51h0l.51-1,1-.52h.51v-.51h.51Zm-6.14,106.54v0Zm0,6.15v0Zm0,23v0Zm.51-165.44c-.51,0-.51,0,0-.52Zm0,128v0Zm0,8.2v0Zm0,.51v0Zm.51,1c-.51.51-.51.51-.51,0Zm.51-144.44h0Zm0,5.63c0,.51,0,.51-.51.51Zm-.51,136.76c.51.51.51.51,0,.51Zm.51.51h0Zm0,0h0Zm0,1c0,.52,0,.52.51,0Zm0,0v0Zm.51-9.22v0Zm1,13.83h-1l.52-.51Zm-.51-13.31v0Zm0,7.17h0Zm1-8.2h0Zm0,8.2h0Zm-.51,1.53v0Zm0,0v0Zm0,1v0Zm0,3.07h0Zm0,22.54v0ZM398.63,65v0Zm0,143.93c0-.51.51-.51,2.05-1v.52a1.9,1.9,0,0,0-1.54.51Zm0-.51v0Zm0,.51v0Zm0,5.63v0Zm0,16.39v0Zm0-.51v0Zm.51-30.22v0Zm0,9.73h0Zm0,28.17v0Zm2.05-28.68V210c0-.51,0-.51-.51-.51Zm.51,20c0,.51,0,.51-.51.51Zm.52-3.08c0,.51,0,.51-.52.51Zm.51-13.31v.51c0-.51,0-.51-.51-.51Zm-.51,13.31c.51.51.51.51,0,.51Zm0,2.56v0Zm.51-28.68v0Zm0,26.12h0Zm0,0v0Zm.51,7.69-.51-.52Zm0,.51h0Zm1,1h0Zm.51-27.66v-1h.51v1Zm1,1h0Zm-.51,18.44v0Zm1-129.59h0Zm7.17-3.07H414l2.56-1-5.64,3.08c-1.53.51-2.05,0-1.53-.52s1-.51,2.05-.51l1-.51a.5.5,0,0,0,.51-.51ZM409.9,226.34h.51c0,.51,0,.51-.51,0v0Zm0,6.15v0Zm1.54-.51h0ZM412,96.76h0Zm2.05-.52h-.52l.52-.51Zm-.52,97.83v0Zm0,.52v0Zm1,0h0Zm1.54-99.88h0Zm.51-35.86v.52c0-.52,0-.52.51-.52Zm1,34.32h-.51a3.92,3.92,0,0,1,2.56-1Zm3.08-.51,2-1.54,1-.51a1,1,0,0,0-1.54,0l-.51.51c0-.51.51-1,2.05-1.53h-1l-1.53,1-.51.51v.51l-2.57,1.54c-.51,0-.51,0-.51.51h.51l1-.51Zm-2.57,136.76h0Zm.52-35.35v0Zm.51,0v0Zm1-101.41h0Zm.52-2h0Zm.51,1h0Zm.51-4.61h0Zm2.56-28.68-.51.51Zm.51-2.56h0Zm-.51,34.32.51-.51h.52Zm.51-34.32.52-.51v.51Zm2.05,32.78h.51l-1,.51Zm.51,0h-.51l1-.51Zm-.51-.51v0Zm2.05,132.66h0Zm3.59-141.37H433l-2.05,1h.51Zm1.53-21h0c0-.51,0-.51.51-.51Zm1.54,20.49-2.05.51,1-1c.52,0,1,0,1-.51H436l3.07-1h-.51c0,.51,0,.51-.51.51Zm1,147v0Zm1.54-168.51h0Zm0-2.56c.51-.52,2.56-1,6.66-2-1,0-1.54,0-2.05.51a1.88,1.88,0,0,1-1.54.51,1.87,1.87,0,0,0-1.53.51A1.88,1.88,0,0,1,438.07,54.76Zm0,27.14h0Zm4.61-2.05-2.05,1a1.89,1.89,0,0,1,1.54-.51Zm0,1-.51.51v-.51Zm1-3.59c0,.52,0,.52-.51.52,0-.52.51-.52,1-.52Zm-.51,3.08c.51,0,.51,0,0,.51l1-.51c.51,0,.51,0,.51-.52,0,.52,0,.52-.51.52Zm3.59-28.17v.51h-1.54l.51-.51Zm-1,27.65c.52,0,.52,0,.52-.51Zm1-.51h0Zm.51-27.14,1-.52,1-.51.51.51h-.51Zm0,25.61h0Zm2.56-26.64c0-.51,0-.51.51-.51Zm.51,1h0Zm.51,2.56c0,.51,0,.51-.51.51Zm-.51,18.95h0Zm2.56-23.56c0,1-.51,1-1,.51l-1,.51h.52l-.52-.51h1.54l.51-.51v0Zm-2.05,3.07h0Zm1-3.07h0Zm1,2.05h0Zm1,23h0Zm.51-23.56c.51,0,.51,0,0,.52Zm4.61,4.61h0Zm.51,0h0Zm.51,15.37h0Z" style="fill:#2b2b2b"/></svg>