<svg xmlns="http://www.w3.org/2000/svg" viewBox="0 0 476.12 479.32"><title>Artboard 10</title><circle cx="238.06" cy="239.66" r="237.82" style="fill:#2b2b2b"/><path d="M12.29,387.27v0Zm2.57.51v0ZM121.46,52.07H121l.51-.51h1l-.51-.51c1.53,0,2.56,0,3.07-.52l-.51-.51H123c-3.07,0-5.12,0-6.66.51h-2l-.51.52-1.54.51H110.7l-2,.51-2.56.51-1,.52-.51.51H103a1.87,1.87,0,0,0-1.53.51,1.9,1.9,0,0,1-1.54.51H98.4l-1,.52a1.9,1.9,0,0,1-1.54.51l-1,.51c0-.51-.51-.51-1,0l-3.08,1a1.88,1.88,0,0,1-1.54.51c-2,0-3.07.51-3.07,1.54h-.51l-1,.51L81,61.3l-4.61,1.54-1.54.51-2.56,1h-.51c0,.52,0,.52-.51.52h-1l-.51.51a4.68,4.68,0,0,1-3.59,1.54l-2,1-1.54.51a3.86,3.86,0,0,1-2.56,1h.51c-1.53,0-2,.51-2,1h-.51c-.51-.51-.51-.51-1,0a1.88,1.88,0,0,1-1.54.52c-.51,0-1,0-1,.51l-1,.51-2.57,1,1-1v-.51l-1,.51c-.51,0-.51,0-.51.51v.52l-1,.51-1,.51c-.51-.51-.51-.51-.51,0l-.51.51h-.52l-2.05,1-1,.51c-.51,0-.51,0-.51.51h-.52l-.51.52-2.05,1-2,1c-1,0-2.05.51-3.59,1.53h.52a1.86,1.86,0,0,0-1.54.52l-.51.51c-1,0-1.54.51-1.54,1-.51-.51-1,0-2.05.52h.51l-.51.51c-1,0-1.54,0-2.05.51l-.51.51-1,.52v1A1.89,1.89,0,0,1,25.11,88a1.88,1.88,0,0,0-.51,1.54v3.07a1.87,1.87,0,0,0-.52,1.54v2.05l-.51,2c-.51.51-.51,1.54-.51,3.08v1l-.51,2v4.1L22,109v4.1l-.51,1.54v5.64c-.51.51-.51,1-.51,2.56v5.64c-.51.51-.51,1.54-.51,3.59v9.22a1.88,1.88,0,0,0-.52,1.54v.51h-.51l.51.52v13.32a1.89,1.89,0,0,0-.51,1.54c0,3.59,0,5.12-.51,5.64V170c0,1.53,0,2.56-.51,3.07v7.18h-.52v.51c.52,0,.52,0,.52.51v5.64c0,.51,0,.51-.52.51v.51l.52.52v2.05l-.52.51v1c0,.52,0,.52-.51,0v42c-.51,0-.51,0-.51.51v1H16.4c0,.51,0,.51.51.51v4.61c0,.52,0,1-.51,1v-.51l-.52-1v7.69h0v21.53l.52.51-.52.51L16.4,273v6.67l-.52,7.69v16.91c.52.51.52,2.05.52,5.12l-.52,4.1,1,21v15.89h.51a1.87,1.87,0,0,0-.51,1.53l.51,2.57v17.94l.51,5.12v4.1c0,17.94,1,28.19,2.57,30.75v3.08l.51,2.05.51,2.05,1,2.05v2.05l.51,1h.51l.51.52,1,.51,1-1h1.54v.52h1l1.53,1c.52.51,1,.51,1.54-.51h.51l.52.51,1-1h.51c0,.51.52,1,1.54,1l1,.51.51.52H39l.51.51H40v1c.51,0,.51,0,.51-.51,0-1,.52-1.54,1.54-1,0,.51,0,.51.51,0v-1.54l1,.51a1.9,1.9,0,0,1,.51-1.54l.51-1v-1h.52v1a1.1,1.1,0,0,0,1-1v-3.58h-.51v-1l.51-.51v-1h.51l1,2c.51-.51.51-1,.51-2.56l-.51-1,.51-.52c0-1,0-1.53.51-2.05v-1c.52,0,.52-.51.52-1-.52-1-.52-1.53,0-2.05v-4.61a1,1,0,0,1,0-1.54V388.81c-.52-.52-.52-.52,0-1v-7.17a1.88,1.88,0,0,1,.51-1.54v-7.18l.51-4.1c0-1.53,0-2.05-.51-2.56l.51-1v-5.13h.51a1.89,1.89,0,0,1-.51-1.54V355l-.51-.51v-1l.51-.51h.51l-.51-.51c.51-.52.51-.52,0-1-.51,0-.51,0-.51-.51V335.5c-.51-.51-.51-1-.51-2.56v-2.05l.51-.51-.51-1v-.51c.51-.51.51-1.54.51-4.1V303.21c.51-1,.51-3.07.51-6.66V290.4a1.9,1.9,0,0,1,.51-1.54v-3.07l.52-9.74v-12.3c.51-.51.51-.51,0-1v-2.56c.51-.51.51-1,.51-2.05s0-1.54-.51-2.05v-1.54a1.87,1.87,0,0,1,.51-1.53v-1c-.51,0-.51-.51-.51-1,.51-.52.51-1,.51-2.57v-3.59l.51-1.53c0-.52,0-1-.51-1v-3.59c.51-.51.51-1,.51-2.56l-.51-3.59a2.57,2.57,0,0,0,0-3.07v-1.54c.51-.51.51-.51,0-1v-.52c.51-.51.51-1,.51-2.05v-2.05c-.51,0-.51-.51-.51-1a1,1,0,0,0,0-1.54l.51-1v-2.57l-.51-1a1.89,1.89,0,0,0,.51-1.54V189.94l.52-.51c0-1.54,0-2.05.51-2.05v-3.59c-.51-.51-.51-.51,0-1v-8.71c0-1,0-1.54.51-1.54l.51-1V171c-.51,0-.51,0-.51-.51l-.51-1v-3.07c-.51,0-.51,0,0-.52l.51-1v-2.05a3.29,3.29,0,0,1,0-3.08l-.51-.51v-2.05h.51v-2.56l.51-1v-1l-.51-3.59.51-1v-2.57c.52,0,.52,0,.52-.51V143.3c0-1.53,0-2.05-.52-2.56,0-1.54,0-2.05.52-2.56v-.51l.51-1.54a1.89,1.89,0,0,1-.51-1.54V132a1.88,1.88,0,0,1,.51-1.54v-7.18c.51-.51.51-1,.51-2v-4.61a1.88,1.88,0,0,0,.51-1.54c0-.51,0-.51-.51-.51a1.88,1.88,0,0,0,.51-1.54l.52-.51v-4.1h.51v-.51l.51-.51h.51c.52,0,.52,0,.52-.52h.51c.51.52.51.52,1,0v-1l.52-.51h1a1.1,1.1,0,0,1,1-1l2.56-1.54h.51l-2,1.54-1,1-1,.51H61.5v1c.51,0,.51,0,.51-.51l3.08-2.05,1-.51v-.51l.51-.52c.52-.51,1-1,1.54-1v.51l.51-.51h.52l2-1.54h.51l1-.51,1.54-1c0-.51,0-.51.51-.51s.52,0,.52.51V98.2l1-1a1.87,1.87,0,0,0,1.54-.52l.51-.51h.51c0-1,1-1.54,2.57-1.54l1.53-1,.52-.52.51-.51a6.25,6.25,0,0,0,4.61-2,4,4,0,0,0,2.57-1h.51l.51-.52c0-.51.51-.51,1-.51s1,0,1-.51.51-.51,1-.51l.51-.52h.51c0-.51.51-.51,1-.51a1.87,1.87,0,0,0,1.53-.51l2-1,1-.51c.51,0,.51,0,.51-.51a7.89,7.89,0,0,1,3.59-1.54h-.51c.51-.51,1-.51,2-.51-.52-.51,0-1,1-1.54a1.89,1.89,0,0,1,1.54-.51c.51,0,.51,0,1-.51l4.1-1.54,3.08-1.54a1.88,1.88,0,0,1,1.54-.51c.51,0,.51,0,.51-.51h1l.52-.52,4.61-1,4.1-1,.51-.51v-.51a1.88,1.88,0,0,0,1.54-.51c-1,0-1.54,0-2.05.51s-1,.51-2.56.51h-2l-2,1v-.52l-5.64,1.54h-1l-1,.51-5.13,2-1,.52a1.89,1.89,0,0,0-1.54.51l-1.54.51-1,.51c.51,0,.51,0,.51-.51l2.56-1.54a4,4,0,0,1,2.57-1l2.56-1.54,2-.51h.51L129.67,70l3.07-1.54,1-.51v-.51h-1.54l.51-1,1-.51h-.52a1.87,1.87,0,0,1-1.53.51h-1.54c0-.51,0-.51-.51-.51l-.52-.51-.51-.51c-.51,0-.51,0,0-.52.51,0,.51,0,.51-.51v-.51l-1-.51h-.52v-1h.52c.51-.51,0-.51-.52-.51s-.51,0-.51-.51l.51-.52c.52-.51.52-.51,1,0,.51,0,0-.51-.51-1-.52.51-.52.51-.52,0-.51,0-.51,0-.51-.51v-1l1-1h-2v-.52l-.52-1v-.52H118.9l-1,.52h-1.54l-2,.51h-1.54c-.51.51-.51.51-.51,0-.51,0-.51,0-.51-.51h2.56l-.51-.52,3.58-1h1.54l1-.51,1-.52.51-.51c-.51.51,0,.51.52.51l.51-.51h-1ZM16.4,268.87h-.52l.52-.51Zm0-8.2c-.52-.51-.52-.51,0-.51Zm0-14.86v-2.05c.51,1,.51,1.54,0,1.54Zm0,.51v0Zm.51-51.25v0Zm0,39.46v0Zm0,9.23c.51.51.51.51,0,.51Zm.51-81v0Zm0,3.07v0Zm0,27.17h0Zm1-44.59h0Zm-.52,53.3v0Zm0,89.7v0Zm.52-149.15v0Zm0,15.37c.51.52.51.52,0,1Zm.51,42c-.51.51-.51.51-.51,0Zm-.51,168.11v0Zm0,31.78v0ZM19,135.62v0Zm0,27.16v0Zm0,225h0Zm1-268.57v0Zm0,7.69v0Zm0,10.77v0ZM20,214v0Zm.52,147.61c-.52-.51-.52-.51,0-.51Zm0-253.19v-.51c.51.51.51.51,0,1Zm.51,4.1V112l.51.51Zm0,8.2v0Zm6.66,34.34c-.51.51-.51,2.56,0,5.64-.51,0-.51.51-.51,1v5.13L26.65,173v10.25a1.87,1.87,0,0,0-.52,1.54l.52,1.54c-.52.51-.52.51,0,.51v3.07l-.52,6.15v9.74c0,.51,0,1-.51.51v.52c-.51,0-.51,0-.51.51a1.89,1.89,0,0,0-.51-1.54v-6.66h-1v9.74h.51c0,.51,0,.51.52.51,0,.51,0,.51.51,0-.51,0-.51.51,0,1v-1.54h.51V212l-1,1.54v0a1.9,1.9,0,0,1,.51-1.54v3.59l-.51.51c-.52.52-.52.52-.52,0v2.57a1.9,1.9,0,0,1-.51-1.54v6.15l-.51,5.12v13.33c0,2.56,0,4.1-.51,4.61v1a1.87,1.87,0,0,1-.52-1.54l-.51-.51V196.09c.51-.51.51-1.53.51-3.58V174.57c-.51-.51-.51-.51,0-.51.52-.52.52-.52,0-1s-.51-.51,0-1V167.9h.52c-.52-.51-.52-1,0-1v-2c-.52-1.54-.52-2.05,0-2.05V153a2.29,2.29,0,0,0,0-2.56c0-1.54,0-2,.51-2.56v-5.64c0-2.05,0-3.08.51-3.59v-2.56l-.51-.51c.51-.52.51-2.57.51-7.18l.51-.51v-3.08l.52-.51v-7.69c.51-.51.51-2.56.51-6.15V110l.51-1v-3.07a45,45,0,0,0,1.54-10.76c0-1,0-1.54.51-2.06l.51-2.56V87.44c.52,0,.52,0,.52-.52a1.87,1.87,0,0,0,1.53-.51l3.08-1.54,2-1,2.56-1.54a3.89,3.89,0,0,0,2-.51c.51-.51,1-.51,1.54-1l1-.51,1-.51a1.88,1.88,0,0,1,1.54-.51h1l1-.52.51-.51h1a1.9,1.9,0,0,1,1.54-.51l5.64-2c.51-.51,1-.51,2-.51H57.4c0,.51-1,1-2.56,1.53h-.52l-.51.52H53.3c0,.51,0,.51.51.51a1.89,1.89,0,0,0,1.54-.51l1-.52-2,1.54-2.56,1.54.51-.51a1,1,0,0,1,1.54,0h1l.51-.52h1.54l2.56-1.53H61l.51-.52-2.56,1.54h-.52l-2.05,1h-.51c-.51,0-1,0-1,.51l-1,.51L50.73,81.8a1.87,1.87,0,0,1-1.53.51c-1.54,1.54-2.57,2-4.1,2l-2.05,1-1,.51-5.64,2.56-2.05,1-1,1H32.8v2a1.87,1.87,0,0,0-.52,1.54c0,1.54,0,2.05-.51,2.56v2.57c-.51.51-.51,1-.51,2.56l-.51,2.56V109c-.52,0-.52,0-.52.52v4.1l-.51,1v2.56l-.51,1v5.64l-.51,4.61v5.13a1.85,1.85,0,0,1-.52,1.53v2.05l-.51,4.62v13.32ZM22,250.94c.52.51.52.51,0,1l.52-1H22l.52-.52Zm.52-158.38v-.51l.51-.51v.51Zm0,3.59v2c.51-.51.51-2,.51-3.59Zm0,31.78v0Zm.51-34.34.51-.52Zm0,102.5.51-.51v2Zm0,60v0Zm1-76.37v-1l-.51-1c-.51.52-.51,1,0,1Zm-.51,3.08h.51v1Zm0,5.64c.51.51.51.51,0,1Zm0,1c.51.51.51.51,0,.51Zm0,14.35h.51v.51h-.51Zm0,16.4v0Zm0,1.54v0Zm0,39v0Zm.51-85.08v0Zm.52,4.1h-.52c.52,0,.52,0,.52-.51Zm-.52,146.59v0Zm1-184v-.51c.51.51.51,1,0,1Zm0,66.12v-1c.51,0,.51,0,.51.51Zm.51-69.71c.51-.51.51-.51.51,0Zm0,61.5v0Zm.51,7.69-.51,1v-2c0,.51,0,.51.51.51Zm-.51,1.54v0Zm.51-72.27c-.51,0-.51,0,0-.51Zm0,43.57v.51a1,1,0,0,1,0-1.54Zm0,1v0Zm.52,28.19h0Zm0-66.63v0Zm0,1.54v0Zm.51,4.61v3.08c-.51,0-.51,0-.51-.51v-2.57c0-.51,0-1,.51-.51Zm0,5.13-.51.51v-.51Zm-.51,33.83v0Zm0,2.56v0Zm.51-43.05a1,1,0,0,1,0-1.54Zm0-7.18v0Zm0,0v0Zm13.32,96.87H40l.51.51-.51-.51c0,.51,0,.51.51.51l2.57,2c0,.51,0,.51.51.51h.51a1.87,1.87,0,0,0,1.54.52c0,.51,0,.51.51.51h.51c.52,0,.52,0,.52.51h1l.51.51h1v-.51h2.56c.52,0,1,0,1-.51h1.54v.51c0-.51,0-.51.51,0,.51-.51.51-.51.51,0v.51h.51v-.51c-.51,0-.51,0-.51-.51H57.4v-.51h.51v-.52c.51.52.51.52.51,0h.52l.51-.51H60c.51,0,.51,0,.51-.51H61v-.51h1.53v-.52h1.54v-.51h.51l.52-.51h.51l.51.51-.51-.51.51-.51h.51l.52-.52h1.53c.52,0,.52,0,.52-.51h1l.51-.51v.51h.52l-.52-.51h.52v.51h.51v-1h1v0c.52,0,.52,0,.52.51.51,0,.51,0,.51-.51h1c0-.52,0-.52.52-.52s1-.51,1.53-1h.52l1-.51.51-.52h1.54V232H81v.51h.52v0c-.52,0-.52,0-.52.52l1.54-.52v0L83,232h.52l.51-.51,1.54-.51h.51l1-1,1.54-.51h.51a1.9,1.9,0,0,1,1.54-.51l.52-.52a1.87,1.87,0,0,1,1.53-.51l.52-.51,2.56-1.54h.51c0-.51,0-.51.51-.51v-.51c.52,0,.52,0,.52.51v-.51c.51,0,.51,0,.51-.52h.51l.51-.51h.52l1-1,1-.52H102a1.1,1.1,0,0,0,1-1c.52,0,1.54-.51,3.08-2.05,1-1,1.54-2,1-2.56h.52v-1h.51v-.51l-.51-1v-.51l.51-.51-.51-.51c-.52-.52-.52-.52,0-.52l-.52-1-1-1v-.51c-.51,0-.51,0-.51-.51l-.52-1-.51-1-.51-1-.51-.51-.52-.51v-.52c-.51,0-.51,0-.51-.51H102v-1l-.51-1c-.52,0-.52,0-.52-.51v-.51c-.51,0-.51,0-.51-.52v-.51l-.51-.51c-.51,0-.51,0-.51-.51v-.52l-.52-.51-.51-1c0-.52,0-.52-.51-.52a1.11,1.11,0,0,1-1-1h-.51l-.51-.51c0-.52,0-1-.51-1V194h-.52l-.51-.51V193c-.51,0-.51,0-.51-.51h-1l-.51-.52c0,.52,0,.52-.51,0,0,.52,0,.52-.51.52h-.52c0,.51,0,.51-.51.51h-.51l-.52.51H87.64c-.52,0-.52,0-.52.51H85.59c-.52.52-.52.52-.52,0h-1v.52h-.51c0,.51,0,.51.51.51-.51,0-.51,0-.51-.51H83v1c0,.51-.51.51-1,.51l-1,.52h-.51v.51c-.51-.51-.51-.51-1,0h-.52c-.51,0-.51,0-.51.51H75.85c-.51.51-1,.51-1,1H73.29l-1.54.51h-1v.51h-1c-.51-.51-.51-.51-.51,0h-.52l-.51.51H66.62v.52l-.51-.52c-.51,0-.51,0,0,.52h-1l-.52.51h-.51c0,.51,0,.51-.51,0v.51H63c-.52,0-.52,0-.52.51-.51-.51-.51-.51-.51,0H61v.52h-.52c-.51,0-.51,0-.51.51h-.51l-.51.51h-2c-.52,0-.52,0-.52.51h-.51c0,.52,0,.52-.51,0v.52l-.51-.52h-.52v.52c0,.51,0,.51-.51.51H53.3c0,.51,0,.51-.51.51,0,.51,0,.51-.52,0v.51l-.51-.51-.51.51h-1a1.1,1.1,0,0,1-1,1v-.51c-.52,0-.52,0-.52.51v.51c-.51,0-.51,0-.51-.51-.51,0-.51,0-.51.51l-.51.52c-.52-.52-.52-.52-.52,0h-.51v.51c-.51,0-.51,0-.51.51v0c0-.51-.51-.51-1.54,0h-.51l-.51.51-.52.52H41v1h-.52V212l-.51.52c0-.52,0-.52.51-.52v-1.53H40V212c0,.52,0,.52-.51.52L39,213v.51h-.52V214c-.51,0-.51,0-.51.52v0h-.51c.51.51.51.51,0,.51s-.51,0-.51.51h-.52l-.51.51h-.51v.52c0,.51,0,.51-.51,0,0,.51-.52,1-1.54,1h0c.51.51.51.51,0,1H32.8l-2,.51v0H29.21l-1-.51c-.51,0-.51,0,0,.51h-.51l.51.51h1l1,.51h.52c0,.52.51.52,1.53.52h.52v.51l1-.51h1l-.52.51v.51H32.8l-1.54-.51H29.72v.51h-.51v.51l.51.52v.51c0-.51,0-.51.51-.51.52.51.52.51.52,1h.51l.51,1v.51l.51.51v.51h.52l.51.52.51,1v.51c.51,0,.51,0,.51.52v.51l.52.51v.51h.51l.51,1V232c.51,0,.51,0,.51.51l.52.52.51,1h.51v.51l.51.52.52.51v0l.51.51,2,1,.51.51H41l-.52-.51v.51c0-.51,0-.51-.51-.51v.51ZM28.18,139.2v0Zm.52-55.86h0Zm1,134.79h0Zm1-1h-.52v-.51Zm0,1h0Zm.51-1.53v.51h0Zm0,.51v0Zm.51,0v0Zm.51.51h0Zm0,2v-.51c.52,0,.52,0,.52.51Zm1-1.54h0Zm1-2.56v0Zm.52-10.76h0Zm.51,9.74v1l.51-.51v-.51c-.51,0-.51,0,0-.52v-.51c-.51-.51-.51-.51-.51,0s0,.51-.51.51Zm-.51,0v0Zm.51,6.15h.51l-.51.51h-.51Zm.51-6.67h.51c0,.52,0,.52-.51.52Zm1,0h-.52l1-.51H36.9Zm.51,4.62h0Zm.51,26.13v1c-.51,0-.51,0-.51-.51Zm-.51,14.87v0Zm1-55.87v1.54l-.51-.51Zm0,7.69v0c-.51,0-.51,0-.51-.51v-.51l.51-.52.52-.51v1h0V211h-.52ZM37.92,214v.52h.51a1.9,1.9,0,0,1-.51-1.54l.51-.51v4.1l-.51-1Zm.51,3.08v.51a1.89,1.89,0,0,1-.51,1.54v-.51l.51-1c0-.51,0-.51-.51-.51Zm-.51,1v0Zm.51,4.1v0h0Zm1-44.07v2.56q-.76,4.6,0,6.15c.51,0,.51,0,.51.51v1l-.51,1.53v-1.53l-.51.51a1.87,1.87,0,0,0-.52-1.54,1.88,1.88,0,0,1,.52-1.54,1.85,1.85,0,0,0-.52-1.53c.52-.52.52-1,.52-2.57v-4.1Zm-1,10.25v0Zm.52,6.66h0Zm0,1c-.52.52-.52.52-.52,0Zm0,1a1.86,1.86,0,0,0-.52,1.54v-2C38.43,197.12,38.43,197.12,39,197.12Zm-.52,16.4v0Zm0,7.18v0Zm0,13.32v0Zm0,26.14v0ZM39,193.53c-.52-.51-.52-.51,0-.51Zm3.58,92.26v-1l.52-6.66V272c0-3.59,0-5.64-.52-6.15v-4.61l.52.51V251.45a1.88,1.88,0,0,1-.52,1.54v1.53c-.51,0-.51,0-.51-.51,0-1.54,0-2-.51-2.56v-3.59c0,.51,0,.51-.51,0v-1l-.52-.52.52-1v-.52c0-.51,0-.51.51-.51v.51a2.26,2.26,0,0,0-.51-2.56v-2.05l.51-.51H42l-.51-1.54-.51-.51v-4.1l.51-2L42,233v-3.08l-.51-1c0-.52,0-1,.51-1v-.51a1.89,1.89,0,0,1,.51-1.54v-1c-.51,0-.51-.52-.51-1v-1c-.51,0-.51-.52-.51-1.54v-2.56c0-4.1,0-6.15.51-6.67V167.9l.51-.51c-.51,0-.51-.51,0-1l-.51-1v-4.61c.51,0,.51,0,.51-.51v-.52c-.51,0-.51,0-.51.52v-2.05l-.51-1v1c0,1.53,0,3.07-.51,3.58l-.52-.51v-.51l-.51.51c.51.51.51.51,0,1v1l.51.51c-.51,0-.51,0-.51.52v2.56l-.51,4.1V173c0,1.54,0,2.56-.51,3.08V171c0-.51,0-.51.51-.51v-2.05c-.51,0-.51,0-.51-.52a1.87,1.87,0,0,0,.51-1.53v-5.13c0-1.54,0-2.05-.51-2.56V155.6c0-.51,0-.51.51-.51l.51-1v-1.54c-.51-.51-.51-1,0-1v-4.61l.51-.51v-.51c-.51,0-.51,0-.51-.52.51-.51.51-1,.51-2V150h1v1.53h1l.52-.51a1.88,1.88,0,0,0,.51-1.54q-.77-.76,0-4.61V139.2c.51-.51.51-1.53.51-3.07v-4.62c.51-.51.51-1.53.51-3.07v-3.08l.52-4.1v-1.53c.51,0,.51-.52.51-1.54v-5.13l.51-1v-.51c-.51-1-1-1.54-.51-2s.51-1,.51-2v-1.54c.51-.51.51-1,.51-2v-1c.52,0,.52-.51.52-1l.51-.51v-.52c.51,0,.51,0,.51-.51s.51-.51,1-.51l.51-.51h.51l2.05-.52h.52l2.05-1-.52.51-.51.51a1.1,1.1,0,0,1-1,1c-.52,0-1,0-1,.51h-.51c0,.51,0,.51-.52.51h-.51l-1,.52c0,.51,0,.51-.52.51h-.51v1c-.51.52-.51.52,0,1v.51l.51-1v-1.54h.52v-.51c.51,0,1,0,1-.52l2.05-.51-.51,1,2.05-1h.51l2-1h.52l-1.54,1a1.11,1.11,0,0,0-1,1h.52v.51c-.52,0-1,.51-1.54,1a1.87,1.87,0,0,1-1.54.52v.51h-.51v5.64l-.52.51v3.07a1.88,1.88,0,0,1-.51,1.54v1.54l-.51,4.1v4.61l-.51,4.61v1l-.52,2-.51,3.59v7.17l-.51,1v14.86c0,1.54,0,2.56-.51,3.08V170l-.52.51V171c.52,0,.52,0,.52.51v2l-.52,2.05v9.74l-.51,3.08v16.91a1.9,1.9,0,0,1-.51,1.54v8.2l.51-.51v.51c-.51,0-.51,0-.51.51v13.84l-.51,11.27v6.67c-.52.51-.52,1-.52,2.56v16.4l-.51,4.61c0,.52,0,.52-.51.52v6.66c-.51,2-.51,5.64-.51,11.28v1a1.88,1.88,0,0,0-.52-1.54ZM39,176.62v0ZM39.46,212v.52L39,212ZM39,224.8v0Zm.51,11.78v0Zm.51.52h0Zm0-27.17c.51-.51.51-.51.51,0S40.48,210.45,40,209.93Zm0,26.65v0ZM54.84,94.1h-.52v.51a4.75,4.75,0,0,0-2.56,1.54l-2.56,1-1,.51-1,1h-.52l-.51.52h-.51v2c-.51.51-.51,1-.51,2l-.52,4.1L44.07,109v1.54l-.51,1c.51,0,.51.51,0,1v.51c-.51,0-.51,0-.51.52l-.52,3.07c-.51,1.54-.51,2.56,0,3.08,0,1,0,1.53-.51,2v6.15c-.51.51-.51,2-.51,4.1v2.05L41,136.64v-.51c0-1,0-1.54-.52-2l.52-1V130a1.9,1.9,0,0,0,.51-1.54v-.51a1.56,1.56,0,0,1,0-2.05v-5.13a1.9,1.9,0,0,1,.51-1.54v-2.56c0-1.54,0-2.56.51-3.07V111l-1-1v-4.1a1.89,1.89,0,0,1,.51-1.54v3.08c.51,0,1-1.54,1.54-4.1v-1a1.9,1.9,0,0,1,.51-1.54V98.71h.51V98.2h1.54c0-.51.51-.51,1.54-1l2.05-1h.51c0-.51,0-.51.51-.51h.52l1.54-1,1-.51h1ZM40.48,139.72c0-1.54,0-2.05.52-2.05v.51c0,1.54,0,2.56-.52,2Zm0,2.56v-.51c.52.51.52.51,0,1Zm0,9.74.52.51-.52,1Zm0,78.93v0Zm0,6.66H41v.51Zm0,1c0-.51,0-.51.52,0C40.48,238.12,40.48,238.12,40.48,238.63ZM41,251.45v-1l-.52-.51c.52-.51.52-.51,1,0v.51Zm.51-12.82H41v-.51Zm0,32.81c.51,0,.51,0,.51-.52v1a1,1,0,0,1,0,1.54V275l-.51-1c0,.51,0,.51-.51,0l.51-2.05ZM41,288.35v0Zm.51-1c-.51-.52-.51-.52,0-1Zm0-131.21v-.52l.51,1Zm0,69.7v0Zm.51,1h-.51l.51-.52Zm0,.51h0Zm-.51,8.71.51,1c-.51.51-.51.51-.51,0Zm0,4.61v-.51c.51.51.51.51,0,1Zm0,5.13.51.51-.51.52Zm.51-142v0Zm0,6.66v0Zm.51,110.2v1.53l-.51-.51ZM42,238.63l.51.52Zm.51-30.23v1.53a1.56,1.56,0,0,1,0-2.05Zm0,8.2c-.51-.52-.51-.52,0-1Zm0,2.05v1a1,1,0,0,1,0-1.54Zm0-22.56.52-2.05v2.57Zm0,1.54c.52.51.52.51,0,1Zm0,2.05v-.51l.52.51c0,.51,0,.51-.52.51Zm0,1c.52.51.52.51,0,1Zm0,2.56.52-.51a1.85,1.85,0,0,1-.52,1.53Zm0,7.18v0Zm0,1.53v0Zm0,1v0Zm0,24.6h0Zm1.54,2-1.54-.51h.52Zm-1.54,20,.52.51c-.52,0-.52,0-.52.51ZM43.05,98.2v0Zm.51,78.42h0Zm-.51,5.12v-1h.51c0,1,0,1.54-.51,2.05Zm0,3.08v-.51c0-.52,0-.52.51-.52Zm0,1v-.51l.51.51c-.51,0-.51,0-.51.52Zm0,3.59v0Zm0,2v0Zm0,35.37h.51v1Zm0,3.58h.51v2Zm0,3.08v0Zm.51,2.56h-.51l.51-.51Zm-.51,12.82v0Zm0-11.28v0Zm.51-61.5c-.51-.52-.51-.52,0-1Zm0,3.58c-.51-.51-.51-.51,0-.51Zm0,54.84c-.51-.51-.51-.51,0-1Zm.51-71.24v1.54l-.51-.51v-1c.51,0,.51,0,.51-.51Zm0,3.59h-.51v-1l.51-.51Zm0,1.54-.51.51v-1ZM43.56,170v0Zm0,2v0Zm0,2.05v0Zm0,43.05h0Zm0,1.54h0Zm0,3.07.51-.51a1.9,1.9,0,0,1-.51,1.54Zm0,2.56v0Zm0,4.62v0Zm0,6.15v0Zm0,2.56h.51v.51ZM44.07,214v.52c-.51-.52-.51-1,0-1Zm0,2.05c-.51-.51-.51-.51,0-.51Zm0,3.08c-.51-.51-.51-.51,0-.51Zm0-144,.51-.52Zm0,75.34v-2c0-.51,0-.51.51-.51v2.56Zm0,4.1v0Zm0,5.64v0Zm.51,41.51-.51-.51h.51Zm-.51.51.51.52-.51,1v-1.54Zm0,7.69h0Zm0,2.57v0Zm0,8.2v0Zm.51-76.37v0Zm0,1v-.51c.52.51.52.51,0,1Zm0,2.05v0Zm0,47.16v0Zm0,1v0Zm0,0v0Zm0,1v0Zm0,3.58v0Zm32.29,5.13v.51h-.51l-1,.51h-1l-1,.52v.51H71.75l-1,.51h.52l.51.52v-.52l.51.52c-.51,0-.51,0-.51.51v.51h0v.51l-.51.52-.52-.52v-.51c-.51,0-.51,0,0,.51,0,.52,0,.52-.51.52v0l-1,.51-.52-.51v-.52l-.51.52c.51,0,.51,0,0,.51v-.51h-.51l-.51.51v.51a1,1,0,0,1-1.54,0l-.51.51c0,.52,0,.52-.52.52h-1V213c0-.51-.51,0-1,.51H62c-.51,0-.51,0-.51.51H61v.52H60c-.51,0-.51,0-.51.51h-.51v.51c0,.51,0,.51-.52.51h-.51v0h.51c-.51,0-.51,0-.51.52v.51l1-.51v1H61v-.51h.51v.51h-1v.51h-1v1h-1v-.51l-.51.51v0h-1v.51l-.52-1h1l-.51-1v-1c-.52,0-.52,0-.52-.52s0-.51-.51,0l-.51.52h-1l-.51.51h-1v.51c0,.51,0,.51-.52,0l-.51.51-.51-.51-.52.51c0,.52,0,.52-.51.52h-.51c.51.51.51.51,0,.51-.51-.51-.51,0-.51.51-.52-.51-.52-.51-.52,0h-.51c0-.51,0-.51-.51-.51v.51h-.51v.51c-.52-.51-.52-.51-1,0h-.51c0-.51,0-.51.51-.51v-1l.51.51v-.51h.52l.51-.52c0-.51-.51,0-1,.52h-.51v-.52h-.51c0,.52,0,.52-.51.52l-.52-.52.52-.51v-.51l-.52-.51h.52v-.52l.51-.51,1-1h1c.51,0,.51,0,.51-.52h.51l.52-.51h1.53V213l.52.51.51-.51h.51v-.51h1c.51,0,1-.52,1.54-1h.51l.51-.51H57.4c0-.51,0-.51.51-.51h1c0-.52,0-.52.51-.52h1l.52-.51h.51c.51,0,.51,0,.51-.51h1v-.51h1.53v-.52h1l.51-.51c.51.51.51.51.51,0l2-.51.52-.52.51.52h.51c0-.52,0-.52.51-.52l1-.51h.51c0-.51,0-.51.51,0,0-.51.52-.51,1,0h.51c-.51,0-.51,0-.51.51l.51-.51h.51l.52-.51c1-.51,1.53-.51,2,0Zm-32.29,4.61v0ZM45.1,74.11h1c0-.51,0-.51.51-.51l-.51.51Zm0,44.08v0Zm0,13.32c0-.51,0-.51.51-.51-.51-.51-.51-.51,0-1V132Zm0,4.62v-2h.51v1.54Zm0,.51v0Zm0,1v0Zm0,1v-.51l.51.51c-.51,0-.51,0-.51.51Zm0,1v0Zm0,1v0Zm0,.51v0ZM45.61,172l-.51.51V172Zm-.51,3.58v0Zm0,3.08v0Zm0,7.17v0Zm0,34.86v-.52c0,.52,0,.52.51.52Zm1-124.55h0Zm0,29.21v.52a1.56,1.56,0,0,0,0,2.05v.51a18.19,18.19,0,0,1-.51-3.08ZM45.61,129v0Zm.51,87.13h0Zm-.51,1.54v0Zm0,3.08v0Zm1-102v-2.56l-.51,5.12v.52ZM46.12,151v0Zm0,65.61v0Zm0,1.53v0Zm.51-71.75c-.51-.51-.51-.51,0-.51Zm0-72.27h0Zm0,41v-.51l.52-1v1.53Zm0,1v0Zm0,22c.52,0,.52,0,0,.51Zm0,4.1v0Zm0,41v0Zm0,25.63v0Zm1.54-103-.51,1c.51,0,.51,0,0,.52v.51c0,.51,0,.51-.51.51v-1.54a1.87,1.87,0,0,1,.51-1.53c0-.52,0-.52.51-.52Zm-1,3.59h.51l-.51.51Zm0,1c.51.51.51.51,0,.51Zm0,1.54v0Zm0,21.53v0Zm0,.51v0Zm.51,88.67v.51h-.51c0-.51,0-1,.51-1v-.51c.51,0,1-.51,1.54-1h1c.51,0,.51,0,.51-.52l.52.52c.51,0,1,0,1-.52h.52c.51.52.51.52.51,0l1-.51h.52c0-.51,0-.51.51,0v.51H53.81l.51.52c-.51.51-.51.51-1,0h-1l-.51.51-.51.51.51,1-.51.51v-1H49.71c0,.52,0,.52-.51.52l-.52-.52v.52h-.51v.51h-.51Zm-.51,17.93v0Zm.51-117.37v-1.53c.51.51.51,1,0,2Zm0,2v0Zm0,2v0Zm.51,90.21h.51v.51h-1Zm.51-101.48h-.51c.51,0,.51,0,.51-.51ZM48.17,224.8v0Zm1-7.18h0Zm-.52,167.6h0Zm.52-168.11h.51v.51H49.2Zm.51,25.11c0,.51,0,.51-.51,0Zm-.51,40v0Zm0,87.13h0Zm1-152.22c-.51.51-.51.51-.51,0Zm-.51,7.17v0Zm0,18.45v0Zm.51,20.51h0Zm-.51,25.62c.51,0,.51,0,.51.52Zm0,25.12v0Zm0,44.59v0Zm0,2.05v0Zm1-258.32c0,.51,0,.51-.51.51Zm-.51,112.76h0Zm.51,1.54h.52c0,.51-.52.51-1,.51ZM50.22,354v0Zm.51,2.05h0Zm.52-254.21h0Zm-.52,1.54h0Zm.52,119.93h0Zm-.52,1c.52.52.52.52,0,.52Zm0,23.07h0ZM52.27,93.59l-1,.51v-.51a1.86,1.86,0,0,1,1.54-.52Zm-1,7.17h0Zm.51,56.89v.52l-.51-2,.51.51v.51h1c0,.51,0,.51-.52.51,0,1,0,1.54-.51,2Zm-.51,48.69v0Zm0,8.21v0Zm0,6.15v0ZM63,229.92h1l.51-1c0,.51,0,.51.52.51v-.51h.51c.51-.52,1-.52,1,0l.52-.52h1c0-.51,0-.51.51-.51s.52,0,.52-.51l1-.51h2.05v1.53h-1c0,.52,0,.52.51.52v.51c.51,0,.51,0,.51-.51h1v-.52c0-1-.52-1.53-1-1.53,0-.52,0-.52.51-.52v.52c.52.51.52.51.52,0h.51c0,.51,0,.51.51.51v.51h.51a1.9,1.9,0,0,1,1.54-.51h1c0-.51,0-.51.51-.51,0-.52,0-.52.51,0h1v.51c.51.51.51.51,0,.51l-1,.51h-1v.52h-.52l-.51.51h-1v.51h-1v.51h-1l-.52.52h-.51c-.51,0-.51,0-.51.51h-1c0,.51,0,.51-.51.51-.51.51-.51.51-.51,0v.51h-.51V233c-.52-.52-.52-.52-.52,0h-1c0,.51,0,.51-.51.51h-.52l-.51.51H65.6v.51H64.06l-1,1-1,.51v-.51c0,.51,0,.51-.51.51H61l-1.54,1h-1l-.51.51H57.4c0,.51,0,.51-.51.51h-.52v.51h-1l-2.05-.51h-.51l.51-.51h.51l-.51-.51h-.51l.51-.52v-.51h-1c0-.51,0-.51-.51-.51h-.51v-.51h1.54l1-.52V234h1c0-.51,0-.51.51-.51l.51-.51h.51l.52-.52h.51c0-.51,0-.51.51,0,0-.51,0-.51.51,0V232h.52v-.51h1V231h1a1.85,1.85,0,0,0,1.53-.52v-.51Zm-11.79,7.69v-.51h.51v.51Zm0,0v0Zm0,6.15h0Zm0,.51h.51v.51Zm0,15.38v0Zm0,3.59v0Zm1-160.94h-.51l.51-.51Zm-.51,80v0Zm0,6.15v0Zm0,28.19v-.52h.51Zm0,9.73v0Zm0,1.54v0Zm.51,9.74h-.51c0-.51,0-.51.51-.51Zm0,5.12h0Zm1-165-1,.51c-.51,0-.51,0,0-.51Zm-.51,23.58.51.51h-1Zm-.52,71.24h0Zm.52,10.25-.52-.51Zm0,24.6h0Zm-.52,7.18v0Zm.52,1.53c0,.52,0,.52-.52,0Zm-.52.52v0Zm0,20.5h0Zm.52-144v0Zm0,83.55h0Zm0,5.12v0Zm.51,25.63.51.51-.51.52v-1.54h0v.51c0-.51,0-.51.51,0Zm0,8.71c-.51,0-.51,0,0-.51Zm0-144.53c0-.51,0-.51.51-.51Zm0,85.08h0Zm0,11.79v0Zm.51,6.15-.51,1v-.51Zm0,63-.51-.51Zm-.51,4.61v0Zm.51-91.74v-1.54l.51,1.54Zm.51,1.54h0Zm0,13.32-.51-1c0-.52,0-.52.51-.52ZM53.81,214v0Zm0,1.54v0Zm0,0h0Zm.51-77.9v0Zm0,5.12v0Zm.52,52.79h0Zm-.52.51v0Zm0,6.15c0-.51,0-.51.52-.51Zm0,2.57v0Zm0,37.41v0Zm.52.51-.52-.51Zm0-27.16c-.52-.51-.52-.51,0-.51Zm.51-27.68h0Zm0,16.4c-.51,0-.51,0-.51-.51Zm-.51,11.28v0Zm.51,26.65c0,.51,0,.51-.51,0Zm-.51,0v0ZM57.4,96.66h-.51l-1.54,1c0-.51.51-1,1.54-1.54Zm-2,23.58h0Zm0,94.82h0Zm0,0v0Zm0,4.61.51-.51v.51Zm.51-44.59c-.51-.51-.51-.51,0-.51ZM56.89,70l-1,.51V70Zm-.52,145.05h-.51c0-.51,0-.51.51-.51Zm.52-107.63h0Zm-.52,4.1v0Zm1,103h-.51l.51-.52Zm-.51-106.61h0Zm0,134.79h0Zm1-167.08h.51c0,.51-.51.51-1,.51Zm-.51,20.5h0Zm0,110.19v0Zm0,4.11h0Zm.51,2.05H57.4V212h.51ZM57.4,214h0Zm0,2.57c.51,0,.51,0,.51.51Zm0,1v0Zm1-3.59h0Zm0-12.81h0Zm0,12.3c.52.51.52.51,0,.51Zm0,27.68v0ZM60,75.14c0-.52.51-.52,1-.52l-1.54,1h-.51Zm-1,23.06c.51-.51.51-.51.51,0Zm.51,115.32h0Zm-.51.51v0Zm.51-145c.51,0,1,0,.51.51Zm0,143v0Zm0,1,.51.51h-.51ZM60,69.5h0Zm0,171.7v0Zm0,1v0ZM61,94.61h0ZM61,213c-.52.51-.52.51-.52,0ZM61.5,94.1h0Zm0,2.56v.52H61ZM61,212.5h.51V213Zm.51-144,1-.51Zm3.07,4.62v.51l-2.56,1H61.5l.51-.51ZM62,212.5l-.51.51v-.51Zm-.51,4.61h0ZM62,231.46h0Zm0-13.84c-.51-.51-.51-.51,0-.51Zm.51-150.17h0Zm-.51,143v0Zm0,6.15v0c.51,0,1,0,1-.52v-1l.51,1v.52c0,.51,0,.51-.51,0v.51c0-.51,0-.51-.52-.51v.51H62v-.51Zm0,14.86c0-.51,0-.51.51-.51Zm0,8.71v0Zm.51-163.5v0ZM63,210.45h0Zm0,2.05h-.52c0-.52,0-.52.52-.52ZM62.52,233v0Zm0,6.15v0Zm.52,1.53h0Zm.51-173.74h0Zm-.51.51h0Zm0,143v-.52l.51.52Zm.51,1.53c0,.52,0,.52-.51,0ZM63,230.43h.51V231H63Zm0,0v0Zm.51,2.57h0Zm.51-31.27h0Zm0,10.25h0Zm-.51,4.62v0Zm0,22v0ZM64.06,212v-.51c.51,0,.51,0,.51.51Zm0,4.1h0Zm0,13.84v0Zm1-13.84c-.52,0-.52,0-.52-.51Zm-.52,0v0Zm0,23.07c0-.52,0-.52.52,0Zm1-162h0Zm5.64,25.62,1-1v.51c.51,0,.51,0,.51.51h-.51l-2.56,1.54a1.89,1.89,0,0,1-1.54.51c0,1-1,1.54-2.56,1.54v.51l-.51-.51c.51,0,.51,0,.51-.51h.51v-.51l1-.52h1l.51-.51h0l.52-1,1-.52h.51v-.51h.52ZM65.09,209.42v0Zm0,6.15v0Zm0,23.06v0ZM65.6,73.09c-.51,0-.51,0,0-.52Zm0,128.13v0Zm0,8.2v0Zm0,.51v0Zm.51,1c-.51.51-.51.51-.51,0Zm.51-144.54h0Zm0,5.64c0,.51,0,.51-.51.51Zm-.51,136.85c.51.51.51.51,0,.51Zm.51.51h0Zm0,0h0Zm0,1c0,.51,0,.51.52,0Zm0,0v0Zm.52-9.23v0Zm1,13.84h-1l.51-.51Zm-.51-13.33v0Zm0,7.18h0Zm1-8.2h0Zm0,8.2h0Zm-.51,1.54v0Zm0,0v0Zm0,1v0Zm0,3.08h0Zm0,22.55v0Zm.51-172.21v0Zm0,144c0-.51.52-.51,2-1v.52a1.87,1.87,0,0,0-1.53.51Zm0-.51v0Zm0,.51v0Zm0,5.64v0Zm0,16.4v0Zm0-.52v0Zm.52-30.24v0Zm0,9.74h0Zm0,28.19v0Zm2-28.7v.51c0-.51,0-.51-.52-.51Zm.51,20c0,.51,0,.51-.51.51Zm.51-3.08c0,.52,0,.52-.51.52ZM72.77,213v.51c0-.51,0-.51-.51-.51Zm-.51,13.32c.51.52.51.52,0,.52Zm0,2.57v0Zm.51-28.71v0Zm0,26.14h0Zm0,0v0Zm.52,7.69-.52-.51Zm0,.51h0Zm1,1h0Zm.51-27.68v-1h.52v1Zm1,1h0Zm-.51,18.45v0Zm1-129.67h0Zm7.18-3.08h.51l2.56-1L81,96.66c-1.53.52-2,0-1.53-.51s1-.51,2-.51l1-.51a.5.5,0,0,0,.51-.52ZM80,226.33h.51c0,.52,0,.52-.51,0v0Zm0,6.15v0Zm1.54-.51h0ZM82,96.66h0Zm2-.51h-.51l.51-.51ZM83.54,194v0Zm0,.52v0Zm1,0h0ZM86.1,94.61h0Zm.51-35.87v.51c0-.51,0-.51.51-.51Zm1,34.33h-.52a4,4,0,0,1,2.57-1Zm3.07-.51L92.76,91l1-.51a1,1,0,0,0-1.54,0l-.51.51c0-.51.51-1,2.05-1.53h-1l-1.53,1-.52.51v.52l-2.56,1.53c-.51,0-.51,0-.51.52h.51l1-.52ZM88.15,229.41h0ZM88.66,194v0Zm.51,0v0Zm1-101.48h0Zm.51-2h0Zm.52,1h0Zm.51-4.62h0Zm2.56-28.7-.51.52Zm.51-2.56h0ZM94.3,90l.51-.51h.52Zm.51-34.34.52-.51v.51Zm2,32.8h.52l-1,.51Zm.52,0h-.52l1-.51ZM96.86,88v0Zm2,132.75h0ZM102.5,79.24H103l-2.05,1h.52Zm1.54-21h0c0-.51,0-.51.51-.51Zm1.54,20.5-2,.52,1-1c.51,0,1,0,1-.51h.51l3.07-1h-.51c0,.52,0,.52-.51.52Zm1,147.1v0ZM108.14,57.2h0Zm0-2.57c.51-.51,2.56-1,6.66-2.05-1,0-1.54,0-2,.52a1.88,1.88,0,0,1-1.54.51,1.87,1.87,0,0,0-1.53.51A1.9,1.9,0,0,1,108.14,54.63Zm0,27.17h0Zm4.61-2-2,1a1.89,1.89,0,0,1,1.54-.51Zm0,1-.51.52v-.52Zm1-3.58c0,.51,0,.51-.52.51,0-.51.52-.51,1-.51Zm-.52,3.07c.52,0,.52,0,0,.51l1-.51c.51,0,.51,0,.51-.51,0,.51,0,.51-.51.51Zm3.59-28.19v.51h-1.54l.52-.51Zm-1,27.68c.51,0,.51,0,.51-.51Zm1-.51h0Zm.51-27.17,1-.51,1-.51.52.51h-.52Zm0,25.63h0Zm2.57-26.65c0-.52,0-.52.51-.52Zm.51,1h0Zm.51,2.56c0,.52,0,.52-.51.52Zm-.51,19h0ZM123,50c0,1-.51,1-1,.51l-1,.52h.51l-.51-.52h1.54L123,50v0Zm-2,3.08h0ZM122,50h0Zm1,2h0Zm1,23.07h0Zm.51-23.58c.51,0,.51,0,0,.51Zm4.61,4.61h0Zm.52,0h0Zm.51,15.38h0Z" style="fill:#f5f5f5"/><path d="M311.61,34.65l-2.05,9.73v3.08h.52l-.52,9.74v9.74l-1,15.37v1.54c0,2.56,0,4.61-.51,5.12a12.4,12.4,0,0,1,0,6.16,7.61,7.61,0,0,0,.51,3.58,21.17,21.17,0,0,1-.51,6.15L307,132l.51,4.61a37.93,37.93,0,0,1-1,6.15V151c.51.51.51,1.54.51,3.08a10.5,10.5,0,0,0,0,5.63l-.51,5.13.51,3.07-.51,10.77-.51,6.15v7.69l-.52,4.1v1.53c.52,1.54.52,6.67.52,15.38-.52,2.56-.52,13.84-.52,33.83V253a5.64,5.64,0,0,0,0,4.1v7.17c0,1.54,0,2.56.52,3.08V273c-.52.52-.52,1.54-.52,3.08,0,1,0,1.54.52,2.05v11.28c0,.51,0,1,.51,1v3.08l-.51-1.54a2.26,2.26,0,0,0,0,2.56v2.05l.51,5.13-.51,4.1c.51.51.51,2.05.51,4.61L306,314v7.68l-.52,7.18,1,4.1L306,335.5v3.59l-.52,8.71c.52.52.52,4.62.52,11.28,0,2.56,0,4.1.51,5.13,0,2.56,0,4.61-.51,5.63,0,1.54,0,2.05.51,2.57.51,2,0,3.58-.51,4.1v1l.51,2.05.51,3.08a21.24,21.24,0,0,1-.51,6.15v1.53a1.56,1.56,0,0,0,0,2.05,1.88,1.88,0,0,0,.51,1.54,1.89,1.89,0,0,1-.51,1.54l-1-1v4.62l.52,3.59v4.1c-.52,2.05-.52,3.58,0,4.1l-1.54-7.18a1.89,1.89,0,0,1-.51,1.54c-.52.51-.52,1,0,2.05l-.52,1,.52,1.54c.51,1,.51,1.54,0,2.05v.51c.51.52.51,1.54.51,3.08l.51,6.15.51,3.59v2.05l-.51.51c0-1,0-1.54-.51-2.05v-1l-.51-1,.51,3.59-.51,1v3.08c-.52.51-.52,1,0,2V437l-.52-.52-1-1,.51,4.61.51,1c-.51-1.54-1-2-1.54-1.54l-.51,3.07v2.05c-.51,0-.51-1-.51-2.56s-.51-2.56-1-2.56v1c-.51,0-.51-.51-.51-1h-.51l-.51-.51-1-1.54c0-.51,0-.51-.51-.51h-.51l-.52-2.06-.51-.51v-1c-.51,0-.51,0-.51.51,0,1.54,0,2-.51,2.56,0,.52-.52,0-1-.51-.51,1-.51,1.54-1,1.54l-1-3.08c-1,.51-1.54.51-1.54-1v-.52l-.51-1.53-.51.51c-.51,0-.51.51-.51,1a2.87,2.87,0,0,0-.52,3.08c0,.51,0,.51-.51,0-1-1-1.54-2-1-2.56l-.52-.52v-1.53a1.9,1.9,0,0,1-.51-1.54,3.29,3.29,0,0,1,0-3.08c-1-5.63-2-9.73-2.56-12.3a3.08,3.08,0,0,0,.51-2.05c-.51-1-.51-1.53-1-2.05l-.52-1.53.52-4.62c-.52-.51-.52-1.53-.52-3.58l-.51-4.11c0-1,0-1.53-.51-2.05l.51-1v-3.08c-.51-.51-1-2.56-1-5.63l-.52-4.1v-4.1a4.36,4.36,0,0,1,0-3.59c-.51-.51-.51-2.56-.51-5.64v-1c-.51-.52-.51-2.05-.51-4.62v-4.1c-.51-1.54-.51-2.56,0-3.07v-1c-.51-.51-.51-2.05-.51-3.59v-8.71c-.52-.51-.52-1.54-.52-3.59V301.68a17,17,0,0,1,0-7.18l-.51-7.69a10.07,10.07,0,0,1,.51-4.1,19.33,19.33,0,0,0-.51-5.64c0-5.63,0-9.22.51-10.25V261.7h-.51c0-3.59,0-5.64.51-7.18-.51-.51-.51-2.05-.51-5.12v-4.1l.51-1v-1.54l-.51-1c0-2.56,0-4.1-.51-4.61l.51-1c0-4.61,0-6.66-.51-7.17l1-7.69a19.33,19.33,0,0,1-.51-5.64v-6.66c0-4.62,0-7.69.51-9.74v-.51l-1.53,7.68-3.08,15.38c-.51,1.54-.51,2.05-1,2.56l-2.05,12.3-1,5.13L267,253a1.87,1.87,0,0,1-.51,1.53l-.51,1v2.05l-.51,1.54a1.85,1.85,0,0,0-.52,1.53c0,1,0,1.54-.51,2.05a1.88,1.88,0,0,0,.51,1.54l-.51,1-1,4.1v1c-.51.51-.51.51,0,.51v1a25.59,25.59,0,0,0-1.53,8.2l-.52.51a3.92,3.92,0,0,0-1,2.56l-.51,2.06v1l-.52,3.08-.51,3.07.51,2.05-1,1a6.63,6.63,0,0,0-1,4.1c0,3.58-.51,5.63-1,6.15v1.53c0,1.54,0,2.05-.51,2.57s-.52,1-.52,2.05v.51l-32.29-.51v-1c-.51-.51-.51-1-.51-2l.51-.51-.51-1-.51-1.53.51.51v-1c0-3.58,0-6.15-.51-6.66l-.51-1v-.52l-.52-.51h.52c-.52-.51-.52-1.54-.52-4.1v-1a2.58,2.58,0,0,1,0-3.08c-.51,0-.51,0-.51-.51l-.51-1v-1.53c0-1,0-1.54-.51-1.54v-1l-1-10.25-.51-5.12c0-1.54,0-3.08-.51-3.59l-1-10.76-2.56-17.94v-4.62a2.29,2.29,0,0,1,0-2.56c0-1.54,0-2.05-.51-2.56l-1-7.69-1-7.69c-.52-.51-.52-1-.52-2.05v-1.54l-1.53-9.73c.51-.52,0-2.05-.52-4.62v-.51l.52-4.1c-.52,1.54-1,3.08-.52,4.1-.51-.51-.51-1-.51-2.56a1.89,1.89,0,0,0,.51-1.54l-1,2.05c0,3.08,0,5.13-.51,6.15l-1,6.15v3.08c0,1.53-.51,5.12-1,10.76,0,3.59,0,5.13-.52,5.64v2l-1,9.74-.51,6.15-.52,3.07c-1.53,13.84-2.56,22-2.56,25.12l-.51,4.61-.51-1V273a12.37,12.37,0,0,1,0,6.15c-.52,2.57-1,4.1-.52,5.13,0,2.56-.51,4.61-1,5.13l-1,11.27-.51,3.08c-.51,1-.51,2.56-.51,5.12v1.54c0,1,0,1.54-.51,2.05a89.93,89.93,0,0,0-1,9.74v8.2c-.51,4.61-1,7.17-2,8.71l-.51,4.1-.51.51.51,3.08-.51,4.1-1,7.17c0,2.57-.51,4.11-1,4.62l.52,5.12c0,.52,0,.52-.52.52v5.12a1.89,1.89,0,0,0-.51,1.54c0,1,0,1.54-.51,2v3.07c-.51.52-.51,1-.51,2.05v1.54c0,2.56,0,4.1-.52,4.61v4.62c0,1.53,0,2-.51,2.56l-.51,3.59v3.07H185l-.52,1V396c.52-.51.52-1,.52-2.56-.52,0-.52.51-.52,1v-4.61l-.51,2.05v-2.56l.51-.51v-4.1l-.51-.52,1-4.61v-8.71c.51-.51.51-1,1-2.56l-.51-4.62c0-.51,0-.51-.51-.51a13.41,13.41,0,0,0,1.53-5.64v-2.05l-.51,1v2.56l-1,4.1-1,11.28-.51,4.1a1.56,1.56,0,0,0,0,2.05c0,1,0,1.53-.51,2.05,0,1.53-.52,4.1-1,7.68,0,1.54,0,2.05-.51,2.57l-.51,3.07v1.54l-.52-.51c0,.51,0,.51-.51,0l-1,.51-.52,3.08v1l-.51-.51v-1l-.51-1.54-.51-1-.52-.51v1l-.51,1v2.05l-.51,1V400.6a7.67,7.67,0,0,0,.51-3.59,3.88,3.88,0,0,1-.51-2.57l-.51.52-.52,2.05-.51-.52.51-1h-.51l.51-1c0-.51,0-.51-.51-.51l-.51.51-.51,1V397l-.52-1.54V395l-.51-1-.51-2.05v2.05c-.51-.51-.51,0-1,1v.51h-.51c-.51.51-.51,2-.51,4.61v1l-.51,1.54v.51c-.52-.51-.52-.51,0-1v-1l-.52-.51v.51c-.51.51-.51,1.54-.51,3.59l-.51-1,.51-2.05c-.51,0-.51-.51-.51-1.54l.51-6.15-.51-3.59c0-1,0-1.53.51-2l-.51-1,1-13.84,2.05-19c0-4.1,0-6.67.52-7.69v-4.1l.51-1,.51-8.2v-1a39,39,0,0,1,1-7.69v-12.3l-1,9.74-.51,9.74-1,8.71-.51,6.66c-.51,12.3-1.54,19-2.56,20v5.64l-1,8.2v7.69l-.51,4.1-.51,1.53v-4.1l-.51-1,.51-1.54c0-8.2,0-13.32.51-14.86l1-6.66v-4.62c.51-.51.51-1.54.51-3.59v-1c.51,0,.51-.51.51-1a2.29,2.29,0,0,1,0-2.56v-8.71a44.32,44.32,0,0,1,1-5.64v-5.64l1.53-14.35v-2.05c-.51-1.54,0-3.59.52-6.15,0-1,0-1.54.51-2a1.9,1.9,0,0,0-.51-1.54v-2.56l-.52-1c.52-3.59,1-5.64,1-6.67l.51-5.63a10.07,10.07,0,0,0,.51-4.1c0-1.54,0-2.57-.51-3.08l1-5.64V272c0-1.54,0-2.05.51-2.56v-7.18l1-1v-1.54c0-2.56.52-7.18,1-13.33v-3.59c.51-.51.51-2,.51-4.61l.51-5.12v-3.59l.52-4.61c.51-.52.51-3.59.51-8.2a4.37,4.37,0,0,0,1-3.08c-.51-.51-.51-1.54-.51-3.59,1-1.53,1-3.07.51-3.59v-1c.52-2,.52-3.08,0-3.08l.52-1,.51-3.59c0-1,0-1.54-.51-2,.51,0,.51-.51,1-2.05v-6.66c.51-.51.51-1.54.51-3.08s0-2-.51-2.56v-.51h.51v-3.08l.52-6.15c-.52-1,0-2.56.51-4.61v-.51c0-4.62,0-7.69.51-8.72v-1l.51-2,.52,1v-1c-.52-.51-.52-1-.52-2.56l.52-4.1v-5.64c0-4.61,0-7.69.51-9.23v-4.61l.51-2c.51,0,.51,1.54,0,5.12a1,1,0,0,0,0,1.54v1.54c.51,0,.51,0,.51.51l-.51,1,.51-.51V130l1-8.72v-7.17c0-1.54.51-4.1,1-7.69v-1.54l.52-2c0-1,0-1.53.51-1.53V98.2a10,10,0,0,1,.51-4.1c.51-1,.51-3.08.51-5.64a12.55,12.55,0,0,1,0-6.15c.52-.51.52-2,.52-4.61a20.41,20.41,0,0,1,1-3.08l-.51-6.15,1-6.15a1.87,1.87,0,0,1,.51-1.53V55.66l.51-3.59,29.21-1.54v.52a1.85,1.85,0,0,0,.52,1.53v1.54h.51l-.51.51.51-.51v2.05l.51,3.08v1L224,67.45l.51,3.59c.51.51.51,1,.51,2.56l-1,2.56.51,1,1,6.66L227,93.07v4.62l.52,1v.52l1.54,8.2-.52,1.53a89.16,89.16,0,0,1,1.54,12.82v.51a28.26,28.26,0,0,1,1.54,8.71l.51,3.08v2.56a6.56,6.56,0,0,0,1,4.1c0,2,0,3.08.51,3.59l1,7.17v4.1c-.51.52-.51.52,0,1a1.88,1.88,0,0,0,.52,1.54c0,4.1.51,7.17,1.53,8.71l1,7.69v1c0,2,0,3.59.51,4.62v2.56l.51,2c.52.51.52,1,.52,2.05,0,1.54,0,2-.52,2.56l.52,1.54c-.52.51,0,1.54.51,3.07.51,1,.51,3.08.51,5.64l1,7.69c0,3.08,0,5.13.51,6.15v2l1-2a1.88,1.88,0,0,1,.52-1.54v-2c-.52-.51,0-2.05,1-4.61v-1c0-.51.51-1.53,1-3.58l.51-2.05c-.51.51-.51.51-.51,0l.51-.52c0-1.53,0-2.56.51-3.07.51-1,.51-2.56.51-4.61a6,6,0,0,1,1-3.59l.51-3.08v.52c.51-.52.51-1.54.51-3.59,0-1.54,0-3.08.52-3.59s1-2.56,1-6.15l.51-1v-.52c0-.51.52-1,1-1.54v-2.56c.51,0,.51,0,.51-.51l-.51.51a1.88,1.88,0,0,0,.51-1.54l.51-1v-.51c0-1,0-1.54.52-2.05v-4.1l2.56-10.25a3.88,3.88,0,0,0,.51-2.57,1,1,0,0,1,0-1.53l1-5.13,1.53-8.2c.52-2,1-3.08,1-3.59a6,6,0,0,1,1-3.59c0-.51,0-1,.52-1l.51-1.54v-2l.51-1v-2.57c.51-.51.51-1.53.51-3.07a3.88,3.88,0,0,0,1-2.56l-.51-1a6.27,6.27,0,0,0,1.54-4.61l.51-.51h-.51v-.52L267,93.07c.52-.51.52-1.53.52-3.07a1.89,1.89,0,0,1,.51-1.54V89l1-2.56V85.9l1-4.61c.51-.52.51-2.05.51-5.13,0-.51.51-1,1-1.54a42.21,42.21,0,0,0,1.53-9.22v-1c1.54-8.71,3.08-13.32,3.59-13.32l-.51-.52L277.79,48h-.52l-.51.51c.51-.51,1-2,1.54-4.61,0-3.59.51-5.64,1-5.64V35.67ZM165,395v0Zm0,1v0Zm1-337.24v0ZM166.57,336l-.52,1Zm.51-.52c0,.52,0,.52-.51.52Zm1-12.3c-.51,1-.51,3.08-.51,5.64l-.51-2.56.51-4.1v-.52Zm-.51,15.89c-.51.51-.51.51-.51,0Zm0-19,.51-.52Zm.51,2.05,1-7.69v4.61Zm1.54,6.66v0Zm.51-20,.52-.51Zm1-11.79v0Zm1-35.36c0-.51,0-1,.52-1Zm0,0v0Zm1-13.84-.51,1Zm0,7.69v-5.13l-.51,3.08Zm.51,49.71,1-10.25-.52,1v2.56l-.51,3.08-.51,10.25v2.56a1,1,0,0,0,0,1.54Zm.51-57.91-.51,1,.51-7.17-1,6.66v-2.05c0-4.1,0-7.18.51-8.71v-2l.51-4.62.52-2.05c.51-.51.51-1,.51-2v.52c0,1,0,1.53-.51,2.05v9.73l-.52,7.18Zm-.51,7.17c0,.52,0,.52-.51,0Zm0-6.15v0Zm1.54-20.5c0,2.56,0,4.61-.51,5.64V233C174.77,230.43,174.77,228.9,175.28,227.87Zm0,56.38-.51,6.15,1-3.07v-.52Zm2.05-76.88v5.13l-.51,2.05-1,6.15-.51,2.05,3.07-27.68c0,1.54-.51,4.61-1,9.22Zm-2.05,20.5c0-1,0-1.54.51-1-.51,0-.51,0-.51.51Zm1-17.42c0,.51,0,.51-.51,0v-1Zm.52-14.36.51.52Zm2.05,209.63c-.52,0-.52,0-.52.51C178.35,405.72,178.35,405.72,178.87,405.72Zm-.52,1v0Zm0,0v0Zm1.54-244.48v4.61c0-.51-.51-.51-1,0v-1a26.58,26.58,0,0,1,1-5.63v-5.13l.51-2.56V151c0-4.61,0-7.17.52-7.69l.51-2.56v-2.05l.51,1.54c.51.51.51,1-.51,2.05v1c0,2,0,3.08-.51,3.59v3.59l-.52,1h.52v8.2l-.52.52v-.52ZM183,147.92c0,.51,0,.51-.52,0Zm1-1.54c-.51-.51-.51-2-.51-4.61.51-.52.51-1,.51-2.57v-.51c-.51,1.54-.51,4.1-.51,8.71Zm1-38.44-1,1.54Zm-.52,7.69c0,.51,0,.51.52.51v.51c-.52,0-.52,1-.52,3.08L184,122.8c0-2.56,0-4.61.51-5.12ZM184,395v0Zm1-281.38v1c-.52,0-.52,0-.52.51Zm-.52,1.53v0ZM185,386.24v.52a1.86,1.86,0,0,0-.52-1.54Zm.51,0v-1a26,26,0,0,1,1-4.61l-.51-3.08v4.1c-.51,1.54-1,2.56-.51,2.56v.52a1.87,1.87,0,0,0-.51,1.53Zm0,8.2v-1A1.88,1.88,0,0,0,185,395Zm0-3.58v0Zm0,0v0Zm1-16.92.52-2.05v-1c-.52,0-.52,0-.52.51Zm1.54-15.89c0-1.53,0-2.56.51-3.07,0-1.54,0-2.56.52-3.08-.52-.51-.52-1-.52-2.56l.52-1.54-.52,1V354l-1,2.05v3.08c0,1.54,0,2.56-.51,3.08v6.66c0-3.08,0-5.13.51-6.15S188.09,360.1,188.09,358.05Zm-.51-17.42v-.51c-.51.51-.51.51,0,1Zm1.54-12.81-.52,2.56Zm.51-247v0Zm2.56-7.68v0Zm0,70.73v0Zm.52-31.78v9.22l1-13.32.51-1,.52-10.25.51,5.13c0-2.05,0-3.08.51-3.59-.51,0-.51-1.54,0-5.13-.51-1-.51-3.58-.51-8.2l-.51-4.61c-.52,2.56-.52,3.59,0,3.59v.51c-.52,0-.52-.51-.52-1v1a125.47,125.47,0,0,1-1.53,15.38v7.17l.51-3.07.51,1v2.57l-1,1.53V112Zm1,20c-.51,0-.51.51-.51,1v1C193.22,133.05,193.22,132.54,193.73,132Zm2.56-76.37c-1.53,0-2,0-2.56.51h2.56c0,2.57-.51,7.18-1,13.33v1l1,5.13,1,5.12.51-5.12v3.59c0,1,0,1.53-.51,2.05l1,3.07v-2c0-3.07,0-5.12.52-5.64s.51-1.53.51-2.56a1,1,0,0,1,0-1.54l.51-1.53V65.91c-.51-.51-.51-2-.51-4.61l-1-5.13,1-.51v1a2.29,2.29,0,0,0,0,2.56v.51l.51-2V55.66h0v-1h1V53.1l5.63-.52L203,53.1v1h1v-1h1v1h.51v-1l2.56.51V53.1h.51v1a1.88,1.88,0,0,0,1.54-.51l.51-1H200.39l12.3-.51-15.88.51a1,1,0,0,0,0,1.54C196.81,55.15,196.81,55.66,196.29,55.66Zm-2.56,39,.51-.51Zm.51,27.68.52-.51v-.52c-.52.52-1,3.59-1,8.2V130c0-2.57,0-4.62.51-5.13Zm0-37.42.52-.51v.51Zm0,8.2h.52c0,.52,0,1-.52,1Zm0,6.16c0-2.57,0-4.1.52-4.62Zm.52-14.36v0Zm0,32.81,1.53-12.82v.52c.52,0,.52,0,0-.52l.52-6.15V97.18l-.52-3.08-.51,1a2.29,2.29,0,0,0,0,2.56v2c0,1.54,0,2.05-.51,2.56s-.51,1-.51,2.56v12.82Zm.51-28.19v0Zm.51,217.82.51-2.05Zm2.56-251.65v.51h-2.05v-.51Zm-1,68.17.51-5.13v-1a3.88,3.88,0,0,1,.51-2.57v-5.63c0-1.54,0-2-.51-2.57v4.62l-1.54,13.32.52.51Zm-1,181.43v0Zm1.54-250.63c.51,0,1,.52,1.54,1h-1c-.51,0-.51,0-.51-.51Zm.51,18.46v.51a1.88,1.88,0,0,0-.51,1.54Zm-.51,2v0Zm0,33.82.51,1h-.51Zm.51-36.9v0Zm0,0v0Zm.52,43.57v3.07l-.52,3.08,1-5.13v-1Zm-.52,163c.52-.51.52-2.05.52-4.1a1.87,1.87,0,0,1-.52,1.54Zm1-217.31a1.88,1.88,0,0,0-.51,1.54A1.88,1.88,0,0,1,199.37,61.3Zm0-5.64h0Zm.51,31.26-.51,4.62v1c0,1.54,0,2.57.51,3.08l.51-6.15V89l.52-3.58,1-6.15c-.51,0-.51,0-.51-.52l-.51-3.58a30.34,30.34,0,0,1-1,7.17Zm-.51,35.88v0Zm.51-68.17V52.58h0l.51,1Zm1,84.06v0Zm3.07-83h0Zm-1.54,28.7v0Zm0,92.26v.51c.52,0,.52,0,.52-.51ZM204,164.83c0,2,0,3.59-.51,4.61V173c0-2.05,0-3.59.51-4.61l.51-2.57v-4.61C204,161.75,204,162.78,204,164.83Zm0,20v3.59a18.39,18.39,0,0,0,.51-3.08,20.84,20.84,0,0,1,.52-6.15v-2.05l-.52.51v3.08a1.27,1.27,0,0,0-.51,2.05ZM206.54,53.1h0ZM205,171v4.61l.51-2.05v-5.12l-.51,1V171Zm0,44.59v0Zm2.56-55.35v-1.54c1-6.66,1.54-11.79,2.05-15.38v-1.53l-1-9.74c-.51-.52-.51-2.57-.51-5.13l-1,12.3-1,7.69.51,4.61V151l.52-3.07,1.53-7.18a10,10,0,0,0-.51,4.1c0,2.56,0,4.1-.51,5.13s-.51,3.07-.51,6.15a43,43,0,0,1,1-6.67l.51-1-.51,1,.51,2.05c-.51.52-.51,1.54-.51,3.08l-.51,4.61ZM206,181.74c.51-.51.51-.51,0-1Zm.51,32.29a1,1,0,0,1,0-1.53Zm3.59-161.45h0Zm-2,149.15-1,1.54Zm0-57.4a1.89,1.89,0,0,0,.51-1.54v4.61Zm0,51.25.51-1.54Zm0,6.66.51-.51c0-.51,0-.51.52,0Zm.51-62v0Zm.52-85.6h0ZM224,293.48c.51.51.51,1,.51,2.56l.51,3.07a1.86,1.86,0,0,0,.52,1.54c0,2.05,0,3.08.51,3.59V302.7l.51-3.07-1-3.08,1,2.56v-1l1-7.69h.51l-.51-2-.52-7.18-2.56-20c0-1.54,0-2.57-.51-3.08l-.51-2.56v-3.08l-.52-4.61-1-4.61.51-3.59c-1.54-9.74-2.56-15.89-2.56-19-.51-.52-1-3.08-1-7.69l-1-6.15a22.74,22.74,0,0,1-1-5.13v-3.07c-.51-.52-.51-1-.51-2.57s0-2.05-.51-2.56l-2.05-16.4c-.51-8.2-1-11.79-1-11.28l-.51-3.58-.51-2.57v1l-.51,2.56v3.08l-.52,2V171l-.51,2.05-.51.51v2.57l.51,3.07c0,2,0,3.08.51,3.59v1.54a37.7,37.7,0,0,1,1,9.22c0,.51.51,2.56,1,5.13l1,9.22.51,8.2a40.62,40.62,0,0,1,1,7.18l2.56,18.45v.51l1,5.64c0,1,.52,3.08,1,6.66a21.24,21.24,0,0,1,.51,6.15c-.51,1.54-.51,3.08,0,3.59v.51a7.65,7.65,0,0,1,.51,3.59,3.29,3.29,0,0,0,0,3.08,45.87,45.87,0,0,1,1.54,12.81l.51,1.54.52,5.12.51.52ZM210.13,180.72c-.51-.51-.51-.51-.51,0S209.62,181.23,210.13,180.72Zm9.23-126.6h-3.08l-.51-2.56-3.08.51-1,.51.51,1h1v1h0l-.52,1c.52,0,.52,0,.52-.51v-.52h2l-.52,1.54c-.51,5.64-1,9.23-1,11.28l.51,2,.51,3.59,1,7.17a26.55,26.55,0,0,0,1,5.64V81.8l-.51-4.61.51,4.1.52,1c0-1.54,0-2.56-.52-3.07v-.52L218.33,68v-.51c-.51-1-.51-2.56-.51-5.13a10.07,10.07,0,0,0-.51-4.1c-.52-2-1-3.07-1-3.59Zm-6.67,118.4a21.36,21.36,0,0,1-1-7.18Zm-1,7.69v0Zm0,0c.51,0,.51.51.51,1.53Zm.51-23.07v0Zm.51-105.07h.52v.51c0,.52,0,1,.51,1h-.51V53.1Zm2.57,45.11-2-18.46V75.14l-.52,1v3.08L214.23,90c.51,1.54.51,4.61.51,8.2.52.51.52,1.54.52,3.08l.51-1-.51-1Zm-.52,92.76-2.05-17.42a99.31,99.31,0,0,1,2.05,16.4Zm-1-136.33a1.88,1.88,0,0,0,1.54.51l-2,.51Zm1,134.8-.51.51v1a1.87,1.87,0,0,1-.51-1.53l.51-.52ZM214.23,61.3v0Zm.51,4.1.52,1Zm0,70.22v0Zm1.54-81c-.51,0-1,0-1-.51h1Zm-1,11.79v0Zm1,6.15c0,.52,0,.52-.51,0s-.51-1.53-.51-3.07l.51,1C215.77,71.55,215.77,72.06,216.28,72.57Zm-1,61,.51-2.57-.51,1Zm0,58.94a1.87,1.87,0,0,1,.51,1.53Zm0,66.11v0Zm1-61c-.51-.51-.51-1.54-.51-3.59C215.77,195.58,215.77,197.12,216.28,197.63Zm0-122c-.51,0-.51-.51,0-1Zm0,124,.51,1v1.53l1,10.26V213c-.51-.51-.51-1-.51-2.56l-1-8.21a1,1,0,0,1,0-1.53Zm0-125.06v0Zm.51,38.44v1l.52,4.1a1.88,1.88,0,0,1,.51,1.54,26.08,26.08,0,0,0,1,6.66v.51c-.51-1-.51-2.56-.51-4.61a10,10,0,0,0-.51-4.1c-.51-2-.51-3.08,0-3.59l-1-6.15Zm1-28.19-.51-1a1.9,1.9,0,0,0,.51,1.54Zm5.64,23.07V106.4l-.52-3.59c-.51-.51-.51-2-.51-3.58l-2.05-15.38a1.56,1.56,0,0,1,0-2V80.26l-.51-2.05v2.05l-.51,3.08c0,2.56,0,3.58-.52,4.1v1c0,2.05,0,3.08-.51,3.59l-.51-5.64.51,7.18v5.12l.51,2.05-.51,2.57a45,45,0,0,0,1.54,10.76v2.56l.51,1c0,1.53,0,2,.51,2.56v4.61l.52,1,.51,1.53v1c-.51,1-.51,1.54,0,2.05l1,7.69c0,.51,0,.51.52.51v2.56a1,1,0,0,0,0,1.54c.51,3.59,1,5.13,1,5.64,0,2,0,3.59.51,4.1.52,5.64,1,9.22,1,11.79v4.1c1.54,4.1,2,8.71,2,14.35l2.56,14.86v1c.52,2.56.52,3.58,0,3.58v3.59l-.51-.51v.51l-1-5.64-.52.52a38.28,38.28,0,0,1-1-6.15V193l-1-6.15c0-2.56,0-4.61-.51-5.64l-.51-2.56a1.9,1.9,0,0,0,.51,1.54v5.63l.51,4.1V193c.51,0,.51,1,.51,3.07.52,3.59,1,5.64,1,7.18l.51,1v4.11c0,2.56,0,3.58.52,4.1l.51,1.53v2.05c.51,1.54.51,2.57,0,2v2.05c0,2.57,0,4.1.51,4.62s.51,2,.51,3.58v2.05l2.05,9.23v2.05a1,1,0,0,0,0,1.54v1h.52v4.62l1.53,5.12v1c-.51.51-.51.51,0,1V253.5l-.51-4.1.51-1a1.87,1.87,0,0,1-.51-1.53,6.68,6.68,0,0,0-1-4.11l.51-1c0-1.54,0-2.05-.51-2.05v-1l-.52-1.53.52,1v1h.51a69,69,0,0,0-1-9.74v-3.08a1,1,0,0,1,0-1.53l.52.51.51,3.07v1.54c0,2.05,0,3.59.51,4.61l.51-1,.52,1-1,1.54v2.05a1.89,1.89,0,0,1,.51,1.54c0,1,0,1.54.52,2.05l-.52.51v.51l.52-1c0,2.56,0,3.59.51,4.1v2.05l.51-2.56c.51-.52.51-1,.51-2.05v1c.52.51.52,1,.52,2v2.05c0,.52,0,.52.51.52,0-2.57,0-3.59-.51-4.11l-.52-1.53,1-3.08,1-6.15-.51-3.07v-2.57c0-2.56,0-4.1-.51-4.61-.51,0-.51,0-.51-.51v-6.15l-1-5.64c0-1.54-1.54-11.79-4.1-30.24a45.07,45.07,0,0,0-1-8.2,15.59,15.59,0,0,1-.52-5.13v-2.05l-1-4.61c.51-1,0-2.56-.51-5.12v-2.05l-.52-2-1-11.79A69.85,69.85,0,0,0,226,130,92.3,92.3,0,0,0,224,114.09c0-2.56,0-4.1-.51-4.61A1,1,0,0,1,223.46,107.94Zm-2.05,6.15q-.78-1.55-3.08-21.53v-.51l1.54,11.28Zm-1.54,19-1-5.64v.52Zm-1,88.16v0Zm1-86.11-.51,1,.51,1.54a4.34,4.34,0,0,0,1,3.07v1a2.29,2.29,0,0,0,0,2.56l.52,4.1.51,7.17v-9.22l-1-6.15-1-6.66Zm.51-42v0Zm.51-41.51.52,1.54v-.52Zm0,34.34v0Zm0,19c.52,0,.52,0,.52.52Zm.52,1v0Zm1,5.12v.52l-1-5.64Zm.51,15.38-1.53-8.2v-3.08l1.53,10.25v1Zm-1-60.48v0Zm1,49.2v0Zm0,1v0Zm0,14.35v0Zm.52,33.83c0,1.53,0,2.05.51,2.56h.51a11.63,11.63,0,0,1-.51-3.59l-.51-1V159.7c-.52,0-.52,1-.52,2.57C223.46,162.78,223.46,163.29,223.46,164.32Zm0-43.06v0Zm.51,16.41h-.51v-5.13l.51,5.64Zm.51,1.53c-.51,0-.51-.51-.51-1Zm.51,36.39v-1l-.51.51c0,.51,0,1,.51,1Zm1-26.65a2.29,2.29,0,0,0,0,2.56V153c-.51-.51-.51-2-.51-5.64a1.85,1.85,0,0,1-.52-1.53l.52,1C226,147.4,226,147.92,226,148.94Zm-1,140.44.52,1Zm.52,1v0Zm1,16.91c-.51.52-.51,2.05-.51,4.1l26.14,1,.51-5.13h-3.59l-.51,3.59v.51l-18.45-.51v-4.1h-.51v-1a1.9,1.9,0,0,1-.51-1.54c0-.51,0-.51-.52-.51l.52,1,.51,2.05c-.51-.51-1.54-.51-3.08-.51Zm0-160.93.51.51h-.51Zm0,11.27v0Zm0,131.21v0ZM227,162.27a1,1,0,0,0,0-1.54c.52,0,.52,0,.52.51v2Zm0,140.43v0Zm.52-136.33.51,1.53Zm0,135.82v0Zm.51-131.72v0Zm.51-10.77v0Zm.52,6.15v-.51c-.52-.51-.52-.51,0-.51Zm.51,13.84c.51,1,.51,1.54,0,2.05v-2.05l-.51-1Zm0,3.59c.51.51.51,1.54.51,4.1Zm0,26.14v0Zm0,0c.51.51.51,1.54.51,3.59C229.61,212.5,229.61,211.47,229.61,209.42Zm0,97.38v0Zm1-132.74-.51,1.53v-.51Zm0,16.91c-.51,0-.51,0-.51-.51s0-.52.51,0Zm1-4.1c0-1,0-1.54-.51-2.05Zm-.51,8.71v0Zm1,3.59v2.05l-.51.51.51-1a3.88,3.88,0,0,0-.51-2.57v-.51a1.88,1.88,0,0,1-.51-1.54v1Zm3.08,107.63c-2.05,0-3.59,0-4.1.51l2.56.52v.51l.51-.51h1Zm-3.08-86.1c-.51,0-.51,0-.51-.52Zm0-14.87c.51.51,1,3.08,1,6.67Zm0,15.89v0Zm1-8.71.51,3.07c-.51-.51-.51-1.53-.51-3.58Zm.51,94.3c0,.52,0,.52.51.52Zm2-73.29-1.54-13.84v-.51l.51,1.54,1.54,13.32c0,2.05,0,3.08.51,3.59v1.54c0-.51,0-1-.51-1Zm-1.54,70.73h.51v-1.54Zm1.54-64.07v.52h-.51v.51Zm0,55.36v0Zm1-52.79v0Zm1,33.31c-.51-.51-.51-1-1-1a22.78,22.78,0,0,0,1,5.12v-4.1Zm-1,13.84c.52-2.56,1-4.61,1-5.12Zm.52,16.91v0Zm.51-54.32c.51.51.51,1,.51,2.56l.51,1c-.51-.51-.51-2-.51-4.1l-.51-1.53V253Zm1-57.41h0Zm.52,64.07v2.56l-1,4.1a32.37,32.37,0,0,0,1.54,7.69l.51,4.1c0-2.56,0-4.1.51-4.61V272c.52-.51.52-1.54.52-3.08,0-1,0-1.53.51-2.05l.51-1-.51-1v-.51l.51-.51v-2.56c0-1.54,0-2.57-.51-3.08l-1-5.12-1,8.2-.51.51Zm-.52,17.94v0Zm1-15.89-.51,2.56V261.7Zm0,33.31h-.51v2.05c.51,0,.51,0,.51-.51V295Zm0-29.72a1.88,1.88,0,0,1,.51-1.54Zm0,3.58V265.8a3.09,3.09,0,0,1,.51,2.05,3.89,3.89,0,0,0-.51,2Zm.51-69.19v0Zm.51,22.55V220.7l-.51-2c.51.51.51,2,.51,4.1Zm-.51,46.64a25.86,25.86,0,0,0,1-6.15l1-1-.51,1-.51,4.1v1l-1,1.54v-.52Zm.51,4.62-.51-2.05.51.51Zm0,14.35-.51,1Zm0-1.54v-2.05l.52-.51v-.52c-.52,0-.52,0-.52.52Zm.52,22.55v-.51h0c0,.51,0,.51-.52.51Zm0-26.14v0Zm0,24.09v0Zm1-19.47-.51-3.08c0,2.05,0,3.59.51,4.1Zm0-13.33v0Zm.51-17.43v0Zm1-12.3-.51.51.51,1Zm0,40-.51-.51c0,1,0,1.54.51,2.05Zm4.1,23.06H245v-1l-.51-2.56-.51-1c0,2.05,0,3.59.51,4.1v.51l-1-.51v1l1.53.51Zm1-98.4C247,219.67,246,225.31,246,226.85l-1,4.61-.51,3.07.51,3.59-.51,3.08-.51,1.53h.51l.51-1v-2.56l.52,1a1.89,1.89,0,0,0,.51,1.54l-.51,1,.51,1.54v.51l.51,1c0,1,0,1.54.51,1.54l-.51-4.1v-1l1.54-9.22,1.54-7.69.51-2.05.51-2c.51-.51.51-2.05.51-3.59l1-5.12c0-1.54,0-2.05.51-2.57l1-6.15,2.05-8.71,1-4.1c0-1.54,0-2.05.51-2.56v-1c.52-2.56,1-4.1.52-4.61,0-.51.51-1,1-1.54v-1l.51-5.64.52-3.08c.51-.51.51-1.53.51-3.07,0-2.57.51-3.59,1-3.59,0-1.54,0-2.05.52-2.56v.51c0-.51,0-.51.51-.51v-1h-.51l.51-1v-.52l.51-1,.51-3.08c.52-.51.52-1.53.52-3.58v-1l1.54-7.17.51-2v2.56l-.51,2.56c.51-.51,1-2.56,1.53-7.17l3.08-12.82-.51-2.56,1.53-5.64v1c0,.51,0,.51.52,0v-1.54a17.76,17.76,0,0,0,1.53-6.15,1.89,1.89,0,0,0-.51-1.54,45.89,45.89,0,0,1,1.54-7.69v1c.51.51.51.51.51,0V102.3a4.63,4.63,0,0,0,1.54-3.59v-2a4.34,4.34,0,0,1,1-3.07v-1l-.51.51c0,.52,0,.52-.51.52v-.52l1-2.56,1-6.66c0-4.1,0-6.66.51-7.69v-1c.51-1,.51-2.57.51-5.13a5.68,5.68,0,0,1,0-4.1v-1a42.21,42.21,0,0,0-1.53,9.22l-.52,1.54v2l-.51,2.56a26.19,26.19,0,0,0-1,4.61,68.56,68.56,0,0,0-2.05,8.72l-2.05,7.69a41.74,41.74,0,0,0-1,6.66l-1,4.61a3,3,0,0,0-.52,2,1.89,1.89,0,0,1-.51,1.54L264,138.69l-3.08,13.84-1,6.15-1.54,6.15-1,6.15c-1.53,5.13-2,8.2-2,9.74a19.22,19.22,0,0,0-1,6.15,17.59,17.59,0,0,0-1.54,6.15l-1.54,5.64c.52,1,.52,1.53,0,2.05v-.52A72.17,72.17,0,0,0,249.08,208.91Zm-4.61,41.51v-1c0,.51,0,.51-.51.51Zm.51,56.89v1l-.51-1Zm0-68.16v0Zm.52,5.63-.52,3.08Zm.51-4.1.51-1Zm0,0c.51-.51.51,0,0,.52Zm.51,2.57-.51,1.53v-.51Zm.51-6.67a1.88,1.88,0,0,1-.51,1.54Zm-.51,1.54v0Zm0,10.77H247v-1Zm2,62.52v0Zm1.54-93.79c.51,1.54,0,3.59-.51,5.64-.52.51-.52.51-.52,0v-.51A15,15,0,0,0,250.11,217.62Zm0,55.87v0Zm.51-64.58.51-1Zm0,1v0Zm0,7.69v0Zm0,64.58.51-1c0,.52,0,.52-.51.52Zm.51,25.63v.51l-.51.51Zm-.51,2.05v0Zm.51-73.81v0Zm23.58-43.56c.51-.52.51-2,0-3.59.51-.51.51-1,.51-2.56,0-1,0-1.54.52-2.05a4.37,4.37,0,0,0,1-3.08v-6.15c0-2.05,0-3.59.51-4.1l-1.53,5.64q-3.08,14.61-3.08,16.91l-.51,1.54v0c-.51,0-.51.51-.51,1v1l-.52,2.56v.51l-1,.52v.51l-2.05,6.66a26.3,26.3,0,0,0-1,4.62v2.05a2.36,2.36,0,0,0-1.53,2.56v3.59H265l.52-.52-.52.52-.51,2.05c.51-.52.51-1,.51-2.05v3.58c0-1,0-2.05.52-2.56s.51-1,.51-2.05l.51,1-.51,1-.51.51,1-1L266,224.8l.51-1c0,2.56,0,3.59-.51,4.1a26.06,26.06,0,0,0-1,6.66,10.07,10.07,0,0,0-.51,4.1c-.51.52-.51.52-.51,1a1.88,1.88,0,0,1-.52,1.54,4.32,4.32,0,0,0-1,3.07c-.51,2.57-1,6.67-2.05,12.3-.51,0-.51,0-.51-.51h.51v-.51c-.51,0-.51,0-.51.51-.52.51-.52.51-.52,0l1-1c0-1.54,0-2,.51-2.57l-.51-2.05,1.54-5.12v-2.05c0-1.54,0-2.05.51-2.57,0-.51.51-1,1-1.53s0-1.54-.51-2.05c.51,0,.51,0,.51-.52v-3.07c.52-.51.52-1.54.52-3.08l-.52,1-.51.51c-.51,0-.51.51-.51,1.54v1c-.51.52-.51,1-.51,2.05l-5.64,28.71a12.75,12.75,0,0,1-1,3.58,37.93,37.93,0,0,1-1,6.15l-1.54,10.26-1,7.17V294c.51.51.51,1,.51,2.56l.51,1.54.51,5.12v1l.52-1v-1.53l1-6.15a1.9,1.9,0,0,0,.51-1.54,17.82,17.82,0,0,1,1.54-6.15l-.51-1.54c.51,0,.51-1,.51-3.08l1-3.07v-1.54l.51-3.07a20.41,20.41,0,0,0,1-3.08v-1.54c-.51-.51-.51-.51,0-1l1-2.56v-1l1.54-8.2a1.9,1.9,0,0,1,.51-1.54l-.51-.51,1-3.59c.51-.51.51-2.05.51-3.58a52,52,0,0,1,2.06-11.28l2.56-15.38c.51-.51,1-1,1-1.53s0-.52.52-.52v-1a3.24,3.24,0,0,1,0-3.08,1.87,1.87,0,0,1,.51-1.53l.51-1.54c.51-.51.51-1,.51-2l-.51-1,2.56-9.74v-2.05l.52-1.53.51-2.57A1.87,1.87,0,0,1,274.71,192.51Zm-22.55,12.81-.51,1v-2.05c.51-.51.51-1,.51-2Zm0,4.61c0,1,0,1.54-.51,2C251.65,211,251.65,210.45,252.16,209.93Zm-.51,2v0Zm.51,94.31v-.51c-.51,0-.51,0-.51-.52Zm0-26.65.51,2.05Zm.51-116.86.51-.51v.51l-.51.51Zm.51,3.59a1.87,1.87,0,0,0-.51,1.53Zm0,35.87v5.13l-.51.51a1.9,1.9,0,0,1,.51-1.54Zm.52-44.07v0Zm.51,40,.51-1v.51Zm0,0v0Zm0,92.26c0-1.54,0-2,.51-2.56v.51C254.21,288.86,254.21,289.38,254.21,290.4Zm1-102.51v-.51a1.89,1.89,0,0,1-.51,1.54Zm-.51,7.69v0Zm.51,91.75v0Zm.52-105.07c.51-.52.51,0,0,1.53Zm0,27.16,1-2v-1.54Zm.51-21.53,1-1v1a4.37,4.37,0,0,0-1,3.08Zm.51-8.2a9.14,9.14,0,0,1,1.54-5.63,22.67,22.67,0,0,0-1,5.12Zm.51,2.57c.52-3.59,1-5.13,1.54-5.13Zm0,20v1.54l1-3.59c.51-1.53.51-2.56,0-3.07Zm1-62v0Zm0,30.24.51-2.05c0,2.05,0,3.07-.51,3.07Zm0,25.11,1-2.05v1Zm1,57.41a4.34,4.34,0,0,1-1,3.07Zm0,11.27c0,1,0,1.54-.51,2.05a14.75,14.75,0,0,1,1-4.61C259.33,262.21,259.33,262.72,259.33,264.26Zm-.51,2.05v0Zm1-7.17c0-1,0-1.54.51-1.54A1.9,1.9,0,0,1,259.85,259.14Zm1-97.9c-.51,0-.51.51-.51,1a1.88,1.88,0,0,1,.51-1.54Zm-.51,95.33v0Zm1.54-92.77.51.52v-1Zm1-12.3V152c0,1.53,0,2-.51,2.56Zm-.51,8.2v0Zm1-10.76-.51,1.54Zm.52-1.54-.52,1.54Zm.51,77.91c0,.51,0,1-.51,1v-.51a1.9,1.9,0,0,1,.51-1.54l-.51,2.05c0,1,0,1.54-.52,2,.52,0,.52,0,.52-.51v1ZM264,147.4v-1.53l.51-3.08Zm.51,79.45c-.51,0-.51,0-.51-.52Zm1-125.06v0ZM267,133.05l-.51,1Zm-.51,90.21c.51,0,.51,0,0,.51Zm3.59-106.61.51-3.59-2.56,14.35-1,1ZM267,133.05l.52-2.56Zm.52,79.45c0-2.57,0-3.59.51-4.1v1c-.51.51-.51,1.54-.51,4.1Zm2-85.09-.52,1-1,3.59.51-1a11.63,11.63,0,0,1,.51-3.59Zm-1.54,5.13c.51.51.51.51,0,.51Zm0,75.86,1-2.06a1.88,1.88,0,0,1-.51,1.54Zm2.56-95.34,3.08-13.83Zm1.54,1-1,2.56v-.51Zm-1,4.1v0Zm.52,77.9.51-1-.51,1.54ZM275.74,89l.51-.51V89l-1.54,6.67-1,3.59.51-2Zm.51-34.85-1,.51Zm-.51,41.52v3.59c-.52,0-.52,0-.52-.52Zm.51-7.18.51-1Zm.51,299.83-.51-.51c0-.51,0-.51.51,0Zm1.54-311.1v3.58l-1.54,4.1Zm-1.54,7.68v0Zm0,1.54v0Zm1,.51c0,.52,0,.52.51.52V84.87C278.3,85.9,278.3,86.41,277.79,86.92Zm.51,13.33a1.89,1.89,0,0,1-.51,1.54v2l.51-1.54v-2Zm0-23.06c0-.52,0-1,.51-1Zm7.17-33.83V37.21l-1.53,7.17c-.52.52-.52,1-.52,2.57s0,2-.51,2.56h1V49c0-.52.51-1,1-1.54L284.45,49A10,10,0,0,0,286,43.87Zm-2.56,11.27v0Zm13.84,52.8v0ZM306,274v0Zm0,5.64v0Zm0,6.15v0Zm0,1.54v0Zm0,2.05v0Z" style="fill:#f5f5f5"/><path d="M342.36,387.27v0Zm2.56.51v0ZM451.53,52.07H451l.52-.51h1l-.51-.51c1.54,0,2.56,0,3.07-.52L454.6,50h-1.54c-3.07,0-5.12,0-6.66.51h-2l-.51.52-1.54.51h-1.54l-2.05.51-2.56.51-1,.52-.52.51h-1.53a1.88,1.88,0,0,0-1.54.51,1.89,1.89,0,0,1-1.54.51h-1.54l-1,.52a1.89,1.89,0,0,1-1.54.51l-1,.51c0-.51-.52-.51-1,0l-3.07,1a1.9,1.9,0,0,1-1.54.51c-2.05,0-3.08.51-3.08,1.54h-.51l-1,.51L411,61.3l-4.62,1.54-1.53.51-2.57,1h-.51c0,.52,0,.52-.51.52h-1l-.51.51a4.67,4.67,0,0,1-3.59,1.54l-2.05,1-1.53.51a3.91,3.91,0,0,1-2.57,1h.52c-1.54,0-2.05.51-2.05,1H388c-.51-.51-.51-.51-1,0a1.87,1.87,0,0,1-1.54.52c-.51,0-1,0-1,.51l-1,.51-2.56,1,1-1v-.51l-1,.51c-.51,0-.51,0-.51.51v.52l-1,.51-1,.51c-.51-.51-.51-.51-.51,0l-.51.51h-.51l-2.05,1-1,.51c-.51,0-.51,0-.51.51h-.51l-.52.52-2.05,1-2,1c-1,0-2.05.51-3.58,1.53h.51a1.87,1.87,0,0,0-1.54.52l-.51.51c-1,0-1.54.51-1.54,1-.51-.51-1,0-2.05.52h.51l-.51.51c-1,0-1.54,0-2,.51l-.51.51-1,.52v1a1.89,1.89,0,0,1-.51,1.54,1.88,1.88,0,0,0-.51,1.54v3.07a1.89,1.89,0,0,0-.51,1.54v2.05l-.52,2c-.51.51-.51,1.54-.51,3.08v1l-.51,2v4.1l-.51.51v4.1l-.52,1.54v5.64c-.51.51-.51,1-.51,2.56v5.64c-.51.51-.51,1.54-.51,3.59v9.22a1.9,1.9,0,0,0-.51,1.54v.51h-.52l.52.52v13.32a1.87,1.87,0,0,0-.52,1.54c0,3.59,0,5.12-.51,5.64V170c0,1.53,0,2.56-.51,3.07v7.18H348v.51c.51,0,.51,0,.51.51v5.64c0,.51,0,.51-.51.51v.51l.51.52v2.05L348,191v1c0,.52,0,.52-.52,0v42c-.51,0-.51,0-.51.51v1h-.51c0,.51,0,.51.51.51v4.61c0,.52,0,1-.51,1v-.51l-.51-1v7.69h0v21.53l.51.51-.51.51.51,2.56v6.67l-.51,7.69v16.91c.51.51.51,2.05.51,5.12l-.51,4.1,1,21v15.89h.51a1.87,1.87,0,0,0-.51,1.53l.51,2.57v17.94l.52,5.12v4.1c0,17.94,1,28.19,2.56,30.75v3.08l.51,2.05.51,2.05,1,2.05v2.05l.51,1h.51l.52.52,1,.51,1-1h1.53v.52h1l1.54,1c.51.51,1,.51,1.53-.51h.52l.51.51,1-1h.52c0,.51.51,1,1.53,1l1,.51.51.52H369l.51.51H370v1c.52,0,.52,0,.52-.51,0-1,.51-1.54,1.53-1,0,.51,0,.51.52,0v-1.54l1,.51a1.9,1.9,0,0,1,.51-1.54l.52-1v-1h.51v1a1.1,1.1,0,0,0,1-1v-3.58h-.51v-1l.51-.51v-1h.52l1,2c.51-.51.51-1,.51-2.56l-.51-1,.51-.52c0-1,0-1.53.52-2.05v-1c.51,0,.51-.51.51-1-.51-1-.51-1.53,0-2.05v-4.61a1,1,0,0,1,0-1.54V388.81c-.51-.52-.51-.52,0-1v-7.17a1.88,1.88,0,0,1,.51-1.54v-7.18l.52-4.1c0-1.53,0-2.05-.52-2.56l.52-1v-5.13h.51a1.89,1.89,0,0,1-.51-1.54V355l-.52-.51v-1l.52-.51h.51l-.51-.51c.51-.52.51-.52,0-1-.52,0-.52,0-.52-.51V335.5c-.51-.51-.51-1-.51-2.56v-2.05l.51-.51-.51-1v-.51c.51-.51.51-1.54.51-4.1V303.21c.52-1,.52-3.07.52-6.66V290.4a1.9,1.9,0,0,1,.51-1.54v-3.07l.51-9.74v-12.3c.51-.51.51-.51,0-1v-2.56c.51-.51.51-1,.51-2.05s0-1.54-.51-2.05v-1.54a1.87,1.87,0,0,1,.51-1.53v-1c-.51,0-.51-.51-.51-1,.51-.52.51-1,.51-2.57v-3.59l.52-1.53c0-.52,0-1-.52-1v-3.59c.52-.51.52-1,.52-2.56l-.52-3.59a2.53,2.53,0,0,0,0-3.07v-1.54c.52-.51.52-.51,0-1v-.52c.52-.51.52-1,.52-2.05v-2.05c-.52,0-.52-.51-.52-1a1,1,0,0,0,0-1.54l.52-1v-2.57l-.52-1a1.87,1.87,0,0,0,.52-1.54V189.94l.51-.51c0-1.54,0-2.05.51-2.05v-3.59c-.51-.51-.51-.51,0-1v-8.71c0-1,0-1.54.51-1.54l.52-1V171c-.52,0-.52,0-.52-.51l-.51-1v-3.07c-.51,0-.51,0,0-.52l.51-1v-2.05a3.29,3.29,0,0,1,0-3.08l-.51-.51v-2.05h.51v-2.56l.52-1v-1l-.52-3.59.52-1v-2.57c.51,0,.51,0,.51-.51V143.3c0-1.53,0-2.05-.51-2.56,0-1.54,0-2.05.51-2.56v-.51l.51-1.54a1.89,1.89,0,0,1-.51-1.54V132a1.88,1.88,0,0,1,.51-1.54v-7.18c.51-.51.51-1,.51-2v-4.61a1.86,1.86,0,0,0,.52-1.54c0-.51,0-.51-.52-.51a1.86,1.86,0,0,0,.52-1.54l.51-.51v-4.1h.51v-.51l.51-.51h.52c.51,0,.51,0,.51-.52h.51c.51.52.51.52,1,0v-1l.51-.51h1a1.11,1.11,0,0,1,1-1l2.56-1.54h.51l-2.05,1.54-1,1-1,.51h-.51v1c.51,0,.51,0,.51-.51l3.08-2.05,1-.51v-.51l.52-.52c.51-.51,1-1,1.53-1v.51l.52-.51h.51l2.05-1.54h.51l1-.51,1.53-1c0-.51,0-.51.52-.51s.51,0,.51.51V98.2l1-1a1.86,1.86,0,0,0,1.54-.52l.51-.51H409c0-1,1-1.54,2.56-1.54l1.54-1,.51-.52.51-.51a6.27,6.27,0,0,0,4.62-2,3.92,3.92,0,0,0,2.56-1h.51l.51-.52c0-.51.52-.51,1-.51s1,0,1-.51.52-.51,1-.51l.51-.52h.51c0-.51.52-.51,1-.51A1.9,1.9,0,0,0,429,85.9l2-1,1-.51c.51,0,.51,0,.51-.51a8,8,0,0,1,3.59-1.54h-.51c.51-.51,1-.51,2.05-.51-.51-.51,0-1,1-1.54a1.9,1.9,0,0,1,1.54-.51c.51,0,.51,0,1-.51l4.1-1.54,3.07-1.54a1.89,1.89,0,0,1,1.54-.51c.51,0,.51,0,.51-.51h1l.51-.52,4.61-1,4.1-1,.52-.51v-.51A1.87,1.87,0,0,0,462.8,71c-1,0-1.53,0-2.05.51s-1,.51-2.56.51h-2.05l-2.05,1v-.52l-5.64,1.54h-1l-1,.51-5.12,2-1,.52a1.9,1.9,0,0,0-1.54.51l-1.53.51-1,.51c.51,0,.51,0,.51-.51l2.57-1.54a3.9,3.9,0,0,1,2.56-1l2.56-1.54,2-.51h.51L459.73,70l3.07-1.54,1-.51v-.51h-1.54l.51-1,1-.51h-.51a1.9,1.9,0,0,1-1.54.51h-1.54c0-.51,0-.51-.51-.51l-.51-.51-.52-.51c-.51,0-.51,0,0-.52.52,0,.52,0,.52-.51v-.51l-1-.51h-.51v-1h.51c.51-.51,0-.51-.51-.51s-.51,0-.51-.51l.51-.52c.51-.51.51-.51,1,0,.52,0,0-.51-.51-1-.51.51-.51.51-.51,0-.51,0-.51,0-.51-.51v-1l1-1h-2.05v-.52l-.51-1v-.52H449l-1,.52H446.4l-2,.51h-1.54c-.51.51-.51.51-.51,0-.51,0-.51,0-.51-.51h2.56l-.51-.52,3.59-1H449l1-.51,1-.52.52-.51c-.52.51,0,.51.51.51l.51-.51h-1ZM346.46,268.87H346l.51-.51Zm0-8.2c-.51-.51-.51-.51,0-.51Zm0-14.86v-2.05c.51,1,.51,1.54,0,1.54Zm0,.51v0Zm.51-51.25v0Zm0,39.46v0Zm0,9.23c.51.51.51.51,0,.51Zm.51-81v0Zm0,3.07v0Zm0,27.17h0Zm1-44.59h0Zm-.51,53.3v0Zm0,89.7v0Zm.51-149.15v0Zm0,15.37c.51.52.51.52,0,1Zm.51,42c-.51.51-.51.51-.51,0Zm-.51,168.11v0Zm0,31.78v0ZM349,135.62v0Zm0,27.16v0Zm0,225h0Zm1-268.57v0Zm0,7.69v0Zm0,10.77v0Zm0,76.36v0Zm.51,147.61c-.51-.51-.51-.51,0-.51Zm0-253.19v-.51c.51.51.51.51,0,1Zm.51,4.1V112l.51.51Zm0,8.2v0Zm6.66,34.34c-.51.51-.51,2.56,0,5.64-.51,0-.51.51-.51,1v5.13l-.51,6.15v10.25a1.89,1.89,0,0,0-.51,1.54l.51,1.54c-.51.51-.51.51,0,.51v3.07l-.51,6.15v9.74c0,.51,0,1-.52.51v.52c-.51,0-.51,0-.51.51a1.89,1.89,0,0,0-.51-1.54v-6.66h-1v9.74h.52c0,.51,0,.51.51.51,0,.51,0,.51.51,0-.51,0-.51.51,0,1v-1.54h.51V212l-1,1.54v0a1.9,1.9,0,0,1,.51-1.54v3.59l-.51.51c-.51.52-.51.52-.51,0v2.57a1.88,1.88,0,0,1-.52-1.54v6.15l-.51,5.12v13.33c0,2.56,0,4.1-.51,4.61v1a1.89,1.89,0,0,1-.51-1.54l-.52-.51V196.09c.52-.51.52-1.53.52-3.58V174.57c-.52-.51-.52-.51,0-.51.51-.52.51-.52,0-1s-.52-.51,0-1V167.9h.51c-.51-.51-.51-1,0-1v-2c-.51-1.54-.51-2.05,0-2.05V153a2.29,2.29,0,0,0,0-2.56c0-1.54,0-2,.51-2.56v-5.64c0-2.05,0-3.08.51-3.59v-2.56l-.51-.51c.51-.52.51-2.57.51-7.18l.52-.51v-3.08l.51-.51v-7.69c.51-.51.51-2.56.51-6.15V110l.51-1v-3.07a45,45,0,0,0,1.54-10.76c0-1,0-1.54.51-2.06l.52-2.56V87.44c.51,0,.51,0,.51-.52a1.9,1.9,0,0,0,1.54-.51l3.07-1.54,2.05-1L368,82.31a3.87,3.87,0,0,0,2-.51c.52-.51,1-.51,1.54-1l1-.51,1-.51a1.89,1.89,0,0,1,1.54-.51h1l1-.52.51-.51h1a1.88,1.88,0,0,1,1.54-.51l5.63-2c.52-.51,1-.51,2.05-.51h-.51c0,.51-1,1-2.56,1.53h-.51l-.52.52h-.51c0,.51,0,.51.51.51a1.88,1.88,0,0,0,1.54-.51l1-.52-2.05,1.54-2.57,1.54.52-.51a1,1,0,0,1,1.53,0h1l.51-.52H387l2.56-1.53h1.54l.51-.52L389,78.21h-.51l-2.05,1h-.52c-.51,0-1,0-1,.51l-1,.51L380.8,81.8a1.89,1.89,0,0,1-1.54.51c-1.54,1.54-2.56,2-4.1,2l-2.05,1-1,.51-5.63,2.56-2.05,1-1,1h-.51v2a1.89,1.89,0,0,0-.51,1.54c0,1.54,0,2.05-.52,2.56v2.57c-.51.51-.51,1-.51,2.56l-.51,2.56V109c-.51,0-.51,0-.51.52v4.1l-.52,1v2.56l-.51,1v5.64l-.51,4.61v5.13a1.87,1.87,0,0,1-.51,1.53v2.05l-.52,4.62v13.32Zm-5.63,95.85c.51.51.51.51,0,1l.51-1h-.51l.51-.52Zm.51-158.38v-.51l.51-.51v.51Zm0,3.59v2c.51-.51.51-2,.51-3.59Zm0,31.78v0Zm.51-34.34.51-.52Zm0,102.5.51-.51v2Zm0,60v0Zm1-76.37v-1l-.52-1c-.51.52-.51,1,0,1Zm-.52,3.08h.52v1Zm0,5.64c.52.51.52.51,0,1Zm0,1c.52.51.52.51,0,.51Zm0,14.35h.52v.51h-.52Zm0,16.4v0Zm0,1.54v0Zm0,39v0Zm.52-85.08v0Zm.51,4.1h-.51c.51,0,.51,0,.51-.51Zm-.51,146.59v0Zm1-184v-.51c.51.51.51,1,0,1Zm0,66.12v-1c.51,0,.51,0,.51.51Zm.51-69.71c.52-.51.52-.51.52,0Zm0,61.5v0Zm.52,7.69-.52,1v-2c0,.51,0,.51.52.51Zm-.52,1.54v0Zm.52-72.27c-.52,0-.52,0,0-.51Zm0,43.57v.51a1,1,0,0,1,0-1.54Zm0,1v0Zm.51,28.19h0Zm0-66.63v0Zm0,1.54v0Zm.51,4.61v3.08c-.51,0-.51,0-.51-.51v-2.57c0-.51,0-1,.51-.51Zm0,5.13-.51.51v-.51Zm-.51,33.83v0Zm0,2.56v0Zm.51-43.05a1,1,0,0,1,0-1.54Zm0-7.18v0Zm0,0v0Zm13.33,96.87H370l.52.51-.52-.51c0,.51,0,.51.52.51l2.56,2c0,.51,0,.51.51.51h.51a1.88,1.88,0,0,0,1.54.52c0,.51,0,.51.51.51h.52c.51,0,.51,0,.51.51h1l.52.51h1v-.51h2.57c.51,0,1,0,1-.51h1.54v.51c0-.51,0-.51.51,0,.51-.51.51-.51.51,0v.51h.52v-.51c-.52,0-.52,0-.52-.51h1.54v-.51H388v-.52c.52.52.52.52.52,0H389l.51-.51H390c.52,0,.52,0,.52-.51h.51v-.51h1.54v-.52h1.53v-.51h.52l.51-.51h.51l.51.51-.51-.51.51-.51h.52l.51-.52h1.54c.51,0,.51,0,.51-.51h1l.52-.51v.51h.51l-.51-.51h.51v.51h.51v-1h1v0c.51,0,.51,0,.51.51.51,0,.51,0,.51-.51h1c0-.52,0-.52.51-.52s1-.51,1.54-1h.51l1-.51.52-.52h1.53V232H411v.51h.51v0c-.51,0-.51,0-.51.52l1.53-.52v0l.52-.51h.51l.51-.51,1.54-.51h.51l1-1,1.54-.51h.51a1.88,1.88,0,0,1,1.54-.51l.51-.52a1.88,1.88,0,0,1,1.54-.51l.51-.51,2.56-1.54h.51c0-.51,0-.51.52-.51v-.51c.51,0,.51,0,.51.51v-.51c.51,0,.51,0,.51-.52h.51l.52-.51h.51l1-1,1-.52h.51a1.11,1.11,0,0,0,1-1c.51,0,1.53-.51,3.07-2.05,1-1,1.54-2,1-2.56h.51v-1h.51v-.51l-.51-1v-.51l.51-.51-.51-.51c-.51-.52-.51-.52,0-.52l-.51-1-1-1v-.51c-.51,0-.51,0-.51-.51l-.51-1-.52-1-.51-1-.51-.51-.51-.51v-.52c-.52,0-.52,0-.52-.51h-.51v-1l-.51-1c-.51,0-.51,0-.51-.51v-.51c-.52,0-.52,0-.52-.52v-.51l-.51-.51c-.51,0-.51,0-.51-.51v-.52l-.51-.51-.52-1c0-.52,0-.52-.51-.52a1.1,1.1,0,0,1-1-1h-.52l-.51-.51c0-.52,0-1-.51-1V194h-.51l-.52-.51V193c-.51,0-.51,0-.51-.51h-1l-.52-.52c0,.52,0,.52-.51,0,0,.52,0,.52-.51.52h-.51c0,.51,0,.51-.52.51h-.51l-.51.51H417.7c-.51,0-.51,0-.51.51h-1.54c-.51.52-.51.52-.51,0h-1v.52h-.51c0,.51,0,.51.51.51-.51,0-.51,0-.51-.51h-.51v1c0,.51-.52.51-1,.51l-1,.52h-.52v.51c-.51-.51-.51-.51-1,0H409c-.52,0-.52,0-.52.51h-2.56c-.51.51-1,.51-1,1h-1.54l-1.54.51h-1v.51h-1c-.51-.51-.51-.51-.51,0h-.51l-.52.51h-1.53v.52l-.52-.52c-.51,0-.51,0,0,.52h-1l-.51.51h-.52c0,.51,0,.51-.51,0v.51h-.51c-.51,0-.51,0-.51.51-.52-.51-.52-.51-.52,0h-1v.52h-.51c-.52,0-.52,0-.52.51h-.51l-.51.51H387c-.51,0-.51,0-.51.51h-.52c0,.52,0,.52-.51,0v.52l-.51-.52h-.51v.52c0,.51,0,.51-.52.51h-.51c0,.51,0,.51-.51.51,0,.51,0,.51-.51,0v.51l-.52-.51-.51.51h-1a1.11,1.11,0,0,1-1,1v-.51c-.51,0-.51,0-.51.51v.51c-.52,0-.52,0-.52-.51-.51,0-.51,0-.51.51l-.51.52c-.51-.52-.51-.52-.51,0h-.52v.51c-.51,0-.51,0-.51.51v0c0-.51-.51-.51-1.54,0h-.51l-.51.51-.51.52h-1.54v1h-.51V212l-.52.52c0-.52,0-.52.52-.52v-1.53H370V212c0,.52,0,.52-.51.52L369,213v.51h-.51V214c-.52,0-.52,0-.52.52v0h-.51c.51.51.51.51,0,.51s-.51,0-.51.51h-.51l-.52.51h-.51v.52c0,.51,0,.51-.51,0,0,.51-.51,1-1.54,1h0c.51.51.51.51,0,1h-.51l-2.05.51v0h-1.54l-1-.51c-.52,0-.52,0,0,.51h-.52l.52.51h1l1,.51h.51c0,.52.51.52,1.54.52h.51v.51l1-.51h1l-.51.51v.51h-1.54l-1.54-.51h-1.54v.51h-.51v.51l.51.52v.51c0-.51,0-.51.52-.51.51.51.51.51.51,1h.51l.51,1v.51l.52.51v.51h.51l.51.52.51,1v.51c.52,0,.52,0,.52.52v.51l.51.51v.51h.51l.51,1V232c.52,0,.52,0,.52.51l.51.52.51,1H368v.51l.52.52.51.51v0l.51.51,2.05,1,.51.51h-1l-.51-.51v.51c0-.51,0-.51-.52-.51v.51Zm-12.3-98.41v0Zm.51-55.86h0Zm1,134.79h0Zm1-1h-.51v-.51Zm0,1h0Zm.51-1.53v.51h0Zm0,.51v0Zm.51,0v0Zm.52.51h0Zm0,2v-.51c.51,0,.51,0,.51.51Zm1-1.54h0Zm1-2.56v0Zm.51-10.76h0Zm.51,9.74v1l.51-.51v-.51c-.51,0-.51,0,0-.52v-.51c-.51-.51-.51-.51-.51,0s0,.51-.51.51Zm-.51,0v0Zm.51,6.15h.51l-.51.51h-.51Zm.51-6.67h.52c0,.52,0,.52-.52.52Zm1,0h-.51l1-.51H367Zm.51,4.62h0Zm.51,26.13v1c-.51,0-.51,0-.51-.51Zm-.51,14.87v0Zm1-55.87v1.54l-.52-.51Zm0,7.69v0c-.52,0-.52,0-.52-.51v-.51l.52-.52.51-.51v1h0V211h-.51ZM368,214v.52h.52A1.88,1.88,0,0,1,368,213l.52-.51v4.1l-.52-1Zm.52,3.08v.51a1.87,1.87,0,0,1-.52,1.54v-.51l.52-1c0-.51,0-.51-.52-.51Zm-.52,1v0Zm.52,4.1v0h0Zm1-44.07v2.56q-.76,4.6,0,6.15c.51,0,.51,0,.51.51v1l-.51,1.53v-1.53l-.51.51a1.89,1.89,0,0,0-.51-1.54,1.9,1.9,0,0,1,.51-1.54,1.87,1.87,0,0,0-.51-1.53c.51-.52.51-1,.51-2.57v-4.1Zm-1,10.25v0Zm.51,6.66h0Zm0,1c-.51.52-.51.52-.51,0Zm0,1a1.88,1.88,0,0,0-.51,1.54v-2C368.5,197.12,368.5,197.12,369,197.12Zm-.51,16.4v0Zm0,7.18v0Zm0,13.32v0Zm0,26.14v0Zm.51-66.63c-.51-.51-.51-.51,0-.51Zm3.59,92.26v-1l.51-6.66V272c0-3.59,0-5.64-.51-6.15v-4.61l.51.51V251.45a1.9,1.9,0,0,1-.51,1.54v1.53c-.52,0-.52,0-.52-.51,0-1.54,0-2-.51-2.56v-3.59c0,.51,0,.51-.51,0v-1l-.51-.52.51-1v-.52c0-.51,0-.51.51-.51v.51a2.26,2.26,0,0,0-.51-2.56v-2.05l.51-.51h.51l-.51-1.54-.51-.51v-4.1l.51-2,.51,1.54v-3.08l-.51-1c0-.52,0-1,.51-1v-.51a1.87,1.87,0,0,1,.52-1.54v-1c-.52,0-.52-.52-.52-1v-1c-.51,0-.51-.52-.51-1.54v-2.56c0-4.1,0-6.15.51-6.67V167.9l.52-.51c-.52,0-.52-.51,0-1l-.52-1v-4.61c.52,0,.52,0,.52-.51v-.52c-.52,0-.52,0-.52.52v-2.05l-.51-1v1c0,1.53,0,3.07-.51,3.58l-.51-.51v-.51l-.52.51c.52.51.52.51,0,1v1l.52.51c-.52,0-.52,0-.52.52v2.56l-.51,4.1V173c0,1.54,0,2.56-.51,3.08V171c0-.51,0-.51.51-.51v-2.05c-.51,0-.51,0-.51-.52a1.87,1.87,0,0,0,.51-1.53v-5.13c0-1.54,0-2.05-.51-2.56V155.6c0-.51,0-.51.51-.51l.51-1v-1.54c-.51-.51-.51-1,0-1v-4.61l.52-.51v-.51c-.52,0-.52,0-.52-.52.52-.51.52-1,.52-2V150h1v1.53h1l.51-.51a1.88,1.88,0,0,0,.51-1.54q-.76-.76,0-4.61V139.2c.51-.51.51-1.53.51-3.07v-4.62c.52-.51.52-1.53.52-3.07v-3.08l.51-4.1v-1.53c.51,0,.51-.52.51-1.54v-5.13l.51-1v-.51c-.51-1-1-1.54-.51-2s.51-1,.51-2v-1.54c.52-.51.52-1,.52-2v-1c.51,0,.51-.51.51-1l.51-.51v-.52c.51,0,.51,0,.51-.51s.52-.51,1-.51l.51-.51h.52l2-.52h.51l2-1-.51.51-.52.51a1.1,1.1,0,0,1-1,1c-.51,0-1,0-1,.51h-.51c0,.51,0,.51-.51.51h-.51l-1,.52c0,.51,0,.51-.51.51h-.52v1c-.51.52-.51.52,0,1v.51l.52-1v-1.54h.51v-.51c.51,0,1,0,1-.52l2-.51-.52,1,2.05-1h.52l2.05-1H387l-1.54,1a1.1,1.1,0,0,0-1,1h.51v.51c-.51,0-1,.51-1.54,1a1.86,1.86,0,0,1-1.54.52v.51h-.51v5.64l-.51.51v3.07a1.88,1.88,0,0,1-.51,1.54v1.54l-.52,4.1v4.61l-.51,4.61v1l-.51,2-.52,3.59v7.17l-.51,1v14.86c0,1.54,0,2.56-.51,3.08V170l-.51.51V171c.51,0,.51,0,.51.51v2l-.51,2.05v9.74l-.52,3.08v16.91a1.9,1.9,0,0,1-.51,1.54v8.2l.51-.51v.51c-.51,0-.51,0-.51.51v13.84l-.51,11.27v6.67c-.51.51-.51,1-.51,2.56v16.4l-.52,4.61c0,.52,0,.52-.51.52v6.66c-.51,2-.51,5.64-.51,11.28v1a1.9,1.9,0,0,0-.51-1.54ZM369,176.62v0Zm.51,35.36v.52L369,212ZM369,224.8v0Zm.51,11.78v0Zm.51.52h0Zm0-27.17c.52-.51.52-.51.52,0S370.55,210.45,370,209.93Zm0,26.65v0ZM384.9,94.1h-.51v.51a4.73,4.73,0,0,0-2.57,1.54l-2.56,1-1,.51-1,1h-.51l-.52.52h-.51v2c-.51.51-.51,1-.51,2l-.51,4.1-.52,1.53v1.54l-.51,1c.51,0,.51.51,0,1v.51c-.51,0-.51,0-.51.52l-.51,3.07c-.52,1.54-.52,2.56,0,3.08,0,1,0,1.53-.52,2v6.15c-.51.51-.51,2-.51,4.1v2.05l-.51,2.56v-.51c0-1,0-1.54-.51-2l.51-1V130a1.9,1.9,0,0,0,.51-1.54v-.51a1.56,1.56,0,0,1,0-2.05v-5.13a1.9,1.9,0,0,1,.51-1.54v-2.56c0-1.54,0-2.56.52-3.07V111l-1-1v-4.1a1.89,1.89,0,0,1,.51-1.54v3.08c.52,0,1-1.54,1.54-4.1v-1a1.9,1.9,0,0,1,.51-1.54V98.71h.52V98.2h1.53c0-.51.52-.51,1.54-1l2-1h.52c0-.51,0-.51.51-.51h.51l1.54-1,1-.51h1Zm-14.35,45.62c0-1.54,0-2.05.51-2.05v.51c0,1.54,0,2.56-.51,2Zm0,2.56v-.51c.51.51.51.51,0,1Zm0,9.74.51.51-.51,1Zm0,78.93v0Zm0,6.66h.51v.51Zm0,1c0-.51,0-.51.51,0C370.55,238.12,370.55,238.12,370.55,238.63Zm.51,12.82v-1l-.51-.51c.51-.51.51-.51,1,0v.51Zm.51-12.82h-.51v-.51Zm0,32.81c.51,0,.51,0,.51-.52v1a1,1,0,0,1,0,1.54V275l-.51-1c0,.51,0,.51-.51,0l.51-2.05Zm-.51,16.91v0Zm.51-1c-.51-.52-.51-.52,0-1Zm0-131.21v-.52l.51,1Zm0,69.7v0Zm.51,1h-.51l.51-.52Zm0,.51h0Zm-.51,8.71.51,1c-.51.51-.51.51-.51,0Zm0,4.61v-.51c.51.51.51.51,0,1Zm0,5.13.51.51-.51.52Zm.51-142v0Zm0,6.66v0Zm.52,110.2v1.53l-.52-.51Zm-.52,17.93.52.52Zm.52-30.23v1.53a1.54,1.54,0,0,1,0-2.05Zm0,8.2c-.52-.52-.52-.52,0-1Zm0,2.05v1a1,1,0,0,1,0-1.54Zm0-22.56.51-2.05v2.57Zm0,1.54c.51.51.51.51,0,1Zm0,2.05v-.51l.51.51c0,.51,0,.51-.51.51Zm0,1c.51.51.51.51,0,1Zm0,2.56.51-.51a1.87,1.87,0,0,1-.51,1.53Zm0,7.18v0Zm0,1.53v0Zm0,1v0Zm0,24.6h0Zm1.53,2-1.53-.51h.51Zm-1.53,20,.51.51c-.51,0-.51,0-.51.51Zm.51-161.45v0Zm.51,78.42h0Zm-.51,5.12v-1h.51c0,1,0,1.54-.51,2.05Zm0,3.08v-.51c0-.52,0-.52.51-.52Zm0,1v-.51l.51.51c-.51,0-.51,0-.51.52Zm0,3.59v0Zm0,2v0Zm0,35.37h.51v1Zm0,3.58h.51v2Zm0,3.08v0Zm.51,2.56h-.51l.51-.51Zm-.51,12.82v0Zm0-11.28v0Zm.51-61.5c-.51-.52-.51-.52,0-1Zm0,3.58c-.51-.51-.51-.51,0-.51Zm0,54.84c-.51-.51-.51-.51,0-1Zm.51-71.24v1.54l-.51-.51v-1c.51,0,.51,0,.51-.51Zm0,3.59h-.51v-1l.51-.51Zm0,1.54-.51.51v-1Zm-.51,1.54v0Zm0,2v0Zm0,2.05v0Zm0,43.05h0Zm0,1.54h0Zm0,3.07.51-.51a1.9,1.9,0,0,1-.51,1.54Zm0,2.56v0Zm0,4.62v0Zm0,6.15v0Zm0,2.56h.51v.51Zm.51-23.58v.52c-.51-.52-.51-1,0-1Zm0,2.05c-.51-.51-.51-.51,0-.51Zm0,3.08c-.51-.51-.51-.51,0-.51Zm0-144,.52-.52Zm0,75.34v-2c0-.51,0-.51.52-.51v2.56Zm0,4.1v0Zm0,5.64v0Zm.52,41.51-.52-.51h.52Zm-.52.51.52.52-.52,1v-1.54Zm0,7.69h0Zm0,2.57v0Zm0,8.2v0Zm.52-76.37v0Zm0,1v-.51c.51.51.51.51,0,1Zm0,2.05v0Zm0,47.16v0Zm0,1v0Zm0,0v0Zm0,1v0Zm0,3.58v0Zm32.29,5.13v.51h-.52l-1,.51h-1l-1,.52v.51h-1.54l-1,.51h.51l.51.52v-.52l.51.52c-.51,0-.51,0-.51.51v.51h0v.51l-.51.52-.51-.52v-.51c-.52,0-.52,0,0,.51,0,.52,0,.52-.52.52v0l-1,.51-.51-.51v-.52l-.52.52c.52,0,.52,0,0,.51v-.51h-.51l-.51.51v.51a1,1,0,0,1-1.54,0l-.51.51c0,.52,0,.52-.51.52h-1V213c0-.51-.51,0-1,.51h-.52c-.51,0-.51,0-.51.51h-.51v.52h-1c-.51,0-.51,0-.51.51H389v.51c0,.51,0,.51-.51.51H388v0h.52c-.52,0-.52,0-.52.52v.51l1-.51v1h2.05v-.51h.51v.51h-1v.51h-1v1h-1v-.51l-.52.51v0h-1v.51l-.51-1h1l-.51-1v-1c-.51,0-.51,0-.51-.52s0-.51-.52,0l-.51.52h-1l-.52.51h-1v.51c0,.51,0,.51-.51,0l-.52.51-.51-.51-.51.51c0,.52,0,.52-.51.52h-.52c.52.51.52.51,0,.51-.51-.51-.51,0-.51.51-.51-.51-.51-.51-.51,0h-.52c0-.51,0-.51-.51-.51v.51h-.51v.51c-.51-.51-.51-.51-1,0h-.51c0-.51,0-.51.51-.51v-1l.52.51v-.51h.51l.51-.52c0-.51-.51,0-1,.52h-.52v-.52h-.51c0,.52,0,.52-.51.52l-.51-.52.51-.51v-.51l-.51-.51h.51v-.52l.51-.51,1-1h1c.51,0,.51,0,.51-.52h.52l.51-.51h1.54V213l.51.51.51-.51h.52v-.51h1c.51,0,1-.52,1.54-1h.51l.51-.51h1.54c0-.51,0-.51.51-.51h1c0-.52,0-.52.51-.52h1l.51-.51h.51c.51,0,.51,0,.51-.51h1v-.51h1.54v-.52h1l.51-.51c.52.51.52.51.52,0l2.05-.51.51-.52.51.52h.51c0-.52,0-.52.52-.52l1-.51h.51c0-.51,0-.51.52,0,0-.51.51-.51,1,0h.51c-.51,0-.51,0-.51.51l.51-.51h.52l.51-.51c1-.51,1.54-.51,2.05,0Zm-32.29,4.61v0Zm.51-135.82h1c0-.51,0-.51.52-.51l-.52.51Zm0,44.08v0Zm0,13.32c0-.51,0-.51.51-.51-.51-.51-.51-.51,0-1V132Zm0,4.62v-2h.51v1.54Zm0,.51v0Zm0,1v0Zm0,1v-.51l.51.51c-.51,0-.51,0-.51.51Zm0,1v0Zm0,1v0Zm0,.51v0Zm.51,30.76-.51.51V172Zm-.51,3.58v0Zm0,3.08v0Zm0,7.17v0Zm0,34.86v-.52c0,.52,0,.52.51.52Zm1-124.55h0Zm0,29.21v.52a1.56,1.56,0,0,0,0,2.05v.51a18.19,18.19,0,0,1-.51-3.08Zm-.51,3.59v0Zm.51,87.13h0Zm-.51,1.54v0Zm0,3.08v0Zm1-102v-2.56l-.52,5.12v.52ZM376.18,151v0Zm0,65.61v0Zm0,1.53v0Zm.52-71.75c-.52-.51-.52-.51,0-.51Zm0-72.27h0Zm0,41v-.51l.51-1v1.53Zm0,1v0Zm0,22c.51,0,.51,0,0,.51Zm0,4.1v0Zm0,41v0Zm0,25.63v0Zm1.53-103-.51,1c.51,0,.51,0,0,.52v.51c0,.51,0,.51-.51.51v-1.54a1.87,1.87,0,0,1,.51-1.53c0-.52,0-.52.51-.52Zm-1,3.59h.51l-.51.51Zm0,1c.51.51.51.51,0,.51Zm0,1.54v0Zm0,21.53v0Zm0,.51v0Zm.51,88.67v.51h-.51c0-.51,0-1,.51-1v-.51c.51,0,1-.51,1.54-1h1c.51,0,.51,0,.51-.52l.51.52c.51,0,1,0,1-.52h.51c.51.52.51.52.51,0l1-.51h.51c0-.51,0-.51.51,0v.51h-1.54l.52.52c-.52.51-.52.51-1,0h-1l-.52.51-.51.51.51,1-.51.51v-1h-1.54c0,.52,0,.52-.51.52l-.51-.52v.52h-.52v.51h-.51Zm-.51,17.93v0Zm.51-117.37v-1.53c.51.51.51,1,0,2Zm0,2v0Zm0,2v0Zm.51,90.21h.52v.51h-1Zm.52-101.48h-.52c.52,0,.52,0,.52-.51Zm-.52,108.66v0Zm1-7.18h0Zm-.51,167.6h0Zm.51-168.11h.51v.51h-.51Zm.51,25.11c0,.51,0,.51-.51,0Zm-.51,40v0Zm0,87.13h0Zm1-152.22c-.52.51-.52.51-.52,0Zm-.52,7.17v0Zm0,18.45v0Zm.52,20.51h0Zm-.52,25.62c.52,0,.52,0,.52.52Zm0,25.12v0Zm0,44.59v0Zm0,2.05v0Zm1-258.32c0,.51,0,.51-.51.51Zm-.51,112.76h0Zm.51,1.54h.51c0,.51-.51.51-1,.51ZM380.29,354v0Zm.51,2.05h0Zm.51-254.21h0Zm-.51,1.54h0Zm.51,119.93h0Zm-.51,1c.51.52.51.52,0,.52Zm0,23.07h0Zm1.54-153.76-1,.51v-.51a1.87,1.87,0,0,1,1.54-.52Zm-1,7.17h0Zm.51,56.89v.52l-.51-2,.51.51v.51h1c0,.51,0,.51-.51.51,0,1,0,1.54-.52,2Zm-.51,48.69v0Zm0,8.21v0Zm0,6.15v0Zm11.79,9.22h1l.52-1c0,.51,0,.51.51.51v-.51h.51c.51-.52,1-.52,1,0l.51-.52h1c0-.51,0-.51.52-.51s.51,0,.51-.51l1-.51h2.05v1.53h-1c0,.52,0,.52.51.52v.51c.51,0,.51,0,.51-.51h1v-.52c0-1-.51-1.53-1-1.53,0-.52,0-.52.52-.52v.52c.51.51.51.51.51,0h.51c0,.51,0,.51.51.51v.51h.52a1.87,1.87,0,0,1,1.53-.51h1c0-.51,0-.51.51-.51,0-.52,0-.52.51,0h1v.51c.51.51.51.51,0,.51l-1,.51h-1v.52h-.51l-.52.51h-1v.51h-1v.51h-1l-.51.52h-.52c-.51,0-.51,0-.51.51h-1c0,.51,0,.51-.52.51-.51.51-.51.51-.51,0v.51h-.51V233c-.51-.52-.51-.52-.51,0h-1c0,.51,0,.51-.51.51h-.51l-.52.51h-.51v.51h-1.54l-1,1-1,.51v-.51c0,.51,0,.51-.51.51h-.51l-1.54,1h-1l-.52.51h-.51c0,.51,0,.51-.51.51h-.51v.51h-1l-2.05-.51h-.51l.51-.51h.51l-.51-.51h-.51l.51-.52v-.51h-1c0-.51,0-.51-.52-.51h-.51v-.51h1.54l1-.52V234h1c0-.51,0-.51.51-.51l.51-.51h.52l.51-.52h.51c0-.51,0-.51.51,0,0-.51,0-.51.52,0V232H389v-.51h1V231h1a1.88,1.88,0,0,0,1.54-.52v-.51Zm-11.79,7.69v-.51h.51v.51Zm0,0v0Zm0,6.15h0Zm0,.51h.51v.51Zm0,15.38v0Zm0,3.59v0Zm1-160.94h-.52l.52-.51Zm-.52,80v0Zm0,6.15v0Zm0,28.19v-.52h.52Zm0,9.73v0Zm0,1.54v0Zm.52,9.74h-.52c0-.51,0-.51.52-.51Zm0,5.12h0Zm1-165-1,.51c-.52,0-.52,0,0-.51Zm-.51,23.58.51.51h-1Zm-.51,71.24h0Zm.51,10.25-.51-.51Zm0,24.6h0Zm-.51,7.18v0Zm.51,1.53c0,.52,0,.52-.51,0Zm-.51.52v0Zm0,20.5h0Zm.51-144v0Zm0,83.55h0Zm0,5.12v0Zm.51,25.63.51.51-.51.52v-1.54h0v.51c0-.51,0-.51.51,0Zm0,8.71c-.51,0-.51,0,0-.51Zm0-144.53c0-.51,0-.51.51-.51Zm0,85.08h0Zm0,11.79v0Zm.51,6.15-.51,1v-.51Zm0,63-.51-.51Zm-.51,4.61v0Zm.51-91.74v-1.54l.52,1.54Zm.52,1.54h0Zm0,13.32-.52-1c0-.52,0-.52.52-.52ZM383.87,214v0Zm0,1.54v0Zm0,0h0Zm.52-77.9v0Zm0,5.12v0Zm.51,52.79h0Zm-.51.51v0Zm0,6.15c0-.51,0-.51.51-.51Zm0,2.57v0Zm0,37.41v0Zm.51.51-.51-.51Zm0-27.16c-.51-.51-.51-.51,0-.51Zm.51-27.68h0Zm0,16.4c-.51,0-.51,0-.51-.51Zm-.51,11.28v0Zm.51,26.65c0,.51,0,.51-.51,0Zm-.51,0v0Zm2.56-145.56H387l-1.54,1c0-.51.51-1,1.54-1.54Zm-2,23.58h0Zm0,94.82h0Zm0,0v0Zm0,4.61.51-.51v.51Zm.51-44.59c-.51-.51-.51-.51,0-.51ZM387,70l-1,.51V70Zm-.51,145.05h-.52c0-.51,0-.51.52-.51ZM387,107.43h0Zm-.51,4.1v0Zm1,103H387l.51-.52ZM387,107.94h0Zm0,134.79h0Zm1-167.08h.52c0,.51-.52.51-1,.51Zm-.51,20.5h0Zm0,110.19v0Zm0,4.11h0Zm.51,2.05h-.51V212H388Zm-.51,1.53h0Zm0,2.57c.51,0,.51,0,.51.51Zm0,1v0Zm1-3.59h0Zm0-12.81h0Zm0,12.3c.51.51.51.51,0,.51Zm0,27.68v0ZM390,75.14c0-.52.52-.52,1-.52l-1.54,1H389ZM389,98.2c.51-.51.51-.51.51,0Zm.51,115.32h0ZM389,214v0Zm.51-145c.51,0,1,0,.51.51Zm0,143v0Zm0,1,.51.51h-.51ZM390,69.5h0Zm0,171.7v0Zm0,1v0Zm1-147.61h0Zm0,118.4c-.51.51-.51.51-.51,0Zm.51-118.91h0Zm0,2.56v.52h-.51Zm-.51,115.84h.51V213Zm.51-144,1-.51Zm3.08,4.62v.51l-2.57,1h-.51l.51-.51ZM392.07,212.5l-.51.51v-.51Zm-.51,4.61h0Zm.51,14.35h0Zm0-13.84c-.51-.51-.51-.51,0-.51Zm.52-150.17h0Zm-.52,143v0Zm0,6.15v0c.52,0,1,0,1-.52v-1l.51,1v.52c0,.51,0,.51-.51,0v.51c0-.51,0-.51-.51-.51v.51h-.52v-.51Zm0,14.86c0-.51,0-.51.52-.51Zm0,8.71v0Zm.52-163.5v0Zm.51,133.78h0Zm0,2.05h-.51c0-.52,0-.52.51-.52Zm-.51,20.5v0Zm0,6.15v0Zm.51,1.53h0Zm.51-173.74h0Zm-.51.51h0Zm0,143v-.52l.51.52Zm.51,1.53c0,.52,0,.52-.51,0Zm-.51,18.45h.51V231h-.51Zm0,0v0Zm.51,2.57h0Zm.51-31.27h0Zm0,10.25h0Zm-.51,4.62v0Zm0,22v0Zm.51-26.65v-.51c.52,0,.52,0,.52.51Zm0,4.1h0Zm0,13.84v0Zm1-13.84c-.51,0-.51,0-.51-.51Zm-.51,0v0Zm0,23.07c0-.52,0-.52.51,0Zm1-162h0Zm5.64,25.62,1-1v.51c.52,0,.52,0,.52.51h-.52l-2.56,1.54a1.88,1.88,0,0,1-1.54.51c0,1-1,1.54-2.56,1.54v.51l-.51-.51c.51,0,.51,0,.51-.51h.51v-.51l1-.52h1l.52-.51h0l.51-1,1-.52h.52v-.51h.51Zm-6.15,106.61v0Zm0,6.15v0Zm0,23.06v0Zm.51-165.54c-.51,0-.51,0,0-.52Zm0,128.13v0Zm0,8.2v0Zm0,.51v0Zm.51,1c-.51.51-.51.51-.51,0Zm.52-144.54h0Zm0,5.64c0,.51,0,.51-.52.51Zm-.52,136.85c.52.51.52.51,0,.51Zm.52.51h0Zm0,0h0Zm0,1c0,.51,0,.51.51,0Zm0,0v0Zm.51-9.23v0Zm1,13.84h-1l.51-.51Zm-.51-13.33v0Zm0,7.18h0Zm1-8.2h0Zm0,8.2h0Zm-.52,1.54v0Zm0,0v0Zm0,1v0Zm0,3.08h0Zm0,22.55v0Zm.52-172.21v0Zm0,144c0-.51.51-.51,2.05-1v.52a1.88,1.88,0,0,0-1.54.51Zm0-.51v0Zm0,.51v0Zm0,5.64v0Zm0,16.4v0Zm0-.52v0Zm.51-30.24v0Zm0,9.74h0Zm0,28.19v0Zm2.05-28.7v.51c0-.51,0-.51-.51-.51Zm.51,20c0,.51,0,.51-.51.51Zm.51-3.08c0,.52,0,.52-.51.52Zm.52-13.32v.51c0-.51,0-.51-.52-.51Zm-.52,13.32c.52.52.52.52,0,.52Zm0,2.57v0Zm.52-28.71v0Zm0,26.14h0Zm0,0v0Zm.51,7.69-.51-.51Zm0,.51h0Zm1,1h0Zm.52-27.68v-1h.51v1Zm1,1h0Zm-.51,18.45v0Zm1-129.67h0Zm7.18-3.08h.51l2.56-1L411,96.66c-1.54.52-2.05,0-1.54-.51s1-.51,2.05-.51l1-.51a.51.51,0,0,0,.52-.52ZM410,226.33h.51c0,.52,0,.52-.51,0v0Zm0,6.15v0Zm1.54-.51h0Zm.51-135.31h0Zm2.05-.51h-.51l.51-.51ZM413.6,194v0Zm0,.52v0Zm1,0h0Zm1.54-99.95h0Zm.51-35.87v.51c0-.51,0-.51.52-.51Zm1,34.33h-.51a3.92,3.92,0,0,1,2.56-1Zm3.08-.51L422.83,91l1-.51a1,1,0,0,0-1.54,0l-.51.51c0-.51.51-1,2.05-1.53h-1l-1.54,1-.51.51v.52l-2.57,1.53c-.51,0-.51,0-.51.52h.51l1-.52Zm-2.57,136.85h0Zm.52-35.37v0Zm.51,0v0Zm1-101.48h0Zm.52-2h0Zm.51,1h0Zm.51-4.62h0Zm2.56-28.7-.51.52Zm.52-2.56h0ZM424.36,90l.52-.51h.51Zm.52-34.34.51-.51v.51Zm2.05,32.8h.51l-1,.51Zm.51,0h-.51l1-.51Zm-.51-.51v0ZM429,220.7h0Zm3.58-141.46h.52l-2.05,1h.51Zm1.54-21h0c0-.51,0-.51.51-.51Zm1.54,20.5-2.05.52,1-1c.52,0,1,0,1-.51h.51l3.08-1h-.52c0,.52,0,.52-.51.52Zm1,147.1v0ZM438.2,57.2h0Zm0-2.57c.51-.51,2.56-1,6.66-2.05-1,0-1.53,0-2.05.52a1.87,1.87,0,0,1-1.53.51,1.88,1.88,0,0,0-1.54.51A1.89,1.89,0,0,1,438.2,54.63Zm0,27.17h0Zm4.61-2-2.05,1a1.9,1.9,0,0,1,1.54-.51Zm0,1-.51.52v-.52Zm1-3.58c0,.51,0,.51-.51.51,0-.51.51-.51,1-.51Zm-.51,3.07c.51,0,.51,0,0,.51l1-.51c.51,0,.51,0,.51-.51,0,.51,0,.51-.51.51Zm3.58-28.19v.51h-1.53l.51-.51Zm-1,27.68c.51,0,.51,0,.51-.51Zm1-.51h0Zm.52-27.17,1-.51,1-.51.51.51h-.51Zm0,25.63h0ZM450,51.05c0-.52,0-.52.51-.52Zm.51,1h0Zm.51,2.56c0,.52,0,.52-.51.52Zm-.51,19h0ZM453.06,50c0,1-.51,1-1,.51l-1,.52h.52l-.52-.52h1.54l.51-.51v0ZM451,53.1h0ZM452,50h0Zm1,2h0Zm1,23.07h0Zm.51-23.58c.51,0,.51,0,0,.51Zm4.62,4.61h0Zm.51,0h0Zm.51,15.38h0Z" style="fill:#f5f5f5"/></svg>