<svg xmlns="http://www.w3.org/2000/svg" viewBox="0 0 476.12 479.32"><title>Artboard 8</title><circle cx="238.06" cy="239.66" r="232" style="fill:#ffec00"/><path d="M17.82,383.66v0Zm2.5.5v0Zm104-327.5h-.5l.5-.5h1l-.5-.5c1.5,0,2.5,0,3-.5l-.5-.5h-1.5c-3,0-5,0-6.5.5h-2l-.5.5-1.5.5h-1.5l-2,.5-2.5.5-1,.5-.5.5h-1.5a1.84,1.84,0,0,0-1.5.5,1.84,1.84,0,0,1-1.5.5h-1.5l-1,.5a1.84,1.84,0,0,1-1.5.5l-1,.5c0-.5-.5-.5-1,0l-3,1a1.84,1.84,0,0,1-1.5.5q-3,0-3,1.5h-.5l-1,.5-3.5,1.5-4.5,1.5-1.5.5-2.5,1h-.5c0,.5,0,.5-.5.5h-1l-.5.5a4.54,4.54,0,0,1-3.5,1.5l-2,1-1.5.5a3.82,3.82,0,0,1-2.5,1h.5c-1.5,0-2,.5-2,1h-.5c-.5-.5-.5-.5-1,0a1.84,1.84,0,0,1-1.5.5c-.5,0-1,0-1,.5l-1,.5-2.5,1,1-1v-.5l-1,.5c-.5,0-.5,0-.5.5v.5l-1,.5-1,.5c-.5-.5-.5-.5-.5,0l-.5.5h-.5l-2,1-1,.5c-.5,0-.5,0-.5.5h-.5l-.5.5-2,1-2,1c-1,0-2,.5-3.5,1.5h.5a1.84,1.84,0,0,0-1.5.5l-.5.5c-1,0-1.5.5-1.5,1-.5-.5-1,0-2,.5h.5l-.5.5c-1,0-1.5,0-2,.5l-.5.5-1,.5v1a1.84,1.84,0,0,1-.5,1.5,1.84,1.84,0,0,0-.5,1.5v3a1.84,1.84,0,0,0-.5,1.5v2l-.5,2c-.5.5-.5,1.5-.5,3v1l-.5,2v4l-.5.5v4l-.5,1.5v5.5c-.5.5-.5,1-.5,2.5v5.5c-.5.5-.5,1.5-.5,3.5v9a1.84,1.84,0,0,0-.5,1.5v.5h-.5l.5.5v13a1.84,1.84,0,0,0-.5,1.5c0,3.5,0,5-.5,5.5v5.5c0,1.5,0,2.5-.5,3v7h-.5v.5c.5,0,.5,0,.5.5v5.5c0,.5,0,.5-.5.5v.5l.5.5v2l-.5.5v1c0,.5,0,.5-.5,0v41c-.5,0-.5,0-.5.5v1h-.5c0,.5,0,.5.5.5v4.5c0,.5,0,1-.5,1v-.5l-.5-1v7.5h0v21l.5.5-.5.5.5,2.5v6.5l-.5,7.5v16.5c.5.5.5,2,.5,5l-.5,4,1,20.5v15.5h.5a1.84,1.84,0,0,0-.5,1.5l.5,2.5v17.5l.5,5v4c0,17.5,1,27.5,2.5,30v3l.5,2,.5,2,1,2v2l.5,1h.5l.5.5,1,.5,1-1h1.5v.5h1l1.5,1c.5.5,1,.5,1.5-.5h.5l.5.5,1-1h.5c0,.5.5,1,1.5,1l1,.5.5.5h1.5l.5.5h.5v1c.5,0,.5,0,.5-.5,0-1,.5-1.5,1.5-1,0,.5,0,.5.5,0v-1.5l1,.5a1.84,1.84,0,0,1,.5-1.5l.5-1v-1h.5v1a1.08,1.08,0,0,0,1-1v-3.5h-.5v-1l.5-.5v-1h.5l1,2c.5-.5.5-1,.5-2.5l-.5-1,.5-.5c0-1,0-1.5.5-2v-1c.5,0,.5-.5.5-1-.5-1-.5-1.5,0-2v-4.5a.94.94,0,0,1,0-1.5v-13c-.5-.5-.5-.5,0-1v-7a1.84,1.84,0,0,1,.5-1.5v-7l.5-4c0-1.5,0-2-.5-2.5l.5-1v-5h.5a1.84,1.84,0,0,1-.5-1.5v-2.5l-.5-.5v-1l.5-.5h.5l-.5-.5c.5-.5.5-.5,0-1-.5,0-.5,0-.5-.5v-15c-.5-.5-.5-1-.5-2.5v-2l.5-.5-.5-1v-.5c.5-.5.5-1.5.5-4v-21c.5-1,.5-3,.5-6.5v-6a1.84,1.84,0,0,1,.5-1.5v-3l.5-9.5v-12c.5-.5.5-.5,0-1v-2.5c.5-.5.5-1,.5-2s0-1.5-.5-2v-1.5a1.84,1.84,0,0,1,.5-1.5v-1c-.5,0-.5-.5-.5-1,.5-.5.5-1,.5-2.5v-3.5l.5-1.5c0-.5,0-1-.5-1v-3.5c.5-.5.5-1,.5-2.5l-.5-3.5a2.5,2.5,0,0,0,0-3v-1.5c.5-.5.5-.5,0-1v-.5c.5-.5.5-1,.5-2v-2c-.5,0-.5-.5-.5-1a.94.94,0,0,0,0-1.5l.5-1v-2.5l-.5-1a1.84,1.84,0,0,0,.5-1.5v-23l.5-.5c0-1.5,0-2,.5-2v-3.5c-.5-.5-.5-.5,0-1v-8.5c0-1,0-1.5.5-1.5l.5-1v-.5c-.5,0-.5,0-.5-.5l-.5-1v-3c-.5,0-.5,0,0-.5l.5-1v-2a3.19,3.19,0,0,1,0-3l-.5-.5v-2h.5v-2.5l.5-1v-1l-.5-3.5.5-1v-2.5c.5,0,.5,0,.5-.5v-1.5c0-1.5,0-2-.5-2.5,0-1.5,0-2,.5-2.5v-.5l.5-1.5a1.84,1.84,0,0,1-.5-1.5v-2.5a1.84,1.84,0,0,1,.5-1.5v-7c.5-.5.5-1,.5-2v-4.5a1.84,1.84,0,0,0,.5-1.5c0-.5,0-.5-.5-.5a1.84,1.84,0,0,0,.5-1.5l.5-.5v-4h.5v-.5l.5-.5h.5c.5,0,.5,0,.5-.5h.5c.5.5.5.5,1,0v-1l.5-.5h1a1.08,1.08,0,0,1,1-1l2.5-1.5h.5l-2,1.5-1,1-1,.5h-.5v1c.5,0,.5,0,.5-.5l3-2,1-.5v-.5l.5-.5c.5-.5,1-1,1.5-1v.5l.5-.5h.5l2-1.5h.5l1-.5,1.5-1c0-.5,0-.5.5-.5s.5,0,.5.5v-.5l1-1a1.84,1.84,0,0,0,1.5-.5l.5-.5h.5c0-1,1-1.5,2.5-1.5l1.5-1,.5-.5.5-.5a6.11,6.11,0,0,0,4.5-2,3.82,3.82,0,0,0,2.5-1h.5l.5-.5c0-.5.5-.5,1-.5s1,0,1-.5.5-.5,1-.5l.5-.5h.5c0-.5.5-.5,1-.5a1.84,1.84,0,0,0,1.5-.5l2-1,1-.5c.5,0,.5,0,.5-.5a7.7,7.7,0,0,1,3.5-1.5h-.5c.5-.5,1-.5,2-.5-.5-.5,0-1,1-1.5a1.84,1.84,0,0,1,1.5-.5c.5,0,.5,0,1-.5l4-1.5,3-1.5a1.84,1.84,0,0,1,1.5-.5c.5,0,.5,0,.5-.5h1l.5-.5,4.5-1,4-1,.5-.5v-.5a1.84,1.84,0,0,0,1.5-.5c-1,0-1.5,0-2,.5s-1,.5-2.5.5h-2l-2,1v-.5l-5.5,1.5h-1l-1,.5-5,2-1,.5a1.84,1.84,0,0,0-1.5.5l-1.5.5-1,.5c.5,0,.5,0,.5-.5l2.5-1.5a3.82,3.82,0,0,1,2.5-1l2.5-1.5,2-.5h.5l12.5-3.5,3-1.5,1-.5v-.5h-1.5l.5-1,1-.5h-.5a1.84,1.84,0,0,1-1.5.5h-1.5c0-.5,0-.5-.5-.5l-.5-.5-.5-.5c-.5,0-.5,0,0-.5.5,0,.5,0,.5-.5v-.5l-1-.5h-.5v-1h.5c.5-.5,0-.5-.5-.5s-.5,0-.5-.5l.5-.5c.5-.5.5-.5,1,0,.5,0,0-.5-.5-1-.5.5-.5.5-.5,0-.5,0-.5,0-.5-.5v-1l1-1h-2v-.5l-.5-1v-.5h-6.5l-1,.5h-1.5l-2,.5h-1.5c-.5.5-.5.5-.5,0-.5,0-.5,0-.5-.5h2.5l-.5-.5,3.5-1h1.5l1-.5,1-.5.5-.5c-.5.5,0,.5.5.5l.5-.5h-1ZM21.82,268.16h-.5l.5-.5Zm0-8c-.5-.5-.5-.5,0-.5Zm0-14.5v-2q.75,1.5,0,1.5Zm0,.5v0Zm.5-50v0Zm0,38.5v0Zm0,9c.5.5.5.5,0,.5Zm.5-79v0Zm0,3v0Zm0,26.5h0Zm1-43.5h0Zm-.5,52v0Zm0,87.5v0Zm.5-145.5v0Zm0,15c.5.5.5.5,0,1Zm.5,41c-.5.5-.5.5-.5,0Zm-.5,164v0Zm0,31v0Zm.5-257.5v0Zm0,26.5v0Zm0,219.5h0Zm1-262v0Zm0,7.5v0Zm0,10.5v0Zm0,74.5v0Zm.5,144c-.5-.5-.5-.5,0-.5Zm0-247v-.5c.5.5.5.5,0,1Zm.5,4v-.5l.5.5Zm0,8v0Zm6.5,33.5c-.5.5-.5,2.5,0,5.5-.5,0-.5.5-.5,1v5l-.5,6v10a1.84,1.84,0,0,0-.5,1.5l.5,1.5c-.5.5-.5.5,0,.5v3l-.5,6v9.5c0,.5,0,1-.5.5v.5c-.5,0-.5,0-.5.5a1.84,1.84,0,0,0-.5-1.5v-6.5h-1v9.5h.5c0,.5,0,.5.5.5,0,.5,0,.5.5,0-.5,0-.5.5,0,1v-1.5h.5v3l-1,1.5v0a1.84,1.84,0,0,1,.5-1.5v3.5l-.5.5c-.5.5-.5.5-.5,0v2.5a1.84,1.84,0,0,1-.5-1.5v6l-.5,5v13c0,2.5,0,4-.5,4.5v1a1.84,1.84,0,0,1-.5-1.5l-.5-.5v-48c.5-.5.5-1.5.5-3.5v-17.5c-.5-.5-.5-.5,0-.5.5-.5.5-.5,0-1s-.5-.5,0-1v-4h.5c-.5-.5-.5-1,0-1v-2c-.5-1.5-.5-2,0-2v-9.5a2.23,2.23,0,0,0,0-2.5c0-1.5,0-2,.5-2.5v-5.5c0-2,0-3,.5-3.5v-2.5l-.5-.5c.5-.5.5-2.5.5-7l.5-.5v-3l.5-.5v-7.5c.5-.5.5-2.5.5-6v-.5l.5-1v-3a44.07,44.07,0,0,0,1.5-10.5c0-1,0-1.5.5-2l.5-2.5v-3c.5,0,.5,0,.5-.5a1.84,1.84,0,0,0,1.5-.5l3-1.5,2-1,2.5-1.5a3.78,3.78,0,0,0,2-.5c.5-.5,1-.5,1.5-1l1-.5,1-.5a1.84,1.84,0,0,1,1.5-.5h1l1-.5.5-.5h1a1.84,1.84,0,0,1,1.5-.5l5.5-2c.5-.5,1-.5,2-.5h-.5c0,.5-1,1-2.5,1.5h-.5l-.5.5h-.5c0,.5,0,.5.5.5a1.84,1.84,0,0,0,1.5-.5l1-.5-2,1.5-2.5,1.5.5-.5a.94.94,0,0,1,1.5,0h1l.5-.5h1.5l2.5-1.5h1.5l.5-.5-2.5,1.5h-.5l-2,1h-.5c-.5,0-1,0-1,.5l-1,.5-3,1.5a1.84,1.84,0,0,1-1.5.5c-1.5,1.5-2.5,2-4,2l-2,1-1,.5-5.5,2.5-2,1-1,1h-.5v2a1.84,1.84,0,0,0-.5,1.5c0,1.5,0,2-.5,2.5v2.5c-.5.5-.5,1-.5,2.5l-.5,2.5v4.5c-.5,0-.5,0-.5.5v4l-.5,1v2.5l-.5,1v5.5l-.5,4.5v5a1.84,1.84,0,0,1-.5,1.5v2l-.5,4.5v13Zm-5.5,93.5c.5.5.5.5,0,1l.5-1h-.5l.5-.5Zm.5-154.5v-.5l.5-.5v.5Zm0,3.5v2c.5-.5.5-2,.5-3.5Zm0,31v0Zm.5-33.5.5-.5Zm0,100,.5-.5v2Zm0,58.5v0Zm1-74.5v-1l-.5-1c-.5.5-.5,1,0,1Zm-.5,3h.5v1Zm0,5.5c.5.5.5.5,0,1Zm0,1c.5.5.5.5,0,.5Zm0,14h.5v.5h-.5Zm0,16v0Zm0,1.5v0Zm0,38v0Zm.5-83v0Zm.5,4h-.5c.5,0,.5,0,.5-.5Zm-.5,143v0Zm1-179.5v-.5c.5.5.5,1,0,1Zm0,64.5v-1c.5,0,.5,0,.5.5Zm.5-68c.5-.5.5-.5.5,0Zm0,60v0Zm.5,7.5-.5,1v-2c0,.5,0,.5.5.5Zm-.5,1.5v0Zm.5-70.5c-.5,0-.5,0,0-.5Zm0,42.5v.5a.94.94,0,0,1,0-1.5Zm0,1v0Zm.5,27.5h0Zm0-65v0Zm0,1.5v0Zm.5,4.5v3c-.5,0-.5,0-.5-.5v-2.5c0-.5,0-1,.5-.5Zm0,5-.5.5v-.5Zm-.5,33v0Zm0,2.5v0Zm.5-42a.94.94,0,0,1,0-1.5Zm0-7v0Zm0,0v0Zm13,94.5h-.5l.5.5-.5-.5c0,.5,0,.5.5.5l2.5,2c0,.5,0,.5.5.5h.5a1.84,1.84,0,0,0,1.5.5c0,.5,0,.5.5.5h.5c.5,0,.5,0,.5.5h1l.5.5h1v-.5h2.5c.5,0,1,0,1-.5h1.5v.5c0-.5,0-.5.5,0,.5-.5.5-.5.5,0v.5h.5v-.5c-.5,0-.5,0-.5-.5h1.5v-.5h.5v-.5c.5.5.5.5.5,0h.5l.5-.5h.5c.5,0,.5,0,.5-.5h.5v-.5h1.5v-.5h1.5v-.5h.5l.5-.5h.5l.5.5-.5-.5.5-.5h.5l.5-.5h1.5c.5,0,.5,0,.5-.5h1l.5-.5v.5h.5l-.5-.5h.5v.5h.5v-1h1v0c.5,0,.5,0,.5.5.5,0,.5,0,.5-.5h1c0-.5,0-.5.5-.5s1-.5,1.5-1h.5l1-.5.5-.5h1.5v-.5h.5v.5h.5v0c-.5,0-.5,0-.5.5l1.5-.5v0l.5-.5h.5l.5-.5,1.5-.5h.5l1-1,1.5-.5h.5a1.84,1.84,0,0,1,1.5-.5l.5-.5a1.84,1.84,0,0,1,1.5-.5l.5-.5,2.5-1.5h.5c0-.5,0-.5.5-.5v-.5c.5,0,.5,0,.5.5v-.5c.5,0,.5,0,.5-.5h.5l.5-.5h.5l1-1,1-.5h.5a1.08,1.08,0,0,0,1-1c.5,0,1.5-.5,3-2,1-1,1.5-2,1-2.5h.5v-1h.5v-.5l-.5-1v-.5l.5-.5-.5-.5c-.5-.5-.5-.5,0-.5l-.5-1-1-1v-.5c-.5,0-.5,0-.5-.5l-.5-1-.5-1-.5-1-.5-.5-.5-.5v-.5c-.5,0-.5,0-.5-.5h-.5v-1l-.5-1c-.5,0-.5,0-.5-.5v-.5c-.5,0-.5,0-.5-.5v-.5l-.5-.5c-.5,0-.5,0-.5-.5v-.5l-.5-.5-.5-1c0-.5,0-.5-.5-.5a1.08,1.08,0,0,1-1-1h-.5l-.5-.5c0-.5,0-1-.5-1v.5h-.5l-.5-.5v-.5c-.5,0-.5,0-.5-.5h-1l-.5-.5c0,.5,0,.5-.5,0,0,.5,0,.5-.5.5h-.5c0,.5,0,.5-.5.5h-.5l-.5.5h-1.5c-.5,0-.5,0-.5.5h-1.5c-.5.5-.5.5-.5,0h-1v.5h-.5c0,.5,0,.5.5.5-.5,0-.5,0-.5-.5h-.5v1c0,.5-.5.5-1,.5l-1,.5h-.5v.5c-.5-.5-.5-.5-1,0h-.5c-.5,0-.5,0-.5.5h-2.5c-.5.5-1,.5-1,1h-1.5l-1.5.5h-1v.5h-1c-.5-.5-.5-.5-.5,0h-.5l-.5.5h-1.5v.5l-.5-.5c-.5,0-.5,0,0,.5h-1l-.5.5h-.5c0,.5,0,.5-.5,0v.5h-.5c-.5,0-.5,0-.5.5-.5-.5-.5-.5-.5,0h-1v.5h-.5c-.5,0-.5,0-.5.5h-.5l-.5.5h-2c-.5,0-.5,0-.5.5h-.5c0,.5,0,.5-.5,0v.5l-.5-.5h-.5v.5c0,.5,0,.5-.5.5h-.5c0,.5,0,.5-.5.5,0,.5,0,.5-.5,0v.5l-.5-.5-.5.5h-1a1.08,1.08,0,0,1-1,1v-.5c-.5,0-.5,0-.5.5v.5c-.5,0-.5,0-.5-.5-.5,0-.5,0-.5.5l-.5.5c-.5-.5-.5-.5-.5,0h-.5v.5c-.5,0-.5,0-.5.5v0q0-.75-1.5,0h-.5l-.5.5-.5.5h-1.5v1h-.5v.5l-.5.5c0-.5,0-.5.5-.5v-1.5h-.5v1.5c0,.5,0,.5-.5.5l-.5.5v.5h-.5v.5c-.5,0-.5,0-.5.5v0h-.5c.5.5.5.5,0,.5s-.5,0-.5.5h-.5l-.5.5h-.5v.5c0,.5,0,.5-.5,0,0,.5-.5,1-1.5,1h0c.5.5.5.5,0,1h-.5l-2,.5v0h-1.5l-1-.5c-.5,0-.5,0,0,.5h-.5l.5.5h1l1,.5h.5c0,.5.5.5,1.5.5h.5v.5l1-.5h1l-.5.5v.5h-1.5l-1.5-.5h-1.5v.5h-.5v.5l.5.5v.5c0-.5,0-.5.5-.5.5.5.5.5.5,1h.5l.5,1v.5l.5.5v.5h.5l.5.5.5,1v.5c.5,0,.5,0,.5.5v.5l.5.5v.5h.5l.5,1v.5c.5,0,.5,0,.5.5l.5.5.5,1h.5v.5l.5.5.5.5v0l.5.5,2,1,.5.5h-1l-.5-.5v.5c0-.5,0-.5-.5-.5v.5Zm-12-96v0Zm.5-54.5h0Zm1,131.5h0Zm1-1h-.5v-.5Zm0,1h0Zm.5-1.5v.5h0Zm0,.5v0Zm.5,0v0Zm.5.5h0Zm0,2v-.5c.5,0,.5,0,.5.5Zm1-1.5h0Zm1-2.5v0Zm.5-10.5h0Zm.5,9.5v1l.5-.5v-.5c-.5,0-.5,0,0-.5v-.5c-.5-.5-.5-.5-.5,0s0,.5-.5.5Zm-.5,0v0Zm.5,6h.5l-.5.5h-.5Zm.5-6.5h.5c0,.5,0,.5-.5.5Zm1,0h-.5l1-.5h-.5Zm.5,4.5h0Zm.5,25.5v1c-.5,0-.5,0-.5-.5Zm-.5,14.5v0Zm1-54.5v1.5l-.5-.5Zm0,7.5v0c-.5,0-.5,0-.5-.5v-.5l.5-.5.5-.5v1h0v.5h-.5Zm-.5,2.5v.5h.5a1.84,1.84,0,0,1-.5-1.5l.5-.5v4l-.5-1Zm.5,3v.5a1.84,1.84,0,0,1-.5,1.5v-.5l.5-1c0-.5,0-.5-.5-.5Zm-.5,1v0Zm.5,4v0h0Zm1-43v2.5q-.75,4.5,0,6c.5,0,.5,0,.5.5v1l-.5,1.5v-1.5l-.5.5a1.84,1.84,0,0,0-.5-1.5,1.84,1.84,0,0,1,.5-1.5,1.84,1.84,0,0,0-.5-1.5c.5-.5.5-1,.5-2.5v-4Zm-1,10v0Zm.5,6.5h0Zm0,1c-.5.5-.5.5-.5,0Zm0,1a1.84,1.84,0,0,0-.5,1.5v-2C43.32,198.16,43.32,198.16,43.82,198.16Zm-.5,16v0Zm0,7v0Zm0,13v0Zm0,25.5v0Zm.5-65c-.5-.5-.5-.5,0-.5Zm3.5,90v-1l.5-6.5v-6c0-3.5,0-5.5-.5-6v-4.5l.5.5v-10a1.84,1.84,0,0,1-.5,1.5v1.5c-.5,0-.5,0-.5-.5,0-1.5,0-2-.5-2.5v-3.5c0,.5,0,.5-.5,0v-1l-.5-.5.5-1v-.5c0-.5,0-.5.5-.5v.5a2.2,2.2,0,0,0-.5-2.5v-2l.5-.5h.5l-.5-1.5-.5-.5v-4l.5-2,.5,1.5v-3l-.5-1c0-.5,0-1,.5-1v-.5a1.84,1.84,0,0,1,.5-1.5v-1c-.5,0-.5-.5-.5-1v-1c-.5,0-.5-.5-.5-1.5v-2.5c0-4,0-6,.5-6.5v-43l.5-.5c-.5,0-.5-.5,0-1l-.5-1v-4.5c.5,0,.5,0,.5-.5v-.5c-.5,0-.5,0-.5.5v-2l-.5-1v1c0,1.5,0,3-.5,3.5l-.5-.5v-.5l-.5.5c.5.5.5.5,0,1v1l.5.5c-.5,0-.5,0-.5.5v2.5l-.5,4v2c0,1.5,0,2.5-.5,3v-5c0-.5,0-.5.5-.5v-2c-.5,0-.5,0-.5-.5a1.84,1.84,0,0,0,.5-1.5v-5c0-1.5,0-2-.5-2.5v-3c0-.5,0-.5.5-.5l.5-1v-1.5c-.5-.5-.5-1,0-1v-4.5l.5-.5v-.5c-.5,0-.5,0-.5-.5.5-.5.5-1,.5-2v6.5h1v1.5h1l.5-.5a1.84,1.84,0,0,0,.5-1.5q-.75-.75,0-4.5v-5.5c.5-.5.5-1.5.5-3v-4.5c.5-.5.5-1.5.5-3v-3l.5-4v-1.5c.5,0,.5-.5.5-1.5v-5l.5-1v-.5c-.5-1-1-1.5-.5-2s.5-1,.5-2v-1.5c.5-.5.5-1,.5-2v-1c.5,0,.5-.5.5-1l.5-.5v-.5c.5,0,.5,0,.5-.5s.5-.5,1-.5l.5-.5h.5l2-.5h.5l2-1-.5.5-.5.5a1.08,1.08,0,0,1-1,1c-.5,0-1,0-1,.5h-.5c0,.5,0,.5-.5.5h-.5l-1,.5c0,.5,0,.5-.5.5h-.5v1c-.5.5-.5.5,0,1v.5l.5-1v-1.5h.5v-.5c.5,0,1,0,1-.5l2-.5-.5,1,2-1h.5l2-1h.5l-1.5,1a1.08,1.08,0,0,0-1,1h.5v.5c-.5,0-1,.5-1.5,1a1.84,1.84,0,0,1-1.5.5v.5h-.5v5.5l-.5.5v3a1.84,1.84,0,0,1-.5,1.5v1.5l-.5,4v4.5l-.5,4.5v1l-.5,2-.5,3.5v7l-.5,1v14.5c0,1.5,0,2.5-.5,3v7.5l-.5.5v.5c.5,0,.5,0,.5.5v2l-.5,2v9.5l-.5,3v16.5a1.84,1.84,0,0,1-.5,1.5v8l.5-.5v.5c-.5,0-.5,0-.5.5v13.5l-.5,11v6.5c-.5.5-.5,1-.5,2.5v16l-.5,4.5c0,.5,0,.5-.5.5v6.5c-.5,2-.5,5.5-.5,11v1a1.84,1.84,0,0,0-.5-1.5Zm-3.5-106.5v0Zm.5,34.5v.5l-.5-.5Zm-.5,12.5v0Zm.5,11.5v0Zm.5.5h0Zm0-26.5c.5-.5.5-.5.5,0S45.32,211.16,44.82,210.66Zm0,26v0Zm14.5-139h-.5v.5a4.57,4.57,0,0,0-2.5,1.5l-2.5,1-1,.5-1,1h-.5l-.5.5h-.5v2c-.5.5-.5,1-.5,2l-.5,4-.5,1.5v1.5l-.5,1c.5,0,.5.5,0,1v.5c-.5,0-.5,0-.5.5l-.5,3q-.75,2.25,0,3c0,1,0,1.5-.5,2v6c-.5.5-.5,2-.5,4v2l-.5,2.5v-.5c0-1,0-1.5-.5-2l.5-1v-3a1.84,1.84,0,0,0,.5-1.5v-.5a1.52,1.52,0,0,1,0-2v-5a1.84,1.84,0,0,1,.5-1.5v-2.5c0-1.5,0-2.5.5-3v-2.5l-1-1v-4a1.84,1.84,0,0,1,.5-1.5v3c.5,0,1-1.5,1.5-4v-1a1.84,1.84,0,0,1,.5-1.5v-2h.5v-.5h1.5c0-.5.5-.5,1.5-1l2-1h.5c0-.5,0-.5.5-.5h.5l1.5-1,1-.5h1Zm-14,44.5c0-1.5,0-2,.5-2v.5c0,1.5,0,2.5-.5,2Zm0,2.5v-.5c.5.5.5.5,0,1Zm0,9.5.5.5-.5,1Zm0,77v0Zm0,6.5h.5v.5Zm0,1c0-.5,0-.5.5,0C45.32,238.16,45.32,238.16,45.32,238.66Zm.5,12.5v-1l-.5-.5c.5-.5.5-.5,1,0v.5Zm.5-12.5h-.5v-.5Zm0,32c.5,0,.5,0,.5-.5v1a.94.94,0,0,1,0,1.5v1.5l-.5-1c0,.5,0,.5-.5,0l.5-2Zm-.5,16.5v0Zm.5-1c-.5-.5-.5-.5,0-1Zm0-128v-.5l.5,1Zm0,68v0Zm.5,1h-.5l.5-.5Zm0,.5h0Zm-.5,8.5.5,1c-.5.5-.5.5-.5,0Zm0,4.5v-.5c.5.5.5.5,0,1Zm0,5,.5.5-.5.5Zm.5-138.5v0Zm0,6.5v0Zm.5,107.5v1.5l-.5-.5Zm-.5,17.5.5.5Zm.5-29.5v1.5a1.52,1.52,0,0,1,0-2Zm0,8c-.5-.5-.5-.5,0-1Zm0,2v1a.94.94,0,0,1,0-1.5Zm0-22,.5-2v2.5Zm0,1.5c.5.5.5.5,0,1Zm0,2v-.5l.5.5c0,.5,0,.5-.5.5Zm0,1c.5.5.5.5,0,1Zm0,2.5.5-.5a1.84,1.84,0,0,1-.5,1.5Zm0,7v0Zm0,1.5v0Zm0,1v0Zm0,24h0Zm1.5,2-1.5-.5h.5Zm-1.5,19.5.5.5c-.5,0-.5,0-.5.5Zm.5-157.5v0Zm.5,76.5h0Zm-.5,5v-1h.5c0,1,0,1.5-.5,2Zm0,3v-.5c0-.5,0-.5.5-.5Zm0,1v-.5l.5.5c-.5,0-.5,0-.5.5Zm0,3.5v0Zm0,2v0Zm0,34.5h.5v1Zm0,3.5h.5v2Zm0,3v0Zm.5,2.5h-.5l.5-.5Zm-.5,12.5v0Zm0-11v0Zm.5-60c-.5-.5-.5-.5,0-1Zm0,3.5c-.5-.5-.5-.5,0-.5Zm0,53.5c-.5-.5-.5-.5,0-1Zm.5-69.5v1.5l-.5-.5v-1c.5,0,.5,0,.5-.5Zm0,3.5h-.5v-1l.5-.5Zm0,1.5-.5.5v-1Zm-.5,1.5v0Zm0,2v0Zm0,2v0Zm0,42h0Zm0,1.5h0Zm0,3,.5-.5a1.84,1.84,0,0,1-.5,1.5Zm0,2.5v0Zm0,4.5v0Zm0,6v0Zm0,2.5h.5v.5Zm.5-23v.5c-.5-.5-.5-1,0-1Zm0,2c-.5-.5-.5-.5,0-.5Zm0,3c-.5-.5-.5-.5,0-.5Zm0-140.5.5-.5Zm0,73.5v-2c0-.5,0-.5.5-.5v2.5Zm0,4v0Zm0,5.5v0Zm.5,40.5-.5-.5h.5Zm-.5.5.5.5-.5,1v-1.5Zm0,7.5h0Zm0,2.5v0Zm0,8v0Zm.5-74.5v0Zm0,1v-.5c.5.5.5.5,0,1Zm0,2v0Zm0,46v0Zm0,1v0Zm0,0v0Zm0,1v0Zm0,3.5v0Zm31.5,5v.5h-.5l-1,.5h-1l-1,.5v.5h-1.5l-1,.5h.5l.5.5v-.5l.5.5c-.5,0-.5,0-.5.5v.5h0v.5l-.5.5-.5-.5v-.5c-.5,0-.5,0,0,.5,0,.5,0,.5-.5.5v0l-1,.5-.5-.5v-.5l-.5.5c.5,0,.5,0,0,.5v-.5h-.5l-.5.5v.5a.94.94,0,0,1-1.5,0l-.5.5c0,.5,0,.5-.5.5h-1v.5c0-.5-.5,0-1,.5h-.5c-.5,0-.5,0-.5.5h-.5v.5h-1c-.5,0-.5,0-.5.5h-.5v.5c0,.5,0,.5-.5.5h-.5v0h.5c-.5,0-.5,0-.5.5v.5l1-.5v1h2v-.5h.5v.5h-1v.5h-1v1h-1v-.5l-.5.5v0h-1v.5l-.5-1h1l-.5-1v-1c-.5,0-.5,0-.5-.5s0-.5-.5,0l-.5.5h-1l-.5.5h-1v.5c0,.5,0,.5-.5,0l-.5.5-.5-.5-.5.5c0,.5,0,.5-.5.5h-.5c.5.5.5.5,0,.5-.5-.5-.5,0-.5.5-.5-.5-.5-.5-.5,0h-.5c0-.5,0-.5-.5-.5v.5h-.5v.5c-.5-.5-.5-.5-1,0h-.5c0-.5,0-.5.5-.5v-1l.5.5v-.5h.5l.5-.5c0-.5-.5,0-1,.5h-.5v-.5h-.5c0,.5,0,.5-.5.5l-.5-.5.5-.5v-.5l-.5-.5h.5v-.5l.5-.5,1-1h1c.5,0,.5,0,.5-.5h.5l.5-.5h1.5v-.5l.5.5.5-.5h.5v-.5h1c.5,0,1-.5,1.5-1h.5l.5-.5h1.5c0-.5,0-.5.5-.5h1c0-.5,0-.5.5-.5h1l.5-.5h.5c.5,0,.5,0,.5-.5h1v-.5h1.5v-.5h1l.5-.5c.5.5.5.5.5,0l2-.5.5-.5.5.5h.5c0-.5,0-.5.5-.5l1-.5h.5c0-.5,0-.5.5,0,0-.5.5-.5,1,0h.5c-.5,0-.5,0-.5.5l.5-.5h.5l.5-.5c1-.5,1.5-.5,2,0Zm-31.5,4.5v0Zm.5-132.5h1c0-.5,0-.5.5-.5l-.5.5Zm0,43v0Zm0,13c0-.5,0-.5.5-.5-.5-.5-.5-.5,0-1v2Zm0,4.5v-2h.5v1.5Zm0,.5v0Zm0,1v0Zm0,1v-.5l.5.5c-.5,0-.5,0-.5.5Zm0,1v0Zm0,1v0Zm0,.5v0Zm.5,30-.5.5v-.5Zm-.5,3.5v0Zm0,3v0Zm0,7v0Zm0,34v-.5c0,.5,0,.5.5.5Zm1-121.5h0Zm0,28.5v.5a1.52,1.52,0,0,0,0,2v.5a17.68,17.68,0,0,1-.5-3Zm-.5,3.5v0Zm.5,85h0Zm-.5,1.5v0Zm0,3v0Zm1-99.5v-2.5l-.5,5v.5Zm-.5,31.5v0Zm0,64v0Zm0,1.5v0Zm.5-70c-.5-.5-.5-.5,0-.5Zm0-70.5h0Zm0,40v-.5l.5-1v1.5Zm0,1v0Zm0,21.5c.5,0,.5,0,0,.5Zm0,4v0Zm0,40v0Zm0,25v0Zm1.5-100.5-.5,1c.5,0,.5,0,0,.5v.5c0,.5,0,.5-.5.5v-1.5a1.84,1.84,0,0,1,.5-1.5c0-.5,0-.5.5-.5Zm-1,3.5h.5l-.5.5Zm0,1c.5.5.5.5,0,.5Zm0,1.5v0Zm0,21v0Zm0,.5v0Zm.5,86.5v.5h-.5c0-.5,0-1,.5-1v-.5c.5,0,1-.5,1.5-1h1c.5,0,.5,0,.5-.5l.5.5c.5,0,1,0,1-.5h.5c.5.5.5.5.5,0l1-.5h.5c0-.5,0-.5.5,0v.5h-1.5l.5.5c-.5.5-.5.5-1,0h-1l-.5.5-.5.5.5,1-.5.5v-1h-1.5c0,.5,0,.5-.5.5l-.5-.5v.5h-.5v.5h-.5Zm-.5,17.5v0Zm.5-114.5v-1.5c.5.5.5,1,0,2Zm0,2v0Zm0,2v0Zm.5,88h.5v.5h-1Zm.5-99h-.5c.5,0,.5,0,.5-.5Zm-.5,106v0Zm1-7h0Zm-.5,163.5h0Zm.5-164h.5v.5h-.5Zm.5,24.5c0,.5,0,.5-.5,0Zm-.5,39v0Zm0,85h0Zm1-148.5c-.5.5-.5.5-.5,0Zm-.5,7v0Zm0,18v0Zm.5,20h0Zm-.5,25c.5,0,.5,0,.5.5Zm0,24.5v0Zm0,43.5v0Zm0,2v0Zm1-252c0,.5,0,.5-.5.5Zm-.5,110h0Zm.5,1.5h.5c0,.5-.5.5-1,.5Zm-.5,134v0Zm.5,2h0Zm.5-248h0Zm-.5,1.5h0Zm.5,117h0Zm-.5,1c.5.5.5.5,0,.5Zm0,22.5h0Zm1.5-150-1,.5v-.5a1.84,1.84,0,0,1,1.5-.5Zm-1,7h0Zm.5,55.5v.5l-.5-2,.5.5v.5h1c0,.5,0,.5-.5.5,0,1,0,1.5-.5,2Zm-.5,47.5v0Zm0,8v0Zm0,6v0Zm11.5,9h1l.5-1c0,.5,0,.5.5.5v-.5h.5c.5-.5,1-.5,1,0l.5-.5h1c0-.5,0-.5.5-.5s.5,0,.5-.5l1-.5h2v1.5h-1c0,.5,0,.5.5.5v.5c.5,0,.5,0,.5-.5h1v-.5c0-1-.5-1.5-1-1.5,0-.5,0-.5.5-.5v.5c.5.5.5.5.5,0h.5c0,.5,0,.5.5.5v.5h.5a1.84,1.84,0,0,1,1.5-.5h1c0-.5,0-.5.5-.5,0-.5,0-.5.5,0h1v.5c.5.5.5.5,0,.5l-1,.5h-1v.5h-.5l-.5.5h-1v.5h-1v.5h-1l-.5.5h-.5c-.5,0-.5,0-.5.5h-1c0,.5,0,.5-.5.5-.5.5-.5.5-.5,0v.5h-.5v.5c-.5-.5-.5-.5-.5,0h-1c0,.5,0,.5-.5.5h-.5l-.5.5h-.5v.5h-1.5l-1,1-1,.5v-.5c0,.5,0,.5-.5.5h-.5l-1.5,1h-1l-.5.5h-.5c0,.5,0,.5-.5.5h-.5v.5h-1l-2-.5h-.5l.5-.5h.5l-.5-.5h-.5l.5-.5v-.5h-1c0-.5,0-.5-.5-.5h-.5v-.5h1.5l1-.5v-.5h1c0-.5,0-.5.5-.5l.5-.5h.5l.5-.5h.5c0-.5,0-.5.5,0,0-.5,0-.5.5,0v-.5h.5v-.5h1v-.5h1a1.84,1.84,0,0,0,1.5-.5v-.5Zm-11.5,7.5v-.5h.5v.5Zm0,0v0Zm0,6h0Zm0,.5h.5v.5Zm0,15v0Zm0,3.5v0Zm1-157h-.5l.5-.5Zm-.5,78v0Zm0,6v0Zm0,27.5v-.5h.5Zm0,9.5v0Zm0,1.5v0Zm.5,9.5h-.5c0-.5,0-.5.5-.5Zm0,5h0Zm1-161-1,.5c-.5,0-.5,0,0-.5Zm-.5,23,.5.5h-1Zm-.5,69.5h0Zm.5,10-.5-.5Zm0,24h0Zm-.5,7v0Zm.5,1.5c0,.5,0,.5-.5,0Zm-.5.5v0Zm0,20h0Zm.5-140.5v0Zm0,81.5h0Zm0,5v0Zm.5,25,.5.5-.5.5v-1.5h0v.5c0-.5,0-.5.5,0Zm0,8.5c-.5,0-.5,0,0-.5Zm0-141c0-.5,0-.5.5-.5Zm0,83h0Zm0,11.5v0Zm.5,6-.5,1v-.5Zm0,61.5-.5-.5Zm-.5,4.5v0Zm.5-89.5v-1.5l.5,1.5Zm.5,1.5h0Zm0,13-.5-1c0-.5,0-.5.5-.5Zm-.5,47.5v0Zm0,1.5v0Zm0,0h0Zm.5-76v0Zm0,5v0Zm.5,51.5h0Zm-.5.5v0Zm0,6c0-.5,0-.5.5-.5Zm0,2.5v0Zm0,36.5v0Zm.5.5-.5-.5Zm0-26.5c-.5-.5-.5-.5,0-.5Zm.5-27h0Zm0,16c-.5,0-.5,0-.5-.5Zm-.5,11v0Zm.5,26c0,.5,0,.5-.5,0Zm-.5,0v0Zm2.5-142h-.5l-1.5,1q0-.75,1.5-1.5Zm-2,23h0Zm0,92.5h0Zm0,0v0Zm0,4.5.5-.5v.5Zm.5-43.5c-.5-.5-.5-.5,0-.5Zm1-102.5-1,.5v-.5Zm-.5,141.5h-.5c0-.5,0-.5.5-.5Zm.5-105h0Zm-.5,4v0Zm1,100.5h-.5l.5-.5Zm-.5-104h0Zm0,131.5h0Zm1-163h.5c0,.5-.5.5-1,.5Zm-.5,20h0Zm0,107.5v0Zm0,4h0Zm.5,2h-.5v-.5h.5Zm-.5,1.5h0Zm0,2.5c.5,0,.5,0,.5.5Zm0,1v0Zm1-3.5h0Zm0-12.5h0Zm0,12c.5.5.5.5,0,.5Zm0,27v0Zm1.5-162c0-.5.5-.5,1-.5l-1.5,1h-.5Zm-1,22.5c.5-.5.5-.5.5,0Zm.5,112.5h0Zm-.5.5v0Zm.5-141.5c.5,0,1,0,.5.5Zm0,139.5v0Zm0,1,.5.5h-.5Zm.5-140h0Zm0,167.5v0Zm0,1v0Zm1-144h0Zm0,115.5c-.5.5-.5.5-.5,0Zm.5-116h0Zm0,2.5v.5h-.5Zm-.5,113h.5v.5Zm.5-140.5,1-.5Zm3,4.5v.5l-2.5,1h-.5l.5-.5Zm-2.5,136-.5.5v-.5Zm-.5,4.5h0Zm.5,14h0Zm0-13.5c-.5-.5-.5-.5,0-.5Zm.5-146.5h0Zm-.5,139.5v0Zm0,6v0c.5,0,1,0,1-.5v-1l.5,1v.5c0,.5,0,.5-.5,0v.5c0-.5,0-.5-.5-.5v.5h-.5v-.5Zm0,14.5c0-.5,0-.5.5-.5Zm0,8.5v0Zm.5-159.5v0Zm.5,130.5h0Zm0,2h-.5c0-.5,0-.5.5-.5Zm-.5,20v0Zm0,6v0Zm.5,1.5h0Zm.5-169.5h0Zm-.5.5h0Zm0,139.5v-.5l.5.5Zm.5,1.5c0,.5,0,.5-.5,0Zm-.5,18h.5v.5h-.5Zm0,0v0Zm.5,2.5h0Zm.5-30.5h0Zm0,10h0Zm-.5,4.5v0Zm0,21.5v0Zm.5-26v-.5c.5,0,.5,0,.5.5Zm0,4h0Zm0,13.5v0Zm1-13.5c-.5,0-.5,0-.5-.5Zm-.5,0v0Zm0,22.5c0-.5,0-.5.5,0Zm1-158h0Zm5.5,25,1-1v.5c.5,0,.5,0,.5.5h-.5l-2.5,1.5a1.84,1.84,0,0,1-1.5.5c0,1-1,1.5-2.5,1.5v.5l-.5-.5c.5,0,.5,0,.5-.5h.5v-.5l1-.5h1l.5-.5h0l.5-1,1-.5h.5v-.5h.5Zm-6,104v0Zm0,6v0Zm0,22.5v0Zm.5-161.5c-.5,0-.5,0,0-.5Zm0,125v0Zm0,8v0Zm0,.5v0Zm.5,1c-.5.5-.5.5-.5,0Zm.5-141h0Zm0,5.5c0,.5,0,.5-.5.5Zm-.5,133.5c.5.5.5.5,0,.5Zm.5.5h0Zm0,0h0Zm0,1c0,.5,0,.5.5,0Zm0,0v0Zm.5-9v0Zm1,13.5h-1l.5-.5Zm-.5-13v0Zm0,7h0Zm1-8h0Zm0,8h0Zm-.5,1.5v0Zm0,0v0Zm0,1v0Zm0,3h0Zm0,22v0Zm.5-168v0Zm0,140.5c0-.5.5-.5,2-1v.5a1.84,1.84,0,0,0-1.5.5Zm0-.5v0Zm0,.5v0Zm0,5.5v0Zm0,16v0Zm0-.5v0Zm.5-29.5v0Zm0,9.5h0Zm0,27.5v0Zm2-28v.5c0-.5,0-.5-.5-.5Zm.5,19.5c0,.5,0,.5-.5.5Zm.5-3c0,.5,0,.5-.5.5Zm.5-13v.5c0-.5,0-.5-.5-.5Zm-.5,13c.5.5.5.5,0,.5Zm0,2.5v0Zm.5-28v0Zm0,25.5h0Zm0,0v0Zm.5,7.5-.5-.5Zm0,.5h0Zm1,1h0Zm.5-27v-1h.5v1Zm1,1h0Zm-.5,18v0Zm1-126.5h0Zm7-3h.5l2.5-1-5.5,3c-1.5.5-2,0-1.5-.5s1-.5,2-.5l1-.5a.49.49,0,0,0,.5-.5Zm-3.5,128.5h.5c0,.5,0,.5-.5,0v0Zm0,6v0Zm1.5-.5h0Zm.5-132h0Zm2-.5h-.5l.5-.5Zm-.5,95.5v0Zm0,.5v0Zm1,0h0Zm1.5-97.5h0Zm.5-35v.5c0-.5,0-.5.5-.5Zm1,33.5h-.5a3.82,3.82,0,0,1,2.5-1Zm3-.5,2-1.5,1-.5a.94.94,0,0,0-1.5,0l-.5.5c0-.5.5-1,2-1.5h-1l-1.5,1-.5.5v.5l-2.5,1.5c-.5,0-.5,0-.5.5h.5l1-.5Zm-2.5,133.5h0Zm.5-34.5v0Zm.5,0v0Zm1-99h0Zm.5-2h0Zm.5,1h0Zm.5-4.5h0Zm2.5-28-.5.5Zm.5-2.5h0Zm-.5,33.5.5-.5h.5Zm.5-33.5.5-.5v.5Zm2,32h.5l-1,.5Zm.5,0h-.5l1-.5Zm-.5-.5v0Zm2,129.5h0Zm3.5-138h.5l-2,1h.5Zm1.5-20.5h0c0-.5,0-.5.5-.5Zm1.5,20-2,.5,1-1c.5,0,1,0,1-.5h.5l3-1h-.5c0,.5,0,.5-.5.5Zm1,143.5v0Zm1.5-164.5h0Zm0-2.5c.5-.5,2.5-1,6.5-2-1,0-1.5,0-2,.5a1.84,1.84,0,0,1-1.5.5,1.84,1.84,0,0,0-1.5.5A1.84,1.84,0,0,1,111.32,59.16Zm0,26.5h0Zm4.5-2-2,1a1.84,1.84,0,0,1,1.5-.5Zm0,1-.5.5v-.5Zm1-3.5c0,.5,0,.5-.5.5,0-.5.5-.5,1-.5Zm-.5,3c.5,0,.5,0,0,.5l1-.5c.5,0,.5,0,.5-.5,0,.5,0,.5-.5.5Zm3.5-27.5v.5h-1.5l.5-.5Zm-1,27c.5,0,.5,0,.5-.5Zm1-.5h0Zm.5-26.5,1-.5,1-.5.5.5h-.5Zm0,25h0Zm2.5-26c0-.5,0-.5.5-.5Zm.5,1h0Zm.5,2.5c0,.5,0,.5-.5.5Zm-.5,18.5h0Zm2.5-23c0,1-.5,1-1,.5l-1,.5h.5l-.5-.5h1.5l.5-.5v0Zm-2,3h0Zm1-3h0Zm1,2h0Zm1,22.5h0Zm.5-23c.5,0,.5,0,0,.5Zm4.5,4.5h0Zm.5,0h0Zm.5,15h0Z" style="fill:#2b2b2b"/><path d="M309.81,39.66l-2,9.5v3h.5l-.5,9.5v9.5l-1,15v1.5c0,2.5,0,4.5-.5,5a12,12,0,0,1,0,6,7.41,7.41,0,0,0,.5,3.5,20.6,20.6,0,0,1-.5,6l-1,26.5.5,4.5a36.92,36.92,0,0,1-1,6v8c.5.5.5,1.5.5,3a10.23,10.23,0,0,0,0,5.5l-.5,5,.5,3-.5,10.5-.5,6v7.5l-.5,4v1.5c.5,1.5.5,6.5.5,15-.5,2.5-.5,13.5-.5,33v5.5a5.48,5.48,0,0,0,0,4v7c0,1.5,0,2.5.5,3v5.5c-.5.5-.5,1.5-.5,3,0,1,0,1.5.5,2v11c0,.5,0,1,.5,1v3l-.5-1.5a2.23,2.23,0,0,0,0,2.5v2l.5,5-.5,4c.5.5.5,2,.5,4.5l-.5,3.5v7.5l-.5,7,1,4-.5,2.5v3.5l-.5,8.5c.5.5.5,4.5.5,11,0,2.5,0,4,.5,5,0,2.5,0,4.5-.5,5.5,0,1.5,0,2,.5,2.5a4.55,4.55,0,0,1-.5,4v1l.5,2,.5,3a20.6,20.6,0,0,1-.5,6v1.5a1.52,1.52,0,0,0,0,2,1.84,1.84,0,0,0,.5,1.5,1.84,1.84,0,0,1-.5,1.5l-1-1v4.5l.5,3.5v4c-.5,2-.5,3.5,0,4l-1.5-7a1.84,1.84,0,0,1-.5,1.5c-.5.5-.5,1,0,2l-.5,1,.5,1.5c.5,1,.5,1.5,0,2v.5c.5.5.5,1.5.5,3l.5,6,.5,3.5v2l-.5.5c0-1,0-1.5-.5-2v-1l-.5-1,.5,3.5-.5,1v3c-.5.5-.5,1,0,2v3.5l-.5-.5-1-1,.5,4.5.5,1q-.75-2.25-1.5-1.5l-.5,3v2c-.5,0-.5-1-.5-2.5s-.5-2.5-1-2.5v1c-.5,0-.5-.5-.5-1h-.5l-.5-.5-1-1.5c0-.5,0-.5-.5-.5h-.5l-.5-2-.5-.5v-1c-.5,0-.5,0-.5.5,0,1.5,0,2-.5,2.5,0,.5-.5,0-1-.5-.5,1-.5,1.5-1,1.5l-1-3c-1,.5-1.5.5-1.5-1v-.5l-.5-1.5-.5.5c-.5,0-.5.5-.5,1a2.8,2.8,0,0,0-.5,3c0,.5,0,.5-.5,0-1-1-1.5-2-1-2.5l-.5-.5v-1.5a1.84,1.84,0,0,1-.5-1.5,3.19,3.19,0,0,1,0-3c-1-5.5-2-9.5-2.5-12a3,3,0,0,0,.5-2c-.5-1-.5-1.5-1-2l-.5-1.5.5-4.5c-.5-.5-.5-1.5-.5-3.5l-.5-4c0-1,0-1.5-.5-2l.5-1v-3c-.5-.5-1-2.5-1-5.5l-.5-4v-4a4.23,4.23,0,0,1,0-3.5c-.5-.5-.5-2.5-.5-5.5v-1c-.5-.5-.5-2-.5-4.5v-4q-.75-2.25,0-3v-1c-.5-.5-.5-2-.5-3.5v-8.5c-.5-.5-.5-1.5-.5-3.5v-35a16.52,16.52,0,0,1,0-7l-.5-7.5a9.75,9.75,0,0,1,.5-4,18.75,18.75,0,0,0-.5-5.5c0-5.5,0-9,.5-10v-5h-.5c0-3.5,0-5.5.5-7-.5-.5-.5-2-.5-5v-4l.5-1v-1.5l-.5-1c0-2.5,0-4-.5-4.5l.5-1c0-4.5,0-6.5-.5-7l1-7.5a18.75,18.75,0,0,1-.5-5.5v-6.5c0-4.5,0-7.5.5-9.5v-.5l-1.5,7.5-3,15c-.5,1.5-.5,2-1,2.5l-2,12-1,5-1.5,11a1.84,1.84,0,0,1-.5,1.5l-.5,1v2l-.5,1.5a1.84,1.84,0,0,0-.5,1.5c0,1,0,1.5-.5,2a1.84,1.84,0,0,0,.5,1.5l-.5,1-1,4v1c-.5.5-.5.5,0,.5v1a24.86,24.86,0,0,0-1.5,8l-.5.5a3.82,3.82,0,0,0-1,2.5l-.5,2v1l-.5,3-.5,3,.5,2-1,1a6.46,6.46,0,0,0-1,4c0,3.5-.5,5.5-1,6v1.5c0,1.5,0,2-.5,2.5s-.5,1-.5,2v.5l-31.5-.5v-1c-.5-.5-.5-1-.5-2l.5-.5-.5-1-.5-1.5.5.5v-1c0-3.5,0-6-.5-6.5l-.5-1v-.5l-.5-.5h.5c-.5-.5-.5-1.5-.5-4v-1a2.5,2.5,0,0,1,0-3c-.5,0-.5,0-.5-.5l-.5-1v-1.5c0-1,0-1.5-.5-1.5v-1l-1-10-.5-5c0-1.5,0-3-.5-3.5l-1-10.5-2.5-17.5v-4.5a2.23,2.23,0,0,1,0-2.5c0-1.5,0-2-.5-2.5l-1-7.5-1-7.5c-.5-.5-.5-1-.5-2v-1.5l-1.5-9.5c.5-.5,0-2-.5-4.5v-.5l.5-4c-.5,1.5-1,3-.5,4-.5-.5-.5-1-.5-2.5a1.84,1.84,0,0,0,.5-1.5l-1,2c0,3,0,5-.5,6l-1,6v3c0,1.5-.5,5-1,10.5,0,3.5,0,5-.5,5.5v2l-1,9.5-.5,6-.5,3c-1.5,13.5-2.5,21.5-2.5,24.5l-.5,4.5-.5-1v2a12,12,0,0,1,0,6c-.5,2.5-1,4-.5,5,0,2.5-.5,4.5-1,5l-1,11-.5,3c-.5,1-.5,2.5-.5,5v1.5c0,1,0,1.5-.5,2a90.06,90.06,0,0,0-1,9.5v8c-.5,4.5-1,7-2,8.5l-.5,4-.5.5.5,3-.5,4-1,7c0,2.5-.5,4-1,4.5l.5,5c0,.5,0,.5-.5.5v5a1.84,1.84,0,0,0-.5,1.5c0,1,0,1.5-.5,2v3c-.5.5-.5,1-.5,2v1.5c0,2.5,0,4-.5,4.5v4.5c0,1.5,0,2-.5,2.5l-.5,3.5v3h-.5l-.5,1v-7c.5-.5.5-1,.5-2.5-.5,0-.5.5-.5,1v-4.5l-.5,2v-2.5l.5-.5v-4l-.5-.5,1-4.5v-8.5c.5-.5.5-1,1-2.5l-.5-4.5c0-.5,0-.5-.5-.5a13,13,0,0,0,1.5-5.5v-2l-.5,1v2.5l-1,4-1,11-.5,4a1.52,1.52,0,0,0,0,2c0,1,0,1.5-.5,2,0,1.5-.5,4-1,7.5,0,1.5,0,2-.5,2.5l-.5,3v1.5l-.5-.5c0,.5,0,.5-.5,0l-1,.5-.5,3v1l-.5-.5v-1l-.5-1.5-.5-1-.5-.5v1l-.5,1v2l-.5,1v-1.5a7.41,7.41,0,0,0,.5-3.5,3.75,3.75,0,0,1-.5-2.5l-.5.5-.5,2-.5-.5.5-1h-.5l.5-1c0-.5,0-.5-.5-.5l-.5.5-.5,1v1.5l-.5-1.5v-.5l-.5-1-.5-2v2c-.5-.5-.5,0-1,1v.5h-.5c-.5.5-.5,2-.5,4.5v1l-.5,1.5v.5c-.5-.5-.5-.5,0-1v-1l-.5-.5v.5c-.5.5-.5,1.5-.5,3.5l-.5-1,.5-2c-.5,0-.5-.5-.5-1.5l.5-6-.5-3.5c0-1,0-1.5.5-2l-.5-1,1-13.5,2-18.5c0-4,0-6.5.5-7.5v-4l.5-1,.5-8v-1a38.6,38.6,0,0,1,1-7.5v-12l-1,9.5-.5,9.5-1,8.5-.5,6.5c-.5,12-1.5,18.5-2.5,19.5v5.5l-1,8v7.5l-.5,4-.5,1.5v-4l-.5-1,.5-1.5c0-8,0-13,.5-14.5l1-6.5v-4.5c.5-.5.5-1.5.5-3.5v-1c.5,0,.5-.5.5-1a2.23,2.23,0,0,1,0-2.5v-8.5a44.58,44.58,0,0,1,1-5.5v-5.5l1.5-14v-2c-.5-1.5,0-3.5.5-6,0-1,0-1.5.5-2a1.84,1.84,0,0,0-.5-1.5v-2.5l-.5-1c.5-3.5,1-5.5,1-6.5l.5-5.5a9.75,9.75,0,0,0,.5-4c0-1.5,0-2.5-.5-3l1-5.5v-6.5c0-1.5,0-2,.5-2.5v-7l1-1v-1.5c0-2.5.5-7,1-13v-3.5c.5-.5.5-2,.5-4.5l.5-5v-3.5l.5-4.5c.5-.5.5-3.5.5-8a4.23,4.23,0,0,0,1-3c-.5-.5-.5-1.5-.5-3.5,1-1.5,1-3,.5-3.5v-1q.75-3,0-3l.5-1,.5-3.5c0-1,0-1.5-.5-2,.5,0,.5-.5,1-2v-6.5c.5-.5.5-1.5.5-3s0-2-.5-2.5v-.5h.5v-3l.5-6c-.5-1,0-2.5.5-4.5v-.5c0-4.5,0-7.5.5-8.5v-1l.5-2,.5,1v-1c-.5-.5-.5-1-.5-2.5l.5-4v-5.5c0-4.5,0-7.5.5-9v-4.5l.5-2c.5,0,.5,1.5,0,5a.94.94,0,0,0,0,1.5v1.5c.5,0,.5,0,.5.5l-.5,1,.5-.5v-5.5l1-8.5v-7c0-1.5.5-4,1-7.5v-1.5l.5-2c0-1,0-1.5.5-1.5v-3a9.75,9.75,0,0,1,.5-4c.5-1,.5-3,.5-5.5a12.19,12.19,0,0,1,0-6c.5-.5.5-2,.5-4.5a19.66,19.66,0,0,1,1-3l-.5-6,1-6a1.84,1.84,0,0,1,.5-1.5v-5l.5-3.5,28.5-1.5v.5a1.84,1.84,0,0,0,.5,1.5v1.5h.5l-.5.5.5-.5v2l.5,3v1l1.5,7,.5,3.5c.5.5.5,1,.5,2.5l-1,2.5.5,1,1,6.5,1.5,9v4.5l.5,1v.5l1.5,8-.5,1.5a87.66,87.66,0,0,1,1.5,12.5v.5a27.73,27.73,0,0,1,1.5,8.5l.5,3v2.5a6.46,6.46,0,0,0,1,4c0,2,0,3,.5,3.5l1,7v4c-.5.5-.5.5,0,1a1.84,1.84,0,0,0,.5,1.5c0,4,.5,7,1.5,8.5l1,7.5v1c0,2,0,3.5.5,4.5v2.5l.5,2c.5.5.5,1,.5,2,0,1.5,0,2-.5,2.5l.5,1.5c-.5.5,0,1.5.5,3,.5,1,.5,3,.5,5.5l1,7.5c0,3,0,5,.5,6v2l1-2a1.84,1.84,0,0,1,.5-1.5v-2c-.5-.5,0-2,1-4.5v-1c0-.5.5-1.5,1-3.5l.5-2c-.5.5-.5.5-.5,0l.5-.5c0-1.5,0-2.5.5-3,.5-1,.5-2.5.5-4.5a5.83,5.83,0,0,1,1-3.5l.5-3v.5c.5-.5.5-1.5.5-3.5,0-1.5,0-3,.5-3.5s1-2.5,1-6l.5-1v-.5c0-.5.5-1,1-1.5v-2.5c.5,0,.5,0,.5-.5l-.5.5a1.84,1.84,0,0,0,.5-1.5l.5-1v-.5c0-1,0-1.5.5-2v-4l2.5-10a3.75,3.75,0,0,0,.5-2.5.94.94,0,0,1,0-1.5l1-5,1.5-8c.5-2,1-3,1-3.5a5.83,5.83,0,0,1,1-3.5c0-.5,0-1,.5-1l.5-1.5v-2l.5-1v-2.5c.5-.5.5-1.5.5-3a3.82,3.82,0,0,0,1-2.5l-.5-1a6.11,6.11,0,0,0,1.5-4.5l.5-.5h-.5v-.5l1.5-7.5c.5-.5.5-1.5.5-3a1.84,1.84,0,0,1,.5-1.5v.5l1-2.5v-.5l1-4.5c.5-.5.5-2,.5-5,0-.5.5-1,1-1.5a41,41,0,0,0,1.5-9v-1c1.5-8.5,3-13,3.5-13l-.5-.5,1.5-2.5h-.5l-.5.5q.75-.75,1.5-4.5c0-3.5.5-5.5,1-5.5v-2.5Zm-143,351.5v0Zm0,1v0Zm1-329v0Zm.5,270.5-.5,1Zm.5-.5c0,.5,0,.5-.5.5Zm1-12c-.5,1-.5,3-.5,5.5l-.5-2.5.5-4v-.5Zm-.5,15.5c-.5.5-.5.5-.5,0Zm0-18.5.5-.5Zm.5,2,1-7.5v4.5Zm1.5,6.5v0Zm.5-19.5.5-.5Zm1-11.5v0Zm1-34.5c0-.5,0-1,.5-1Zm0,0v0Zm1-13.5-.5,1Zm0,7.5v-5l-.5,3Zm.5,48.5,1-10-.5,1v2.5l-.5,3-.5,10v2.5a.94.94,0,0,0,0,1.5Zm.5-56.5-.5,1,.5-7-1,6.5v-2c0-4,0-7,.5-8.5v-2l.5-4.5.5-2c.5-.5.5-1,.5-2v.5c0,1,0,1.5-.5,2v9.5l-.5,7Zm-.5,7c0,.5,0,.5-.5,0Zm0-6v0Zm1.5-20c0,2.5,0,4.5-.5,5.5v-.5C176.31,230.66,176.31,229.16,176.81,228.16Zm0,55-.5,6,1-3v-.5Zm2-75v5l-.5,2-1,6-.5,2,3-27c0,1.5-.5,4.5-1,9Zm-2,20c0-1,0-1.5.5-1-.5,0-.5,0-.5.5Zm1-17c0,.5,0,.5-.5,0v-1Zm.5-14,.5.5Zm2,204.5c-.5,0-.5,0-.5.5C179.81,401.66,179.81,401.66,180.31,401.66Zm-.5,1v0Zm0,0v0Zm1.5-238.5v4.5c0-.5-.5-.5-1,0v-1a25.8,25.8,0,0,1,1-5.5v-5l.5-2.5v-1.5c0-4.5,0-7,.5-7.5l.5-2.5v-2l.5,1.5c.5.5.5,1-.5,2v1c0,2,0,3-.5,3.5v3.5l-.5,1h.5v8l-.5.5v-.5Zm3-14c0,.5,0,.5-.5,0Zm1-1.5c-.5-.5-.5-2-.5-4.5.5-.5.5-1,.5-2.5v-.5c-.5,1.5-.5,4-.5,8.5Zm1-37.5-1,1.5Zm-.5,7.5c0,.5,0,.5.5.5v.5c-.5,0-.5,1-.5,3l-.5,3c0-2.5,0-4.5.5-5Zm-.5,272.5v0Zm1-274.5v1c-.5,0-.5,0-.5.5Zm-.5,1.5v0Zm.5,264.5v.5a1.84,1.84,0,0,0-.5-1.5Zm.5,0v-1a25.36,25.36,0,0,1,1-4.5l-.5-3v4c-.5,1.5-1,2.5-.5,2.5v.5a1.84,1.84,0,0,0-.5,1.5Zm0,8v-1a1.84,1.84,0,0,0-.5,1.5Zm0-3.5v0Zm0,0v0Zm1-16.5.5-2v-1c-.5,0-.5,0-.5.5Zm1.5-15.5c0-1.5,0-2.5.5-3,0-1.5,0-2.5.5-3-.5-.5-.5-1-.5-2.5l.5-1.5-.5,1v5l-1,2v3c0,1.5,0,2.5-.5,3v6.5c0-3,0-5,.5-6S189.31,357.16,189.31,355.16Zm-.5-17v-.5c-.5.5-.5.5,0,1Zm1.5-12.5-.5,2.5Zm.5-241v0Zm2.5-7.5v0Zm0,69v0Zm.5-31v9l1-13,.5-1,.5-10,.5,5c0-2,0-3,.5-3.5-.5,0-.5-1.5,0-5-.5-1-.5-3.5-.5-8l-.5-4.5c-.5,2.5-.5,3.5,0,3.5v.5c-.5,0-.5-.5-.5-1v1a121.77,121.77,0,0,1-1.5,15v7l.5-3,.5,1v2.5l-1,1.5v3Zm1,19.5c-.5,0-.5.5-.5,1v1C194.31,135.66,194.31,135.16,194.81,134.66Zm2.5-74.5c-1.5,0-2,0-2.5.5h2.5c0,2.5-.5,7-1,13v1l1,5,1,5,.5-5v3.5c0,1,0,1.5-.5,2l1,3v-2c0-3,0-5,.5-5.5a3.75,3.75,0,0,0,.5-2.5.94.94,0,0,1,0-1.5l.5-1.5v-5c-.5-.5-.5-2-.5-4.5l-1-5,1-.5v1a2.23,2.23,0,0,0,0,2.5v.5l.5-2v-2h0v-1h1v-1.5l5.5-.5-3.5.5v1h1v-1h1v1h.5v-1l2.5.5v-.5h.5v1a1.84,1.84,0,0,0,1.5-.5l.5-1h-10l12-.5-15.5.5a.94.94,0,0,0,0,1.5C197.81,59.66,197.81,60.16,197.31,60.16Zm-2.5,38,.5-.5Zm.5,27,.5-.5v-.5c-.5.5-1,3.5-1,8v.5c0-2.5,0-4.5.5-5Zm0-36.5.5-.5v.5Zm0,8h.5c0,.5,0,1-.5,1Zm0,6c0-2.5,0-4,.5-4.5Zm.5-14v0Zm0,32,1.5-12.5v.5c.5,0,.5,0,0-.5l.5-6v-1.5l-.5-3-.5,1a2.23,2.23,0,0,0,0,2.5v2c0,1.5,0,2-.5,2.5s-.5,1-.5,2.5v12.5Zm.5-27.5v0Zm.5,212.5.5-2Zm2.5-245.5v.5h-2v-.5Zm-1,66.5.5-5v-1a3.75,3.75,0,0,1,.5-2.5v-5.5c0-1.5,0-2-.5-2.5v4.5l-1.5,13,.5.5Zm-1,177v0Zm1.5-244.5c.5,0,1,.5,1.5,1h-1c-.5,0-.5,0-.5-.5Zm.5,18v.5a1.84,1.84,0,0,0-.5,1.5Zm-.5,2v0Zm0,33,.5,1h-.5Zm.5-36v0Zm0,0v0Zm.5,42.5v3l-.5,3,1-5v-1Zm-.5,159c.5-.5.5-2,.5-4a1.84,1.84,0,0,1-.5,1.5Zm1-212a1.84,1.84,0,0,0-.5,1.5A1.84,1.84,0,0,1,200.31,65.66Zm0-5.5h0Zm.5,30.5-.5,4.5v1c0,1.5,0,2.5.5,3l.5-6v-.5l.5-3.5,1-6c-.5,0-.5,0-.5-.5l-.5-3.5a29.51,29.51,0,0,1-1,7Zm-.5,35v0Zm.5-66.5v-2h0l.5,1Zm1,82v0Zm3-81h0Zm-1.5,28v0Zm0,90v.5c.5,0,.5,0,.5-.5Zm1.5-11.5c0,2,0,3.5-.5,4.5v3.5c0-2,0-3.5.5-4.5l.5-2.5v-4.5C204.81,163.66,204.81,164.66,204.81,166.66Zm0,19.5v3.5a17.68,17.68,0,0,0,.5-3,20.6,20.6,0,0,1,.5-6v-2l-.5.5v3a1.24,1.24,0,0,0-.5,2Zm2.5-128.5h0Zm-1.5,115v4.5l.5-2v-5l-.5,1v1.5Zm0,43.5v0Zm2.5-54v-1.5c1-6.5,1.5-11.5,2-15v-1.5l-1-9.5c-.5-.5-.5-2.5-.5-5l-1,12-1,7.5.5,4.5v-.5l.5-3,1.5-7a9.75,9.75,0,0,0-.5,4c0,2.5,0,4-.5,5s-.5,3-.5,6a41.58,41.58,0,0,1,1-6.5l.5-1-.5,1,.5,2c-.5.5-.5,1.5-.5,3l-.5,4.5Zm-1.5,21c.5-.5.5-.5,0-1Zm.5,31.5a.94.94,0,0,1,0-1.5Zm3.5-157.5h0Zm-2,145.5-1,1.5Zm0-56a1.84,1.84,0,0,0,.5-1.5v4.5Zm0,50,.5-1.5Zm0,6.5.5-.5c0-.5,0-.5.5,0Zm.5-60.5v0Zm.5-83.5h0Zm14.5,233c.5.5.5,1,.5,2.5l.5,3a1.84,1.84,0,0,0,.5,1.5c0,2,0,3,.5,3.5v-1.5l.5-3-1-3,1,2.5v-1l1-7.5h.5l-.5-2-.5-7-2.5-19.5c0-1.5,0-2.5-.5-3l-.5-2.5v-3l-.5-4.5-1-4.5.5-3.5c-1.5-9.5-2.5-15.5-2.5-18.5-.5-.5-1-3-1-7.5l-1-6a22,22,0,0,1-1-5v-3c-.5-.5-.5-1-.5-2.5s0-2-.5-2.5l-2-16c-.5-8-1-11.5-1-11l-.5-3.5-.5-2.5v1l-.5,2.5v3l-.5,2v2.5l-.5,2-.5.5v2.5l.5,3c0,2,0,3,.5,3.5v1.5a37.25,37.25,0,0,1,1,9c0,.5.5,2.5,1,5l1,9,.5,8a39.22,39.22,0,0,1,1,7l2.5,18v.5l1,5.5c0,1,.5,3,1,6.5a20.6,20.6,0,0,1,.5,6c-.5,1.5-.5,3,0,3.5v.5a7.41,7.41,0,0,1,.5,3.5,3.19,3.19,0,0,0,0,3,45,45,0,0,1,1.5,12.5l.5,1.5.5,5,.5.5Zm-13.5-110c-.5-.5-.5-.5-.5,0S210.31,182.66,210.81,182.16Zm9-123.5h-3l-.5-2.5-3,.5-1,.5.5,1h1v1h0l-.5,1c.5,0,.5,0,.5-.5v-.5h2l-.5,1.5c-.5,5.5-1,9-1,11l.5,2,.5,3.5,1,7a25.8,25.8,0,0,0,1,5.5v-4l-.5-4.5.5,4,.5,1c0-1.5,0-2.5-.5-3v-.5l1.5-10.5v-.5c-.5-1-.5-2.5-.5-5a9.75,9.75,0,0,0-.5-4c-.5-2-1-3-1-3.5Zm-6.5,115.5a20.71,20.71,0,0,1-1-7Zm-1,7.5v0Zm0,0c.5,0,.5.5.5,1.5Zm.5-22.5v0Zm.5-102.5h.5v.5c0,.5,0,1,.5,1h-.5v-.5Zm2.5,44-2-18v-3.5l-.5,1v3l1.5,10.5c.5,1.5.5,4.5.5,8,.5.5.5,1.5.5,3l.5-1-.5-1Zm-.5,90.5-2-17a98,98,0,0,1,2,16Zm-1-133a1.84,1.84,0,0,0,1.5.5l-2,.5Zm1,131.5-.5.5v1a1.84,1.84,0,0,1-.5-1.5l.5-.5Zm-.5-124v0Zm.5,4,.5,1Zm0,68.5v0Zm1.5-79c-.5,0-1,0-1-.5h1Zm-1,11.5v0Zm1,6c0,.5,0,.5-.5,0s-.5-1.5-.5-3l.5,1C216.31,75.66,216.31,76.16,216.81,76.66Zm-1,59.5.5-2.5-.5,1Zm0,57.5a1.84,1.84,0,0,1,.5,1.5Zm0,64.5v0Zm1-59.5c-.5-.5-.5-1.5-.5-3.5C216.31,196.66,216.31,198.16,216.81,198.66Zm0-119c-.5,0-.5-.5,0-1Zm0,121,.5,1v1.5l1,10v.5c-.5-.5-.5-1-.5-2.5l-1-8a.94.94,0,0,1,0-1.5Zm0-122v0Zm.5,37.5v1l.5,4a1.84,1.84,0,0,1,.5,1.5,25.33,25.33,0,0,0,1,6.5v.5c-.5-1-.5-2.5-.5-4.5a9.75,9.75,0,0,0-.5-4c-.5-2-.5-3,0-3.5l-1-6Zm1-27.5-.5-1a1.84,1.84,0,0,0,.5,1.5Zm5.5,22.5v-1.5l-.5-3.5c-.5-.5-.5-2-.5-3.5l-2-15a1.52,1.52,0,0,1,0-2v-1.5l-.5-2v2l-.5,3c0,2.5,0,3.5-.5,4v1c0,2,0,3-.5,3.5l-.5-5.5.5,7v5l.5,2-.5,2.5a44.07,44.07,0,0,0,1.5,10.5v2.5l.5,1c0,1.5,0,2,.5,2.5v4.5l.5,1,.5,1.5v1c-.5,1-.5,1.5,0,2l1,7.5c0,.5,0,.5.5.5v2.5a.94.94,0,0,0,0,1.5c.5,3.5,1,5,1,5.5,0,2,0,3.5.5,4,.5,5.5,1,9,1,11.5v4c1.5,4,2,8.5,2,14l2.5,14.5v1c.5,2.5.5,3.5,0,3.5v3.5l-.5-.5v.5l-1-5.5-.5.5a36.92,36.92,0,0,1-1-6v-1.5l-1-6c0-2.5,0-4.5-.5-5.5l-.5-2.5a1.84,1.84,0,0,0,.5,1.5v5.5l.5,4v3c.5,0,.5,1,.5,3,.5,3.5,1,5.5,1,7l.5,1v4c0,2.5,0,3.5.5,4l.5,1.5v2c.5,1.5.5,2.5,0,2v2c0,2.5,0,4,.5,4.5s.5,2,.5,3.5v2l2,9v2a.94.94,0,0,0,0,1.5v1h.5v4.5l1.5,5v1c-.5.5-.5.5,0,1v-2.5l-.5-4,.5-1a1.84,1.84,0,0,1-.5-1.5,6.46,6.46,0,0,0-1-4l.5-1c0-1.5,0-2-.5-2v-1l-.5-1.5.5,1v1h.5a68.32,68.32,0,0,0-1-9.5v-3a.94.94,0,0,1,0-1.5l.5.5.5,3v1.5c0,2,0,3.5.5,4.5l.5-1,.5,1-1,1.5v2a1.84,1.84,0,0,1,.5,1.5c0,1,0,1.5.5,2l-.5.5v.5l.5-1c0,2.5,0,3.5.5,4v2l.5-2.5c.5-.5.5-1,.5-2v1c.5.5.5,1,.5,2v2c0,.5,0,.5.5.5,0-2.5,0-3.5-.5-4l-.5-1.5,1-3,1-6-.5-3v-2.5c0-2.5,0-4-.5-4.5-.5,0-.5,0-.5-.5v-6l-1-5.5c0-1.5-1.5-11.5-4-29.5a43.76,43.76,0,0,0-1-8,15.41,15.41,0,0,1-.5-5v-2l-1-4.5c.5-1,0-2.5-.5-5v-2l-.5-2-1-11.5a67.46,67.46,0,0,0-1.5-10,90.34,90.34,0,0,0-2-15.5c0-2.5,0-4-.5-4.5A.94.94,0,0,1,223.81,111.16Zm-2,6q-.75-1.5-3-21v-.5l1.5,11Zm-1.5,18.5-1-5.5v.5Zm-1,86v0Zm1-84-.5,1,.5,1.5a4.23,4.23,0,0,0,1,3v1a2.23,2.23,0,0,0,0,2.5l.5,4,.5,7v-9l-1-6-1-6.5Zm.5-41v0Zm.5-40.5.5,1.5v-.5Zm0,33.5v0Zm0,18.5c.5,0,.5,0,.5.5Zm.5,1v0Zm1,5v.5l-1-5.5Zm.5,15-1.5-8v-3l1.5,10v1Zm-1-59v0Zm1,48v0Zm0,1v0Zm0,14v0Zm.5,33c0,1.5,0,2,.5,2.5h.5a11.26,11.26,0,0,1-.5-3.5l-.5-1v-2.5c-.5,0-.5,1-.5,2.5C223.81,164.66,223.81,165.16,223.81,166.16Zm0-42v0Zm.5,16h-.5v-5l.5,5.5Zm.5,1.5c-.5,0-.5-.5-.5-1Zm.5,35.5v-1l-.5.5c0,.5,0,1,.5,1Zm1-26a2.23,2.23,0,0,0,0,2.5v1.5c-.5-.5-.5-2-.5-5.5a1.84,1.84,0,0,1-.5-1.5l.5,1C226.31,149.66,226.31,150.16,226.31,151.16Zm-1,137,.5,1Zm.5,1v0Zm1,16.5c-.5.5-.5,2-.5,4l25.5,1,.5-5h-3.5l-.5,3.5v.5l-18-.5v-4h-.5v-1a1.84,1.84,0,0,1-.5-1.5c0-.5,0-.5-.5-.5l.5,1,.5,2c-.5-.5-1.5-.5-3-.5Zm0-157,.5.5h-.5Zm0,11v0Zm0,128v0Zm.5-123.5a.94.94,0,0,0,0-1.5c.5,0,.5,0,.5.5v2Zm0,137v0Zm.5-133,.5,1.5Zm0,132.5v0Zm.5-128.5v0Zm.5-10.5v0Zm.5,6v-.5c-.5-.5-.5-.5,0-.5Zm.5,13.5c.5,1,.5,1.5,0,2v-2l-.5-1Zm0,3.5c.5.5.5,1.5.5,4Zm0,25.5v0Zm0,0c.5.5.5,1.5.5,3.5C229.81,213.16,229.81,212.16,229.81,210.16Zm0,95v0Zm1-129.5-.5,1.5v-.5Zm0,16.5c-.5,0-.5,0-.5-.5s0-.5.5,0Zm1-4c0-1,0-1.5-.5-2Zm-.5,8.5v0Zm1,3.5v2l-.5.5.5-1a3.75,3.75,0,0,0-.5-2.5v-.5a1.84,1.84,0,0,1-.5-1.5v1Zm3,105c-2,0-3.5,0-4,.5l2.5.5v.5l.5-.5h1Zm-3-84c-.5,0-.5,0-.5-.5Zm0-14.5c.5.5,1,3,1,6.5Zm0,15.5v0Zm1-8.5.5,3c-.5-.5-.5-1.5-.5-3.5Zm.5,92c0,.5,0,.5.5.5Zm2-71.5-1.5-13.5v-.5l.5,1.5,1.5,13c0,2,0,3,.5,3.5v1.5c0-.5,0-1-.5-1Zm-1.5,69h.5v-1.5Zm1.5-62.5v.5h-.5v.5Zm0,54v0Zm1-51.5v0Zm1,32.5c-.5-.5-.5-1-1-1a22,22,0,0,0,1,5v-4Zm-1,13.5c.5-2.5,1-4.5,1-5Zm.5,16.5v0Zm.5-53c.5.5.5,1,.5,2.5l.5,1c-.5-.5-.5-2-.5-4l-.5-1.5v2Zm1-56h0Zm.5,62.5v2.5l-1,4a31.78,31.78,0,0,0,1.5,7.5l.5,4c0-2.5,0-4,.5-4.5v-1.5c.5-.5.5-1.5.5-3,0-1,0-1.5.5-2l.5-1-.5-1v-.5l.5-.5v-2.5c0-1.5,0-2.5-.5-3l-1-5-1,8-.5.5Zm-.5,17.5v0Zm1-15.5-.5,2.5v-2.5Zm0,32.5h-.5v2c.5,0,.5,0,.5-.5v-1.5Zm0-29a1.84,1.84,0,0,1,.5-1.5Zm0,3.5v-3a3,3,0,0,1,.5,2,3.78,3.78,0,0,0-.5,2Zm.5-67.5v0Zm.5,22v-1.5l-.5-2c.5.5.5,2,.5,4Zm-.5,45.5a25.1,25.1,0,0,0,1-6l1-1-.5,1-.5,4v1l-1,1.5v-.5Zm.5,4.5-.5-2,.5.5Zm0,14-.5,1Zm0-1.5v-2l.5-.5v-.5c-.5,0-.5,0-.5.5Zm.5,22v-.5h0c0,.5,0,.5-.5.5Zm0-25.5v0Zm0,23.5v0Zm1-19-.5-3c0,2,0,3.5.5,4Zm0-13v0Zm.5-17v0Zm1-12-.5.5.5,1Zm0,39-.5-.5c0,1,0,1.5.5,2Zm4,22.5h-3v-1l-.5-2.5-.5-1c0,2,0,3.5.5,4v.5l-1-.5v1l1.5.5Zm1-96c-2,10.5-3,16-3,17.5l-1,4.5-.5,3,.5,3.5-.5,3-.5,1.5h.5l.5-1v-2.5l.5,1a1.84,1.84,0,0,0,.5,1.5l-.5,1,.5,1.5v.5l.5,1c0,1,0,1.5.5,1.5l-.5-4v-1l1.5-9,1.5-7.5.5-2,.5-2c.5-.5.5-2,.5-3.5l1-5c0-1.5,0-2,.5-2.5l1-6,2-8.5,1-4c0-1.5,0-2,.5-2.5v-1c.5-2.5,1-4,.5-4.5,0-.5.5-1,1-1.5v-1l.5-5.5.5-3c.5-.5.5-1.5.5-3,0-2.5.5-3.5,1-3.5,0-1.5,0-2,.5-2.5v.5c0-.5,0-.5.5-.5v-1h-.5l.5-1v-.5l.5-1,.5-3c.5-.5.5-1.5.5-3.5v-1l1.5-7,.5-2v2.5l-.5,2.5c.5-.5,1-2.5,1.5-7l3-12.5-.5-2.5,1.5-5.5v1c0,.5,0,.5.5,0v-1.5a17.29,17.29,0,0,0,1.5-6,1.84,1.84,0,0,0-.5-1.5,45.1,45.1,0,0,1,1.5-7.5v1c.5.5.5.5.5,0v-1.5a4.54,4.54,0,0,0,1.5-3.5v-2a4.23,4.23,0,0,1,1-3v-1l-.5.5c0,.5,0,.5-.5.5v-.5l1-2.5,1-6.5c0-4,0-6.5.5-7.5v-1c.5-1,.5-2.5.5-5a5.52,5.52,0,0,1,0-4v-1a41,41,0,0,0-1.5,9l-.5,1.5v2l-.5,2.5a25.36,25.36,0,0,0-1,4.5,68.18,68.18,0,0,0-2,8.5l-2,7.5a41.58,41.58,0,0,0-1,6.5l-1,4.5a3,3,0,0,0-.5,2,1.84,1.84,0,0,1-.5,1.5l-4.5,22-3,13.5-1,6-1.5,6-1,6c-1.5,5-2,8-2,9.5a18.65,18.65,0,0,0-1,6,17.29,17.29,0,0,0-1.5,6l-1.5,5.5c.5,1,.5,1.5,0,2v-.5A68.18,68.18,0,0,0,248.81,209.66Zm-4.5,40.5v-1c0,.5,0,.5-.5.5Zm.5,55.5v1l-.5-1Zm0-66.5v0Zm.5,5.5-.5,3Zm.5-4,.5-1Zm0,0c.5-.5.5,0,0,.5Zm.5,2.5-.5,1.5v-.5Zm.5-6.5a1.84,1.84,0,0,1-.5,1.5Zm-.5,1.5v0Zm0,10.5h.5v-1Zm2,61v0Zm1.5-91.5c.5,1.5,0,3.5-.5,5.5-.5.5-.5.5-.5,0v-.5A14.79,14.79,0,0,0,249.81,218.16Zm0,54.5v0Zm.5-63,.5-1Zm0,1v0Zm0,7.5v0Zm0,63,.5-1c0,.5,0,.5-.5.5Zm.5,25v.5l-.5.5Zm-.5,2v0Zm.5-72v0Zm23-42.5c.5-.5.5-2,0-3.5.5-.5.5-1,.5-2.5,0-1,0-1.5.5-2a4.23,4.23,0,0,0,1-3v-6c0-2,0-3.5.5-4l-1.5,5.5q-3,14.25-3,16.5l-.5,1.5v0c-.5,0-.5.5-.5,1v1l-.5,2.5v.5l-1,.5v.5l-2,6.5a25.36,25.36,0,0,0-1,4.5v2a2.31,2.31,0,0,0-1.5,2.5v3.5h-.5l.5-.5-.5.5-.5,2c.5-.5.5-1,.5-2v3.5a3.75,3.75,0,0,1,.5-2.5c.5-.5.5-1,.5-2l.5,1-.5,1-.5.5,1-1-.5,3.5.5-1c0,2.5,0,3.5-.5,4a25.33,25.33,0,0,0-1,6.5,9.75,9.75,0,0,0-.5,4c-.5.5-.5.5-.5,1a1.84,1.84,0,0,1-.5,1.5,4.23,4.23,0,0,0-1,3c-.5,2.5-1,6.5-2,12-.5,0-.5,0-.5-.5h.5v-.5c-.5,0-.5,0-.5.5-.5.5-.5.5-.5,0l1-1c0-1.5,0-2,.5-2.5l-.5-2,1.5-5v-2c0-1.5,0-2,.5-2.5,0-.5.5-1,1-1.5s0-1.5-.5-2c.5,0,.5,0,.5-.5v-3c.5-.5.5-1.5.5-3l-.5,1-.5.5c-.5,0-.5.5-.5,1.5v1c-.5.5-.5,1-.5,2l-5.5,28a12.72,12.72,0,0,1-1,3.5,36.92,36.92,0,0,1-1,6l-1.5,10-1,7v1.5c.5.5.5,1,.5,2.5l.5,1.5.5,5v1l.5-1v-1.5l1-6a1.84,1.84,0,0,0,.5-1.5,17.29,17.29,0,0,1,1.5-6l-.5-1.5c.5,0,.5-1,.5-3l1-3v-1.5l.5-3a19.66,19.66,0,0,0,1-3v-1.5c-.5-.5-.5-.5,0-1l1-2.5v-1l1.5-8a1.84,1.84,0,0,1,.5-1.5l-.5-.5,1-3.5c.5-.5.5-2,.5-3.5a50.61,50.61,0,0,1,2-11l2.5-15c.5-.5,1-1,1-1.5s0-.5.5-.5v-1a3.19,3.19,0,0,1,0-3,1.84,1.84,0,0,1,.5-1.5l.5-1.5c.5-.5.5-1,.5-2l-.5-1,2.5-9.5v-2l.5-1.5.5-2.5A1.84,1.84,0,0,1,273.81,193.66Zm-22,12.5-.5,1v-2c.5-.5.5-1,.5-2Zm0,4.5c0,1,0,1.5-.5,2C251.31,211.66,251.31,211.16,251.81,210.66Zm-.5,2v0Zm.5,92v-.5c-.5,0-.5,0-.5-.5Zm0-26,.5,2Zm.5-114,.5-.5v.5l-.5.5Zm.5,3.5a1.84,1.84,0,0,0-.5,1.5Zm0,35v5l-.5.5a1.84,1.84,0,0,1,.5-1.5Zm.5-43v0Zm.5,39,.5-1v.5Zm0,0v0Zm0,90c0-1.5,0-2,.5-2.5v.5C253.81,287.66,253.81,288.16,253.81,289.16Zm1-100v-.5a1.84,1.84,0,0,1-.5,1.5Zm-.5,7.5v0Zm.5,89.5v0Zm.5-102.5q.75-.75,0,1.5Zm0,26.5,1-2v-1.5Zm.5-21,1-1v1a4.23,4.23,0,0,0-1,3Zm.5-8a9,9,0,0,1,1.5-5.5,22,22,0,0,0-1,5Zm.5,2.5c.5-3.5,1-5,1.5-5Zm0,19.5v1.5l1-3.5q.75-2.25,0-3Zm1-60.5v0Zm0,29.5.5-2c0,2,0,3-.5,3Zm0,24.5,1-2v1Zm1,56a4.23,4.23,0,0,1-1,3Zm0,11c0,1,0,1.5-.5,2a14.6,14.6,0,0,1,1-4.5C258.81,261.66,258.81,262.16,258.81,263.66Zm-.5,2v0Zm1-7c0-1,0-1.5.5-1.5A1.84,1.84,0,0,1,259.31,258.66Zm1-95.5c-.5,0-.5.5-.5,1a1.84,1.84,0,0,1,.5-1.5Zm-.5,93v0Zm1.5-90.5.5.5v-1Zm1-12v.5c0,1.5,0,2-.5,2.5Zm-.5,8v0Zm1-10.5-.5,1.5Zm.5-1.5-.5,1.5Zm.5,76c0,.5,0,1-.5,1v-.5a1.84,1.84,0,0,1,.5-1.5l-.5,2c0,1,0,1.5-.5,2,.5,0,.5,0,.5-.5v1Zm-.5-76v-1.5l.5-3Zm.5,77.5c-.5,0-.5,0-.5-.5Zm1-122v0Zm1.5,30.5-.5,1Zm-.5,88c.5,0,.5,0,0,.5Zm3.5-104,.5-3.5-2.5,14-1,1Zm-3,16,.5-2.5Zm.5,77.5c0-2.5,0-3.5.5-4v1c-.5.5-.5,1.5-.5,4Zm2-83-.5,1-1,3.5.5-1a11.26,11.26,0,0,1,.5-3.5Zm-1.5,5c.5.5.5.5,0,.5Zm0,74,1-2a1.84,1.84,0,0,1-.5,1.5Zm2.5-93,3-13.5Zm1.5,1-1,2.5v-.5Zm-1,4v0Zm.5,76,.5-1-.5,1.5Zm4-104.5.5-.5v.5l-1.5,6.5-1,3.5.5-2Zm.5-34-1,.5Zm-.5,40.5v3.5c-.5,0-.5,0-.5-.5Zm.5-7,.5-1Zm.5,292.5-.5-.5c0-.5,0-.5.5,0Zm1.5-303.5v3.5l-1.5,4Zm-1.5,7.5v0Zm0,1.5v0Zm1,.5c0,.5,0,.5.5.5v-2.5C277.31,89.66,277.31,90.16,276.81,90.66Zm.5,13a1.84,1.84,0,0,1-.5,1.5v2l.5-1.5v-2Zm0-22.5c0-.5,0-1,.5-1Zm7-33v-6l-1.5,7c-.5.5-.5,1-.5,2.5s0,2-.5,2.5h1v-.5c0-.5.5-1,1-1.5l-.5,1.5a9.65,9.65,0,0,0,1.5-5Zm-2.5,11v0Zm13.5,51.5v0Zm9,162.5v0Zm0,5.5v0Zm0,6v0Zm0,1.5v0Zm0,2v0Z" style="fill:#2b2b2b"/><path d="M339.81,383.66v0Zm2.5.5v0Zm104-327.5h-.5l.5-.5h1l-.5-.5c1.5,0,2.5,0,3-.5l-.5-.5h-1.5c-3,0-5,0-6.5.5h-2l-.5.5-1.5.5h-1.5l-2,.5-2.5.5-1,.5-.5.5h-1.5a1.84,1.84,0,0,0-1.5.5,1.84,1.84,0,0,1-1.5.5h-1.5l-1,.5a1.84,1.84,0,0,1-1.5.5l-1,.5c0-.5-.5-.5-1,0l-3,1a1.84,1.84,0,0,1-1.5.5q-3,0-3,1.5h-.5l-1,.5-3.5,1.5-4.5,1.5-1.5.5-2.5,1h-.5c0,.5,0,.5-.5.5h-1l-.5.5a4.54,4.54,0,0,1-3.5,1.5l-2,1-1.5.5a3.82,3.82,0,0,1-2.5,1h.5c-1.5,0-2,.5-2,1h-.5c-.5-.5-.5-.5-1,0a1.84,1.84,0,0,1-1.5.5c-.5,0-1,0-1,.5l-1,.5-2.5,1,1-1v-.5l-1,.5c-.5,0-.5,0-.5.5v.5l-1,.5-1,.5c-.5-.5-.5-.5-.5,0l-.5.5h-.5l-2,1-1,.5c-.5,0-.5,0-.5.5h-.5l-.5.5-2,1-2,1c-1,0-2,.5-3.5,1.5h.5a1.84,1.84,0,0,0-1.5.5l-.5.5c-1,0-1.5.5-1.5,1-.5-.5-1,0-2,.5h.5l-.5.5c-1,0-1.5,0-2,.5l-.5.5-1,.5v1a1.84,1.84,0,0,1-.5,1.5,1.84,1.84,0,0,0-.5,1.5v3a1.84,1.84,0,0,0-.5,1.5v2l-.5,2c-.5.5-.5,1.5-.5,3v1l-.5,2v4l-.5.5v4l-.5,1.5v5.5c-.5.5-.5,1-.5,2.5v5.5c-.5.5-.5,1.5-.5,3.5v9a1.84,1.84,0,0,0-.5,1.5v.5h-.5l.5.5v13a1.84,1.84,0,0,0-.5,1.5c0,3.5,0,5-.5,5.5v5.5c0,1.5,0,2.5-.5,3v7h-.5v.5c.5,0,.5,0,.5.5v5.5c0,.5,0,.5-.5.5v.5l.5.5v2l-.5.5v1c0,.5,0,.5-.5,0v41c-.5,0-.5,0-.5.5v1h-.5c0,.5,0,.5.5.5v4.5c0,.5,0,1-.5,1v-.5l-.5-1v7.5h0v21l.5.5-.5.5.5,2.5v6.5l-.5,7.5v16.5c.5.5.5,2,.5,5l-.5,4,1,20.5v15.5h.5a1.84,1.84,0,0,0-.5,1.5l.5,2.5v17.5l.5,5v4c0,17.5,1,27.5,2.5,30v3l.5,2,.5,2,1,2v2l.5,1h.5l.5.5,1,.5,1-1h1.5v.5h1l1.5,1c.5.5,1,.5,1.5-.5h.5l.5.5,1-1h.5c0,.5.5,1,1.5,1l1,.5.5.5h1.5l.5.5h.5v1c.5,0,.5,0,.5-.5,0-1,.5-1.5,1.5-1,0,.5,0,.5.5,0v-1.5l1,.5a1.84,1.84,0,0,1,.5-1.5l.5-1v-1h.5v1a1.08,1.08,0,0,0,1-1v-3.5h-.5v-1l.5-.5v-1h.5l1,2c.5-.5.5-1,.5-2.5l-.5-1,.5-.5c0-1,0-1.5.5-2v-1c.5,0,.5-.5.5-1-.5-1-.5-1.5,0-2v-4.5a.94.94,0,0,1,0-1.5v-13c-.5-.5-.5-.5,0-1v-7a1.84,1.84,0,0,1,.5-1.5v-7l.5-4c0-1.5,0-2-.5-2.5l.5-1v-5h.5a1.84,1.84,0,0,1-.5-1.5v-2.5l-.5-.5v-1l.5-.5h.5l-.5-.5c.5-.5.5-.5,0-1-.5,0-.5,0-.5-.5v-15c-.5-.5-.5-1-.5-2.5v-2l.5-.5-.5-1v-.5c.5-.5.5-1.5.5-4v-21c.5-1,.5-3,.5-6.5v-6a1.84,1.84,0,0,1,.5-1.5v-3l.5-9.5v-12c.5-.5.5-.5,0-1v-2.5c.5-.5.5-1,.5-2s0-1.5-.5-2v-1.5a1.84,1.84,0,0,1,.5-1.5v-1c-.5,0-.5-.5-.5-1,.5-.5.5-1,.5-2.5v-3.5l.5-1.5c0-.5,0-1-.5-1v-3.5c.5-.5.5-1,.5-2.5l-.5-3.5a2.5,2.5,0,0,0,0-3v-1.5c.5-.5.5-.5,0-1v-.5c.5-.5.5-1,.5-2v-2c-.5,0-.5-.5-.5-1a.94.94,0,0,0,0-1.5l.5-1v-2.5l-.5-1a1.84,1.84,0,0,0,.5-1.5v-23l.5-.5c0-1.5,0-2,.5-2v-3.5c-.5-.5-.5-.5,0-1v-8.5c0-1,0-1.5.5-1.5l.5-1v-.5c-.5,0-.5,0-.5-.5l-.5-1v-3c-.5,0-.5,0,0-.5l.5-1v-2a3.19,3.19,0,0,1,0-3l-.5-.5v-2h.5v-2.5l.5-1v-1l-.5-3.5.5-1v-2.5c.5,0,.5,0,.5-.5v-1.5c0-1.5,0-2-.5-2.5,0-1.5,0-2,.5-2.5v-.5l.5-1.5a1.84,1.84,0,0,1-.5-1.5v-2.5a1.84,1.84,0,0,1,.5-1.5v-7c.5-.5.5-1,.5-2v-4.5a1.84,1.84,0,0,0,.5-1.5c0-.5,0-.5-.5-.5a1.84,1.84,0,0,0,.5-1.5l.5-.5v-4h.5v-.5l.5-.5h.5c.5,0,.5,0,.5-.5h.5c.5.5.5.5,1,0v-1l.5-.5h1a1.08,1.08,0,0,1,1-1l2.5-1.5h.5l-2,1.5-1,1-1,.5h-.5v1c.5,0,.5,0,.5-.5l3-2,1-.5v-.5l.5-.5c.5-.5,1-1,1.5-1v.5l.5-.5h.5l2-1.5h.5l1-.5,1.5-1c0-.5,0-.5.5-.5s.5,0,.5.5v-.5l1-1a1.84,1.84,0,0,0,1.5-.5l.5-.5h.5c0-1,1-1.5,2.5-1.5l1.5-1,.5-.5.5-.5a6.11,6.11,0,0,0,4.5-2,3.82,3.82,0,0,0,2.5-1h.5l.5-.5c0-.5.5-.5,1-.5s1,0,1-.5.5-.5,1-.5l.5-.5h.5c0-.5.5-.5,1-.5a1.84,1.84,0,0,0,1.5-.5l2-1,1-.5c.5,0,.5,0,.5-.5a7.7,7.7,0,0,1,3.5-1.5h-.5c.5-.5,1-.5,2-.5-.5-.5,0-1,1-1.5a1.84,1.84,0,0,1,1.5-.5c.5,0,.5,0,1-.5l4-1.5,3-1.5a1.84,1.84,0,0,1,1.5-.5c.5,0,.5,0,.5-.5h1l.5-.5,4.5-1,4-1,.5-.5v-.5a1.84,1.84,0,0,0,1.5-.5c-1,0-1.5,0-2,.5s-1,.5-2.5.5h-2l-2,1v-.5l-5.5,1.5h-1l-1,.5-5,2-1,.5a1.84,1.84,0,0,0-1.5.5l-1.5.5-1,.5c.5,0,.5,0,.5-.5l2.5-1.5a3.82,3.82,0,0,1,2.5-1l2.5-1.5,2-.5h.5l12.5-3.5,3-1.5,1-.5v-.5h-1.5l.5-1,1-.5h-.5a1.84,1.84,0,0,1-1.5.5h-1.5c0-.5,0-.5-.5-.5l-.5-.5-.5-.5c-.5,0-.5,0,0-.5.5,0,.5,0,.5-.5v-.5l-1-.5h-.5v-1h.5c.5-.5,0-.5-.5-.5s-.5,0-.5-.5l.5-.5c.5-.5.5-.5,1,0,.5,0,0-.5-.5-1-.5.5-.5.5-.5,0-.5,0-.5,0-.5-.5v-1l1-1h-2v-.5l-.5-1v-.5h-6.5l-1,.5h-1.5l-2,.5h-1.5c-.5.5-.5.5-.5,0-.5,0-.5,0-.5-.5h2.5l-.5-.5,3.5-1h1.5l1-.5,1-.5.5-.5c-.5.5,0,.5.5.5l.5-.5h-1Zm-102.5,211.5h-.5l.5-.5Zm0-8c-.5-.5-.5-.5,0-.5Zm0-14.5v-2q.75,1.5,0,1.5Zm0,.5v0Zm.5-50v0Zm0,38.5v0Zm0,9c.5.5.5.5,0,.5Zm.5-79v0Zm0,3v0Zm0,26.5h0Zm1-43.5h0Zm-.5,52v0Zm0,87.5v0Zm.5-145.5v0Zm0,15c.5.5.5.5,0,1Zm.5,41c-.5.5-.5.5-.5,0Zm-.5,164v0Zm0,31v0Zm.5-257.5v0Zm0,26.5v0Zm0,219.5h0Zm1-262v0Zm0,7.5v0Zm0,10.5v0Zm0,74.5v0Zm.5,144c-.5-.5-.5-.5,0-.5Zm0-247v-.5c.5.5.5.5,0,1Zm.5,4v-.5l.5.5Zm0,8v0Zm6.5,33.5c-.5.5-.5,2.5,0,5.5-.5,0-.5.5-.5,1v5l-.5,6v10a1.84,1.84,0,0,0-.5,1.5l.5,1.5c-.5.5-.5.5,0,.5v3l-.5,6v9.5c0,.5,0,1-.5.5v.5c-.5,0-.5,0-.5.5a1.84,1.84,0,0,0-.5-1.5v-6.5h-1v9.5h.5c0,.5,0,.5.5.5,0,.5,0,.5.5,0-.5,0-.5.5,0,1v-1.5h.5v3l-1,1.5v0a1.84,1.84,0,0,1,.5-1.5v3.5l-.5.5c-.5.5-.5.5-.5,0v2.5a1.84,1.84,0,0,1-.5-1.5v6l-.5,5v13c0,2.5,0,4-.5,4.5v1a1.84,1.84,0,0,1-.5-1.5l-.5-.5v-48c.5-.5.5-1.5.5-3.5v-17.5c-.5-.5-.5-.5,0-.5.5-.5.5-.5,0-1s-.5-.5,0-1v-4h.5c-.5-.5-.5-1,0-1v-2c-.5-1.5-.5-2,0-2v-9.5a2.23,2.23,0,0,0,0-2.5c0-1.5,0-2,.5-2.5v-5.5c0-2,0-3,.5-3.5v-2.5l-.5-.5c.5-.5.5-2.5.5-7l.5-.5v-3l.5-.5v-7.5c.5-.5.5-2.5.5-6v-.5l.5-1v-3a44.07,44.07,0,0,0,1.5-10.5c0-1,0-1.5.5-2l.5-2.5v-3c.5,0,.5,0,.5-.5a1.84,1.84,0,0,0,1.5-.5l3-1.5,2-1,2.5-1.5a3.78,3.78,0,0,0,2-.5c.5-.5,1-.5,1.5-1l1-.5,1-.5a1.84,1.84,0,0,1,1.5-.5h1l1-.5.5-.5h1a1.84,1.84,0,0,1,1.5-.5l5.5-2c.5-.5,1-.5,2-.5h-.5c0,.5-1,1-2.5,1.5h-.5l-.5.5h-.5c0,.5,0,.5.5.5a1.84,1.84,0,0,0,1.5-.5l1-.5-2,1.5-2.5,1.5.5-.5a.94.94,0,0,1,1.5,0h1l.5-.5h1.5l2.5-1.5h1.5l.5-.5-2.5,1.5h-.5l-2,1h-.5c-.5,0-1,0-1,.5l-1,.5-3,1.5a1.84,1.84,0,0,1-1.5.5c-1.5,1.5-2.5,2-4,2l-2,1-1,.5-5.5,2.5-2,1-1,1h-.5v2a1.84,1.84,0,0,0-.5,1.5c0,1.5,0,2-.5,2.5v2.5c-.5.5-.5,1-.5,2.5l-.5,2.5v4.5c-.5,0-.5,0-.5.5v4l-.5,1v2.5l-.5,1v5.5l-.5,4.5v5a1.84,1.84,0,0,1-.5,1.5v2l-.5,4.5v13Zm-5.5,93.5c.5.5.5.5,0,1l.5-1h-.5l.5-.5Zm.5-154.5v-.5l.5-.5v.5Zm0,3.5v2c.5-.5.5-2,.5-3.5Zm0,31v0Zm.5-33.5.5-.5Zm0,100,.5-.5v2Zm0,58.5v0Zm1-74.5v-1l-.5-1c-.5.5-.5,1,0,1Zm-.5,3h.5v1Zm0,5.5c.5.5.5.5,0,1Zm0,1c.5.5.5.5,0,.5Zm0,14h.5v.5h-.5Zm0,16v0Zm0,1.5v0Zm0,38v0Zm.5-83v0Zm.5,4h-.5c.5,0,.5,0,.5-.5Zm-.5,143v0Zm1-179.5v-.5c.5.5.5,1,0,1Zm0,64.5v-1c.5,0,.5,0,.5.5Zm.5-68c.5-.5.5-.5.5,0Zm0,60v0Zm.5,7.5-.5,1v-2c0,.5,0,.5.5.5Zm-.5,1.5v0Zm.5-70.5c-.5,0-.5,0,0-.5Zm0,42.5v.5a.94.94,0,0,1,0-1.5Zm0,1v0Zm.5,27.5h0Zm0-65v0Zm0,1.5v0Zm.5,4.5v3c-.5,0-.5,0-.5-.5v-2.5c0-.5,0-1,.5-.5Zm0,5-.5.5v-.5Zm-.5,33v0Zm0,2.5v0Zm.5-42a.94.94,0,0,1,0-1.5Zm0-7v0Zm0,0v0Zm13,94.5h-.5l.5.5-.5-.5c0,.5,0,.5.5.5l2.5,2c0,.5,0,.5.5.5h.5a1.84,1.84,0,0,0,1.5.5c0,.5,0,.5.5.5h.5c.5,0,.5,0,.5.5h1l.5.5h1v-.5h2.5c.5,0,1,0,1-.5h1.5v.5c0-.5,0-.5.5,0,.5-.5.5-.5.5,0v.5h.5v-.5c-.5,0-.5,0-.5-.5h1.5v-.5h.5v-.5c.5.5.5.5.5,0h.5l.5-.5h.5c.5,0,.5,0,.5-.5h.5v-.5h1.5v-.5h1.5v-.5h.5l.5-.5h.5l.5.5-.5-.5.5-.5h.5l.5-.5h1.5c.5,0,.5,0,.5-.5h1l.5-.5v.5h.5l-.5-.5h.5v.5h.5v-1h1v0c.5,0,.5,0,.5.5.5,0,.5,0,.5-.5h1c0-.5,0-.5.5-.5s1-.5,1.5-1h.5l1-.5.5-.5h1.5v-.5h.5v.5h.5v0c-.5,0-.5,0-.5.5l1.5-.5v0l.5-.5h.5l.5-.5,1.5-.5h.5l1-1,1.5-.5h.5a1.84,1.84,0,0,1,1.5-.5l.5-.5a1.84,1.84,0,0,1,1.5-.5l.5-.5,2.5-1.5h.5c0-.5,0-.5.5-.5v-.5c.5,0,.5,0,.5.5v-.5c.5,0,.5,0,.5-.5h.5l.5-.5h.5l1-1,1-.5h.5a1.08,1.08,0,0,0,1-1c.5,0,1.5-.5,3-2,1-1,1.5-2,1-2.5h.5v-1h.5v-.5l-.5-1v-.5l.5-.5-.5-.5c-.5-.5-.5-.5,0-.5l-.5-1-1-1v-.5c-.5,0-.5,0-.5-.5l-.5-1-.5-1-.5-1-.5-.5-.5-.5v-.5c-.5,0-.5,0-.5-.5h-.5v-1l-.5-1c-.5,0-.5,0-.5-.5v-.5c-.5,0-.5,0-.5-.5v-.5l-.5-.5c-.5,0-.5,0-.5-.5v-.5l-.5-.5-.5-1c0-.5,0-.5-.5-.5a1.08,1.08,0,0,1-1-1h-.5l-.5-.5c0-.5,0-1-.5-1v.5h-.5l-.5-.5v-.5c-.5,0-.5,0-.5-.5h-1l-.5-.5c0,.5,0,.5-.5,0,0,.5,0,.5-.5.5h-.5c0,.5,0,.5-.5.5h-.5l-.5.5h-1.5c-.5,0-.5,0-.5.5h-1.5c-.5.5-.5.5-.5,0h-1v.5h-.5c0,.5,0,.5.5.5-.5,0-.5,0-.5-.5h-.5v1c0,.5-.5.5-1,.5l-1,.5h-.5v.5c-.5-.5-.5-.5-1,0h-.5c-.5,0-.5,0-.5.5h-2.5c-.5.5-1,.5-1,1h-1.5l-1.5.5h-1v.5h-1c-.5-.5-.5-.5-.5,0h-.5l-.5.5h-1.5v.5l-.5-.5c-.5,0-.5,0,0,.5h-1l-.5.5h-.5c0,.5,0,.5-.5,0v.5h-.5c-.5,0-.5,0-.5.5-.5-.5-.5-.5-.5,0h-1v.5h-.5c-.5,0-.5,0-.5.5h-.5l-.5.5h-2c-.5,0-.5,0-.5.5h-.5c0,.5,0,.5-.5,0v.5l-.5-.5h-.5v.5c0,.5,0,.5-.5.5h-.5c0,.5,0,.5-.5.5,0,.5,0,.5-.5,0v.5l-.5-.5-.5.5h-1a1.08,1.08,0,0,1-1,1v-.5c-.5,0-.5,0-.5.5v.5c-.5,0-.5,0-.5-.5-.5,0-.5,0-.5.5l-.5.5c-.5-.5-.5-.5-.5,0h-.5v.5c-.5,0-.5,0-.5.5v0q0-.75-1.5,0h-.5l-.5.5-.5.5h-1.5v1h-.5v.5l-.5.5c0-.5,0-.5.5-.5v-1.5h-.5v1.5c0,.5,0,.5-.5.5l-.5.5v.5h-.5v.5c-.5,0-.5,0-.5.5v0h-.5c.5.5.5.5,0,.5s-.5,0-.5.5h-.5l-.5.5h-.5v.5c0,.5,0,.5-.5,0,0,.5-.5,1-1.5,1h0c.5.5.5.5,0,1h-.5l-2,.5v0h-1.5l-1-.5c-.5,0-.5,0,0,.5h-.5l.5.5h1l1,.5h.5c0,.5.5.5,1.5.5h.5v.5l1-.5h1l-.5.5v.5h-1.5l-1.5-.5h-1.5v.5h-.5v.5l.5.5v.5c0-.5,0-.5.5-.5.5.5.5.5.5,1h.5l.5,1v.5l.5.5v.5h.5l.5.5.5,1v.5c.5,0,.5,0,.5.5v.5l.5.5v.5h.5l.5,1v.5c.5,0,.5,0,.5.5l.5.5.5,1h.5v.5l.5.5.5.5v0l.5.5,2,1,.5.5h-1l-.5-.5v.5c0-.5,0-.5-.5-.5v.5Zm-12-96v0Zm.5-54.5h0Zm1,131.5h0Zm1-1h-.5v-.5Zm0,1h0Zm.5-1.5v.5h0Zm0,.5v0Zm.5,0v0Zm.5.5h0Zm0,2v-.5c.5,0,.5,0,.5.5Zm1-1.5h0Zm1-2.5v0Zm.5-10.5h0Zm.5,9.5v1l.5-.5v-.5c-.5,0-.5,0,0-.5v-.5c-.5-.5-.5-.5-.5,0s0,.5-.5.5Zm-.5,0v0Zm.5,6h.5l-.5.5h-.5Zm.5-6.5h.5c0,.5,0,.5-.5.5Zm1,0h-.5l1-.5h-.5Zm.5,4.5h0Zm.5,25.5v1c-.5,0-.5,0-.5-.5Zm-.5,14.5v0Zm1-54.5v1.5l-.5-.5Zm0,7.5v0c-.5,0-.5,0-.5-.5v-.5l.5-.5.5-.5v1h0v.5h-.5Zm-.5,2.5v.5h.5a1.84,1.84,0,0,1-.5-1.5l.5-.5v4l-.5-1Zm.5,3v.5a1.84,1.84,0,0,1-.5,1.5v-.5l.5-1c0-.5,0-.5-.5-.5Zm-.5,1v0Zm.5,4v0h0Zm1-43v2.5q-.75,4.5,0,6c.5,0,.5,0,.5.5v1l-.5,1.5v-1.5l-.5.5a1.84,1.84,0,0,0-.5-1.5,1.84,1.84,0,0,1,.5-1.5,1.84,1.84,0,0,0-.5-1.5c.5-.5.5-1,.5-2.5v-4Zm-1,10v0Zm.5,6.5h0Zm0,1c-.5.5-.5.5-.5,0Zm0,1a1.84,1.84,0,0,0-.5,1.5v-2C365.31,198.16,365.31,198.16,365.81,198.16Zm-.5,16v0Zm0,7v0Zm0,13v0Zm0,25.5v0Zm.5-65c-.5-.5-.5-.5,0-.5Zm3.5,90v-1l.5-6.5v-6c0-3.5,0-5.5-.5-6v-4.5l.5.5v-10a1.84,1.84,0,0,1-.5,1.5v1.5c-.5,0-.5,0-.5-.5,0-1.5,0-2-.5-2.5v-3.5c0,.5,0,.5-.5,0v-1l-.5-.5.5-1v-.5c0-.5,0-.5.5-.5v.5a2.2,2.2,0,0,0-.5-2.5v-2l.5-.5h.5l-.5-1.5-.5-.5v-4l.5-2,.5,1.5v-3l-.5-1c0-.5,0-1,.5-1v-.5a1.84,1.84,0,0,1,.5-1.5v-1c-.5,0-.5-.5-.5-1v-1c-.5,0-.5-.5-.5-1.5v-2.5c0-4,0-6,.5-6.5v-43l.5-.5c-.5,0-.5-.5,0-1l-.5-1v-4.5c.5,0,.5,0,.5-.5v-.5c-.5,0-.5,0-.5.5v-2l-.5-1v1c0,1.5,0,3-.5,3.5l-.5-.5v-.5l-.5.5c.5.5.5.5,0,1v1l.5.5c-.5,0-.5,0-.5.5v2.5l-.5,4v2c0,1.5,0,2.5-.5,3v-5c0-.5,0-.5.5-.5v-2c-.5,0-.5,0-.5-.5a1.84,1.84,0,0,0,.5-1.5v-5c0-1.5,0-2-.5-2.5v-3c0-.5,0-.5.5-.5l.5-1v-1.5c-.5-.5-.5-1,0-1v-4.5l.5-.5v-.5c-.5,0-.5,0-.5-.5.5-.5.5-1,.5-2v6.5h1v1.5h1l.5-.5a1.84,1.84,0,0,0,.5-1.5q-.75-.75,0-4.5v-5.5c.5-.5.5-1.5.5-3v-4.5c.5-.5.5-1.5.5-3v-3l.5-4v-1.5c.5,0,.5-.5.5-1.5v-5l.5-1v-.5c-.5-1-1-1.5-.5-2s.5-1,.5-2v-1.5c.5-.5.5-1,.5-2v-1c.5,0,.5-.5.5-1l.5-.5v-.5c.5,0,.5,0,.5-.5s.5-.5,1-.5l.5-.5h.5l2-.5h.5l2-1-.5.5-.5.5a1.08,1.08,0,0,1-1,1c-.5,0-1,0-1,.5h-.5c0,.5,0,.5-.5.5h-.5l-1,.5c0,.5,0,.5-.5.5h-.5v1c-.5.5-.5.5,0,1v.5l.5-1v-1.5h.5v-.5c.5,0,1,0,1-.5l2-.5-.5,1,2-1h.5l2-1h.5l-1.5,1a1.08,1.08,0,0,0-1,1h.5v.5c-.5,0-1,.5-1.5,1a1.84,1.84,0,0,1-1.5.5v.5h-.5v5.5l-.5.5v3a1.84,1.84,0,0,1-.5,1.5v1.5l-.5,4v4.5l-.5,4.5v1l-.5,2-.5,3.5v7l-.5,1v14.5c0,1.5,0,2.5-.5,3v7.5l-.5.5v.5c.5,0,.5,0,.5.5v2l-.5,2v9.5l-.5,3v16.5a1.84,1.84,0,0,1-.5,1.5v8l.5-.5v.5c-.5,0-.5,0-.5.5v13.5l-.5,11v6.5c-.5.5-.5,1-.5,2.5v16l-.5,4.5c0,.5,0,.5-.5.5v6.5c-.5,2-.5,5.5-.5,11v1a1.84,1.84,0,0,0-.5-1.5Zm-3.5-106.5v0Zm.5,34.5v.5l-.5-.5Zm-.5,12.5v0Zm.5,11.5v0Zm.5.5h0Zm0-26.5c.5-.5.5-.5.5,0S367.31,211.16,366.81,210.66Zm0,26v0Zm14.5-139h-.5v.5a4.57,4.57,0,0,0-2.5,1.5l-2.5,1-1,.5-1,1h-.5l-.5.5h-.5v2c-.5.5-.5,1-.5,2l-.5,4-.5,1.5v1.5l-.5,1c.5,0,.5.5,0,1v.5c-.5,0-.5,0-.5.5l-.5,3q-.75,2.25,0,3c0,1,0,1.5-.5,2v6c-.5.5-.5,2-.5,4v2l-.5,2.5v-.5c0-1,0-1.5-.5-2l.5-1v-3a1.84,1.84,0,0,0,.5-1.5v-.5a1.52,1.52,0,0,1,0-2v-5a1.84,1.84,0,0,1,.5-1.5v-2.5c0-1.5,0-2.5.5-3v-2.5l-1-1v-4a1.84,1.84,0,0,1,.5-1.5v3c.5,0,1-1.5,1.5-4v-1a1.84,1.84,0,0,1,.5-1.5v-2h.5v-.5h1.5c0-.5.5-.5,1.5-1l2-1h.5c0-.5,0-.5.5-.5h.5l1.5-1,1-.5h1Zm-14,44.5c0-1.5,0-2,.5-2v.5c0,1.5,0,2.5-.5,2Zm0,2.5v-.5c.5.5.5.5,0,1Zm0,9.5.5.5-.5,1Zm0,77v0Zm0,6.5h.5v.5Zm0,1c0-.5,0-.5.5,0C367.31,238.16,367.31,238.16,367.31,238.66Zm.5,12.5v-1l-.5-.5c.5-.5.5-.5,1,0v.5Zm.5-12.5h-.5v-.5Zm0,32c.5,0,.5,0,.5-.5v1a.94.94,0,0,1,0,1.5v1.5l-.5-1c0,.5,0,.5-.5,0l.5-2Zm-.5,16.5v0Zm.5-1c-.5-.5-.5-.5,0-1Zm0-128v-.5l.5,1Zm0,68v0Zm.5,1h-.5l.5-.5Zm0,.5h0Zm-.5,8.5.5,1c-.5.5-.5.5-.5,0Zm0,4.5v-.5c.5.5.5.5,0,1Zm0,5,.5.5-.5.5Zm.5-138.5v0Zm0,6.5v0Zm.5,107.5v1.5l-.5-.5Zm-.5,17.5.5.5Zm.5-29.5v1.5a1.52,1.52,0,0,1,0-2Zm0,8c-.5-.5-.5-.5,0-1Zm0,2v1a.94.94,0,0,1,0-1.5Zm0-22,.5-2v2.5Zm0,1.5c.5.5.5.5,0,1Zm0,2v-.5l.5.5c0,.5,0,.5-.5.5Zm0,1c.5.5.5.5,0,1Zm0,2.5.5-.5a1.84,1.84,0,0,1-.5,1.5Zm0,7v0Zm0,1.5v0Zm0,1v0Zm0,24h0Zm1.5,2-1.5-.5h.5Zm-1.5,19.5.5.5c-.5,0-.5,0-.5.5Zm.5-157.5v0Zm.5,76.5h0Zm-.5,5v-1h.5c0,1,0,1.5-.5,2Zm0,3v-.5c0-.5,0-.5.5-.5Zm0,1v-.5l.5.5c-.5,0-.5,0-.5.5Zm0,3.5v0Zm0,2v0Zm0,34.5h.5v1Zm0,3.5h.5v2Zm0,3v0Zm.5,2.5h-.5l.5-.5Zm-.5,12.5v0Zm0-11v0Zm.5-60c-.5-.5-.5-.5,0-1Zm0,3.5c-.5-.5-.5-.5,0-.5Zm0,53.5c-.5-.5-.5-.5,0-1Zm.5-69.5v1.5l-.5-.5v-1c.5,0,.5,0,.5-.5Zm0,3.5h-.5v-1l.5-.5Zm0,1.5-.5.5v-1Zm-.5,1.5v0Zm0,2v0Zm0,2v0Zm0,42h0Zm0,1.5h0Zm0,3,.5-.5a1.84,1.84,0,0,1-.5,1.5Zm0,2.5v0Zm0,4.5v0Zm0,6v0Zm0,2.5h.5v.5Zm.5-23v.5c-.5-.5-.5-1,0-1Zm0,2c-.5-.5-.5-.5,0-.5Zm0,3c-.5-.5-.5-.5,0-.5Zm0-140.5.5-.5Zm0,73.5v-2c0-.5,0-.5.5-.5v2.5Zm0,4v0Zm0,5.5v0Zm.5,40.5-.5-.5h.5Zm-.5.5.5.5-.5,1v-1.5Zm0,7.5h0Zm0,2.5v0Zm0,8v0Zm.5-74.5v0Zm0,1v-.5c.5.5.5.5,0,1Zm0,2v0Zm0,46v0Zm0,1v0Zm0,0v0Zm0,1v0Zm0,3.5v0Zm31.5,5v.5h-.5l-1,.5h-1l-1,.5v.5h-1.5l-1,.5h.5l.5.5v-.5l.5.5c-.5,0-.5,0-.5.5v.5h0v.5l-.5.5-.5-.5v-.5c-.5,0-.5,0,0,.5,0,.5,0,.5-.5.5v0l-1,.5-.5-.5v-.5l-.5.5c.5,0,.5,0,0,.5v-.5h-.5l-.5.5v.5a.94.94,0,0,1-1.5,0l-.5.5c0,.5,0,.5-.5.5h-1v.5c0-.5-.5,0-1,.5h-.5c-.5,0-.5,0-.5.5h-.5v.5h-1c-.5,0-.5,0-.5.5h-.5v.5c0,.5,0,.5-.5.5h-.5v0h.5c-.5,0-.5,0-.5.5v.5l1-.5v1h2v-.5h.5v.5h-1v.5h-1v1h-1v-.5l-.5.5v0h-1v.5l-.5-1h1l-.5-1v-1c-.5,0-.5,0-.5-.5s0-.5-.5,0l-.5.5h-1l-.5.5h-1v.5c0,.5,0,.5-.5,0l-.5.5-.5-.5-.5.5c0,.5,0,.5-.5.5h-.5c.5.5.5.5,0,.5-.5-.5-.5,0-.5.5-.5-.5-.5-.5-.5,0h-.5c0-.5,0-.5-.5-.5v.5h-.5v.5c-.5-.5-.5-.5-1,0h-.5c0-.5,0-.5.5-.5v-1l.5.5v-.5h.5l.5-.5c0-.5-.5,0-1,.5h-.5v-.5h-.5c0,.5,0,.5-.5.5l-.5-.5.5-.5v-.5l-.5-.5h.5v-.5l.5-.5,1-1h1c.5,0,.5,0,.5-.5h.5l.5-.5h1.5v-.5l.5.5.5-.5h.5v-.5h1c.5,0,1-.5,1.5-1h.5l.5-.5h1.5c0-.5,0-.5.5-.5h1c0-.5,0-.5.5-.5h1l.5-.5h.5c.5,0,.5,0,.5-.5h1v-.5h1.5v-.5h1l.5-.5c.5.5.5.5.5,0l2-.5.5-.5.5.5h.5c0-.5,0-.5.5-.5l1-.5h.5c0-.5,0-.5.5,0,0-.5.5-.5,1,0h.5c-.5,0-.5,0-.5.5l.5-.5h.5l.5-.5c1-.5,1.5-.5,2,0Zm-31.5,4.5v0Zm.5-132.5h1c0-.5,0-.5.5-.5l-.5.5Zm0,43v0Zm0,13c0-.5,0-.5.5-.5-.5-.5-.5-.5,0-1v2Zm0,4.5v-2h.5v1.5Zm0,.5v0Zm0,1v0Zm0,1v-.5l.5.5c-.5,0-.5,0-.5.5Zm0,1v0Zm0,1v0Zm0,.5v0Zm.5,30-.5.5v-.5Zm-.5,3.5v0Zm0,3v0Zm0,7v0Zm0,34v-.5c0,.5,0,.5.5.5Zm1-121.5h0Zm0,28.5v.5a1.52,1.52,0,0,0,0,2v.5a17.68,17.68,0,0,1-.5-3Zm-.5,3.5v0Zm.5,85h0Zm-.5,1.5v0Zm0,3v0Zm1-99.5v-2.5l-.5,5v.5Zm-.5,31.5v0Zm0,64v0Zm0,1.5v0Zm.5-70c-.5-.5-.5-.5,0-.5Zm0-70.5h0Zm0,40v-.5l.5-1v1.5Zm0,1v0Zm0,21.5c.5,0,.5,0,0,.5Zm0,4v0Zm0,40v0Zm0,25v0Zm1.5-100.5-.5,1c.5,0,.5,0,0,.5v.5c0,.5,0,.5-.5.5v-1.5a1.84,1.84,0,0,1,.5-1.5c0-.5,0-.5.5-.5Zm-1,3.5h.5l-.5.5Zm0,1c.5.5.5.5,0,.5Zm0,1.5v0Zm0,21v0Zm0,.5v0Zm.5,86.5v.5h-.5c0-.5,0-1,.5-1v-.5c.5,0,1-.5,1.5-1h1c.5,0,.5,0,.5-.5l.5.5c.5,0,1,0,1-.5h.5c.5.5.5.5.5,0l1-.5h.5c0-.5,0-.5.5,0v.5h-1.5l.5.5c-.5.5-.5.5-1,0h-1l-.5.5-.5.5.5,1-.5.5v-1h-1.5c0,.5,0,.5-.5.5l-.5-.5v.5h-.5v.5h-.5Zm-.5,17.5v0Zm.5-114.5v-1.5c.5.5.5,1,0,2Zm0,2v0Zm0,2v0Zm.5,88h.5v.5h-1Zm.5-99h-.5c.5,0,.5,0,.5-.5Zm-.5,106v0Zm1-7h0Zm-.5,163.5h0Zm.5-164h.5v.5h-.5Zm.5,24.5c0,.5,0,.5-.5,0Zm-.5,39v0Zm0,85h0Zm1-148.5c-.5.5-.5.5-.5,0Zm-.5,7v0Zm0,18v0Zm.5,20h0Zm-.5,25c.5,0,.5,0,.5.5Zm0,24.5v0Zm0,43.5v0Zm0,2v0Zm1-252c0,.5,0,.5-.5.5Zm-.5,110h0Zm.5,1.5h.5c0,.5-.5.5-1,.5Zm-.5,134v0Zm.5,2h0Zm.5-248h0Zm-.5,1.5h0Zm.5,117h0Zm-.5,1c.5.5.5.5,0,.5Zm0,22.5h0Zm1.5-150-1,.5v-.5a1.84,1.84,0,0,1,1.5-.5Zm-1,7h0Zm.5,55.5v.5l-.5-2,.5.5v.5h1c0,.5,0,.5-.5.5,0,1,0,1.5-.5,2Zm-.5,47.5v0Zm0,8v0Zm0,6v0Zm11.5,9h1l.5-1c0,.5,0,.5.5.5v-.5h.5c.5-.5,1-.5,1,0l.5-.5h1c0-.5,0-.5.5-.5s.5,0,.5-.5l1-.5h2v1.5h-1c0,.5,0,.5.5.5v.5c.5,0,.5,0,.5-.5h1v-.5c0-1-.5-1.5-1-1.5,0-.5,0-.5.5-.5v.5c.5.5.5.5.5,0h.5c0,.5,0,.5.5.5v.5h.5a1.84,1.84,0,0,1,1.5-.5h1c0-.5,0-.5.5-.5,0-.5,0-.5.5,0h1v.5c.5.5.5.5,0,.5l-1,.5h-1v.5h-.5l-.5.5h-1v.5h-1v.5h-1l-.5.5h-.5c-.5,0-.5,0-.5.5h-1c0,.5,0,.5-.5.5-.5.5-.5.5-.5,0v.5h-.5v.5c-.5-.5-.5-.5-.5,0h-1c0,.5,0,.5-.5.5h-.5l-.5.5h-.5v.5h-1.5l-1,1-1,.5v-.5c0,.5,0,.5-.5.5h-.5l-1.5,1h-1l-.5.5h-.5c0,.5,0,.5-.5.5h-.5v.5h-1l-2-.5h-.5l.5-.5h.5l-.5-.5h-.5l.5-.5v-.5h-1c0-.5,0-.5-.5-.5h-.5v-.5h1.5l1-.5v-.5h1c0-.5,0-.5.5-.5l.5-.5h.5l.5-.5h.5c0-.5,0-.5.5,0,0-.5,0-.5.5,0v-.5h.5v-.5h1v-.5h1a1.84,1.84,0,0,0,1.5-.5v-.5Zm-11.5,7.5v-.5h.5v.5Zm0,0v0Zm0,6h0Zm0,.5h.5v.5Zm0,15v0Zm0,3.5v0Zm1-157h-.5l.5-.5Zm-.5,78v0Zm0,6v0Zm0,27.5v-.5h.5Zm0,9.5v0Zm0,1.5v0Zm.5,9.5h-.5c0-.5,0-.5.5-.5Zm0,5h0Zm1-161-1,.5c-.5,0-.5,0,0-.5Zm-.5,23,.5.5h-1Zm-.5,69.5h0Zm.5,10-.5-.5Zm0,24h0Zm-.5,7v0Zm.5,1.5c0,.5,0,.5-.5,0Zm-.5.5v0Zm0,20h0Zm.5-140.5v0Zm0,81.5h0Zm0,5v0Zm.5,25,.5.5-.5.5v-1.5h0v.5c0-.5,0-.5.5,0Zm0,8.5c-.5,0-.5,0,0-.5Zm0-141c0-.5,0-.5.5-.5Zm0,83h0Zm0,11.5v0Zm.5,6-.5,1v-.5Zm0,61.5-.5-.5Zm-.5,4.5v0Zm.5-89.5v-1.5l.5,1.5Zm.5,1.5h0Zm0,13-.5-1c0-.5,0-.5.5-.5Zm-.5,47.5v0Zm0,1.5v0Zm0,0h0Zm.5-76v0Zm0,5v0Zm.5,51.5h0Zm-.5.5v0Zm0,6c0-.5,0-.5.5-.5Zm0,2.5v0Zm0,36.5v0Zm.5.5-.5-.5Zm0-26.5c-.5-.5-.5-.5,0-.5Zm.5-27h0Zm0,16c-.5,0-.5,0-.5-.5Zm-.5,11v0Zm.5,26c0,.5,0,.5-.5,0Zm-.5,0v0Zm2.5-142h-.5l-1.5,1q0-.75,1.5-1.5Zm-2,23h0Zm0,92.5h0Zm0,0v0Zm0,4.5.5-.5v.5Zm.5-43.5c-.5-.5-.5-.5,0-.5Zm1-102.5-1,.5v-.5Zm-.5,141.5h-.5c0-.5,0-.5.5-.5Zm.5-105h0Zm-.5,4v0Zm1,100.5h-.5l.5-.5Zm-.5-104h0Zm0,131.5h0Zm1-163h.5c0,.5-.5.5-1,.5Zm-.5,20h0Zm0,107.5v0Zm0,4h0Zm.5,2h-.5v-.5h.5Zm-.5,1.5h0Zm0,2.5c.5,0,.5,0,.5.5Zm0,1v0Zm1-3.5h0Zm0-12.5h0Zm0,12c.5.5.5.5,0,.5Zm0,27v0Zm1.5-162c0-.5.5-.5,1-.5l-1.5,1h-.5Zm-1,22.5c.5-.5.5-.5.5,0Zm.5,112.5h0Zm-.5.5v0Zm.5-141.5c.5,0,1,0,.5.5Zm0,139.5v0Zm0,1,.5.5h-.5Zm.5-140h0Zm0,167.5v0Zm0,1v0Zm1-144h0Zm0,115.5c-.5.5-.5.5-.5,0Zm.5-116h0Zm0,2.5v.5h-.5Zm-.5,113h.5v.5Zm.5-140.5,1-.5Zm3,4.5v.5l-2.5,1h-.5l.5-.5Zm-2.5,136-.5.5v-.5Zm-.5,4.5h0Zm.5,14h0Zm0-13.5c-.5-.5-.5-.5,0-.5Zm.5-146.5h0Zm-.5,139.5v0Zm0,6v0c.5,0,1,0,1-.5v-1l.5,1v.5c0,.5,0,.5-.5,0v.5c0-.5,0-.5-.5-.5v.5h-.5v-.5Zm0,14.5c0-.5,0-.5.5-.5Zm0,8.5v0Zm.5-159.5v0Zm.5,130.5h0Zm0,2h-.5c0-.5,0-.5.5-.5Zm-.5,20v0Zm0,6v0Zm.5,1.5h0Zm.5-169.5h0Zm-.5.5h0Zm0,139.5v-.5l.5.5Zm.5,1.5c0,.5,0,.5-.5,0Zm-.5,18h.5v.5h-.5Zm0,0v0Zm.5,2.5h0Zm.5-30.5h0Zm0,10h0Zm-.5,4.5v0Zm0,21.5v0Zm.5-26v-.5c.5,0,.5,0,.5.5Zm0,4h0Zm0,13.5v0Zm1-13.5c-.5,0-.5,0-.5-.5Zm-.5,0v0Zm0,22.5c0-.5,0-.5.5,0Zm1-158h0Zm5.5,25,1-1v.5c.5,0,.5,0,.5.5h-.5l-2.5,1.5a1.84,1.84,0,0,1-1.5.5c0,1-1,1.5-2.5,1.5v.5l-.5-.5c.5,0,.5,0,.5-.5h.5v-.5l1-.5h1l.5-.5h0l.5-1,1-.5h.5v-.5h.5Zm-6,104v0Zm0,6v0Zm0,22.5v0Zm.5-161.5c-.5,0-.5,0,0-.5Zm0,125v0Zm0,8v0Zm0,.5v0Zm.5,1c-.5.5-.5.5-.5,0Zm.5-141h0Zm0,5.5c0,.5,0,.5-.5.5Zm-.5,133.5c.5.5.5.5,0,.5Zm.5.5h0Zm0,0h0Zm0,1c0,.5,0,.5.5,0Zm0,0v0Zm.5-9v0Zm1,13.5h-1l.5-.5Zm-.5-13v0Zm0,7h0Zm1-8h0Zm0,8h0Zm-.5,1.5v0Zm0,0v0Zm0,1v0Zm0,3h0Zm0,22v0Zm.5-168v0Zm0,140.5c0-.5.5-.5,2-1v.5a1.84,1.84,0,0,0-1.5.5Zm0-.5v0Zm0,.5v0Zm0,5.5v0Zm0,16v0Zm0-.5v0Zm.5-29.5v0Zm0,9.5h0Zm0,27.5v0Zm2-28v.5c0-.5,0-.5-.5-.5Zm.5,19.5c0,.5,0,.5-.5.5Zm.5-3c0,.5,0,.5-.5.5Zm.5-13v.5c0-.5,0-.5-.5-.5Zm-.5,13c.5.5.5.5,0,.5Zm0,2.5v0Zm.5-28v0Zm0,25.5h0Zm0,0v0Zm.5,7.5-.5-.5Zm0,.5h0Zm1,1h0Zm.5-27v-1h.5v1Zm1,1h0Zm-.5,18v0Zm1-126.5h0Zm7-3h.5l2.5-1-5.5,3c-1.5.5-2,0-1.5-.5s1-.5,2-.5l1-.5a.49.49,0,0,0,.5-.5Zm-3.5,128.5h.5c0,.5,0,.5-.5,0v0Zm0,6v0Zm1.5-.5h0Zm.5-132h0Zm2-.5h-.5l.5-.5Zm-.5,95.5v0Zm0,.5v0Zm1,0h0Zm1.5-97.5h0Zm.5-35v.5c0-.5,0-.5.5-.5Zm1,33.5h-.5a3.82,3.82,0,0,1,2.5-1Zm3-.5,2-1.5,1-.5a.94.94,0,0,0-1.5,0l-.5.5c0-.5.5-1,2-1.5h-1l-1.5,1-.5.5v.5l-2.5,1.5c-.5,0-.5,0-.5.5h.5l1-.5Zm-2.5,133.5h0Zm.5-34.5v0Zm.5,0v0Zm1-99h0Zm.5-2h0Zm.5,1h0Zm.5-4.5h0Zm2.5-28-.5.5Zm.5-2.5h0Zm-.5,33.5.5-.5h.5Zm.5-33.5.5-.5v.5Zm2,32h.5l-1,.5Zm.5,0h-.5l1-.5Zm-.5-.5v0Zm2,129.5h0Zm3.5-138h.5l-2,1h.5Zm1.5-20.5h0c0-.5,0-.5.5-.5Zm1.5,20-2,.5,1-1c.5,0,1,0,1-.5h.5l3-1h-.5c0,.5,0,.5-.5.5Zm1,143.5v0Zm1.5-164.5h0Zm0-2.5c.5-.5,2.5-1,6.5-2-1,0-1.5,0-2,.5a1.84,1.84,0,0,1-1.5.5,1.84,1.84,0,0,0-1.5.5A1.84,1.84,0,0,1,433.31,59.16Zm0,26.5h0Zm4.5-2-2,1a1.84,1.84,0,0,1,1.5-.5Zm0,1-.5.5v-.5Zm1-3.5c0,.5,0,.5-.5.5,0-.5.5-.5,1-.5Zm-.5,3c.5,0,.5,0,0,.5l1-.5c.5,0,.5,0,.5-.5,0,.5,0,.5-.5.5Zm3.5-27.5v.5h-1.5l.5-.5Zm-1,27c.5,0,.5,0,.5-.5Zm1-.5h0Zm.5-26.5,1-.5,1-.5.5.5h-.5Zm0,25h0Zm2.5-26c0-.5,0-.5.5-.5Zm.5,1h0Zm.5,2.5c0,.5,0,.5-.5.5Zm-.5,18.5h0Zm2.5-23c0,1-.5,1-1,.5l-1,.5h.5l-.5-.5h1.5l.5-.5v0Zm-2,3h0Zm1-3h0Zm1,2h0Zm1,22.5h0Zm.5-23c.5,0,.5,0,0,.5Zm4.5,4.5h0Zm.5,0h0Zm.5,15h0Z" style="fill:#2b2b2b"/></svg>