<svg id="Layer_1" data-name="Layer 1" xmlns="http://www.w3.org/2000/svg" viewBox="0 0 388.8 1080"><defs><style>.cls-1{fill:#bfc7d6;}.cls-2{fill:#7c7c7c;}.cls-3{fill:#ebebf2;}.cls-4{fill:#8c8a9b;}.cls-5{fill:#bcbcbd;}.cls-6{fill:#edeaed;}.cls-7{fill:#e7e4ec;}.cls-8{fill:#c5c5c6;}.cls-9{fill:#b5b9c9;}.cls-10{fill:#d0d0d1;}.cls-11{fill:#7d7779;}.cls-12{fill:#cececf;}.cls-13{fill:#744a4f;}.cls-14{fill:#bab2b8;}.cls-15{fill:#e2c0ba;}.cls-16{fill:#f1d286;}.cls-17{fill:#d3808b;}.cls-18{fill:#e7dbd8;}.cls-19{fill:#dcdcdd;}.cls-20{fill:#cdc8c3;}.cls-21{fill:#bababb;}.cls-22{fill:#958368;}.cls-23{fill:#bbbbbc;}.cls-24{fill:#a09ea1;}.cls-25{fill:#212121;}.cls-26{fill:#2e2e2e;}.cls-27{fill:#b2b2b4;}.cls-28{fill:#8788ac;}.cls-29{fill:#757480;}.cls-30{fill:#524d52;}.cls-31{fill:#9b95a3;}.cls-32{fill:#4f505c;}.cls-33{fill:#99999b;}.cls-34{fill:#8b91a7;}.cls-35{fill:#a7aab9;}.cls-36{fill:#afafb0;}.cls-37{fill:#d1d1d2;}.cls-38{fill:#b9b9ba;}.cls-39{fill:#d7d7d8;}.cls-40{fill:#c4c4c5;}.cls-41{fill:#a3a3a4;}.cls-42{fill:#9f6dc2;}.cls-43{fill:#d9d9da;}.cls-44{fill:#261839;}.cls-45{fill:#b5b5b6;}.cls-46{fill:#53385c;}.cls-47{fill:#a8a8a9;}.cls-48{fill:#a7a7a9;}.cls-49{fill:#794f9b;}.cls-50{fill:#aaaaac;}.cls-51{fill:#b8b8ba;}.cls-52{fill:#352132;}.cls-53{fill:#cccccd;}.cls-54{fill:#b2b2b3;}.cls-55{fill:#9f9fa0;}.cls-56{fill:#b9b9bb;}.cls-57{fill:#c3c3c4;}.cls-58{fill:#c2c2c4;}.cls-59{fill:#d8d8d8;}.cls-60{fill:#a6a6a8;}.cls-61{fill:#adadae;}.cls-62{fill:#bb9a94;}.cls-63{fill:#bebec0;}.cls-64{fill:#a7a7a8;}.cls-65{fill:#c8c8c9;}.cls-66{fill:#aeaeaf;}.cls-67{fill:#cfcfd0;}.cls-68{fill:#c3c3c5;}.cls-69{fill:#a6a6a7;}.cls-70{fill:#afafb1;}.cls-71{fill:#c7c7c8;}.cls-72{fill:#b6b6b9;}.cls-73{fill:#c6c6c8;}.cls-74{fill:#c0c0c2;}.cls-75{fill:#cbcbcc;}.cls-76{fill:#bfbfc1;}.cls-77{fill:#acacae;}.cls-78{fill:#cbcbcd;}.cls-79{fill:#c9c9ca;}.cls-80{fill:#9e9e9f;}.cls-81{fill:#c5c5c5;}.cls-82{fill:#c2c2c2;}.cls-83{fill:#bfbfc0;}.cls-84{fill:#a5a5a6;}.cls-85{fill:#c6c6c6;}.cls-86{fill:#9391ad;}.cls-87{fill:#b7b6cd;}.cls-88{fill:#b2b3cd;}.cls-89{fill:#c7b4cd;}.cls-90{fill:#e3d4e8;}.cls-91{fill:#754986;}.cls-92{fill:#abaac2;}.cls-93{fill:#a59eb4;}.cls-94{fill:#d9d9ee;}.cls-95{fill:#cdcada;}.cls-96{fill:#c1c0cf;}.cls-97{fill:#e0d4e3;}.cls-98{fill:#d1d5f0;}.cls-99{fill:#78497f;}.cls-100{fill:#bdbecd;}.cls-101{fill:#8a89a2;}.cls-102{fill:#3e2a4f;}.cls-103{fill:#bca6c4;}.cls-104{fill:#796d7e;}.cls-105{fill:#f5f4f8;}.cls-106{fill:#dfdddf;}.cls-107{fill:#ceafb0;}.cls-108{fill:#beb5b9;}.cls-109{fill:#cfced8;}.cls-110{fill:#949dc7;}.cls-111{fill:#bec1d9;}.cls-112{fill:#eba5a2;}.cls-113{fill:#eeb194;}.cls-114{fill:#3b3656;}.cls-115{fill:#2a2247;}.cls-116{fill:#888ead;}.cls-117{fill:#736f89;}.cls-118{fill:#a2a2a3;}.cls-119{fill:#693f44;}.cls-120{fill:#4f5381;}.cls-121{fill:#eceaf6;}.cls-122{fill:#8b728e;}.cls-123{fill:#9e78a1;}.cls-124{fill:#7d7d8f;}.cls-125{fill:#d8dbf7;}.cls-126{fill:#d6d3e5;}.cls-127{fill:#5d396c;}.cls-128{fill:#976ba7;}.cls-129{fill:#d8d5ee;}.cls-130{fill:#c1c1db;}.cls-131{fill:#abacc5;}.cls-132{fill:#e2747d;}.cls-133{fill:#727c99;}.cls-134{fill:#69729e;}.cls-135{fill:#727ba8;}.cls-136{fill:#6873a0;}</style></defs><title>Artboard 2</title><path class="cls-1" d="M181.4,1080.92c-.46-1.49-1.82-.68-2.7-1.07a.83.83,0,0,1,.12-1.15,4.09,4.09,0,0,1,1.25-.54,15.7,15.7,0,0,1,2.74-.26,22.33,22.33,0,0,0,6.25-.59c1.41.06,3.16-.55,3.4,1.77-1.74,2.08-4.74-.28-6.47,1.84Z"/><path class="cls-2" d="M95.81,1.71c0-.27.07-.53.1-.79h11a1.35,1.35,0,0,0,.11.79A9.89,9.89,0,0,1,95.81,1.71Z"/><path d="M95.81,1.71h11.24c6.4.35,12.8.66,19.19,1.08a10.66,10.66,0,0,1,3.51.88,121.06,121.06,0,0,1,26.5,15.81c1.39,1.11,1.35,1.15-.19,3.95,3.28,2,8.16,2.21,8.67,7.6-1-.18-2.18-.8-2.76-.43-1.29.8,0,1.95.35,2.72,1.65,3.62,2.17,6.85-2,9.1-2.41-4-6.77-1.54-10-3-.65-.28-.85.64-1,1.21a25.67,25.67,0,0,1-1.23,4.38c-2.11,5.24-4.27,10.3-9.71,13.31-2.92,1.61-3.25,4.61-1.06,7.48.75,1,1.56,1.87,2.3,2.84,1.4,1.83,2.39,4.59,5.48,1.82.81-.72,2,.14,2.78,1a30.93,30.93,0,0,1,4.12,13,46.11,46.11,0,0,0,3.55,7.48c2.9,4.9,4.25,10.7,9.37,14.32,2.12,1.49,2.45,4.26-.36,6.16a6.14,6.14,0,0,0-2.8,3.53c-.56,2.39-2.23,3.45-5,4a8.69,8.69,0,0,0,5.58,1.81c4.09.12,5.79,3.21,7.35,6.13,1.2,2.24-.28,3.34-2.58,3.51-3.85.28-7.38,1.87-11.65,2.65,1.49,2.41,3.56,2.55,5.61,2.74s4.37.08,4.93,2.47c.61,2.55-1.22,4.29-3.16,5.63-1.5,1-3.34,1.53-4.7,2.84-2.49,2.41-2.33,4.17.75,5.62,2.07,1,4.22,1.88,6.63,1.31,3.22-.76,2.95,1.24,2.32,3.16a9.16,9.16,0,0,1-4.52,5,58.55,58.55,0,0,0-5.91,3.51c-.25.19-.51.35-.74.55-4.47,4.07-4.59,6.11-.88,10.63.71.87,1.29.54,2,.3a15.12,15.12,0,0,0,3.64-1.93,119.57,119.57,0,0,0,12.71-12.95c3.54-5,6.54-10.48,10.93-14.89,6.07-.9,11.25,1.62,16.85,3.52,9.05,3.06,18.65,4.55,28.05,6.52a120,120,0,0,0,13.59,2.14,31.33,31.33,0,0,1,21,10.48c5.9,6.38,13.05,11.6,19.17,17.79C299.4,204.28,312.59,222,322,242.29c2.34,5.08,6.35,9,9.69,13.3a145.36,145.36,0,0,1,14.43,22.73c13.07,25.6,22.75,52.61,33.81,79.05,3.09,7.37,2.86,15.31,1.56,22.58-1.94,10.86-1,21.59-1.48,32.37-.58,11.84,1.83,23,5.64,34a15.42,15.42,0,0,0,1.43,2.84c2.48,4.12,2,8.38-1.52,11.92-2.38,2.39-4.82,4.7-7.23,7.05-3.76,3.67-3.75,3.76.7,6.18,1.22,1.31-.13,3.62,1.81,4.65.38,2.37.83,4.74,1.13,7.12.33,2.61-.06,5-3.12,5.69-2,.45-2.11,2-2.38,3.41-2.49,12.67-6.7,12.79-17,13.09-3.9.11-7.87-.9-11.77-1.59-4.15-.73-8.23-1.51-11.13,2.72-1.13-2.7.91-4.62,1.81-6.74,1-2.39,1.37-4.5.24-7-2-4.37-.8-9.29-2.15-13.88-2.13-7.29-7.43-11.21-13.66-14.41-1.25-.64-2.34-.15-3.36.67a17.87,17.87,0,0,1-7.94,3.26,16.07,16.07,0,0,0-2.3,1.08c-2.24,1.05-2.66,3.2-3.16,5.27a24.69,24.69,0,0,1-1.78,6.12,11.23,11.23,0,0,1-2.74,3.89c2.4.19,2.23,2.63,3.4,3.9,3,3.22,5.43,6.79,9.64,8.84a19.58,19.58,0,0,1,8.18,8.4c1,4.11-.09,6.79-3.82,8.47a40.84,40.84,0,0,0-8.7,4.89c1.64-.39,3.35-3.13,5,0,.68,1.28,1.25.17,1.73-.19a11.08,11.08,0,0,0,3-3.41,6.86,6.86,0,0,1,2.36-2.73c1.77-1.07,3.73-1.78,5.6-.64,2.13,1.32.79,3.23.37,4.92-.7,1.56-1.56,3-3.37,3.45-3.08.7-2.93,2.88-2.34,5.36,3.9-5.15,7.85-10.23,10.78-16,.75-1.49.92-3.67,3.35-3.68-.27,7.66-2.83,14.93-3.84,22.47-.22,1.66-1.46,1.83-2.76,1.53-3.6-.84-3.59,1-3.1,3.73s.5,5.49,1,8.19c.37,2.09-.39,3.2-2.3,3.74-1.1-.79-.14-2.73-1.8-3.29-1.17,1.7.84,2.67.85,4.06a8,8,0,0,0-3.73,8.08c.24,2.18-1.13,3.72-2.34,5.29q-15.73,20.33-32.86,39.47c-2.43,2.72-2.47,4.68-.4,7.33q4.78,6.07,9.33,12.33c1.22,1.68,3,3.61-.58,4.85-.3.1-.44.72-.62,1.11-1.42,3-6,5.07-5.23,8,.6,2.41,5.21,3.55,7.11,6,4,5.09,7.78,10.54,7.4,17.53-1.08,19.69-1.51,39.38.07,59.07a22.33,22.33,0,0,1,.06,8.19c-.64,3.71-2.62,5-6.86,4.57,3,7.68,3,15.76,4.72,23.57,3.09-4.07.38-9,2.45-13.1a.9.9,0,0,1,1.18-.2c2.4,12.24.41,24.33-1.21,36.44a42.31,42.31,0,0,0-.51,5,108.11,108.11,0,0,1-5.88,35.46,44.76,44.76,0,0,0-2.43,13c-.74.83,0,2.15-1.31,3.2-1.43-5.19-5-1.26-7.58-1.87-.47-.11-.77-.25-.42.43s.11,1.75.53,2.15c.59.56.59-.58,1-.85,1.41-1,3.09-1.9,4.64-1.27s1.48,2.44,1.06,4c-1.53,3.33-4.75,4.86-7.4,7A33.86,33.86,0,0,1,274,846a12.27,12.27,0,0,1-3.67.3c-7.58-.74-15.31,0-22.73-2.45-2-.69-3.23.59-3.29,2.64-.15,5.55-1.71,10.51-5.63,14.58-2.29,5-1.33,10.18-.51,15.3a32.28,32.28,0,0,1,.55,5.45c-.07,8,.06,15.87,2.19,23.64,1.06,3.9-1,7.86-.27,11.83.46,6.6-.46,13.14-1.5,19.59-1.2,7.39-1,14.93-2.74,22.26-.88,3.82,1.1,7.52,1.15,11.33,0,1.58-.31,3.15-2.22,3.52-2.06.41-3.12-.74-3.61-2.6-.16-.59-.26-1.19-.47-1.76-.17-2.76-1.43-3.85-4.36-3.45a43.24,43.24,0,0,0-8.8,1.8,18.18,18.18,0,0,1-9.69,2c-5.19-.33-10.3.59-15.45.93a5.66,5.66,0,0,0-4.88,2.81c-.67,1.09-1.55,2.71-2.92.49-1.26-6.29-2.62-12.56-3.71-18.88-.37-2.18-1.15-2.67-3-1.66-5.18,2.86-10.33,1.27-14.09-1.92-4.93-4.2-9.44-9.41-9.62-16.55-.07-3,3.18-4.25,5-6.22,1.49-1.65,2.72-3,2.21-5.56-.69-3.54-1.48-6.1-5.82-3.71a2.72,2.72,0,0,1-3.33-.46c-5.42-4.53-8.58-16.77-6-23.53a7.37,7.37,0,0,1,2.39-2.71,57,57,0,0,0,4.7-4.34c5.06-5.73,6.94-11.5,4.9-19.82-6.81-27.74-13.28-55.65-17.08-84-1.9-14.22-2-28.7-2.57-43.07-.36-8.58-1.43-16.76-4.48-25-2.63-7.13-2.95-15.2-3.71-22.92a119.77,119.77,0,0,0-10.67-38.63,85.3,85.3,0,0,1-7.74-30c-.14-2.12-.58-4.24-.66-6.36-.13-4.11-1.76-5.89-6-4.33-1.92.71-2.22-.7-2.66-2.13C99.16,599,96,585.26,89.09,572.86c-1-1.78-.37-3.6-.12-5.37,2.52-17.55,2.15-18.18-14.21-24.08a1.39,1.39,0,0,0-.44-.13c-10.9-.88-14.4-8.3-18.24-17.51-7.46-17.92-12.95-36.49-19.93-54.53-7.4-19.15-15.32-38.17-20.51-58-4.83-18.42-11.15-36.54-13.89-55.47-.92-6.28,1.76-12.33,2.59-18.51,1.43-10.6,3.64-21.07,6.06-31.5C12,301,10.69,294,10,287.23c-2.25-21.57,4.26-40.42,16.86-57.47,3.07-4.16,7.3-7.39,11.54-10.43q10.44-7.5,20.88-15c8.78-6.32,15.44-14.82,23-22.38,1.38-1.38,2.42-3.21,4.47-3.84.83.72.21,1.77.67,2.7a4.19,4.19,0,0,1,1.08-3.47c4.8-1.92,5.18-5.08,3.43-9.64-4.39-11.46-6.72-23.45-8.1-35.62-.31-2.73,0-4.78-4.69-4.68-7.43.17-11.09-6.27-13.87-12.31-1.44-3.13-2.38-6.45-4.11-9.55-2.46-4.39-1-9.46-.88-14.22.21-8-2.28-15.45-4.32-23.08a61,61,0,0,0-5.47-14.51c-1.83-3.27-1.26-8.36.39-12.51,2.75-6.94,4.63-13.83,12-18.47C69.83,18.42,76.65,13.12,81.5,6A7.18,7.18,0,0,1,88.36,3.1,12.16,12.16,0,0,0,95.81,1.71Z"/><path class="cls-3" d="M291.69,837.51c-.23-1.34,1.2-3-.87-4-.11,2.38-6.16-1-3.71,3.78.39.77-.12.62-.42.67-.66.11-.93-.28-1.34-.83-1.48-2-.37-4.75-2.31-6.88,2.25,2.15,3.46,3.06,6.52.58,3.5-2.83,2.52,1.73,3,3.6,1.61-.42.93-2.11,1.82-2.76.22,8,3.55,15.09,6.68,22.17,3.66,8.3,5,16.71,2.6,25.63V868.62h-.91V882.3a1.49,1.49,0,0,1-1.29.28c-5.49-1.6-5.27-1.49-6,4.46-.61,5.16.2,10.31-.66,15.47-.69,4.07,5.2,10.81,10.23,12.4a2.4,2.4,0,0,1,1,.82,11.17,11.17,0,0,1,.78,3.54c.19,2.45,0,4.09-3.28,3.74-1.89-.21-3.77,1.12-5.79,1a21.49,21.49,0,0,0-5.55,1.25c.49,2,2.5,1.79,3.41,2.84.71.86,1.16,1.89,1.89,2.73,1.31,1.46,3.21,1.65,4.88,2.32,4.2,1.7,6.79,4.41,6.28,9.32-.18,1.8,0,3.64,0,5.47a107.39,107.39,0,0,1-.45,12.93c0,1.09,0,2.18,0,3.27-2.14,5.53-2.11,11.57-4.12,17.13-1.17,3-1.5,6.38-4.17,8.65-.76,2.38-1.51,4.78-4.41,5.42-2,2.2-3.53,4.91-6.93,5.16-6.34-1-12-4.69-18.76-4.21-1.64.12-3-1-1.46-3a3.94,3.94,0,0,1,1.22-.67,58.82,58.82,0,0,1,7.57-1.35c1.77-.21,3.31-1.47,5.2-1.16,2.15.38,1.7,3,3.59,4.1.63-2.35-1.32-4.35-.56-6.45a30.16,30.16,0,0,0,1.88-6.38c1.41-3.49,1.57-7.23,2.18-10.88-.15-6,3-10.86,5.71-15.84,1.85-3.51,3.81-7,4.42-11,.46-4.28-2.08-6.76-5.27-8.89-2.48-1.64-4-1.24-4.27,1.92-.16,1.68-.65,3.29-1,4.93-.64,3.27-2.34,5.58-5.6,6.61-2.68.76-5.78.26-7.92,2.65a6.25,6.25,0,0,1-2.4,1.27c-2.55.5-5.2.12-7.74.81a4.31,4.31,0,0,1-2.72-.2c-1.63-.66-3.32-1.75-3.1-3.56.27-2.15,2.29-1.33,3.71-1.22a19.43,19.43,0,0,1,2.29,0c.25-.1.18-.27-.24-.29-2.68-.1-6.88.79-7.21-2.1-.38-3.38,4.11-2.38,6.47-3.27,1.88-.7,3.95-.44,5.9-.83a9,9,0,0,1,1.26-.33c2.89-.49,6-.15,8.56-2.35-4-2.76-7.1-6.72-12.46-6.26a16.89,16.89,0,0,1-5.26-4c-1.14-3.47,1.23-3.32,3.13-2.62,3.58,1.32,7.36,2.06,10.76,3.86,1.11.59,2.22,1.22,3.22-.14.55-.73,1.38-1.45,1.18-2.39-.33-1.57-1.81-1.45-3-1.51-4.69-.24-7.33-4-10.93-6.18-1.19-1.56-4.57-2.95-.41-4.94,5.23-.19,9.85,3,15.2,2.61a115.49,115.49,0,0,1-13.51-5.51c-.83-.38-1.75-.56-2.57-1-1.33-.66-3.19-1.13-2.74-3.1.4-1.73,2.18-2.06,3.68-2.18,3.45-.26,6.54,1.33,9.79,2.11a10.09,10.09,0,0,0,3.89.51,19.06,19.06,0,0,0-8-4.71c-2.13-.7-4.53-1.22-5.18-3.94.18-2.11,1.54-2.45,3.25-2,1.48.34,2.87,1,4.34,1.4,3.46,1.05,6.94,2.05,10.77,1.44-1.32-1.07-3-1-4.25-1.76-1.28-1-3-1.79-1-3.64,1.57-.38,3.73-.38,2.39-3-1.6-3.14-.49-4.88,3-5.64-3.34-1-6.51-1.34-9.61-2-1.56-.33-3.1-.95-3-2.82s1.71-1.92,3-2.33a12.91,12.91,0,0,1,6.3-.16c1.78.29,3.79,1.18,5.32-.7-1.61-1.31-1.95-2.71-.25-4.16,3.89-3.29,5.39-7.6,5.5-12.55,2.27-4.43.13-8.66-.57-13C291.69,845,289.74,841.34,291.69,837.51Z"/><path class="cls-4" d="M269.62,993.57a5.49,5.49,0,0,1-.81.14,7.15,7.15,0,0,1-5.06.74c-1.18-.26.1.89-.45,1.14-3.14,1.39-6,3.34-9.84,1.31-2-1-3.58.09-3.14,2.73.15.86.7,1.74-.14,2.55l-4.44-2c-4.17-2.21-5-6.53-6.59-10.37-.19-1-.52-2-.75-3.05-1.12-5-1.8-10.23-7.31-12.71-.37-1.85-.69-3.69,1.06-5.1a1.94,1.94,0,0,1,.66,2c-.15,1.62.34,2.79,2.22,2.55,2.16-.26,1.66-2,1.34-3.19-3.12-11,.65-21.68,1.43-32.48.5-6.8,1.54-13.57,1.66-20.42.17-4.56,2.21-8.89,2.46-13.24.45-7.8-.06-15.78-4.39-22.84-.33-7-3.24-14,0-21,.56-.53,1.26-.88,1.79-1.44,2-2.12,3.34-2.09,3.59,1.16a19.54,19.54,0,0,0,1.44,4.84c1.2-1.35-.88-4.53,2.57-4.62,1.4,2.33,1.11,5,1.48,7.54a3.63,3.63,0,0,1-3.12,4.36,37.14,37.14,0,0,0-5.66,2.11,8.15,8.15,0,0,0,5.85,1.71,12.56,12.56,0,0,1,4.94.79c1.63.57,4.16.68,3.79,3.09-.32,2-2.62,1.6-4.23,1.77-5.08.52-7.09,4.22-4.49,8.6a26.29,26.29,0,0,1,2.68,6.28,5,5,0,0,1,.11,1.33,6.28,6.28,0,0,1-1.56,2.93c-1.2,3-.53,6.38-1.65,9.43a1.36,1.36,0,0,0,.19,1.32c3.83,3.27,2.57,6.52.2,10-1,1.45-.66,3.35-.14,4.93,1.31,3.91.52,7.5-1.16,11-2.44.4-1.65-2-2.58-2.91.24,3.61,2,7,1.93,10.71-1.58,1.55-.6,3.42-.57,5.14,0,2,1,4,.53,5.81-.86,3.59.55,6.3,2.54,9a1.76,1.76,0,0,1-.26,1.32c-3.3,3.4-5.57,6.89-2,11.54.61.8.18,2.08-1,4a20.73,20.73,0,0,1,5.85-6.08c3-2.07,6.9,1.29,7.6,6.28-1.7,1.12-3.51.79-5.25.24-1.24-.4-2.39-.93-3.15.57s.26,2.3,1.12,3.2c2.78,2.91,4.7,2.41,5.86-1.55a3.82,3.82,0,0,1,1.3-2.34c2.93.1,5.64,1.15,8.39,2,1.9.76,4,.4,5.92,1.16C274.19,988.64,269.86,990.92,269.62,993.57Z"/><path class="cls-5" d="M174.76,163.57c-3.59,4.92-8.21,8.83-12.64,12.92a1.89,1.89,0,0,1-2.54-1.77c-.09-3.37-2.2-6-2.94-9.09,2-1.27,4-2.66,6.09-3.76a8.39,8.39,0,0,0,5-7.07c-2.83,1.58-10.15.29-12.16-2.08a2.85,2.85,0,0,1,.05-4.09c1.73-1.9,3.46-3.78,6.2-4.31a4.84,4.84,0,0,0,3.67-5c-.09-2.26-2.87-1.68-4.57-1.53-3.38.3-5.48-1.8-8.81-4.13,5.77-.89,10.15-3.67,15.37-3.19,1.17.1,2.19.16,2.05-1.5-.17-2-5-6-7.15-6.06a20.84,20.84,0,0,1-4.32-.82c-1.37-.36-3.42-.45-3.1-2.44s2.94-.83,3.36-1.27a69.19,69.19,0,0,0,7.4-9.29c.28-.4-.88-2.45-1.78-2.89-6.06-2.92-6.47-9.33-9.17-14.31,4.22.83,5.22,4.82,6.67,7.77,2.16,4.41,6.5,4.55,9.91,6.48,1.79,1,2.41-3,4.62-1.43a155.22,155.22,0,0,1-2,24.16,5.65,5.65,0,0,1-.91,2c-2.92,4.6-3.11,9.56.07,13.7,2,2.56,5.41,1.82,8.2,2.53,1.37,1.51-.21,2.49-.69,3.63C178.8,155.11,176,159,174.76,163.57Z"/><path class="cls-6" d="M245.77,1027.91c3.46,3.17.58,6.91.7,10.32.18,4.66-2.74,7.7-6.54,10.62-6.6,5.07-14.4,7-21.82,10-3.53-.16-4.45,2.49-4.42,5,.08,6.36-3.05,10.42-8.33,13.28-3.62,1.1-7.41,1.17-11.09,2l-1-.07c-1-1.6,0-2.91.69-4.22A80.8,80.8,0,0,0,199.8,1062a54.28,54.28,0,0,0,4.17-17.52c2.7-1.32,2.71,1.26,3.58,2.53s1.59,2.87,3.41,2.37,2.32-2.25,2.5-4c.21-1.87-.44-3.26-2.45-3.72-1.31-.29-2.75-.09-3.88-1-.49-1.82,1-1.68,2-2.15.54-.25,1.72.3,1.53-.81-.07-.39-1.34-.35-1.91-.87,0-4.11,3.26-5.7,6.22-6.75,2.34-.84,3.11,1.77,3.73,3.68.54,1.65-.3,3.75,1.62,5,.28,3.85-2.48,7-2.31,11,.1,2.35.6,3,2.82,2.58,3.26-.61,6.73-.55,9.21-3.29,2.26-2.9,6-3.19,9.11-5.25-4,.83-7.44,2.39-11,3.67-4.59-2.08-4.41-4.26,1.38-8.74-2.16.53-3.52,1.7-5,1.26-2.18-.67-1.35-2.28-.84-3.7a11.16,11.16,0,0,1,7.67-5.89c3.75-.87,6.92-3,10-5.33,1-.91,2-2.11,3.61-1.21A20.49,20.49,0,0,1,245.77,1027.91Z"/><path class="cls-7" d="M240.22,989.9a47.71,47.71,0,0,0,5.52,10.3c-.62,1.83-1.25,3.66-1.87,5.48a19.5,19.5,0,0,1-5.44,9.44c-1.74.46-2.34-.74-3.05-2a35.32,35.32,0,0,1-3.5-8.29c-1-3.61-3.06-4.82-6.44-4.65-2-3.57-4.82-1.72-7.05-.61s-4.35,2.13-6.78.61c-1.07-6.79.17-7.83,6.73-5.41-2.31-1.43-4.48-2.67-6.71-3.82-1.24-.65-2.46-1.62-2-3.22s1.85-1.31,3.09-1.25c3.72.19,4.21-1.22,2-4-4.84-4.27-4.86-6.78-.15-12.83a3,3,0,0,1,1.23-.62c3.07,0,5.75,1.23,8.36,2.68a5.28,5.28,0,0,1,2.2,2.58c.26,2.49,1.24,3.88,4,4.63C235.77,980.44,238.76,984.61,240.22,989.9Z"/><path class="cls-8" d="M147.34,45c.35-1.45.79-2.89,1-4.35.52-3.22.47-3.23,2.92-1.37.22.16.67.39.77.31,2.76-2.49,6,1.64,8.39-.81,1.88,1.63-2.35,2.21-.16,3.69-1.3,2.67,0,5,1,7.35,2.61,6.16,5.4,12.24,8.12,18.35-2.41,5.37-11.47,7.75-16.71,4.39-.05,3,2,5.72,1.61,8.84-1.84.32-1.49,2.83-3.24,3.24-.36-4.53-2.13-8.65-3.69-12.83-.75-1.23-1.4-2.14-3.25-1.49A4.22,4.22,0,0,1,138.34,66c.24-3.18.92-6.55,4.92-7.33,2.1-.41,2.86-1.47,2.4-3.53C144.84,51.52,146.14,48.24,147.34,45Z"/><path class="cls-9" d="M200.7,1062.53c-1.38,6-5.17,10.9-7.46,16.48l-.78.07c-.91-1.46-2.43-.28-3.55-.82-3.72-.55-6.34-3.47-8-6-3.73-5.71-8.21-8.58-15-7.79-4.48-.63-8.93-1.37-13.45-1.76-2.81-.24-5.85-.56-6.75-4.14a2.91,2.91,0,0,1,1.84-2.85c1.67.07,3.92,1.42,4-2,0-1.21,1.09-2.14,2-3a9.73,9.73,0,0,1,3.6-2.3c4.73-1.11,9.45-1.87,14.11.24-.68,3-.68,3,2.76,6.28,1.9-4.5,5.89-4.51,9.8-4.41a5.87,5.87,0,0,1,5.53,4.12c1.52,4.18-1.54,6.35-4.27,8.81,4.47.53,8.06-2.09,12.07-2.85C199,1060.26,201.12,1058.83,200.7,1062.53Z"/><path class="cls-10" d="M151.05,84.59c1.25-.56-.33-3.77,2.59-2.77,1.84.35,2.06,2.05,2.73,3.34,1.31,2.53,3.21,4,6.17,3.68,3.11-.23,2.93-4.15,5.53-5a4.83,4.83,0,0,1,2.44-.28c2.38,6.14,5.39,12.11,4.65,19-.07.66.5,1.4.78,2.1-1.36,0-1.81.89-1.94,2.08s-1.16,2-1.81,1.37c-3.47-3.36-9.92-2-11.83-8.2a18.41,18.41,0,0,0-5.62-8.07A22.21,22.21,0,0,1,151.05,84.59Z"/><path class="cls-11" d="M250.18,1002.18c-2.5-5-.7-8.8,2.91-6.85,4,2.14,6.78-.34,10,.15a14,14,0,0,1,12,3.87,6.2,6.2,0,0,0,3.54,1.54c1.94.42,3.43,1.22,2.84,3.63-7.45,3-15.32,2-23,2.14C255.31,1006.7,252.77,1004,250.18,1002.18Z"/><path d="M170.51,83.61c-.28,1.06-1.07,1-1.9.9-2-.36-3,1-3.32,2.55a4.53,4.53,0,0,1-2.33,3c-6.67,1.29-7.33-4.23-9.32-8.23-.19-4.24-3.89-8-1.66-13.38,2.22,3.47,4.24,7.12,8.31,4.29,2.88-2,7.17-1,9.1-4.61.45,1.78,1.27,3.57,0,5.36-.48.57-1.48,1.13-1.38,1.69.68,3.62-2,4-4.82,4.51,2.37.61,4.29,0,6.17.38Z"/><path class="cls-12" d="M303.79,741.78c0,3.68-.1,7.35-.11,11,0,2.08-.62,3.86-3.1,6-3.81-10.15-2.19-20.87-6.47-30.72a15.23,15.23,0,0,1,1.93.22c1.57.56.6,3.89,2.34,3.18a7.35,7.35,0,0,0,4.49-6.29c.17-2.12,0-4.27,0-6.41,1.66,3.94.73,8,.73,12.06C302.17,734.49,304.36,738.11,303.79,741.78Z"/><path class="cls-13" d="M303.58,889.74c1.6,7.27,2.05,14.69,2.73,22.08-3.74,0-6.21-2-7.88-5.16a30.93,30.93,0,0,1-3.19-13.18c-.1-2.43.15-5.55,4.06-3.19C301,891.31,302.1,889.4,303.58,889.74Z"/><path class="cls-14" d="M281.48,1004.52c-.45-.77-.84-2.15-1.38-2.22-3.06-.38-5.88-.46-7.93-3.64s-6.14-1.7-9-3.18c.24-.64-2-1.36-.16-1.75s3.89,0,5.84,0c-.89,1.45-.19,1.95,1.19,1.78a20.35,20.35,0,0,1,10.17,1c2.92,1.21,6.26,1.47,8.82,3.54.37.29.93.41.93,1C287.09,1002.19,284.57,1004.07,281.48,1004.52Z"/><path class="cls-15" d="M305.52,915.41c-1.74.47-3.09.87-4.69-1.06-4-4.79-8.95-8.29-6.81-16.34,1.38-5.21-.07-11.18,1.54-16.87.91-3.22,1.58-2.72,3.3-1.19a12.06,12.06,0,0,0,3.89,2.35c1.35,1.41.89,3.1.75,4.75-2.15.79-4.21,0-6.55-.4-2.42,5.73-1.07,11.79-.34,17.45.4,3.13,3.95,6.21,7.31,7.72C306.07,912.78,306.23,913.65,305.52,915.41Z"/><path class="cls-16" d="M238.27,1014.64l5.6-9c.25.84.51,1.67.76,2.5-1.15,5.22.8,10.41.16,15.62-1.37,0-1.79,1.38-2.74,2-5,1.54-5.54,1.25-6.67-3.31-.1-2.41,1.34-4.2,2.48-6.11A7,7,0,0,0,238.27,1014.64Z"/><path class="cls-17" d="M305.52,915.41c.5-2.48-1.52-2.46-3-3.31-2.73-1.58-4-4.94-7.21-6.12a1.54,1.54,0,0,1-.73-2c1.75-6.16,0-12.49.93-19.15,2.49,1.74,5.57.41,8,2.2,0,.89.05,1.79.08,2.69-2.7,4.37-2.7,4.37-6.69,0-1.34,4.65.2,8.71,1.09,12.83,1,4.73,4.18,7.38,8.33,9.2.06.59.13,1.17.2,1.76.32.95.78,2-1,1.84Z"/><path class="cls-15" d="M305.53,915.42l1-1.84c1.53,3.8.93,7.92,1.6,11.87.62,3.6.27,7.45,1,11.13-3.58-1.71-4.34-3.82-3.47-9.33-2.76,2-5.76,3.63-9.39,3.86-1.07-.65-.86-1.75-.95-2.75-.79-2.33.33-4,1.93-5.46,3.07,1.08,5.57-3.6,8.65-.58C307.2,919.74,305.82,917.62,305.53,915.42Z"/><path class="cls-18" d="M296.28,931.11c2.29-3.36,7.33-1.94,9.8-6,.84,4.19-.76,8.66,3.06,11.48,0,3.74-.09,7.48-.13,11.21l-.63,0c-.05-1.06-.14-2.12-.13-3.18,0-7,.05-7.59-8.58-10.78A5.93,5.93,0,0,1,296.28,931.11Z"/><path class="cls-19" d="M174.76,163.57c-2.27-.74-.54-1.94-.17-2.73,2.16-4.6,4.46-9.13,6.72-13.69l3.75.83C182.43,153.71,178.06,158.29,174.76,163.57Z"/><path class="cls-20" d="M205.24,1076.15c5.06-2.89,8.12-6.75,7.86-13.08-.09-2.25,1-5.66,5-4.24-4.33,1.49-3.73,5.66-4.32,8.82-.64,3.42-1.92,5.95-4.8,7.76C207.79,1075.87,206.84,1077.68,205.24,1076.15Z"/><path class="cls-21" d="M169.39,80.06c-2.72,1.8-5.66.51-8.74.82a5.78,5.78,0,0,1,.58-1.29c1.68-2,6.6,0,5.91-5-.09-.63,1.31-1.11,2.28-1.11C168.8,75.67,167.92,77.86,169.39,80.06Z"/><path class="cls-22" d="M244.79,1023.8a33.52,33.52,0,0,1-.16-15.62c0,6.6,1.8,13.09,1.14,19.73C244.76,1026.7,245.14,1025.17,244.79,1023.8Z"/><path class="cls-3" d="M303.63,981.65c.79-5.16,2.44-10.16,2.72-15.41.06-1.06.51-2,1.89-2-.91,5.9-1.53,11.87-3.75,17.49C304.19,982.09,303.9,982.08,303.63,981.65Z"/><path class="cls-23" d="M324.72,549.66c-.77-.4-1.93-.62-2.24-1.25a4.46,4.46,0,0,1,0-4.23c.68-1.18,1.47-.37,2.22,0,1.72.71,2.22,1.78,1.1,3.45-.21.32-.09.87-.12,1.31C325.65,549.52,325.28,549.7,324.72,549.66Z"/><path class="cls-1" d="M205.24,1076.15l3.75-.74c-1.81,4.08-5.8,2.47-8.83,3.28-1.86.5-3.92.28-5.89.39C197.67,1077.12,201.85,1078.1,205.24,1076.15Z"/><path class="cls-3" d="M303.63,981.65a3.1,3.1,0,0,1,.86,0c-.39,1.88-.78,3.77-1.15,5.66S302,990.27,300,990C300.33,986.82,302.61,984.51,303.63,981.65Z"/><path class="cls-24" d="M308.38,947.83a1,1,0,0,1,.63,0c-.22,4.38,1.33,8.86-.78,13.13C306.88,956.54,308.71,952.2,308.38,947.83Z"/><path class="cls-25" d="M303.79,741.78c-1.34-3.63-2.08-7.28-.19-11q.4,5.48.82,11h-.63Z"/><path class="cls-26" d="M289.92,1001.11c-.54-.14-1-.37-.93-1l6.55-4.68C294.68,998.3,293.05,1000.44,289.92,1001.11Z"/><path class="cls-27" d="M380.82,478.93l-3.86-.41c1.07-1.5,2.82-2.35,2.05-4.24C381.41,475.13,380.6,477.23,380.82,478.93Z"/><path class="cls-28" d="M185.18,974.25l.83.39c2.72-7,9.18-4.58,14.23-5.5a25.36,25.36,0,0,1,7.78-.08c3.67.48,6.77-1.13,10.07-2,.64,2.38-1.76,1.81-2.64,2.72l0,0c-4.33,4-9.13.37-13.84,1.3,1.41.09,2.74,0,4.05,0,1.15.06,2.64-.31,2.82,1.44a3.16,3.16,0,0,1-1.82,2.92,4.84,4.84,0,0,1-3.92.58c-1.19-1.65-7.2-1.71-8.28.09-.4.67.82,1,1.36,1.49,5.63.63,7.75,4.61,8.94,9.42.66,2.69,1,5.28-2.84,5.9-.57.09-.12-.34-.42.13-5.21,8.23-14.41,6.41-22,8.57-1.51.44-3.14,2.15-5,.75-1.31-2.85-.42-5.59.18-8.43.46-2.16,1.23-4.39.47-6.68-.1-2.54,1.41-4.49,2.43-6.63,2-2,3.18-5.44,7.11-3.48.11.05.35-.74.41-1.18Z"/><path class="cls-29" d="M179.57,1079a1.39,1.39,0,0,1-.79.24c-5.69.57-11.19-1-16.75-1.72s-10.77-2-16.35-1.67a8,8,0,0,1-4.79-1.32c-.8-.19-1-.75-.92-1.47-2.1-8.06-.35-15.46,3.75-22.48a1.62,1.62,0,0,1,2,.55c1.19,2.5-.69,4.45-1.19,6.64a50.85,50.85,0,0,0-2,4.91c-.47,1.45.11,2.23,1.36,2.77,5.77,2.11,11.9,2.28,17.87,3.15,3.58.52,6.91.81,8.64,4.71.79,1.79,2.86,2.08,4.59,2.69S179.05,1076.45,179.57,1079Z"/><path class="cls-30" d="M140.89,1074.5c12.88-.49,25.38,2.19,37.89,4.71a1.55,1.55,0,0,0-.08.64c-11.88.81-23.52-.88-35.1-3.34A3.45,3.45,0,0,1,140.89,1074.5Z"/><path class="cls-31" d="M157.54,1028.49c1.8,2.19,2.46-.79,3.77-.83,1.94.09,1.81,1.66,2.12,2.93-.36,2.28-2.19,3.22-3.94,4.15A16.06,16.06,0,0,0,152,1043c-1.41,3.26-2.8,6.84-6.54,8.43l-.85-.89c-.69-4.37,2.58-7.43,3.68-11.2Z"/><path class="cls-32" d="M148.29,1039.38c.35,4.25-3.28,7.19-3.68,11.2-5.2,6.73-4.85,14.6-4.64,22.45-3.51-3.21-1.64-7.16-1-10.62A57.7,57.7,0,0,1,148.29,1039.38Z"/><path class="cls-33" d="M88.5,177.36c-.52,2.1-.18,4.12.94,6.9-3.39-1.6-3.22-3.79-2.69-6.13C87,177,87.84,177.43,88.5,177.36Z"/><path class="cls-34" d="M179.57,1079c-2-1.6-4.55-1.56-6.84-2.31-1.65-.55-3.57-1-3.86-2.82-.57-3.52-3.18-3.91-5.7-3.86-5.84.11-11.32-2.57-17.19-2-2,.2-2.51-1.4-3.21-2.74-.72-2.92.44-5.24,2.35-7.32a1.34,1.34,0,0,1,1.27-.14c.86,3.83,4.13,3.52,6.86,3.72a102.67,102.67,0,0,1,13.41,2c1.5,3.5,4,5.58,7.55,7.33a18.2,18.2,0,0,1,8.09,8.1Z"/><path class="cls-35" d="M182.3,1078.92c-4.54-2.29-6.72-7.7-12.44-8.78-1.77-.34-4.38-3.33-3.2-6.65a11.57,11.57,0,0,1,13.48,5.38c2.3,4.16,6.66,5.59,8.77,9.39C186.77,1079.15,184.53,1078.93,182.3,1078.92Z"/><path class="cls-36" d="M310.9,470.56c2.93-1.69,7.37-.74,8.8-5.15.2-.63,1.32-.24,2.06,0,10.24,3.24,17.3,13.59,16.79,24.64,0,.6-.23,1.37.05,1.8,4.19,6.42.83,11.93-2,17.52l.12-.14c-3.52,6.32-7,12.68-11.47,18.38-.95,1.2-1.06,3.76-3.5,2.83s0-3-.76-4.63,1.83-3.54,2.51-3.21c3,1.42,2.68-1.62,3.95-2.4,2-2.53,2.45-4.6-1.17-6.27-1.93-.89-1.37-4.48-4.33-4.68a27.57,27.57,0,0,0-11.5-10.13c-3.64-1.73-5.28-5.51-7.39-8.52-1.06-1.51-.73-3.59-4.17-2,4.12-2.62,4.87-5.95,5.78-9.29.79-2.95-.05-7,4.48-7.81,2.95,4.62,4,9.07-.08,13.82-1.81,2.13-.72,5,0,7.48a3,3,0,0,0,2.51,1.8c1.7.32,8.47-4.82,8.8-6.65.57-3.22,0-6.84,3.39-9.05a1.25,1.25,0,0,0-.05-2,9.32,9.32,0,0,0-4.8-2.46c-.77-.07-1.05,1-1.12,1.78-.23,2.31-.52,4.58-2.08,6.44-.76.92-1.44,2.29-2.89,1.61-1.22-.57-1.47-1.89-1.17-3.19.4-1.78,0-3.76,1-5.37C314.19,473.14,312.91,471.77,310.9,470.56Z"/><path class="cls-37" d="M228.24,385.05c1.74-8.13,6.17-10.6,14.12-8.42s14.57,7.24,20.78,12.2c4.95,3.95,10.43,4.39,15.81,5.33,4.78.83,10.22,3.16,10.57,6.43.52,5,4.61,5.52,6.15,8.5,2.56,5,4.42,10.23,2.54,16.05-.82,2.54-.86,5.35-1.82,7.82-1.91,4.94-6.9,5.07-11,6.44-3.47,1.21-6.26-1.07-9.34-1.85l0,0c-.85-1.4-4.39-1.59-1.89-4.65.3-.38-1.31-3.28-2.77-4.55-1.19-.17-2.67.09-2.7-1.81a5.71,5.71,0,0,0-2.16-1.65c-3-.89-3.67-3-3.36-5.77l0,0c-4.24-3.47-5.1-8.75-7.17-13.38-1-2.19-1.56-4.63-3.9-5.92-.64-.5-2.33.74-2.06-.93.15-.93-1.57-1.87,0-2.62,4.77-2.23.33-2.82-.78-3.49-.91-.54-2.32-.25-3.51-.32-2.21-.24-2.7-1.24-.94-2.7a5.84,5.84,0,0,1,5.93-1.36c1.68.59,3.4,1.51,5.19.2.08-1.67-1.38-1.85-2.32-2.44-3.72-2.37-7.88-3.9-11.67-6.17s-7.4-.86-9.53,3.14c-.64,1.2-.81,2.77-2,3.53C228.59,387.93,227.64,387.42,228.24,385.05Z"/><path class="cls-38" d="M228.24,385.05c.84,3,1.68,1.29,2.34-.05,4.2-8.65,6.5-9,14.78-4.24,3.47,2,7.26,3.69,10.91,5.51,1,.48,2.55.77,1.81,2.57a2.77,2.77,0,0,1-2.85,1.83,8.85,8.85,0,0,1-5.18-1.37c-2.16-1.39-3.49,1.24-5.32,1.72-.57.15.45,1.11,1.06,1.49-.06.14-.21.3-.18.41,1.64,6.24-3.54,6.32-7.1,7.87-2.06,3.22-7.93,4.84-13.08,3.61C225.63,397.85,224.89,391.15,228.24,385.05Z"/><path class="cls-39" d="M270.54,562.4c-2.6-.18-4.66.41-5.76,3.17-.76,1.93-3,2.42-4.44,3.73-.69.62-2.27.62-1.53,2.21.38.82,1,1.74-.56,1.92-1.38.15-3.95.39-4,.18-.92-4.44-5-3.48-7.71-5-1.36-.75-4.45-1.22-2.67-4.25-.7-.6-1.65-1.43-.66-2.19,2.79-2.13,4.79-4.93,7-7.55,1.39,0,2.08,1,2.8,2,.94,1.28,1.74.77,2.5-.22,4.27-4.07,13.47-2.55,15.94,2.61C272.17,560.47,272.22,561.68,270.54,562.4Z"/><path class="cls-40" d="M310.9,470.56c3.33-.09,6.16-.25,3.16,4.54a10.19,10.19,0,0,0-.83,9.18c2-2.84,3.39-5.14,3.42-8.39,0-2.12.55-6.16,4.26-2,.55.61,1.68.66,2.48,1.09,3.8,2,3.92,3.27.38,5.6-3.2,2.11-1.41,5.47-2.11,8.19-.32,1.25.5,2.54-1.54,3-2.46.54-5.25.76-5.84,4.15-.13.79-1.06,1.05-1.84.44-1.67-1.3-5-.73-4.95-3.9s-2-6.87,2.09-9.81c2.22-1.58,1.78-5.12.14-7.59-.84-1.26-1.5-2.21-.58-3.6C309.46,470.64,310.21,470.65,310.9,470.56Z"/><path class="cls-41" d="M270.47,441.22a20.27,20.27,0,0,0,1.88,9.58c.19.36.6,1,.53,1.06-4.85,3.82,2.06,2.46,1.73,4.3a22.13,22.13,0,0,1-21.42,2.93c-1.2-.49-3.88-.79-1.63-3.33.06-.06-1.82-1.77-2.71-2.79-.66-.76-2-1.28-1.66-2.47s1.7-1.15,2.78-1c6.46.72,13,1.26,19.25,3.47-1.67-4.85-2.12-9.82-2.37-15.61,1.23,2,1.33,4.22,3.71,4Z"/><path class="cls-42" d="M291.69,837.51c.33,6,2.35,11.75,3.32,17.66.41,2.48,1.25,5.11-1.53,6.9a2.09,2.09,0,0,1-2,.63c-3.07-3.26-6.72-2.46-10.51-1.69-5.71,1.16-7.15.44-9.17-3.83a2.8,2.8,0,0,1,.28-1.3c1.58-1,2.47.61,3.69,1,3.72,1.1,7.41-1.87,6.41-5.53s.3-5.83,2.89-7.85C286.4,840.51,289.89,840,291.69,837.51Z"/><path class="cls-43" d="M282.55,593.89l-.17,3.39c-3.31-4.45-4.13-9.26-5.06-13.79-.74-3.61-1.81-7.36-1.15-11.19.26-1.48-.81-3.91.62-4.31,2.63-.75,5.57-.46,8.38-.61-.08,1.61.78,2.92,1.28,4.37,1.45,4.14,4,8.23,1.41,12.84-.2,1.58-.61,3.13-2.56,3.12-1.56,0-2.17-1.39-2.89-2.57-1.67-2.71-.43-5.22.3-7.49-2.19,3-1.49,6.12.46,9.26C284.67,589.33,284.82,591.75,282.55,593.89Z"/><path class="cls-44" d="M246.54,860.08c-1.57,2.36-.15,5.13-1.35,8.57-2-3.73-4.38-6.46-3.08-10.7-2,.51-2.74,2.56-4.61,2.45,4.52-4.1,5.81-9.36,5.5-15.21-.1-2,.88-3.78,2.9-3.07,8,2.84,16.52,2,24.72,3.4-3.14,2.49-6.81,1-10.23,1.38a27.47,27.47,0,0,0-5.72.5c-.86.25-1.83.1-2.86.84.94,1.62,4.4.34,4,3.08-.28,2.17-2.08,3.26-3.92,4.15C249.6,856.38,248.25,858.45,246.54,860.08Z"/><path class="cls-45" d="M283.35,708.76c0-1.57,2.28-4.09-1.4-5,3.15-1,1.81-3.82,2.38-5.83,1-3.53,2.05-6.87,6.68-6.79.27,0,.56-.39.81-.36,1.65.25,3.13,3,5,.3.43-.61-.09-.95-.37-1.07-2.18-1-4.55-2.44-6.83-1.34-4.3,2.06-5.48-.77-7.55-3.5-1.3-1.73-.63-1.72.56-2.14a3,3,0,0,1,1.36-.09c5.06.7,9.31,3.57,13.61,5.86,3,1.57,1.31,6-2.82,6.71-3,.55-4,1.59-4.41,4.49-.2,1.64-1.61,3.16-2.55,4.69s-1.82,2.82-1.51,4.58c.27,1.5,1.7,3.67-.94,3.81C283.77,713.13,283.43,710.78,283.35,708.76Z"/><path class="cls-21" d="M250.32,555.17c.24,4.74-6.15,4.85-6.44,9.23-4.23,1.08-7.83,3.91-12.56,4.64,4.7-10.25,10.58-19,20.88-23.82a2.21,2.21,0,0,1,.68,3.11c-.65,1.2.05,1.93.93,2.6a1.44,1.44,0,0,1,.41,1.13C253.26,553.52,251.45,553.91,250.32,555.17Z"/><path class="cls-46" d="M259.48,845.68l11.14-.16,2.78-.69a3.47,3.47,0,0,0,2.07.79c1.21.1,2.54.13,2.77,1.72.18,1.24-.89,1.78-1.65,2.49-2.63,2.51-5.91,4.14-8.64,6.52-2.81,2.54-6,2.41-9.31,1.31-1.86-.61-3.61-1.55-5.6-1.75a3,3,0,0,1-1.81-1.15c1.43-1.17,3.58-1.64,3.83-4-1.49-1.38-5.25.82-5.13-2.63.08-2,2.54-1.48,4.15-1.46C256.28,849,258.48,848.64,259.48,845.68Z"/><path class="cls-47" d="M225.43,404.4c4.25-1.59,9.23-.56,13.08-3.61.94,1.72,3,1.5,4.45,2.3-1.07,4.77-7.93,2.38-8.58,8.05s5.67,5.07,6.7,9.32c-3.28-1.06-6.69.62-9.69-2.91-1.21-1.42,0-2.49-1.11-3.48-2.25-2-2-5.88-5.43-7.28C223.41,406.2,222.79,404.62,225.43,404.4Z"/><path class="cls-48" d="M375.32,477.16c-.89,2.67-1,4.47,3,4.8,2.58.22,1.83,3.19,1.24,4.94-.49,1.48-2.2,2.39-3.53,1.06-3.45-3.46-8.52-4.21-12-7.42-1.32-1.22-3.93-1.72-2.73-4.9,1-2.69,1.57-3.75,4.74-2.51,2.23.88,4.5,2.74,7.58,1.24C375.46,473.45,375.21,475.8,375.32,477.16Z"/><path class="cls-49" d="M267.72,855.52l9.81-8c-.86-1.93-4.06.18-4.13-2.69a62.9,62.9,0,0,0,11.68-1.36c-1.49,2.91-3.44,5.46-1.15,9.21,1.42,2.33-1.7,3.36-3.34,4.58-2,1.49-4.07,1.92-6.22.33-.71-.52-1.36-1.15-2-1.73C270.71,857,269.15,857.17,267.72,855.52Z"/><path class="cls-50" d="M147.34,45c-.55,3.88-1.49,7.69-.09,11.68.81,2.3-.76,3.07-3.05,3.18-3.26.17-6.14,5.22-4.53,8,.72,1.23,1.19,4.16,4.18,1.37,2.12-2,3.08.64,3.51,2.6C145,71,145,71,142.85,74.48c-2.08-2.54-4.08-5.06-6.17-7.52-3-3.58-3-7.81,1.24-9.84,4.9-2.34,6.63-6.4,8.48-10.75A8.51,8.51,0,0,1,147.34,45Z"/><path class="cls-51" d="M198.12,696.93c1.17,6.16,5.19,10.53,4.77,16.3-.11,1.54.12,2.48,1.32,2.38,3.49-.31,5.75,1.11,5.58,4.52-.19,4-3.2,4.64-6.59,4.11L202,724.1c1.56-1.25,3.73-1.17,5-3-2.11-1.54-5,.62-6.76-1.63.62-1.16,2.8-.36,2.85-2.35-1.13-.11-2.47.1-3.41-.42-1.28-.71-4.1-1.68-.67-3.48,1-.53,1.78-.89,1-2.35-.62-1.18-.84-1.44-2.29-.88-2.74,1.08-2.15-.81-1.58-2.32.64-1.72,2.35-3.73-1.29-4.11-.91-.1-.56-.88-.55-1.38a.82.82,0,0,1,1.29-.72,3.29,3.29,0,0,0,3,.52C198.53,700.69,196.2,700,198.12,696.93Z"/><path class="cls-52" d="M237.53,881.38c3.9,1.16,3.75,4.84,4.42,7.72a122.49,122.49,0,0,1,1.8,12.56c.12.89.37,2-.05,2.68-2.6,4-3.1,8.67-4.24,13.12C240.86,905.33,236.05,893.52,237.53,881.38Z"/><path class="cls-53" d="M301.12,571.1a13,13,0,0,1,.22-4c.76-2.72,1.38-5.66-1.39-7.88a1.64,1.64,0,0,1-.66-1.13c.43-5-1.45-10-.27-15,.29-1.21-.25-3.16,1.71-2.73,1.65.36,1.78,2.89,1.28,3.71-2.4,4-.62,5.6,3,6.93,1.32.49,3.13,2,2.17,3.49-3.1,4.69-3,10.25-4.82,15.27C302.15,570.19,301.58,570.57,301.12,571.1Z"/><path class="cls-54" d="M222.62,844.87c-3.82-3.5,2.75-4.63,1.8-7.65-.21-.66,1.14-.18,1.78.06,1,.39,2,.63,1.32,2.18-.42.95-.3,1.75.88,2.61,3.44,2.53,1.24,5.52-.78,6.93-2.93,2-6.67,2.86-10.33,3.45-1.88.3-1.72-1.31-2.19-2.17-.78-1.47-1.11-3.15.2-4.52a12.78,12.78,0,0,1,2.48-1.58c.74,1.23-.36,2.11-.36,3,0,1.23.35,2.83,2.06,3,2.1.17,1.27-1.56,1.45-2.59.2-1.2-.6-3,1.77-2.81a3.53,3.53,0,0,1,1.14.71C223.73,844.69,223,845.18,222.62,844.87Z"/><path class="cls-55" d="M321.94,509.25l.82-.37c1.75-.82,3,.2,2.76,1.64-.53,3.54,9,5,1.92,9.68-.89-1.47,2.44-3.6-.25-4.39a4.61,4.61,0,0,0-6.1,3.13c-1.11,3.36-4.76,4.16-6.19,7.07-2.27-1.79.21-3.14-.65-4.79-2.46.5-3.85,3.74-7.07,2.83,2.69-4,6.69-5.91,10.91-7.5C321.49,515.26,323.36,513.11,321.94,509.25Z"/><path class="cls-56" d="M270.54,562.4c.21-.4.65-.85.58-1.2-.76-3.9-4.16-5-7.19-5.75-2.75-.66-6.35-1.64-7.91,2.5-2.26-1.64-.43-4.55-2-6.42l-.3-.31c.83-4.05,3.61-2.77,5.73-1.75,2.41,1.16,4.64,2.66,7.34,3.13,4.2,1.49,6.8,4.72,8.89,8.4.64,1.13,1,3,.05,3.87-1.15,1-2.32-.6-3.46-1.1A8.36,8.36,0,0,1,270.54,562.4Z"/><path class="cls-40" d="M212.77,808.94c5.29,0,10.61-.18,15.66,1.48,3.93,1.3,6.67,1.4,5.72-4.39,2.16,3.59,4.68,6.76,1.34,10.63a3.28,3.28,0,0,0-.81,2.05c-.07,1.35.77,3.29-1.92,3.07-1.15-.1-2.59-.65-2.06-1.61.73-1.32-1.13-4.21,2.22-4,.3,0,.63-.43,1.58-1.13C227.06,812.3,220.21,809.83,212.77,808.94Z"/><path class="cls-10" d="M184.2,275c9.38-2.91,18.68-6.16,28.59-7.16-10.26,3.14-19.34,9.05-29.52,12.36-.3-.34-.61-.86-.36-1.17C183.87,277.82,185,276.74,184.2,275Z"/><path class="cls-57" d="M282.55,593.89c.6-2.49,1.06-4.74-.7-7.24-3.24-4.59-1.26-8.68,2.18-12.67.71,2.88-1,4.93-1.44,7.23a5.18,5.18,0,0,0,2.36,5.54c1.64,1,1.84-1.51,2.91-2.16.86,1.9,1.82,3.76,2.55,5.72.44,1.18,1.27,3.09-1.52,2-1.15-.44-.93.79-.81.88,1.5,1.19,1.51,2.51-.16,3.2a2.51,2.51,0,0,1-3.58-1.79C284,593.51,283.3,593.76,282.55,593.89Z"/><path class="cls-55" d="M156.64,165.63c2.15,2.24,4.49,4.34,3.67,8-.28,1.28.61,2.27,1.81,2.84a13.8,13.8,0,0,1-1.74,1.24c-5.13,2.71-5.59,2.65-6.44-3-.46-3-2.17-1.41-3.83-1.64C152.51,170.58,153.32,167.07,156.64,165.63Z"/><path class="cls-58" d="M236.76,840.92c-3.77-1.39-5.94-4.72-8.22-7.57-2.4-3-1.8-3-5.29-2-2.75.77-2.71-2.94-4.39-4.3s.9-2,1.48-2.15c3.5-.68,6.9.37,8.87,3.13,2.88,4,5,8.61,7.45,13Z"/><path class="cls-59" d="M183.17,248.05c7.62-3.47,16.07-3.69,24-6-7.6,2.81-14,8.17-22.05,9.91C182.84,251.48,181,250.79,183.17,248.05Z"/><path class="cls-60" d="M252.1,399.87c2.74.39,3.94,2.16,4.73,4.69a81.19,81.19,0,0,0,6.34,14.61c-1.83-1.52-2.88-1.07-3,2.89-1-6.42-5.12-9.4-6.88-13.87C252.07,405.23,253.78,402.39,252.1,399.87Z"/><path class="cls-41" d="M289.05,444a8.35,8.35,0,0,1,7.79,0c-.27-3.37-4.81-2-5.17-5.58,3.66.82,7.15,2.14,8.63,4.94,2.2,4.16,5.8,4.57,9.41,5.79C301.94,451.36,296,445.56,289.05,444Z"/><path class="cls-43" d="M266.82,552.6c-2.83.71-5.25.45-7.49-1.86-1.7-1.75-3.93-2.11-5.58.48-2.93-.07-4.27-.91-1.66-3.55.83-.83-.13-1.64.11-2.45,5.05-1.37,8.42,1.68,11.83,4.56C265,550.63,265.89,551.65,266.82,552.6Z"/><path class="cls-61" d="M271.37,428.38c3.37-.15,2.15,4.41,5.43,4.66-5.32,1.3-.93,3.06-.77,4.54-1.58,0-4.61-2.22-3,2.33.63,1.84-1.65.87-2.53,1.31l.09.09c-1.22-2.31-1.67-5.1-5.66-7.44C271.4,435.13,269.79,430.5,271.37,428.38Z"/><path class="cls-62" d="M215.45,969.74l2.64-2.72c3.86-2.55,8.4-1.92,12.62-2.28,2.51-.22.81,2.81,1.44,4.23-.07,1.82-.15,3.64-.23,5.46a1.13,1.13,0,0,1-1.2-.22,3.89,3.89,0,0,1-.68-1.67c-.91-5.59-.91-5.59-6.38-4.63,1.53.88,3,1.86,2.25,3.92a1.32,1.32,0,0,1-2.18.69Z"/><path class="cls-63" d="M292.92,664.09c2.26,3,1.76,5.1-1.62,6.91-2.2,1.17-4.05,3-6.09,4.53-1.34-4.8-.3-6.47,4.74-7.72C291.91,667.32,291.05,664.56,292.92,664.09Z"/><path class="cls-64" d="M184.2,275c2.46,2.23-.5,3.49-.93,5.2-2.05,1.82-4.1,1-5.6-.53-2.61-2.66-.45-5.39.56-8.47C178.69,275.33,181.26,275.49,184.2,275Z"/><path class="cls-51" d="M236.66,841a29.55,29.55,0,0,1,1.69,3.06c.58,1.39,2.8,3,1.18,4.17s-3.85.41-5.58-1.11c-2.09-1.84-2.58-4.16-2.79-6.73,2-.38,2.42,1.3,3.47,2,2,1.31,1.87-.33,2.12-1.48Z"/><path class="cls-37" d="M269,615.72c-2-.48-3.15-2.15-4.2-3.6-1.43-2-2.75-3.89-5-5-.92-.47-2.44-1.26-1.81-2.74a4,4,0,0,1,2.22-2.15c1.43-.36,1.26,1.42,1.83,2.18,2.58,3.48,4.95,7.11,7.39,10.7C269.47,615.11,269.3,615.3,269,615.72Z"/><path class="cls-64" d="M311,449.75c7.07-.43,13.12,4.69,12.59,10.06C320.94,455,315.56,453.4,311,449.75Z"/><path class="cls-65" d="M223.75,770.44c3.85,8.73,3.73,11.4-.75,14.06C222.13,779.76,224,775.33,223.75,770.44Z"/><path class="cls-66" d="M273.05,650.34c.74,2-1,3.81.8,5.7.64.69-.4,3.3-2.36,5.31.6-2.52,1.5-4.72-1.79-4.3a.79.79,0,0,1-.75-1.24C270,653.77,269.19,650.36,273.05,650.34Z"/><path class="cls-67" d="M267.93,499.51c1.1-1.48,2.5-1.25,3.84-1.25s3.18-.46,4,1.25c.53,1.17-.62,1.93-1.39,2.55-1.53,1.22-3,.93-4.39-.41C269.24,501,268.57,500.19,267.93,499.51Z"/><path class="cls-60" d="M263.15,419.15c.46,3.51,4.47,4.36,5.52,7.42a11.23,11.23,0,0,0-2-.71C261.73,425.18,261.29,424.36,263.15,419.15Z"/><path class="cls-68" d="M213.24,528.47c1.75.1,4.14-.27,4,2.71-.09,1.64-1.64,2.16-3,1.88-2-.4-.83-3.42-2.95-3.87C211.47,528,212.12,527.84,213.24,528.47Z"/><path class="cls-69" d="M183.17,248.05c-1,2.13,1,2.75,2,3.87a8.24,8.24,0,0,1-5.31,1.69c-.67-.07-1.58,1.59-2-.16-.21-.82.08-1.57,1.09-1.54C181.6,252,179.89,247.28,183.17,248.05Z"/><path class="cls-55" d="M147.27,34.06c-.19.9.74,2.89-1.23,2.55s-2.5-2.48-3.1-4,1.54-2,2.3-1.86C146.67,31,148.19,31.9,147.27,34.06Z"/><path class="cls-70" d="M212.1,845.58c-.26-1.13-2.32-1.28-1.63-1.56,2.74-1.07-2.55-4.71,1.68-4.73a3,3,0,0,1,3.14,1.86C213.24,841.79,213.4,844.14,212.1,845.58Z"/><path class="cls-61" d="M276,437.55c3.62-2,6,2.6,9.34,1.85C282.07,439.62,278.06,443.53,276,437.55Z"/><path class="cls-57" d="M314.13,545.76c-.41-.46-1-.79-1-1.12,0-2-2.43-3.76-.65-5.86.22-.26,1.55-.08,1.61.11C314.78,541.13,316.13,543.42,314.13,545.76Z"/><path class="cls-65" d="M280.48,669.47a13.2,13.2,0,0,0,.79-1.23c.94-2.27,2.21-4.2,4.91-4.5.23,0,.81.75.74.85C285.58,666.68,284.13,668.67,280.48,669.47Z"/><path class="cls-71" d="M217.76,751.63a7,7,0,0,1-.3,7.68C215.6,756.11,215.6,756.11,217.76,751.63Z"/><path class="cls-72" d="M287.57,830.18c-4.25-2.29-.95-5.39-1.19-7.94C287.09,824.72,288.5,827.1,287.57,830.18Z"/><path class="cls-73" d="M251.49,537.93c-.08,2.51-.68,4.5-3.52,5.33C247.3,540.1,248.63,538.6,251.49,537.93Z"/><path class="cls-74" d="M235.52,546.24c-1.09,1.17-1.53,2.41-3,2.53-1.18.1-1.65-.36-1.53-1.57s.08-2.42,1.26-2.6S233.88,546.37,235.52,546.24Z"/><path class="cls-75" d="M239.22,827.1c.1,1.23-.05,1.95-1.05,1.93-2.56,0-1.12-2.28-1.82-3.35s.23-1.22.85-1.17C239.07,824.64,238.14,826.79,239.22,827.1Z"/><path class="cls-76" d="M218.42,964.12c-.42-2.4.22-3.56,2.14-3.51.61,0,1.75.74,1.72,1.09C222.12,964.05,219.61,962.77,218.42,964.12Z"/><path class="cls-77" d="M302.22,771.92c-.71-.66-1.45-1.38-2.22-2.06-1.6-1.41.38-1.89.74-2.77.16-.39-.12-1.54.87-1,1.61.85.08,1.51-.19,2.35C301,769.62,304,770.1,302.22,771.92Z"/><path class="cls-61" d="M223.34,815.14c0,2.71,2.08,3.25,3.77,4.56C221.32,818.77,221.32,818.77,223.34,815.14Z"/><path class="cls-78" d="M296.15,457.38a14.3,14.3,0,0,1-6.18.14C292.11,455.33,294,455.17,296.15,457.38Z"/><path class="cls-79" d="M251.94,534a6.7,6.7,0,0,1-5.3,1C248.19,532.2,250.08,533.07,251.94,534Z"/><path class="cls-80" d="M175.63,253.25c-.68-2.59-1.28-5.16.85-7.55C177.63,248.58,174.67,250.62,175.63,253.25Z"/><path class="cls-79" d="M278.19,600.84c-1.37-.6-3.27-.36-3.48-2.22,0-.33.82-1.11,1.22-1.08C277.83,597.69,277.78,599.46,278.19,600.84Z"/><path class="cls-81" d="M231.22,795.41a4.88,4.88,0,0,1,1.27,5.78C230.19,799.66,231.1,797.53,231.22,795.41Z"/><path class="cls-82" d="M275.65,595.57c-1.37-1.5-2.3-2.56-2-4.15a1.41,1.41,0,0,1,1.12-.14C276.37,592.23,276.31,593.66,275.65,595.57Z"/><path class="cls-76" d="M291.29,819.09c.86,1.6.33,3.22.3,5.07C289.65,821.1,289.65,821.1,291.29,819.09Z"/><path class="cls-83" d="M161.21,389.75c1.74.16,3.16-.76,3.61,1.07.19.77-.06,1.81-.84,1.83C162.44,392.7,162.38,391,161.21,389.75Z"/><path class="cls-83" d="M236.88,906.39c.39.44,1.18.93,1.26,1.51.2,1.36-1,1.12-1.82,1.16s-1.66,0-1.53-1S235.67,906.56,236.88,906.39Z"/><path class="cls-84" d="M229.34,418.28c.72.51,2,.55,2.07,1.61,0,.64-.93,1.05-1.77,1-1,0-1.86-.51-1.92-1.39C227.68,419,228.42,418.25,229.34,418.28Z"/><path class="cls-85" d="M295.77,576c-.75-1.7-.45-3.28-.15-5.1C297.59,572.66,298.08,574.22,295.77,576Z"/><path class="cls-86" d="M247.58,898c0-.31,0-.62,0-.92-1.08-3.68.86-4.18,3.81-3.62a18.35,18.35,0,0,0,4.93,4c1.07.59,2.36,1.27,2.3,2.62-.07,1.61-1.72,1.42-2.82,1.78-.67.23-1,.59-.86,1.32a5.61,5.61,0,0,0,1.62,2.27c1.62,1.33,5.9.82,3.43,5-1.22.75-2.72.31-4.22,1,.59,2.16,3.55,1.68,4.17,3.65.06,2.19-1.45,2.73-3.18,3-1.92.27-2.25,1.82-2.51,3.25s1.15,1,1.85,1.43c.4.1.79.23,1.17.36,3.57-.09,3.08,4.45,5.93,5.18L268,931.9a.93.93,0,0,1,0,1.09,21.72,21.72,0,0,0-6.91.57c-2,0-3.5-1.5-5.45-1.92-.48,2.25,1.57,2.55,2.24,3.74s2.88,1.69,1.23,3.59a14,14,0,0,1-9.81-2.45c1.19,2.78,3.73,3.38,6.82,3.53,5.11.24,10.31-1,15.32.87a.91.91,0,0,1,.26.8c-.06.27-.13.41-.2.41h0c-4.34,1.11-9-.06-13.24,2.15-1.16.61-2.7.08-2.43,2.59.22,2.09-2.57,1.35-4,2-4.9-2.24-8-5.76-7.93-11.42a32.38,32.38,0,0,0-.22-14.06c-.55-2.24,1.13-3.85,2.27-5.16,1.77-2,1.15-3.28-.55-4.36-2-1.31-2.5-2.9-1.36-4.86,1.68-2.89-.37-6.4,1.68-9.17a3.52,3.52,0,0,1,2.54,3.4,5.67,5.67,0,0,0,2.18,3.91c.3.46.69-.65.32-.17-.06.08-.15,0-.33-.24-1.17-1.45-2.51-3.07-1.32-4.89C250.66,899.53,248.61,899.07,247.58,898Z"/><path class="cls-87" d="M267.72,855.52l4.62.34a8.83,8.83,0,0,1,0,.89c-.41.9-3,.17-1.6,2.68.83,1.48-2.29,1.53-2.94,3.74,3.42-2.28,5.89-2.34,7.16,1.84.47,1.55,2.11.45,3.24.23,1.38-.27,2.89-.54,3.61,1s-.4,2.61-1.39,3.57a10.85,10.85,0,0,1-5.77,2.57,22.05,22.05,0,0,0-3.12.61c-1.33.36-2.89,0-4,.73-1.8,1.06-3.11,2.52.25,3.4a10.71,10.71,0,0,0,1.66-.73c3.83-2.24,7.63-3,11.77-.54,2.62,1.54,5.84,1.12,8.72,1.92.33,2.39-1.09,2.57-3,2.82-3.38.45-6.6-1.91-9.91-.43-1.07.48-3.3-.34-3.06,1.78.15,1.42,1.86,1.19,3.06,1.38,3.14.52,6.27,1.11,9.39,1.72.82.16,2.12-.1,2.12,1.18s-1.26,1.58-2.34,1.58c-3.64,0-4.76,1.14-1.91,4.12.95,1,1.48,2.12.44,3.23a2.52,2.52,0,0,1-4,.12c-6.62.36-11.33-2.22-13.65-8.69-.59-1.65-.86-4.14-3.84-2a2.92,2.92,0,0,1-4-.87c3.95-6.87,1.84-13.93.46-20.89-.66-3.36-4.24-3.53-6.66-4.93-2-1.16-2.55-2.18.18-3,1.62-.46,2.88.54,4.25,1.07C260.89,857.32,264.38,858.33,267.72,855.52Z"/><path class="cls-88" d="M259.51,910c1.65-1.87,0-2.27-1.28-2.68-1.09-.34-2.49.28-3.25-1.07,2-1.93,5-.38,7.49-2-2.86-2.12-5.7-1.17-8.5-.64-1.33-.74-2.05-1.73-.2-2.5,1.19-.49,2.65-.35,4.35-.54-1.76-2.89-6-2.71-6.84-6.12.18-.25.41-.59.66-.59,4.21.08,6.2-2.4,7.12-6.13,3.6,1.44,4.47,5,6.2,7.91.84,1.42,1.67,2.85,2.55,4.24,3.69,3.31,9.27,3,12.73,6.72.75.8,2.84.78,2.12,2.4s-2.33,1-3.66.63c-3.22-.87-6.5-1.58-9.64-2.68-2.3-.8-4-.11-6.3,1.31,7.23,3.79,14.67,5.9,22.58,9.12-7.45,3.6-12.82-1.48-18.75-1.86C264.84,913.08,260.45,913.86,259.51,910Z"/><path class="cls-89" d="M283.39,947.63c4.87-2.4,5-7.12,5.52-11.55s1.63-5,5.44-2.63,7.1,5.26,6.49,10.48c-1.44,2.15-2.64,1.78-3.53-.41-.66-1.62-.41-3.71-3.24-4.94,3.94,8.77-1.51,14.18-6,19.84-4.16,5.22-5.05,11.67-7.17,18,2.64-.68,2.54-4.52,5.54-4.18,3.24,1.19,3,3.72,1.85,6-1.35,2.71-3.61,4.88-6.95,4.17-2.88-.61-4.92-2.49-4.84-5.8.15-6,1.93-11.77,3.88-17.38,1-2.84,1.17-6.16,4.47-8.17C286.92,949.8,284,948.79,283.39,947.63Z"/><path class="cls-90" d="M286.18,972.47c-2.37,1.08-1.74,4.64-4.49,5.44-.71.21-1.37.75-2.11.13a1.28,1.28,0,0,1-.31-1.65c2.8-5.37,2.82-11.83,6.5-16.84,2.11-2.88,4.21-5.78,6.29-8.64,2.41-3.31,2.79-6.08,1.66-9.69-.41-1.3-2.42-3.57.08-4.2,2.24-.57,3.6,1.73,4.31,3.86.41,1.21-.68,2.9,1.05,3.62.41.17,1.11-.37,1.68-.57-.74,4-2.68,7.52-4.56,11.06a28.43,28.43,0,0,0-8,12.36c-.49,1.59-.58,3.31-1.59,4.72Z"/><path class="cls-91" d="M273.3,951.32l1.72-1.1a1,1,0,0,1,1.29.2,2.89,2.89,0,0,1-.05,3c-4.39,6.47-3.92,13.19-1.3,20.11a6.06,6.06,0,0,1,0,4,8,8,0,0,1-2.74,3.31,4.5,4.5,0,0,1-1.3.64,4.81,4.81,0,0,1-4.11-.55c-2.05-6-4.1-12.07-2-18.59.4-1.22-.6-2.31-1.4-3.25-2.29-2.72-1.18-4,1.89-4.46,1.06-.14,2-.82,3-.82.09,0,.11,0,.13,0s-.13-.19-.4-.19a1.27,1.27,0,0,1-1.39-.9C268.5,950.51,271.3,952.8,273.3,951.32Z"/><path class="cls-92" d="M256.77,923.74c-1.69-.19-4.64.44-4-2.07.36-1.37-.32-6.09,4.27-4.51,1.13.38,1.95-.63,2.45-1.66,3.69-.91,5.4,2.71,8.29,3.61,4.12,2.1,7.08,6.39,12.67,5.85,1.87-.18,3.53,1.21,1.19,4.26-2.21,2.87-2.83,3.67-6.15,1.45-3.14-2.11-7.23-2.83-10.95-4-1.5-.48-1.89.34-1.36,1.71-1.39-.61-4.7,1.52-3.55-2.78.43-1.57-2.45-.29-2.87-1.83.71-.92,1.63-1.81.36-3.16C256.16,921.59,257.54,922.83,256.77,923.74Z"/><path class="cls-93" d="M276.05,950.47l-1-.25c2-3.41,5.48-2.06,8.37-2.59,1.57.2,3.86-.57,4.2,1.65.29,1.85-1.11,3-3,4-2.85,1.48-2.86,5.2-3.6,7.75a84.12,84.12,0,0,0-3.34,14.45,5.25,5.25,0,0,0,3.36,5.95c2.7,1.28,4.52-1.11,6-3,1.72-2.17,1.24-4.23-.87-5.94v0c.6-.68.58-1.61,1-2.38,1.78-3.24,2.66-1.5,3.52.59-1,3.63-.22,7.71-2.61,11-2.07.75-3.92,2.11-6.27,2s-2.7,2-3.82,3.33c-3.17-1-3.53-5-6.45-6.26a5.41,5.41,0,0,1,2.69-2.84,2.61,2.61,0,0,0,.87-2.46c-1.23-7.2,1.22-13.72,3.74-20.19C280,952.3,279.46,950.65,276.05,950.47Z"/><path class="cls-94" d="M267.81,899.82c-4.62-2.72-5.15-8.3-8.39-12a2.5,2.5,0,0,1,.12-3.6c1.53-1.38,5.43,1,5.38-3.88,3.16,7.6,6.84,14.16,15.73,14.92-1.74,1.63.78,1.74,1,2.68-1.88,1.63-4.77-.16-6.52,1.92a6.61,6.61,0,0,1-4.53-1.24C269.24,897.61,268.07,897.9,267.81,899.82Z"/><path class="cls-95" d="M289.86,877.78a24.86,24.86,0,0,1-13.57-2.46c-2.31-1.14-5.73,2-8.58,3.3-2.81-4.52,1.38-4.9,3.76-6.35.72-1.07,1.82-.86,2.86-.85,5.19.46,10.32.94,13.26-4.93a11.15,11.15,0,0,1,4.06-4.3l1.83-.12c1.18,6.31-2.12,10.53-6.78,14C287.55,877.37,289.28,876.44,289.86,877.78Z"/><path class="cls-96" d="M273.3,951.32c-1.71,2.26-4.69-.13-6.49,1.79a4.31,4.31,0,0,1-5.79.28c-2.64-2-5.74-2.45-8.65-3.52a1,1,0,0,1-.19-1.34c.16-2.24,1.79-1.31,3.07-1-.27-1.95-2.11-3-1.71-4.73,6,1,11.93-1.62,17.93-.66-4.14,1.84-9,1-13.17,3.24,2.67,2.19,5.71,1,8.49,1.37,1.08.15,2.42.27,2.36,1.6-.07,1.67-1.53,1.09-2.48.92-2.06-.35-4.21.62-6.32-.51,1.23,2.43,2.58,4.34,5.69,3.06C268.39,950.84,270.88,951.5,273.3,951.32Z"/><path class="cls-97" d="M271.56,980.81c4.47-.37,4.39,4,6.49,6.16l.57.14c1.45,1.09,4.09.9,4,3.68l-4.83,1.81c-1.81-2.77-3.73-5.43-7.25-6.19-2.12-.65-4.52.42-6.5-1-1-1-2.87-1.72-1.81-3.55.87-1.5,2.51-1.34,4-1a8.52,8.52,0,0,0,5.26,0Z"/><path class="cls-96" d="M271.47,942.13c0-.29,0-.57.08-.85.82-.44.91-1,.21-1.56-.49-.39-1-1-.91-1.45.73-2.77-1.62-3.81-2.91-5.45,0-.31,0-.62,0-.92,4,.2,8.45-.44,10.18,4.73.07.23.56.55.64.5,2.41-1.56,3.38.07,3.29,1.92-.1,2.11-2.38,1.79-3.88,2.31A16.43,16.43,0,0,1,271.47,942.13Z"/><path class="cls-98" d="M267.79,919.11c-3.07-.49-5.43-2.63-8.29-3.61-.21-.21-.39-.54-.65-.61-2.32-.65-5.61-1.24-5-4,.46-2.18,3.71-.64,5.7-.88,1.74,2.8,6.63,1.36,7.38,5.48C265.48,916.3,265.48,916.3,267.79,919.11Z"/><path class="cls-99" d="M278.05,987c-.58-2.77.21-4.5,3.38-4.35,1.88.09,3.57-.14,5-1.67,1-1.09,1.5-.36,1.71.74-.16,2.28-.2,4.61-2,6.38-.86,1.58-1.77,2.95-3.75,1.24-1.24-1.08-3.25-.76-4.27-2.28Z"/><path class="cls-89" d="M290.71,970.66c-3.3-3.91-2.88,1.54-4.52,1.79-.33-7.69,5.54-12.58,8.53-18.76.21-.43.67-1.32,1.31-.46.31.42.18,1.16.25,1.76C293.87,960,290.19,964.59,290.71,970.66Z"/><path class="cls-100" d="M275.09,899.88c.66-5.79,4.51-.73,6.52-1.92,2.36.7,6.91.61,6.52,2.44-.63,2.9-4.6.94-7.08,1.16A9.72,9.72,0,0,1,275.09,899.88Z"/><path class="cls-93" d="M270.53,986.41c5.16,0,6.61,1.18,7.25,6.19l-8.16,1c-.24-1.44-.76-2.88.81-4C271.69,988.63,271.26,987.49,270.53,986.41Z"/><path class="cls-93" d="M278.07,987c2.71,0,4.91,4.06,8,1-.11,1.58.68,2.88,1.33,4.21.75,1.54.86,3.05-.93,3.78-2.14.87-2.42-1-2.95-2.39-.37-.93.07-2.14-.93-2.88C282,988.5,278.5,989.58,278.07,987Z"/><path class="cls-18" d="M297.26,922.9l-1.93,5.46a11.88,11.88,0,0,1-2.63-.49c-1.06-.45-2.55-.8-2.46-2.28.12-1.84,1.74-1.69,3.08-1.88S296,923.17,297.26,922.9Z"/><path class="cls-101" d="M259.54,884.24l-.12,3.6c-.19.39-.64.87-.54,1.15,1.66,4.44-.42,5.71-4.47,5.42-1-.08-2.09,0-3.13,0-2.41-.72-3.81,0-3.71,2.7-1.81-2.2-2.27-5.06-4.12-7.41-2.6-3.3,1.3-9,5.68-9.14,1.44,0,2.88-.16,5.38-.29-3.24-2.53-6.08-2.7-8.79-3.18-.39-.08-.85.37-1.29.4-2.85.23-6-1.1-6.57-3.18s3.44-2.59,4.78-2.64c5.25-.17,5.37-2.58,4.13-6.55-.48-1.54-.18-3.34-.23-5,.14-3,2.34-4.24,4.69-5.32l1.89.14c-.09.64-2.53,1.38.1,1.89,8.46,1.67,9,8.17,9.06,14.93,0,1.07,0,2.14,0,3.21C262.25,875.15,259.64,884.11,259.54,884.24Z"/><path class="cls-102" d="M252.18,948.53a5.16,5.16,0,0,0,.06.79c4.2,6.42,6,13.31,4,20.91-.55,2.13.89,3.35,1.91,4.83,1.36,2,1.26,3.45-1.64,3.56-4-2-6.39-5-6.48-9.54.19-2.84-1.19-5.22-2.33-7.67-1.42-5.25-4.41-10-4.79-15.6-.84-3.19-1.71-6.37-2.52-9.57-.41-1.6-.92-4.06.67-4.4,2.29-.5,1.82,2.06,2.11,3.58a15,15,0,0,0,.72,2C245.77,941.83,248,945.89,252.18,948.53Z"/><path class="cls-93" d="M251.35,968.8c-.59,4.47,2.1,7,5.4,9.2,3.2,1.56,7,.77,10.13,2.69l4.63.13c-1.67,1.51-3.77,1-5.62.89-3.84-.23-3.63,1.23-1.86,3.66-2.69-1-5.89-.59-8.18-2.79v0c-.12-2-1.43-3.42-2.65-4.62-1.6-1.59-3.72-3.09-5.35.32-1,2.06-4.63,2-4.26,5.28a1.51,1.51,0,0,1-1.07.39c-.9-.33-1-1-.46-1.79,1.65-2.42,1-4.41-.83-6.52s-1.33-4.16.54-6.08c1.36-1.4,2.61-2.92,3.92-4.39l.57-.22C248.5,965.49,248.19,969.43,251.35,968.8Z"/><path class="cls-103" d="M231.11,974.27a7.73,7.73,0,0,1,.81.16c5,.07,6.09,3.4,6.58,7.52.32,2.68,1.13,5.3,1.72,7.95a25.18,25.18,0,0,0-7.05-8.47c-.95-.76-1.84-1.82-3.13-1.61-4.77.77-4.74-2.2-4.42-5.47C227.42,972.58,229.27,973.77,231.11,974.27Z"/><path class="cls-93" d="M242.94,945.81a73.22,73.22,0,0,1,5.68,15.58c-3.51-.74-1.41,2.8-2.81,3.66l-.13.1c-2.54-1.93-5.09-3.08-3.37-7.74,1-2.64.29-7.09-1.35-10.49C240.28,945.51,240.44,945.44,242.94,945.81Z"/><path class="cls-104" d="M255.85,982.58a8.57,8.57,0,0,1,0,1.83c-.51,2.08.12,5.24-3.06,5.29s-5.22-2.45-6.68-5c-1-1.68.8-2.73,1.83-3.8.89-.91,1.76-1.17,2.59.15,1.31,2.1,3.95-.37,5.35,1.5Z"/><path class="cls-101" d="M247.58,898c2.81.18,6.77-.34,2.4,4.1-1,1-.14,1.9.38,2.87.77,1.45,2.27,2.17,4.17,3.65-4.6.36-7-1.21-7.23-4.72-.1-1.74-1-2.75-1.56-4.06A3.21,3.21,0,0,0,247.58,898Z"/><path class="cls-105" d="M211.71,1000c4.21,1.29,6.9-2.72,10.88-3.1,3.64-.35,3.94.1,2.93,3.08a15.21,15.21,0,0,1-4,9.91c-3,3.15-3.53,6.48-1.47,10.27,2.12,2.79,4.7,5.4,3.47,9.41-.83,3.16-.19,6.9-3.57,9-1.64.78-3.34,1.2-2.32-1.52.76-2-.16-3.56-.72-5.19-.49-1.43-1.81-1.83-2.82-.6-1.6,2-4.32,2.83-5.16,5.47-3.61,2.19-3.67,2.17-5.16-2.48a5.79,5.79,0,0,1,0-1.44c.57-4.78.67-9.64,2.29-14.25.47-1.35-.46-2.3-.67-3.46a88.74,88.74,0,0,1,1.24-13.53C207,998.39,209.37,998.57,211.71,1000Z"/><path class="cls-1" d="M200.7,1062.53c-.14-.75-.7-2-1.15-1.6-2.67,2.43-6.65.92-9.23,3.26-1.58,1.43-3.4,1.24-5.18.93-1-.16-2.28-.44-2.39-1.75-.09-1.09.91-1.4,1.78-1.74,3-1.19,5.13-3.25,3.91-6.63s-4.39-4.16-7.59-3.32c-2.34.62-6.23-.11-5.18,4.78.33,1.54-1.25,1.28-2.11.3-1.11-1.24-2.13-2.56-3.25-3.79-.76-.82-2.69-.92-2.13-2.49.49-1.39,2.18-.51,3.27-.91,3.76-1.79,7.93-1.72,11.91-2.45s7.76-1.28,11.39-3a15.58,15.58,0,0,1,9.34-1.22.91.91,0,0,1,.34,1.27C206,1050.85,203,1056.61,200.7,1062.53Z"/><path class="cls-106" d="M220,1038.62c.92-3.06,1.83-6.12,2.75-9.18,1.94,2.08.93,4.89,1.79,7.24-.28,1.32-1.83,3.53,1.6,2.13,1.72-.7,3.23-2.36,5.47-1.6-.13,3.92-5.9,3.12-5.49,7.07.12,1.09.31,2.56,2,2.59,1.3.53,2,1.68,2.83,2.71-3.42,4.4-8.79,3.13-13.27,4.39-1.5.42-1.3-1.59-1.15-2.81A36.08,36.08,0,0,1,220,1038.62Z"/><path class="cls-107" d="M224.52,1036.68c-3.21-1.77-1.13-4.84-1.79-7.24,1.23-4-2.43-6.1-3.7-9.12a2.16,2.16,0,0,1,2.59-.54c1.46.92,1.95,2.5,2.66,3.93.23.55.38,1.13.58,1.69,1.29,3.53,1.88,3.69,4.92,1.26a58.4,58.4,0,0,0,4.5-4.4c.58-.58,1.1-1.53,2.21-.88-.78,4.79,2.46,4.52,5.56,4.42-2.83,2.49-6,4.63-9.65,5.44A11.83,11.83,0,0,0,224.52,1036.68Z"/><path class="cls-105" d="M204.43,1044.15l-.23-1.14a1.49,1.49,0,0,1-.14-1.62,2.86,2.86,0,0,1,.86-.76c.7-.31,1.4-.69,2.18-.18,7.08.08,8.88,1.78,7.33,6.92-.61,2-1.92,3.86-4,3.85-1.7,0-3.26-1.62-4-3.28C205.89,1046.6,206.14,1044.88,204.43,1044.15Z"/><path class="cls-108" d="M231,1049.58c-1.89.09-2.6-1.07-2.83-2.71,3.85-3.19,8.94-3.1,14-5.77-1,3.81-3.71,4.36-5.81,5.38C234.48,1047.4,232.16,1047.47,231,1049.58Z"/><path class="cls-109" d="M207.1,1040.45l-1.88.85c-1.76-2.26-2.85-4.59-.83-7.28.93,1.9,1.44,4.51,4.57,2.76l2.18-.54a1.68,1.68,0,0,1,2.23,1.57c.22,1.45-.88,1.65-2,1.77C209.92,1039.74,208.31,1039.13,207.1,1040.45Z"/><path class="cls-110" d="M163.15,1030.43l-1.84-2.77c.32-.53.63-1.06.95-1.58,2.31-2.19,3.57-5.12,5.46-7.61,4.2-4.41,4.12-10.76,7.15-15.7,1.25-1.64,2.89-1.86,4.91-2.15a134.79,134.79,0,0,0,15.95-3.53c1.59-.44,4.67-.75,2.84-4.13-.51-1,.7-1,1.41-1.18,1.39-.3,3.74.75,4-1.09.24-2.1.08-4.66-1.33-6.49-1.7-2.19-2.28-6.27-6.72-4.75a14.75,14.75,0,0,1-.73-1.51c1.39-2.79,3.55-3.7,6.51-2.7.45,0,.91,0,1.37,0,2,.09,4.42-.29,4.37-2.28-.08-2.73-2.85-.94-4.37-1.4a18.39,18.39,0,0,1-2.17-.35c4.8-1.11,9.81.21,14.53-1.46-1.71,1.79-2.14,4.22-3.14,6.35-1.43,3.1,1.57,4,3.09,5.63,2.13,1.23,1.77,3.12.87,4.73-1,1.85-2.5.89-3.91.14-2.27-1.19-3.73-.45-4.33,2.1-.87,3.67-2.35,7.7-2,11,.31,2.86-1.12,5.81.33,8.59a2.36,2.36,0,0,1-.94,3.52c-2.29.81-4.75.11-7.27.74,3.26.53,6.14,1.32,6.8,5a2.14,2.14,0,0,1-.53,1.15c-2.19,1.35-4-1-6.61-.58,1.92,4.52-2.17,7.92-2.13,12.3,0,2.09-1.86,3-4,2.18-2-1.63-4.5-1.6-6.87-2-1.75-.31-3.62-.13-3.39-3.06.15-1.91-2.06-1.56-2.4-.62-1.13,3.16-3.7,4.23-6.35,5.4-.15.07-.12.57-.21.87-2.54,1.86-4.83,0-7.21-.49A4.75,4.75,0,0,1,163.15,1030.43Z"/><path class="cls-111" d="M205.3,1011.07a1.62,1.62,0,0,0,.26-2.72c-1.83-1.58-4.21-2.08,0-4.51,2.59-1.51-2.54-1.2-2.59-3.17,3.8-3,2.9-7.6,3.64-11.59s2.12-5.22,5.44-3.59c1.11.54,2.08,2.31,3.52.83s.71-3.09-.18-4.59c3.18.67,2,3.09,1.57,4.74-.47,1.81-2.24,1.73-3.85,1.31-.94-.25-2.21-1.24-2.69.3-.42,1.3,1,1.65,1.94,2.13,3.05,1.61,6.12,3.19,9.4,4.88a2.83,2.83,0,0,1-4.18.8c-3.77-2.48-5.69-2.11-5.26,2.89,0,.39-.37.82-.57,1.23-2.39,0-4.58-.66-4,3.65.52,3.86-.92,8-1.5,12,.68,1.27,1.08,2.45-.89,2.89C204.81,1016.06,201.5,1013.58,205.3,1011.07Z"/><path class="cls-112" d="M221.71,1020.26l-2.68.06c-2.4-3.81-2.28-7.43,1.2-10.47,3-2.67,2.81-7,5.29-9.86,3.74-2,5.57-.66,7,3.22s2.06,8.53,5.74,11.43l.93,1c-2.07,1.55-4.19,2.95-7,2.45-.86-.48-1.68-1.3-1.15-2.16,3.42-5.53-1.36-8.63-3.23-13.39-2.51,4.47-3,8.94-6.37,12C219.43,1016.3,223.51,1018.23,221.71,1020.26Z"/><path class="cls-113" d="M231.11,974.27c-1.81,1.61-3.67-.7-5.49.08l-1.89-1.83c1-.16,1.87-.51,1.64-1.72-.48-2.57-2.84-1.73-4.45-2.29.23-1.16,1.25-1.19,2-1.46,6.84-2.44,8-1.64,8.11,5.39C231.06,973.05,231.09,973.66,231.11,974.27Z"/><path class="cls-114" d="M204.46,1041.43l-.26,1.58c-10.82,2.68-21.3,7-32.75,6.56a36.69,36.69,0,0,0-14.87.08c-1-2.66,1.14-2.62,2.64-2.84a42.86,42.86,0,0,1,6.8-.14c2.63,0,2.83-1,1.5-3-1.08-1.63-1.91-3.42-3.75-4.45-.82-.46-1.41-1.24-.28-2.11a9.5,9.5,0,0,1,5.86-.59c4.19.75,8.31,2,12.56.28a1.61,1.61,0,0,1,1.34.11c5.34,3.31,11,1.1,16.54,1C202.28,1037.91,205,1037.49,204.46,1041.43Z"/><path class="cls-115" d="M163.13,1037.5c4.08,1.3,4.85,5.55,7.29,8.31,1.46,1.64-.26,2-1.54,2-2.91,0-5.82,0-8.73,0-1.45,0-3.23-.46-3.57,1.81l-2.66,2c-2.51.57-2.91,4-5.73,4.18l-1.8,2a2,2,0,0,0-.68.23c-.65-.11-1.44,2.43-2-.1-.25-2.38,1.69-4.18,1.73-6.48,2.59-3.92,5.54-7.61,7.06-12.14,1-2.89,3.76-3.87,6-5.33a20,20,0,0,0,4.65-3.57c1.18,0,1.57.76,1.7,1.77C165.28,1034.29,164.19,1035.89,163.13,1037.5Z"/><path class="cls-116" d="M162.74,1053.43c-.52,1.59-1,3.27-3,3.52-1.54.19-2.87-.38-2.93-2s.67-3.29,2.83-3.36C161,1051.5,162.39,1051.62,162.74,1053.43Z"/><path class="cls-117" d="M148.19,1055.85c1.61-1.8,2.89-4.07,5.73-4.18-.35,1.14-2.14,1.68-1.62,3.06.71,1.87.07,3.13-1.54,3.64C148.74,1059,149.54,1056.22,148.19,1055.85Z"/><path class="cls-118" d="M163,90.05c2.19-1.45.18-5.53,3.89-6.12.84-.13,1.36-.22,1.76.58C165.79,85.4,166.64,90,163,90.05Z"/><path d="M301.51,743.59v6.21C298,748.17,301.84,745.49,301.51,743.59Z"/><path class="cls-119" d="M231.88,1017.42c2.75.63,4.61-2.29,7.32-1.81.17,2.43-2.89,3.34-2.71,5.77a46.37,46.37,0,0,1-7.36,7.26c-2.52,2.1-4.4,2.88-4.95-1.47a25.52,25.52,0,0,0-.92-3.48,16.42,16.42,0,0,1,1.47-14c.69-1.24,1.51-2.52,3.09-2.22s1.37,1.81,1.58,3C229.85,1012.88,229.3,1015.7,231.88,1017.42Z"/><path class="cls-120" d="M201.67,975.24l-6.51,2.7c-1.74.1-3.15-.25-2.73-2.47.4-2.05,1.68-1,3-1.06,3.06-.21,6-1.27,9.19-2C204.47,974.69,202.11,973.82,201.67,975.24Z"/><path class="cls-32" d="M143.73,1058c.61,1,1.32,0,2,.1l-2.94,7.23c-1.37.59-2.07.13-1.69-1.33C141.62,1061.82,141.94,1059.55,143.73,1058Z"/><path d="M332.41,483.84c.83,1.39,2.52,2.53,1,4.05a1.69,1.69,0,0,1-1.66-.05C330.26,486.26,333.36,485.41,332.41,483.84Z"/><path d="M272.36,418.29c-.31,1-1.1,1.91-.64,3s1.67,2.7-.28,3.25c-1.23.34-1.52-1.33-2.06-2.45-3.18-6.64-5.43-13.74-8.81-20.17-2.37-4.49,2.9-3.7,2.78-6.31,0-.51,3.48-.2,4.59,1.67.91,1.54,2.55,2.1,3.73,3.21,1.66,1.55,3,1.39,4.2-.26a4.08,4.08,0,0,1,5-1.29c2.26.87-.73,2.3-.1,3.35,1.39,2.31,3,4.5,4.49,6.73,1.26,1.88-.06,2.82-1.44,3.54s-1.95-.46-2.54-1.31c-2.29-3.27-5.62-4.38-9.4-4.75-3.26-.32-5,.71-4.51,4.13.72-2.57,2.92-3,5.27-3.22a1.74,1.74,0,0,1,1.84,1.07,1.5,1.5,0,0,1-.67,2c-2.36,1.21-2.53,3.17-2.08,5.41C272,416.67,271.76,417.59,272.36,418.29Z"/><path class="cls-21" d="M272.36,418.29c-.87-.33-.78-1.14-.93-1.83-.4-2-1.61-4.31.94-5.63a6.18,6.18,0,0,1,7.23.55,17.35,17.35,0,0,1,5,5.81c.58.93,1,2,1.62,2.84,2.59-.21,3.11-.75,2.74-3.18-.22-1.4-1.38-2.75,0-4.14,3.32,1.66,4.07,4,2.25,7.33-1.67,3.07.44,6.31-.21,9.64-1,5.2-2.17,6.2-7.52,4.11,1.2-1.32.49-2.12-.71-2.89-1-.61-2.4-.89-2.12-2.55,1.67-.16,3.1-1,3.36-2.59s-1.64-1.92-2.72-2.64c-2.22-1.49-4.89-2.43-5.66-5.53a2.06,2.06,0,0,0-2.39-1.68C272.12,416.23,272.55,417.45,272.36,418.29Z"/><path class="cls-69" d="M288.92,412.71c-.1,2.83,3.2,5.51,0,8.55-1.73,1.63-2.58,1.77-3.63-.33.63-1.3.49-2.3-1.11-2.7-1.74-1.59-2.69-3.8-4.55-5.4s-3.85-2.46-6.17-1.77c-2.86.85-1.72,3.45-2,5.4-2.23-4.88-2.17-5,2.69-7.32-3.6-1.42-6.08-.08-6.1,4.17-1.15-2.27-2-3.76-2.08-5.68,0-1.44.28-2.25,2-2.26,5.78-.07,11.64-.45,14.61,6.14.14.31,0,1.15.64.74,1.17-.7,2.31-1.54,2.06-3.21C287.67,409,287.4,411.78,288.92,412.71Z"/><path d="M280.61,428.35c1,1.17,2.43,1.43,3.84,1.87a2.66,2.66,0,0,1,1.6,2.79c-.21,1.44-1.68.6-2.61.78-1.84-1.49-3.59-3.09-5.54-4.42-1.36-.93-2.8-2-1.49-3.46,1.08-1.18,1.88.76,2.77,1.39C279.66,427.64,280.13,428,280.61,428.35Z"/><path d="M263.68,394.33c-2.7-1.09-2.86,3.28-5.44,1.18a1.35,1.35,0,0,1,0-2.32C259.94,391.8,261.53,392.12,263.68,394.33Z"/><path d="M288.16,403.23c-.7.45-1.34,1.12-1.61,1-1.6-.77-3.37-1.45-4.1-3.26-.23-.55.28-1.45.9-1.1C285,400.79,286.41,402,288.16,403.23Z"/><path d="M254.05,551.53c.61,0,1.56-1.62,1.75.25.21,2.05.16,4.11.22,6.17-1.63,2.48-3,2.77-3.88-.49a3.43,3.43,0,0,0-1.82-2.29C249,551.28,253.15,553.09,254.05,551.53Z"/><path class="cls-121" d="M291.65,862.19c-1,3.76-4.7,5.84-6.06,9.49-.49,1.33-9.86.86-11.26-.26,1.83-.68,3.9-.84,5.35-2.34.7-.73,2-1.39,1.39-2.58s-1.94-.82-2.83-.23c-3,2-5,2.37-5-2.33,0-2.13-1.46-1.82-2.91-1-1.21.68-1.69,3-3.6,2-1-.53-.8-1.9-.68-3,.29-2.66,2.91-.89,4-2.2.47-1.94-2.44-.91-2.42-2.66,1.46-1,3.11-.28,4.68-.33,1.16,3.46,3.8,3.92,6.91,3.4a25.16,25.16,0,0,0,5.33-1C288.11,857.65,290.26,858.91,291.65,862.19Z"/><path class="cls-122" d="M259.48,845.68c.72.47,1.93.84,2,1.44.21,1-1,1.22-1.83,1.57-2.59,1.15-5.22.42-8,.55,0-2.09,2-1.54,2.39-2.6C255.7,845.3,257.62,845.65,259.48,845.68Z"/><path d="M247.9,552.44c.36,3.87-1.85,6.52-4.35,9-.43.42-1.5-.29-1.35-.39,2.13-1.37-3.15-2.78.07-4A12.68,12.68,0,0,0,247.9,552.44Z"/><path class="cls-123" d="M270.25,849.74c-3.11,1.62-5.92,2.87-10.53,1.6,3.61-1.11,4.73-3.85,7.12-4.52C267.59,846.6,269,848.58,270.25,849.74Z"/><path d="M222.62,844.87c1.14-.73,2.52-1.88,3.32,0,.5,1.16-.57,3.06-1.58,3.13-2.22.16-.5-2.41-1.66-3.24Z"/><path class="cls-124" d="M267.94,932.82l5.11,1.56c-3.4,4.44-.86,5.34,3.52,5.13-1.47,2.33-3.46,1.41-5,1.76-5.78,0-11.56,0-17.35-.1-4.83,0-6.48-2.74-4.83-7.76,1.67,5.37,6.61,3.81,10.32,4.86.57-1.76.18-3.8,1.55-5.33C263.45,931.65,265.67,930.79,267.94,932.82Z"/><path class="cls-125" d="M254,903.55c2.28-2.51,7.94-2.63,9.81-.17,1.54,2-.61,2.5-1.55,2.63a60.37,60.37,0,0,1-7.25.22C254.64,905.34,254.3,904.45,254,903.55Z"/><path class="cls-126" d="M261.23,932.94c-.05,1.91,1.08,4.17-1.55,5.33-1.84-1.48-3.66-3-5.51-4.42s.22-2.23.66-3.25c.66-1.48,1.44-1.29,2.18,0C258,932.2,259.94,931.94,261.23,932.94Z"/><path class="cls-121" d="M271.47,872.27c.57.6.29,1.34-.27,1.37-3.37.19-3.65,2.41-3.49,5-2.21.26-3.66-.55-3.57-2.93.07-2,1.5-3,3.24-3.29A25.24,25.24,0,0,1,271.47,872.27Z"/><path class="cls-127" d="M266.88,980.69c-3.7.34-7.36.49-10.13-2.69.88-.22,2.29-1,1.26-1.57-4.82-2.69-2.7-6.87-2.44-10.47.33-4.57,1.25-9.09-3.3-12.28-2-1.4,1.28-2.91,0-4.36,3.49.48,7.12.26,9.81,3.43,1.1,1.29,3.13.62,4.76.36l2.84.22c-1.88,2-3.87,3.26-7.18,2.75,4.35,3.14,3.77,6.67,2.82,10.88-.67,3-1,6.72,2,9.5C268.51,977.61,267.6,979.32,266.88,980.69Z"/><path class="cls-128" d="M276.05,950.47c1.15-1.14,2.69-2.1,3.92-.83a4.35,4.35,0,0,1,.76,4.67c-3.12,6.69-5.44,13.51-4.66,21.05.13,1.3-.17,2.47-1.82,2.61-.15-1.5.19-3.35-.55-4.45-3.3-4.89-.76-10.36-1.88-15.43-.31-1.42,1-2.15,1.95-2.84C275.44,954.06,275.59,952.2,276.05,950.47Z"/><path class="cls-86" d="M260.63,924.9c3.36-1.18,5.44-1.95,7.54-2.64a1.45,1.45,0,0,1,1.87.87c.43,1-.33,1.26-1.06,1.58C266.67,925.71,264.35,925.83,260.63,924.9Z"/><path class="cls-129" d="M256.77,923.74c-.24-.38-.46-.78-.72-1.14-.92-1.26-2-2.94-.33-3.86,1.25-.68,3,.56,3.53,2.06.85,2.22-.37,3-2.48,2.94Z"/><path class="cls-130" d="M245.81,965.05a9.62,9.62,0,0,0-.21-1.79c-.38-1.26-1.47-2.76,0-3.71,1.78-1.15,1.7,1.7,3,1.84,1.28,2.33,3.1,4.47,2.73,7.41-1,1.13-1.93,3.61-3.25.14A25.57,25.57,0,0,0,245.81,965.05Z"/><path class="cls-131" d="M163.13,1037.5c-.61-2.15.28-3.82,1.72-5.3,2.64-1.15,4.77,1.79,7.38.9,2.37-2,5.25-1.37,7.92-1.32,3.78.06,7.6-.72,11.34.4.75-.08,2.08,0,2.16-.28,1.14-4,2.21-8,3-12.11.16-.79-1.8-1.66-.86-2.71s2.32-.57,3.5-.39c1.77.27,3,2.17,5,1.74,2.52,4.9-.13,9.81,0,14.71,0,.29,0,.59,0,.88-.68,2.54,1,4.8.83,7.28a2.48,2.48,0,0,1-.76.13c-.3-1.68-1-3-3-2.5-3.56,1-7.36-.16-10.85,1.33-.28.11-.71.3-.88.18-5.21-3.66-11.23-.29-16.61-1.93C169.79,1037.5,166.39,1038.43,163.13,1037.5Z"/><path class="cls-109" d="M204.4,1033.14q0-7.35,0-14.71h0c.27-.46.56-.45.87,0,1.13-.62.9-1.72,1-2.72.85.43,2,1.31,1.61,2C204.87,1022.43,206.54,1028.2,204.4,1033.14Z"/><path class="cls-132" d="M231.88,1017.42c-5.95-1-2.31-6.28-4.36-9.66-4.26,4.71-4.44,10.27-4.26,15.93l-1.54-3.43c-2.21-3.19-3.33-5.81.79-9,1.8-1.38,2.91-4.79,3.1-7.74a2.3,2.3,0,0,1,1.75-2.38c1.54-.34,1.48,1.05,2.06,1.87,2.2,3.07,3.25,6.66,4.81,10,.66,1.42.38,2.42-1.33,2.53C231.49,1015.68,231.52,1016.42,231.88,1017.42Z"/><path class="cls-133" d="M191.49,1032.18c-6.35,1.69-12.84.64-19.26.92-.55-.85-1.1-1.71-2-3.09,3.61.45,6.69,1.21,7.13-3.72.2-2.15,3.45-1.79,5.15-1.1,3,1.23-1.06,2.51-.26,4,2.78.4,5.58.87,8.39,1.18C192.19,1030.49,191.8,1031.3,191.49,1032.18Z"/><path class="cls-131" d="M205.25,1018.38l-.87,0c-.79-3.26-2.85-4.77-6.21-4.65-.77,0-2.06.47-2.19-.8s.87-1.85,2.07-1.87c2.42,0,4.83,0,7.25,0C203.32,1013.5,205.45,1016,205.25,1018.38Z"/><path class="cls-134" d="M182.69,1019.6c-.16.38-.21.81-.4.88-3.09,1.14-6.45,1.89-7.74,5.54a4.48,4.48,0,0,1-1.2-.51,1.44,1.44,0,0,1-.53-1.59c.5-2.1,6.9-5.87,8.93-5.13C182.12,1018.93,182.39,1019.33,182.69,1019.6Z"/><path class="cls-135" d="M190,1006.18c-3.84,1.27-7,4.84-12.51,3.58C181.7,1006.6,186,1006.79,190,1006.18Z"/><path class="cls-136" d="M185,1013c-.37,2.26-2.19,1.59-3.29,2.07-1.68.73-4.49,2.83-5.09.86-.91-3,2.93-1.81,4.55-2.69C182.06,1012.74,183.7,1011.45,185,1013Z"/><path d="M284.16,418.23a12.53,12.53,0,0,1,.62-1.51c1.52.38,1.69,1.95,2.16,3,.54,1.23-.75,1.25-1.67,1.18Z"/></svg>