<svg id="Layer_1" data-name="Layer 1" xmlns="http://www.w3.org/2000/svg" viewBox="0 0 679.25 1080"><defs><style>.cls-1{fill:#fefefe;}.cls-2{fill:#a7aaaa;}.cls-3{fill:#515151;}.cls-4{fill:#a9a9a9;}.cls-5{fill:#9c9390;}.cls-6{fill:#555;}.cls-7{fill:#939797;}.cls-8{fill:#919293;}.cls-9{fill:#827b72;}.cls-10{fill:#c6a8aa;}.cls-11{fill:#e7cec9;}.cls-12{fill:#010101;}.cls-13{fill:#545454;}.cls-14{fill:#a39f98;}.cls-15{fill:#666662;}.cls-16{fill:#c5918c;}.cls-17{fill:#5c5f5c;}.cls-18{fill:#bc9b9a;}.cls-19{fill:#535353;}.cls-20{fill:#777c7d;}.cls-21{fill:#ac9f97;}.cls-22{fill:#7d8282;}.cls-23{fill:#565656;}.cls-24{fill:#050505;}.cls-25{fill:#ab9d90;}.cls-26{fill:#969696;}.cls-27{fill:#938073;}.cls-28{fill:#a8a8a8;}.cls-29{fill:#040404;}.cls-30{fill:#c4a595;}.cls-31{fill:#8b8980;}.cls-32{fill:#443b33;}.cls-33{fill:#65605b;}.cls-34{fill:#262626;}.cls-35{fill:#0b0b0b;}.cls-36{fill:#726f69;}.cls-37{fill:#6d6d6d;}.cls-38{fill:#0a0a0a;}.cls-39{fill:#605a54;}.cls-40{fill:#5d5d5d;}.cls-41{fill:#101010;}.cls-42{fill:#665e59;}.cls-43{fill:#575757;}.cls-44{fill:#b89c92;}.cls-45{fill:#272727;}.cls-46{fill:#4e4e4e;}.cls-47{fill:#404040;}.cls-48{fill:#161616;}.cls-49{fill:#0d0d0d;}.cls-50{fill:#5a5a5a;}.cls-51{fill:#c3c3c4;}.cls-52{fill:#ece3e5;}.cls-53{fill:#eecab8;}.cls-54{fill:#dadad3;}.cls-55{fill:#97867a;}.cls-56{fill:#b4b5b6;}.cls-57{fill:#7d8181;}.cls-58{fill:#cacaca;}.cls-59{fill:#6b6b6b;}.cls-60{fill:#f4f4f4;}.cls-61{fill:#7a7a7a;}.cls-62{fill:#fbfbfb;}.cls-63{fill:#f9f9f9;}.cls-64{fill:#cfcccb;}.cls-65{fill:#d2c5bf;}.cls-66{fill:#dcdcd5;}.cls-67{fill:#d7b3ae;}.cls-68{fill:#bc9e99;}.cls-69{fill:#c1b1a9;}.cls-70{fill:#d0d2d0;}.cls-71{fill:#bdbcba;}.cls-72{fill:#b4b8b6;}.cls-73{fill:#6c6160;}.cls-74{fill:#959896;}.cls-75{fill:#b6b1ab;}.cls-76{fill:#b5a49d;}.cls-77{fill:#292821;}.cls-78{fill:#775d60;}.cls-79{fill:#978586;}.cls-80{fill:#e8d2c9;}.cls-81{fill:#303433;}.cls-82{fill:#e7dbd7;}.cls-83{fill:#b0b1b2;}.cls-84{fill:#eff1f0;}.cls-85{fill:#e4e4e3;}.cls-86{fill:#8c9290;}.cls-87{fill:#252323;}.cls-88{fill:#fde6d5;}.cls-89{fill:#d4ac9c;}.cls-90{fill:#ae6d69;}.cls-91{fill:#ba9f92;}.cls-92{fill:#ab8b7d;}.cls-93{fill:#403d3a;}.cls-94{fill:#879493;}.cls-95{fill:#4d575a;}.cls-96{fill:#424f4f;}.cls-97{fill:#fdfdfd;}.cls-98{fill:#a6a6a6;}.cls-99{fill:#adb2ae;}.cls-100{fill:#e1e2e1;}.cls-101{fill:#c8c0c4;}.cls-102{fill:#726a6d;}.cls-103{fill:#727e7a;}.cls-104{fill:#6d5045;}</style></defs><title>Artboard 3</title><path class="cls-1" d="M481.62,1081q-238.19,0-476.38.08c-3.57,0-4.6-.6-4.6-4.45q.16-535.48,0-1071c0-4,.88-4.76,4.82-4.76q331.79.18,663.57,0c3.86,0,4.87.57,4.87,4.71q-.2,535.48,0,1071c0,3.76-.93,4.5-4.56,4.49q-91.38-.18-182.77-.08c-1.37-2.91-.05-4.08,2.76-4.66,8.67-1.77,17.39-3.63,26.24-3.56,15.45.13,30.69-2.12,46-3.49,5.71-.51,11.44-1,17.13-1.29a59.37,59.37,0,0,0,17.7-3.58c8.73-3.19,18-4.93,25.94-10.22,7.66-2.52,13.55-8,20.12-12.27,1-.72,1.84-1.51,2.8-2.21,9-5,15-12.94,20.12-21.59,3.56-6,2.46-12.3.27-18.48-1-2.79-3.26-4.4-5.86-5.61-3-1.38-5.78-3.09-9-4-11.54-3.76-23.45-4.32-35.44-4.3a58.17,58.17,0,0,1-9.33-.29c-5.51-1.34-11.27,0-16.76-1.54-12.18-3.17-24.93-4.19-36.58-9.41-7.89-4-15.86-7.78-24.5-10-1.51-.39-3.53-.79-3.46-2.86s2.06-2.33,3.59-2.75c2.69-.74,5.53-.51,7.74-1.15-2.45.43-5.27-.22-8.07-1.1-1.35-.7-1.89-1.67-1-3.11,1.54-1.61,3.73-2.2,5.45-3.52,2.21-1.29,4-3.21,6.13-4.09a39.82,39.82,0,0,0-9.38,2.77c-2.84,1.46-6,2.22-8.66,4.07-2.56,1.66-4.69,4.31-8.26,3.77a28.33,28.33,0,0,1-6.17-1.93c-2.33-1.17-4.55-2.65-7.35-2.44-2.62-.15-5.26-.21-7.38-2.11-.75-3.15,1.25-5.38,2.86-7.54,2.56-3.44,2.75-6.77.93-10.56-1.92-4-3.59-8.11-5.15-12.26a16.09,16.09,0,0,0-5.9-7.7c-12.86-9-21.61-21.43-28.21-35.41A354.75,354.75,0,0,0,432.82,836,91.21,91.21,0,0,1,422.5,813.7c-6.23-19.8-14.77-38.68-24-57.16a88.28,88.28,0,0,1-9.66-38.19,125,125,0,0,1,1.23-17.15,43.78,43.78,0,0,0-.42-14.67c-1.51-6.9-3-13.82-4.24-20.75a31.33,31.33,0,0,0-8.91-16.62,36.63,36.63,0,0,1-8.34-13.22,221.93,221.93,0,0,0-11-24.73c-2.61-5.1-2-6.29,3.24-8.57,8.48-3.69,11.12-8.32,7.18-16.57-5.79-12.15-3.33-24.37-2.15-36.68a22.81,22.81,0,0,0-.44-8.28c-3.22-12.05-5.92-24.26-11.16-35.67a30.15,30.15,0,0,1-2.65-13.89c.15-4.43-.16-8.87.07-13.3.37-6.87-.54-13.33-4.19-19.38-2.6-4.3-2.1-9.23-1.33-13.95,1.23-7.62,3-15.14,4.85-22.63,1.43-5.79,3.25-6.68,8.25-3.65,6.1,3.7,12.71,6,19.33,8.52,5.94,2.23,11.74,2.94,17.77,1,6.47-2.11,12.72-1.66,18.41,2,11.77,7.55,25.21,7.52,38.36,9,11.13,1.27,22.28,1.1,33.44.76a16.86,16.86,0,0,1,5.82.84c11.76,3.89,24,5.39,36.16,7.31,2.27.36,4.6.53,6.29,2.41,2.73,6.79,1.6,14.08,2.7,21,.08.48-.67,1.8.91.77,2.06-1.33,3.88-1.14,5.2,1.15.87,1.47,1.35,3.18,2.58,4.44,2.63-.05,5,0,6.54,2.89,1.39,2.66,3.19.85,4.28-.43a55.84,55.84,0,0,0,8.83-13.55c1.38-3.12,2.42-6.46,5-9,2.2-.63,3.23.88,4.16,2.39,1.35,2.17,2.76,4.3,4.21,6.4.9,1.12,1.24,2.66,2.94,3.57,2.34-3.74-.33-7.1-.67-10.54a26.18,26.18,0,0,0-.72-2.59c-.74-2.37-1.55-4.72-2.35-7.07a51,51,0,0,0-4.48-9c-2.48-6.37-7.73-10.36-12.63-14.65a32.45,32.45,0,0,0-13.06-9.55c-3.9-2.13-7.92-4.15-11-7.34-7.63-7.87-17.84-10.75-27.52-14.69-9.43-3.84-19-7.34-29.23-8.28a10,10,0,0,1-4.61-1.61C464,377.4,452.7,370,444,359.1c-6.46-8-13.89-15.27-20.7-23a38.73,38.73,0,0,0-13.72-10.15,72.78,72.78,0,0,1-15.9-9.75c-6.07-5.25-12.78-9.7-18.91-14.88a52.9,52.9,0,0,0-8.87-6c-6-4-12.68-7.26-15.5-14.62-.81-1.8-2-3.39-3-5.09-1.87-3.31-4.25-5-8.06-3.1-2.65-1.68-3.77-4.35-4.69-7.17-.17-1.66-.72-3.25-1-4.9a14.67,14.67,0,0,0-3.28-9.47c-1.21-2.1-2.8-3.94-4.18-5.91-1.82-2.08-3.38-4.4-5.74-5.95a42.17,42.17,0,0,0-5.43-3.78c-9.69-6.31-19.19-12.92-29.35-18.47a9.85,9.85,0,0,1-5.13-5.62,50.09,50.09,0,0,0-5.13-11.57c-1.49-2.69-4.62-4.79-3.09-8.56,5.68-4.12,12.45-6.37,18-10.85,7.8-6.28,14.54-13.63,21.48-20.76,3.45-3.53,3.21-8.79,4.73-13.24.59-1.71.82-3.56,2.52-4.58,3.09-1.84,3.81-4.7,3.56-8-.6-6.49,2.56-12,4.8-17.68,1.84-5.47,4.73-10.44,7.47-15.47.63-1.16,1.22-2.64,2.46-3,3.44-1,5.72-2.5,5.58-6.59-.06-1.63,1.75-2.27,3.21-2.61,3.5-.8,3.55-2.74,2-5.42a103.9,103.9,0,0,1-5.79-11.38c-3-7.1-1.54-14.25-.83-21.36.43-4.37-1.18-7.43-3.91-10.6a46.64,46.64,0,0,0-14.84-11.87A20.19,20.19,0,0,1,314,20a6.71,6.71,0,0,0-4.28-3.08,21.26,21.26,0,0,1-8.41-4c-8.64-7.08-19.22-7.8-29.53-9.49a7,7,0,0,0-7.27,3.2c-5.06,7.77-12.49,12.75-19.76,18.12-5.65,4.16-10.26,9.64-15,14.89a12.77,12.77,0,0,0-3.08,8.6c-.23,8.25-3.35,15.64-6.6,23a7.88,7.88,0,0,1-2.74,3.41,8.49,8.49,0,0,1-2,1c-3.86.65-7.83.7-11.59,2-4.58,1.6-5.35,4.08-2,7.58s6.23,6.93,7.48,11.84c1.48,5.79,2.11,11.13-1.17,16.58-1.67,2.79-1.69,6.3-2.47,9.48a4.29,4.29,0,0,0,2.21,5c1.8,1.13,3.77,2,5.29,3.57,1,3.84-2.39,13.67-5.36,15.43-2.31,1.36-4.77.77-7.18.22-7.35-1.67-14.69-3.32-22.14-4.56-8.49-1.41-16.95-1.41-25.47-1.68-5.5-.17-10.14,1.47-14.89,4-14.06,7.6-26.82,17.06-39.5,26.66-3.71,2.43-7,5.38-10.48,8.12-2.19,2.08-4.82,3.88-4.33,7.5,1.58,3.81,1.28,7.72.64,11.64A80.7,80.7,0,0,0,70.54,224.3c-1.7,5-.77,10.77-4.37,15.31-1.1,1.38,2.15,2.55.87,4.36-7.38,7.68-10.35,17.67-14.56,27.08C47.39,282.43,40.39,292.83,34,303.51c-5.6,9.37-9.72,18.89-8.37,30.15.43,3.56-.08,7.21.1,10.82,1.2,25.15-4.33,49.53-8.56,74-.71,4.11-2.85,7.68-4.75,11.3-3,5.68-5.27,11.65-7.77,17.53-1.44,3.38-.85,5.88,1.8,8.33a102.18,102.18,0,0,0,23.07,16.56c9.82,5,14,13.75,14.48,24.48-2.74,14-3.83,28.07-.48,42.17a20.07,20.07,0,0,0,.76,3.33,2.77,2.77,0,0,0,3.49,1.9A2.31,2.31,0,0,0,49.32,541c-2-6.55,1.16-11.73,4.26-17,1.68-2.27,1.74-5.74,5.05-6.81,2.44,2.25,1.4,5.22,1.69,7.92-.16,7,.17,14.06-.07,21.09-.16,4.46,1.58,7.19,5.94,8.17,3.09-.92.7-3.76,1.84-5.35q.61-6.59,1.75-13.09c1.4-2.1-.89-5.86,3-6.85,2.15,3.3,1.21,7,1.19,10.52a61.11,61.11,0,0,0,2.21,16c1,4,3,6,7.19,5.66,3.41.27,3.69-2.12,3.58-4.49-.21-4.62.91-9.08,1.38-13.61.19-1.88.49-3.92,2.16-5.31,3.61,1.71,1.66,5.06,2.28,7.66.07,3.44.07,6.89,0,10.33a14,14,0,0,0,3.26,10c4.4,3.06,10.3,0,10.61-5.76.42-7.7.23-15.42.12-23.13a37,37,0,0,1,3.93-19.83c1.93-3.71-.57-7.48.09-11.21a16.76,16.76,0,0,0-.48-4.29c-.56-2-.18-4.27-1.28-6.19-.78-1.58-2.13-2.69-3.22-4-4.42-5.06-6.12-11.05-5.92-17.65a79.26,79.26,0,0,0-.78-9.74c-.28-3.18-1-6.61,2.11-9.06,2.9-1.66,6.5-2.78,5.61-7.35,0-2.37-.07-4.75,0-7.12-.07-1.12,0-2.23,0-3.34-.38-10,1.26-19.89,1.13-29.89-.07-4.8,2.2-9.16,5.27-12.95,5.47-2.62,6.83-2.29,9.21,2.23-.61,4.12-4.33,6.3-6.1,9.7-1.89,2.14-1.78,4.75-1.79,7.34,0,4.68,0,9.37,0,14,0,18.62,3.34,36.91,5.36,55.32,1.28,11.75,2.29,23.56,4.58,35.15a296.06,296.06,0,0,1,4.12,30.18c.34,3.61,2,6.93,3.26,10.31,4,10.83,7.17,21.89,8.23,33.39.91,9.85,5.87,12.86,16.1,14.53,14.66,2.39,29.48,1.74,44.16.83,12.84-.8,18.48,6.76,22.73,16.43,5.53,12.6,6.93,26.29,9.48,39.66,2.5,13.08,4.72,26.18,4.22,39.57a8.77,8.77,0,0,0,2.4,6.77c5.75,5.88,6.31,13.9,8.63,21.18.81,2.55-.81,3.93-3.28,4.46-3,.66-6.15,1-9.77,1.79a57.81,57.81,0,0,0,6.14,5c3.12,2.25,3.57,4.92,1.58,8.08-5.5,8.71-8.18,18.58-11.79,28.09-4.91,13-6.53,26.54-7.47,40.06a539,539,0,0,1-16.13,97c-1.58,6.15-1.06,11.93-.35,17.91-1.83,5-4.43,9-10.5,9.27a4,4,0,0,0-2.08,1.17c-1.09,1.14-1,2.69-1.43,4.08-.19,7.17-1.87,14.32-1.2,21.43.78,8.25-2.88,15.59-3.62,23.49a23.4,23.4,0,0,0,4.39,16c9.46,4.21,19.6,6.3,29.45,9.23,11,3.26,22.07,6.07,32.9,9.78,6.86,7.14,15.64,11.34,24.23,15.83,17.52,6.33,35.11,10.6,53.22,2.14a85.45,85.45,0,0,0,9.11-4.23c7.46-6.43,7.94-14.37,1.32-21.61-6.8-7.44-14.22-13.94-24-17.28-7.32-2.49-13.77-6.81-20.52-10.49-15.42-5.94-21.84-20.77-31.72-32.18a1.77,1.77,0,0,1-.13-2.61c4.33-1.19,8.64.83,13,.08,2.09-.36,4.87.09,4.49-3.48a14.75,14.75,0,0,0-1.88-2.69c-1.64-2.35-3.78-2.71-6.47-2-4.13,1.05-8.15,2.51-12.35,3.31-3.08,0-4.88-1.9-6.5-4.14a4.16,4.16,0,0,1-.1-4.34,49.73,49.73,0,0,0,8-22c1.4-11.71,5.16-22.68,9.16-33.63,7.1-19.42,14-38.91,21.25-58.27,2.78-7.4,3.75-15.31,5-23.06,1.61-10,5.58-19.18,9.37-28.44.6-1.48,1.1-3.37,3.06-3.47s2.45,1.94,3.09,3.35c5.73,12.72,11.52,25.41,16.83,38.31,4.83,11.73,11.15,22.66,17.25,33.71,11.09,20.11,21.49,40.62,33.52,60.2C391,924.33,399,938.12,407,951.84c6.67,11.34,14.39,21.95,21.87,32.74a23.67,23.67,0,0,1,3.32,5.44,15.76,15.76,0,0,1,.5,3c.23,1.47.62,2.92.89,4.39.93,4.4,1.63,8.84,2.6,13.23,1.16,3,2,6.17,3.4,9.08,5.17,7.5,6,15.87,4.92,24.62-.85,8.17,2.41,15.37,5.43,22.59,1.92,4.59,6.78,5.28,10.56,7.38,5.64,2.22,11.85,2.15,17.5,4.33C479.39,1079.14,481.5,1078.55,481.62,1081Z"/><path class="cls-2" d="M481.62,1081c-5.62-1.31-11.21-2.73-16.86-3.86a8.79,8.79,0,0,1-4.81-2.06,4.62,4.62,0,0,0-2.24-2.5c-5.08-3.12-6.16-6.91-3.55-12.64.72-1.57-.32-3.72,1.57-4.92,1.75-2.52,4-3.12,7.11-2.82,6.49.63,13.05-.52,19.56.33a4.91,4.91,0,0,0,3.55-1.44,9.62,9.62,0,0,1,2.79-1.89c2.35,1.27,4.57,3,7.54,2.22.09-1.25-1.56-1.8-1-3.07,1.65-1.25,3.24-.61,4.46.52,3.8,3.55,8.85,5.55,12,9.85,4,5.39,10.6,6.25,16.13,9,1,.49,1.37-1.34,2.29-1.9,4.41-2.68,8.33-5.77,8.17-11.71a3,3,0,0,1,1.26-2,5.53,5.53,0,0,1,2-.77c4-.88,8.08-1.27,12.09.17,2.54.82,4.81,1.75,7.85,1.4,2.56-.3,5,2.82,7,4.87,3.82,3.87,5.32,3.44,10.39,2.78,5.23-.69,10.27-3.52,15.77-2,1.09.36,2.43,1,3.29.24,3.43-2.83,7.45-1.37,11.12-1.47a9,9,0,0,0,7.26-3.68c2.22-2.66,4.57-4.26,7.55-1a2.08,2.08,0,0,1-.46,2c-3.18,3.56-7.68,4.9-11.86,6.46-7.35,2.76-15,4.74-22.41,7.29-5.42,1.87-11,1-16.55,1.55-22.82,2.16-45.67,4.2-68.58,5.39-5.84.31-11.61,1.93-18.18,3.08l3.67.94c-.57,1.54-2.55.35-3.1,1.74Z"/><path d="M431.42,990.29c-15.88-20.91-28.8-43.72-42.32-66.14-17.6-29.2-33.65-59.27-49.88-89.23-9.59-17.71-16.42-36.73-24.89-55L312,774.86c-4.74,11.18-9.52,21.43-11.07,32.86-2.81,20.83-11.73,39.78-18.55,59.37-4,11.59-8.15,23.15-12.42,34.65-3.17,8.51-4,17.54-5.75,26.33-1.27,6.37-4.35,11.5-7.26,16.92-3.45,2.58-7.52,1.87-11.36,1.92-12.35.17-23.69-4.21-35-8.36-2-.73-4.77-1.52-5-4.58.12-.47.49-1.08.32-1.41-4.25-8.21-.44-16,1.45-23.75,7.13-29.37,12.38-59,14.18-89.22,1.24-20.8,6.77-40.63,14.24-59.94,1.52-3.93,4-7.51,6.25-11.12,1.17-1.89,1.15-3-.79-4.39-3.22-2.22-6.23-4.73-10-7.67,4.67-.87,8.54-2,12.46-2.23,3.58-.25,3.49-1.72,2.53-4.35-2.7-7.4-3-15.95-10.27-21.12-.94-.67-.91-1.69-.81-2.68,1.9-18.12-3.15-35.47-5.91-53.07a141.35,141.35,0,0,0-7.46-29.45,28.07,28.07,0,0,0-3.31-5.91c-4.88-7.08-11-9.74-19.9-8.9-13.87,1.33-27.83.79-41.77-.54-5.73-.55-10.1-3.48-15-5.62-1.79-.78-1.72-2.67-2-4.26-2.09-15-5.1-29.68-10.95-43.68-1.76-4.19-2-8.57-2.37-13-1.2-16-5.33-31.62-6.86-47.62-1.87-19.54-4.41-39-6.55-58.53a60.58,60.58,0,0,1,.1-7.85c2.71-2.09,2.47-5,2.33-8-.22-5-1.73-10,.45-14.89l5.92-7.82c.35-4.9.34-4.94-4.12-3.52-1.18.37-2.58-.45-3.57.74-7.48,10.85-3.86,23.54-5.8,35.31a66,66,0,0,0-.4,7.85c-1.21,1.06-1.17,2.11,0,3.17v7.67c-1.14,2.95-3.68,4.8-5.58,7.15-2,1.05-2.44,2.75-2.23,4.89.76,7.44,1.35,14.89,2.13,22.32.4,3.77,3.42,6.12,5.31,9.08-3.25,2.28-7,2.11-10.74,2.36-3.4.22-6.84-.38-10.18.66-9.33,1.6-18.78,2.14-28.2,2.83-4.4.29-8.84.11-13.19,1.08-1.62.36-3.18.43-2.25-2.08-1-10.15-4.72-18.92-14.41-23.39S11.09,461.84,3.51,454.56c-1.93-1.85-1.82-3.28-1-5.55a265.71,265.71,0,0,1,11.18-24.54,15.1,15.1,0,0,0,1.78-4c3.82-23.85,9.77-47.43,9.11-71.85-.14-5.41.18-10.86-.4-16.21-1.08-10,2.22-18.59,7.17-26.87,3.53-5.9,6.91-11.89,10.42-17.8,5.25-8.87,10.51-17.71,13.71-27.61a38.43,38.43,0,0,1,11.06-16.86c1.06-1.51,1.23-3.56,2.84-4.75,1.87-1.84,3.68-3.75,5.6-5.54,4.83-4.52,7.64-4.37,11.76.94,6.19,8,10.71,16.92,14.55,26.17,6.23,15,12.57,30,19.87,44.48A18.26,18.26,0,0,0,122.8,307c4.74,10.41,10.49,20.42,13,31.76,1.2,7.06,3.95,13.84,3.89,21.19,6.18-8.16,6.18-8.15,16.4-4.85a25.42,25.42,0,0,0,5.72,1.39c4,.8,7.77,2.53,11.55,4,15.68,6.19,31.82,10.85,48.1,15.1a91.38,91.38,0,0,1,20.78,8.56c3.5,2.87,8,4.24,11.23,7.56,3.86,6.13,6,13.06,8.87,19.62a36.37,36.37,0,0,0,13,15.58c8.9,6.17,18.58,11,27.85,16.52a95,95,0,0,1,13.42,9c2.46,1.55,4.1,4.91,7.95,3.24,4.52-2,6.12-4.29,4.69-9.2-1.28-4.39-1.18-7.59,3.61-9.41a3.58,3.58,0,0,0,2.12-2.56c.67-2.93,2.71-4.72,4.95-6.39a14.5,14.5,0,0,1,3.33-2.34,5.61,5.61,0,0,0,3.75-4.21c.95-5.12,2.42-10.14,2.39-15.43,0-2.72,1.43-4.9,4.25-3.34,3.65,2,7.81,2.22,11.43,4,3.42,2.36,6.89,1.65,10.38.2a11,11,0,0,0,4.16-1.88A28.24,28.24,0,0,0,382,402.9c3.88-5.47,4.22-12.09,5.94-18.26.84-3.32.59-6.69.61-10.05.09-1.58,0-3.16.25-4.73.44-2,.81-4,1.25-6.05.72-2.15,1.33-4.35,2.23-6.44,3.61-4.89,3.89-10.72,4.64-16.42.81-3.58,1.14-7.23,2.18-10.82,1.1-3.83-1.84-7-3.74-10.13-.92-1.54-3-2.82-1.46-5.08,2.4,1.72,4.55,4.1,7.22,5.07,15.89,5.76,26,18.28,36.58,30.38,9.71,11.15,19.56,22.09,32.48,29.8,4.24,2.53,8.12,5.26,13.31,5.68,13.16,1,24.55,7.74,36.76,11.86a36.89,36.89,0,0,1,14.62,8.69c4,4,8.87,6.69,13.7,9.47,1.37,2.28-.93,2.25-1.92,3-2.43,1.74-3.76,3.42-1.22,6.31,1.36,1.55,2,3.75,4,4.75,3.25,1.59,4.31,4.27,3.76,8.34,2-2,4-2.69,6.32-2.25s2.87,2.5,3.76,4.2c2.55,4.85,7,8.48,8.59,14,.62,2.19.19,3.21-1.47,4.22-2.94,7.23-6.27,14.23-11.07,20.47a35.47,35.47,0,0,1-4.06,4.16c-2,1.91-2.94.83-3.77-1.06-1.14-2.59-2.34-4.73-5.38-1.7-.5.5-1.45-.31-1.37-1.35a8.37,8.37,0,0,0,.39-1.93c.25-2-1.39-5.25,2.12-5.49,2.84-.19,6.06.54,5.93,4.76,0,.46.21.95,1,1.94-.68-3.91,1.92-5.26,3.9-7.25,2.92-2.94,4-6.74,5-10.91,1.22-5.32-1.3-9.27-2.64-13.74-.23-.76-.51-1.78-1.5-1.62-1.27.21-1.28,1.37-1.06,2.35a31.23,31.23,0,0,1,.39,13.16,15.86,15.86,0,0,1-1.08,3.76c-.9,1.85-2.06,3.87-4.34,3.08-2-.7-1.08-2.83-.68-4.33,1.09-4.15-.81-6.57-4.43-8.08,1,7.22-2.48,13.28-5.2,19.53-1.29-1.89-2.64-2.85-4.64-.7-.48.52-2,2.8-2.07-.43a37.48,37.48,0,0,1,4.13-13.72c1.48-3.07,1.59-6.74-1.44-9.46-1.63-1.46-1.49-3-.46-5.12-1.31,1.19-1.21,2.33-1.24,3.57,0,1.93-.88,3.16-3.09,2C519.48,448,504.93,446.5,491,441.9a17.49,17.49,0,0,0-7.27-.77c-18.14,1.8-36.06-1.16-54-3.09-6.74-.72-12.7-5.09-18.86-8.09-3.74-1.81-7.33-2.74-11.24-1.2-12.21,4.77-23-.21-33.79-4.92-2.69-1.17-5.23-2.71-7.83-4.08-5.1-2.69-5.24-2.72-6.26,2.67-1.83,9.64-5,19.05-5.23,29-.05,2,0,4,1.16,5.64,5.66,7.85,6.12,16.81,5.09,25.86a49.28,49.28,0,0,0,4.4,27.62c4.95,10.39,6.78,21.84,9.67,32.9,1.22,4.65-.08,9.56-1,14.13a45.84,45.84,0,0,0,4.05,29.9c2.6,5.37-1,13.33-6.46,15.45-7.61,3-7.58,2.93-3.94,10.33,2.24,4.55,4.82,9,6.46,13.77,3.51,10.24,8.51,19.44,16.4,27a9.39,9.39,0,0,1,2.76,5.08c2.14,10.27,4.86,20.43,6.49,30.77,1.2,7.62-1.05,15.36-1.06,23.06,0,12.07,0,24,5.61,35.42,11.77,23.94,22.6,48.32,30.75,73.79,2.43,7.6,7.51,13.78,11.64,20.44a306.16,306.16,0,0,1,17.63,31.74c7,15.08,16.32,28.37,30.21,38a10.38,10.38,0,0,1,4.28,5.78,18.44,18.44,0,0,0,1.57,3.59c5.37,9.59,7.88,19.08-.75,28.28-2.27,5.24-7.82,6.84-11.56,10.45-3.24,2-6.48,4-9,7a118.55,118.55,0,0,0-18.31,14A20.75,20.75,0,0,1,441,987.2C437.61,987.61,435.2,991.08,431.42,990.29Z"/><path d="M216.63,74.1a49.76,49.76,0,0,0,8.68-25c.28-5,1.71-9,5.43-12.54,5.9-5.64,10.77-12.48,18.22-16.31,6.72-3.45,10.59-9.58,15.08-15.12,2.52-3.1,5.33-3.43,9-3,11.36,1.35,22.05,4.25,31.49,11.06,2,1.47,4.31,3,7.2,2.61,1.66-.22,2.16,1.36,2.68,2.46a16.67,16.67,0,0,0,9.15,8.42c7.53,3.15,12.64,9.1,17.69,15.14a7.06,7.06,0,0,1,1.73,6.3c-2.34,12.33-1.22,23.95,6.36,34.63,3.35,4.72,2.82,5.67-2.71,6.59-4,.67-3.22,3-2.68,5.27.6,2.48-.07,3.46-2.52,3-3-.52-4.41,1-5.63,3.45-2.44,5-5.33,9.75-7.23,15-3.05-.63-.7-3.39-1.93-4.81-1.53.75-1.57,2.33-2,3.67-1.33,4.17-1.58,4.22-5,.65-.75,1.26.42,3-1.09,3.86s-2.72-.44-4.86-.48c5.17,4.41,5.48,11,9.92,15.13.56,3.79.3,7.15-4.19,8.46-1.09.31-1.33,1.37-1.43,2.37-1.06,10.94-7.31,18.7-15.12,25.82-9.09,8.28-18.25,16.27-30,20.59a5.56,5.56,0,0,1-3.9,1.72c-8.64-.38-17.14-1.56-23.75-7.74-10.25-9.58-19.6-20.31-23-34.08-2.61-10.56-4-21.8-1.16-32.83,1.28-4.88,4.85-8.54,7.8-12.38,3.47-4.51,3.24-9.06.83-13.29-3.41-6-5.37-13.26-12.71-16.27A1.37,1.37,0,0,1,216.63,74.1Z"/><path class="cls-3" d="M216.63,74.1c0,1.22.63,1.59,1.76,1.86a9.07,9.07,0,0,1,6.12,4.62c2.74,5.77,7.27,10.59,8.26,17.37a9.78,9.78,0,0,1-1.89,7.56c-3.14,4.81-8.21,8.76-8.78,14.77-.67,7.11-2.73,14.43.75,21.46a2.92,2.92,0,0,1,.47,1.36c-1.19,17.74,11.14,28.39,21.4,39.83,7.39,8.25,17.67,9.49,28.25,8.43-1,3.61,2.71,5,3.58,7.75,0,4.6,2.94,7.93,4.89,11.7,1.4,4.06,5.33,5.21,8.51,7,9,5.12,17.48,11,26,16.79,5.14,8.38,11.19,16.14,16.38,24.49a58.64,58.64,0,0,1,3.3,6l4,7c2.08,1.28,2.58,3.42,2.62,5.56.12,8.77,3.11,17.1,3.68,26.28,1.62-3.68,1.3-7.1,1.48-10.45.07-1.44,0-3.51,1.68-3.67s1.85,1.87,2.12,3.31c1,5.35-.38,10.45-1.7,15.52-.74,2.85-1.81,5.62-2.53,8.49-.32,1.28-.21,3.42-2.39,3a3.27,3.27,0,0,1-2.51-3.78c.55-2.66-.47-5.13-.31-7.64s-.68-4.93-.56-7.3c.39-7.36-3.77-13.65-4.34-20.88-.39-4.93-3.54-9.74-6.26-14.22-3.16-5.19-6.25-10.41-9.06-15.68,1.35,9.37,4.86,18.5,4.44,28.24a17.29,17.29,0,0,1-1.64,6.08c-2.43,5.72-2.82,12.25-2.37,18.66,2.38.21,3.09-3.35,5.43-1.8,2,1.32,1.21,3.54,1.49,5.43,1.53,10.55,2.49,21.16,3.49,31.77.54,5.7,1.56,11.38,1.23,17.14-.08,1.49-.16,3.37-2,3.46-2.07.1-1.8-2-2-3.34-.71-5-2.43-9.95-2-15.09.34-4.55-4.1-6.3-5.28-10.16-2.69,3.35-3.69,7.66-7.6,9.95,4.17-1.21,5.29,1,6.88,4.31,2.69,5.59,4.22,11.56,6.5,17.39,1.84-.44,1.71-3.23,3.91-2.47,1.54.53,1.83,1.81,2.07,3.07,1.84,9.69,2.1,19.56,3.48,29.31.27,1.93-.43,3.94-3.12,1.53-1.4-1.26-3.37-1.73-3.82-4.05C328,376.24,319.8,365.26,312,354.12c-2.92-4.16-6.3-8-9.17-12.18-.56-.82-1.1-1.81-2-2.13-6.19-2.16-7.6-7.54-8.77-13-.66-3-2.57-1.82-4.18-1.52-2.83.52-5.65,2.13-8.42-.15,3.68-4.34,8.93-4.24,13.79-4.21,10.23.07,19.62-3.25,29.11-6.29,1.39-.44,2.94-1.26,2.71-3.06-.26-2-2.1-1.69-3.52-1.82-.81-.08-1.63,0-2.45,0-5.48-.25-6.67-1.57-6-7,.88-7.14,3-14.09,3.2-21.33.23-9.24.24-18.35-7.49-25.38-3.9-3.54-8.55-5.51-13.24-7.31-10.23-3.93-20.5-7.69-30-13.29-4-2.34-7.58-5.16-11.56-7.42-4.49-2.56-5.07-2.16-5.4,2.91-.22,3.27-.06,6.55-.19,9.83-.07,1.74.24,3.69-1.68,4.82-1.53-.26-1.71-1.6-1.62-2.63.77-8.37-1.6-15.82-5.08-23.41-2.62-5.73-8.49-8.13-11.17-13.43-.13-.25-.52-.18-.87-.05-6.25,2.48-8.21-3-10.49-6.39-6.13-9.2-13.6-17.22-21.12-25.17-2.25-2.38-4.94-5.95-9.64-2.83-2,1.34-4.38-.72-6-2.35a22.55,22.55,0,0,1-5.59-9c-.21,4.15,3.35,6,5.27,8.85.64.94,1.66,1.85.81,3.06s-2,.75-3.45.1c1.71,1.28,2.92,2.48,3.16,4.3.21,1.58-.09,3.06-1.71,3.7s-2.49-.46-3.28-1.54c-5-6.88-10.56-13.4-14-21.3a22.6,22.6,0,0,0-1.38-2.62c-4.34-7.29-7.36-7.43-12.84-.82-3.87,4.66-8.18,8.68-14.54,9.9a14.69,14.69,0,0,0-7.53,4.37c-3,3-5.46,6.51-9.56,8.3-2,.9-2.32,3.51-3.66,5.13a96.94,96.94,0,0,0-9.92,13.44c-2.4,4.2-5.9,6.8-9,10A7.37,7.37,0,0,0,91,211.33c.59,6-2.3,10.18-6.8,13.66-5.44,4.2-10.67,8.63-14.42,14.51-1.08,1.24-1.59,3-3.19,3.77-3.15-.54-3.07-3-2-4.78,4.4-7.55,5-16.36,8.5-24.27,2.62-5.94,6.88-10.22,10.69-15.05-.12-7.78,3.74-13.86,8.31-19.66,2-2.53,4.41-4.79,5.21-8.09,14-11.14,28.64-21.37,44.5-29.77a17.06,17.06,0,0,1,7.44-2c17.9-.86,35.31,2.15,52.52,6.68,3.6.94,6.72,1.31,7.59-3.65.63-3.61,4.57-6.25,3.18-10.51,0-.33-.12-.73,0-1,6.12-8.89,3.67-18.35,1.91-27.79-1.11-6-2.23-11.91-2.23-18a16.25,16.25,0,0,1,3.35-10.54C215.66,74.24,216,73.89,216.63,74.1Z"/><path class="cls-4" d="M279.53,325c3.36.55,6.39-.52,9.53-1.54,3.86-1.24,5,.07,3.83,4-.41,1.31.35,1.76.9,2.49.9,1.19,2.39,1.79,2,4a3.29,3.29,0,0,0,3.6,3.32c1.51,0,3,1.54,4.08,3.07,4.34,6.16,9.47,11.81,13.51,18.09,6.28,9.74,13.29,19.36,14.92,31.41.17,1.3-.69,3.73,2.52,1.94,1.49-.84,0,2.38,2.42,2.87a191.29,191.29,0,0,1-2.37-19.82c-.33-4-1.1-8-1.62-12-.13-1-.09-2.28-1.43-2-2.1.37-.13,1.29-.08,2,.11,1.43-1,2-1.94,2.44-1.39.64-1.45-.92-2-1.57-2.61-3.14-2.57-7.27-3.76-10.93-.32-1-.23-2.27-1.15-2.81-2.06-1.19-3-2.21-2.27-5,.46-1.94-1.5-4.25-4.48-2.76-1.38.69-3.4,1.54-4,.25-1.08-2.34,1.84-1.89,2.85-2.86,1.83-1.74,4.36-3.16,4.38-6.1,0-2.71,4.35-2.55,2.69-6.75,6.63,8.88,7.71,17.15,10.36,32.38.21-2.55.9-5.15.55-7.61-1.25-8.84-2.28-17.69-2.69-26.6-.32-7.09-3-13.95-2.11-21.17.06-.46-.55-1.2-1.05-1.5-.71-.42-1.37.33-1.42.83-.21,2.42-2.92,3.43-3.59,2.75a6.67,6.67,0,0,1-1.41-5.33c1.09-5,.19-10.43,2.67-15.2,4.57-8.77.43-17.25-1.16-25.71-.71-3.8-.38-7.68-1.79-11.38,4.6,3.87,6.15,9.61,9.59,14,4.22,5.42,5.74,12.09,9.14,17.87,1.18,2-.54,4.28.37,6.91.72,2.1,3.91,3,2.8,6.28a10.26,10.26,0,0,0,.48,7.67c1.77,3.53.08,7.58,2,11.34.89,1.75-3.3,4.91.72,7.51,1.94-9.75,7.08-18.82,3.52-29.34,0,1.73.06,3.46,0,5.19a24.23,24.23,0,0,1-.5,5.81c-.54,1.81-.12,4-2.49,5.8-1.43-3.68-1.06-7.54-2-11.07-2.07-7.89-1.6-16.19-4-24,3.65-4.94,5.4-1.5,7.69,1.5a30.3,30.3,0,0,1,4.06,6.47c-.32,3.83,2.84,6.16,4,9.34.22.86-.38,1.74.06,2.6.44-.56.6-1.36,1.4-1.62,3.6.55,6.21,3.34,9.65,4.26,3.44,1.13,6,3.57,8.76,5.77,3.24,4.25,6.05,8.82,9.5,12.92.77.9,1.23,2.47,2.73.07.91-1.45,2.59.6,3.09,1.87a13.22,13.22,0,0,0,4.85,5.85,9.51,9.51,0,0,1,3.43,8.76c-.38,3.68-.09,7.44-1,11.06-1.12,5.74-.56,12-4.93,16.75-2.16,5.39-7.69,5.37-11.77,7.6a20.69,20.69,0,0,0,7.66-2.35c.8-.41,2.15-1.42,2.27.74-.41,1.92-.83,3.83-1.24,5.75-1.71,3.2-5.75-.1-7.61,2.91,2.24,1.6,6.51-3.19,7.61,2.19-.43,3.55.16,7.19-1,10.67-.48,1.13-.5,2.53-2.51,2.18-4.76-.84-9.51-.35-14.3-.15a159.52,159.52,0,0,1-16.5-.1c-3.68-.23-5.53-2.31-4.94-6.09-.77,9,.76,18.17-.54,27.26-.24,1.71.57,4-1.7,4.64s-4.13-.54-5.56-2.32-1.75-4.75-4.69-5.27c-.31-.06-.4-1.07-.75-.29-.2.46,0,1.15-.21,1.72,5.16-.11,5,7.35,10.3,7.23.91,0,1.26,1.57,1,2.49-.6,2.05.15,4.26-.84,6.23-.85,1.77-1.64,3.6-4,3.89-.6-1.21.63-2.24.17-3.51.67,2.89-3.1,3.06-3.16,5.5-2.28,2.07-5.35,3.49-5.41,7.31a2.93,2.93,0,0,1-1.8,2.09c-5.52,1.32-4.75,4.36-3.26,8.63a8.43,8.43,0,0,1-6.83,10.89c-3.23.48-5-2.49-7.21-4.3,2.94-2.92,6.65-1.9,10.2-1.78,0-2.43-1.51-3.65-2.84-5.09-2.42-2.61-5.61-5.23-.81-8.68,1-.71.35-2.13,0-3.24C318.3,419.69,313,405.3,307.29,391c-5.89-14.78-13.3-28.85-18.87-43.78-2.65-7.1-7.51-13.39-10-20.73C278.3,325.6,278.61,325.06,279.53,325Z"/><path class="cls-4" d="M57.89,496.64l28.58-2.95c3.2-1.05,6.49-.46,9.71-.39,3.78.08,4.84,3,5.11,6.1.21,2.5.29,4.87,2.57,6.57,1.19.88,1,2.34.78,3.66-.75,4.75-.21,9.48.24,14.22a24.46,24.46,0,0,1-1.15,11.59c-1.45,3.73-3.34,5.93-7.53,5-2-.47-2.62.24-2.67,2.19,0,1.37.08,3.1-2,3.41-.73-2.58.61-5.4-.94-7.89-2-1.82-.56-3.79-.25-5.71,1.09-2.67.72-5.47.51-8.28a44.8,44.8,0,0,0-2.71,13.22c-.09,2.14-1,3.69-1.9,5.42-1.51,3-3.26.62-4.92.32a2.9,2.9,0,0,0-1,.11c-1.1.17-2.52,1.9-3.2-.26A2.9,2.9,0,0,1,79,539.15c-3.8.16-5.55-1.55-5.88-6-.25-3.39,1.17-6.74,0-10.46.39,2.44,1,4.55-.53,6.46-1.81,2,.07,5-1.78,7-.37-.16-.51-.4-.43-.73,0,0-.05-.06-.08-.09-.47.5-.46,1.2-.7,1.79-.79,1.93-2.1,3.88-4.24,3.07-1.75-.66-4.25-1.24-3.81-4.67s-2.7-6.48-2.51-10.15c-.42-2.64.49-5.44-.93-8a1.31,1.31,0,0,1-.64-1.15c.84-2,.4-4.18.66-5.21-1.75,4.42-4.27,9.67-6,15.23-.43,1.35-1.21,3-3,2.86-1.58-.08-2.5-1.43-3.23-2.76a8.69,8.69,0,0,1-1.3-5.16c.71-6,.1-12.09,1.75-17.85A8.3,8.3,0,0,1,53.64,497C55.05,496.9,56.57,497.75,57.89,496.64Z"/><path class="cls-5" d="M254.94,1028.9c-21-6.3-42.36-11.49-63.17-18.51a3.21,3.21,0,0,1-.39-3.27c1.89-3.58,2-7.54,2.58-11.41.22-1.53.43-3,2.46-3,6.31,5,14,3,21,4,3,.13,4,3.88,7.13,3.58-.54-.89-2.11-1.14-2.39-2.45-.38-1.87.78-2.21,2.27-2.15,6.28,1.64,11.18,6.45,17.82,7.45,4.95.75,6.18.07,6.3-4.9,0-2.33-1.17-4.84.75-7,3.29.55,3.07,3.44,3.8,5.7.48,4.22-1.42,8.41-.15,12.64,2.82,2.71,3.2,7.86,8.33,8.24a1.11,1.11,0,0,1,.78.54c2.7,4.08-1.3,6.52-2.42,9.64C258.69,1030.72,256.77,1029.89,254.94,1028.9Z"/><path class="cls-6" d="M205.52,934c16,9.09,33,13.2,51.41,11-.41,1-.77,1.93.1,2.85.1,2.09-1.32,1.27-2.18,1a9.57,9.57,0,0,0-7.56.95c-1.48,1.3-3.12,2.4-4.61,3.7a10.7,10.7,0,0,1-1.63,1.2c-4.1,1.82-7.11,5.6-11.88,6.34-2,.31-2.14,3-3.78,4.23-4.09,3-8.24,5.85-13.22,7.21a5.46,5.46,0,0,1-5.92-1.84c-2.83-3.34-6.39-6.13-8-10.4a30.3,30.3,0,0,1-1.93-5.11,4,4,0,0,1,0-1.37c.45-1.54,1.87-1.56,3.06-2,2.59-1,3.26-3.28,2.81-5.54-.57-2.81-2.94-1.66-4.79-1.48s-4.3,2.13-4.5-1.76c.77-.53,1.62-1.61,2.3-1.51C201.1,942.3,202.73,937.36,205.52,934Z"/><path class="cls-7" d="M623.55,1054.54c0-.72,0-1.45-.07-2.17.13-1.84,2.26-3.11,1.46-5.21a1.88,1.88,0,0,1,.79-1.08c6.87-1.49,13.73-4.79,15.08-11.48,1.18-5.88,5-9.67,6.93-14.67,1.79-4.5,2.69-8.85-1.28-12.75a5,5,0,0,1,1.75-3c1-1.81,3.12-3.68-1.12-4.41-1.25-.21-1.51-2.39-2.31-3.63-1.68-2.61-3.64-3.54-6.57-1.79-4.46,2.67-9,4.45-14.3,1.87a7.94,7.94,0,0,0-7.42.3c-2.92,1.52-6.45.78-9.69.29-2.17-.33-3.88-1.77-3.44-4,.79-4.15-1.59-4.17-4.51-4.27-5.55-.19-11.15-.23-16.38-2.57a3.68,3.68,0,0,0-1.84.47c-1.66,1-3.36,2.34-5.24.63-1.63-1.49-2.57-3.3-1.43-5.58,3.06-1.1,6,.11,8.93.57,2,.31,4,1.5,6.08.48,5.58,1.19,11.41,0,16.92,1.77,4.28,1.81,8.81.55,13.22,1,8.3.74,16.6,1.56,24.87,2.52,5.53.64,10,3.65,11.47,9.69a16.84,16.84,0,0,0,1.54,6.1,11.25,11.25,0,0,1,.78,8c-.28,1.31,2.9,3.53,2.82,6.22a12.63,12.63,0,0,1-4,9.13c-4.42,4.26-8.42,8.93-12.51,13.52a3,3,0,0,0-.72,2.28C637,1046.94,631.36,1052.58,623.55,1054.54Z"/><path class="cls-8" d="M332.93,1046.57c-14.81,7.9-29.94,6.08-45.11,1.36-3.38-1-7.12-1.2-10.05-3.56.73-5,.77-5,7.48-3.39.92.23,1.71,1,2.88.73,1-1.24-1.85-2.41-.19-3.7,1.83-1.43,2.94.35,4.65,1.18-2.69-4.86,3.13-4.27,3.89-6.91,1.45-.75,2.82-1.68,4.51-1.81a16.12,16.12,0,0,0,12.06,2.33,73.42,73.42,0,0,1,16-1.07c5.53,1.71,6.35,4.85,2.43,9.29-.18.21.07.21.1.23C333.88,1042.58,332.75,1044.73,332.93,1046.57Z"/><path class="cls-6" d="M91.55,546c1.21-1.22.67-2.78.75-4.2s0-2.6,0-3.83c2-.86,2.46,2.45,4.35,1.29,1.44-.89,4.09.94,4.27-.42.45-3.38,3.45-5.71,3-9.42-.58-5.32-.4-10.73-1-16.06a20.47,20.47,0,0,1,.39-4.21c.06-.73,1.17-1.87.29-2.12-4.76-1.32-3.08-5.15-3.53-8.22-.52-3.52-2.47-5.46-6.32-5.16-2.44.19-4.9,0-7.36,0a1.92,1.92,0,0,1,2.08-1c6.39.48,12.68-.74,19-1,.79,1,1.57,2.07,2.35,3.1.64,2.21-.22,4.71,1.27,6.77,1,1.21.9,2.62.72,4-1,3.91.4,7.8.11,11.71a40.82,40.82,0,0,0-4.08,19.86c-.55,7.69-2.4,15.16-3.79,22.71-1.12,6.11-4,8.13-9.36,6.76-3.37-3.2-3.6-7.24-3.31-11.53C91.69,552.09,91.54,549,91.55,546Z"/><path class="cls-9" d="M246.22,949.06c3.35-2.67,7.07-2,10.81-1.22,1.75,1.61,3,3.91,5.81,4,1.48-.27,1.26.6.65,1.22-1.26,1.25-3.15,1.57-4.64,3,2.57.08,5.46-1.47,7,1.72,5.88,7.62,12.06,15,17.55,22.93,3.83,5.52,10.42,6.47,15.05,10.49-1,1.17-2.08,1.07-3.38.56,1.76,1.08,4.47,1.35,3.92,4.49-.2,1.15,1,1.5,1.89,1.88a16.37,16.37,0,0,1,7.49,5.19c1.25,1.68,3.21,1.24,4.88,1.71,3.07.87,6.64,1.41,6,6-6.95-.82-14-1.64-20.29-4.77-5.15-2.56-10.33-5.29-14.62-9.31-.74-.34-1.57-.81-1.73-1.55-1-4.33-4.21-6-8-7.2a6.15,6.15,0,0,1-1.41-1.56,17.33,17.33,0,0,0-3.78-5.63,8.11,8.11,0,0,1-.72-1.2c-1.54-2.88-3.2-5.68-4.92-8.45a8.13,8.13,0,0,0-5.69-4.2c-6.16-1.08-9.61-6.49-8.58-13.08,1.38-1.4,2.26.55,3.45.52a2.72,2.72,0,0,0,2.49-1.13,1,1,0,0,0-.19-1.31,1.9,1.9,0,0,0-2.62.1,5.05,5.05,0,0,1-2.65,1.08C245.46,954.84,247.64,950.38,246.22,949.06Z"/><path class="cls-10" d="M296.28,1032.81c1.25,2.38-1,2.26-2.1,2.73s-1.61.72-1.61,2,4.36-.59,1.41,2.14c-1.73,1.6-2.9-.05-4.14-1.08a5.21,5.21,0,0,0-1.55-.49c-.29,2.18,2.5,2.15,2.37,4.08-1.91.51-3.82,2.54-5.86-.08-.25-.33-.36-.79-1.05-.42-2.68,1.44-2.7,1.4-3.65-1.41l-2.33,4.1c-7.93-4.67-17.3-7.24-22.83-15.47,3.1.17,7.73-6.44,6.66-9.44-.16-.46-.16-1.07-.74-.77-4.32,2.24-4.44-1.12-5.07-3.77-.52-2.21-4.63-1.65-3.76-4.91a3.27,3.27,0,0,1,3.26.26c3.47,1.8,6,5.27,10.43,5.46,1.3,0,2.07,1.92,2.4,3.41.39,3.74,3.13,3.38,5.72,3.25a9.58,9.58,0,0,1,9.1,2.89c2.42,3.73,4,4.1,7.33,1.71,2.8-.55,5.38-.36,7.28,2.14,0,.49-.23,1.09-.66,1.09C293,1030.26,296.57,1032,296.28,1032.81Z"/><path class="cls-11" d="M486.4,1051.62c-.37,2.5-2.73,2.64-4.1,2.36-7.33-1.46-14.73.31-22-.71-2-.28-1.8,0-1.79,1.81,0,2.11-1.64.3-2.54.4s-1.39-1-2.09-1c-6.53-.14-9-4.51-10.59-9.91,1-8.78.15-17.21-5-24.78-.32-3.18-.68-6.34-3.17-8.73l-2.7-14c3.46-1.71,6.36-.92,8.7,2a7.17,7.17,0,0,0,4.33,3c3,.94,6,1.85,8.32,4,1.42,2.5,5.62,1.41,6.3,4.87-2.34,1.9-4.71.27-7.07,0-1.13-.12-2.16-.86-3.33-.81a5,5,0,0,0-4.18,2.25c-1,1.69.66,2.63,1.54,3.72a16.75,16.75,0,0,0,3.37,2.85c1.2.88,2,2.73,1.11,3.36-2.9,2-.74,4.79-1.49,6.94-1.5,4.27-.14,7.63,2.28,10.92.73.8-4,2.77.62,2.79,1.77,0,2.31,2.21,4,2.66s3.2,1.85,5.68.1c-2.19-.45-4.43-.36-4.9-2.7,2.32-2.94,5.32-2.22,7.89-.9,2.8,1.43,1.65,4.19.59,7.36,6.36-1.83,12.35,2.44,18.05-1.45A3.35,3.35,0,0,1,486.4,1051.62Z"/><path class="cls-12" d="M215.55,74.85c.28,3.9-2.29,7.12-2.15,11.21a110.33,110.33,0,0,0,3.73,25.79c2.42,8.64-.75,14.1-4.65,20.31-10.07-6-11.28-7.31-5.74-18.33,4-7.9,1.48-14.43-.29-21.47-.82-3.28-4.36-4.7-6.67-6.94-1.43-1.38-2.62-2.75-1.77-4.58s1.49-3.54,4.07-4.15C206.54,75.64,210.93,74.56,215.55,74.85Z"/><path class="cls-13" d="M570.47,458.43c-.5-1.13,1.59-1,.94-2.73-2.47-6.72-7.92-11.6-10.75-18.11-.76-1.74-3.58-.69-5.2.35-1,.66-1.5,2.12-3.4,2.4,1.36-4.95-.19-8.51-4.82-10.65-2.74-1.26-3.66-4.5-4.84-6.65s2-5.06,5-5.81c1.11-.28,1.22-.54,1.24-1.36a29,29,0,0,1,12.86,9.28c3.26,5.94,7.09,11.4,12.79,15.3l4.67,9c-.55,3,1,5.32,2.32,7.74a1.72,1.72,0,0,1,.77,2.05c-.81,1.62.35,3.2.06,4.82-.43,2.37-1.15,4.24-4.16,3C574.88,464.7,574.73,459.8,570.47,458.43Z"/><path class="cls-14" d="M520.05,951.91c2.54-2.15,5.73-2.92,8.74-4.07,1.88.34,5.81-2,4.09,3.09a12.55,12.55,0,0,1-5.09,2.77c-.92-.12-2.1-.19-2.2.92-.14,1.48,1.12,1.47,2.23,1.36,3.7-.34,7.1,1.6,11.34.87-4.23,4.08-9.75,1.94-14.7,5.32a102.12,102.12,0,0,1,28.27,11.19c.32,2.15,4.33.38,3.74,3.51-2.4,1.35-4.38,3.59-7.22,4-1.79.26-4.13,1.2-5.19-1.31-.86-2-.31-3.87.76-4.47-2.09,2.3-5.55,1.49-9,.44-1.71-.52-3.4-1.65-5.17-.53-4.3,2.7-8.15.87-12-1-1.19-.95-1.28-2.59-2.71-4.1-1.27,4.39-5.93,3.77-8.61,6.43-1.9,1.88-3.91.19-4.79-2.08a5.5,5.5,0,0,1,.21-4.26c2.39-.77,2.46-5.51,6.53-3.74.59.26.89-1.78.91-2.89,0-1.3-.2-2.95,1.2-3.47s1.34,1.51,2.22,2.08c1.8,1.18,2.8,3.2,4.62,4.34.69.43,1.52,1,2.22.41,1-.86.18-1.79-.29-2.62-1-1.67-2.54-1.68-4.24-1.81-3.08-.23-3.8-1.65-1.53-4.05A52.25,52.25,0,0,0,520.05,951.91Z"/><path class="cls-6" d="M453.05,1007.1l-7.86-4c-2.28-2.78-.89-6.33-2-9.42-1.69-4.75-2.68-5.22-6.93-2.39-1.43,1-2.6,2.65-4.73,1.81l-.13-2.82c4.33-2.35,9-3.78,13.59-5.51,7-2.66,11.4-9.18,17.48-13.34a38.4,38.4,0,0,1,8.29-4.76c.43,2.68-1.74,3.57-3.36,4.84-4.88,3.82-5.75,5-3.45,10.64s.79,10.93,1.27,16.36c.2,2.17-1.34,2.28-2.92,2.22-3.44-.14-6.18.2-5.78,4.93C456.72,1007.81,454.89,1008.2,453.05,1007.1Z"/><path class="cls-15" d="M319,1011c-.16-2.57-2.13-4.36-4-4.28-5.37.23-8.41-3.27-11.89-6.23a5,5,0,0,0-3.07-1.32c-2.41-.14-4.5-.34-2.12-3.64,1.65-2.27-1.25-.61-1.49-1.32-.68-2.07-3-1.48-4.53-2.74,2.31-1.81,4.53.61,6.58-.24,8.86,4.82,17.83,9.39,27.13,13.34,9,3.84,15.17,11.32,21,18.67,4.5,5.65,1.76,14.3-4.94,19.29-2.75,0-2.52-1.57-2.12-3.55.68-3.35,1.45-6.82-2.07-9.27-.3-2.67,3.78-3.66,2.72-6.35-1-2.45-4.21-2-6-3.74-3.24-3.19-7.81-3.77-11.84-5.41C320.83,1013.6,318.63,1013.67,319,1011Z"/><path class="cls-6" d="M57.89,496.64c-.85,1.48-2.31.83-3.54,1-3.59.46-5,5.55-6.47,7.85-2.91,4.66-.11,9.26-1.72,13.66-1.36,3.7.2,6.88,3.48,10.15l9-23.31c-.52,4.06,2.71,7.13-.53,10.52-2.35,2-2.85,4.83-3.4,7.64-3.35,5.7-6,11.55-4.08,18.45.57,2.1-.13,3.82-2.62,3.34-1.79-.34-4.62,1.7-5.15-2.36-1.6-12.45-5-24.81-1.54-37.43.88-3.17.13-6.58,1.66-9.6A16.87,16.87,0,0,0,44,498C48.42,495.48,53.22,496.71,57.89,496.64Z"/><path class="cls-13" d="M542.68,474.18c1.77-3.7.23-8.08,3.6-11.83,1.93-2.15.72-6.93-1.42-11.23,9.9,6.15,9.9,6.15,7.93,15.13,3.17-1,3.68-1.36,4.2-5.08.67-4.78,1.82-9.52-.88-14.28-1-1.69,1.06-3.6,2.82-4.27s2,1,2.7,2.38c1.15,2.16-.74,6.15,3.61,6.51a2,2,0,0,1,.12.93c-.88,7.46-1.33,15.06-7.06,20.91-1,1-2.67,0-3.44,1.4,3.34,1.21,3.34,1.21-1.9,5.94.35-2.55-2.35-4.09-1.05-6.58a28.34,28.34,0,0,0-5.21-1.83c-.34-.06-1.29,2.48-.52,3.17,3.06,2.71-.79,2.41-1.36,3.5C543.77,477.51,542.7,476.08,542.68,474.18Z"/><path class="cls-16" d="M198.84,959.75c2,3.79,5.17,6.65,7.87,9.89-3.59,1.74-5-2-7.54-3.11-1,2.23.94,3.73,1.13,5.58.16,2.71,2.52,4,3.81,6a9.7,9.7,0,0,1,2,4.88,2.13,2.13,0,0,1-.7,1.15c-4.2-.24-5.81-4.06-8.51-6.33-1.43-1.2-2.39-3.07-3.71-5.22-1.45,7-.71,13,3.07,18.45.46.67,1,1.34.56,2.24-1.44.09-1.94.77-1.76,2.26.67,5.31-1.9,9.93-3.28,14.81-4.29-2.87-4.68-8-5.41-12.06a23.87,23.87,0,0,1,2.22-15.65,11.82,11.82,0,0,0,1.28-5.64c.33-9,.73-18,1.1-27a5.09,5.09,0,0,1,.78-3.27c2.42,2.24,4.4,4.75,5.06,8.09h0C198,956.29,196.33,958.89,198.84,959.75Z"/><path class="cls-6" d="M72.64,529.19c.72-2.37-.56-4.47-.88-6.7-.17-1.21.14-2.52,1.46-2.74,2-.34,1.38,1.42,1.37,2.34a22.42,22.42,0,0,1-.48,6.29c-1.85,6.51-.18,8.83,6.45,9.76.54.08,1,.64,2,1.26-2.72.22-5,.41-4.76,3.91,2.42-2.45,4.8-4,6.62.67,3.73-6.55,2.66-14,5-20.57.43-1.23.37-2.92,2.07-2.68,1.49.21,1,1.87.9,2.87-.22,2.89.85,5.89-.77,8.64-1.6-1.14-1-2.81-1-4-.65,10-2.64,20.07-4.56,30.16a6.44,6.44,0,0,1-2.37,4.15c-5,.89-7.23-.72-8.78-6.06C72.17,547.37,73.14,538.28,72.64,529.19Z"/><path class="cls-17" d="M654.13,998.14c-.32-3.52-6-9.8-9.43-9.72-11.24.28-22.2-2.42-33.37-2.76a8.21,8.21,0,0,0-4.63,1c-1,.58-1.72-.53-2.16-1.4a12.47,12.47,0,0,1,1.35-.92c9.27.3,18.54,0,27.82.82a86.46,86.46,0,0,1,18.43,4,87.12,87.12,0,0,1,12.09,11.13c4.72,5.3,5,16.89-1.11,19.93a2.55,2.55,0,0,1-1.42-2.88C663.72,1009.06,658.26,1003.87,654.13,998.14Z"/><path class="cls-6" d="M59.09,525.4c.21,4,5.38,6.38,3.22,11.22-.94,2.11,3.23.2,3.06,2.87-.05.74,1.59-.26,2.23-.88,1.38-1.31,1.86-3.17,2.73-5.61.27,1.6.4,2.39.53,3.18-.6,4.62-.48,9.34-2,13.84-2.3,1.59.13,4.22-1.34,6-8.24-1.48-8.46-1.48-8.71-9.65C58.62,539.39,59,532.39,59.09,525.4Z"/><path class="cls-18" d="M443.28,1044.61c1.64-.94,1.67,0,2,1.35.84,4,2.42,7.18,7.47,6.63,1.78-.19,2.78,1.23,3.25,2.89-.72,1.2-1,2.34.13,3.52a1.26,1.26,0,0,1-.06,2c-3.31,3.2-2.31,7.84,1.69,9.82,1.24.61,4.12,1.45,2.23,4.2-7.71-1.8-12.15-6.46-13.93-14.34C444.81,1055.38,442.17,1050.34,443.28,1044.61Z"/><path class="cls-6" d="M323.71,134.12c-3.64-.64-6-2.24-4.72-6.46a3.83,3.83,0,0,1,.52-.83c-5,1-2.58-5-4.66-5.31-4.28-.74-1.48-2.88-1.51-4.62,1.9.3,3.12,2.25,5.13,2.1,1.17-1.91-3.46-4,.11-5.32s2.44,2.9,4.43,4.18c.59-2.65.28-5.5,2.35-7.48.64-.61.69-2.13,2-1.65a2.1,2.1,0,0,1,1.32,2.82c-.6,1.56-1.39,3-.08,4.55C326.92,122.09,322.69,127.39,323.71,134.12Z"/><path class="cls-7" d="M662.9,1019.85c5.83-7.16,4.76-14.15-1.43-20.71-3.11-3.29-7.36-5.69-9.33-10.06C656.08,991,660,993,664,994.94a4.55,4.55,0,0,1,2.19,2.49c3.9,9,4.17,17.78-2.35,25.77-5.43,6.65-9.79,14.49-18.6,17.57-.91-2,.47-3.17,1.65-4.19a84.33,84.33,0,0,0,14.72-16.39A1.19,1.19,0,0,1,662.9,1019.85Z"/><path class="cls-19" d="M397.86,341c-.46-5.36,1.09-10.85-1.16-16.12-.29-.67-.18-1.88-.86-2.07-4.66-1.32-5.4-6-7.7-9.8-1,2.25.95,3.22.28,5.62-5.92-5.35-10.54-11-13.14-18.16l18.66,14.5c2,3.4,4,6.76,5.85,10.21,1.35,2.53,1.86,5.2-.16,7.67S400.24,338.63,397.86,341Z"/><path class="cls-20" d="M662.9,1019.85c-3.81,5.85-8,11.38-13.59,15.68a10.57,10.57,0,0,0-4.11,5.24,2.52,2.52,0,0,1-1.79,1.93c-1.94-1-.62-2.29,0-3.26,2.81-4.72,8.82-6.91,10.14-12.82,4.43.27,4.94-3.55,5.48-6.21s2.6-7.09-3.44-7.09c-1,0-1.95-1.32-.44-1.87,3.54-1.27,2.33-3.29,1.43-5.6-1-2.51-1.62-5.13-2.4-7.71a4.89,4.89,0,0,1,4.21,3.4c1.33,3.67,4.26,6.47,5.29,10.48C664.4,1015,661.42,1017.14,662.9,1019.85Z"/><path class="cls-21" d="M265.87,957.83c-2.92-2.21-6.1,0-9.69-.09,1.88-3,3.63-4.87,6.69-5,.07,0,.19-.27.18-.4s-.13-.29-.21-.43c4.54-2.34,9.58-3,14.42-4.27,2.95-.82,3.8,1.79,5.38,3.23a41.09,41.09,0,0,0-16.2,3.48,22.63,22.63,0,0,1,4.25-.74,110.06,110.06,0,0,0,13.7-.55c1.71,3.64.31,6.08-3.66,5.91C275.77,958.73,270.82,958.21,265.87,957.83Z"/><path class="cls-6" d="M533.87,450.31c1.51-.21,2.94-.3,2.17-2.64a7.51,7.51,0,0,1,.23-3.74,1.92,1.92,0,0,1,2.7-1.32c1.39.43,1.79,1.6.76,2.6-2.43,2.35-1.16,2.67,1,4.63,2.79,2.55,2.3,7.55.52,10.73-2.09,3.73-3.81,7.31-4.17,11.56,0,.33-.7.61-1.08.92Z"/><path class="cls-22" d="M337.73,1029.75c3.6,1.34,5.21,5.16,3.15,9.46-.93,1.93-.68,2.51.81,3.34a36,36,0,0,1-8.76,4c-2.69-1,.72-5.37-3.51-5.4,1.31-1,3.75-1.45,3.54-1.56-3-1.6,1.5-6.56-3.23-7.12a1.62,1.62,0,0,1,1.08-1.51c1.22-.47,2.51-.74,3.75-1.16C335.61,1029.59,336.66,1029,337.73,1029.75Z"/><path class="cls-23" d="M479.65,959.78c3.29-4.07,8.32-6.08,11.86-9.86l7.86,1.1c2,.41,2.72,1.39,1.62,3.32s-2,3.94-3.09,5.86c-3.45,4.73-3.41,4.69-7.49.72-1.73-1.69-3.77-2.6-6.24-1.38C482.72,960.26,481.23,961.22,479.65,959.78Z"/><path class="cls-24" d="M94.79,566.64c6.36-.77,7.48-2.51,8.54-8.71,1.19-7,2.06-14.07,4.61-20.76,0,8,.08,16,.16,24,.06,5.46-4,6.24-8,7.5C97.56,569.44,95.75,569.49,94.79,566.64Z"/><path class="cls-25" d="M431.55,993.11c2.45-1.58,4.86-3.24,7.37-4.71,2.07-1.2,3.42-.81,4.47,1.73,1.74,4.24,1.89,8.56,1.8,13-1.31.08-2.81.19-3.44-1.13-1.92-4-5.27-5-9.3-4.84Z"/><path class="cls-26" d="M335.66,265.13c-5.16-5.36-8.35-12.13-12.82-18-1.94-2.55-3.68-5.26-5.58-7.84-1-1.42-2.44-2.68-1.28-4.68,1.8.94,3.7,1.74,5,3.38a17.71,17.71,0,0,0,5.87,6.41c1.58,1.71,3.4,3.26,4,5.67a26.15,26.15,0,0,1,3.77,9.94C335.06,261.7,336.18,263.25,335.66,265.13Z"/><path class="cls-27" d="M196.8,954.87c-1.38-2.89-5.05-4.34-5.06-8.09.27-1.3-.41-2.88,1.11-3.82,1,2.5,2.48.92,4,.68,2.44-.41,5.59-2.4,6.83,1.56a6.32,6.32,0,0,1-5,7.8C197.3,953.15,197,953.88,196.8,954.87Z"/><path class="cls-28" d="M97.25,171.42c2.59,3.5-1.26,5.15-2.58,6.79-5.08,6.32-9.74,12.69-10.94,21-.68-3.95.72-8.12-1.2-11.94a30.51,30.51,0,0,1,4.94-7.87A48.25,48.25,0,0,1,97.25,171.42Z"/><path class="cls-29" d="M83.59,562.5c2.86-12.08,5.3-24.26,6.21-36.72l1.35.09.42,6.37-1,5.87c-.91,7.45-3,14.73-2.1,22.42C89,565,85.25,561.8,83.59,562.5Z"/><path class="cls-30" d="M497.22,959.71c1-2,1.72-4.28,3-6.07s-.63-1.76-.9-2.62c2.71-.07,4.91,1.19,7,2.68,1.07,2.09,6.27,2.93,2,6.63-2.14,0-3.6.86-4.07,3.18a7.55,7.55,0,0,1-1.9,4.3c-3.92-1.14-3-5.28-4.76-7.73Z"/><path class="cls-31" d="M508.14,959.81c1.85-1.47.67-2.59-.31-3.91-.5-.69-2.54-.49-1.44-2.2l6,1.95c.19,1.7,3,1.13,2.77,3.22-.43.61-1.3,1.33-1.19,1.83.19.89,1.19.94,2,.58,4.59-2,4.85,2.32,6.51,4.5.71.94,0,1.81-.67,2.56s-1.49.67-2.53.18c-3.53-1.65-5.44-4.87-7.91-8-.09,1.3-.15,2.26-.21,3.22C508.83,963.45,508.31,961.77,508.14,959.81Z"/><path class="cls-6" d="M115.91,404.85c.37,5.53.9,11,1,16.58.07,2.67,1,6.36-3.81,6.27-.08-5.2,0-10.4-.3-15.59C112.69,409.09,113.49,406.68,115.91,404.85Z"/><path class="cls-32" d="M284.39,953c-2.35,2.6-5.5,1.52-8.31,1.69a102.87,102.87,0,0,1-12-.16c6.09-1.88,11.4-7.51,18.59-3.72Z"/><path class="cls-33" d="M556.77,976.25c-4-1.38-4-1.38-4-2.89,11.64,4.77,24.16,6.11,36.24,9.18-5.09,2.25-9.85-1.16-14.82-.9C567.92,981.25,561.54,981.35,556.77,976.25Z"/><path class="cls-24" d="M574.26,440.45a1.23,1.23,0,0,1-1.57.76c-3.54-1.35-11.13-12.24-11.22-16.06C566.3,429.77,572.17,433.53,574.26,440.45Z"/><path class="cls-34" d="M354.52,289.51c-1.49-3-4.6-5.46-3.15-9.44,2.44,7.57,9.95,9.87,15.15,14.58a33.69,33.69,0,0,1-10.06-3.94A2.08,2.08,0,0,1,354.52,289.51Z"/><path class="cls-35" d="M577.92,467.12c2.14-.1,3.13-1.17,3.22-3.37.06-1.5-.73-3.26.88-4.49.72,4.5,4.66,9.06-.5,13.69Z"/><path class="cls-36" d="M532.88,950.93c.34-3.27-2.72-2.07-4.09-3.09a25.81,25.81,0,0,1,12.37-3.14C538.19,947.63,535.84,949.66,532.88,950.93Z"/><path class="cls-37" d="M114.14,394.25c1.69-1.8,4.31-1.69,6.27-3.37,2.11-1.82,3.15,1.05,3,2.48-.08,1.09,0,2.94-1.62,3.67C120.61,392.38,117.1,394.08,114.14,394.25Z"/><path class="cls-38" d="M281.44,210.81c-3.2-3.24-7-6.22-4.89-11.7C278.71,202.79,280.7,206.54,281.44,210.81Z"/><path class="cls-39" d="M515.15,958.87a21.25,21.25,0,0,1-3.5-2.14c-1.2-1.09.62-.61.73-1.08,3.36.41,5-2.73,7.67-3.74A12.43,12.43,0,0,1,515.15,958.87Z"/><path class="cls-40" d="M102.36,455.4c.55-3.41,3.34-5.06,5.58-7.15C109.1,453,105.69,454.16,102.36,455.4Z"/><path class="cls-41" d="M54.74,524.14c-1.58-3.34.83-5.79,2-8.47.21-.48,1,.31,1.4.83a1.18,1.18,0,0,0,0,.94Z"/><path class="cls-42" d="M527.82,956c-1.39,1.22-3,1.5-4.26.14-.33-.35.25-1.84.72-2.62,1.2-2,2.39-.82,3.51.2C526.75,954.47,526.36,955.23,527.82,956Z"/><path class="cls-43" d="M87.47,179.36c-1.25,2.87-2.17,5.95-4.94,7.87C81.66,183,84.74,181.3,87.47,179.36Z"/><path class="cls-44" d="M435.15,1011.1l.72-1.16c1.51,3.13,3.95,6,2.45,9.89Q436.73,1015.46,435.15,1011.1Z"/><path class="cls-45" d="M112,517.31c-1.71-3.89-1.46-7.79-.11-11.71C111.74,509.5,113.87,513.39,112,517.31Z"/><path class="cls-46" d="M334.63,260q-1.87-5-3.77-9.94A10.58,10.58,0,0,1,334.63,260Z"/><path class="cls-47" d="M326.88,244.41c-3.11-1.08-5.25-3-5.87-6.41C323.8,239.38,325.27,242,326.88,244.41Z"/><path class="cls-48" d="M581.25,457.21c-2.56-2-4.65-4.23-2.32-7.74A21,21,0,0,1,581.25,457.21Z"/><path class="cls-49" d="M67.55,556c-.19-2.14-2-4.66,1.34-6,.32,1.66-.38,3.27.45,5.09C70.37,557.38,68.83,557,67.55,556Z"/><path class="cls-50" d="M107.94,440.58c-1.45-.05-3.36-.18-3.36-1.8,0-2.09,2.2-.91,3.36-1.37Z"/><path class="cls-49" d="M111.19,501.56c-2.64-1.84-1.9-4.32-1.27-6.77C111.61,496.81,111.14,499.23,111.19,501.56Z"/><path class="cls-51" d="M625.52,1046.54a7.3,7.3,0,0,1-.08.93c-5,1.59-9.69,3.55-13.22,7.65-1.33,1.54-3.49,1-5.07,1.1-4.31.35-8.18,1.93-12.21,3.09-1.81.18-4.34-1.7-5,1.75-3-3.39-6,2.94-9,0-.58-.57-1.16-.35-1.76,0-4.66,2.7-8.14,1.83-11.41-2.89-.46-.67-.81-1.29-1.76-1.45-2.73-.48-3.08-.9-3.3-3.31-3.37,2.87-6.17.26-9.11-.95,2.82-2.2,7.12-1.38,9.43-4.62,3.21-2.3,7.56-1.12,10.73-3.54,1,.36,2,.91,2.34-1,.21-1.24.13-3.11,2.38-2.76,1.12,2.36,2.81,3.16,5.51,2.76a65.93,65.93,0,0,0,19-6.36,107.12,107.12,0,0,0,18-10.79,28.06,28.06,0,0,0,8.66-6.18c1.58-1.78,3.5-4.06,6.61-3.37,1.39,4.25,5.14,8.39.62,12.93a1.25,1.25,0,0,0-.3.89c-.14,5.58-.66,5.91-6.09,3.53C630.77,1039,625.62,1041.7,625.52,1046.54Z"/><path class="cls-52" d="M484.56,1048.47c-1.53,2.45-3.66,3.75-6.54,2.85a22,22,0,0,0-11-.44c-2.09.41-3.37-.05-2.41-2.46,2.21-5.49,1.35-6.54-5-5.78a5.61,5.61,0,0,0-1.66.86c-3.16,1.29-4.34-1.2-5.86-3.07-3.93-1.88-5.16-5.56-3.73-9s.07-5.42-1.78-7.91c1.39-.78,3.48,1.92,4.2-1.08.54-2.25-1.1-2.21-2.23-3s-1.91-2.23-3.05-3.11c-1.51-1.19-3.4-3.12-1.88-4.26,2-1.52,4-4.52,7.48-3a20.65,20.65,0,0,0,8.89,2c2.75-1.3,4.73.5,6.85,1.71,0,3-2.41,2.61-4.18,2.66a21.2,21.2,0,0,1-8.77-1.5c-.2,3,1.05,4.26,3.47,4.8,4.17.93,8.37,1.63,12.56,2.45a16.7,16.7,0,0,1,6.31,2.58c3.14,2.15,6.15,4,10,.8,1.68-1.39,4.09-.09,6,.8-.66,5.61,3,9.33,5.93,13.35.84,1.77,1.66,3.54,0,5.3-1.81,1-4.16,1.58-2.75,4.51.68,1.5,3,1.39,3.28,3.7-3.94,1.08-7.65,1.81-10-2.89-2.39-1.31-1.44-3.74-2-6.21C485.78,1045.08,487.88,1048,484.56,1048.47Z"/><path class="cls-53" d="M497.28,1043.62c2.28-1.55-.08-3.24.14-4.85,2-2.86,4.87-5.17,5.2-9a1.33,1.33,0,0,1,1.82-1.07c1.36,1.64,1.05,3.67,1.36,5.56.11,1.43-.71,2.73-.64,4.31,1.21.21,2.17-1.11,3.39-.59,1.86.74,2.64,2,1.78,3.93-.45,1-1.42,1.79-1.32,3.17,2.27-1.25,4.57-2.34,5.94-4.64,7.15.66,7.52.46,8.92-4.9,3.36,2.62,5.87-1.94,9-1.08,2.1,2.89,6,4.33,6.83,8.24,0,3.31,2.57,6.11,1.94,9.54l-1.94.26c-1.51,0-1.17,1.62-2,2.22-2.15,0-4.38.69-6.23-1-1.2-1.46-1.62-3.54-3.56-4.4-3.47-.73-7,.57-10.49-.35-2.2-.58-2.94,1.38-3.6,3.08a2.83,2.83,0,0,1-1.06,1c-2.23,1-4.52.57-6.79.28-2-.16-2.53-1.87-3.44-3.19-1.12-1.62-1.48-3.85-4.53-3.49C496.54,1046.84,496.43,1045,497.28,1043.62Z"/><path class="cls-54" d="M541.66,1052.22c-1.56-3-3.09-6.11-2.86-9.7,1.08-1,2.31-.28,3.47-.28a1.52,1.52,0,0,1,1,1.3.8.8,0,0,0,.2.66,1.63,1.63,0,0,0-.08-1.36,14.47,14.47,0,0,1-1.2-2.17c-.51-1.65-.74-3.41,1-4.37,2-1,3.44.17,4.67,1.62a5.89,5.89,0,0,1,1.48,3.57c0,.81-.72,2-.33,2.27.64.54.68-.71,1.16-1a1.19,1.19,0,0,1,1.18-.36c1.23,4,5.2,2.85,7.86,4.1,1.39.66,3.23.34,4.21,2-2,4.57-6.26,3.43-9.86,4C549.6,1051.27,545.63,1051.86,541.66,1052.22Z"/><path class="cls-55" d="M537.78,1054.39c.34-1-.73-3.32,1.94-1.91.49,7.23-3.36,11.66-9.5,14.54-1.71.8-1,3.66-3.86,3.8,1.38-3.1.65-3.14-2.64-3.47a17.13,17.13,0,0,1-10.42-5.5c-4-4.48-8.95-7.76-13.52-11.52-1.31-1.08-2.54-2.06-4.34-1.87-1.22-.77-2.79-1.82-2.22-3.2s2.56-1.39,4.06-1.64c.19.78.22,2.12.6,2.23,4.36,1.23,4.38,1.18,7.39,6.56,4.54.62,7,4.29,10.25,6.88,6.74,5.41,13.4,5.76,18,1C535.19,1058.48,535.69,1055.86,537.78,1054.39Z"/><path class="cls-56" d="M594.94,1059.31c3-2.21,5.84-3.62,10.1-3.59,2.73,0,7.42-1,9.57-4.13,2.82-4.08,6.72-4.11,10.84-4.12,3.39,3.26-.26,3.69-2,4.9-3-.58-6.46-1.79-6,3.56-3-.81-4,3.7-7,2.67-1.67-.59-3.93.3-4.48-.08C602,1055.65,598.81,1062.91,594.94,1059.31Z"/><path class="cls-57" d="M484.56,1048.47c2.44-2.67-.06-5-1-7.63,4.29.87,4.23.87,4.3,5.2a13.68,13.68,0,0,0,.86,3.23,2.5,2.5,0,0,1-2.33,2.35A3,3,0,0,1,484.56,1048.47Z"/><path class="cls-26" d="M69.76,239.5c-1.75-.9-.81-1.88,0-2.65,4.56-4.16,8.26-9.16,13.43-12.77,4.07-2.85,7.49-6.57,6.26-12.38-1-4.64,2.62-6.8,5.14-9.62,2-2.21,7-2.37,5.2-7.35,0-.08,1.37-.6,2-1,1.11-.69,3.24-1.11.85-2.91a1,1,0,0,1,.23-1.67c6.49-1.95,7.21-8.89,11.26-12.82,2.53-2.46,6.25-3.71,8.46-6.79,3.61-5,8.94-6.87,14.69-8.12,1-.21,4.56.07,2-3.13-.61-.76.78-1.69,1.28-1.42,3.79,2,4.13-1.42,5.61-3.26a24.8,24.8,0,0,1,4.5-4.54c2.8-2,5.35-2.23,8,.95,3.18,3.86,5.12,8.35,7.26,12.72,2.83,5.75,8.14,9.68,10.82,15.5.33.72,1.12,2,2.21,1.31a2.57,2.57,0,0,0,.5-3.91,72.62,72.62,0,0,0-5.33-5.73c2.82-.48,4,2.6,6.59,2.12-.54-3.53-4.25-4.25-5.71-6.85s-2.8-5-1-8.2c3.53,2.32,3.17,6.46,5.33,9.21a18.82,18.82,0,0,0,5.48,4.52c.58.34,1.34.84,1.75.23,4.88-7.27,7.66.66,9.94,2.21,4.41,3,7.35,8.06,11.18,12,5.7,5.86,9.71,13,14.92,19.19,2.47,2.94,4.41,1.5,5.95-.38,3.35,3.53,5.45,8.06,10.57,10.13,3,1.22.49,5.72,3,7.87.35.31-.1,1.55.25,1.86,7,6.24,2.46,14.43,3.71,21.61,1.81,2,1.1,4.3.69,6.52-1.2,6.58-3.57,12.87-5.07,19.4-.7,3.07,0,4.26,3.12,4.25,2.74,0,5.61-.3,7.92,1.75a1.28,1.28,0,0,1,.31,1.35c-5.06,2.83-10.07.05-15.08-.25-1.45-.08-1.65-1.82-1.51-3.2a31.36,31.36,0,0,1,.82-3.31c1.05-4.59,4-9.14-.2-13.78-.69.43-1,2.22-2.63,2.23-1.94-1.51-.66-3.54-.88-5.34,1.73-5.62-.46-10.23-3.8-14.52-.6-.77-1.57-1.34-1.89-2.24-2.17-5.93-7.3-9.5-11.08-14.15-3.9-4.81-4.41-11.13-7.42-16.47-1.93,1.13-3.85,3.74-7.46,3.43-2-.16-2.08,2.25-2.07,3.87a23.53,23.53,0,0,0,2,9.08,199.69,199.69,0,0,1,6.56,19,17.66,17.66,0,0,1,.52,4.83c.22,6.28,3.08,11.55,7.22,15.89,2,2.13,1.69,4.83,3.27,7.24a52.17,52.17,0,0,0,5.56-7c1.11-1.49,2-3.57,4.53-2.88.67,5.21-1.1,8.73-5.82,11.74-4.37,2.8-5.5,8.33-6.82,13.25a23.94,23.94,0,0,0-.13,10.25c1.65,9.83,3.1,19.65,8.21,28.57,3.52,6.16,8.73,8.4,15.31,8.87,3,.22,6.25-1,9,1.33-.82,2.58-3.08,2-4.9,2.1A50.92,50.92,0,0,1,230,336.2a37.76,37.76,0,0,0,3.64,9c6.93,13.58,13.37,27.4,19.21,41.49.71,1.73,1.86,3.63.16,5.52l-10.76-7c3.6-2,4.11-4,1.59-7.33-2.83-3.7-3.89-8.18-5.8-12.29-3.79-8.19-8.84-15.74-12.94-23.77-6.93-13.55-13.67-27.23-15.83-42.58-.85-6.06-5.31-10.86-6-17-.1-.95-.83-1.83-.89-2.8-.7-13-6.92-24.5-10.13-36.82-3.67-14.09-5.48-28.68-10.83-42.33a5,5,0,0,1-.26-1.45c.09-.65-.84-.33-.18-.34,0,0,.11.14,0,.34-3.37,7.38-2.2,15.3-2.79,23-.16,2.17-.27,4.12.77,6.16a8,8,0,0,1,.48,5.31c-.4,1.84-1.17,3.54-3.09,4.13-2.37.72-2.85-1.52-3.45-2.32,1.42,8.75,2.45,18.12,4.45,27.33.83,3.84,1.16,7.81,2.91,11.41,1.05,2.15.22,4.06-.45,6.13-7,21.6-17.1,41.86-27,62.19-.36.74-.72,1.47-1.05,2.22-2.92,6.6-2.78,6.76,4.15,9.32,2.11.77,5.11.59,5.54,3.89-4.21-1.32-8.57-2.3-12.57-4.08-2.76-1.22-3.63-.4-4.82,1.85a41.88,41.88,0,0,1-5.48,7.67c1.31-8.53-2.55-16.12-3.72-24.15,2.65.28,2.43,2.7,3.12,4.35a45.43,45.43,0,0,1,2,6.57c.25,1,.68,2,1.93,1.75,1-.19,1.11-1.16,1.1-2,0-2.63.6-5.23.23-7.86a20.11,20.11,0,0,1-.32-2.44c-.08-3.21,3.76-3.24,4.46-5.11s-1.58-4.33.47-6.41c1.53-1.56,2.21-.35,3.08,1-2.91-6.12,2.27-8,5.59-10.43,2.72-2,4.95-3.7,4.51-7.4a3.12,3.12,0,0,1,1.4-3c3.52-2.64,4.78-6.37,5.2-10.57.26-2.59,1.34-5.08,1.77-7.54.62-3.44,4.77-7.25-.6-10.86-2.55-1.71-.11-5.25-.7-7.91-1-4.43-1.92-8.88-2.8-14-1.67,2.63-3.3,4.57-6.57,3.77-2-.5-1.86,1.51-2.32,2.92-1.07,3.33,1.53,6.65-.47,10.07-1.25,2.13-1.77,4.3-4.89,3-.74-.32-1.79-.44-2.18.46-.47,1.1.39,1.81,1.26,2.35s1.82.78,2.63,1.33c1.47,1,2.63,2.35,1.45,4.08s-4.3,4.26-4.75,3.46c-3-5.31-11.22.68-13-7.69-.34,5.32,2,9.17,5.43,10.2,1,.31,2.76-.24,3,1.14.38,2.69,2.73,4.62,2.79,7.19.06,2.28-1.69,3.15-3.79,2.05a12,12,0,0,0-8.54-.94c-2.8.6-5-1.08-7-2.86-2.2-1.94-4.52-3.4-7.49-1.46-1.22.79-2.11.61-2.7-.81-.83-2-2.39-3.51-3-5.58a13,13,0,0,1-1.21-2,14.25,14.25,0,0,0,1.48,2.42c1.17,3,3.11,5.68,4.48,8.6,1.26,2.68,3.62,5.19,2.1,8.59-5.18-8.47-9.08-17.59-13.08-26.64-5.79-13.07-10.31-26.72-18-38.94-.77-1.23-1.32-2.62-2.16-3.8-7-9.83-7.62-9.86-16.21-1.29C71.64,237.66,70.7,238.58,69.76,239.5Z"/><path class="cls-1" d="M161.38,357.67c-2.94-2.63-6.87-2.79-10.33-4.12-2.67-1-4-2.05-2.45-5.31q10.49-21.84,20.53-43.9c2.87-6.3,4.86-13,7.84-19.25,3.15-6.6.92-12.64-.32-19.1-2.15-11.1-5.12-22.16-4.45-33.68,1.35.13,1,1.14,1.1,1.84.25,1.42,1.21,2.74,2.38,2.69s1.94-1.41,2.4-2.78a7.2,7.2,0,0,0-.11-4.71c-2.5-7.33-.44-14.75-.49-22.11a4.5,4.5,0,0,0-.62-3,4.85,4.85,0,0,1-.42-1.77c6.82-.41,1-5.8,3.19-8.07,1.82-.13,2.06,1.54,2.34,2.58,2.8,10.22,6.29,20.24,7.41,30.91.47,4.55,2.69,8.9,4,13.37,1.59,5.54,2.3,11.46,4.72,16.58,3.69,7.79,3.89,16.37,6.73,24.26,4.19,11.65,6.26,24,10.49,35.48,2.76,7.5,5.53,15.35,9.81,22.23,4.5,7.24,8.51,14.74,12.67,22.15,1.69,3,4.65,6,3.14,10.1,3.16.16,2.89,3.54,4.6,5.17,2.26,2.17.81,5.8.86,8.86l-4.18-.8c-9.86-4.77-20-8.78-30.76-11C194.11,370.68,178.15,363,161.38,357.67Z"/><path class="cls-1" d="M253,392.25c-1.22-6.58-4.41-12.38-7.18-18.34-3.83-8.24-7.62-16.5-11.5-24.72-1.77-3.74-4.55-7-5.5-11.15-.25-1.14-1.8-2.1-.44-3.44,1.15-1.13,2.11,0,3.12.32,5.87,1.59,11.73,2.2,17.63.15.89-1.32,2.35-1.71,3.73-2.15,6.84-2.15,13.71-4.19,20.4-6.78,1.64-.64,3.39-1.36,5.15-.23,3.43,2.1,3.34,6.19,5.05,9.25,7.88,14.07,13.7,29.14,20.15,43.9,4.57,10.48,9.36,20.9,13.23,31.65,2.17,6,4.54,12.14,5.16,18.64.26,2.78,2.65,4.56,2.85,7.51.26,3.67-1.34,3.08-3.37,2.34-1.25,5.23,4.92,6.08,5.91,10,.33,1.33,2.09,2.43.92,4-1.61,2.14-2.3-.54-3.46-.81-3-.69-5.77.67-8.67.83-11.93-8.53-25-15.15-37.63-22.57C268.9,425,262.65,417,258.8,406.75,257,401.87,254.91,397.08,253,392.25Z"/><path class="cls-1" d="M115,289.75c.84.94,1.62,1.94,2.54,2.79,1.2,1.11,1.34,4.12,4.51,1.4,1.49-1.29,5,.25,7.09,2.68s5,4.42,8.83,1.69c2-1.43,4.05,1.72,6.43,1.87.61,0,1.09,1.78,2,.24.54-.89.91-1.78-.28-2.47-1.83-1.08-3.13-2.33-1.93-4.71.32-.63-.28-1.57-.89-1.13-3.1,2.25-4.09-.89-5.61-2.2-1.71-1.46-1.06-4.94-4.44-5.22-.53,0-.68-1.8.44-1.68,3.09.3,1.45-.91.74-1.89-.49-.68-1.09-1.46,0-2s1.66-.26,2.32.88c2.94,5.1,6.36,6.19,11.27,3.72.56-.28,1.06-.94,1.63-.26,1.45,1.73-1,2.81-.73,5a29.31,29.31,0,0,1,2.44-2.13c3.73-2.56,2.58-4.11-1.07-5-2.39-.56-3.77-1.85-3.64-4.34.07-1.29,1.08-1.85,2.33-2.13,1.9-.41,2.93,1.17,4.94,2.05-.76-2.71.74-4.27,2.16-5.88-3.44-2.34-.22-5.35-.83-8-.81-3.54.71-4.72,3.85-3.59,2.58.93,3.12.91,3.48-2.28.42-3.66,3.44.3,5-1.3-.81,5.8-.15,10.72,2.85,15.11.57.84.66,1.24.22,2.05-2.36,4.23-2.23,4.52,1.7,6.34,1.76.81,1.15,2.74.79,3.76a113.64,113.64,0,0,0-4.55,17.1c-.54,2.85-.57,8-5.89,8.74-1.59.23-.42,2-.25,3,.49,2.8-.8,5.78-2.84,6-3.66.37-3.35,6.36-7.84,4.8-.5-.17-.94,1.11-.35,1.94,1.34,1.88-.25,3.86,1,5.82-2.74.13-2.12-2.37-3.53-2.59-2.65,3.23-.89,5.21,2.66,6.72-6.06,1-7.26,2.42-6.84,7.84.23,2.87-.91,5.67-.16,8.62.43,1.71-1,2.6-2.71,2.71-2.07.12-2.91-1-3.2-2.92A36,36,0,0,0,134.79,339c-3-11-8.51-21-12.82-31.55-.89-4.66-3.58-8.53-5.52-12.74-.73-1.59-1.86-3.06-1.37-5Z"/><path class="cls-4" d="M466.81,1013.14c-2.55.15-4.37-2-6.81-2.14-1.89-2.06-5.54-1-6.95-3.9,1.17-.19,2.86.45,2.84-1.69,0-5.75,1.43-6.82,7.64-5.54.26.06.58-.16,1-.28-.06-1.41-1.79-2.18-.93-4.17,2.13-5,.57-10-1.63-14.48-2.67-5.42,1.55-7.61,4.31-10.11,1.49-1.35,3.35-2.35,4.5-4.15,2.36-3.06,5.72-4.85,8.87-6.9,3.44.17,6.38-4.52,10.19-1,.56.52,1.87.63,2,1.14,2.12,8.3,3.61-.06,5.38-.18l.35.31c1.18,1.66.27,3.12-.55,4.51a32.41,32.41,0,0,0-3.73,10,95.27,95.27,0,0,0-3.94,16c-1.25,10-7.93,16.9-16,22.36C471.59,1014.15,469.08,1015.67,466.81,1013.14Z"/><path class="cls-6" d="M347.6,422.74c0-.5,0-1,0-1.48-.05-3.21,1-7.07-3.87-7.77-4.15-.61-4-4.19-4.84-7-1.78.33-.55,2.24-1.94,2.67-.33-3-.66-5.84-1-8.71l1.1-.44c.72,2.56.73,5.81,4.61,5.26.19,0,.54,2.29,1.1,3.38,1.09,2.09,2.91,3.89,5.24,3.56s1.54-2.9,1.5-4.52c-.13-6.4-.36-12.81-.65-19.19a53.68,53.68,0,0,1,1-12.59c2.6,1.39,1.71,3.66,1.55,5.37-.42,4.41,2.68,5.19,5.49,4.72,3-.49,6,.1,8.95-.65,1.45-.37,3.28-.56,4.67.73a11.16,11.16,0,0,0,1.19.85c1.75-3.75,4.87-1.42,7.41-1.67a25.63,25.63,0,0,1,8.75.94c.21.06.62-.67.94-1-.36,5.71-2.76,10.94-3.88,16.48-.32,1.59-1.89,1.59-2.89,2.33-7.71.65-12.64-4.75-18.22-8.56-3.5-2.39-6.86-4.85-11.1-5.93-.65,6.7-.47,7,5.21,8.59a31.71,31.71,0,0,0,5.8,1.08c1.94.18,4.11,0,5,2.32s-.65,3.72-1.89,5.25a3.82,3.82,0,0,1-1.54,1.19c-5.12-.38-9.66-2.61-14.63-5.27C350.69,410.06,350,416.55,347.6,422.74Z"/><path class="cls-6" d="M538.41,423.65a6.36,6.36,0,0,1,5,4c.91,2.63,3.4,7.16,6,8.87.59.39,1.36,1.1,1.08,1.31-2.43,1.83-.56,2.44.58,3.88,1.34,1.69,1.61,4.19,2.66,6.17.67,1.29,1.2,2.35.09,3.52s-2.16.65-3.51.11c-5.33-2.16-7.33-7-9.64-11.57-1.33-2.63-2.31-5.26-5.28-6.66-2.26-1.07-2.36-4.17-2-5.57C533.87,426,536.14,424.37,538.41,423.65Z"/><path class="cls-4" d="M365.34,408c2.89-6.65,2.88-6.58-4.8-7.93a30.91,30.91,0,0,1-7.94-2.11c-3.08-1.47-.52-4.81-1.61-7.26-.75-1.69-1-4.44,3.29-2.47,6.57,3,11.73,7.89,17.78,11.55,3.24,2,6.76,2.7,10,4.28l-2,2c-2.91,1.6-5-3.41-8.15-.86.78,1.78,4.15-.19,4.09,2.72C372.5,409.15,368.94,410.72,365.34,408Z"/><path class="cls-13" d="M290.53,749.91c-4.26-.54-4.14-4-3.9-6.82.33-3.72,2.4-7.06,2.08-11.13-.2-2.58,2.3-2.21,3.64-.67,1.55,1.78,3.67,3.42,3,6.33s2.78,3.75,3,6.42c.46,5.4-.55,6.61-5.93,6C291.83,749.94,291.18,749.94,290.53,749.91Z"/><path class="cls-58" d="M186.8,498.7c1.14,1.19-5.18,4.29,1.11,4.26.56,0,.61,1.61,0,2.12-1.22,1-3.13,1.51-3.89,0-2.16-4.28-4.54-8.66-4.67-13.52-.09-3.45,3-1,4.53-1.55.87,1.5.7,3.42,2,4.76l0,0A4.38,4.38,0,0,0,186.8,498.7Z"/><path class="cls-6" d="M391.09,363.69c-4.32,1.23-8.35,4.07-13.66,2.35,5-3.52,11.46-3.78,15.5-8.34A10.84,10.84,0,0,1,391.09,363.69Z"/><path class="cls-6" d="M389.85,374.54c-1-2-2.45-2-4.26-1.1-2.1,1-4.26,1.46-6.23-.75,2.6-3.9,6.83-2.71,10.49-3.25Z"/><path class="cls-23" d="M376.06,407.84c-.91-1.41-2.32-.85-3.51-.77s-2.89,1-3-1c-.08-1.51.8-2.75,2.87-3.17,3.4-.68,5.05,2.28,7.69,3A4.64,4.64,0,0,1,376.06,407.84Z"/><path class="cls-59" d="M345,481.52c-.28,1.88-.33,3.58-2.21,3-2.34-.68-2.84-2.84-2.95-5-.06-1.23.69-2.63,1.88-2.24C343.84,478,344.3,480.23,345,481.52Z"/><path class="cls-6" d="M281.62,731.44c-1.29,4.28-1.54,8.43.32,12.42.17.35-.72,1.68-1.27,1.78a1.66,1.66,0,0,1-1.9-1.74c.31-4.16.81-8.32,1.24-12.48Z"/><path class="cls-60" d="M340.65,428.62c-.9-.68-2.22,1.6-2.79-.29-.35-1.18.66-1.68,1.78-1.68,4.51,0,1.91-4.59,4-6.27,2.41,2.15,1.83,4.2,0,6.25Z"/><path class="cls-61" d="M185.82,494.77c-2.84-.69-5.24-1.56-2-4.76C185.67,491.12,185.84,492.91,185.82,494.77Z"/><path class="cls-6" d="M362,672.31c2.13-1.63,3.53-1.47,5.28-.45C365.78,673.56,364.28,673.05,362,672.31Z"/><path class="cls-61" d="M186.8,498.7c-1.13-.58-2.92.3-3.38-1.82-.54-2.48,2.1-.85,2.44-2.08C187.56,495.77,186.49,497.4,186.8,498.7Z"/><path class="cls-6" d="M290.56,82.75c-9.07-6.68-8.86-6.46-1.13-13.93,4-3.89,7.88-5.81,13-2.82,3.47,2,7.93-.43,11.15,2.69.65.63,3.36.15.37,1.75-.68.37.92,1.43,2.09,1.4,4.29-.11,5.79,2,6.18,6.13.27,2.77-1.75,6.37,2.14,8.22-1.51,1.29-2.61-.86-3.84,0a1.27,1.27,0,0,0,.67,2c2.08.72,1.63,2.32,1.13,3.54-.72,1.79-1.95.07-2.68-.16-6.77-2.11-11.83-.59-16.05,5.5-2.12,3.06-5.4,5.33-5,9.51.15,1.8-.58,1.86-1.85,1.81-7.83-.36-15.72-.19-23.45-1.2-7.07-.92-14.18-1.45-21.24-2.53-5.46-.83-10.16-3.21-15-5.31-1.55-.67-1.91-3.48-2-5.84-.11-6,4.51-9.91,5.95-15.1,2.48-9,10.58-11.59,17.46-15.11,4.24-2.17,5.95-6.93,10.51-8.38.67-.22-.19-2.71,1.55-2.08,1.33.48,1.91,2.18,1.93,3.68s-.75,3.5.76,4.45c1.31.83,3.68,2,4.22-.87.47-2.51,3-2.26,4.08-3.8s1.6.12,2.24.54c.35.23,1.64.24.85,1.14-2.93,3.36-2.3,8-4.53,11.84-1.75,3-4.21,4-6,3.31-2.73-1-5.4.49-8.06-.92-1.95-1-3.49,1.22-4.78,2.53-.6.59.5,1.73,1.24,1.6,7.79-1.43,13.06,3.87,19.3,6.78C284.17,84.25,287.45,85.66,290.56,82.75Z"/><path class="cls-6" d="M322,104.46c-3-.65-4.8-2.37-7.22-2-1.23.18-1-.75-1.05-1.56-.14-1.21.46-1.3,1.34-1.35C318.36,99.34,321,100.05,322,104.46Z"/><path class="cls-6" d="M328.21,94.36c.76,1.33,3,1.83,2.09,4-.19.43-1.27,1-1.48.81C327,97.9,328.24,96.06,328.21,94.36Z"/><path d="M278.37,325.91c-7.86,2.58-15.72,5.18-23.6,7.71-1.86.6-3.79,1-5.68,1.45-4.09.06-8.27.7-12.24.05-8.13-1.34-12.78-6.88-15.8-14.31-1.77-4.35-3.54-8.77-4.14-13.29-.94-7-3.38-13.94-1.7-21.19a33,33,0,0,1,7.47-15.08,51.13,51.13,0,0,0,3.62-4.07c1.45-1.95,2-4.05,3-6.07.21-3.16,2.12-4.94,4.88-6,3,1.63-1.33,3.42.11,5.09,1,2.35-.14,4.52-.66,6.7-3.38,14.29.66,23.57,13.51,30.87,7.87,2.69,15.9,1.33,23.88,1,5.75-.45,11.11.47,15.34,4.83,2.78,2.86,6.49.68,8.41,1.86a22.14,22.14,0,0,1-7.59-5.11c-2.14-2.26-4.6-4.25-6.54-6.63-6.7-8.17-15.62-12.23-25.56-14.6a4.22,4.22,0,0,1-2.16-1.1c-3.47-1.26-7.13-.74-10.69-1s-3.57-1.29-2.77-4.22c2.48-9.06,5.94-17.89,6.67-27.38,2.17-5.62.77-11.49,1-17.23.17-3.95.71-4.76,4.27-2.8,8.29,4.56,16.19,9.77,24.57,14.22,6.39,3.41,13.5,4.48,19.86,7.72,5.41,2.77,11,4.85,15.52,9.46,6.77,6.92,6.43,15.55,6.31,23.79-.11,7.5-2.31,15-3.55,22.45-.59,3.6,0,6.2,4.66,5.47a28.73,28.73,0,0,1,4.91,0c1.44,0,3.13-.25,3.14,2,0,1.76.49,3.79-1.72,4.66-9.53,3.74-19.49,6.9-29.53,7.35A72.54,72.54,0,0,0,279.53,325Z"/><path class="cls-4" d="M204.22,154.47c1.62-2.75,5-.6,6.61-2.9.1-.14.9,0,1.14.23.71.73.16,1.21-.28,2-1.33,2.37-1.2,2.53.76,2.43,4.88-.26,7.69,3,10.91,5.92,6.61,6,10.72,14.28,17.65,19.89,3.11,2.52,2.2,7,5.54,9.1.23.14.12,1.49-.18,1.66-1,.59-2.09-.34-2.55-.89a35.55,35.55,0,0,0-9.26-7.72c-9.43-5.58-14.36-15.65-22.77-22.24C209.06,159.8,206.8,157.05,204.22,154.47Z"/><path class="cls-26" d="M282.9,241.21a6.58,6.58,0,0,1-5.48-3.5c-2-3.58-4.9-6.73-5.81-10.87-.21-1-1.9-2.45.45-3.09,1.48-.41,2.27.39,3.09,1.64A69.79,69.79,0,0,1,282.9,241.21Z"/><path class="cls-26" d="M310.88,332.5c1.1,1.35,3-1.39,3.77,1-2.62.74.94,4.24-2.21,4.85-2.29.45-2.75-1.25-3.42-2.63s-2.46-2.9-1.39-4.37-1.84-3.38.82-4.13c1.24-.35,2.29.48,3.1,1.19C313.32,330,311,331.19,310.88,332.5Z"/><path class="cls-26" d="M216.81,97.94c-1.51-4.78,2.95-7.59,3.05-11.65,0-.6,1.38-1.36,2.44-1,.86.31,1.47,1.31,1.09,2C221.29,90.81,221.74,95.92,216.81,97.94Z"/><path class="cls-26" d="M262.34,223.66a5.35,5.35,0,0,1-4.13-3.55c-.5-2-3.43-3-2-5.56.43-.77,1.53-.6,1.6-.24.44,2.32,6.19,1.25,3.5,5.62C260.76,220.8,263.21,221.68,262.34,223.66Z"/><path class="cls-26" d="M199.71,157.72c-.32.82-1,1.91-1.57,1.39-1.48-1.28-3.91-1.72-4.19-4.15a.94.94,0,0,1,1.23-1.05C197.09,154.67,199.09,155.44,199.71,157.72Z"/><path class="cls-26" d="M179.05,159.5c3,2.06,2.66,5.92,6.11,6.25.77.07.21.78,0,1.08A1.32,1.32,0,0,1,183,167C181.17,165.12,179.35,163.19,179.05,159.5Z"/><path class="cls-26" d="M308.05,322.26a3,3,0,0,1,2.53,2.24c.29,1.17-.83,1.56-1.83,1.67-1.44.16-2.62-.09-2.56-1.95C306.22,323.16,306.4,322.26,308.05,322.26Z"/><path class="cls-4" d="M76.89,224.37c0-3.15,3.14-3.27,4.23-5.15,2.86,1.9.36,2.65-.88,3.1S78.81,224.54,76.89,224.37Z"/><path d="M292.63,223.49c1.69.41,3.79.24,3.11,2.77-.16.59.11,1.34-.76,1.26C292.3,227.29,294.12,224.48,292.63,223.49Z"/><path class="cls-26" d="M329.55,372.12c-1.05-1.26-2.32-2.36-1.17-4.1a1.81,1.81,0,0,1,1.73-.23C331.43,369.24,331.23,370.69,329.55,372.12Z"/><path class="cls-26" d="M222.42,104.51c.07,1.47-.57,2-1.74,1.86-1-.14-2-.56-1.63-1.79.21-.82.39-2.08,1.71-1.87A2,2,0,0,1,222.42,104.51Z"/><path class="cls-26" d="M252.85,224c-2.16-.94-3.52-1.62-4.18-3.13-.06-.14.64-.87,1-.88C251.9,219.84,252,221.67,252.85,224Z"/><path class="cls-6" d="M361,295.05c3.54,1.8,7.34,3,10.3,6,5.63,5.67,7,13.55,2.78,20.3-3.62,5.76-7.82,11.16-11.8,16.7-.79,1.09-2.17,2.13-3.25,1.45s-.89-2.48,0-3.56c3.44-4.21,6.79-8.53,10.54-12.46,6.76-7.09,6.37-13.53-1.24-19.6a107.37,107.37,0,0,1-8-7.82Z"/><path class="cls-1" d="M324.88,398.14c4.11-.91,5.41,3.59,8.64,4.6.84.26.12,2.61-.6,4-.87,1.64-1.81.43-2.8.45-2.75.07-4.82.2-6.4-3.15-1.38-2.91,1-4,1.24-6Z"/><path class="cls-62" d="M324.42,411.64c1.22,1.37,3.62.23,3.16,3.53-.2,1.46-1.6,5.45,3.23,5.52,1,0,2,4.74,2.66,7.39a1.37,1.37,0,0,1-2.48.76c-.22-.21-.22-.73-.45-.84C323.55,424.68,324.9,418.14,324.42,411.64Z"/><path class="cls-6" d="M374.17,335c.76,2.74-1.3,3.85-2.84,5.52a75.52,75.52,0,0,0-6.74,8.84c-.92,1.34-1.94,2.49-3.36,1.5s-.37-2.41.31-3.78c2-3.95,5.7-6.11,8.81-8.75,1.23-1,2-2.94,3.87-3.27Z"/><path class="cls-6" d="M380.28,350.1c1.88-4.24,5.71-4.56,8.41-6.4,1.27-.86,2.57,0,3.07,1.26.58,1.48-.82,2-1.83,2.36C386.93,348.29,383.87,349.08,380.28,350.1Z"/><path class="cls-43" d="M354,358c.68,2.86-1.87,2.63-3.56,3.11-1.24.36-2.05-1.26-1.6-1.57,1.46-1-1.09-4.64,2.58-3.84C352.59,355.9,354.81,355,354,358Z"/><path class="cls-1" d="M325,398.07c-1.24-.41-2.27,1.45-3.91.17,1.56-1.56,3.41-2.92,3-5.51-.19-1.27.91-1.66,2-1.35s1.66.75,1,2.11c-.7,1.57.38,3.95-2.21,4.65Z"/><path class="cls-6" d="M348.33,341c-3.23-4-2.21-8.48-1.22-12.93C347.52,332.4,349.47,336.55,348.33,341Z"/><path class="cls-6" d="M373.86,358.94c-1,1.52-1.87,2.86-2.81,4.13-.54.74-1.21,1.87-2.26,1a1.68,1.68,0,0,1,.22-2.57C370.25,360.37,371,358.43,373.86,358.94Z"/><path class="cls-6" d="M360.46,362.19c-3.16,3.4-6,4.87-10.92,4.35Z"/><path class="cls-63" d="M354.52,289.51l1.94,1.2c-.25,1.22,1.55,2.77-.51,3.66a2.06,2.06,0,0,1-1.79,0C352.53,292.67,354.85,291.17,354.52,289.51Z"/><path class="cls-6" d="M345.31,276.27c1.28.86,2.64,1.64,2.48,3.34,0,.24-.92.69-1.2.57C344.94,279.44,345.27,277.83,345.31,276.27Z"/><path class="cls-6" d="M374.22,335.06c0-.15.06-.34.16-.44,1.05-1,1.54-3.06,3.65-2,.28.13.56.9.43,1.08a3.22,3.22,0,0,1-4.29,1.3Z"/><path class="cls-64" d="M330.83,1031.64l-1.1.85c-6.39.7-12.77,1.49-19.17,2.07-3.95.36-7.78,0-10.25-3.83-1.2.1-2.33.07-2.92-1.25a12.54,12.54,0,0,0-8-1.66c-3,1.57-5.34,1-6.8-2.22a22.12,22.12,0,0,0-8.84-2.79c-2.54.08-5-.08-5.94-3.06-1.15-3.5-4.61-3.13-7.12-4.47-3-1.58-5.44-4-8.67-5.27-2.21-4.25.47-8.52,0-12.78,1.74-1.44-.12-3,.2-4.56.26-1.21.77-2.2,2-2.46.85-.18,2,.38,2,1.08,0,5.34,4.42,6.81,7.11,8.34-1.07-1.3-3.36-3-5.06-5.22-2.06-2.69-1.6-5.61,1.46-6.16,5.13-.93,6.09-3.86,5.5-8.21,1.7-1.69,3.21-1.24,4.61.4h0c.75,2.36,3.09,3.64,4,5.89l.9,1c1.87,2.4,4.56,4.39,3.7,8.08a2.05,2.05,0,0,0,1,2.15c4.48,2.53,6.1,8.56,11.8,9.62.41.07.68.68,1,1.08,2,4,5,.51,7.48,1a3.66,3.66,0,0,1,1.22.56c1.74,2.85,3.91,5.2,7.27,6.15,1.53,3.65,4.76,4.52,8.18,4.61,5.94.14,10.23,3.65,14.66,6.84C332.66,1028.68,333.15,1030.31,330.83,1031.64Z"/><path class="cls-65" d="M199.83,972.55a17.55,17.55,0,0,1-2.29-4.2c-.4-1.41-.59-2.51.63-3.45,1.92-1.48,2,.86,2.75,1.51,1.72,1.51,3.37,3,5.79,3.23,1.32,2.5,3.73,1.55,5.76,1.83,4.19-.07,7.5-3.38,11.75-3.23.72.32.7,1.19,1.19,1.73.07-1-.13-1.93,0-2.87,1-3.33,3.71-4.21,6.69-4.71a14.67,14.67,0,0,1,2.12,1.18c5.84,3,5.93,4.73.42,8.39a4.74,4.74,0,0,0-1.24.87c4.22,4.06,10.15,6.24,13.07,11.74,0,2.36,1.29,4.17,2.45,6,0,.22.08.45.11.67.22,4.36,3.11,9.57-.9,12.8s-8.7-.59-12.82-1.74c-3.88-1.08-7.25-4-10.84-6.13-1.3-3.33,1-3.61,3.24-3.59a14.91,14.91,0,0,1,3.75,1c5.55,1.56,7.61.4,9.26-5.22-1.58,5-4.13,6.48-8.76,5.38-10.2-2.43-18-8.87-25.94-15.16C204,976.6,203.28,973.19,199.83,972.55Z"/><path class="cls-66" d="M246.05,985.53a33.58,33.58,0,0,0-13.68-10.95c-.73-.32-1.68-.28-1.79-1.31-.13-1.34.93-1.39,1.88-1.71a20.93,20.93,0,0,0,3-1.49,3.71,3.71,0,0,0,2.33-2.94c.09-2.08-1.93-1.14-2.94-1.68s-2.47-1-2.49-2.66c3.32-2.66,5.35-6.53,8.67-9.19l.93-.89c4,1.44,8,6.36,7.46,10.08-.7,5.14,2.6,8.32,7.82,9.22.58.11,1.07.75,1.48-.24.48-1.15.75-2.82,2.64-1.87a3.36,3.36,0,0,1,2,3.65c-.67,2.75,1.2,4.2,2.44,6,.28,1.26.64,2.52.85,3.8.46,2.76.1,4.88-3.47,5.06-1.87.09-4.25.18-5,2.31s1.33,3.31,2.75,4.68c2.23,2.14,4.19,4.56,6.22,6.9.12.14-.09.57-.19,1.11-1.86.29-2.93-1.13-3.91-2.21s-1.8-2.41-3-2.33c-4.49.31-4.3-2.46-4.14-5.52.06-1.06-.06-2.59-1.73-2.24-1.13.24-1.24,1.46-.92,2.45.5,1.57,1.53,3.23-1.24,3.65-.83-2.06-.5-4.7-3-6l0,.06C248.26,989.31,246.24,987.9,246.05,985.53Z"/><path class="cls-67" d="M196.81,993.32c-6.87-6.46-6-14.51-4.67-22.73,1.76-.35,2,1.09,2.63,2.15a25.13,25.13,0,0,0,10.94,10.7c2.89,4.15,7.49,6.3,11.12,9.58,1.24,1.13,2.19,2.47.64,4.11-.34.35-.8,1.06-1,1C210.07,995.9,202,1000.52,196.81,993.32Z"/><path class="cls-68" d="M217.47,997.13c-.78-3.52-5.64-7.9-9-7.48-2.12.27-1.93-.93-1.63-1.81.62-1.83-.29-3.06-1.14-4.4h0c2.5-2,3.62.67,5.37,1.54-1.43-1.54-3.51-2.25-4.72-3.89-.79-1.07-2.49-2.49.26-3.42,8.11,6.24,16,12.89,26.32,15.33,4.5,1.07,6.34-.8,7.73-7.58.17.23.43.43.44.63.23,9.72-1.76,11.17-11.13,8.27-2.22-.68-4.94-2.4-5.5,1.9-1.2.26-2.57.55-.86,2,1.41,1.17,3.67,1.38,4.28,4C223.25,1002.62,220.42,999.73,217.47,997.13Z"/><path class="cls-69" d="M265.78,979.57c-2.43-1.2-6.16-1.54-3.28-5.9.56-.85-.58-2.41-1.59-3.27-2.37-.17.12,4.11-3,3.19-5.49-1.61-11.59-6.59-10.31-8.94,2.25-4.13-.69-5.89-2.46-8.32-.94-1.29-1.47-3-3.17-3.62l4.26-3.65c.87.45,4.19-1.56,1.88,2.11-1.55,2.47,1.28,1.15,2,1.73.28.18.38.37.31.58s-.15.32-.23.32c-1.31,4.31,2.68,7.1,3.19,10.94.18,1.39,2.4,1.43,3.39,1.2,4.32-1,6.38,1.88,8,4.77,1.8,3.17,4.57,5.87,5.06,9.73Z"/><path class="cls-69" d="M241,953.6c-2.74,3.2-3.4,8.37-8.67,9.19-1.65,2.05-5.7,1.11-6,4.84a2.16,2.16,0,0,1-2,1c-3.91,1.2-7.52,3.73-11.93,2.84a43.14,43.14,0,0,0,12.88-7.61c1.11-.9,1.33-.93.74-2.66-1.08-3.19,2.27-.78,2.9-.9C233.82,959.32,236.55,954.88,241,953.6Z"/><path class="cls-27" d="M198.84,959.75c-1.7.82-3.27,1.46-2.65-1.59.23-1.09.41-2.18.62-3.28C198.21,956.2,198.33,958.06,198.84,959.75Z"/><path class="cls-70" d="M649.06,1005l-1.88,2.07c-1.92,2.51-2.15,7-7,6.12.31-4.49-2.6-4.53-6.08-5.44-7.91-2.06-14.67,0-21.35,3.74a5.84,5.84,0,0,1-2,.66c-4.69,1.53-9.65,1.62-14.45,2.59s-7.09-1.4-5.32-5.92c1.48-3.77.2-4.31-3.09-4a63.2,63.2,0,0,0-6.84.62c-7.42,1.58-7.48,1.52-9.13-6,5.37-1.05,6.1-5.56,7.43-9.74.61-1.92.11-5,3.74-4.61,2.67,3.86.53,7.66.37,11.1,1.22-3,3.83-4.81,7.75-5.47,6-1,9.44,1.65,8.62,7.64-.32,2.34.91,3.61,2.61,2.81,8.49-4,17.59-.43,26.12-2.43,6.66-1.55,12.48,1.17,18.59,2.52C649.06,1001.7,650.72,1002.62,649.06,1005Z"/><path class="cls-71" d="M583.1,985.42c-3.63,2.39-2.81,6.7-4.16,10.06s-2.89,5.21-6.66,3.71c-2-.53-2.52-2-2.21-3.77.36-2.12-.85-3.38-2.26-4.57-1-.8-1.73-2.31-3.21-1.75s-.78,2-.79,3.07c0,1.58-.25,3.08-2,3.46s-2.75-.87-3.41-2.23c-1.21-2.47-2-4.64-4.75-.92-1.73,2.33-5.5,1.35-6.88-1.38-.73-1.43-.87-3.16-2.58-4.9.45,2.66-.5,4-2.75,4.12-5.82.39-5.64-4.87-7.75-8.65-1.3,2-.27,5.24-3.33,5.4-2.37.13-4.36-1.24-6.5-2-5-2.43-5.65-6.66-4.74-11.53,4.2,1,8.42,3.52,12.47-.63.85-.86,2,.52,3.05.83,3.39,1,7,4.1,10-.92.62-1.05,2.06-.87,3.1-.16.5.35,1.19.89,1.21,1.37,0,1.26-1.08,1.49-2,1.51-2.15.06-2.31,1.49-2.13,3.05.32,2.76,2.18.78,3.33,1,3.68.82,5.17-3.89,8.71-3.37,5.33,3.29,11.84,2.79,17.38,5.39,1.36,5.81,1.38,5.79,6.62,3.06a6.87,6.87,0,0,1,2.35-.28c.28.22.37.45.28.67S583.2,985.42,583.1,985.42Z"/><path class="cls-72" d="M583.1,985.42l0-1c5.22,3.47,11.22,2.56,17,2.9,3.6.21,6.52.43,4.24,5.23a2.15,2.15,0,0,0,1.62,3c4.19-.26,8.93,2.56,12.46-1.86.47-.6,1.08-1.09,1.5-.45,2.17,3.31,6.4.35,9.14,3.27,1.18,1.25,4.72-1.11,6.94-2.41,6.39-3.74,8.38-2.63,11.57,5.18,1-.43.65-2.54,2.75-1.7-.51,2.34,2.34,5.27-1.24,7.41-1.41-4.25-5.4-3.35-8.5-4.3-10.25-3.15-20.68,1.75-31-.7-1.77-.42-4.16,1.42-6.17,2.42s-3.3.33-4.81-1c-1.95-1.78-.51-2.77.54-4,.83-1,1.17-2.39-.16-2.92-2-.79-2.52-4.34-5.49-3.11-3.13,1.3-7.25.66-8.9,5-.52,1.36-2.49,2.18-4.21,3C584.75,995.28,582.22,990,583.1,985.42Z"/><path class="cls-56" d="M640.24,1013c3.91-.06,3.86-4.81,6.94-5.86,4,2.64,4.36,9.52.8,15.41-.92,1.52-2.21,2.81-3.22,4.28-.83,1.19-2.35,2.7-2.1,3.7,1.76,7-5,9.36-7.4,14-.64,1.21-1.65.43-2.58.28-1.27-.19-2.38-1.07-2.35,1.83,0,2.18-3.09-.36-4.81,0-.67-3.25-1.4-6.5,2.85-8,.68-.25.61-.94.66-1.63.34-5.12.37-5.11,3.94-2.74a2.49,2.49,0,0,0,3.44-.79c1.13-1.4-.4-1.43-1.25-1.63-1.72-.42-1.11-1.38-.29-1.94,3.67-2.57,3.63-5.61,1.56-9.17a3.55,3.55,0,0,1-.13-3.72C636.35,1014.33,637.84,1013.18,640.24,1013Z"/><path class="cls-73" d="M297.39,1029.48l2.92,1.25c-.12,3.06-2.52,1.71-4,2.08-1.14-1.7-5.36,0-4.5-3C292.4,1027.62,295.49,1030.64,297.39,1029.48Z"/><path class="cls-74" d="M337.73,1029.75l-3,.94c.9-5.15.72-5.41-4.58-6.43-1.57-.3-3.26-.18-4.63-1.22a4.65,4.65,0,0,0-3.68-2.14c-4.17-.3-7.43-2.47-10.22-5.28-3.19-3.22-6.65-5.59-11.35-5.57h0c-2.79-.56-5.65-.42-7.16-4-.73-1.77-4.08-1.35-6-2.6-1.62-2.13-5-3.6-2.64-7.2,1.73.08,3.77-.41,4,2.32.08,1.2,1.06,1.47,2,1.79,6.6,2.27,11.47,8.75,19.77,7.27,2.7-.48,5.35,3.3,8.74,3.4,1,2.37,3.19,1.8,5,2.17,6,1.2,10.17,6.22,16.2,7.52a2.94,2.94,0,0,1,1,5.12C340,1027,338.9,1028.44,337.73,1029.75Z"/><path class="cls-75" d="M284.54,996.24c-1.56,3.39,3.61,3.86,3,6.84,1.26.95,3.14.41,4.24,1.8s2.85,3-.3,4.16c-.6-1.32-1.79-1.59-3.05-2.07-2.45-1-5.78-1.11-5.64-5.15,0-1.17-1.29-1.86-2.38-2.2-3-1-4.15-2.67-3.08-5.89.9-2.68-3.15-3.66-2.59-6.39C280.41,987.63,282.78,991.6,284.54,996.24Z"/><path class="cls-76" d="M275.66,974c-.31.46-.47,1-.83,1.19-.78.4-2,.24-2.16-.42-.58-3.12-3.19-4.54-5-6.64-.7-.8-1.39-2.15-.13-3,1-.65,1.86.36,2.42,1.09C271.9,968.79,273.74,971.39,275.66,974Z"/><path class="cls-77" d="M250.15,953.8c0-.3-.05-.6-.08-.9.63-.49,1.23-1,1.89-1.47,1.1-.75,1.91-3.47,3.58-1,.77,1.13,3.33,2.73.92,4.39-1.54,1.07-3.62,3.21-5.59.27C250.6,954.65,250.39,954.22,250.15,953.8Z"/><path class="cls-69" d="M273.81,986.32c-1.75-1.68-5-2.34-4-5.89C271.91,981.87,274,983.35,273.81,986.32Z"/><path class="cls-73" d="M282.6,1025.6a8.71,8.71,0,0,0,6.8,2.22c.21.59.76,1.5.56,1.73-2.45,2.71-4.25-.85-6.54-.85C281.83,1028.7,281,1027.17,282.6,1025.6Z"/><path class="cls-78" d="M267.82,1019.75c1.64,1.69,4,2,5.94,3.06-2.66,3.33-4.32-.59-6.4-1C265.93,1021.43,266.07,1020.11,267.82,1019.75Z"/><path class="cls-79" d="M452.1,1040.43c2.3.37,3.32,3.17,5.86,3.07,1.23-.38,1.87,1.87,3.43.63,1-.79,2.79-1.13,3.09.62.28,1.59-.78,3.83-2.5,3.52-2.78-.5-6.56.57-7.91-3.37-.36-1.07-.91-1.24-1.77-.8-1.22.62-2.87,2.26-3.42-.1C448.48,1042.27,450,1040.7,452.1,1040.43Z"/><path class="cls-80" d="M519.09,973.54c1.47,3.69.4,8.54,4.94,10.82a2.81,2.81,0,0,1-1.13.89c-6.2.4-6.6-.06-6.42-5.79.06-1.92-.63-3.86.19-5.77a8.76,8.76,0,0,0-.49,4c.19,4-.88,5-4.74,4.35A15.09,15.09,0,0,1,504,978.6a15.85,15.85,0,0,0-11.62-4.07c-.13-5.51,3.71-9.6,5.23-14.51,3.5.08,1.37,4,3.53,5.22.46.25,0,1.88,1,2.52,1.06.23,1.67.74,1.19,1.93,0,1.47.05,2.94.15,4.4s1.3,1.72,2.36,2.13c1.17-3.76,5.54-2.61,7.62-5,.88-1,.15-3.38,2.33-3.13,2,.21,2.4,1.89,2.56,3.64A6.35,6.35,0,0,0,519.09,973.54Z"/><path class="cls-81" d="M503.28,969.69c-.4-.64-.8-1.28-1.19-1.93a63,63,0,0,1,1.49-6.42c.78-2.27,2.25-3.4,4.56-1.53,1.82.69,2.19,2.49,3,3.93,1.45,3-1.26,4-2.8,5.07-.77.54-.17-1.57-.83-2.24C505.62,966.94,506.69,971.4,503.28,969.69Z"/><path class="cls-82" d="M539.08,969c-.08,1.11-.83,1.4-1.67,1.43-1.51.07-3.08.06-3.48-1.85-.21-1,.41-1.71,1.38-1.42C536.64,967.54,538.29,967.49,539.08,969Z"/><path class="cls-67" d="M206.63,977.66c-1.14,3.51,2.07,4.44,3.89,5.43,2.18,1.18,2.3,2.72,2.83,4.95-3.45-.64-3.82-5.57-7.63-4.61a21.38,21.38,0,0,0-5.32-7.83c-.87-.76-2.24-1.69-.57-3.05.87-.19,1.25-2.38,2.57-.63C203.83,973.82,205.22,975.75,206.63,977.66Z"/><path class="cls-83" d="M326,1022.82a28.29,28.29,0,0,1,6.19.59c6.19,1.75,6.5,2.4,2.58,7.28a5.65,5.65,0,0,1-3.93,1c.49-1,1.51-2.43.13-3-4.82-2-8.15-7.12-14.08-6.77a2.68,2.68,0,0,1-.49,0c-3.64-.56-7.8-.16-9.18-4.94a2.43,2.43,0,0,1,4.05-1.55c4.13,3.59,9.23,4.86,14.11,6.72C325.63,1022.18,325.78,1022.57,326,1022.82Z"/><path class="cls-84" d="M492.34,974.53c3.4-2.35,6.47-1,9.39,1,3.34,2.28,6.36,5.06,10.66,5.62,2.6.34,3.63,0,3.14-3.06-.39-2.47.13-5.08.25-7.63l1.3,0c0,2.67.51,5.46-.1,8-1.4,5.71,1.67,6.36,6,6,4.07,3.06,9.77,1.24,13.79,4.68,1.8,1.53,3,3,2.17,5.65,2.54-5.59,3.54-5.67,8.47-2.57,2.69,1.7,5.73,3.29,9.17,3,1.69-.13,3.31-.47,4.11,1.57.91,2.31-.71,3.25-2.67,4.4,2.06,1.94,4.51,3.39,5.43,6.18.49,1.46,2.07,1.39,3.39,1.45,1.79.08,3.62-.06,5.31.75,3.31,1.59,5.29,2.79,4.7,7.9-.53,4.72-4.28,8.49-3.06,13.36a8.56,8.56,0,0,1,.3,1.31c-.6,3.56-1.92,7.16.69,10.52a1.58,1.58,0,0,1-.78,1.73c-1.11,2.25-2.71,3.54-5.42,3.17a7.35,7.35,0,0,0-5.19.9c-2.46-1.43-5.69.27-8-2.29-1.44-1.56-1.84,1.94-3.47,1.43-.76-1.59.49-3.64-1.14-5-2.5-1.34-2.25-4.47-4.14-6.26-1.21-1.14-2.32-2.58-4.08-1.9s-.7,2.52-.79,3.85,1.33,2.71.13,4.13c-1,1.33-2.06-.09-3.07.14-.66-3.56-5.88-3.63-5.9-7.68-1.38-1.24-1.79-2.92-2.17-4.63-.19-1.19-.54-2.38,0-3.57,3.32-1.08,4-3,2.32-6.14-1.12-2.15-2.35-4.27-3.24-6.5.26-.66-1-.2-.35-.23.23,0,.19.11.14.41-.61,3.34-2.63,2.83-4.67,1.59a17,17,0,0,1-4.49-4.43c-2.85-3.13-5.91-.82-8.9-.33-6.46,2.73-12,6.5-15.46,12.88-.66,1.23-1.33,2.79-3.3,2.08l-4.8-.86c-1.24-.21-2.18-.47-1.7,1.59s-1.08.66-1.7.59c-3.79-.43-7.22-.75-10.86-3.24-5.27-3.59-12.41-2.84-18.61-4.58-1.08-.3-4.18-6.12-3.49-6.8,1.12-1.11,2.32-.47,3.59.07,3.78,1.62,7.64,2.52,11.58.4a9.31,9.31,0,0,0,8.85-2.88c6.31-7,13.75-13.37,12.78-24.58C488.14,982.1,491,978.25,492.34,974.53Z"/><path class="cls-84" d="M610.73,1011.06l1.94,0a44.44,44.44,0,0,1,3.59,9.58c.52-.83,1.2-2.68,2.88-2,2,.83,4.08.69,6.14.89a2.5,2.5,0,0,1,2.57,2.43,2.13,2.13,0,0,1-2.2,2.17,4,4,0,0,0-4.09,2.74,90.86,90.86,0,0,1-26.73,14.77,54.25,54.25,0,0,1-12.24,3.17c-3.85.41-4.72-.86-4.38-4.15a6.69,6.69,0,0,1-2-4.69c-.06-.81,0-1.64,0-2.46-.07-5.43.59-6.18,5.92-6.94,2-.29,4.35.19,3.51-3.53-.59-2.64,3.21-4.53,7.84-4.66,3.62-.11,3.17,2.28,2.87,4.61,1.87-.31,3.36-1,5-1.4,4.09-.94,8.1-2,7.61-7.67C608.8,1012.69,609.86,1011.83,610.73,1011.06Z"/><path class="cls-85" d="M621.56,1026.81c-.06-2.22-.21-4.56,3.21-3.74,1.08.26,2.25.23,2.24-1a2,2,0,0,0-2.79-1.8c-2,1.26-3.24,1.33-4.8-.69-.8-1-1.57.1-1.93,1.13-.45,1.32-1.24,2.27-3,1.76,1.66-4.2-2.92-7.38-1.83-11.51.13-2,1.29-2.68,3.17-3,3.33-.54,6.81-.84,9.62-3,1.31-1,2,.24,3,.31,3.18.22,5.95,2.35,9.54,1.17,3-1,3.86,1.56,2.24,6.4l-3.94,3.95a11.47,11.47,0,0,0-6.56,4.51C627.58,1024.46,624.65,1025.58,621.56,1026.81Z"/><path class="cls-86" d="M577.12,1035.77c.36,1.61.72,3.22,1.09,4.83-1.5,1.22-.75,3-1.12,4.5a1.89,1.89,0,0,1-2,1.67c-1.23-.2-.73-1.55-1-2.38,0-.6.09-1.2.14-1.8-1.35-3.56-.88-7.26-.81-10.92l-.11,0c-.07-.14-.2-.28-.21-.43,0-2.07-1.43-5.27,1.83-5.35,3-.07,1.71,3.14,1.82,5A33.46,33.46,0,0,0,577.12,1035.77Z"/><path class="cls-87" d="M492.8,1026c3.18-2.29,3.82-6.46,6.89-9a53.3,53.3,0,0,1,11.38-7.08c3.39-.15,6.74-.1,9.81,1.66a6.93,6.93,0,0,1,2.71,3.37c1,3.4,3,5.19,6.74,4.85a3.23,3.23,0,0,1,2.69.91c1.2,1.31,2.66,2.84,2,4.65s-2.54.75-3.92.83c-5.7-2.93-11.37-3.24-17.26-.36-3,1.45-5.84,3.65-9.53,2.85-1.68.33-1.17,1.68-1.11,2.66.26,4.2-2,6.34-5.75,7.43-1.11-1.35-2-3-3.38-4C490.14,1032.22,490.76,1029.26,492.8,1026Z"/><path class="cls-88" d="M504.28,1028.68c4-1.84,8-3.67,12-5.53s12.12-.52,14.84,2.35a.75.75,0,0,1-.14,1.19c.3,1,.6,2.08.89,3.12-2.74,1.77-5.93,3-7.84,5.85.51,1.57,1.6,2.68-.1,4.71-3.17,3.78-5.77,1.7-8.66.17a3.27,3.27,0,0,1-1.25-2.3c-.28-2-1.34-3.23-3.48-3.27-1.75-.3-3.59.72-5.28-.34C503.53,1032.86,504.61,1030.66,504.28,1028.68Z"/><path class="cls-89" d="M537.78,1054.39c-1.9,10.18-13.2,13.85-21.23,7.13-3.7-3.1-7.51-6.08-11.28-9.11h7.87a8.09,8.09,0,0,1,4.09,1.53c7.24,4.43,8.59,4.39,14.69-.56C533.74,1054.46,536.07,1052.69,537.78,1054.39Z"/><path class="cls-90" d="M531.92,1053.37c-2.27,4.89-8.36,7-12.77,3.59-2-1.51-4.78-2.08-6-4.56a4.34,4.34,0,0,0,.12-.87c.49-1.34.78-3,2.83-1.61s4.31.95,6.48,1.4a5.31,5.31,0,0,0,6.36-2.81C531,1049.5,531.49,1051.4,531.92,1053.37Z"/><path class="cls-91" d="M505.21,1034.63c1.8-1.38,3.88-1.09,5.93-1,1.29,1.29,2.56,2.61,3.87,3.88l.21,3c-.37,5.23-5.36,4.51-8.24,6.64a9,9,0,0,1,2.36-5.52c1.23.5,1.81-.11,1.71-1.24-.14-1.73-1.19-2.33-2.85-1.8-1.73-.13-2.14,1.65-3.15,2.51C503,1038.71,503.54,1036.64,505.21,1034.63Z"/><path class="cls-89" d="M528.93,1048.51c.24,3.35-.41,5.52-4.64,4.28-3.22-1-7.21.93-9.73-2.65-.44.46-.87.92-1.3,1.39-.28-1.74.08-4,1.87-3.75C519.73,1048.28,524.42,1046.83,528.93,1048.51Z"/><path class="cls-92" d="M524,1035.66c.39-4.94,3.77-5.86,7.84-5.85l1.08,5a12.33,12.33,0,0,0-2.55,1.25C528,1038,526,1037.76,524,1035.66Z"/><path class="cls-93" d="M508.2,1038.62c1.4-1.79,2.86-1.6,3.69.31.58,1.36,1.33,3.28-.51,4.34-1.42.83-2-.26-2-1.61C510.66,1040,509.3,1039.37,508.2,1038.62Z"/><path class="cls-94" d="M541.87,1042.38l-1.19-4.67c-.43-1.7-2.65-3.92,0-5,2.29-.88,5.32-.64,6.77,2.25,1.23,2.45,2.2,5,3.29,7.55l-.29.06h-.29a1.07,1.07,0,0,1-1.6-.12,10.72,10.72,0,0,0-.57-2.28c-.93-1.93-2.21-4.27-4.6-3-2.1,1.15-.21,3.1.43,4.65.24.59.43,1.2.64,1.8a1.17,1.17,0,0,1-1.7-.11Z"/><path class="cls-95" d="M548.57,1042.49l1.6.12c.51,1.33,1.4,2.75-.49,3.7a1.74,1.74,0,0,1-2.21-.39C546.27,1044.33,547.13,1043.29,548.57,1042.49Z"/><path class="cls-96" d="M542.77,1043.59l1.7.11c.4,1.3.66,2.59-1.13,3a1.78,1.78,0,0,1-2.11-.72C540.33,1044.37,542.28,1044.42,542.77,1043.59Z"/><path class="cls-1" d="M234.2,255.08l-4.88,6c-2.56,1.46-3.58,4.16-5.13,6.42s-3.73,3.64-4.77,6.38c-2.58-3.78-1.3-9.73-7.25-10.73.09-4.64-4.36-7.8-4.39-12.13-.06-9.84-4.12-18.4-7.4-27.29-1.29-3.49-2.59-7.26-1.68-11.24.24-1.09,0-2.87,1.37-2.71,4.87.52,7.84-3.18,11.73-4.79.59-.24,1.46-.07,1.55.69.06.53-.58,1.1-.66,1.69s-4.5.23-.41,2.16c.88.42,3,4.91,2.81,6.39-.72,6.15,3.88,8.59,7.12,11.72,2.19,2.1,4.33,4.05,5.15,6.92,1.26,4.44,6.12,6.3,7.15,11.13C235.23,249.08,236.71,252,234.2,255.08Z"/><path class="cls-97" d="M246.16,298.53c-11.43-5.52-16-14.21-14.59-27.55a36,36,0,0,1,2.74-10.81l3.66-6a7.46,7.46,0,0,1,1,1.46,24.85,24.85,0,0,1-.86,18.28c-1.36,3-.57,4,2.74,4,4.06,0,8.12.6,12.18.95l.63.43c5.73,4.64,10.88,9.82,14.48,16.33,2.05,3.73,1.58,4.54-2.76,4.4C259,299.79,252.41,301.12,246.16,298.53Z"/><path class="cls-6" d="M252.94,278c9.72,1,18.18,4.42,25.29,11.54,5.75,5.75,11,12.22,18.25,16.94-2.82,0-5.64.05-8.46,0-.74,0-1.93-.23-2.14-.7-2.86-6.41-9.05-5-14.15-6.15-2.62-3.4-3.76-7.58-5.73-11.32a14.83,14.83,0,0,0-10.44-8,4.41,4.41,0,0,1-2.55-1.38l0,0A2.08,2.08,0,0,0,252.94,278Z"/><path class="cls-6" d="M166.11,215.78a63.5,63.5,0,0,1-4.57-20.92c-.27-5.75-2.62-10.77-4-16.12-2.36-8.79-6.77-17.15-5.81-26.66a3.38,3.38,0,0,1,.43-.92c2.44,0,2.64,2.23,3.26,3.7a208.23,208.23,0,0,1,8.55,25c.78,2.79-1.28,5.44-.84,8.51C164.37,197.47,165.14,206.64,166.11,215.78Z"/><path class="cls-6" d="M187.76,194.66c-4.94-5.63-6.88-11.67-6.32-18.44.11-1.39.73-3.64,2.83-3.39,1.86.23,2.28,1.4,2.29,3.78C186.58,182.34,188.32,188,187.76,194.66Z"/><path class="cls-1" d="M198.68,180.52l7.07,9.82a13.81,13.81,0,0,1-8.15-9Z"/><path class="cls-1" d="M175.55,193.62c.22.11.38.14.44.23,1.27,2,2,4.13.46,6.34-.45.66-1.6.45-1.55,0C175.13,198,173.3,195.57,175.55,193.62Z"/><path class="cls-6" d="M191.25,209.39c-1.53-1.33-2.95-2.67-2.33-5.15C191.65,205.48,190.46,207.92,191.25,209.39Z"/><path class="cls-1" d="M160.65,253.73c-1,2-1.74,3.3-3.45,3.24-.76,0-.94-.94-.71-1.53C157.16,253.7,158.49,253.26,160.65,253.73Z"/><path class="cls-1" d="M202.73,194.44c2.78-1.7,4.2-1.7,5.45-.26.5.57.41,1.6-.1,1.56A36.35,36.35,0,0,1,202.73,194.44Z"/><path class="cls-6" d="M177.38,181.8c-3.71.62-3.69-1.54-4.26-4Z"/><path class="cls-6" d="M188.55,201.69c-.6-1.29-2.08-2.36-.49-4.93.69,1.91,1.17,3.22,1.64,4.53Z"/><path class="cls-1" d="M115.08,289.68c-2.15-1.34-3.26-3.09-2.3-6.48a13.28,13.28,0,0,1,2.22,6.55Z"/><path class="cls-4" d="M180.71,238.12c2.14,20,11,39.29,6.16,60.07C186.13,278,179.6,258.49,180.71,238.12Z"/><path class="cls-4" d="M131.08,308.51c-2.69-.59-2.92,1.91-4.42,3,.12-2.37.22-4.26.32-6.31C129.34,305.17,128.63,308.3,131.08,308.51Z"/><path class="cls-4" d="M131.23,322.57c3.73.74,5.25,2.48,7,5.92C135.18,326.68,133.23,325.52,131.23,322.57Z"/><path class="cls-4" d="M161.6,270.2c-1.22-1.59-2.78-2.52-2.85-4.39,0-.62,1.07-.91,1.58-.54C161.85,266.34,162.77,267.72,161.6,270.2Z"/><path class="cls-4" d="M150.79,304l-1.87,5.52C147.37,306.74,145.6,304.58,150.79,304Z"/><path class="cls-4" d="M164.74,262.37a2.32,2.32,0,0,1,1.44,2.35C166,266.09,165,266,164,266c-1.34,0-1-.81-.77-1.62S163.22,262.28,164.74,262.37Z"/><path class="cls-4" d="M380,396.5c-2.1,1.35-3.65-.16-5.33-.32-1.32-.13-2.63-.22-3-1.76-.07-.28.46-1,.66-1,1.33.15,2.75-1.38,4,0C377.25,394.59,379.25,394.49,380,396.5Z"/><path d="M267.11,88.92l-.71-.19c-1.94-.7-3.95,2.4-5.81-.1-.16-.23.18-1.18.23-1.18,2.75.28,3.08-5,7.54-2.51,2.87,1.61,7.31.71,10.5,3.29,1.18,1,2.12,1.52.87,3-1.57,1.82-1.36-.65-2-1-2.15-1-2.44.6-3.2,1.83s-1.06,3.15-3.07,2.33a38.34,38.34,0,0,1-6-3.21C265.29,91.08,267.24,90.44,267.11,88.92Z"/><path class="cls-98" d="M253,278.86c8.58.48,14.14,4.81,16.64,13.52.69,2.39,3,4.34,2.08,7.19-8.58,1.1-17.17,2.34-25.57-1a87.3,87.3,0,0,0,22.82.63c-4.58-7.26-8.88-13.9-15.83-18.27C252,280.16,253,279.53,253,278.86Z"/><path class="cls-99" d="M326,1022.82c-5-1.24-9.93-2.53-13.93-6.18a3.4,3.4,0,0,0-4.85.28c-3.36-1.23-6.22-3-6.91-6.87,3.87-1.55,6.68-1,9.74,2.52,3.4,3.89,7.78,7.28,13.57,7.31C325.67,1019.89,325.94,1021.25,326,1022.82Z"/><path class="cls-99" d="M291.45,1009c2.73-4.67-2.72-3.91-3.94-6,3.46.42,7.24,0,8.24,4.93.41,2,3.51.18,4.55,2-1.8-.27-3,1.14-4.49,1.58C293.76,1012.23,291.94,1011.53,291.45,1009Z"/><path class="cls-66" d="M224.4,968.63a2.18,2.18,0,0,1,2-1,4.32,4.32,0,0,1,0,1c-.3,1.53.84,4.34-1.58,4.12C222.84,972.53,225.11,970,224.4,968.63Z"/><path class="cls-5" d="M246.05,985.53c1,1.93,3.54,3.08,3,5.81C247.07,989.94,245.21,988.45,246.05,985.53Z"/><path class="cls-100" d="M577.12,1035.77c-1.47-1.85-.71-4-.85-6-.08-1.25.24-3.08-1.35-3.17-2.16-.13-1.54,1.92-1.66,3.25-.06.63,0,1.28,0,1.92-1.69-2.59-2.25-5,.93-7,1.7-1.09,1-3,1-4.53a21.06,21.06,0,0,0-.13-2.86c-.21-1.7,2.44-3.75,1.26-4.22-2.43-1-4.2-3.31-7.21-3.14-3.29.18-7.37,1.31-7.73-4.3-.05-.8-1.49-1.8-2.49-2.18-1.5-.58-3-1.33-2.89-2.9.07-2.28,1.87-.84,3-1a1.31,1.31,0,0,0,1.19-1.76c-.26-.79-.44-2.35-1.76-1.75-4.84,2.19-8-1.46-11.48-3.38-4.23-2.32-5.46-2.16-7.08,2.51-.36,1-.23,2.72-1.82,2.2s-.61-1.67-.17-2.78c1-2.67-2.48-7.44-5.81-6.93-4,.6-6.44-1-9-3.28l1-.07a12.17,12.17,0,0,1,3.29.78c3.88,2.12,5.17,1,4.23-3.18-.22-1-.7-2,.73-2.32a2,2,0,0,1,2.52,1,20.34,20.34,0,0,1,1.82,5c.43,3,2.44,3.82,4.87,3.61,3.89-.33.21-3.19,1.52-4.62,3,0,4.13,2.25,4.43,4.75s1.55,2.84,3.51,3.19c2.22.4,2.32-1.11,2.85-2.49.38-1,.61-2.5,2.09-2.3,1.17.15,1.87,1.27,2.36,2.33s.79,2.15,1.27,3.18,1.07,1.86,2.19,1.59,1.19-1.27.94-2.36a21.85,21.85,0,0,1-.22-2.93c-.35-4,2.82-3.29,3.81-1.91,1.91,2.68,7.94,3.53,4.71,9-.25.42.86,1.63,1.33,2.48-.14,2.43,2.54,1.5,3.35,2.71.16,2-2.58.44-2.5,2.48a8,8,0,0,0,6.9.14c3.64-1.49,7.51-.7,11.25-1.2,2.14-.28,3.17,1.47,2.07,3.68-.5,1-1.2,1.93-1.77,2.92-.8,1.4.11,2.51.74,3.61.83,1.42,1.89.52,3,.31,5.13-1,10.28-1.86,15.42-2.78-.35,2.06-1.68,4.05-.74,6.19s-.6,2.2-1.83,3.06c-3.71,2.58-8.65,1.85-12.17,4.78-.5.41-1.26.59-1.68-.18a2.25,2.25,0,0,1,.32-2.72c.68-.73,1.59-1.47.86-2.47s-1.78-.09-2.67.08c-1.75.34-3.51.66-5.23,1.12-1.44.38-2,1.57-.83,2.52,4.2,3.46-.36,3.21-1.75,4.13a4.14,4.14,0,0,1-2.4.19c-4.28-.4-6.25,1.16-5.1,5.68A6.2,6.2,0,0,1,577.12,1035.77Z"/><path class="cls-101" d="M530.93,1026.69l.14-1.19c1.13-.33,3,1.3,3.3-.47.21-1.52-1-4.52-2.56-4-8.49,2.54-8.52-4.43-10.76-9a.63.63,0,0,1,.18-1c.84.78,1.64,1.59,2.52,2.32,1.32,1.09,2.41,3.55,4.35,2.31,2.26-1.44-.84-3-.61-5.54a25.35,25.35,0,0,1,8.12,14.7C536.29,1028.44,532.63,1026.2,530.93,1026.69Z"/><path class="cls-102" d="M521.23,1010.94l-.18,1c-3.46,0-6.69-1.18-10-2.07,2.36-1.61,5.25-.68,7.81-1.64C521,1007.49,520.91,1009.61,521.23,1010.94Z"/><path class="cls-51" d="M573.34,1031.67c-.17,3.67,2.63,7.13.81,10.92C569.36,1039.28,573,1035.35,573.34,1031.67Z"/><path class="cls-103" d="M547.52,1023c-1.07,0-2-.45-1.92-1.6s1.11-1.38,2.1-1.43,2,.15,1.84,1.46A1.78,1.78,0,0,1,547.52,1023Z"/><path class="cls-104" d="M515,1037.53c-2.12-.46-3.86-1.31-3.87-3.88C513.39,1034,515.05,1034.91,515,1037.53Z"/></svg>