<svg id="Layer_1" data-name="Layer 1" xmlns="http://www.w3.org/2000/svg" viewBox="0 0 685.65 1080"><defs><style>.cls-1{fill:#a7aaaa;}.cls-2{fill:#515151;}.cls-3{fill:#a9a9a9;}.cls-4{fill:#9c9390;}.cls-5{fill:#555;}.cls-6{fill:#939797;}.cls-7{fill:#919293;}.cls-8{fill:#827b72;}.cls-9{fill:#c6a8aa;}.cls-10{fill:#e7cec9;}.cls-11{fill:#010101;}.cls-12{fill:#545454;}.cls-13{fill:#a39f98;}.cls-14{fill:#666662;}.cls-15{fill:#c5918c;}.cls-16{fill:#5c5f5c;}.cls-17{fill:#bc9b9a;}.cls-18{fill:#535353;}.cls-19{fill:#777c7d;}.cls-20{fill:#ac9f97;}.cls-21{fill:#7d8282;}.cls-22{fill:#565656;}.cls-23{fill:#050505;}.cls-24{fill:#ab9d90;}.cls-25{fill:#969696;}.cls-26{fill:#938073;}.cls-27{fill:#a8a8a8;}.cls-28{fill:#040404;}.cls-29{fill:#c4a595;}.cls-30{fill:#8b8980;}.cls-31{fill:#443b33;}.cls-32{fill:#65605b;}.cls-33{fill:#262626;}.cls-34{fill:#0b0b0b;}.cls-35{fill:#726f69;}.cls-36{fill:#6d6d6d;}.cls-37{fill:#0a0a0a;}.cls-38{fill:#605a54;}.cls-39{fill:#5d5d5d;}.cls-40{fill:#101010;}.cls-41{fill:#665e59;}.cls-42{fill:#575757;}.cls-43{fill:#b89c92;}.cls-44{fill:#272727;}.cls-45{fill:#4e4e4e;}.cls-46{fill:#404040;}.cls-47{fill:#161616;}.cls-48{fill:#0d0d0d;}.cls-49{fill:#5a5a5a;}.cls-50{fill:#c3c3c4;}.cls-51{fill:#ece3e5;}.cls-52{fill:#eecab8;}.cls-53{fill:#dadad3;}.cls-54{fill:#97867a;}.cls-55{fill:#b4b5b6;}.cls-56{fill:#7d8181;}.cls-57{fill:#cacaca;}.cls-58{fill:#6b6b6b;}.cls-59{fill:#f4f4f4;}.cls-60{fill:#7a7a7a;}.cls-61{fill:#fbfbfb;}.cls-62{fill:#f9f9f9;}.cls-63{fill:#cfcccb;}.cls-64{fill:#d2c5bf;}.cls-65{fill:#dcdcd5;}.cls-66{fill:#d7b3ae;}.cls-67{fill:#bc9e99;}.cls-68{fill:#c1b1a9;}.cls-69{fill:#d0d2d0;}.cls-70{fill:#bdbcba;}.cls-71{fill:#b4b8b6;}.cls-72{fill:#6c6160;}.cls-73{fill:#959896;}.cls-74{fill:#b6b1ab;}.cls-75{fill:#b5a49d;}.cls-76{fill:#292821;}.cls-77{fill:#775d60;}.cls-78{fill:#978586;}.cls-79{fill:#e8d2c9;}.cls-80{fill:#303433;}.cls-81{fill:#e7dbd7;}.cls-82{fill:#b0b1b2;}.cls-83{fill:#eff1f0;}.cls-84{fill:#e4e4e3;}.cls-85{fill:#8c9290;}.cls-86{fill:#252323;}.cls-87{fill:#fde6d5;}.cls-88{fill:#d4ac9c;}.cls-89{fill:#ae6d69;}.cls-90{fill:#ba9f92;}.cls-91{fill:#ab8b7d;}.cls-92{fill:#403d3a;}.cls-93{fill:#879493;}.cls-94{fill:#4d575a;}.cls-95{fill:#424f4f;}.cls-96{fill:#fdfdfd;}.cls-97{fill:#a6a6a6;}.cls-98{fill:#adb2ae;}.cls-99{fill:#e1e2e1;}.cls-100{fill:#c8c0c4;}.cls-101{fill:#726a6d;}.cls-102{fill:#727e7a;}.cls-103{fill:#6d5045;}</style></defs><title>Artboard 7</title><path class="cls-1" d="M487.19,1080c-5.62-1.31-11.21-2.73-16.86-3.86a8.79,8.79,0,0,1-4.81-2.06,4.62,4.62,0,0,0-2.24-2.5c-5.08-3.12-6.16-6.91-3.55-12.64.72-1.57-.32-3.72,1.57-4.92,1.75-2.52,4-3.12,7.11-2.82,6.49.63,13-.52,19.56.33a4.91,4.91,0,0,0,3.55-1.44,9.62,9.62,0,0,1,2.79-1.89c2.35,1.27,4.57,3,7.54,2.22.09-1.25-1.56-1.8-1-3.07,1.65-1.25,3.24-.61,4.46.52,3.8,3.55,8.85,5.55,12,9.85,4,5.39,10.6,6.25,16.13,9,1,.49,1.37-1.34,2.29-1.9,4.41-2.68,8.33-5.77,8.17-11.71a3,3,0,0,1,1.26-2,5.53,5.53,0,0,1,2-.77c4-.88,8.08-1.27,12.09.17,2.54.82,4.81,1.75,7.85,1.4,2.56-.3,5,2.82,7,4.87,3.82,3.87,5.32,3.44,10.39,2.78,5.23-.69,10.27-3.52,15.77-2,1.09.36,2.43,1,3.29.24,3.43-2.83,7.45-1.37,11.12-1.47a9,9,0,0,0,7.26-3.68c2.22-2.66,4.57-4.26,7.55-1a2.08,2.08,0,0,1-.46,2c-3.18,3.56-7.68,4.9-11.86,6.46-7.35,2.76-15,4.74-22.41,7.29-5.42,1.87-11,1-16.55,1.55-22.82,2.16-45.67,4.2-68.58,5.39-5.84.31-11.61,1.93-18.18,3.08l3.67.94c-.57,1.54-2.55.35-3.1,1.74Z"/><path d="M437,989.31c-15.88-20.91-28.8-43.72-42.32-66.14C377.07,894,361,863.9,344.79,833.94c-9.59-17.71-16.42-36.73-24.89-55l-2.35-5.09c-4.74,11.18-9.52,21.43-11.07,32.86-2.81,20.83-11.73,39.78-18.55,59.37-4,11.59-8.15,23.15-12.43,34.65-3.16,8.52-4,17.54-5.74,26.33-1.27,6.37-4.35,11.5-7.26,16.92-3.45,2.58-7.52,1.87-11.36,1.92-12.35.17-23.69-4.21-35-8.36-2-.73-4.77-1.52-5-4.58.12-.47.49-1.08.32-1.41-4.25-8.21-.44-16,1.44-23.75,7.14-29.37,12.39-59,14.19-89.22,1.24-20.8,6.77-40.63,14.24-59.94,1.52-3.93,4-7.51,6.25-11.12,1.17-1.89,1.15-3-.79-4.39-3.22-2.22-6.23-4.73-10-7.67,4.67-.87,8.54-2,12.46-2.23,3.58-.25,3.49-1.72,2.53-4.35-2.7-7.4-3-15.95-10.27-21.12a2.59,2.59,0,0,1-.81-2.68c1.9-18.12-3.15-35.47-5.91-53.07a142,142,0,0,0-7.46-29.45,28.07,28.07,0,0,0-3.31-5.91c-4.88-7.08-11-9.74-19.9-8.9-13.87,1.33-27.83.79-41.77-.54-5.73-.55-10.1-3.48-15-5.62-1.79-.78-1.72-2.67-1.95-4.26-2.09-15-5.1-29.68-11-43.68-1.76-4.19-2-8.57-2.37-13-1.2-16-5.33-31.62-6.87-47.62-1.86-19.54-4.4-39-6.54-58.53a60.58,60.58,0,0,1,.1-7.85c2.7-2.09,2.47-5,2.33-8-.23-5-1.73-10,.45-14.89l5.92-7.82c.35-4.9.34-4.94-4.12-3.52-1.18.37-2.58-.45-3.57.74-7.48,10.85-3.86,23.54-5.8,35.31a64,64,0,0,0-.4,7.85c-1.21,1.06-1.17,2.11,0,3.17v7.67c-1.14,3-3.68,4.8-5.58,7.15-2,1.05-2.44,2.75-2.23,4.89.76,7.44,1.34,14.89,2.13,22.32.4,3.77,3.42,6.12,5.31,9.08-3.25,2.28-7,2.11-10.74,2.36-3.4.22-6.84-.38-10.18.66-9.33,1.6-18.78,2.14-28.2,2.83-4.4.29-8.84.11-13.19,1.08-1.62.36-3.19.43-2.25-2.08-1-10.15-4.72-18.92-14.41-23.39S16.66,460.86,9.08,453.58c-1.93-1.85-1.82-3.28-1-5.55a265.71,265.71,0,0,1,11.18-24.54,15.1,15.1,0,0,0,1.78-4c3.82-23.85,9.76-47.43,9.11-71.85-.15-5.41.18-10.86-.4-16.21-1.08-10,2.22-18.59,7.17-26.87,3.53-5.9,6.91-11.89,10.41-17.8,5.26-8.87,10.52-17.71,13.72-27.61a38.43,38.43,0,0,1,11.06-16.86c1.06-1.51,1.23-3.56,2.83-4.75,1.88-1.84,3.69-3.75,5.61-5.54,4.83-4.52,7.63-4.37,11.76.94,6.19,8,10.71,16.92,14.55,26.17,6.23,15,12.57,29.95,19.86,44.48a19.28,19.28,0,0,0,1.61,2.46c4.75,10.41,10.5,20.42,13,31.76,1.2,7.06,3.95,13.84,3.89,21.19,6.18-8.16,6.18-8.15,16.4-4.85a25.47,25.47,0,0,0,5.71,1.39c4,.8,7.78,2.53,11.56,4,15.68,6.19,31.82,10.85,48.1,15.1a91.12,91.12,0,0,1,20.77,8.56c3.51,2.87,8,4.24,11.24,7.56,3.86,6.13,6,13.06,8.86,19.62a36.46,36.46,0,0,0,13,15.58c8.89,6.17,18.58,11,27.85,16.52a95,95,0,0,1,13.42,9c2.46,1.55,4.1,4.91,8,3.24,4.52-2,6.12-4.29,4.69-9.2-1.28-4.39-1.18-7.59,3.61-9.41a3.6,3.6,0,0,0,2.12-2.56c.67-2.93,2.71-4.72,5-6.39a14.5,14.5,0,0,1,3.33-2.34,5.63,5.63,0,0,0,3.75-4.21c.95-5.12,2.42-10.14,2.39-15.43,0-2.72,1.43-4.9,4.25-3.34,3.65,2,7.81,2.22,11.43,4.05,3.42,2.36,6.89,1.65,10.38.2a10.94,10.94,0,0,0,4.15-1.88,28.36,28.36,0,0,0,2.46-2.32c3.88-5.47,4.22-12.09,5.94-18.26.84-3.32.58-6.69.61-10.05.09-1.58,0-3.16.25-4.73.44-2,.81-4,1.25-6.05.72-2.15,1.33-4.35,2.23-6.44,3.61-4.89,3.89-10.72,4.64-16.42.81-3.58,1.14-7.23,2.18-10.82,1.1-3.83-1.84-7-3.74-10.13-.92-1.54-3-2.82-1.46-5.08,2.4,1.72,4.55,4.1,7.22,5.07,15.89,5.76,26,18.28,36.58,30.38,9.71,11.15,19.55,22.09,32.48,29.8,4.24,2.53,8.12,5.26,13.31,5.68,13.16,1.05,24.55,7.74,36.76,11.86a36.89,36.89,0,0,1,14.62,8.69c4,4,8.87,6.69,13.7,9.47,1.37,2.28-.93,2.25-1.92,3-2.43,1.74-3.76,3.42-1.22,6.31,1.36,1.55,2,3.75,4,4.75,3.25,1.59,4.31,4.27,3.76,8.34,2-1.95,4-2.69,6.32-2.25s2.87,2.5,3.76,4.2c2.55,4.85,7,8.48,8.59,14,.62,2.19.19,3.21-1.47,4.22-2.94,7.23-6.27,14.23-11.08,20.47a34.61,34.61,0,0,1-4.05,4.16c-2,1.91-2.94.83-3.77-1.06-1.14-2.59-2.34-4.73-5.38-1.7-.5.5-1.45-.31-1.37-1.35a8.37,8.37,0,0,0,.39-1.93c.25-2-1.39-5.25,2.12-5.49,2.84-.19,6.06.54,5.93,4.77,0,.45.21.94,1,1.93-.68-3.91,1.92-5.26,3.9-7.25,2.92-2.94,4.05-6.74,5-10.91,1.22-5.32-1.3-9.27-2.64-13.74-.23-.76-.51-1.78-1.5-1.62-1.27.21-1.28,1.37-1.06,2.35a31.23,31.23,0,0,1,.39,13.16A15.86,15.86,0,0,1,562.9,463c-.91,1.85-2.06,3.87-4.34,3.08-2-.7-1.08-2.83-.68-4.33,1.08-4.15-.81-6.57-4.43-8.08.95,7.22-2.48,13.28-5.2,19.53-1.29-1.89-2.65-2.85-4.64-.7-.48.52-2.05,2.8-2.07-.43a37.48,37.48,0,0,1,4.13-13.72c1.48-3.07,1.59-6.74-1.44-9.46-1.63-1.46-1.49-3-.47-5.12-1.3,1.19-1.2,2.33-1.23,3.57,0,1.93-.88,3.16-3.1,2-14.38-2.34-28.93-3.81-42.87-8.41a17.49,17.49,0,0,0-7.27-.77c-18.14,1.8-36.06-1.16-54-3.09-6.74-.72-12.7-5.09-18.86-8.09-3.74-1.81-7.33-2.74-11.24-1.2-12.21,4.77-23-.21-33.79-4.92-2.69-1.17-5.23-2.71-7.83-4.08-5.1-2.69-5.24-2.72-6.26,2.67-1.83,9.64-5,19.05-5.23,29-.05,2,0,4,1.16,5.64,5.66,7.85,6.12,16.81,5.09,25.86a49.28,49.28,0,0,0,4.4,27.62c4.95,10.39,6.78,21.84,9.67,32.9,1.22,4.65-.08,9.56-1,14.13a45.84,45.84,0,0,0,4.05,29.9c2.6,5.37-1,13.33-6.46,15.45-7.61,2.95-7.58,2.93-3.94,10.33,2.24,4.55,4.82,9,6.46,13.77,3.51,10.24,8.51,19.44,16.4,27a9.39,9.39,0,0,1,2.76,5.08c2.13,10.27,4.86,20.43,6.49,30.77,1.2,7.62-1.05,15.36-1.06,23.06,0,12.07,0,24,5.61,35.42,11.77,23.94,22.6,48.32,30.75,73.79,2.43,7.6,7.51,13.78,11.64,20.44a306.16,306.16,0,0,1,17.63,31.74c7,15.08,16.32,28.37,30.21,38a10.38,10.38,0,0,1,4.28,5.78,18.44,18.44,0,0,0,1.57,3.59c5.37,9.59,7.88,19.08-.75,28.28-2.27,5.24-7.82,6.84-11.56,10.45-3.24,2-6.48,4-9,7a118.55,118.55,0,0,0-18.31,14,20.75,20.75,0,0,1-11.64,5.89C443.18,986.63,440.77,990.1,437,989.31Z"/><path d="M222.2,73.12a49.76,49.76,0,0,0,8.68-25c.28-4.95,1.71-9,5.43-12.54,5.9-5.64,10.77-12.48,18.22-16.31,6.72-3.45,10.58-9.58,15.08-15.12,2.52-3.1,5.33-3.43,9.05-3,11.36,1.35,22,4.25,31.49,11.06,2,1.47,4.31,3,7.2,2.61,1.66-.22,2.16,1.36,2.68,2.46a16.69,16.69,0,0,0,9.14,8.42c7.54,3.15,12.65,9.1,17.7,15.14a7.06,7.06,0,0,1,1.73,6.3c-2.34,12.33-1.22,23.95,6.36,34.63,3.35,4.72,2.82,5.67-2.71,6.59-4,.67-3.22,3-2.68,5.27.6,2.48-.07,3.46-2.52,3-3-.52-4.41,1-5.63,3.45-2.44,5-5.33,9.75-7.23,15-3.05-.63-.7-3.39-1.93-4.81-1.53.75-1.57,2.33-2,3.67-1.33,4.17-1.58,4.22-5,.65-.75,1.26.42,3.05-1.09,3.86s-2.72-.44-4.86-.48c5.17,4.41,5.48,11,9.92,15.13.56,3.79.3,7.15-4.2,8.46-1.08.31-1.32,1.37-1.42,2.37-1.06,10.94-7.31,18.7-15.12,25.82-9.09,8.28-18.25,16.27-30,20.59a5.56,5.56,0,0,1-3.9,1.72c-8.64-.38-17.14-1.56-23.75-7.74-10.25-9.58-19.6-20.31-23-34.08-2.61-10.56-4-21.8-1.16-32.83,1.28-4.88,4.85-8.54,7.8-12.38,3.47-4.51,3.24-9.06.83-13.29-3.41-6-5.37-13.26-12.71-16.27A1.37,1.37,0,0,1,222.2,73.12Z"/><path class="cls-2" d="M222.2,73.12c0,1.22.63,1.59,1.76,1.86a9.07,9.07,0,0,1,6.12,4.62c2.74,5.77,7.27,10.59,8.26,17.37a9.78,9.78,0,0,1-1.89,7.56c-3.14,4.81-8.21,8.76-8.78,14.77-.67,7.11-2.73,14.43.75,21.46a3,3,0,0,1,.47,1.36C227.7,159.86,240,170.51,250.29,182c7.39,8.25,17.67,9.49,28.25,8.43-1,3.61,2.71,5,3.58,7.75,0,4.6,2.94,7.93,4.89,11.7,1.4,4.06,5.32,5.21,8.51,7,9,5.12,17.48,11,26,16.79,5.14,8.38,11.19,16.14,16.37,24.49a56.87,56.87,0,0,1,3.31,6l4,7c2.08,1.28,2.58,3.42,2.61,5.56.13,8.77,3.12,17.1,3.69,26.28,1.62-3.68,1.3-7.1,1.48-10.45.07-1.44-.05-3.51,1.68-3.67s1.85,1.87,2.12,3.31c1,5.35-.38,10.45-1.7,15.52-.74,2.85-1.81,5.62-2.53,8.49-.33,1.28-.22,3.42-2.39,3a3.27,3.27,0,0,1-2.51-3.78c.55-2.66-.47-5.13-.31-7.64s-.68-4.93-.56-7.3c.39-7.36-3.77-13.65-4.34-20.88-.39-4.93-3.54-9.74-6.26-14.22-3.16-5.19-6.26-10.41-9.06-15.68,1.35,9.37,4.86,18.5,4.44,28.24a17.29,17.29,0,0,1-1.64,6.08c-2.43,5.72-2.82,12.25-2.37,18.66,2.38.21,3.09-3.35,5.43-1.8,2,1.32,1.21,3.54,1.49,5.43C336,316.8,336.94,327.42,338,338c.54,5.7,1.56,11.38,1.23,17.14-.08,1.49-.16,3.37-2,3.46-2.07.1-1.8-2-2-3.34-.71-5-2.43-9.95-2-15.09.34-4.55-4.1-6.3-5.28-10.16-2.69,3.35-3.69,7.66-7.6,10,4.17-1.21,5.29,1,6.88,4.31,2.69,5.59,4.22,11.56,6.5,17.39,1.84-.44,1.71-3.23,3.91-2.47,1.54.53,1.83,1.81,2.06,3.07,1.85,9.69,2.11,19.56,3.49,29.31.27,1.93-.43,3.94-3.12,1.53-1.4-1.26-3.37-1.73-3.82-4.05-2.66-13.81-10.82-24.79-18.65-35.93-2.92-4.16-6.3-8-9.17-12.18-.56-.82-1.1-1.81-2-2.13-6.19-2.16-7.6-7.54-8.77-13-.66-3-2.57-1.82-4.18-1.52-2.83.52-5.65,2.13-8.42-.15,3.68-4.34,8.93-4.24,13.79-4.21,10.23.07,19.62-3.25,29.11-6.29,1.38-.44,2.94-1.26,2.71-3.06-.26-2-2.1-1.69-3.52-1.82-.81-.08-1.63,0-2.45-.05-5.48-.25-6.67-1.57-6-7,.88-7.14,3-14.09,3.2-21.33.23-9.24.24-18.35-7.5-25.38-3.89-3.54-8.54-5.51-13.23-7.31-10.23-3.93-20.5-7.69-30-13.29-4-2.34-7.58-5.16-11.56-7.42-4.49-2.56-5.08-2.16-5.4,2.91-.22,3.27-.06,6.55-.19,9.83-.07,1.74.24,3.69-1.68,4.82-1.53-.26-1.71-1.6-1.62-2.63.77-8.37-1.6-15.82-5.08-23.41-2.62-5.73-8.49-8.13-11.17-13.43-.13-.25-.52-.18-.87-.05-6.25,2.48-8.21-3-10.49-6.39-6.13-9.2-13.6-17.22-21.12-25.17-2.25-2.38-5-5.95-9.64-2.83-2,1.34-4.38-.72-6-2.35a22.55,22.55,0,0,1-5.59-9c-.21,4.15,3.34,6,5.27,8.85.64.94,1.66,1.85.81,3.06s-2,.75-3.45.1c1.71,1.28,2.91,2.48,3.16,4.3.21,1.58-.09,3.06-1.71,3.7s-2.49-.46-3.28-1.54c-5-6.88-10.56-13.4-14-21.3a22.6,22.6,0,0,0-1.38-2.62c-4.34-7.29-7.36-7.43-12.84-.82-3.87,4.66-8.18,8.68-14.54,9.9a14.65,14.65,0,0,0-7.53,4.37c-3,3-5.46,6.51-9.57,8.3-2,.9-2.31,3.51-3.65,5.13A96.94,96.94,0,0,0,108,194.2c-2.4,4.2-5.9,6.8-9,10a7.37,7.37,0,0,0-2.42,6.17c.59,6-2.3,10.18-6.81,13.66-5.43,4.2-10.66,8.63-14.41,14.51-1.08,1.24-1.59,3-3.19,3.77-3.15-.54-3.07-3-2-4.78,4.4-7.55,5-16.36,8.5-24.27,2.62-5.94,6.88-10.22,10.69-15.05-.12-7.78,3.74-13.86,8.31-19.66,2-2.53,4.41-4.79,5.21-8.09,14-11.14,28.64-21.37,44.5-29.77a17.06,17.06,0,0,1,7.44-2c17.9-.86,35.31,2.15,52.52,6.68,3.6.94,6.72,1.31,7.59-3.65.63-3.61,4.57-6.25,3.18-10.51,0-.33-.12-.73,0-1,6.12-8.89,3.67-18.35,1.91-27.79-1.11-6-2.23-11.91-2.23-18a16.25,16.25,0,0,1,3.35-10.54C221.23,73.26,221.52,72.91,222.2,73.12Z"/><path class="cls-3" d="M285.1,324.06c3.36.55,6.39-.52,9.53-1.54,3.86-1.24,5,.07,3.83,4-.41,1.31.35,1.76.9,2.49.9,1.19,2.39,1.79,2,4a3.29,3.29,0,0,0,3.6,3.32c1.51,0,3,1.54,4.08,3.07,4.34,6.16,9.47,11.81,13.51,18.09,6.28,9.74,13.29,19.36,14.92,31.41.17,1.3-.69,3.73,2.51,1.94,1.5-.84,0,2.38,2.43,2.87A191.29,191.29,0,0,1,340,373.9c-.33-4-1.1-8-1.62-12-.13-1-.09-2.28-1.43-2-2.1.37-.13,1.29-.08,2,.11,1.43-1,2-1.94,2.44-1.39.64-1.45-.92-2-1.57-2.61-3.14-2.57-7.27-3.76-10.93-.32-1-.23-2.27-1.15-2.81-2.06-1.19-3-2.21-2.27-5,.46-1.94-1.5-4.25-4.49-2.76-1.37.69-3.39,1.54-4,.25-1.08-2.34,1.84-1.89,2.85-2.86,1.83-1.74,4.36-3.16,4.38-6.1,0-2.71,4.35-2.55,2.69-6.75,6.63,8.88,7.71,17.15,10.36,32.38.21-2.55.9-5.15.55-7.61-1.25-8.84-2.28-17.69-2.69-26.6-.32-7.09-3-14-2.11-21.17.06-.46-.55-1.2-1.05-1.5-.71-.42-1.38.33-1.42.83-.21,2.42-2.92,3.43-3.6,2.75a6.69,6.69,0,0,1-1.4-5.33c1.09-5,.19-10.43,2.67-15.2,4.57-8.77.43-17.25-1.16-25.71-.71-3.8-.38-7.68-1.79-11.38,4.6,3.87,6.15,9.61,9.59,14,4.22,5.42,5.74,12.09,9.14,17.87,1.18,2-.54,4.28.37,6.91.72,2.1,3.91,3,2.8,6.28a10.21,10.21,0,0,0,.48,7.67c1.77,3.53.08,7.58,2,11.34.88,1.75-3.3,4.91.72,7.51,1.94-9.75,7.08-18.82,3.52-29.34,0,1.73.05,3.46,0,5.19a24.23,24.23,0,0,1-.5,5.81c-.54,1.81-.12,4-2.49,5.8-1.43-3.68-1.06-7.54-2-11.07-2.07-7.89-1.6-16.19-4-24,3.65-4.94,5.4-1.5,7.69,1.5a30.3,30.3,0,0,1,4.06,6.47c-.32,3.83,2.84,6.16,4,9.34.22.86-.38,1.74.06,2.6.44-.56.6-1.36,1.4-1.62,3.6.55,6.21,3.34,9.64,4.26,3.45,1.13,6,3.57,8.77,5.77,3.24,4.25,6,8.82,9.5,12.92.77.9,1.23,2.47,2.73.07.91-1.45,2.59.6,3.09,1.87a13.1,13.1,0,0,0,4.85,5.85,9.51,9.51,0,0,1,3.43,8.76c-.38,3.68-.09,7.44-1,11.06-1.12,5.74-.56,12-4.93,16.75-2.16,5.39-7.69,5.37-11.77,7.6a20.69,20.69,0,0,0,7.66-2.35c.8-.41,2.15-1.42,2.27.74-.41,1.92-.83,3.83-1.24,5.75-1.71,3.2-5.75-.1-7.61,2.91,2.23,1.6,6.51-3.19,7.61,2.19-.43,3.55.16,7.19-1,10.67-.48,1.13-.5,2.53-2.52,2.18-4.75-.84-9.5-.35-14.29-.15a159.52,159.52,0,0,1-16.5-.1c-3.68-.23-5.53-2.31-4.94-6.09-.77,9,.76,18.17-.54,27.26-.25,1.71.57,4-1.7,4.64s-4.13-.54-5.56-2.32-1.76-4.75-4.69-5.27c-.31-.06-.4-1.07-.75-.29-.2.46,0,1.15-.21,1.72,5.16-.11,5,7.35,10.3,7.23.91,0,1.25,1.57,1,2.49-.6,2.05.15,4.26-.84,6.23-.85,1.77-1.64,3.6-4,3.89-.6-1.21.63-2.24.17-3.51.67,2.89-3.1,3.06-3.16,5.5-2.28,2.07-5.35,3.49-5.41,7.31A3,3,0,0,1,339,437c-5.52,1.32-4.75,4.36-3.26,8.63a8.43,8.43,0,0,1-6.83,10.89c-3.23.48-5-2.49-7.21-4.3,2.93-2.92,6.65-1.9,10.2-1.78,0-2.43-1.51-3.65-2.84-5.09-2.42-2.61-5.61-5.23-.81-8.68,1-.71.35-2.13,0-3.24-4.41-14.76-9.7-29.15-15.42-43.49C307,375.2,299.56,361.13,294,346.2c-2.65-7.1-7.51-13.39-10-20.73C283.87,324.62,284.17,324.08,285.1,324.06Z"/><path class="cls-3" d="M63.46,495.66l28.58-3c3.2-1,6.48-.46,9.71-.39,3.78.08,4.84,3,5.11,6.1.21,2.5.29,4.87,2.57,6.57,1.18.88,1,2.34.77,3.66-.74,4.75-.2,9.48.25,14.22.37,3.91.35,7.73-1.15,11.59s-3.34,5.93-7.53,5c-2-.47-2.62.24-2.67,2.19,0,1.37.08,3.1-2,3.41-.73-2.58.61-5.4-.94-7.89-2-1.82-.56-3.79-.25-5.71,1.09-2.67.72-5.47.51-8.28a44.8,44.8,0,0,0-2.71,13.22c-.09,2.14-1,3.69-1.9,5.42-1.51,3-3.26.62-4.92.32a2.9,2.9,0,0,0-1,.11c-1.1.17-2.52,1.9-3.21-.26a2.91,2.91,0,0,1,1.86-3.78c-3.8.16-5.55-1.55-5.88-6-.25-3.39,1.17-6.74,0-10.46.39,2.44,1,4.55-.53,6.46-1.81,2,.07,5-1.78,7-.37-.16-.51-.4-.43-.73,0,0,0-.06-.08-.09-.48.5-.46,1.2-.7,1.79-.79,1.93-2.1,3.88-4.24,3.07-1.75-.66-4.25-1.24-3.81-4.67s-2.7-6.48-2.52-10.15c-.41-2.64.5-5.44-.93-8a1.32,1.32,0,0,1-.63-1.15c.84-2,.4-4.18.66-5.21-1.75,4.42-4.27,9.67-6,15.23-.43,1.35-1.21,3-3,2.86-1.57-.08-2.49-1.43-3.22-2.76a8.69,8.69,0,0,1-1.3-5.16c.71-5.95.1-12.09,1.75-17.85a8.3,8.3,0,0,1,7.22-6.36C60.62,495.92,62.14,496.77,63.46,495.66Z"/><path class="cls-4" d="M260.51,1027.92c-21-6.3-42.36-11.49-63.17-18.51a3.19,3.19,0,0,1-.39-3.27c1.89-3.58,2-7.54,2.58-11.41.22-1.53.43-3,2.46-3,6.31,5,13.95,3,21,4,3,.13,4,3.88,7.13,3.58-.54-.89-2.11-1.14-2.39-2.45-.39-1.87.78-2.21,2.27-2.15,6.28,1.64,11.17,6.45,17.82,7.45,5,.75,6.18.07,6.3-4.9,0-2.33-1.17-4.84.75-7,3.29.55,3.07,3.44,3.79,5.7.49,4.22-1.41,8.41-.14,12.64,2.82,2.71,3.2,7.86,8.33,8.24a1.08,1.08,0,0,1,.77.54c2.71,4.08-1.29,6.52-2.41,9.64C264.26,1029.74,262.34,1028.91,260.51,1027.92Z"/><path class="cls-5" d="M211.09,933c16,9.09,33,13.2,51.41,11-.41,1-.77,1.93.1,2.85.09,2.09-1.32,1.27-2.18,1a9.57,9.57,0,0,0-7.56.95c-1.48,1.3-3.12,2.4-4.61,3.7a10.7,10.7,0,0,1-1.63,1.2c-4.1,1.82-7.11,5.6-11.88,6.34-2,.31-2.14,3-3.78,4.23-4.09,3-8.24,5.85-13.22,7.21a5.46,5.46,0,0,1-5.92-1.84c-2.83-3.34-6.39-6.13-8-10.4a30.3,30.3,0,0,1-1.93-5.11,4,4,0,0,1,0-1.37c.45-1.54,1.87-1.56,3.06-2,2.59-1,3.26-3.28,2.81-5.54-.57-2.81-2.94-1.66-4.79-1.48s-4.31,2.13-4.5-1.76c.77-.53,1.62-1.61,2.3-1.51C206.67,941.32,208.3,936.38,211.09,933Z"/><path class="cls-6" d="M629.12,1053.56c0-.72,0-1.45-.07-2.17.13-1.84,2.26-3.11,1.46-5.21a1.91,1.91,0,0,1,.78-1.08c6.88-1.49,13.74-4.79,15.09-11.48,1.18-5.88,5-9.67,6.93-14.67,1.79-4.5,2.69-8.85-1.28-12.75a5,5,0,0,1,1.75-3c1.05-1.81,3.12-3.68-1.12-4.41-1.25-.21-1.51-2.39-2.31-3.63-1.68-2.61-3.64-3.54-6.57-1.79-4.46,2.67-9,4.45-14.3,1.87a7.94,7.94,0,0,0-7.42.3c-2.92,1.52-6.45.78-9.7.29-2.16-.33-3.87-1.77-3.44-4,.8-4.15-1.58-4.17-4.5-4.27-5.55-.19-11.15-.23-16.38-2.57a3.74,3.74,0,0,0-1.85.47c-1.65,1-3.35,2.34-5.23.63-1.63-1.49-2.57-3.3-1.43-5.58,3.06-1.1,6,.11,8.93.57,2,.31,4,1.5,6.08.48,5.58,1.19,11.41,0,16.92,1.77,4.28,1.81,8.81.55,13.22.95,8.3.74,16.6,1.56,24.87,2.52,5.53.64,10,3.65,11.46,9.69a17.06,17.06,0,0,0,1.55,6.1,11.25,11.25,0,0,1,.78,8c-.28,1.31,2.9,3.53,2.82,6.22a12.63,12.63,0,0,1-3.95,9.13c-4.42,4.26-8.42,8.93-12.51,13.52a3,3,0,0,0-.72,2.28C642.54,1046,636.93,1051.6,629.12,1053.56Z"/><path class="cls-7" d="M338.49,1045.59c-14.8,7.9-29.93,6.08-45.1,1.36-3.38-1-7.12-1.2-10.05-3.56.73-5,.77-5,7.48-3.39.92.23,1.71,1,2.88.73,1-1.24-1.85-2.41-.19-3.7,1.83-1.43,2.94.35,4.64,1.18-2.68-4.86,3.14-4.27,3.9-6.91,1.45-.75,2.82-1.68,4.51-1.81a16.12,16.12,0,0,0,12.06,2.33,73.42,73.42,0,0,1,16-1.07c5.52,1.71,6.35,4.85,2.43,9.29-.19.21.07.21.1.23C339.45,1041.6,338.32,1043.75,338.49,1045.59Z"/><path class="cls-5" d="M97.12,545c1.21-1.22.67-2.78.75-4.2s0-2.6,0-3.83c2-.86,2.46,2.45,4.35,1.29,1.44-.89,4.09.94,4.27-.42.44-3.38,3.45-5.71,3-9.42-.58-5.32-.4-10.73-1-16.06a20.47,20.47,0,0,1,.39-4.21c.06-.73,1.17-1.87.29-2.12-4.76-1.32-3.08-5.15-3.54-8.22-.51-3.52-2.46-5.46-6.31-5.16-2.44.19-4.9,0-7.36,0a1.92,1.92,0,0,1,2.08-1c6.39.48,12.68-.74,19-1,.78,1,1.56,2.07,2.35,3.1.64,2.21-.22,4.71,1.27,6.77,1,1.21.9,2.62.72,4-1,3.91.4,7.8.11,11.71a40.82,40.82,0,0,0-4.08,19.86c-.55,7.69-2.4,15.16-3.79,22.71-1.12,6.11-4,8.13-9.36,6.76-3.37-3.2-3.6-7.24-3.31-11.53C97.26,551.11,97.11,548.06,97.12,545Z"/><path class="cls-8" d="M251.79,948.08c3.35-2.67,7.07-2,10.81-1.22,1.75,1.61,3,3.91,5.81,4,1.48-.27,1.26.6.65,1.22-1.26,1.25-3.15,1.57-4.64,3,2.56.08,5.46-1.47,7,1.72,5.88,7.62,12.06,15,17.54,22.93,3.84,5.52,10.43,6.47,15.06,10.49-1,1.17-2.08,1.07-3.38.56,1.76,1.08,4.46,1.35,3.92,4.49-.21,1.15,1,1.5,1.89,1.88a16.37,16.37,0,0,1,7.49,5.19c1.25,1.68,3.21,1.24,4.88,1.71,3.07.87,6.64,1.41,6,6-6.95-.81-14-1.64-20.29-4.77-5.15-2.56-10.33-5.29-14.62-9.31-.74-.34-1.57-.81-1.73-1.55-1-4.33-4.22-6-8-7.2a6.15,6.15,0,0,1-1.41-1.56,17.33,17.33,0,0,0-3.78-5.63,8.11,8.11,0,0,1-.72-1.2c-1.54-2.88-3.2-5.68-4.92-8.45a8.13,8.13,0,0,0-5.69-4.2c-6.16-1.08-9.61-6.49-8.58-13.08,1.38-1.4,2.26.55,3.44.52a2.73,2.73,0,0,0,2.5-1.13,1,1,0,0,0-.19-1.31,1.9,1.9,0,0,0-2.62.1,5.05,5.05,0,0,1-2.65,1.08C251,953.86,253.21,949.4,251.79,948.08Z"/><path class="cls-9" d="M301.85,1031.83c1.25,2.38-1,2.26-2.1,2.73s-1.61.72-1.61,2,4.36-.59,1.41,2.14c-1.73,1.6-2.91,0-4.14-1.08a5.31,5.31,0,0,0-1.55-.49c-.29,2.18,2.5,2.15,2.37,4.08-1.92.51-3.82,2.54-5.86-.08-.26-.33-.36-.79-1.05-.42-2.68,1.44-2.7,1.41-3.65-1.41l-2.33,4.1c-7.93-4.67-17.3-7.24-22.83-15.47,3.1.17,7.72-6.44,6.66-9.44-.16-.46-.16-1.07-.74-.77-4.32,2.24-4.44-1.12-5.07-3.77-.52-2.21-4.63-1.65-3.76-4.91a3.27,3.27,0,0,1,3.26.26c3.47,1.8,6,5.27,10.43,5.46,1.3,0,2.07,1.92,2.4,3.41.39,3.74,3.13,3.38,5.72,3.25a9.56,9.56,0,0,1,9.09,2.89c2.43,3.73,4,4.1,7.34,1.71,2.8-.55,5.38-.36,7.27,2.14,0,.49-.22,1.09-.65,1.09C298.56,1029.28,302.13,1031,301.85,1031.83Z"/><path class="cls-10" d="M492,1050.64c-.36,2.5-2.72,2.64-4.09,2.36-7.33-1.46-14.73.31-22-.71-2-.28-1.8,0-1.79,1.81,0,2.11-1.64.3-2.54.4s-1.39-1-2.09-1c-6.53-.14-9-4.51-10.59-9.91.95-8.78.15-17.21-5-24.78-.32-3.18-.68-6.34-3.17-8.73l-2.7-14c3.46-1.72,6.36-.93,8.7,2a7.17,7.17,0,0,0,4.33,3c3,.94,6,1.85,8.32,4,1.42,2.5,5.62,1.41,6.3,4.87-2.34,1.9-4.71.27-7.07,0-1.14-.12-2.16-.86-3.33-.81a5,5,0,0,0-4.18,2.25c-1,1.69.66,2.63,1.54,3.72a16.75,16.75,0,0,0,3.37,2.85c1.2.88,2,2.73,1.11,3.36-2.9,2-.74,4.79-1.49,6.94-1.5,4.27-.14,7.63,2.27,10.92.73.8-4,2.77.63,2.79,1.77,0,2.31,2.21,4,2.66s3.2,1.85,5.67.1c-2.18-.45-4.42-.36-4.89-2.7,2.32-2.94,5.32-2.22,7.89-.9,2.8,1.43,1.65,4.19.59,7.36,6.36-1.83,12.35,2.44,18.05-1.45A3.33,3.33,0,0,1,492,1050.64Z"/><path class="cls-11" d="M221.12,73.87c.28,3.9-2.29,7.12-2.15,11.21a110.33,110.33,0,0,0,3.73,25.79c2.42,8.64-.75,14.1-4.65,20.31-10.07-6-11.28-7.31-5.74-18.33,4-7.9,1.48-14.43-.29-21.47-.82-3.28-4.36-4.7-6.68-6.94-1.42-1.38-2.61-2.75-1.76-4.58s1.49-3.54,4.07-4.15C212.11,74.66,216.5,73.58,221.12,73.87Z"/><path class="cls-12" d="M576,457.45c-.5-1.13,1.59-1,.94-2.73-2.47-6.72-7.92-11.6-10.75-18.11-.76-1.74-3.58-.69-5.2.35-1,.66-1.5,2.12-3.4,2.4,1.36-4.95-.19-8.51-4.82-10.65-2.74-1.26-3.66-4.5-4.84-6.65s2-5.06,5-5.81c1.11-.28,1.22-.54,1.24-1.36A29,29,0,0,1,567,424.17c3.26,5.94,7.09,11.4,12.79,15.3l4.67,9c-.55,3,1,5.32,2.32,7.74a1.72,1.72,0,0,1,.77,2c-.81,1.62.35,3.2.06,4.82-.43,2.37-1.15,4.24-4.16,3C580.45,463.73,580.3,458.82,576,457.45Z"/><path class="cls-13" d="M525.62,950.93c2.54-2.15,5.73-2.92,8.74-4.07,1.88.34,5.81-2,4.09,3.09a12.61,12.61,0,0,1-5.09,2.77c-.92-.12-2.1-.19-2.2.92-.14,1.48,1.12,1.47,2.23,1.36,3.7-.34,7.1,1.6,11.34.87-4.24,4.08-9.75,1.94-14.7,5.32a102.12,102.12,0,0,1,28.27,11.19c.32,2.15,4.33.38,3.74,3.51-2.4,1.35-4.38,3.59-7.22,4-1.79.26-4.13,1.2-5.19-1.31-.87-2-.31-3.87.76-4.47-2.09,2.3-5.55,1.49-9,.44-1.71-.52-3.4-1.65-5.17-.53-4.3,2.7-8.15.87-12.05-1-1.19-.95-1.28-2.59-2.71-4.1-1.27,4.39-5.93,3.77-8.61,6.43-1.9,1.88-3.92.19-4.79-2.08a5.5,5.5,0,0,1,.21-4.26c2.39-.77,2.46-5.51,6.53-3.74.59.26.89-1.78.91-2.89,0-1.3-.2-2.95,1.2-3.47s1.34,1.51,2.22,2.08c1.8,1.18,2.8,3.2,4.62,4.34.68.43,1.52,1,2.22.41,1-.86.18-1.79-.29-2.62-.95-1.67-2.54-1.68-4.24-1.81-3.08-.23-3.8-1.65-1.53-4.05A52.25,52.25,0,0,0,525.62,950.93Z"/><path class="cls-5" d="M458.62,1006.12l-7.87-4c-2.27-2.78-.88-6.33-2-9.42-1.68-4.75-2.67-5.22-6.92-2.39-1.43.95-2.6,2.65-4.73,1.81l-.13-2.82c4.33-2.35,9-3.78,13.59-5.51,7-2.66,11.4-9.18,17.48-13.34a38.17,38.17,0,0,1,8.29-4.76c.43,2.68-1.75,3.57-3.36,4.84-4.88,3.82-5.76,5-3.45,10.64s.79,10.93,1.27,16.36c.19,2.17-1.34,2.28-2.92,2.22-3.44-.14-6.18.2-5.78,4.93C462.29,1006.83,460.46,1007.22,458.62,1006.12Z"/><path class="cls-14" d="M324.59,1010c-.16-2.57-2.13-4.36-4-4.28-5.37.23-8.41-3.27-11.89-6.23a5,5,0,0,0-3.07-1.32c-2.41-.14-4.51-.34-2.12-3.64,1.64-2.27-1.25-.61-1.49-1.32-.68-2.07-3-1.48-4.53-2.74,2.31-1.81,4.53.61,6.58-.24,8.86,4.82,17.83,9.39,27.12,13.34,9,3.84,15.18,11.32,21,18.67,4.5,5.65,1.76,14.3-4.95,19.29-2.75,0-2.52-1.57-2.11-3.55.68-3.35,1.45-6.82-2.07-9.27-.3-2.67,3.77-3.66,2.72-6.35-1-2.45-4.21-2-6-3.74-3.24-3.19-7.81-3.77-11.84-5.41C326.4,1012.62,324.2,1012.69,324.59,1010Z"/><path class="cls-5" d="M63.46,495.66c-.85,1.48-2.31.83-3.54,1-3.59.46-5,5.55-6.47,7.85-2.91,4.66-.11,9.26-1.72,13.66-1.36,3.7.2,6.88,3.48,10.15,3-7.74,5.8-15,9-23.31-.52,4.06,2.71,7.13-.53,10.52-2.35,2-2.85,4.83-3.4,7.64-3.35,5.7-6,11.55-4.08,18.45.57,2.1-.13,3.82-2.62,3.34-1.79-.34-4.62,1.7-5.15-2.36-1.6-12.45-5.05-24.81-1.54-37.43.88-3.17.13-6.58,1.66-9.6a16.87,16.87,0,0,0,1,1.43C54,494.5,58.79,495.73,63.46,495.66Z"/><path class="cls-12" d="M548.25,473.2c1.77-3.7.23-8.08,3.6-11.83,1.93-2.15.72-6.93-1.42-11.23,9.89,6.15,9.89,6.15,7.93,15.13,3.17-1,3.68-1.36,4.2-5.08.66-4.78,1.82-9.52-.88-14.28-1-1.69,1.06-3.6,2.82-4.27s2,1,2.7,2.38c1.15,2.16-.74,6.15,3.61,6.51a2,2,0,0,1,.11.93c-.87,7.46-1.32,15.06-7,20.91-1,1-2.67,0-3.45,1.4,3.34,1.21,3.34,1.21-1.89,5.94.35-2.55-2.35-4.09-1-6.58a28.34,28.34,0,0,0-5.21-1.83c-.34-.06-1.29,2.48-.52,3.17,3.06,2.71-.79,2.41-1.36,3.5C549.34,476.53,548.27,475.1,548.25,473.2Z"/><path class="cls-15" d="M204.41,958.77c2,3.79,5.17,6.65,7.86,9.89-3.58,1.74-5-2-7.53-3.11-1,2.23.94,3.73,1.13,5.58.16,2.71,2.52,4,3.81,6a9.7,9.7,0,0,1,2,4.88,2.13,2.13,0,0,1-.7,1.15c-4.2-.24-5.81-4.06-8.51-6.33-1.43-1.2-2.4-3.07-3.72-5.22-1.44,7-.7,13,3.08,18.45.46.67,1,1.34.56,2.24-1.44.09-1.94.77-1.76,2.26.67,5.31-1.9,9.93-3.28,14.81-4.29-2.87-4.69-8-5.41-12.06a23.81,23.81,0,0,1,2.22-15.65,11.94,11.94,0,0,0,1.28-5.64c.33-9,.73-18,1.1-27a5.09,5.09,0,0,1,.78-3.27c2.42,2.24,4.4,4.75,5.06,8.09h0C203.58,955.31,201.9,957.91,204.41,958.77Z"/><path class="cls-5" d="M78.21,528.21c.72-2.37-.56-4.47-.88-6.7-.17-1.21.14-2.52,1.46-2.74,2-.34,1.38,1.42,1.37,2.34a22.42,22.42,0,0,1-.48,6.29c-1.85,6.51-.18,8.83,6.45,9.76.54.08,1,.64,2,1.26-2.72.22-5,.41-4.76,3.91,2.42-2.45,4.8-4,6.62.67,3.73-6.55,2.66-14,5-20.57.44-1.23.38-2.92,2.08-2.68,1.49.21,1,1.87.9,2.87-.22,2.89.85,5.89-.77,8.64-1.6-1.14-1-2.81-1-4-.65,10-2.64,20.07-4.56,30.16a6.44,6.44,0,0,1-2.37,4.15c-5,.89-7.23-.72-8.78-6.06C77.74,546.39,78.71,537.3,78.21,528.21Z"/><path class="cls-16" d="M659.7,997.16c-.32-3.52-6-9.8-9.43-9.72-11.24.28-22.2-2.42-33.38-2.76a8.2,8.2,0,0,0-4.62,1c-1,.58-1.72-.53-2.16-1.4a12.47,12.47,0,0,1,1.35-.92c9.27.3,18.54,0,27.82.82a86.46,86.46,0,0,1,18.43,4,87.12,87.12,0,0,1,12.09,11.13c4.72,5.3,5,16.89-1.11,19.93a2.55,2.55,0,0,1-1.42-2.88C669.29,1008.08,663.83,1002.89,659.7,997.16Z"/><path class="cls-5" d="M64.65,524.42c.21,4,5.39,6.38,3.23,11.22-.94,2.11,3.23.2,3.06,2.87,0,.74,1.59-.26,2.23-.88,1.37-1.31,1.86-3.17,2.73-5.61.27,1.6.4,2.39.53,3.18-.6,4.62-.48,9.34-2,13.84-2.3,1.59.13,4.22-1.34,6-8.24-1.48-8.46-1.48-8.71-9.65C64.19,538.41,64.55,531.41,64.65,524.42Z"/><path class="cls-17" d="M448.85,1043.63c1.64-.94,1.67,0,2,1.35.83,4,2.42,7.18,7.47,6.63,1.78-.19,2.78,1.23,3.25,2.89-.72,1.2-1,2.34.13,3.52a1.27,1.27,0,0,1-.06,2c-3.31,3.2-2.31,7.84,1.69,9.82,1.24.61,4.12,1.45,2.23,4.2-7.71-1.8-12.15-6.46-13.93-14.34C450.38,1054.4,447.74,1049.36,448.85,1043.63Z"/><path class="cls-5" d="M329.28,133.14c-3.64-.64-6-2.24-4.72-6.46a3.48,3.48,0,0,1,.52-.83c-5,1-2.58-4.95-4.66-5.31-4.29-.74-1.48-2.88-1.52-4.62,1.91.3,3.13,2.25,5.14,2.1,1.17-1.91-3.46-4,.11-5.32s2.44,2.9,4.43,4.18c.59-2.65.28-5.5,2.35-7.48.64-.61.69-2.13,2-1.65a2.1,2.1,0,0,1,1.32,2.82c-.6,1.56-1.39,3-.08,4.55C332.49,121.11,328.25,126.41,329.28,133.14Z"/><path class="cls-6" d="M668.47,1018.87c5.83-7.16,4.76-14.15-1.43-20.71-3.11-3.29-7.36-5.69-9.33-10.06,3.94,1.95,7.87,3.92,11.82,5.86a4.55,4.55,0,0,1,2.19,2.49c3.9,9,4.17,17.78-2.35,25.77-5.43,6.65-9.79,14.49-18.6,17.57-.91-2,.47-3.17,1.65-4.19a84.65,84.65,0,0,0,14.72-16.39A1.19,1.19,0,0,1,668.47,1018.87Z"/><path class="cls-18" d="M403.43,340c-.46-5.36,1.09-10.85-1.17-16.12-.28-.67-.17-1.88-.85-2.07-4.66-1.32-5.4-6-7.7-9.8-1,2.25,1,3.22.28,5.62-5.92-5.35-10.54-11-13.14-18.16l18.66,14.5c2,3.4,4,6.76,5.85,10.21,1.35,2.53,1.86,5.2-.16,7.67S405.81,337.65,403.43,340Z"/><path class="cls-19" d="M668.47,1018.87c-3.81,5.85-8,11.38-13.59,15.68a10.57,10.57,0,0,0-4.11,5.24,2.52,2.52,0,0,1-1.79,1.93c-1.94-1-.62-2.29-.05-3.26,2.8-4.72,8.82-6.91,10.14-12.82,4.43.27,4.94-3.55,5.48-6.21s2.6-7.09-3.44-7.09c-1,0-2-1.32-.44-1.87,3.54-1.27,2.33-3.29,1.43-5.6-1-2.51-1.62-5.13-2.4-7.71a4.9,4.9,0,0,1,4.21,3.4c1.33,3.67,4.26,6.47,5.29,10.48C670,1014,667,1016.16,668.47,1018.87Z"/><path class="cls-20" d="M271.44,956.85c-2.92-2.21-6.1,0-9.69-.09,1.88-3,3.62-4.87,6.69-5,.07,0,.19-.27.18-.4s-.14-.29-.21-.43c4.53-2.34,9.58-2.95,14.42-4.27,2.95-.82,3.8,1.79,5.38,3.23a41.09,41.09,0,0,0-16.2,3.48,22.63,22.63,0,0,1,4.25-.74A109.82,109.82,0,0,0,290,952c1.72,3.64.32,6.08-3.65,5.91C281.34,957.75,276.39,957.23,271.44,956.85Z"/><path class="cls-5" d="M539.43,449.33c1.52-.21,3-.3,2.18-2.64a7.51,7.51,0,0,1,.23-3.74,1.92,1.92,0,0,1,2.7-1.32c1.39.43,1.79,1.6.75,2.6-2.42,2.35-1.15,2.67,1,4.63,2.79,2.55,2.3,7.55.52,10.73-2.09,3.73-3.81,7.31-4.17,11.56,0,.33-.7.61-1.08.92Q540.49,460.7,539.43,449.33Z"/><path class="cls-21" d="M343.3,1028.77c3.6,1.34,5.21,5.16,3.15,9.46-.93,1.93-.68,2.51.8,3.34a35.66,35.66,0,0,1-8.76,4c-2.68-1,.73-5.37-3.51-5.4,1.32-1,3.75-1.45,3.55-1.56-3-1.6,1.5-6.56-3.23-7.12a1.62,1.62,0,0,1,1.08-1.51c1.22-.47,2.51-.74,3.75-1.16C341.18,1028.61,342.23,1028.06,343.3,1028.77Z"/><path class="cls-22" d="M485.22,958.8c3.29-4.07,8.32-6.08,11.86-9.86l7.86,1.1c2,.41,2.72,1.39,1.62,3.32s-2,3.94-3.1,5.86c-3.44,4.73-3.4,4.69-7.48.72-1.73-1.69-3.77-2.6-6.24-1.38C488.29,959.28,486.8,960.24,485.22,958.8Z"/><path class="cls-23" d="M100.36,565.66c6.36-.77,7.48-2.51,8.54-8.71,1.19-7,2.06-14.07,4.61-20.76,0,8,.08,16,.16,24,.06,5.46-4,6.24-8,7.5C103.12,568.46,101.32,568.51,100.36,565.66Z"/><path class="cls-24" d="M437.12,992.13c2.45-1.58,4.86-3.24,7.37-4.71,2.07-1.2,3.42-.81,4.47,1.73,1.74,4.24,1.89,8.56,1.79,13-1.3.08-2.8.19-3.43-1.13-1.92-4-5.27-5-9.3-4.84Z"/><path class="cls-25" d="M341.23,264.15c-5.16-5.36-8.35-12.13-12.82-18-1.94-2.55-3.68-5.26-5.58-7.84-1.05-1.42-2.44-2.68-1.28-4.68,1.8.94,3.7,1.74,5,3.38a17.71,17.71,0,0,0,5.87,6.41c1.58,1.71,3.4,3.26,4,5.67A26.15,26.15,0,0,1,340.2,259C340.63,260.72,341.75,262.27,341.23,264.15Z"/><path class="cls-26" d="M202.37,953.89c-1.38-2.89-5.05-4.34-5.06-8.09.27-1.3-.41-2.88,1.11-3.82,1,2.5,2.48.92,4,.68,2.44-.41,5.59-2.4,6.82,1.56a6.3,6.3,0,0,1-5,7.8C202.87,952.17,202.58,952.9,202.37,953.89Z"/><path class="cls-27" d="M102.82,170.44c2.59,3.5-1.26,5.15-2.58,6.79-5.08,6.32-9.74,12.69-10.94,21-.68-3.95.72-8.12-1.2-11.94A30.51,30.51,0,0,1,93,178.38,48.25,48.25,0,0,1,102.82,170.44Z"/><path class="cls-28" d="M89.16,561.52c2.86-12.08,5.3-24.26,6.21-36.72l1.35.09.42,6.37-1,5.87c-.91,7.45-3,14.73-2.1,22.42C94.57,564,90.82,560.82,89.16,561.52Z"/><path class="cls-29" d="M502.79,958.73c1-2,1.72-4.28,3-6.07s-.63-1.76-.9-2.62c2.71-.07,4.91,1.19,7,2.68,1.07,2.09,6.27,2.93,2,6.63-2.14,0-3.6.86-4.07,3.18a7.55,7.55,0,0,1-1.9,4.3c-3.92-1.14-3-5.28-4.76-7.73Z"/><path class="cls-30" d="M513.71,958.83c1.85-1.47.67-2.59-.31-3.91-.5-.69-2.54-.49-1.44-2.2l6,1.95c.19,1.7,3,1.13,2.77,3.22-.43.61-1.3,1.33-1.19,1.83.19.89,1.19.94,2,.58,4.59-2,4.85,2.32,6.51,4.5.71.94,0,1.81-.67,2.56s-1.49.67-2.53.18c-3.53-1.65-5.44-4.87-7.91-8-.09,1.3-.15,2.26-.21,3.22C514.4,962.47,513.88,960.79,513.71,958.83Z"/><path class="cls-5" d="M121.48,403.87c.36,5.53.9,11.05,1,16.58.07,2.67,1,6.36-3.81,6.27-.08-5.2,0-10.4-.3-15.59C118.26,408.11,119.06,405.7,121.48,403.87Z"/><path class="cls-31" d="M290,952c-2.34,2.6-5.49,1.52-8.3,1.69a102.87,102.87,0,0,1-12-.16c6.09-1.88,11.4-7.51,18.59-3.72Z"/><path class="cls-32" d="M562.34,975.27c-4-1.38-4-1.38-4-2.89,11.64,4.77,24.16,6.11,36.24,9.18-5.1,2.25-9.85-1.16-14.82-.9C573.49,980.27,567.11,980.37,562.34,975.27Z"/><path class="cls-23" d="M579.83,439.47a1.23,1.23,0,0,1-1.57.76c-3.54-1.35-11.13-12.24-11.22-16.06C571.87,428.79,577.74,432.55,579.83,439.47Z"/><path class="cls-33" d="M360.09,288.53c-1.49-3-4.6-5.46-3.15-9.44,2.44,7.57,9.95,9.87,15.14,14.58A33.74,33.74,0,0,1,362,289.73,2.07,2.07,0,0,1,360.09,288.53Z"/><path class="cls-34" d="M583.49,466.14c2.14-.1,3.13-1.17,3.22-3.37.06-1.5-.73-3.26.88-4.49.72,4.5,4.66,9.06-.5,13.69Z"/><path class="cls-35" d="M538.45,950c.34-3.27-2.72-2.07-4.09-3.09a25.81,25.81,0,0,1,12.37-3.14C543.76,946.65,541.41,948.68,538.45,950Z"/><path class="cls-36" d="M119.71,393.27c1.69-1.8,4.31-1.69,6.27-3.37s3.15,1.05,3,2.48c-.08,1.09,0,2.94-1.62,3.67C126.18,391.4,122.67,393.1,119.71,393.27Z"/><path class="cls-37" d="M287,209.83c-3.2-3.24-7-6.22-4.89-11.7C284.28,201.81,286.27,205.56,287,209.83Z"/><path class="cls-38" d="M520.72,957.89a21.25,21.25,0,0,1-3.5-2.14c-1.2-1.09.62-.61.73-1.08,3.36.41,5-2.73,7.67-3.74A12.43,12.43,0,0,1,520.72,957.89Z"/><path class="cls-39" d="M107.93,454.42c.55-3.41,3.34-5.06,5.58-7.15C114.67,452,111.26,453.18,107.93,454.42Z"/><path class="cls-40" d="M60.31,523.16c-1.58-3.34.83-5.79,2-8.47.21-.48,1,.31,1.4.83a1.22,1.22,0,0,0,0,.94Z"/><path class="cls-41" d="M533.39,955c-1.39,1.22-3,1.5-4.27.14-.33-.35.26-1.84.73-2.62,1.2-2,2.39-.82,3.51.2C532.32,953.49,531.93,954.25,533.39,955Z"/><path class="cls-42" d="M93,178.38c-1.25,2.87-2.17,6-4.94,7.87C87.23,182,90.31,180.32,93,178.38Z"/><path class="cls-43" d="M440.72,1010.12l.72-1.16c1.51,3.13,3.95,6,2.44,9.89Z"/><path class="cls-44" d="M117.59,516.33c-1.71-3.89-1.46-7.79-.11-11.71C117.31,508.52,119.44,512.41,117.59,516.33Z"/><path class="cls-45" d="M340.2,259q-1.87-5-3.77-9.94A10.58,10.58,0,0,1,340.2,259Z"/><path class="cls-46" d="M332.45,243.43c-3.11-1.08-5.25-3.05-5.87-6.41C329.36,238.4,330.84,241,332.45,243.43Z"/><path class="cls-47" d="M586.82,456.23c-2.56-2-4.65-4.23-2.32-7.74A21,21,0,0,1,586.82,456.23Z"/><path class="cls-48" d="M73.12,555c-.19-2.14-2.05-4.66,1.34-6,.32,1.66-.38,3.27.45,5.09C75.94,556.4,74.4,556,73.12,555Z"/><path class="cls-49" d="M113.51,439.6c-1.45-.05-3.36-.18-3.36-1.8,0-2.09,2.2-.91,3.36-1.37Z"/><path class="cls-48" d="M116.76,500.58c-2.64-1.84-1.9-4.32-1.27-6.77C117.18,495.83,116.71,498.25,116.76,500.58Z"/><path class="cls-50" d="M631.08,1045.56a5.82,5.82,0,0,1-.07.93c-5,1.59-9.69,3.55-13.22,7.65-1.33,1.54-3.49,1-5.07,1.1-4.31.35-8.18,1.93-12.21,3.09-1.81.18-4.34-1.7-5,1.75-3-3.39-6,2.94-9.06,0-.57-.57-1.15-.35-1.75,0-4.66,2.7-8.14,1.83-11.41-2.89-.46-.67-.81-1.29-1.76-1.45-2.73-.48-3.08-.9-3.3-3.31-3.37,2.87-6.17.26-9.11-1,2.82-2.2,7.12-1.38,9.43-4.62,3.21-2.3,7.56-1.12,10.73-3.54,1,.36,2,.91,2.34-1,.21-1.24.13-3.11,2.38-2.76,1.12,2.36,2.81,3.16,5.51,2.76a66,66,0,0,0,19-6.36,107.12,107.12,0,0,0,18-10.79,28.06,28.06,0,0,0,8.66-6.18c1.58-1.78,3.5-4.06,6.61-3.37,1.39,4.25,5.14,8.39.62,12.93a1.25,1.25,0,0,0-.3.89c-.14,5.58-.66,5.91-6.09,3.53C636.34,1038,631.19,1040.72,631.08,1045.56Z"/><path class="cls-51" d="M490.13,1047.49c-1.53,2.45-3.66,3.75-6.54,2.85a22,22,0,0,0-11-.44c-2.09.41-3.37-.05-2.41-2.46,2.21-5.49,1.35-6.54-5-5.78a5.61,5.61,0,0,0-1.66.86c-3.16,1.29-4.34-1.2-5.86-3.07-3.93-1.88-5.16-5.56-3.73-9s.07-5.42-1.79-7.91c1.4-.78,3.49,1.92,4.21-1.08.54-2.25-1.1-2.21-2.24-3s-1.91-2.23-3-3.11c-1.51-1.19-3.4-3.12-1.88-4.26,2-1.52,4-4.52,7.48-3a20.62,20.62,0,0,0,8.89,1.95c2.75-1.3,4.73.5,6.85,1.71,0,3-2.41,2.61-4.18,2.66a21.2,21.2,0,0,1-8.77-1.5c-.2,3,1,4.26,3.47,4.8,4.16.93,8.37,1.63,12.55,2.45a16.67,16.67,0,0,1,6.32,2.58c3.14,2.15,6.15,4,10,.8,1.68-1.39,4.09-.09,6,.8-.66,5.61,3,9.33,5.93,13.35.84,1.77,1.66,3.54,0,5.3-1.8,1-4.15,1.58-2.74,4.51.68,1.5,3,1.39,3.28,3.7-3.94,1.08-7.65,1.81-10-2.89-2.39-1.31-1.44-3.74-2-6.21C491.35,1044.1,493.45,1047.05,490.13,1047.49Z"/><path class="cls-52" d="M502.85,1042.64c2.28-1.55-.08-3.24.14-4.85,2-2.86,4.87-5.17,5.2-9a1.32,1.32,0,0,1,1.82-1.07c1.36,1.64,1.05,3.67,1.36,5.56.11,1.43-.71,2.73-.64,4.31,1.21.21,2.17-1.11,3.39-.59,1.86.74,2.64,2,1.78,3.93-.46,1-1.42,1.79-1.32,3.17,2.27-1.25,4.57-2.34,5.94-4.64,7.15.66,7.52.46,8.92-4.9,3.36,2.62,5.87-1.94,9-1.08,2.1,2.89,6,4.33,6.83,8.24,0,3.31,2.57,6.11,1.94,9.54l-1.94.26c-1.52,0-1.17,1.62-2,2.22-2.15,0-4.38.69-6.23-1-1.2-1.46-1.62-3.54-3.56-4.4-3.47-.73-7,.57-10.49-.35-2.2-.58-3,1.38-3.6,3.08a2.83,2.83,0,0,1-1.06,1c-2.23,1-4.52.57-6.79.28-2-.16-2.53-1.87-3.44-3.19-1.12-1.62-1.48-3.85-4.53-3.49C502.11,1045.86,502,1044,502.85,1042.64Z"/><path class="cls-53" d="M547.23,1051.24c-1.56-3-3.09-6.11-2.86-9.7,1.08-1,2.31-.28,3.47-.28a1.52,1.52,0,0,1,1,1.3.8.8,0,0,0,.2.66,1.63,1.63,0,0,0-.08-1.36,14.47,14.47,0,0,1-1.2-2.17c-.51-1.65-.74-3.41,1-4.37,2-1,3.44.17,4.67,1.62a5.89,5.89,0,0,1,1.48,3.57c0,.81-.73,2-.33,2.27.64.54.68-.71,1.16-1a1.19,1.19,0,0,1,1.18-.36c1.23,4,5.2,2.85,7.85,4.1,1.4.66,3.24.34,4.22,2-2,4.57-6.26,3.43-9.86,4C555.17,1050.29,551.2,1050.88,547.23,1051.24Z"/><path class="cls-54" d="M543.35,1053.41c.34-1-.73-3.32,1.94-1.91.49,7.23-3.36,11.66-9.5,14.54-1.71.8-.95,3.66-3.86,3.8,1.38-3.1.65-3.14-2.64-3.47a17.13,17.13,0,0,1-10.42-5.5c-4-4.48-8.95-7.76-13.52-11.52-1.31-1.08-2.54-2.06-4.34-1.87-1.22-.77-2.79-1.82-2.22-3.2s2.56-1.39,4.06-1.64c.19.78.22,2.12.6,2.23,4.36,1.23,4.38,1.18,7.39,6.56,4.54.62,7,4.29,10.25,6.88,6.74,5.41,13.4,5.76,18,1C540.76,1057.5,541.26,1054.88,543.35,1053.41Z"/><path class="cls-55" d="M600.51,1058.33c3-2.21,5.84-3.62,10.09-3.59,2.74,0,7.43-1,9.58-4.13,2.82-4.08,6.72-4.11,10.83-4.12,3.4,3.26-.25,3.69-2,4.9-3-.58-6.46-1.79-6,3.56-3-.81-4.05,3.7-7,2.67-1.67-.59-3.93.3-4.48-.08C607.55,1054.67,604.38,1061.93,600.51,1058.33Z"/><path class="cls-56" d="M490.13,1047.49c2.44-2.67-.06-5-1-7.63,4.29.87,4.23.87,4.3,5.2a13.68,13.68,0,0,0,.86,3.23,2.5,2.5,0,0,1-2.33,2.35A3,3,0,0,1,490.13,1047.49Z"/><path class="cls-25" d="M75.33,238.52c-1.75-.9-.81-1.88,0-2.65,4.56-4.16,8.26-9.16,13.43-12.77,4.07-2.85,7.49-6.57,6.26-12.38-1-4.64,2.62-6.8,5.14-9.62,2-2.21,7-2.37,5.2-7.35,0-.08,1.37-.6,2-1,1.11-.69,3.24-1.11.85-2.91a1,1,0,0,1,.23-1.67c6.49-2,7.21-8.89,11.26-12.82,2.53-2.46,6.25-3.71,8.45-6.79,3.62-5,8.95-6.87,14.7-8.12,1-.21,4.56.07,2-3.13-.6-.76.79-1.69,1.29-1.42,3.79,2,4.13-1.42,5.61-3.26a24.8,24.8,0,0,1,4.5-4.54c2.8-2,5.34-2.23,8,1,3.18,3.86,5.12,8.35,7.26,12.72,2.83,5.75,8.14,9.68,10.82,15.5.33.72,1.12,2,2.21,1.31a2.57,2.57,0,0,0,.5-3.91,72.62,72.62,0,0,0-5.33-5.73c2.82-.48,4,2.6,6.59,2.12-.54-3.53-4.25-4.25-5.71-6.85s-2.8-5.05-1-8.2c3.53,2.32,3.16,6.46,5.33,9.21a18.82,18.82,0,0,0,5.48,4.52c.58.34,1.34.84,1.74.23,4.89-7.27,7.67.66,10,2.21,4.41,3,7.35,8.06,11.18,12,5.7,5.86,9.71,13,14.92,19.19,2.47,2.94,4.41,1.5,5.95-.38,3.34,3.53,5.45,8.06,10.57,10.13,3,1.22.49,5.72,3,7.87.35.31-.1,1.55.25,1.86,7,6.24,2.46,14.43,3.71,21.61,1.81,2,1.1,4.3.69,6.52-1.2,6.58-3.57,12.87-5.07,19.4-.7,3.07,0,4.26,3.12,4.25,2.74,0,5.61-.3,7.92,1.75a1.28,1.28,0,0,1,.31,1.35c-5.06,2.83-10.07.05-15.08-.25-1.45-.08-1.65-1.82-1.51-3.2a29.08,29.08,0,0,1,.82-3.31c1.05-4.59,4-9.14-.2-13.78-.69.43-1,2.22-2.63,2.23-1.94-1.51-.66-3.54-.88-5.34,1.73-5.62-.46-10.23-3.8-14.52-.6-.77-1.57-1.34-1.89-2.24-2.17-5.93-7.3-9.5-11.08-14.15-3.9-4.81-4.41-11.13-7.42-16.47-1.93,1.13-3.85,3.74-7.46,3.43-2-.16-2.08,2.25-2.07,3.87a23.49,23.49,0,0,0,2,9.08,199.69,199.69,0,0,1,6.56,19,17.66,17.66,0,0,1,.52,4.83c.21,6.28,3.08,11.55,7.22,15.89,2,2.13,1.69,4.83,3.27,7.24a52.17,52.17,0,0,0,5.56-7c1.11-1.49,2-3.57,4.52-2.88.68,5.21-1.09,8.73-5.81,11.74-4.37,2.8-5.51,8.33-6.82,13.25a23.94,23.94,0,0,0-.13,10.25c1.65,9.83,3.1,19.65,8.21,28.57,3.52,6.16,8.73,8.4,15.31,8.87,3,.22,6.25-1,9,1.33-.82,2.58-3.08,2-4.9,2.1a50.92,50.92,0,0,1-14.42-1.06,37.76,37.76,0,0,0,3.64,9c6.93,13.58,13.37,27.4,19.21,41.49.71,1.73,1.86,3.63.16,5.52l-10.76-7c3.6-2,4.11-4,1.59-7.33-2.83-3.7-3.89-8.18-5.8-12.29-3.79-8.19-8.84-15.74-12.94-23.77-6.93-13.55-13.67-27.23-15.83-42.58-.85-6.06-5.31-10.86-6-17-.1-.95-.83-1.83-.89-2.8-.7-13-6.92-24.5-10.13-36.82-3.67-14.09-5.48-28.68-10.83-42.33a5,5,0,0,1-.26-1.45c.09-.65-.84-.33-.18-.34.05,0,.1.14,0,.34-3.37,7.38-2.21,15.3-2.79,23-.17,2.17-.27,4.12.77,6.16a8,8,0,0,1,.48,5.31c-.4,1.84-1.17,3.54-3.09,4.13-2.37.72-2.85-1.52-3.45-2.32,1.42,8.75,2.45,18.12,4.45,27.33.83,3.84,1.15,7.81,2.91,11.41,1.05,2.15.22,4.06-.45,6.13-7,21.6-17.1,41.86-27,62.19-.36.74-.72,1.47-1.05,2.22-2.92,6.61-2.78,6.76,4.15,9.32,2.11.77,5.11.59,5.54,3.89-4.21-1.32-8.57-2.3-12.57-4.08-2.76-1.22-3.63-.4-4.82,1.85a41.48,41.48,0,0,1-5.49,7.67c1.32-8.53-2.54-16.12-3.71-24.15,2.65.28,2.43,2.7,3.12,4.35a45.43,45.43,0,0,1,2,6.57c.25,1,.68,2,1.93,1.75,1-.19,1.11-1.16,1.1-2,0-2.63.6-5.23.23-7.86a20.11,20.11,0,0,1-.32-2.44c-.08-3.21,3.76-3.24,4.46-5.11s-1.58-4.33.47-6.41c1.53-1.56,2.21-.35,3.08,1-2.91-6.12,2.27-8,5.59-10.43,2.72-2,4.95-3.7,4.51-7.4a3.12,3.12,0,0,1,1.4-3c3.52-2.64,4.78-6.37,5.2-10.57.26-2.59,1.34-5.08,1.77-7.54.62-3.44,4.77-7.25-.6-10.86-2.55-1.71-.11-5.25-.7-7.91-1-4.43-1.92-8.88-2.8-14-1.67,2.63-3.3,4.57-6.57,3.77-2-.5-1.86,1.51-2.32,2.92-1.08,3.33,1.53,6.65-.47,10.07-1.25,2.13-1.77,4.3-4.89,3-.74-.32-1.79-.44-2.18.46-.47,1.1.39,1.81,1.26,2.35s1.82.78,2.63,1.33c1.47,1,2.63,2.35,1.45,4.08s-4.3,4.26-4.75,3.46c-3-5.31-11.23.68-12.95-7.69-.34,5.32,2,9.17,5.43,10.2,1,.31,2.76-.24,3,1.14.38,2.69,2.73,4.62,2.79,7.19.06,2.28-1.69,3.15-3.8,2.05a12,12,0,0,0-8.53-.94c-2.8.6-5-1.08-7-2.86-2.2-1.94-4.52-3.4-7.49-1.46-1.22.79-2.11.61-2.7-.81-.83-1.95-2.39-3.51-3-5.58a13,13,0,0,1-1.21-2,13.64,13.64,0,0,0,1.48,2.42c1.17,3.05,3.11,5.68,4.48,8.6,1.26,2.68,3.62,5.19,2.1,8.59-5.18-8.47-9.08-17.59-13.08-26.64-5.79-13.07-10.31-26.72-18-38.94-.77-1.23-1.32-2.62-2.16-3.8-7-9.83-7.62-9.86-16.21-1.29C77.21,236.68,76.26,237.6,75.33,238.52Z"/><path class="cls-3" d="M472.38,1012.16c-2.55.15-4.38-2-6.81-2.14-1.89-2.06-5.54-1-6.95-3.9,1.17-.19,2.86.45,2.84-1.69,0-5.75,1.43-6.82,7.64-5.54.26.06.58-.16,1-.28-.06-1.41-1.79-2.18-.93-4.17,2.13-5,.57-10-1.63-14.48-2.68-5.42,1.55-7.61,4.3-10.11,1.5-1.35,3.36-2.35,4.51-4.15,2.36-3.06,5.72-4.85,8.87-6.9,3.44.17,6.38-4.52,10.19-1,.56.52,1.87.63,2,1.14,2.12,8.3,3.61-.06,5.38-.18l.35.31c1.18,1.66.27,3.12-.55,4.51a32.15,32.15,0,0,0-3.73,10c-1.61,5.27-3.24,10.42-3.94,16-1.25,10-7.93,16.9-15.95,22.36C477.16,1013.17,474.64,1014.69,472.38,1012.16Z"/><path class="cls-5" d="M353.17,421.76c0-.5,0-1,0-1.48-.05-3.21,1-7.07-3.87-7.77-4.15-.61-4-4.19-4.84-7-1.78.33-.55,2.24-1.94,2.67-.33-3-.66-5.84-1-8.71l1.1-.44c.72,2.56.73,5.81,4.61,5.26.19,0,.54,2.29,1.1,3.38,1.08,2.09,2.91,3.89,5.24,3.56s1.54-2.9,1.5-4.52c-.13-6.4-.36-12.81-.65-19.19a53.68,53.68,0,0,1,1-12.59c2.6,1.39,1.71,3.66,1.55,5.37-.42,4.41,2.68,5.19,5.49,4.72,3-.49,6,.1,9-.65,1.45-.37,3.27-.56,4.67.73a11.16,11.16,0,0,0,1.19.85c1.75-3.75,4.87-1.42,7.41-1.67a25.63,25.63,0,0,1,8.75.94c.21.06.62-.67.94-1-.36,5.71-2.76,10.94-3.88,16.48-.32,1.59-1.89,1.59-2.89,2.33-7.71.65-12.64-4.75-18.22-8.56-3.5-2.39-6.86-4.85-11.1-5.93-.65,6.7-.47,7,5.21,8.59a31.71,31.71,0,0,0,5.8,1.08c1.94.18,4.11,0,5,2.32s-.65,3.72-1.89,5.25a3.82,3.82,0,0,1-1.54,1.19c-5.12-.38-9.66-2.61-14.63-5.27C356.26,409.08,355.56,415.57,353.17,421.76Z"/><path class="cls-5" d="M544,422.67a6.36,6.36,0,0,1,5,4c.91,2.63,3.4,7.16,6,8.87.6.39,1.37,1.1,1.09,1.31-2.43,1.83-.56,2.44.58,3.88,1.34,1.69,1.61,4.19,2.65,6.17.68,1.29,1.21,2.35.1,3.52s-2.16.65-3.51.11c-5.33-2.16-7.33-7-9.64-11.57-1.33-2.63-2.31-5.26-5.28-6.66-2.26-1.07-2.36-4.17-2-5.57C539.44,425,541.71,423.39,544,422.67Z"/><path class="cls-3" d="M370.91,407c2.89-6.65,2.88-6.58-4.8-7.93a30.7,30.7,0,0,1-7.94-2.11c-3.08-1.47-.52-4.81-1.61-7.26-.75-1.69-1-4.44,3.29-2.47,6.57,3,11.73,7.89,17.78,11.55,3.24,2,6.76,2.7,10,4.28l-2,2c-2.91,1.6-5-3.41-8.15-.86.78,1.78,4.15-.19,4.09,2.72C378.07,408.17,374.51,409.74,370.91,407Z"/><path class="cls-12" d="M296.1,748.93c-4.26-.54-4.14-4-3.9-6.82.33-3.72,2.4-7.06,2.08-11.13-.2-2.58,2.3-2.21,3.64-.67,1.55,1.78,3.67,3.42,3,6.33s2.78,3.75,3,6.42c.46,5.4-.55,6.61-5.93,6C297.4,749,296.75,749,296.1,748.93Z"/><path class="cls-57" d="M192.37,497.72c1.14,1.19-5.18,4.29,1.11,4.26.56,0,.61,1.61,0,2.12-1.22,1-3.13,1.51-3.89,0-2.16-4.28-4.54-8.66-4.67-13.52-.09-3.45,3-1,4.53-1.55.87,1.5.7,3.42,2,4.76l0,0A4.41,4.41,0,0,0,192.37,497.72Z"/><path class="cls-5" d="M396.66,362.71c-4.32,1.23-8.35,4.07-13.66,2.35,5-3.52,11.46-3.78,15.5-8.34A10.92,10.92,0,0,1,396.66,362.71Z"/><path class="cls-5" d="M395.42,373.56c-1-2-2.45-2-4.26-1.1-2.1,1-4.26,1.46-6.23-.75,2.6-3.9,6.83-2.71,10.49-3.25Z"/><path class="cls-22" d="M381.63,406.86c-.91-1.41-2.32-.85-3.52-.77s-2.88,1-3-1c-.08-1.51.8-2.75,2.87-3.17,3.4-.68,5.05,2.28,7.69,3A4.64,4.64,0,0,1,381.63,406.86Z"/><path class="cls-58" d="M350.6,480.54c-.28,1.88-.33,3.58-2.21,3-2.35-.68-2.84-2.84-2.95-5-.06-1.23.69-2.63,1.88-2.24C349.41,477,349.87,479.25,350.6,480.54Z"/><path class="cls-5" d="M287.19,730.46c-1.29,4.28-1.54,8.43.32,12.42.17.35-.72,1.68-1.27,1.78a1.66,1.66,0,0,1-1.9-1.74c.3-4.16.81-8.32,1.24-12.48Z"/><path class="cls-59" d="M346.22,427.64c-.9-.68-2.22,1.6-2.79-.29-.35-1.18.66-1.68,1.78-1.68,4.5,0,1.91-4.59,4-6.27,2.41,2.15,1.83,4.2,0,6.25Z"/><path class="cls-60" d="M191.39,493.79c-2.84-.69-5.24-1.56-2-4.76C191.24,490.14,191.41,491.93,191.39,493.79Z"/><path class="cls-5" d="M367.57,671.33c2.13-1.63,3.53-1.47,5.28-.45C371.35,672.58,369.85,672.07,367.57,671.33Z"/><path class="cls-60" d="M192.37,497.72c-1.13-.58-2.92.3-3.38-1.82-.54-2.48,2.1-.85,2.43-2.08C193.13,494.79,192.06,496.42,192.37,497.72Z"/><path class="cls-5" d="M296.13,81.77c-9.07-6.68-8.86-6.46-1.13-13.93C299,64,302.88,62,308,65c3.46,2,7.93-.43,11.15,2.69.65.63,3.36.15.36,1.75-.67.37.93,1.43,2.1,1.4,4.28-.11,5.79,2,6.18,6.13.27,2.77-1.75,6.37,2.14,8.22-1.51,1.29-2.61-.86-3.84,0a1.27,1.27,0,0,0,.67,2c2.08.72,1.63,2.32,1.13,3.54-.73,1.79-2,.07-2.68-.15-6.77-2.12-11.83-.6-16.06,5.49-2.11,3.06-5.39,5.33-5,9.51.15,1.8-.58,1.86-1.86,1.81-7.82-.36-15.71-.19-23.44-1.2-7.07-.92-14.18-1.45-21.24-2.53-5.46-.83-10.16-3.21-15-5.31-1.55-.67-1.91-3.48-2-5.84-.11-6,4.51-9.91,5.95-15.1,2.48-9,10.58-11.59,17.46-15.11C268.3,60.16,270,55.4,274.57,54c.67-.22-.19-2.71,1.55-2.08,1.33.48,1.91,2.18,1.93,3.68s-.75,3.5.76,4.45c1.31.83,3.68,2,4.22-.87.47-2.51,3-2.26,4.08-3.8s1.6.12,2.24.54c.35.23,1.64.24.85,1.14-2.93,3.36-2.3,8-4.53,11.84-1.75,3-4.21,4-6,3.31-2.73-1-5.4.49-8.06-.92-2-1-3.49,1.22-4.78,2.53-.6.59.5,1.73,1.24,1.6,7.79-1.43,13.06,3.87,19.29,6.78C289.74,83.27,293,84.68,296.13,81.77Z"/><path class="cls-5" d="M327.58,103.48c-3-.65-4.8-2.37-7.22-2-1.23.18-.95-.75-1.05-1.56-.14-1.21.46-1.3,1.34-1.35C323.93,98.36,326.57,99.07,327.58,103.48Z"/><path class="cls-5" d="M333.78,93.38c.76,1.33,3,1.83,2.09,4-.19.43-1.27,1-1.48.81C332.59,96.92,333.81,95.08,333.78,93.38Z"/><path d="M283.94,324.93c-7.86,2.58-15.72,5.18-23.61,7.71-1.85.6-3.78,1-5.67,1.45-4.09.06-8.27.7-12.24.05-8.14-1.34-12.78-6.88-15.8-14.31-1.77-4.35-3.54-8.77-4.14-13.29-.94-7-3.38-13.94-1.7-21.19a33,33,0,0,1,7.47-15.08,51.13,51.13,0,0,0,3.62-4.07c1.45-1.95,2-4.05,3-6.07.21-3.16,2.12-4.94,4.88-6,3,1.63-1.33,3.42.11,5.09,1,2.35-.14,4.52-.66,6.7-3.38,14.29.66,23.57,13.51,30.87,7.87,2.69,15.9,1.33,23.88,1,5.75-.45,11.11.47,15.34,4.83,2.78,2.86,6.49.68,8.41,1.86a22,22,0,0,1-7.59-5.11c-2.14-2.26-4.6-4.25-6.54-6.63-6.7-8.17-15.62-12.23-25.56-14.6a4.22,4.22,0,0,1-2.16-1.1c-3.47-1.26-7.14-.74-10.69-1s-3.57-1.29-2.77-4.22c2.48-9.06,5.94-17.89,6.67-27.38,2.17-5.62.77-11.49,1-17.23.17-3.95.71-4.76,4.27-2.8,8.29,4.56,16.19,9.77,24.57,14.22,6.39,3.41,13.5,4.48,19.86,7.72,5.41,2.77,11,4.85,15.52,9.46,6.77,6.92,6.43,15.55,6.31,23.79-.11,7.5-2.31,15-3.55,22.45-.59,3.6,0,6.2,4.66,5.47a28.73,28.73,0,0,1,4.91,0c1.44,0,3.13-.25,3.14,2,0,1.76.48,3.79-1.72,4.66-9.53,3.74-19.49,6.9-29.53,7.35a72.54,72.54,0,0,0-16.08,2.55Z"/><path class="cls-3" d="M209.78,153.49c1.63-2.75,5-.6,6.62-2.9.1-.14.9,0,1.13.23.71.73.17,1.21-.27,2-1.33,2.37-1.2,2.53.75,2.43,4.89-.26,7.7,3,10.92,5.92,6.6,6,10.72,14.28,17.65,19.89,3.1,2.52,2.2,7,5.54,9.1.23.14.12,1.49-.18,1.66-1,.59-2.09-.34-2.56-.89a35.35,35.35,0,0,0-9.25-7.72c-9.43-5.58-14.36-15.65-22.77-22.24C214.63,158.82,212.37,156.07,209.78,153.49Z"/><path class="cls-25" d="M288.47,240.23a6.58,6.58,0,0,1-5.48-3.5c-2-3.58-4.9-6.73-5.81-10.87-.21-1-1.9-2.45.45-3.09,1.48-.41,2.27.39,3.09,1.64A69.79,69.79,0,0,1,288.47,240.23Z"/><path class="cls-25" d="M316.45,331.52c1.1,1.35,3-1.39,3.77,1-2.62.74.94,4.24-2.21,4.85-2.29.45-2.75-1.25-3.42-2.63s-2.46-2.9-1.39-4.37-1.85-3.38.82-4.13c1.24-.35,2.29.48,3.09,1.19C318.88,329,316.54,330.21,316.45,331.52Z"/><path class="cls-25" d="M222.38,97c-1.51-4.78,3-7.59,3.05-11.65,0-.6,1.38-1.36,2.44-1,.86.31,1.47,1.31,1.09,2C226.86,89.83,227.31,94.94,222.38,97Z"/><path class="cls-25" d="M267.91,222.68a5.35,5.35,0,0,1-4.13-3.55c-.5-2-3.43-3-2-5.56.43-.77,1.53-.6,1.6-.24.44,2.32,6.19,1.25,3.5,5.62C266.32,219.82,268.78,220.7,267.91,222.68Z"/><path class="cls-25" d="M205.28,156.74c-.32.82-1,1.91-1.57,1.39-1.48-1.28-3.91-1.72-4.19-4.15a.94.94,0,0,1,1.23-1C202.66,153.69,204.66,154.46,205.28,156.74Z"/><path class="cls-25" d="M184.62,158.52c3,2.06,2.66,5.92,6.11,6.25.77.07.21.78,0,1.08a1.32,1.32,0,0,1-2.09.17C186.74,164.14,184.92,162.21,184.62,158.52Z"/><path class="cls-25" d="M313.62,321.28a3,3,0,0,1,2.53,2.24c.29,1.17-.83,1.56-1.83,1.67-1.44.16-2.62-.09-2.56-1.95C311.79,322.18,312,321.28,313.62,321.28Z"/><path class="cls-3" d="M82.46,223.39c0-3.15,3.14-3.27,4.23-5.15,2.86,1.9.36,2.65-.88,3.1S84.38,223.56,82.46,223.39Z"/><path d="M298.2,222.51c1.69.41,3.79.24,3.11,2.77-.16.59.11,1.34-.76,1.26C297.87,226.31,299.69,223.5,298.2,222.51Z"/><path class="cls-25" d="M335.12,371.14c-1.05-1.26-2.32-2.36-1.17-4.1a1.81,1.81,0,0,1,1.73-.23C337,368.26,336.8,369.71,335.12,371.14Z"/><path class="cls-25" d="M228,103.53c.07,1.47-.57,2-1.74,1.86-1-.14-2-.56-1.64-1.79.22-.82.4-2.08,1.72-1.87A2,2,0,0,1,228,103.53Z"/><path class="cls-25" d="M258.42,223c-2.16-.94-3.52-1.62-4.18-3.13-.06-.14.64-.87,1-.88C257.47,218.86,257.6,220.69,258.42,223Z"/><path class="cls-5" d="M366.59,294.07c3.54,1.8,7.34,3,10.3,6,5.63,5.67,7,13.55,2.78,20.3-3.62,5.76-7.82,11.16-11.8,16.7-.79,1.09-2.18,2.13-3.25,1.45s-.89-2.48,0-3.56c3.44-4.21,6.79-8.53,10.54-12.46,6.76-7.09,6.37-13.53-1.24-19.6a107.37,107.37,0,0,1-8-7.82Z"/><path class="cls-61" d="M330,410.66c1.22,1.37,3.62.23,3.16,3.53-.2,1.46-1.6,5.45,3.23,5.52,1,0,2,4.74,2.66,7.39a1.37,1.37,0,0,1-2.48.76c-.22-.21-.22-.73-.45-.84C329.12,423.7,330.47,417.16,330,410.66Z"/><path class="cls-5" d="M379.74,334c.76,2.74-1.3,3.85-2.84,5.52a75.52,75.52,0,0,0-6.74,8.84c-.92,1.34-1.94,2.49-3.36,1.5s-.37-2.41.31-3.78c1.95-4,5.7-6.11,8.81-8.75,1.23-1,2-2.94,3.87-3.27Z"/><path class="cls-5" d="M385.85,349.12c1.88-4.24,5.7-4.56,8.41-6.4,1.27-.86,2.57,0,3.07,1.26.58,1.48-.83,2-1.83,2.36C392.5,347.31,389.44,348.1,385.85,349.12Z"/><path class="cls-42" d="M359.6,357c.68,2.86-1.87,2.63-3.56,3.11-1.24.36-2.05-1.26-1.6-1.57,1.46-1-1.09-4.64,2.58-3.84C358.16,354.92,360.38,354.05,359.6,357Z"/><path class="cls-5" d="M353.9,340c-3.24-4-2.21-8.48-1.22-12.93C353.09,331.42,355,335.57,353.9,340Z"/><path class="cls-5" d="M379.43,358c-1,1.52-1.87,2.86-2.81,4.13-.54.74-1.21,1.87-2.26,1-.87-.7-.54-1.86.22-2.57C375.82,359.39,376.6,357.45,379.43,358Z"/><path class="cls-5" d="M366,361.21c-3.16,3.4-6,4.87-10.92,4.35Z"/><path class="cls-62" d="M360.09,288.53l1.94,1.2c-.25,1.22,1.55,2.77-.51,3.66a2.06,2.06,0,0,1-1.79,0C358.09,291.69,360.42,290.19,360.09,288.53Z"/><path class="cls-5" d="M350.88,275.29c1.28.86,2.63,1.64,2.48,3.34,0,.24-.92.69-1.2.57C350.51,278.46,350.84,276.85,350.88,275.29Z"/><path class="cls-5" d="M379.79,334.08c0-.15.06-.34.16-.44,1.05-1,1.53-3.06,3.65-2,.28.13.56.9.43,1.08a3.22,3.22,0,0,1-4.29,1.3Z"/><path class="cls-63" d="M336.4,1030.66l-1.1.85c-6.39.7-12.77,1.49-19.17,2.07-3.95.36-7.78,0-10.25-3.83-1.2.1-2.33.07-2.92-1.25a12.54,12.54,0,0,0-8-1.66c-3,1.57-5.34,1-6.8-2.22a22.12,22.12,0,0,0-8.84-2.79c-2.54.08-5-.08-5.94-3.06-1.15-3.5-4.61-3.13-7.12-4.47-3-1.58-5.44-4-8.67-5.27-2.21-4.25.47-8.52,0-12.78,1.73-1.44-.12-3,.2-4.56a2.71,2.71,0,0,1,2-2.46c.85-.18,2,.38,2,1.08,0,5.34,4.42,6.81,7.11,8.34-1.07-1.3-3.36-3-5.06-5.22-2.06-2.69-1.6-5.61,1.46-6.16,5.13-.93,6.09-3.86,5.5-8.21,1.7-1.69,3.21-1.24,4.61.4h0c.75,2.36,3.09,3.64,4,5.89l.9,1c1.87,2.4,4.56,4.39,3.7,8.08a2,2,0,0,0,1,2.15c4.48,2.53,6.1,8.56,11.8,9.62.41.07.68.68,1,1.08,2,4,5,.51,7.48,1a3.75,3.75,0,0,1,1.22.56c1.74,2.85,3.91,5.2,7.27,6.15,1.53,3.65,4.76,4.52,8.18,4.61,5.94.14,10.22,3.65,14.66,6.84C338.23,1027.7,338.72,1029.33,336.4,1030.66Z"/><path class="cls-64" d="M205.4,971.57a17.55,17.55,0,0,1-2.29-4.2c-.4-1.41-.59-2.51.63-3.45,1.92-1.48,2,.86,2.74,1.51,1.73,1.51,3.38,3,5.79,3.23,1.33,2.5,3.74,1.55,5.77,1.83,4.19-.07,7.5-3.38,11.75-3.23.72.32.7,1.19,1.19,1.73.07-1-.13-1.93,0-2.87,1-3.33,3.71-4.21,6.69-4.71a14.67,14.67,0,0,1,2.12,1.18c5.84,3,5.93,4.73.42,8.39a4.74,4.74,0,0,0-1.24.87c4.22,4.06,10.15,6.24,13.07,11.74,0,2.36,1.29,4.17,2.45,6,0,.22.08.45.11.67.22,4.36,3.11,9.57-.9,12.8s-8.7-.59-12.83-1.74c-3.87-1.08-7.24-4-10.83-6.13-1.31-3.33,1-3.61,3.24-3.59a14.91,14.91,0,0,1,3.75,1c5.55,1.56,7.61.4,9.25-5.22-1.58,5-4.12,6.48-8.75,5.38-10.2-2.43-18-8.87-25.94-15.16C209.56,975.62,208.85,972.21,205.4,971.57Z"/><path class="cls-65" d="M251.62,984.55a33.65,33.65,0,0,0-13.68-10.95c-.73-.32-1.68-.28-1.79-1.31-.14-1.34.93-1.39,1.88-1.71a21.47,21.47,0,0,0,3-1.49,3.69,3.69,0,0,0,2.33-2.94c.09-2.08-1.93-1.14-2.94-1.68s-2.47-1-2.49-2.66c3.32-2.66,5.35-6.53,8.67-9.19l.92-.89c4,1.44,8,6.36,7.47,10.08-.7,5.14,2.6,8.32,7.82,9.22.58.11,1.07.75,1.48-.24.48-1.15.75-2.82,2.64-1.87a3.36,3.36,0,0,1,2,3.65c-.67,2.75,1.2,4.2,2.44,6,.28,1.26.64,2.52.85,3.8.46,2.76.1,4.88-3.47,5.06-1.87.09-4.25.18-5,2.31s1.33,3.31,2.75,4.68c2.23,2.14,4.19,4.56,6.22,6.9.12.14-.09.57-.19,1.11-1.86.29-2.93-1.13-3.91-2.21s-1.8-2.41-3-2.33c-4.49.31-4.31-2.46-4.14-5.52.06-1.06-.06-2.59-1.73-2.24-1.13.24-1.24,1.46-.92,2.45.5,1.57,1.53,3.23-1.24,3.65-.83-2.06-.5-4.7-3-6l0,.06C253.83,988.33,251.81,986.92,251.62,984.55Z"/><path class="cls-66" d="M202.38,992.34c-6.87-6.46-6-14.51-4.67-22.73,1.76-.35,2,1.09,2.62,2.15a25.2,25.2,0,0,0,10.95,10.7c2.89,4.15,7.49,6.3,11.12,9.58,1.24,1.13,2.19,2.47.63,4.11-.33.35-.79,1.06-1,1C215.64,994.92,207.55,999.54,202.38,992.34Z"/><path class="cls-67" d="M223,996.15c-.77-3.52-5.63-7.9-9-7.48-2.12.27-1.93-.93-1.63-1.81.62-1.83-.29-3.06-1.14-4.4h0c2.5-2,3.62.67,5.37,1.54-1.43-1.54-3.51-2.25-4.72-3.89-.79-1.07-2.49-2.49.25-3.42,8.12,6.24,16,12.89,26.33,15.33,4.5,1.07,6.34-.8,7.73-7.58.17.23.43.43.44.63.23,9.72-1.76,11.17-11.13,8.27-2.22-.68-4.94-2.4-5.5,1.9-1.2.26-2.57.55-.86,2,1.41,1.17,3.66,1.38,4.28,4C228.82,1001.64,226,998.75,223,996.15Z"/><path class="cls-68" d="M271.35,978.59c-2.43-1.2-6.16-1.54-3.28-5.9.56-.85-.58-2.41-1.59-3.27-2.37-.17.12,4.11-3,3.19C258,971,251.88,966,253.16,963.67c2.25-4.13-.69-5.89-2.46-8.32-.94-1.29-1.47-3-3.17-3.62l4.26-3.65c.87.45,4.19-1.56,1.88,2.11-1.55,2.47,1.27,1.15,2,1.73.28.18.38.37.31.58s-.15.32-.23.32c-1.31,4.31,2.68,7.1,3.19,10.94.18,1.39,2.4,1.43,3.39,1.2,4.32-1,6.38,1.88,8,4.77,1.79,3.17,4.57,5.87,5.06,9.73Z"/><path class="cls-68" d="M246.6,952.62c-2.74,3.2-3.4,8.37-8.67,9.19-1.65,2.05-5.7,1.11-6,4.84a2.16,2.16,0,0,1-2,1c-3.92,1.2-7.52,3.73-11.93,2.84a43.14,43.14,0,0,0,12.88-7.61c1.11-.9,1.33-.93.74-2.66-1.08-3.19,2.27-.78,2.9-.9C239.39,958.34,242.12,953.9,246.6,952.62Z"/><path class="cls-26" d="M204.41,958.77c-1.7.82-3.27,1.46-2.65-1.59.22-1.09.41-2.18.62-3.28C203.78,955.22,203.9,957.08,204.41,958.77Z"/><path class="cls-69" d="M654.63,1004l-1.88,2.07c-1.92,2.51-2.15,7-7,6.12.3-4.49-2.6-4.53-6.08-5.44-7.91-2.06-14.67,0-21.35,3.74a5.84,5.84,0,0,1-2,.66c-4.69,1.53-9.65,1.62-14.45,2.59s-7.09-1.4-5.32-5.92c1.48-3.77.2-4.31-3.09-4a63.2,63.2,0,0,0-6.84.62c-7.42,1.58-7.48,1.52-9.13-6,5.37-1.05,6.1-5.56,7.42-9.74.62-1.92.12-5,3.75-4.61,2.67,3.86.53,7.66.37,11.1,1.22-3,3.83-4.81,7.75-5.47,6-1,9.44,1.65,8.62,7.64-.32,2.34.91,3.61,2.61,2.81,8.49-4,17.59-.43,26.12-2.43,6.66-1.55,12.48,1.17,18.59,2.52C654.63,1000.72,656.29,1001.64,654.63,1004Z"/><path class="cls-70" d="M588.67,984.44c-3.63,2.39-2.81,6.7-4.16,10.06s-2.89,5.21-6.66,3.71c-2-.53-2.52-2-2.21-3.77.36-2.12-.85-3.38-2.26-4.57-1-.8-1.74-2.31-3.21-1.75s-.78,2-.8,3.07c0,1.58-.24,3.08-2,3.46s-2.75-.87-3.41-2.23c-1.21-2.47-2-4.64-4.75-.92-1.73,2.33-5.5,1.35-6.88-1.38-.73-1.43-.87-3.16-2.58-4.9.45,2.66-.5,4-2.75,4.12-5.82.39-5.64-4.87-7.75-8.65-1.3,2-.28,5.24-3.33,5.4-2.37.13-4.36-1.24-6.5-2-5-2.43-5.65-6.66-4.74-11.53,4.2,1,8.42,3.52,12.47-.63.85-.86,2,.52,3,.83,3.38,1,7,4.1,10-.92.62-1.05,2.06-.87,3.1-.16.5.35,1.19.89,1.21,1.37,0,1.26-1.08,1.49-2.06,1.51-2.14.06-2.3,1.49-2.12,3.05.32,2.76,2.18.78,3.33,1,3.68.82,5.17-3.89,8.7-3.37,5.34,3.29,11.85,2.79,17.39,5.39,1.36,5.81,1.38,5.79,6.62,3.06a6.87,6.87,0,0,1,2.35-.28c.28.22.37.45.28.67S588.77,984.44,588.67,984.44Z"/><path class="cls-71" d="M588.67,984.44l0-1c5.22,3.47,11.22,2.56,17,2.9,3.6.21,6.52.43,4.24,5.23a2.14,2.14,0,0,0,1.62,3c4.19-.26,8.93,2.56,12.46-1.86.47-.6,1.08-1.09,1.5-.45,2.17,3.31,6.4.35,9.14,3.27,1.18,1.25,4.72-1.11,6.94-2.41,6.39-3.74,8.38-2.63,11.57,5.18,1-.43.65-2.54,2.75-1.7-.51,2.34,2.34,5.27-1.24,7.41-1.41-4.25-5.4-3.35-8.5-4.3-10.25-3.15-20.68,1.75-31-.7-1.77-.42-4.16,1.42-6.17,2.42s-3.3.33-4.81-1c-2-1.78-.51-2.77.54-4,.83-1,1.16-2.39-.16-2.92-2-.79-2.52-4.34-5.49-3.11-3.13,1.3-7.25.66-8.9,5-.52,1.36-2.49,2.18-4.21,3C590.32,994.3,587.78,989.05,588.67,984.44Z"/><path class="cls-55" d="M645.81,1012c3.91-.06,3.86-4.81,6.94-5.86,4,2.64,4.36,9.52.8,15.41-.92,1.52-2.21,2.81-3.22,4.28-.83,1.19-2.35,2.7-2.1,3.7,1.76,7-5,9.36-7.4,14-.64,1.21-1.65.43-2.58.28-1.27-.19-2.38-1.07-2.35,1.83,0,2.18-3.09-.36-4.82,0-.66-3.25-1.39-6.5,2.86-8,.67-.25.61-.94.66-1.63.34-5.12.37-5.11,3.94-2.74a2.49,2.49,0,0,0,3.44-.79c1.13-1.4-.4-1.43-1.25-1.63-1.72-.42-1.11-1.38-.3-1.94,3.68-2.57,3.64-5.61,1.57-9.17a3.55,3.55,0,0,1-.13-3.72C641.92,1013.35,643.41,1012.2,645.81,1012Z"/><path class="cls-72" d="M303,1028.5l2.92,1.25c-.12,3.06-2.52,1.71-4,2.08-1.14-1.7-5.36,0-4.51-3C298,1026.64,301.06,1029.66,303,1028.5Z"/><path class="cls-73" d="M343.3,1028.77l-3,.94c.9-5.15.72-5.41-4.58-6.43-1.57-.3-3.26-.18-4.63-1.22a4.65,4.65,0,0,0-3.68-2.14c-4.17-.3-7.43-2.47-10.22-5.28-3.19-3.22-6.65-5.59-11.35-5.57h0c-2.8-.56-5.65-.42-7.16-4-.74-1.77-4.08-1.35-6-2.6-1.62-2.13-5-3.6-2.64-7.2,1.73.08,3.77-.41,4,2.32.08,1.2,1.06,1.47,2,1.79,6.6,2.27,11.47,8.75,19.77,7.27,2.7-.48,5.34,3.3,8.74,3.4,1,2.37,3.19,1.8,5,2.17,6,1.2,10.18,6.22,16.21,7.52a2.94,2.94,0,0,1,1,5.12C345.57,1026.06,344.47,1027.46,343.3,1028.77Z"/><path class="cls-74" d="M290.11,995.26c-1.56,3.39,3.6,3.86,3,6.84,1.26.95,3.14.41,4.24,1.8s2.85,3-.3,4.16c-.61-1.32-1.79-1.59-3-2.07-2.45-1-5.78-1.11-5.64-5.15,0-1.17-1.29-1.86-2.39-2.2-3-1-4.14-2.67-3.07-5.89.9-2.68-3.15-3.66-2.59-6.39C286,986.65,288.35,990.62,290.11,995.26Z"/><path class="cls-75" d="M281.23,973c-.31.46-.47,1-.83,1.19-.78.4-2,.24-2.16-.42-.58-3.12-3.19-4.54-5-6.64-.7-.8-1.38-2.15-.12-3,1-.65,1.86.36,2.42,1.09C277.47,967.81,279.31,970.41,281.23,973Z"/><path class="cls-76" d="M255.72,952.82c0-.3-.05-.6-.08-.9.63-.49,1.23-1,1.89-1.47,1.1-.75,1.91-3.47,3.58-1,.77,1.13,3.33,2.73.92,4.39-1.54,1.07-3.62,3.21-5.59.27C256.17,953.67,256,953.24,255.72,952.82Z"/><path class="cls-68" d="M279.38,985.34c-1.75-1.68-5-2.34-4-5.89C277.48,980.89,279.53,982.37,279.38,985.34Z"/><path class="cls-72" d="M288.17,1024.62a8.71,8.71,0,0,0,6.8,2.22c.21.59.76,1.5.56,1.73-2.45,2.71-4.25-.85-6.54-.85C287.4,1027.72,286.52,1026.19,288.17,1024.62Z"/><path class="cls-77" d="M273.39,1018.77c1.63,1.69,4,2,5.94,3.06-2.66,3.33-4.32-.59-6.4-1.05C271.5,1020.45,271.64,1019.13,273.39,1018.77Z"/><path class="cls-78" d="M457.67,1039.45c2.3.37,3.32,3.17,5.86,3.07,1.23-.38,1.87,1.87,3.43.63,1-.79,2.79-1.13,3.09.62.28,1.59-.78,3.83-2.5,3.52-2.78-.5-6.56.57-7.91-3.37-.36-1.07-.92-1.24-1.77-.8-1.22.62-2.87,2.26-3.42-.1C454,1041.29,455.55,1039.72,457.67,1039.45Z"/><path class="cls-79" d="M524.66,972.56c1.47,3.69.4,8.54,4.94,10.83a2.87,2.87,0,0,1-1.13.88c-6.2.4-6.6-.06-6.42-5.79.06-1.92-.63-3.86.19-5.77a8.76,8.76,0,0,0-.49,4c.19,4-.88,5-4.74,4.35a15.09,15.09,0,0,1-7.48-3.44,15.85,15.85,0,0,0-11.62-4.07c-.13-5.51,3.71-9.6,5.22-14.51,3.51.08,1.38,4,3.54,5.22.46.25,0,1.88,1,2.52,1.06.23,1.67.74,1.19,1.93,0,1.47,0,2.94.15,4.4s1.3,1.72,2.36,2.13c1.17-3.76,5.54-2.61,7.62-5,.88-1,.15-3.38,2.33-3.13,2,.21,2.4,1.89,2.56,3.64A6.08,6.08,0,0,0,524.66,972.56Z"/><path class="cls-80" d="M508.85,968.71c-.4-.64-.8-1.28-1.19-1.93a63,63,0,0,1,1.49-6.42c.77-2.27,2.25-3.4,4.56-1.53,1.82.69,2.19,2.49,3,3.93,1.45,3-1.26,4-2.8,5.07-.77.54-.17-1.57-.83-2.24C511.19,966,512.26,970.42,508.85,968.71Z"/><path class="cls-81" d="M544.65,968c-.08,1.11-.83,1.4-1.67,1.43-1.51.07-3.08.06-3.48-1.85-.21-1,.41-1.71,1.37-1.42C542.21,966.56,543.86,966.51,544.65,968Z"/><path class="cls-66" d="M212.19,976.68c-1.14,3.51,2.08,4.44,3.9,5.43,2.18,1.18,2.3,2.72,2.83,4.95-3.45-.64-3.82-5.57-7.63-4.61a21.38,21.38,0,0,0-5.32-7.83c-.87-.76-2.25-1.69-.57-3,.86-.19,1.25-2.38,2.57-.63S210.79,974.77,212.19,976.68Z"/><path class="cls-82" d="M331.56,1021.84a28.29,28.29,0,0,1,6.19.59c6.19,1.75,6.5,2.4,2.58,7.28a5.65,5.65,0,0,1-3.93,1c.49-1,1.51-2.43.13-3-4.82-2-8.15-7.12-14.08-6.77a2.68,2.68,0,0,1-.49,0c-3.64-.56-7.8-.16-9.18-4.94a2.43,2.43,0,0,1,4.05-1.55c4.13,3.59,9.23,4.86,14.11,6.72C331.2,1021.2,331.35,1021.59,331.56,1021.84Z"/><path class="cls-83" d="M497.91,973.55c3.4-2.35,6.47-1,9.39,1,3.34,2.28,6.36,5.06,10.66,5.62,2.6.34,3.63,0,3.14-3.06-.39-2.47.13-5.08.25-7.63l1.3,0c0,2.67.51,5.46-.1,8-1.4,5.71,1.67,6.36,6,6,4.08,3.06,9.78,1.25,13.8,4.68,1.8,1.53,2.95,3,2.17,5.65,2.54-5.59,3.54-5.67,8.47-2.57,2.69,1.7,5.73,3.29,9.17,3,1.69-.13,3.31-.47,4.11,1.57.91,2.31-.71,3.25-2.67,4.4,2.06,1.94,4.51,3.39,5.43,6.18.49,1.46,2.07,1.39,3.39,1.45,1.79.08,3.62-.06,5.31.75,3.31,1.59,5.28,2.79,4.7,7.9-.53,4.72-4.28,8.49-3.06,13.36a8.56,8.56,0,0,1,.3,1.31c-.6,3.56-1.92,7.16.69,10.52a1.58,1.58,0,0,1-.78,1.73c-1.11,2.25-2.71,3.54-5.42,3.17a7.35,7.35,0,0,0-5.19.9c-2.46-1.43-5.7.27-8.05-2.29-1.43-1.56-1.83,1.94-3.46,1.43-.76-1.59.49-3.64-1.14-5-2.5-1.34-2.26-4.47-4.14-6.26-1.21-1.14-2.32-2.58-4.08-1.9s-.7,2.52-.79,3.85,1.33,2.71.13,4.13c-1,1.33-2.06-.09-3.07.14-.66-3.56-5.88-3.63-5.9-7.68-1.38-1.24-1.79-2.92-2.17-4.63-.19-1.19-.54-2.38,0-3.57,3.32-1.08,4-3,2.32-6.14-1.12-2.15-2.35-4.27-3.24-6.5.26-.66-1-.2-.35-.23.23,0,.19.11.14.41-.61,3.34-2.63,2.83-4.67,1.59a17,17,0,0,1-4.49-4.43c-2.85-3.13-5.91-.82-8.9-.33-6.46,2.73-12,6.5-15.46,12.88-.66,1.23-1.33,2.79-3.31,2.08l-4.79-.86c-1.24-.21-2.18-.47-1.7,1.59s-1.08.66-1.7.59c-3.79-.43-7.22-.75-10.86-3.24-5.27-3.59-12.41-2.84-18.61-4.58-1.08-.3-4.18-6.12-3.49-6.8,1.12-1.11,2.32-.47,3.59.07,3.78,1.62,7.64,2.52,11.58.4a9.31,9.31,0,0,0,8.85-2.88c6.31-7,13.75-13.37,12.78-24.58C493.71,981.12,496.52,977.27,497.91,973.55Z"/><path class="cls-83" d="M616.3,1010.08l1.94-.05a44.44,44.44,0,0,1,3.59,9.58c.52-.83,1.2-2.68,2.88-2,2,.83,4.08.69,6.14.89a2.5,2.5,0,0,1,2.57,2.43,2.13,2.13,0,0,1-2.2,2.17,4,4,0,0,0-4.09,2.74,90.86,90.86,0,0,1-26.73,14.77,54.2,54.2,0,0,1-12.25,3.17c-3.84.41-4.71-.86-4.37-4.15a6.6,6.6,0,0,1-2-4.69c-.06-.81,0-1.64,0-2.46-.07-5.43.58-6.18,5.92-6.94,2-.29,4.35.19,3.51-3.53-.59-2.64,3.2-4.53,7.84-4.66,3.62-.11,3.16,2.28,2.87,4.61,1.87-.31,3.36-1,5-1.4,4.09-.94,8.1-2,7.61-7.67C614.37,1011.71,615.43,1010.85,616.3,1010.08Z"/><path class="cls-84" d="M627.13,1025.83c-.06-2.22-.21-4.56,3.2-3.74,1.09.26,2.26.23,2.25-1a2,2,0,0,0-2.79-1.8c-2,1.26-3.24,1.33-4.8-.69-.8-1-1.57.1-1.93,1.13-.46,1.32-1.24,2.27-3,1.76,1.66-4.2-2.92-7.38-1.83-11.51.13-2,1.29-2.68,3.17-3,3.33-.54,6.81-.84,9.62-3,1.31-1,2,.24,3,.31,3.18.22,6,2.35,9.54,1.17,3-1,3.86,1.56,2.24,6.4l-3.94,3.95a11.47,11.47,0,0,0-6.56,4.51C633.15,1023.48,630.22,1024.6,627.13,1025.83Z"/><path class="cls-85" d="M582.68,1034.79c.37,1.61.73,3.22,1.1,4.83-1.5,1.22-.75,3-1.12,4.5a1.89,1.89,0,0,1-2,1.67c-1.23-.2-.73-1.55-1-2.38,0-.6.09-1.2.14-1.8-1.35-3.56-.88-7.26-.81-10.92l-.11,0c-.07-.14-.21-.28-.21-.43-.05-2.07-1.44-5.27,1.83-5.35,3.05-.07,1.71,3.14,1.82,5A35,35,0,0,0,582.68,1034.79Z"/><path class="cls-86" d="M498.36,1025c3.19-2.29,3.83-6.46,6.9-9a52.86,52.86,0,0,1,11.38-7.07c3.39-.16,6.74-.11,9.81,1.65a6.85,6.85,0,0,1,2.7,3.37c1.06,3.4,3,5.19,6.75,4.85a3.23,3.23,0,0,1,2.69.91c1.2,1.31,2.66,2.84,2,4.65s-2.54.75-3.92.83c-5.7-2.93-11.37-3.24-17.26-.36-3,1.45-5.84,3.65-9.54,2.85-1.67.33-1.16,1.68-1.1,2.66.26,4.2-2,6.34-5.75,7.43-1.11-1.35-2-3-3.38-4C495.71,1031.24,496.32,1028.28,498.36,1025Z"/><path class="cls-87" d="M509.84,1027.7c4-1.84,8-3.67,12-5.53s12.12-.52,14.84,2.35a.75.75,0,0,1-.14,1.19c.3,1,.6,2.08.89,3.12-2.74,1.77-5.93,3-7.84,5.85.51,1.57,1.6,2.68-.1,4.71-3.17,3.78-5.77,1.7-8.66.17a3.23,3.23,0,0,1-1.25-2.3c-.28-2-1.34-3.23-3.48-3.27-1.75-.3-3.59.72-5.29-.34C509.1,1031.88,510.18,1029.68,509.84,1027.7Z"/><path class="cls-88" d="M543.35,1053.41c-1.91,10.18-13.2,13.85-21.23,7.13-3.7-3.1-7.51-6.08-11.28-9.11h7.86a8,8,0,0,1,4.09,1.53c7.25,4.43,8.6,4.39,14.7-.56C539.31,1053.48,541.64,1051.71,543.35,1053.41Z"/><path class="cls-89" d="M537.49,1052.39c-2.27,4.89-8.36,7-12.77,3.59-2-1.51-4.78-2.08-6-4.56a3.74,3.74,0,0,0,.13-.87c.49-1.34.78-3,2.83-1.61s4.31,1,6.48,1.4a5.31,5.31,0,0,0,6.36-2.81C536.52,1048.52,537.06,1050.42,537.49,1052.39Z"/><path class="cls-90" d="M510.77,1033.65c1.81-1.38,3.89-1.09,5.94-1,1.29,1.29,2.56,2.61,3.87,3.88.07,1,.14,2,.2,3-.36,5.23-5.35,4.51-8.23,6.64a9,9,0,0,1,2.36-5.52c1.23.5,1.81-.11,1.71-1.24-.14-1.73-1.19-2.33-2.85-1.8-1.73-.13-2.14,1.65-3.15,2.51C508.58,1037.73,509.11,1035.66,510.77,1033.65Z"/><path class="cls-88" d="M534.5,1047.53c.24,3.35-.41,5.52-4.64,4.28-3.22-1-7.21.93-9.74-2.65l-1.29,1.39c-.28-1.74.08-4,1.87-3.75C525.3,1047.3,530,1045.85,534.5,1047.53Z"/><path class="cls-91" d="M529.55,1034.68c.39-4.94,3.77-5.86,7.84-5.85l1.08,5a12.33,12.33,0,0,0-2.55,1.25C533.61,1037,531.54,1036.78,529.55,1034.68Z"/><path class="cls-92" d="M513.77,1037.64c1.4-1.79,2.85-1.6,3.69.31.58,1.36,1.33,3.28-.51,4.34-1.42.83-2-.26-2-1.61C516.23,1039,514.87,1038.39,513.77,1037.64Z"/><path class="cls-93" d="M547.44,1041.4l-1.19-4.67c-.43-1.7-2.65-3.92,0-5,2.29-.88,5.32-.64,6.77,2.25,1.23,2.45,2.2,5,3.29,7.55l-.29.06h-.29a1.07,1.07,0,0,1-1.6-.12,10.72,10.72,0,0,0-.57-2.28c-.93-1.93-2.21-4.27-4.6-3-2.1,1.15-.21,3.1.43,4.65.24.59.43,1.2.64,1.8a1.17,1.17,0,0,1-1.7-.11Z"/><path class="cls-94" d="M554.14,1041.51l1.6.12c.51,1.33,1.4,2.75-.49,3.7a1.74,1.74,0,0,1-2.21-.39C551.84,1043.35,552.7,1042.31,554.14,1041.51Z"/><path class="cls-95" d="M548.34,1042.61l1.7.11c.4,1.3.66,2.59-1.13,3a1.78,1.78,0,0,1-2.11-.72C545.9,1043.39,547.85,1043.44,548.34,1042.61Z"/><path class="cls-96" d="M251.73,297.55c-11.43-5.52-16-14.21-14.59-27.55a35.75,35.75,0,0,1,2.74-10.81l3.66-6a7.94,7.94,0,0,1,1,1.46,24.85,24.85,0,0,1-.86,18.28c-1.36,3-.57,4,2.74,4,4.06,0,8.12.6,12.18,1l.63.43c5.73,4.64,10.88,9.82,14.48,16.33,2,3.73,1.58,4.54-2.77,4.4C264.53,298.81,258,300.14,251.73,297.55Z"/><path class="cls-5" d="M258.51,277c9.72,1,18.18,4.42,25.29,11.54,5.75,5.75,11,12.22,18.25,16.94-2.82,0-5.64,0-8.46,0-.74,0-1.93-.23-2.14-.7-2.86-6.41-9.05-5-14.15-6.15-2.62-3.4-3.76-7.58-5.73-11.32a14.83,14.83,0,0,0-10.44-8,4.41,4.41,0,0,1-2.55-1.38l0,0A2.08,2.08,0,0,0,258.51,277Z"/><path class="cls-5" d="M171.68,214.8a63.5,63.5,0,0,1-4.57-20.92c-.27-5.75-2.62-10.77-4.06-16.12-2.35-8.79-6.76-17.15-5.8-26.66a3.38,3.38,0,0,1,.43-.92c2.43,0,2.64,2.23,3.26,3.7a208.23,208.23,0,0,1,8.55,25c.78,2.79-1.28,5.44-.84,8.51C169.94,196.49,170.71,205.66,171.68,214.8Z"/><path class="cls-5" d="M193.33,193.68c-4.94-5.63-6.88-11.67-6.33-18.44.12-1.39.74-3.64,2.84-3.39,1.86.23,2.28,1.4,2.29,3.78C192.15,181.36,193.89,187,193.33,193.68Z"/><path class="cls-5" d="M196.82,208.41c-1.53-1.33-2.95-2.67-2.33-5.15C197.22,204.5,196,206.94,196.82,208.41Z"/><path class="cls-5" d="M183,180.82c-3.71.62-3.69-1.54-4.26-4Z"/><path class="cls-5" d="M194.12,200.71c-.6-1.29-2.08-2.36-.49-4.93.69,1.91,1.17,3.22,1.64,4.53Z"/><path class="cls-3" d="M186.28,237.14c2.14,20,11,39.29,6.16,60.07C191.7,277,185.17,257.51,186.28,237.14Z"/><path class="cls-3" d="M136.64,307.53c-2.68-.59-2.91,1.91-4.41,3,.12-2.37.22-4.26.32-6.31C134.91,304.19,134.2,307.32,136.64,307.53Z"/><path class="cls-3" d="M136.8,321.59c3.73.74,5.24,2.48,7,5.92C140.75,325.7,138.8,324.54,136.8,321.59Z"/><path class="cls-3" d="M167.17,269.22c-1.22-1.59-2.78-2.52-2.85-4.39,0-.62,1.06-.91,1.58-.54C167.41,265.36,168.34,266.74,167.17,269.22Z"/><path class="cls-3" d="M156.36,303l-1.87,5.52C152.94,305.76,151.17,303.6,156.36,303Z"/><path class="cls-3" d="M170.3,261.39a2.31,2.31,0,0,1,1.45,2.35c-.16,1.37-1.22,1.3-2.21,1.29-1.34,0-1-.81-.77-1.62S168.79,261.3,170.3,261.39Z"/><path class="cls-3" d="M385.53,395.52c-2.1,1.35-3.65-.16-5.33-.32-1.33-.13-2.63-.22-3-1.76-.08-.28.46-1,.66-1,1.33.14,2.75-1.39,3.95,0C382.82,393.61,384.82,393.51,385.53,395.52Z"/><path d="M272.68,87.94l-.71-.19c-1.94-.7-4,2.4-5.81-.1-.17-.23.18-1.18.22-1.18,2.76.28,3.08-5,7.55-2.51,2.87,1.61,7.31.71,10.5,3.29,1.18,1,2.12,1.52.87,3-1.57,1.82-1.36-.65-2-1-2.14-1-2.43.6-3.19,1.83S279,94.23,277,93.41a38.89,38.89,0,0,1-6-3.21C270.85,90.1,272.8,89.46,272.68,87.94Z"/><path class="cls-97" d="M258.58,277.88c8.58.48,14.14,4.81,16.64,13.52.69,2.39,3,4.34,2.08,7.19-8.58,1.1-17.17,2.34-25.57-1a87.3,87.3,0,0,0,22.82.63c-4.58-7.26-8.88-13.9-15.83-18.27C257.57,279.18,258.6,278.55,258.58,277.88Z"/><path class="cls-98" d="M331.56,1021.84c-5-1.24-9.93-2.53-13.93-6.18a3.4,3.4,0,0,0-4.85.28c-3.36-1.23-6.22-3-6.91-6.87,3.87-1.55,6.68-1,9.74,2.52,3.4,3.89,7.78,7.28,13.57,7.31C331.24,1018.91,331.51,1020.27,331.56,1021.84Z"/><path class="cls-98" d="M297,1008.06c2.73-4.67-2.72-3.91-3.94-6,3.46.42,7.24,0,8.24,4.93.41,2,3.51.18,4.55,2-1.8-.27-3,1.14-4.49,1.58C299.33,1011.25,297.51,1010.55,297,1008.06Z"/><path class="cls-65" d="M230,967.65a2.18,2.18,0,0,1,2-1,5,5,0,0,1,0,1c-.3,1.53.84,4.34-1.58,4.12C228.41,971.55,230.68,969,230,967.65Z"/><path class="cls-4" d="M251.62,984.55c1,1.93,3.54,3.08,3,5.81C252.64,989,250.78,987.47,251.62,984.55Z"/><path class="cls-99" d="M582.68,1034.79c-1.46-1.85-.7-4-.84-6-.08-1.25.24-3.08-1.35-3.17-2.16-.13-1.54,1.92-1.66,3.25-.06.63,0,1.28,0,1.92-1.69-2.59-2.25-5,.93-7,1.7-1.09,1-3,1-4.53a21.06,21.06,0,0,0-.13-2.86c-.21-1.7,2.44-3.75,1.25-4.22-2.42-1-4.19-3.31-7.2-3.14-3.29.18-7.37,1.31-7.73-4.3,0-.8-1.49-1.8-2.49-2.18-1.5-.58-2.95-1.33-2.89-2.9.07-2.28,1.87-.84,3-1a1.31,1.31,0,0,0,1.19-1.76c-.26-.79-.44-2.35-1.76-1.75-4.85,2.19-8-1.46-11.48-3.38-4.23-2.32-5.46-2.16-7.08,2.51-.36,1-.23,2.72-1.82,2.2s-.61-1.67-.18-2.78c1-2.67-2.47-7.44-5.8-6.93-3.95.6-6.44-1-9-3.28l1.05-.07a12,12,0,0,1,3.28.78c3.89,2.12,5.18,1,4.23-3.18-.22-1-.69-2,.74-2.32a2,2,0,0,1,2.52,1,20.75,20.75,0,0,1,1.82,5c.43,3,2.44,3.82,4.87,3.61,3.89-.33.21-3.19,1.52-4.62,3,0,4.13,2.25,4.43,4.75s1.55,2.84,3.51,3.19c2.22.4,2.32-1.11,2.85-2.49.38-1,.61-2.5,2.09-2.3,1.17.15,1.87,1.27,2.36,2.33s.79,2.15,1.27,3.18,1.06,1.86,2.19,1.59,1.19-1.27.94-2.36a20.31,20.31,0,0,1-.22-2.93c-.35-4,2.82-3.29,3.81-1.91,1.91,2.68,7.94,3.53,4.71,9-.25.42.86,1.63,1.33,2.48-.14,2.43,2.54,1.5,3.35,2.71.16,2-2.58.44-2.5,2.48a8,8,0,0,0,6.9.14c3.64-1.49,7.51-.7,11.25-1.2,2.14-.28,3.17,1.47,2.07,3.68-.5,1-1.21,1.93-1.77,2.92-.8,1.4.11,2.51.74,3.61.82,1.42,1.89.52,3,.31,5.13-1,10.28-1.86,15.42-2.78-.35,2.06-1.68,4-.74,6.19s-.6,2.2-1.83,3.06c-3.71,2.58-8.65,1.85-12.18,4.78-.49.41-1.25.59-1.67-.18a2.25,2.25,0,0,1,.32-2.72c.68-.73,1.59-1.47.86-2.47s-1.78-.09-2.67.08c-1.75.34-3.51.66-5.23,1.12-1.44.38-2,1.57-.83,2.52,4.2,3.46-.36,3.21-1.75,4.13a4.14,4.14,0,0,1-2.4.19c-4.28-.4-6.25,1.16-5.1,5.68A6,6,0,0,1,582.68,1034.79Z"/><path class="cls-100" d="M536.5,1025.71l.14-1.19c1.13-.33,3.05,1.3,3.3-.47.21-1.52-1-4.52-2.56-4-8.5,2.54-8.52-4.43-10.76-9a.63.63,0,0,1,.17-1c.84.78,1.65,1.59,2.53,2.32,1.32,1.09,2.41,3.55,4.35,2.31,2.26-1.44-.84-3-.61-5.54a25.34,25.34,0,0,1,8.11,14.7C541.86,1027.46,538.2,1025.22,536.5,1025.71Z"/><path class="cls-101" d="M526.79,1010c0,.35-.11.7-.17,1-3.46,0-6.69-1.18-10-2.06,2.36-1.62,5.25-.69,7.81-1.65C526.55,1006.51,526.48,1008.63,526.79,1010Z"/><path class="cls-50" d="M578.91,1030.69c-.17,3.67,2.63,7.13.81,10.92C574.93,1038.3,578.59,1034.37,578.91,1030.69Z"/><path class="cls-102" d="M553.08,1022c-1.06,0-2-.45-1.92-1.6s1.11-1.38,2.11-1.43,2,.15,1.84,1.46A1.79,1.79,0,0,1,553.08,1022Z"/><path class="cls-103" d="M520.58,1036.55c-2.12-.46-3.86-1.31-3.87-3.88C519,1033,520.62,1033.93,520.58,1036.55Z"/></svg>