<?xml version="1.0" encoding="utf-8"?>
<!-- Generator: Adobe Illustrator 23.0.5, SVG Export Plug-In . SVG Version: 6.00 Build 0)  -->
<svg version="1.1" id="Layer_1" xmlns="http://www.w3.org/2000/svg" xmlns:xlink="http://www.w3.org/1999/xlink" x="0px" y="0px"
	 viewBox="0 0 512 512" style="enable-background:new 0 0 512 512;" xml:space="preserve">
<style type="text/css">
	.st0{fill:#F5F5F5;}
</style>
<path class="st0" d="M513.6,242.2c0,9.1,0,18.1,0,27.2c-0.3,1.6-0.7,3.3-0.8,4.9c-1.6,28-7.5,55.1-18.5,80.9
	c-31.1,73.3-84.8,122.5-160.1,148.1c-6.7,2.3-13.7,3.8-20.7,5.7c0-71.6,0-142.5,0-214.1c20.5,0,40.9,0,61.4,0c0-24.1,0-47.5,0-71.6
	c-20.8,0-41.3,0-63.4,0c1.4-13.3,1.5-26,4.3-38c3.9-16.8,14.1-29.2,32.1-32.1c8.5-1.3,17.4-0.4,26,0.1c5.1,0.3,10,1.7,15.2,2.7
	c0.2-1.1,0.4-1.7,0.4-2.4c1.1-22.6,2.2-45.2,3.4-67.8c0.2-3.2-0.9-4.3-3.9-5c-25.3-5.8-50.7-7.4-76.3-2.4
	c-25.9,5.1-48.5,16.7-65.7,37.1c-19,22.4-27.5,49.2-30.3,77.9c-0.9,9.8-1,19.7-1.5,30.2c-13.4,0-26.7,0-40.1,0c0,24.1,0,47.5,0,71.5
	c13.6,0,27,0,40.2,0c0,72.7,0,144.7,0,216.9c-1.5-0.2-2.7-0.3-3.8-0.5c-26.3-4.6-51.2-13.1-74.8-25.5c-43.2-22.8-77.5-55-102.4-96.9
	C6.8,342.8-4.8,292.6-0.9,238.8c3-41.4,15.2-79.9,37-115.1C102.9,15.7,234.5-28.9,352,19.3c89.7,36.8,142.3,105.3,158.8,201.1
	C512,227.6,512.7,234.9,513.6,242.2z"/>
</svg>
