<?xml version="1.0" encoding="utf-8"?>
<!-- Generator: Adobe Illustrator 23.0.5, SVG Export Plug-In . SVG Version: 6.00 Build 0)  -->
<svg version="1.1" id="Layer_1" xmlns="http://www.w3.org/2000/svg" xmlns:xlink="http://www.w3.org/1999/xlink" x="0px" y="0px"
	 viewBox="0 0 516 566" style="enable-background:new 0 0 516 566;" xml:space="preserve">
<style type="text/css">
	.st0{fill:#FFFFFF;}
	.st1{fill:#FA3127;}
	.st2{fill:#1D1D1D;}
	.st3{fill:#FC0001;}
	.st4{fill:#FFF700;}
	.st5{fill:#F0E413;}
</style>
<title>Artboard 3</title>
<g>
	<path class="st0" d="M176.4,382.8c4.1,0,10.3,1,16.8,5.5c5.6,3.8,10,8.7,13.3,14c3.1-7.6,8.8-13.5,16.3-16.8
		c4.3-1.9,8.7-2.9,13-2.9c4.8,0,9.5,1.2,13.8,3.4c2-0.4,3.9-0.7,6-0.7c4.4,0,8.8,1.1,12.9,3.2c3.3,1.6,6.2,3.5,8.9,5.8
		c0.9-1.1,1.8-2.1,2.6-3.1c4.3-4.5,9.2-7.6,14.8-9.2c3.1-0.9,6.1-1.3,9.3-1.3c3,0,5.8,0.4,8.6,1.2c4.7-3,10.1-4.6,15.9-4.6
		c2.4,0,4.8,0.3,7.2,0.9c4.7,1.1,9.1,3,12.9,5.5c1.8-1,3.5-1.9,5.5-2.5c3.3-1.2,6.7-1.9,10.2-1.9c6.1,0,12,2,16.7,5.5
		c1.4-0.2,2.9-0.3,4.3-0.3c5.9,0,11.7,1.8,16.8,5c2.6,1.8,5,3.8,7.1,6.2c0.1-0.4,0.2-0.8,0.2-1.1c3.2-13.2,12.9-22.8,26.4-25.8
		c3.4-0.8,6.5-1.1,9-1.4c0.1,0,0.1,0,0.2,0c0.5-9.3,4.5-18,11.3-24.5c2.7-2.6,5.9-4.9,9.5-6.8c0.2-0.1,0.4-0.2,0.5-0.3
		c0.7-3.1,1.2-6.5,1.6-10.2c0.1-1.4,0.3-2.7,0.4-4.2c0.2-1.8,0.3-3.6,0.5-5.6c0.3-3.3,0.8-7,0.7-10.5v-0.8c0-0.3,0-0.9,0-1.2
		c-0.9-4.8-0.5-8.9-0.2-11.8c0-0.3,0.1-0.8,0.2-1.1c0.2-2.6,1.3-14.7,1.3-14.7c0.1-1.4,0.2-2.9,0.4-4.2c0,0,0.3-3.2,0.4-4.4
		c0.2-2.4,0.4-4.8,0.8-7.1c0.1-1.5,0.2-3,0.4-4.5c0.2-2.2,0.3-4.5,0.7-6.9c0.1-1.5,0.3-3.2,0.5-4.7c0.3-2.5,0.5-4.9,0.8-7.2
		c0.1-1.1,0.1-2.2,0.2-3.3c0.1-0.9,0.1-1.9,0.2-2.7c0.1-1.1,0.2-2.3,0.2-3.4c0.2-2.6,0.4-5.3,0.5-7.8c0-0.2,0-0.7-0.1-1.3l-0.1-0.7
		c-0.3-2.3-0.5-4.7-0.9-7.2c-0.4-4.2-0.3-8.4,0.4-12.6c-0.9-5.5-1.2-10.6-1.4-15.4l-0.1-1.2c-0.2-3.6-0.3-7.1-0.4-10.5
		c0-1.4-0.1-2.9-0.1-4.2v-0.4l-0.8-14c-0.1-1.1-0.1-2.3-0.1-3.4c-0.1-2.1-0.1-4.1-0.3-5.7c0-0.4-0.1-0.9-0.1-1.3
		c-2.1-1.5-3.9-3.1-5.8-4.5c-3.9-3.1-7.5-6.7-10.3-10.6c-3.8-5.3-6.5-11.2-8-17.8c-2.6,0-5.4-0.3-7.9-0.9c-1.9-0.4-3.6-1-5.4-1.6
		c-1.5,0.9-3.2,1.9-5.2,2.7c-4.7,2.1-9.6,3.1-14.6,3.1c-5.5,0-11-1.3-16-3.8c-3.6-1.8-6.9-4.2-10-7c-0.4-0.4-1.3-1.1-3.2-1.6
		c-1.9-0.5-4.1-0.9-6.8-1l-1.8-0.1c-3.5-0.2-6.9-0.4-10-0.4h-0.8c-1.3,0-2.6,0-4.2-0.1c-1.8-0.1-3.5-0.2-5.3-0.2
		c-2.7-0.1-5.4-0.3-8.1-0.4c-1.9-0.1-3.8-0.1-6-0.1c-2.3,0-4.6-0.1-7-0.2c-2.6-0.1-5.4-0.1-8.3-0.2c-2.9,0-5.8-0.1-8.9-0.2
		c-3.7-0.1-6.7-0.2-9.5-0.2c-3.7,0-7,0.1-10.1,0.3c-2.1,0.2-4.1,0.2-6,0.3c-1.3,0.1-2.6,0.1-3.9,0.2c-1.8,0.1-3.5,0.2-5.3,0.4
		c-3.1,0.2-6.1,0.5-9.4,0.7c-2.3,0.1-4.7,0.2-7.1,0.2c-5.2,0-10.4-0.3-15.7-0.9c-2-0.2-3.8-0.4-5.3-0.4c-0.4,0-0.9,0-1.3,0
		c-3.6,0-7.5,0.2-11.7,0.7c-5.2,0.5-10.5,1-16,1.3c-0.8,0-1.4,0.1-2.2,0.1c-3.6,0.2-7.6,0.5-11.8,0.5h-0.2h-0.1
		c-0.8,0-2,0.1-3.4,0.1h-0.3c-1.4,0-2.6-0.1-3.5-0.1c-0.2,0-0.5,0-0.8,0c-4.2-0.1-8.1-0.5-11.2-1l-1.2-0.2c-2.5-0.3-4.8-0.7-6.4-0.7
		h-0.2c-0.8,0-1.5,0-2.3,0c-1.3,0-2.6,0-3.8,0c-0.7,0-1.2,0-1.9,0c-1.6,0-3.4,0-5,0c-4.3,0-9.3,0.1-14.1,0.8
		c-1.5,0.2-3.3,0.4-4.6,0.9c-6.2,5.2-13.8,7.8-21.7,7.8c-3.6,0-7.1-0.5-10.6-1.6c-4.1-1.3-7.8-3.3-11.3-6c-0.3-0.2-0.7-0.4-0.9-0.8
		c-0.8-0.7-1.8-1.3-2.7-2.2c-0.2,0-0.5,0-0.8,0c-3.3,0-6.6,0.2-9.8,0.7L82.4,98c-3.1,0.4-6.1,0.9-9.1,1.4c-2.5,0.4-5.2,0.8-7.5,1.3
		c-0.1,0.3-0.2,0.5-0.3,0.9c-1,2.3-2,4.5-2.6,6.5c-3.5,9.4-9.3,17.1-16.9,22.7c-0.1,1.5-0.1,3.1-0.1,4.5c0,0.1,0,0.7,0,1
		c0,0.7,0.1,1.5,0.1,2.5c0,1.5,0.1,3,0.1,4.5c0.1,3.6,0.1,7,0.3,10.3c0.1,2.7,0.1,5.4,0.1,7.6c0,1,0,2,0,3c0,4.8-0.4,9.2-1.5,13.6
		c-0.4,1.9-0.7,5-0.8,8.3v0.1c-0.2,4.7-0.3,9.9-0.2,15.7c0,2.9,0.1,5.8,0.2,8.9c0.1,2.4,0.1,4.8,0.2,7.3c0.1,5.2,0.1,10.4,0.1,15.8
		c0,2.4,0,4.9,0,7.6c0,2.4,0,4.8,0,7.5c0,5.3,0,10.7,0.3,16.1c0.2,3.4,0.2,6.8,0.3,10.1c0.1,1.9,0.1,3.7,0.2,5.7
		c0.1,2.9,0.2,5.7,0.3,8.6l0.1,3.6c0.4,5.8,0.7,11.3,0.8,16.4c0,3,0,5.9,0,8.8c0,4.9,0,9.6,0.2,14.1c0.2,3.7,0.4,7.7,0.8,11.2
		c0.1,1.1,0.3,2.6,0.5,3.9c3.2,2.4,6,5.4,8.6,8.9c2.7,3.7,4.9,7.9,6.8,12.8c0.2,0.7,0.5,1.4,0.8,2.1c0.5,1.3,1,2.6,1.4,3.7
		c0.4,1,0.8,1.3,0.8,1.3c1,0.8,1.5,0.8,2.1,0.9c2.5,0,5.9,0.1,9.8,0.7c12.1,1.8,19.5,7.8,23.7,12.5c0.1,0.1,0.1,0.1,0.2,0.2
		c5.5-4.6,12.5-7.1,20.4-7.1c1.1,0,2.2,0,3.4,0.1c7.7,0.7,14.7,4.4,19.4,10.4c2.5,0.5,4.8,1.5,7.1,2.7c1.2-1.6,2.5-3.2,3.9-4.7
		C163,384.3,170.9,382.8,176.4,382.8z"/>
	<path class="st1" d="M390.9,558.4c-0.9,0-1.6-0.3-2.2-0.9c-0.7-0.7-1.1-1.3-1.4-2l-0.1-0.1v-0.1c-1-2.2-1.6-4.3-2.1-6.4
		c-0.5-2.5-0.8-5.2-1-7.8c-0.3-3.1-0.4-6.1-0.5-9.1c0-1.5-0.1-3-0.2-4.5c-0.1-2.9-0.2-5.7,0.1-8.6c0.1-1.2,0.1-2.7,0.1-4.2
		c0.1-4.9,0.3-9,0.8-12.8l1-10.3c0.2-2.5,0.5-5.2,0.9-7.7c0.4-2.9,0.7-6,0.8-9.6c0.1-2.1,0-4.1-0.1-6.1c-0.1-1.6-0.2-3.4-0.2-5.2
		c0-1,0-2.1,0-3.1c0-2.1,0-4.3,0-6.4c0.2-4.3,0.4-8.7,1-13.3c0.3-2.5,0.8-5.2,1.2-7.6c0.3-1.6,0.5-3.3,0.9-4.9
		c0.3-2.5,0.8-5.6,0.5-8.4c-0.1-1.6-0.3-3.7-1.3-5.5c-0.5-1.1-1.1-1.6-1.9-2.2c-0.5-0.4-1.2-0.5-1.8-0.5c-0.9,0-1.5,0.4-2,0.8
		c-0.7,0.5-1.1,1-1.3,1.6l-0.1,0.1c-0.7,1.3-1.2,2.5-1.8,3.8l-0.1,0.1c-0.7,1.5-1.4,3.1-2.4,4.4l-0.1,0.1c-0.5,0.8-1.3,1.6-2.4,2.3
		c-0.7,0.3-1.3,0.5-2,0.5c-1.2,0-2.3-0.7-3-1.8c-0.4-0.7-0.8-1.5-1.1-2.2l-0.2-0.5c-0.7-1.8-1.1-3.5-1.5-5.3L367,414
		c-0.2-0.9-0.3-1.6-0.5-2.5c-0.1-0.7-0.2-1.2-0.3-1.9l-0.1-0.3c-0.2-0.5-0.3-1.2-0.5-1.8c-0.2-0.4-0.3-0.8-0.5-1
		c-0.3-0.4-0.5-0.4-0.7-0.4s-0.3,0-0.5,0.1c-1.9,0.7-3.3,1.9-4.4,3.9c-1.3,2.3-2.3,4.9-3.2,8.6c-0.8,3.4-1.2,7.1-1.3,12.1
		c-0.1,3.1-0.1,6.2-0.1,9.2c0,4.1-0.1,8.3-0.3,12.5c-0.1,2-0.1,3.9-0.1,5.8c0,2.6-0.1,5.3-0.3,7.9c-0.1,1.9-0.1,3.7-0.2,5.6
		c0,1.9-0.1,3.8-0.2,5.7c0,1-0.1,2-0.1,3.1c-0.1,3.1-0.3,6.1-0.7,9.2c-0.2,1.2-0.3,2.4-0.4,3.6c-0.1,1.2-0.2,2.3-0.4,3.5
		c0,0.5-0.2,1.1-0.3,1.5v0.1v0.1c-0.5,1.3-1.8,2.1-3.1,2.1c-0.4,0-1-0.1-1.5-0.3c-1.5-0.7-2.7-1.9-3.9-3.4c-1.2-1.5-2.1-3.5-2.4-5.5
		c-0.7-2.9-1.1-5.7-1.3-8.6c-0.2-2.6-0.3-5.4-0.3-8c0-1.8,0-3.4-0.1-5c-0.4-8.7-0.3-17.5-0.2-26.1v-0.1c0.1-5.2,0.2-10.5,0.5-15.8
		c0.3-5,0.1-9.4-0.7-13.5c-0.3-1.6-0.8-3.2-1.4-4.6c-1.3-2.9-3.7-4.7-7.1-5.5c-0.3-0.1-0.7-0.1-1-0.1c-0.5,0-1.2,0.1-2.1,1.5
		c-0.8,1.1-1.2,2.2-1.6,3.9c-0.1,0.5-0.3,1-0.4,1.4c-0.7,2.2-1.3,4.4-2.3,6.5c-0.1,0.1-0.1,0.3-0.2,0.4c-0.2,0.5-0.5,1.1-1,1.8
		c-1.2,1.6-3.1,2.6-5,2.6c-2.1,0-4.1-1.1-5.2-2.9c-0.3-0.5-0.8-1.4-1.1-2.3c-0.3-1-0.7-2-1-2.9c-0.3-1-0.7-1.9-1-2.9l-1-2.2
		c-0.5-1.1-1.3-1.6-2.5-1.6c-0.4,0-0.9,0.1-1.4,0.2c-0.9,0.2-1.6,0.8-2.5,1.8c-1.2,1.2-2,2.9-2.6,4.3c-0.8,2-1,4.1-1.2,6.4l-0.1,1.1
		c-0.4,3.2-0.9,6.9-1.2,10.6l-1,10.3c-0.4,4.5-0.7,9-0.9,13.4c-0.3,5.4-0.8,10.7-1.2,15.9c-0.3,3.8-0.7,7.5-1.1,11.3l-0.1,1.2
		c-0.7,5.6-1.4,12.1-2.9,18.4c-0.9,3.4-2,6.4-3.2,9.2c-1,2.1-2.1,3.6-3.3,4.8l-0.2,0.2c-0.2,0.2-0.7,0.7-1.2,1
		c-0.5,0.4-1.2,0.7-1.9,0.7c-1,0-1.9-0.4-2.6-1.1l-0.1-0.1l-0.1-0.1c-0.3-0.4-0.8-1-1.1-1.6c-2.4-4.1-3.9-8.6-4.7-14
		c-1.1-7.6-1-15.4-0.9-22.9c0-2.7,0.1-5.5,0.2-8.1c0.1-3.5,0.3-7.1,0.3-10.6c0-1.1,0-2.2,0-3.3c0-3.3,0-6.6-0.1-9.9
		c-0.3-7.8-1.4-14.8-3.2-21.4c-1-3.5-2.4-6.2-4.3-8.4c-1.3-1.6-3-2.9-5.2-3.9c-0.2-0.1-0.3-0.1-0.4-0.2c-0.1,0.1-0.2,0.2-0.4,0.4
		l-0.1,0.1c-0.5,0.7-1,1.4-1.5,2.3c-0.2,0.3-0.4,0.7-0.7,1c-0.3,0.7-0.8,1.4-1.2,2.2c-0.4,0.8-0.8,1.5-1.2,2.3
		c0,0.1-0.1,0.1-0.1,0.2c-0.3,0.7-1,2.3-3,2.5c-0.2,0-0.3,0-0.4,0c-2.2,0-3.1-1.9-3.4-2.6c0-0.1-0.1-0.1-0.1-0.2
		c-1.3-2.2-2.6-4.7-3.8-7c-0.4-1-1.1-1.9-1.6-2.7c-1-1.2-1.8-1.3-2.2-1.3c-0.4,0-1.1,0.1-1.8,0.4c-1.1,0.5-1.6,1.1-2.1,2.3
		c-1.5,4.9-2.3,9.4-2.3,14c0,7.7-0.2,15.8-0.4,22.9c-0.2,5.9-0.4,12-0.9,18c-0.2,3.3-0.7,6.4-1,9.6l-0.1,0.5c-0.1,1-0.2,2.2-0.4,3.4
		c0,0.5-0.2,1-0.3,1.3l-0.1,0.1v0.1l0.1,0.1c-0.4,0.9-1.4,1.4-2.4,1.4c-1,0-1.8-0.5-2.2-1.3c-0.1-0.2-0.4-0.5-0.5-1.1
		c-0.5-1.6-1.1-3.3-1.4-4.9c-0.4-2.2-1-4.3-1.5-6c-0.5-1.4-1.1-2.6-1.8-3.6c-0.7-0.8-1.3-1.4-2.1-1.8l-0.1-0.1
		c-0.3-0.1-0.5-0.2-0.8-0.2c-0.3,0-0.5,0.2-1,0.5c-0.8,0.7-1.3,1.6-2,2.6l-0.2,0.3c-1.4,2.5-2.4,5.5-3.2,8.3c-1,3.5-2,7.1-3.5,10.6
		c-1,2.5-2.5,4.7-4.5,6.5c-0.1,0.1-0.3,0.3-0.5,0.4c-0.1,0.1-0.1,0.1-0.2,0.2l-0.1,0.1l-0.1,0.1c-1,0.8-2,1.1-3,1.1
		c-1,0-2.7-0.4-3.7-3c-0.8-2-1.5-4.3-2.2-7c-0.9-3.7-1.4-7.6-1.8-10.9c-0.9-7.2-1.1-14.5-1.3-20.6c-0.1-3.3-0.2-7-0.4-10.6
		c-0.1-2-0.1-3.8-0.2-5.7c0-2.5-0.1-4.9-0.2-7.3c-0.2-3.6-0.4-6.9-1.1-10.3c-0.8-4.1-3.2-7.5-7.2-10.3c-0.7-0.4-0.9-0.4-0.9-0.4
		s-0.2,0-1,0.8c-1.2,1.2-2,2.7-2.6,4.3c-1,2.6-1.4,5.3-1.9,7.6c-0.8,3.8-1.1,7.8-1.4,11.5c-0.4,4.7-0.4,9.9-0.2,15.8
		c0.1,1.3,0.1,2.6,0.1,3.9c0.1,3.3,0.2,6.5,0.5,9.6c0.3,2.6,0.7,5.3,1,8c0.7,4.8,1.3,10.7,1.1,16.8c-0.2,4.2-1.2,7.8-2.9,11
		c-0.5,0.9-1,1.8-1.5,2.5c-0.4,0.5-1,1.2-1.9,1.6c-0.5,0.4-1.3,0.7-2,0.7c-0.7,0-1.3-0.2-2-0.5c-1-0.4-1.6-1.3-2.2-2.3
		c-1.3-2-2.4-4.2-3.2-7c-1-3.5-1.9-6.9-2.9-10.4c-1-3.5-2-6.9-2.9-10.4c-1.4-5-2.2-10.2-2.9-15c-0.5-4.5-1.1-9.5-2-14.5
		c-0.4-2.3-0.9-4.6-1.5-6.8c-0.7-2.1-1.3-4.3-1.9-6.5c-0.7-2.2-1.2-4.3-1.9-6.5c-0.2-0.8-0.4-1.3-0.7-2c-0.2-0.7-0.7-1.2-1.1-1.6
		l-0.1-0.1c-0.2-0.2-0.4-0.3-0.7-0.3c-0.2,0-0.4,0.2-0.8,0.4c-0.5,0.7-0.9,1.4-1.1,2.2c-0.1,0.3-0.2,0.8-0.3,1.1
		c-0.3,0.9-0.5,1.9-1,2.9c-0.3,0.9-1.3,3.4-3.6,3.4c-1.5,0-2.7-1.1-3.6-2.2c-1.1-1.3-1.6-2.7-2-3.7c-0.8-3-1.2-5.6-1.3-8.2
		c-0.1-1.9-0.3-3.2-0.8-4.3c-0.1-0.3-0.3-0.7-0.5-1.1l0,0l0,0c0,0,0,0-0.1,0c-0.3,0-0.7,0-1,0c-1.9,0-3,0.4-3.9,2.6
		c-2.2,5.2-3.3,10-3.3,14.8c0,0.7,0,1.4-0.1,2.1c-0.1,1-0.1,2,0,2.9c0.2,1.9,0.2,3.7,0.2,5.5c0,2.1,0.1,4.2,0.3,6.1s0.3,3.8,0.3,5.8
		c0,1.2,0.1,2.4,0.2,3.6c0.2,2.1,0.2,4.2,0.3,6.2c0,2,0.1,4.1,0.2,6c0.1,1.8,0.2,3.5,0.2,5.2c0.1,1.8,0.1,3.4,0.2,4.9
		c0.1,2,0.2,3.9,0.2,5.8c0,1,0,1.9-0.1,2.7c-0.1,2.6-0.1,5.4-0.3,8c-0.8,8.9-2.4,16.6-5,23.4c-0.7,1.8-1.4,3.5-2.6,5.2
		c-0.4,0.7-1,1.3-1.8,1.9l-0.1,0.1l-0.1,0.1c-1,0.7-2.1,1-3.2,1c-1,0-2-0.3-3-0.9l-0.1-0.1c-1.1-0.8-1.9-1.6-2.4-2.5
		c-1.8-2.5-2.4-5.3-2.9-7.5c-0.5-3.5-1.1-7.5-1.4-12l-0.1-0.9c-0.3-4.2-0.7-8.1-0.8-12.2c-0.2-3.4-0.4-6.9-0.9-10.4
		c-0.2-1.9-0.4-3.7-0.7-5.6c-0.2-1.9-0.5-3.8-0.8-5.7c-0.2-2-0.5-3.9-0.9-5.9c-0.5-3.6-1.1-7.3-1.4-11.1l-1.3-12
		c-0.2-1.6-0.3-3.2-0.5-4.8c-0.3-3.2-0.7-6.4-1.1-9.5c-0.5-3.9-1.4-7.8-2.9-11.6c-0.4-1.4-1.1-2.6-2.1-3.7c-1.6-1.9-3.8-2.9-6.7-3.3
		c-1.5-0.2-3-0.3-4.6-0.3c-0.5,0-1.1,0-1.6-0.1l0,0c-6.8,0-13-2.2-19-6.8c-3.9-3.2-6.8-7.1-9-12.4c-0.4-1-0.8-1.9-1.1-2.9
		c-0.4-1.2-0.9-2.4-1.4-3.6c-0.9-2.5-2.1-4.7-3.4-6.5c-1.1-1.5-2.2-2.7-3.5-3.5c-4.4-3-7.3-7.1-9-12.7c-0.9-3.1-1.4-6.4-1.9-10
		c-0.4-4.2-0.7-8.3-0.9-12.4v-0.3c-0.3-5.4-0.3-10.9-0.3-16c0-2.6,0-5.3,0-7.9c-0.1-5.6-0.3-10.5-0.8-15v-0.1v-0.4
		c-0.1-2.1-0.2-4.2-0.2-6.2c-0.1-2.1-0.1-4.2-0.2-6.2c-0.1-2.5-0.2-5.2-0.2-7.7c-0.1-2.5-0.1-5-0.2-7.6c-1-7-1-14-1.1-20.3
		c0-1.4,0-2.9,0-4.2c0-3.2,0-6,0-8.8c0-5,0-9.8,0-14.4c0-2.6-0.1-5.4-0.2-8.1c-0.1-2.7-0.1-5.5-0.2-8.1c-0.1-4.7-0.1-11,0.2-17.5
		c0.2-4.5,0.4-9.2,1.6-14c0.4-2,0.7-4.1,0.7-6.4c0-0.8,0-1.6,0-2.4c0-2.4,0-4.7-0.1-7c-0.2-5.3-0.3-10.5-0.4-15.6
		c0-1.2-0.1-2.4-0.2-3.6v-0.3v-0.1c0-4.1,0.2-8.1,0.7-12.3c0-0.4,0.1-1,0.1-1.5c0-0.5,0.1-1.2,0.1-1.8c0.1-3,1.4-5.4,3.8-7.1
		l0.5-0.4c1.1-0.8,2.2-1.6,3.6-2.2c4.7-2.3,8.1-6.2,10.1-11.7c1.1-2.9,2.2-5.5,3.4-8.3l0.7-1.5c3.1-7.3,8.8-12.2,17-14.4
		c3.8-1.1,7.8-1.6,11.2-2.1c4.4-0.7,9-1.3,13.6-2.1c4.8-0.7,9.5-1,14.1-1c1.6,0,3.3,0,4.9,0.1c4.6,0.2,8.4,1.9,11.7,4.8
		c1.1,1.1,2.4,2,3.5,3l1,0.8c0.9,0.7,1.8,1.1,2.5,1.3h0.1c0.8,0.2,1.5,0.3,2.2,0.3c1.5,0,3.1-0.7,4.6-1.9c2.4-2.1,5.2-3.5,8.6-4.6
		c3.4-1,6.8-1.5,9.4-2c6.6-1,12.9-1.1,17.8-1.1c1.9,0,3.7,0,5.6,0l0,0c1.2,0,2.4,0,3.6,0.1c1.2,0,2.3,0,3.4,0c0.2,0,0.5,0,0.9,0
		c3,0,5.9,0.3,8.7,0.8c0.8,0.1,1.6,0.2,2.4,0.3l1.5,0.2c2.2,0.3,4.5,0.5,6.7,0.5c0.8,0,1.4,0.1,2.1,0.1s1.3,0.1,2,0.1
		c0.5,0,1,0,1.5,0c0.7,0,1.2-0.1,1.9-0.1c4.2,0,8.6-0.3,12.6-0.7c5-0.3,10.1-0.8,15-1.3c5.4-0.5,9.9-0.8,14.1-0.8c0.7,0,1.4,0,2.1,0
		l0,0c2.6,0,5,0.3,7.7,0.7h0.3c4.6,0.4,8.7,0.8,12.5,0.8c2,0,3.8-0.1,5.7-0.2c3-0.1,5.8-0.4,8.7-0.7c1.9-0.2,3.7-0.3,5.6-0.4
		c1.6-0.1,3.3-0.2,4.8-0.3c1.6-0.1,3.2-0.1,4.8-0.2c4.2-0.3,8.3-0.4,12.8-0.4c3.2,0,6.5,0.1,10,0.2c2.9,0.1,5.8,0.1,8.7,0.2
		c2.9,0,5.8,0.1,8.7,0.2c2.2,0.1,4.4,0.1,6.5,0.1c2.2,0,4.4,0.1,6.6,0.2c0,0,13.5,0.7,13.6,0.7c0.4,0,1,0,1.5,0.1c0.4,0,1,0,1.4,0
		c3.5,0,6.9,0.2,10.3,0.3c1.2,0.1,2.3,0.1,3.5,0.2c4.8,0.2,8.9,0.9,12.8,2.1c5.6,1.5,10.4,4.3,14.5,7.9c1.2,1.1,2.3,1.9,3.4,2.4
		c1.3,0.7,2.5,1,3.8,1c1.1,0,2.2-0.2,3.4-0.8c1.5-0.7,3.1-1.8,4.4-2.7c0.9-0.5,1.5-1.2,2.3-1.8s1.5-1.2,2.3-1.8
		c1-0.8,2.3-1.4,3.5-1.9c1-0.3,2-0.5,3.1-0.5c1.4,0,2.7,0.3,3.9,1c1.1,0.5,2,1.2,2.7,1.9l0.5,0.4c1.4,1.3,3,2.1,4.7,2.5
		c0.8,0.2,1.5,0.3,2.4,0.3c0.7,0,1.4-0.1,2.2-0.2c1.5-0.2,3.1-0.3,4.5-0.3c3.5,0,6.9,0.7,10.3,2.1c4.1,1.8,6.6,4.7,7.7,8.9
		c0.7,2.7,1,5.5,1.3,8.1c0.5,4.5,1.9,7.9,3.9,10.7c1.4,1.9,3,3.5,4.8,4.9c3.3,2.6,6.7,5.2,10.1,7.7c3.2,2.4,5.2,5.5,5.8,9.6
		c0.2,1.3,0.2,2.6,0.3,3.8c0.1,1.2,0.1,2.4,0.3,3.5c0.3,3.5,0.4,7,0.5,10.4v0.1c0.2,4.6,0.4,9.3,0.8,14v0.1v0.7
		c0.1,1.4,0.1,3.1,0.2,4.6c0.1,3.1,0.2,6.2,0.4,9.3c0.1,1.1,0.1,2.2,0.2,3.3c0.3,4.7,0.7,9.5,1.6,14.1v0.1c0.2,1.2,0.1,2.2-0.2,3.2
		c-0.7,2.3-0.9,4.7-0.7,7.3c0.2,2.3,0.5,4.8,0.9,7.2c0.2,2.4,0.3,4.6,0.2,6.6c-0.1,2-0.2,3.8-0.4,5.7c-0.1,1.9-0.2,3.7-0.3,5.7
		c-0.1,2.1-0.2,4.2-0.4,6.5c-0.2,2.7-0.5,5.5-0.9,8.1c-0.1,1.4-0.3,2.9-0.4,4.3l-1,11.2c-0.1,1.8-0.3,3.5-0.5,5.2
		c-0.2,1.9-0.4,3.8-0.5,5.8c0,0.8-0.1,1.6-0.2,2.4c-0.1,0.8-0.1,1.5-0.2,2.3c-0.2,2.6-0.4,5.2-0.8,7.7c-0.2,2.5-0.4,4.9-0.7,7.5
		c0,0.8-0.1,1.4-0.2,2c-0.2,1.2-0.2,2.1,0,2.9c0.5,2.3,0.5,4.5,0.5,6.7c0.1,4.9-0.4,10-0.9,14.1l-1,9.6c-0.8,7.3-1.9,13.3-3.5,18.6
		l-0.7,2.1c-1.5,4.2-4.4,7.3-8.3,9.2c-1.4,0.5-2.9,1.3-4.4,2.2c-1.1,0.5-2.1,1.3-3.2,2.2c-1.9,1.9-2.7,3.8-2.9,6.4
		c-0.1,4.2-1,8.1-2.7,12.1c-0.3,0.8-0.7,1.5-1.1,2.4c-0.3,0.8-0.7,1.5-1,2.2c-2.1,4.5-5.6,7.1-10.5,7.8l-7.6,1l-0.5,0.1
		c-2.5,0.3-5.2,0.7-7.7,1.1c-3,0.7-4.6,2.2-5.3,5c-0.9,3.5-1.3,6.4-1.3,9.1c-0.1,3.3-0.3,6.6-0.7,9.8c-0.1,1.6-0.2,3.2-0.3,4.8
		c0,1.2-0.1,2.5-0.1,3.8c0,1.3-0.1,2.6-0.1,3.9c0,3-0.4,6-1.4,9.1c-0.5,1.6-1.2,3.1-2.2,4.5c-0.1,0.1-0.2,0.3-0.3,0.4v0.1l-0.1,0.2
		l-0.2,0.2c-0.7,0.8-1.6,1.3-2.6,1.3c-1.2,0-2.3-0.8-3-2c-0.3-0.5-0.5-1.2-0.7-1.6l-3.6-11.4c-0.5-1.9-1.3-3.7-2.4-5.3
		c-0.7-0.9-1.3-1.5-2.2-2c-0.5-0.2-1.1-0.4-1.6-0.4c-0.8,0-1.6,0.3-2.4,1c-1.2,1-2,2.5-2.4,3.8c-0.5,1.2-0.9,2.5-1.1,4.3
		c-0.3,2.1-0.7,4.2-0.9,6.1c-0.1,1-0.2,2.1-0.4,3.1c-0.5,3.8-1.1,7.9-1.5,11.8l-1,9.4c-0.4,4.2-0.8,8.6-1.1,12.7v0.5
		c-0.1,2.4-0.1,4.7-0.2,7.1c-0.1,2.3-0.1,4.6-0.2,6.9c-0.1,2.4-0.2,4.7-0.2,7c-0.1,2.4-0.2,4.7-0.3,7.1c-0.2,4.2-0.4,8.4-0.9,12.5
		l-0.2,2.9c-0.3,4.1-0.7,8.3-1.3,12.6c-0.8,5.6-1.5,11.2-2.3,16.7c0,0.3-0.1,0.5-0.1,0.8c-0.2,1-0.3,2.2-0.9,3.4
		c-0.7,1.6-1.9,3-3.3,3.7h-0.1h-0.1C391.9,558.3,391.4,558.4,390.9,558.4z M205.9,445.8c0.7,0.7,1.2,1.2,1.8,1.6
		c0.5,0.4,1.1,0.7,1.4,0.7c0.5,0,1.2-0.5,1.6-1.1c0.7-0.8,1.1-1.4,1.5-2.3c1.3-2.3,2.3-4.9,3.1-7c2-6,2.9-12.5,3.7-18.7v-0.3
		c0.5-4.4,1.1-9,2.2-13.5c0.9-3.6,1.9-6.4,3.2-8.9c1.6-3.1,3.6-5.4,5.9-7c1.8-1.2,3.6-1.8,5.5-1.8c2.4,0,4.7,1,6.5,2.7
		c1.2,1.2,2.2,2.6,3.1,4.1l0.1,0.1c0.9,1.4,1.8,2.7,2.7,4.2c0.5,0.8,1.2,1.4,2,2c0.5,0.3,1.3,0.5,2.1,0.5c1,0,1.9-0.3,2.5-1
		c0.9-0.9,1.6-2,2.2-3.2c0.7-1.4,1.4-3.1,2.3-4.5c0.7-1.2,1.4-2.2,2.5-3.1c1-0.8,2.2-1.4,3.5-1.4c1.4,0,2.6,0.8,3.3,1.4
		c0.1,0.1,0.3,0.2,0.5,0.3c0.2,0.1,0.4,0.3,0.7,0.4l0.1,0.1c4.7,4.1,7.3,9.4,8,15.8c0.2,2.9,0.3,5.6,0.4,8.3c0,1.1,0,2.1,0.1,3.1
		c0.1,1.1,0.2,2.5,0.8,3.5c0.2,0.3,0.8,0.8,1.4,0.8c0.3,0,0.7-0.1,1-0.4c1.8-1.4,2.9-2.9,3.5-4.6c0.4-1.3,0.9-2.5,1.1-3.8
		c0.7-3.3,1.2-6.7,1.8-10l0.2-1.5c0.5-3.2,1.3-5.9,2.3-8.4c1.6-3.7,3.9-6.5,7-8.3c1.4-0.9,3.1-1.4,4.6-1.4c1.8,0,3.5,0.5,5.2,1.6
		c1.5,1,3,2.5,4.2,4.7c0.8,1.3,1.4,2.7,2.2,4.1c0.2,0.3,0.4,0.8,0.5,1.2c0.7,1.4,1.3,2.6,2.2,3.7l0.1,0.1c0.2,0.2,0.3,0.3,0.4,0.4
		c0.2-0.2,0.4-0.3,0.7-0.5c0.9-0.9,1.6-1.9,2.3-3l0.1-0.1c0.4-0.7,1-1.3,1.4-2c0.4-0.7,1-1.3,1.4-2c0.8-1.2,2.1-2.3,3.6-3.2
		c1.3-0.8,2.6-1.2,4.1-1.2c1.1,0,2.2,0.2,3.3,0.8c1.4,0.7,2.7,1.5,3.9,2.7c0.8,0.8,1.6,1.8,2.4,2.6c1.3,1.4,2.4,2.5,3.7,3.3
		c0.9,0.4,1.8,0.8,2.5,0.8c1.1,0,2.2-0.5,3.1-1.5l2.6-2.9c0.7-0.8,1.3-1.5,2.1-2.3c0.7-0.7,1.3-1.1,2-1.4c1.2-0.7,2.3-1,3.5-1
		c1.1,0,2.2,0.2,3.2,0.8c1.2,0.7,2.1,1.4,2.7,2.1l3.5,3.8c0.2,0.2,0.4,0.4,0.8,0.8c0.4,0.5,1,1.1,1.5,1.5c0.4,0.3,0.9,0.5,1.2,0.5
		c0.3,0,0.8-0.2,1.2-0.5l0.1-0.1c0.4-0.3,1-0.8,1.4-1.2l0.1-0.1c2.2-1.9,4.7-2.9,7.5-2.9c1.2,0,2.4,0.2,3.7,0.5c1,0.3,1.9,0.7,2.6,1
		l0.8,0.3c3,1.2,3.8,2.4,3.8,5.7v0.7c0,2.7,0.5,5.5,1.5,8.1c0.9,2.2,2.4,3.6,4.7,4.3c0.7,0.2,0.9,0.2,1,0.2l0,0c0,0,0.2-0.1,0.5-0.8
		c0.4-0.7,0.8-1.3,1.2-2c0.3-0.7,0.8-1.2,1.1-1.9l0.1-0.1c0.5-0.8,1.1-1.4,1.6-2.1c1.1-1.1,2.5-1.6,4.1-1.6c1.6,0,3.1,0.7,4.2,1.9
		c0.7,0.7,1,1.3,1.4,2.1l0.2,0.4l2,3.9c0.4,0.8,0.9,1.4,1.3,1.9c0.7,0.5,1.2,0.9,1.6,0.9c0.2,0,0.5-0.1,0.9-0.2h0.1h0.1
		c0.9-0.3,1.4-1,1.8-1.6c0.8-1.4,1.2-3,1.6-5c0.5-2.4,0.8-4.9,1-7.5c0.1-0.9,0.1-1.8,0.2-2.5c0.7-5.3,2.1-10,4.4-14.3
		c2.1-3.8,5.4-6.1,9.8-6.8c1.5-0.2,3.1-0.5,4.5-0.9c3.4-0.8,6.6-2,9.5-3.7c2.1-1.2,3.7-2.9,4.8-5.3c0.4-1,0.9-2,1.2-3
		c0.7-1.9,1.2-3.6,1.8-5.4c0.5-1.8,1.2-3.6,1.8-5.4c1.8-5.5,3.4-9.6,5.5-13.4c2.5-4.6,5.9-7.8,10.1-9.5c0.7-0.3,1.1-0.8,1.6-1.5
		c0.1-0.2,0.2-0.4,0.3-0.7c0.1-0.2,0.2-0.4,0.3-0.7c1.3-3.1,1.9-6.4,2.3-9.4c0.5-4.1,0.9-8.2,1.3-12.2l0.1-1.1
		c0.1-1,0.2-1.9,0.2-2.7c0.1-0.9,0.2-1.9,0.3-2.9c0.2-2,0.3-4.1,0.5-6.1c0.2-1.9,0.3-3.7,0.5-5.5c0.1-1.3,0.2-2.6,0.2-3.9
		c0.1-1.3,0.2-2.7,0.3-4.1c0.2-2.2,0.3-4.4,0.4-6.5c0.2-3,0.3-5.9,0.5-8.8c0.2-2.9,0.3-5.8,0.5-8.7c0.2-3.2,0.3-6.4,0.3-9.5
		c0.2-5.5,0.3-11.1,0.4-16.4v-0.4c0.1-2.9,0.1-5.8,0.1-8.7l0.3-14.4c0-0.1,0-0.3,0-0.4c0-0.1,0-0.2,0-0.3c-0.5-1.1-0.4-2.2-0.4-3.1
		v-0.4c0-2.9,0-5.6,0-8.4c0.1-8.2,0.1-16.7-0.3-25c-0.1-2.4-0.2-4.7-0.2-7.1c0-1.2,0-2.3-0.1-3.5c-0.2-5.4-0.5-11.1-1.4-16.4
		c-0.3-2.5-0.9-4.9-1.5-7.1c-1.4-4.2-3.9-6.9-7.8-8.2c-1.9-0.7-3.4-1.6-4.9-3.2c-4.4-4.3-7.9-9.3-10.6-15.6c-1.9-4.3-3.2-9-3.9-14.7
		c0-0.2-0.1-0.3-0.1-0.4c-0.1,0-0.5,0.1-0.5,0.1c-2,0.2-4.1,0.4-6.1,0.4c-2.7,0-5.4,0-8.1,0.4c-3.6,0.5-6.4,1.1-8.8,1.8
		c-2.5,0.8-5,1.9-7.7,3.4c-3.2,1.9-6.7,2.9-10.6,2.9c-0.4,0-0.9,0-1.4,0c-2.2-0.1-4.3-0.4-6.2-0.8c-5.4-1-9.9-3.1-13.9-6.2
		c-1.3-1.1-2.5-2.3-3.6-3.6c-1.5-1.8-3.6-2.9-6.1-3.3c-1.1-0.2-2.4-0.2-3.8-0.2c-1.4,0-3,0.1-4.1,0.2c-2.9,0.2-5.7,0.4-8.8,0.5
		c-2.1,0.1-4.3,0.1-6.4,0.1s-4.2,0-6.4-0.1c-0.2,0-0.4,0-0.7,0c-4.2,0-8.4,0-12.6-0.2c-3.4-0.1-7-0.1-10.4-0.1
		c-5.2,0-10.5,0-15.8-0.3c-2.3-0.1-4.6-0.1-6.9-0.1c-3.1,0-6.2-0.1-9.4-0.3c-1.9-0.1-3.8-0.1-5.7-0.2c-2,0-3.9-0.1-5.9-0.2
		c-2.2-0.1-4.4-0.1-6.6-0.2c-2.2,0-4.5-0.1-6.7-0.2c-3.8-0.1-7.7-0.2-11.5-0.2c-1.9,0-3.8,0-5.8-0.1c-4.4-0.1-8.9-0.2-13.2-0.2
		c-4.4,0-8.9-0.1-13.3-0.2c-5.4-0.1-10.7-0.2-16.1-0.2c-5.3,0-10.9-0.1-16.2-0.2c-6-0.1-12.3-0.2-18.2-0.2c-6,0-12.2,0-18.3-0.2
		c-4.3-0.1-8.4-0.1-12.8-0.1c-0.5,0-1.2,0-1.8,0.1c-4.3,0.5-8.2,1.8-12.4,3.6c-1.1,0.5-2.3,1.1-3.5,1.6c-1.2,0.5-2.4,1.2-3.5,1.8
		c-3.4,1.8-6.9,3-10.3,3.6c-1.5,0.3-3.2,0.4-4.7,0.4c-1.8,0-3.5-0.2-5.2-0.5c-2.9-0.7-5.5-2-8.2-4.1l-0.5-0.3c-1.1-0.8-2-1.5-3.1-2
		c-0.9-0.4-1.6-0.5-2.3-0.5c-0.5,0-1.1,0.1-1.8,0.3c-0.5,0.2-1.2,0.4-1.8,0.7h-0.1h-0.1c-1.6,0.2-3.2,0.5-4.8,0.9
		c-1.6,0.3-3.3,0.7-4.9,0.9c-4.5,0.7-7.9,1.3-11,2.2c-2,0.5-4.3,1.2-6.4,2.4c-2.7,1.5-4.8,3.5-6.1,6c-1.1,2.1-2.3,4.6-3.2,7.2
		c-3.6,10.4-7.7,18.4-12.9,25.4c-1.8,2.3-3,5-3.5,8.3c-0.7,3.2-0.8,6.6-1,9.9l-0.1,1.8c-0.1,2.3-0.1,4.7-0.1,7
		c0,5.2,0,10.3,0.1,15.4c0.1,8.4,0.1,17.1,0,25.7c-0.1,6.7-0.3,13.4-0.7,20v0.7v0.1c-0.2,2.3-0.3,4.5-0.5,6.8
		c-0.2,2.2-0.3,4.5-0.5,6.7l-0.9,14.9c-0.1,1.3-0.1,2.6-0.2,3.9c0,1.3-0.1,2.7-0.2,4.1c-0.3,3.2-0.3,6.2-0.4,9.6
		c0,1.5-0.1,3.1-0.1,4.7c0.4,3.4,0.7,7.9,0.5,13.6c0,1.9,0,3.8,0.1,5.9c0,3.9,0,8.1,0.2,12.3l1,14.4c0.1,1.4,0.2,2.7,0.4,4.2
		l0.1,0.5c0.2,1.4,0.3,2.7,0.5,4.2c0.2,1.4,0.4,2.9,0.5,4.2c0.4,3.9,1.1,7.5,1.8,10.6c0.9,3.4,1.9,6.1,3.1,8.6
		c1.5,2.9,3.7,4.8,6.6,6c0.2,0.1,0.4,0.2,0.7,0.3c0.1,0,0.1,0.1,0.2,0.1c2.6,1,4.6,2.7,5.8,5.3c1.1,2.2,2.2,4.5,3.2,6.8
		c0.9,1.8,1.8,3.8,2.6,5.8c0.7,1.4,1.4,2.7,2.5,4.1c2.3,3,5.5,4.6,9.5,4.8c0.3,0,0.7,0,1,0c1.6,0,3.3-0.2,5-0.5
		c0.8-0.1,1.5-0.2,2.3-0.2c1.3,0,2.5,0.2,3.7,0.7c3.1,1,5.4,3.2,6.8,6.4c1.5,3.6,2,7.1,2.3,10.5c0.2,2.4,0.4,4.7,0.8,7
		c0.7,5.2,2.7,10,6.1,14.6c0.1,0.1,0.2,0.3,0.3,0.4l0,0c0.2-0.2,0.3-0.4,0.4-0.7c0.9-2.3,1.5-4.4,1.8-6.5c0.1-1.5,0.3-3,0.5-4.4
		c0.8-4.2,2.1-8.1,4.1-12.2c2.1-4.4,4.7-8.6,8-12.7c1.9-2.4,3.5-4.3,5-5.9c1.1-1.1,2.5-2.2,4.4-2.2c2.2,0,3.6,1.6,4.5,2.9
		c1.2,1.6,2.4,3.4,3.4,5.7l4.6,10.9c0.9,2.2,1.6,3.8,2.6,5.4c0.7,1.1,1.2,1.8,1.9,2.3c0.3,0.2,0.7,0.3,1,0.3c0.5,0,1-0.3,1.2-0.9
		c0.1-0.3,0.2-0.8,0.3-1.2V406c0,0,0.2-0.5,0.2-0.9c0.2-0.8,0.4-1.5,0.9-2.3c0.9-2,2.3-2.4,3.3-2.4c0.7,0,1.3,0.2,2,0.5
		c1.5,0.9,2.9,2,3.7,3.3c0.7,1,1.3,2,2,2.9c0.1,0.2,0.3,0.4,0.5,0.7c0.3,0.4,0.5,0.8,0.9,1.1c0.7,0.5,1.3,0.9,2,0.9
		c0.5,0,1.2-0.2,1.9-0.8c1-0.7,1.6-1.6,2.3-2.4c0.5-0.8,1-1.5,1.4-2.3c0.2-0.3,0.3-0.7,0.5-0.9c0.5-0.9,1.1-1.9,1.6-2.9
		c0.5-1,1.1-2,1.6-2.9c1.3-2.3,3.1-4.4,5.2-6c1.6-1.3,3.3-2.1,5-2.1c1.3,0,2.6,0.3,4.1,1.1c0.1,0.1,0.3,0.1,0.4,0.2l0.1,0.1l0.1,0.1
		c4.5,3,7.8,6.6,10.1,11.1c2,3.6,3.2,7.8,3.7,13.5c0.3,3.2,0.4,6.4,0.5,9.4c0.1,3.5,0.4,6.2,0.9,8.7
		C201.1,438.6,202.9,442.5,205.9,445.8z"/>
	<path class="st2" d="M362.5,411.7c-1.1,0.7-1.4,1.5-1.8,2.4c-1,2.7-1.8,5.5-2.3,8.3c-0.8,3.8-1.1,7.8-1.2,11.7
		c-0.4,13.8-0.9,27.6-1.3,41.3c-0.1,5-0.3,10.1-0.5,15.2c-0.1,3.5-0.5,7-1.5,10.4c-0.2,0.8-0.5,1.6-0.9,2.3c-1,1.9-2.5,2.5-4.6,2.2
		c-0.3,0-0.7-0.2-1-0.2c-3.8-1.2-6.7-3.6-8.3-7.2c-1.2-2.6-1.8-5.5-2.1-8.3c-0.9-6.1-1.3-12.3-1.3-18.5c0-8-0.1-16,0.2-24.1
		c0.2-5.7,0.3-11.4,0.3-17.1c0-3.8,0-7.8-0.5-11.6c-0.2-2-0.5-3.9-1.3-5.7c-0.8-1.8-1.8-3.2-3.2-4.4c-1.1-0.9-1.8-0.9-2.7,0.2
		c-0.9,1-1.5,2.2-2.1,3.4c-0.4,1.2-0.9,2.5-1.3,3.8c-0.3,1-0.5,2.1-0.9,3.1c-0.3,1.2-0.9,2.3-1.8,3.4c-1.8,2.3-4.8,3.6-8.3,2.5
		c-1.5-0.5-3-1.4-4.1-2.5c-2.6-2.5-4.3-5.6-5.4-9c-0.1-0.4-0.2-1-0.4-1.4c-0.2-0.5-0.9-0.8-1.4-0.4c-0.8,0.4-1,1.2-1.3,1.9
		c-1,2.4-1.8,4.9-2.3,7.5c-1.2,5.5-1.6,11.2-1.6,16.8c0,5.3-0.3,10.5-0.9,15.8c-0.2,2.2-0.5,4.4-1,6.5c-0.7,3.3-1,6.6-1.1,9.9
		c-0.2,7-0.8,13.9-1.8,20.8c-0.9,6.4-2.3,12.6-4.3,18.6c-1,3.1-2.4,5.8-4.4,8.3c-1.8,2.2-3.9,3.4-6.7,3.5c-3.4,0.1-6-1.4-7.7-4.4
		c-1-1.6-1.6-3.4-2.3-5.2c-1.6-4.5-2.5-9.2-3-14c-0.8-7.8-0.2-15.6,0.3-23.5c0.7-8.2,1.2-16.4,1-24.7c-0.2-7.6-1.1-15-3-22.4
		c-0.4-1.9-1.1-3.7-2-5.6c-0.5-1.2-1.3-2.3-2.1-3.4c-1.5-2.3-2.4-1.8-3.8,0c-0.7,0.9-1.1,1.9-1.4,2.7c-0.4,1.1-1,2.2-1.5,3.3
		c-1.6,2.9-4.6,3.5-7.5,2c-0.9-0.5-1.6-1.3-2.3-2.2c-0.9-1.2-1.5-2.5-2.2-3.8c-0.9-1.8-1.8-3.5-3-5.2c-0.2-0.2-0.3-0.4-0.4-0.7
		c-1.1-1.3-2.1-1.2-2.7,0.5c-0.8,2.2-1.3,4.5-1.4,6.8c-0.4,5.8-0.5,11.5-0.7,17.3c-0.1,8.7-0.2,17.3-0.3,26
		c-0.1,3.8-0.2,7.6-0.3,11.4c-0.2,3.8-0.7,7.6-1.6,11.3c-0.4,1.6-1.2,3.2-2.1,4.6c-0.2,0.4-0.5,0.8-1,1.1c-0.4,0.4-1,0.5-1.5,0.2
		c-0.4-0.2-1-0.5-1.4-1c-1.9-1.8-3.4-3.7-4.3-6.2c-0.4-1.3-0.9-2.6-1.2-4.1c-0.9-3.7-2.1-7.3-3.3-11c-0.1-0.3-0.2-0.7-0.3-1
		c-0.3-0.5-1.1-0.5-1.4-0.1c-0.2,0.3-0.4,0.7-0.7,1c-2,3.1-3.2,6.4-4.3,9.9c-0.9,2.7-1.8,5.5-2.6,8.2c-1.3,3.8-3.4,7.1-6.4,9.8
		c-0.5,0.5-1.2,1-1.9,1.4c-1.1,0.5-2.2,0.5-3.2-0.2c-0.7-0.4-1.2-1-1.6-1.6c-2.7-3.2-4.5-6.8-5.4-10.9c-0.7-2.9-1-5.7-1.2-8.6
		c-0.7-7.8-1.2-15.6-1.9-23.4c-0.8-9.6-1.3-19.4-1.4-29.1c0-2.7-0.3-5.4-1.4-7.9c-0.5-1.3-1.2-2.5-2.1-3.6c-0.3-0.4-0.7-0.9-1.2-1.2
		c-0.9-0.5-1.6-0.3-2.2,0.5c-0.2,0.3-0.3,0.8-0.4,1.2c-2.5,7.1-3.5,14.5-3.4,22c0,3.5,0,7,0,10.5c0,4.8,0.5,9.6,1.1,14.5
		c0.8,6.2,1.6,12.6,2.2,18.9c0.4,4.6,0.4,9.1-0.8,13.6c-0.3,1.5-0.8,3-1.5,4.4c-1.6,3.5-4.4,5.8-8,7c-1.5,0.5-2.9,0.2-4.1-0.8
		c-2.5-2.3-4.3-5-5.4-8.2c-0.7-2-1.1-4.1-1.5-6.1c-1.2-5.7-3-11.3-4.6-16.9c-1.1-3.6-2.2-7.2-3.2-11c-1.3-4.9-2-10.1-2.6-15.1
		c-0.8-6.4-1.6-12.7-3.4-18.9c-0.4-1.6-1.1-3.3-1.6-5c-0.1-0.3-0.3-0.4-0.7-0.5c-0.3-0.1-0.7,0.1-0.9,0.4c-0.1,0.2-0.2,0.5-0.3,0.8
		c-0.4,1.1-0.7,2.3-0.8,3.5c0,0.9,0,1.6-0.1,2.5c-0.1,1-0.1,2-0.2,3c-0.2,1.8-1,2.2-2.6,1.5c-2.1-0.8-3.8-2.1-5.2-3.8
		c-1-1.4-1.8-2.9-2.4-4.5c-1.2-3.1-2.3-6.2-3.4-9.3c-0.1-0.4-0.3-0.8-0.4-1.2c-0.2-0.4-1-0.4-1.2,0c-0.2,0.3-0.3,0.7-0.3,1
		c-0.7,3.4-1.3,6.9-1.6,10.4c-1.2,11.5-1,23-0.5,34.6c0.3,10.1,0.9,20.2,0.5,30.2c-0.2,7.9-1.3,15.6-3.8,23
		c-1.3,3.9-3.5,7.2-6.8,9.8c-1,0.8-2.1,1.4-3.4,1.8c-1.8,0.4-3.2,0-4.6-1c-0.9-0.7-1.5-1.6-2.2-2.6c-1.3-2.2-2.1-4.6-2.6-7.1
		c-0.7-3.1-0.9-6.1-1.2-9.2c-0.5-5.4-1.1-10.7-1.6-16.2c-0.3-4.2-0.7-8.4-0.9-12.6c-0.3-5.4-1-10.7-2.3-16.1
		c-0.9-3.4-1.2-6.8-1.5-10.2c-0.7-6.8-1.2-13.6-1.9-20.4c-0.4-4.9-1.4-9.8-2.9-14.5c-0.1-0.3-0.2-0.7-0.3-1c-0.7-2.2-2-3.6-4.1-4.6
		c-3-1.4-5.9-2.6-9-3.7c-3.9-1.4-7.9-2.9-12-4.2c-1.8-0.7-3.5-1.3-5.3-2.2c-8-4.1-13.2-10.4-15.6-19c-0.5-1.9-1.1-3.6-2-5.3
		c-1.8-3.4-4.3-6.1-7.7-8c-4.8-2.5-7.9-6.5-9.5-11.6c-2.1-6.6-3.2-13.3-2.5-20.2c0.7-7.3,0.3-14.6,0-21.9
		c-0.2-5.7-0.4-11.4-0.7-17.1c-0.4-9.6-0.9-19.3-1.1-28.9c-0.3-9.4-1-18.9-0.9-28.3c0.1-7.2,0.2-14.5,0.4-21.7
		c0.2-8,0-15.9-0.4-23.8c-0.3-5.4-0.7-10.6-1-16c-0.3-5.5-0.8-11-1.1-16.4c-0.4-7.6-0.5-15-0.1-22.6c0.4-5.9,1.2-12,2.9-17.7
		c0.9-3,2-5.7,3.3-8.4c1.5-3.2,3.7-5.5,6.9-7.1c4.7-2.3,7.9-6,10.1-10.7c0.9-2,1.5-3.9,2.1-5.9c0.4-1.8,1.1-3.5,1.8-5.2
		c2.6-6.4,7.1-11.1,13.4-14c3.9-1.9,8.2-3,12.5-3.7c5.2-0.9,10.4-1.4,15.7-1.8c5.2-0.3,10.4-0.8,15.6-1.2c1.3-0.1,2.6-0.3,3.9-0.4
		c1.6-0.1,3.3-0.1,4.7,0.9c0.5,0.3,1.2,0.4,1.9,0.4c2.9-0.1,5.4,0.9,7.7,2.5c1.5,1,2.9,2.3,4.3,3.4c0.9,0.8,1.9,1.5,2.7,2.3
		c1.5,1.2,3.2,1.3,4.9,0.3c1-0.5,2-1.2,2.9-1.8c3.5-2.4,7.3-4.2,11.5-5.2c3.2-0.8,6.4-1,9.6-0.8c5.9,0.4,11.8,0,17.8-0.5
		c5-0.4,10.1-0.8,15.2-0.5c2.1,0.1,4.2,0.3,6.2,0.8c4.4,1,8.9,1.2,13.5,1c5.9-0.2,11.8-0.5,17.8-0.8c4.2-0.2,8.4-0.2,12.7-0.3
		c12.7-0.3,25.4-0.2,38.3-0.2c12.6,0,25.2-0.3,37.8-0.7c8.8-0.2,17.5-0.2,26.4,0.1c6,0.2,12.1,0.3,18.2,0.5c7.7,0.3,15.4,0.7,23,1.1
		c2.6,0.1,5.4,0.2,8,0.4c9.1,1,17.4,3.9,24.9,9.2c1.3,0.9,2.6,1.8,3.9,2.5c0.8,0.4,1.6,0.8,2.5,1.1c2,0.8,3.8,0.5,5.7-0.4
		c1.6-0.9,3.1-2,4.5-3.2c1-0.8,2-1.6,3-2.3c2.9-2,6-2.7,9.4-2.2c1.1,0.1,2.1,0.4,2.9,1.2c3.6,3.4,7.9,3.9,12.6,3.7
		c2.1-0.1,4.1-0.2,6.1-0.2c2.7,0,5.3,0.7,7.7,1.9c4.3,2.1,7.2,5.5,8.7,10.1c0.8,2.3,1.1,4.6,1.2,7c0.1,1.6,0.4,3.4,0.9,4.9
		c1.2,4.4,3.6,7.9,7.2,10.5c1.2,0.9,2.4,1.6,3.6,2.5c2.2,1.5,4.3,3.2,6,5.3c0.9,1,1.9,1.5,3.3,1.5c1.8,0,2.5,0.5,3,2.4
		c0.7,2.4,1.2,4.7,1.8,7.1c1.2,6.2,1.9,12.6,2.2,19.1c0.7,10.4,1.1,20.9,1.4,31.5c0.1,4.2,0.1,8.3,0.3,12.5
		c0.3,8.9,0.2,17.8,0.2,26.6c0,6.1-0.2,12.3-0.3,18.4c0,3.7,0.2,7.5,0.7,11.2c0.3,3.6,0.3,7.1,0.2,10.7c-0.1,6.1-0.8,12.2-1.6,18.3
		c-1.1,7.7-2.4,15.4-3.4,22.9c-1.3,9.2-2.3,18.4-2.7,27.7c-0.3,6.2-1.2,12.3-3.3,18.2c-0.2,0.5-0.4,1.2-0.7,1.8
		c-1.5,4.1-4.2,6.9-8.1,8.8c-1.9,0.9-3.7,1.9-5.7,2.7c-3.1,1.4-5,3.7-6,6.9c-0.5,1.9-0.8,3.8-1.1,5.8c-0.4,2.7-0.9,5.6-1.6,8.2
		c-0.1,0.4-0.2,0.8-0.3,1.2c-1.8,5.7-5.6,9.4-11.4,11.2c-2,0.7-3.9,0.9-6,1.2c-3.4,0.5-6.8,1.2-10.1,2.1c-2.7,0.7-4.4,2.3-5.3,4.9
		c-1.1,3.3-1.8,6.7-2,10.1c-0.5,7-0.9,14-1.3,21.1c-0.2,3.8-0.7,7.7-1.6,11.5c-0.2,0.8-0.4,1.4-0.8,2.2c-1,2.6-3,3.8-5.7,3.8
		c-2.1,0-4.2-0.3-6.2-1.1c-1.8-0.5-2.9-1.8-3.5-3.4c-0.5-1.6-0.9-3.3-1.2-4.9c-0.3-2.2-0.5-4.4-0.9-6.5c-0.2-1.4-0.5-2.7-0.9-4.2
		c-0.1-0.7-0.5-1.3-1.1-1.8c-0.9-0.8-2.1-0.7-2.7,0.3c-0.4,0.7-0.7,1.4-0.9,2.1c-0.9,3.2-1.5,6.5-2.1,9.6c-1.3,8-2.1,16-2.6,24.1
		c-0.5,7.9-0.8,15.9-1.2,23.8c-0.3,5.4-0.7,10.9-1.1,16.2c-0.3,4.1-0.7,8.1-1,12.2c-0.4,4.6-1,9.1-1.5,13.6
		c-0.4,4.3-1.1,8.6-1.9,12.7c-0.7,3.7-1.4,7.5-2.2,11.2c-0.2,1.1-0.7,2-1.4,2.7c-1.1,1.2-2.5,2.1-3.9,2.7c-1.5,0.5-2.9,0.4-4.1-0.8
		c-2.6-2.6-4.2-5.8-4.8-9.4c-0.5-2.9-0.5-5.7-0.8-8.7c-0.7-12.1-0.7-24.2-0.3-36.3c0.2-8.3,0.8-16.6,1.4-24.9
		c0.4-5.6,0.8-11.1,1-16.7c0.2-6,0.7-12,1-17.9c0.3-6.1,0.7-12.3,0.5-18.3c-0.1-2.9-0.4-5.7-1-8.6c-0.1-0.3-0.1-0.7-0.3-1
		c-0.1-0.2-0.3-0.4-0.7-0.4c-0.3,0-0.5,0.1-0.7,0.3c-0.5,1.2-1,2.5-1.5,3.7c-0.4,1.1-0.9,2.2-1.4,3.3c-1.8,3.2-5.3,3.9-7.6,3.3
		c-1.1-0.3-2.1-0.9-3-1.6c-1.1-1-1.9-2.2-2.5-3.4c-1.3-2.3-2.1-4.9-2.9-7.5C363.5,415,363.1,413.4,362.5,411.7z M18.3,241.5
		c0.1,7-0.1,15.8,0.3,24.7c0.2,5.2,0.3,10.3,0.5,15.4c0.1,4.2,0.3,8.3,0.5,12.5c0,0.1,0,0.3,0,0.4c0.4,5,0.7,10.1,0.8,15.1
		c0.1,8-0.1,15.9,0.3,23.9c0.2,4.2,0.4,8.4,0.9,12.6c0.3,3.2,0.9,6.5,1.8,9.5c1.4,4.7,3.9,8.7,8.1,11.5c1.6,1.1,2.9,2.4,4.1,4.1
		c1.5,2.1,2.6,4.5,3.6,6.9c0.9,2.2,1.6,4.4,2.5,6.5c1.9,4.5,4.5,8.4,8.3,11.5c5.2,4.2,11.1,6.4,17.8,6.4c2.1,0,4.2,0.1,6.4,0.4
		c3.2,0.4,5.9,1.6,8.1,4.1c1.1,1.3,1.9,2.9,2.4,4.4c1.4,3.9,2.4,8,3,12.1c0.7,4.8,1.1,9.6,1.6,14.5c0.4,3.9,0.9,8,1.3,12
		c0.5,5.7,1.6,11.3,2.3,16.9c0.4,3.7,1.1,7.6,1.4,11.3c0.3,3.5,0.7,7,0.9,10.5c0.2,4.4,0.5,8.7,0.9,13c0.3,3.9,0.8,7.9,1.4,11.7
		c0.4,2.4,1.1,4.6,2.5,6.7c0.5,0.8,1.1,1.4,1.9,2c1.2,0.8,2.6,0.8,3.7-0.1c0.5-0.3,0.9-0.9,1.3-1.4c1-1.4,1.8-3.1,2.4-4.7
		c2.9-7.3,4.3-15,4.9-22.8c0.3-3.5,0.3-7,0.4-10.5c0-1.9-0.1-3.8-0.2-5.7c-0.1-3.4-0.1-6.8-0.4-10.1c-0.2-4.1-0.2-8.1-0.5-12.3
		c-0.2-3.1-0.2-6.1-0.5-9.3c-0.4-3.8-0.2-7.8-0.5-11.6c-0.1-1.8,0.1-3.5,0.1-5.3c0.1-5.5,1.4-10.5,3.5-15.6c1.5-3.7,4.1-4.2,7.1-3.9
		c0.8,0.1,1.3,0.4,1.8,1.1c0.3,0.4,0.5,1,0.8,1.5c0.5,1.6,0.9,3.3,0.9,4.9c0.1,2.6,0.5,5.2,1.2,7.7c0.3,1.1,0.8,2.1,1.5,3
		c1.8,2.1,2.6,2,3.6-0.5c0.4-1.2,0.9-2.5,1.3-3.8c0.3-1.1,0.8-2.1,1.5-3c1.3-1.5,3.2-1.6,4.6-0.2c0.8,0.7,1.2,1.5,1.6,2.4
		c0.3,0.8,0.5,1.4,0.8,2.2c1.3,4.3,2.6,8.7,3.8,12.9c0.7,2.3,1.2,4.6,1.5,7c0.9,4.8,1.4,9.8,2,14.6c0.5,4.9,1.4,9.9,2.7,14.7
		c1.9,6.9,3.7,13.8,5.7,20.7c0.7,2.3,1.6,4.5,3,6.5c0.4,0.5,0.9,1.1,1.4,1.5c0.7,0.3,1.2,0.3,1.8,0c0.4-0.3,0.9-0.7,1.2-1.1
		c0.5-0.8,1.1-1.5,1.4-2.3c1.6-3.2,2.5-6.6,2.6-10.1c0.3-5.5-0.3-11-1.1-16.4c-0.3-2.6-0.7-5.3-1-8c-0.5-4.5-0.5-9.1-0.8-13.7
		c-0.2-5.4-0.2-10.6,0.2-16c0.3-3.9,0.8-7.9,1.4-11.7c0.5-2.7,1-5.4,2-8c0.7-1.9,1.6-3.6,3.1-5c1.6-1.6,2.9-1.8,4.7-0.5
		c4.2,2.9,7,6.7,8.1,11.7c0.8,3.5,0.9,7,1.1,10.5c0.2,4.4,0.1,8.8,0.4,13c0.2,3.6,0.2,7.1,0.4,10.7c0.2,6.8,0.5,13.6,1.3,20.4
		c0.4,3.6,0.9,7.1,1.8,10.6c0.5,2.3,1.3,4.6,2.1,6.8c0.7,1.8,1.8,2,3.3,0.9c0.3-0.2,0.5-0.4,0.8-0.7c1.8-1.5,3-3.5,3.9-5.7
		c1.4-3.4,2.4-6.9,3.4-10.4c0.9-3.1,1.8-6,3.4-8.9c0.8-1.3,1.5-2.5,2.6-3.5c1.3-1.3,2.6-1.4,4.3-0.5c1.1,0.7,2.1,1.4,2.9,2.4
		c1,1.2,1.6,2.6,2.1,4.2c0.8,2.1,1.2,4.2,1.6,6.4c0.3,1.5,0.8,3.2,1.3,4.7c0.1,0.2,0.2,0.5,0.4,0.8c0.1,0.2,0.7,0.1,0.7-0.1
		c0.1-0.3,0.2-0.7,0.3-1c0.1-1.1,0.2-2.2,0.4-3.4c0.3-3.4,0.9-6.7,1.1-10.1c0.3-5.9,0.7-12,0.9-17.9c0.2-7.6,0.3-15.2,0.4-22.8
		c0-5,0.9-9.9,2.4-14.7c0.5-1.8,1.5-2.9,3.2-3.6c2.7-1.2,4.9-0.8,6.7,1.5c0.8,1,1.3,2,1.9,3.1c1.2,2.4,2.5,4.7,3.8,7
		c0.4,0.7,0.7,1.8,1.6,1.6c0.9-0.1,1.1-1,1.4-1.6c0.9-1.5,1.6-3.1,2.5-4.6c0.7-1.2,1.4-2.4,2.3-3.5c1.1-1.5,2-1.8,3.6-1
		c2.2,1.1,4.2,2.5,5.8,4.5c2.3,2.7,3.7,5.9,4.7,9.3c2.1,7.1,3.1,14.5,3.3,21.8c0.2,4.4,0.1,8.9,0.1,13.3c0.1,6.2-0.4,12.5-0.5,18.7
		c-0.1,7.6-0.2,15,0.9,22.6c0.7,4.6,2,9.1,4.4,13.2c0.3,0.4,0.5,1,1,1.4c0.4,0.5,1.1,0.5,1.8,0.2c0.3-0.2,0.7-0.5,1-0.9
		c1.2-1.2,2.1-2.6,2.9-4.2c1.3-2.7,2.3-5.7,3.1-8.8c1.5-5.9,2.2-12.1,2.9-18.1c0.4-4.2,0.9-8.2,1.2-12.4c0.4-5.3,0.9-10.5,1.2-15.8
		c0.3-4.5,0.5-9,0.9-13.5c0.3-3.4,0.7-6.9,1-10.3c0.3-3.6,0.8-7.1,1.2-10.7c0.3-2.7,0.7-5.5,1.5-8c0.7-1.9,1.6-3.6,3.1-5
		c1-1,2.1-1.9,3.5-2.3c2.6-0.8,5.3-0.2,6.6,2.6c0.3,0.8,0.7,1.5,1,2.3c0.7,2,1.3,3.8,2,5.8c0.2,0.7,0.4,1.3,0.9,1.9
		c1.5,2.4,4.9,2.5,6.6,0.1c0.4-0.5,0.7-1.2,1-1.9c1.1-2.4,1.9-5,2.6-7.6c0.4-1.6,1.1-3.2,2-4.6c1.4-2.2,3-2.9,5.4-2.3
		c3.9,0.9,6.9,3,8.7,6.7c0.8,1.6,1.3,3.4,1.6,5.2c1,4.7,1,9.4,0.7,14c-0.3,5.3-0.4,10.5-0.5,15.8c-0.1,8.7-0.2,17.3,0.2,26
		c0.2,4.4,0,8.8,0.4,13c0.2,2.9,0.7,5.6,1.3,8.3c0.4,1.6,1.1,3.2,2.1,4.6c0.8,1.1,1.8,2,3,2.6c0.9,0.3,1.4,0.2,1.6-0.7
		c0.1-0.3,0.2-0.7,0.2-1c0.3-2.4,0.5-4.7,0.9-7.1c0.5-4.1,0.5-8.1,0.8-12.2c0.2-3.8,0.2-7.6,0.4-11.4c0.2-4.6,0.2-9.1,0.4-13.7
		c0.3-7.2,0.1-14.5,0.4-21.7c0.1-4.3,0.4-8.4,1.4-12.5c0.8-3.2,1.9-6.2,3.4-9.1c1.3-2.3,3.1-4.1,5.6-4.9c1.5-0.5,2.7-0.2,3.7,1.1
		c0.3,0.4,0.7,1,0.8,1.4c0.3,0.8,0.5,1.6,0.8,2.4c0.3,1.4,0.7,2.9,0.9,4.4c0.4,2.1,1,4.3,1.8,6.4c0.3,0.8,0.7,1.5,1.1,2.3
		c0.5,0.8,1.2,0.9,2,0.4c0.8-0.4,1.3-1,1.9-1.8c0.9-1.2,1.5-2.6,2.2-4.1c0.7-1.3,1.2-2.6,1.9-4.1c0.4-1,1.2-1.8,2-2.4
		c1.8-1.4,4.2-1.8,6.2-0.3c1.2,0.8,2,1.8,2.6,3c1.1,2,1.3,4.2,1.5,6.4c0.2,3.1-0.2,6-0.5,9c-0.5,4.2-1.5,8.3-2.1,12.5
		c-0.5,4.4-0.8,8.7-1,13c-0.1,3.1-0.1,6.1,0,9.3c0,3.8,0.4,7.6,0.3,11.4c-0.1,3.3-0.3,6.6-0.8,9.9c-0.3,2.5-0.7,5-0.9,7.6
		c-0.3,3.4-0.7,6.9-1,10.3c-0.4,4.2-0.8,8.4-0.8,12.6c0,1.4,0,3-0.1,4.4c-0.2,2.7-0.2,5.5-0.1,8.2c0.2,4.5,0.2,9,0.7,13.5
		c0.2,2.5,0.4,5,1,7.6c0.4,2,1,3.9,1.9,5.8c0.3,0.5,0.5,1.1,1.1,1.5c0.4,0.3,0.9,0.4,1.3,0.1c1.1-0.5,1.9-1.5,2.3-2.6
		c0.4-1.1,0.7-2.3,0.9-3.5c0.8-5.6,1.5-11.2,2.3-16.7c0.8-5,1.1-10.2,1.5-15.4c0.3-4.2,0.7-8.3,0.9-12.4c0.2-4.7,0.3-9.4,0.5-14.1
		c0.2-4.6,0.3-9.3,0.4-13.9c0-0.2,0-0.4,0-0.7c0.3-4.3,0.8-8.6,1.1-12.8c0.3-3.2,0.7-6.2,1-9.4c0.4-3.9,1-7.9,1.5-12
		c0.4-3.1,0.9-6.1,1.3-9.2c0.2-1.6,0.7-3.2,1.2-4.7c0.8-1.8,1.6-3.5,3.1-4.7c2-1.6,4.2-2,6.5-0.9c1.2,0.5,2.2,1.5,3,2.6
		c1.3,1.8,2.1,3.8,2.7,5.9c1.2,3.8,2.4,7.7,3.6,11.5c0.1,0.4,0.2,0.8,0.4,1.2c0.4,1,1.3,1.1,2,0.3c0.2-0.2,0.3-0.4,0.4-0.7
		c0.8-1.2,1.4-2.5,2-3.9c0.9-2.7,1.3-5.6,1.3-8.6c0-2.6,0-5.3,0.2-7.8c0.3-4.8,0.8-9.6,1-14.5c0.1-3.3,0.7-6.5,1.4-9.5
		c0.9-3.7,3.3-5.9,7-6.7c2.7-0.5,5.6-0.9,8.3-1.2c2.5-0.3,5-0.5,7.6-1c4.1-0.7,7-2.7,8.8-6.5c0.7-1.5,1.4-3.1,2.1-4.6
		c1.5-3.6,2.4-7.3,2.5-11.3c0.1-3.1,1.3-5.7,3.5-7.9c1.1-1,2.3-1.9,3.6-2.5c1.5-0.8,3-1.5,4.5-2.2c3.5-1.6,5.9-4.3,7.2-7.9
		c0.2-0.7,0.4-1.3,0.7-2c1.6-5.9,2.7-12.1,3.4-18.2c0.3-3.2,0.5-6.5,1-9.6c0.5-4.6,0.9-9.2,0.9-13.9c0-2.1,0-4.1-0.4-6.1
		c-0.2-1.2-0.1-2.5,0-3.8c0.1-0.5,0.2-1.1,0.2-1.6c0.4-5,1-10.1,1.4-15.1c0.1-1.6,0.3-3.2,0.4-4.8c0.3-3.6,0.8-7.2,1.1-11
		c0.3-3.7,0.7-7.5,1-11.2c0.4-4.2,1-8.2,1.3-12.4c0.2-2.1,0.3-4.2,0.4-6.4c0.3-3.8,0.5-7.6,0.8-11.4c0.1-2.1,0-4.1-0.2-6.1
		c-0.3-2.4-0.7-4.9-0.9-7.3c-0.3-2.7,0-5.5,0.8-8.1c0.2-0.8,0.3-1.5,0.1-2.3c-1.2-5.9-1.5-11.8-1.9-17.8c-0.3-4.7-0.4-9.4-0.7-14.1
		c0-0.2,0-0.4,0-0.7c-0.2-4.7-0.4-9.4-0.8-14.1c-0.2-3.4-0.2-6.9-0.5-10.3c-0.2-2.4-0.3-4.9-0.7-7.3c-0.4-3.5-2.1-6.1-4.9-8.2
		c-3.4-2.5-6.7-5.2-10.1-7.7c-2-1.5-3.8-3.4-5.3-5.4c-2.5-3.5-3.8-7.5-4.4-11.7c-0.3-2.6-0.7-5.3-1.3-7.9c-0.9-3.5-3.1-5.9-6.4-7.3
		c-4.4-1.9-8.9-2.4-13.6-1.5c-1.9,0.3-3.6,0.3-5.5-0.1c-2.1-0.4-3.9-1.5-5.6-3c-0.9-0.8-1.9-1.5-3-2.1c-1.8-0.9-3.5-1-5.3-0.3
		c-1.1,0.3-2.1,0.9-3,1.5c-1.5,1.1-3.1,2.3-4.6,3.4s-3.1,2.3-4.8,3.1c-3.1,1.3-6,1.3-9-0.2c-1.4-0.8-2.7-1.6-3.9-2.7
		c-3.8-3.6-8.4-6-13.6-7.5c-4.1-1.2-8.1-1.8-12.3-2c-4.6-0.3-9.1-0.7-13.7-0.5c-1.1,0-2.1,0-3.2-0.1c-4.5-0.2-9-0.4-13.5-0.7
		c-4.4-0.2-8.8-0.1-13-0.3c-5.8-0.2-11.5-0.2-17.3-0.4c-7.6-0.3-15-0.3-22.6,0.2c-3.2,0.2-6.5,0.3-9.6,0.5
		c-4.8,0.3-9.5,0.8-14.3,1.1c-6.1,0.3-12.4,0.1-18.5-0.5c-2.6-0.3-5.2-0.5-7.8-0.7c-5.4-0.1-10.6,0.2-16,0.8c-5,0.5-10.1,1-15.1,1.3
		c-4.3,0.3-8.6,0.7-12.8,0.7c-1.1,0-2.2,0.1-3.4,0.1c-1.3,0-2.6-0.1-4.1-0.2c-2.9,0-5.6-0.4-8.4-0.8c-3.9-0.5-7.8-1.1-11.7-1
		c-2.4,0-4.8,0-7.1-0.1c-7.7-0.1-15.4-0.1-23,1c-3.1,0.4-6.1,1-9.1,1.9c-2.9,0.9-5.5,2.2-7.8,4.2c-2.6,2.2-5.6,3-8.9,1.9
		c-1.2-0.4-2.3-1-3.3-1.8c-1.6-1.2-3.3-2.4-4.7-3.8c-3-2.7-6.4-4.1-10.3-4.3C94,70.8,87.9,71.1,81.7,72c-4.5,0.7-9,1.3-13.6,2.1
		c-3.7,0.5-7.3,1.2-11,2.1c-7.2,1.9-12.5,6.1-15.6,13.2c-1.4,3.2-2.9,6.5-4.1,9.8c-2.1,5.7-5.7,10.1-11.2,12.9
		c-1.3,0.7-2.5,1.5-3.7,2.4c-1.9,1.4-2.9,3.3-3,5.6c0,1.1-0.1,2.3-0.2,3.4c-0.4,3.9-0.7,8-0.7,12.1c0,1.3,0.1,2.6,0.2,4.1
		c0.1,5.2,0.2,10.3,0.4,15.5c0.1,3.2,0,6.4,0.1,9.5c0,2.3-0.2,4.6-0.8,6.9c-1.2,4.5-1.3,9-1.5,13.6c-0.3,5.8-0.3,11.5-0.2,17.3
		c0.1,5.4,0.3,10.9,0.4,16.2C18.4,225.4,18.3,232.6,18.3,241.5z"/>
	<path class="st2" d="M104.1,34.8c0.2-2.7,1.5-5.8,4.2-8.1c2.6-2.3,4.5-1.9,6.8-0.7c3.2,1.8,5.2,5.9,4.5,9.8
		c-0.1,0.9-0.3,1.8-0.8,2.6c-1.2,2.6-3.2,4.2-6.1,4.5c-1.3,0.1-2.5,0.1-3.7-0.3C105.9,41.7,104.1,38.9,104.1,34.8z M112.3,38.2
		c1.1,0,2-0.4,2.7-1.2c0.5-0.7,0.9-1.4,0.8-2.3c-0.5-2.2-2.7-4.2-5.7-3.2c-1.1,0.3-1.9,1.4-1.8,2.6c0.1,1,0.3,2,1,2.7
		C110.1,37.7,111.1,38.3,112.3,38.2z"/>
	<path class="st1" d="M18.3,241.5c0-8.9,0.1-16,0-23.1c-0.1-5.4-0.3-10.9-0.4-16.2c-0.1-5.8-0.1-11.5,0.2-17.3
		c0.2-4.6,0.4-9.1,1.5-13.6c0.5-2.3,0.8-4.6,0.8-6.9c0-3.2,0.1-6.4-0.1-9.5c-0.2-5.2-0.3-10.3-0.4-15.5c0-1.3-0.1-2.6-0.2-4.1
		c0-4.1,0.2-8,0.7-12.1c0.1-1.1,0.1-2.3,0.2-3.4c0.1-2.3,1.1-4.2,3-5.6c1.2-0.9,2.3-1.8,3.7-2.4c5.5-2.7,9.1-7.2,11.2-12.9
		c1.2-3.3,2.6-6.5,4.1-9.8c3-7,8.3-11.2,15.6-13.2c3.6-1,7.2-1.5,11-2.1c4.5-0.7,9-1.3,13.6-2.1c6.1-0.9,12.3-1.2,18.5-0.9
		c3.9,0.2,7.3,1.5,10.3,4.3c1.5,1.4,3.2,2.6,4.7,3.8c1,0.8,2.1,1.4,3.3,1.8c3.3,1.1,6.2,0.3,8.9-1.9c2.3-2,4.9-3.3,7.8-4.2
		c3-0.9,6-1.4,9.1-1.9c7.7-1.1,15.4-1.1,23-1c2.4,0,4.8,0.1,7.1,0.1c3.9-0.1,7.9,0.5,11.7,1c2.7,0.3,5.6,0.8,8.4,0.8
		c1.3,0,2.6,0.2,4.1,0.2c1.1,0,2.2-0.1,3.4-0.1c4.3,0,8.6-0.3,12.8-0.7c5-0.3,10.1-0.8,15.1-1.3c5.4-0.5,10.6-0.9,16-0.8
		c2.6,0,5.2,0.3,7.8,0.7c6.1,0.7,12.4,1,18.5,0.5c4.8-0.2,9.5-0.8,14.3-1.1c3.2-0.2,6.5-0.3,9.6-0.5c7.6-0.5,15-0.5,22.6-0.2
		c5.8,0.2,11.5,0.2,17.3,0.4c4.4,0.2,8.8,0.1,13,0.3c4.5,0.2,9,0.4,13.5,0.7c1.1,0,2.1,0.1,3.2,0.1c4.6,0,9.1,0.3,13.7,0.5
		c4.2,0.2,8.2,0.8,12.3,2c5,1.4,9.6,3.8,13.6,7.5c1.2,1.1,2.5,2.1,3.9,2.7c3,1.4,5.9,1.5,9,0.2c1.8-0.8,3.3-1.9,4.8-3.1
		c1.5-1.1,3.1-2.3,4.6-3.4c0.9-0.7,2-1.2,3-1.5c1.9-0.7,3.6-0.5,5.3,0.3c1.1,0.5,2,1.3,3,2.1c1.6,1.4,3.4,2.4,5.6,3
		c1.9,0.4,3.6,0.4,5.5,0.1c4.7-0.8,9.2-0.2,13.6,1.5c3.4,1.4,5.5,3.8,6.4,7.3c0.7,2.6,1,5.3,1.3,7.9c0.5,4.3,1.8,8.2,4.4,11.7
		c1.5,2.1,3.3,3.8,5.3,5.4c3.3,2.6,6.7,5.2,10.1,7.7c2.9,2.1,4.4,4.8,4.9,8.2c0.3,2.4,0.3,4.9,0.7,7.3c0.3,3.4,0.4,6.9,0.5,10.3
		c0.2,4.7,0.4,9.4,0.8,14.1c0,0.2,0,0.4,0,0.7c0.2,4.7,0.3,9.4,0.7,14.1c0.4,5.9,0.7,12,1.9,17.8c0.1,0.8,0.1,1.5-0.1,2.3
		c-0.8,2.6-1,5.4-0.8,8.1c0.2,2.4,0.5,4.9,0.9,7.3c0.2,2,0.3,4.1,0.2,6.1c-0.2,3.8-0.5,7.6-0.8,11.4c-0.1,2.1-0.2,4.2-0.4,6.4
		c-0.3,4.2-0.9,8.2-1.3,12.4c-0.3,3.7-0.7,7.5-1,11.2c-0.3,3.6-0.8,7.2-1.1,11c-0.1,1.6-0.3,3.2-0.4,4.8c-0.4,5-1,10.1-1.4,15.1
		c0,0.5-0.1,1.1-0.2,1.6c-0.2,1.2-0.3,2.5,0,3.8c0.4,2,0.4,4.1,0.4,6.1c0.1,4.6-0.3,9.3-0.9,13.9c-0.3,3.2-0.7,6.5-1,9.6
		c-0.7,6.1-1.6,12.3-3.4,18.2c-0.2,0.7-0.4,1.3-0.7,2c-1.3,3.6-3.7,6.2-7.2,7.9c-1.5,0.7-3.1,1.4-4.5,2.2c-1.3,0.7-2.5,1.5-3.6,2.5
		c-2.2,2.2-3.4,4.7-3.5,7.9c-0.1,3.9-1,7.7-2.5,11.3c-0.7,1.5-1.4,3.1-2.1,4.6c-1.8,3.8-4.7,5.9-8.8,6.5c-2.5,0.3-5,0.7-7.6,1
		c-2.7,0.3-5.6,0.7-8.3,1.2c-3.7,0.8-6.1,3-7,6.7c-0.8,3.2-1.3,6.2-1.4,9.5c-0.1,4.8-0.7,9.6-1,14.5c-0.1,2.6-0.1,5.2-0.2,7.8
		c0,2.9-0.4,5.7-1.3,8.6c-0.4,1.4-1.1,2.7-2,3.9c-0.1,0.2-0.3,0.4-0.4,0.7c-0.7,0.8-1.5,0.7-2-0.3c-0.2-0.3-0.3-0.8-0.4-1.2
		c-1.2-3.8-2.4-7.7-3.6-11.5c-0.7-2.1-1.4-4.2-2.7-5.9c-0.8-1.1-1.8-2-3-2.6c-2.3-1.1-4.5-0.8-6.5,0.9c-1.5,1.2-2.4,3-3.1,4.7
		c-0.7,1.5-1,3.1-1.2,4.7c-0.5,3.1-0.9,6.1-1.3,9.2c-0.5,3.9-1.1,7.9-1.5,12c-0.3,3.2-0.7,6.2-1,9.4c-0.4,4.3-0.8,8.6-1.1,12.8
		c0,0.2,0,0.4,0,0.7c-0.1,4.6-0.3,9.3-0.4,13.9c-0.2,4.7-0.3,9.4-0.5,14.1c-0.2,4.2-0.4,8.3-0.9,12.4c-0.4,5.2-0.8,10.2-1.5,15.4
		c-0.8,5.6-1.5,11.2-2.3,16.7c-0.2,1.2-0.3,2.4-0.9,3.5c-0.4,1.1-1.2,2.1-2.3,2.6c-0.5,0.2-1,0.2-1.3-0.1c-0.4-0.4-0.8-1-1.1-1.5
		c-0.9-1.9-1.5-3.8-1.9-5.8c-0.5-2.5-0.8-5-1-7.6c-0.4-4.5-0.4-9-0.7-13.5c-0.1-2.7-0.2-5.5,0.1-8.2c0.1-1.4,0.1-3,0.1-4.4
		c0.1-4.3,0.3-8.4,0.8-12.6c0.3-3.4,0.7-6.9,1-10.3c0.2-2.5,0.5-5,0.9-7.6c0.4-3.3,0.7-6.6,0.8-9.9c0.1-3.8-0.3-7.6-0.3-11.4
		c0-3.1-0.1-6.2,0-9.3c0.2-4.4,0.4-8.7,1-13c0.5-4.2,1.4-8.3,2.1-12.5c0.4-3,0.8-6,0.5-9c-0.1-2.2-0.4-4.4-1.5-6.4
		c-0.7-1.2-1.4-2.2-2.6-3c-2.2-1.4-4.5-1.1-6.2,0.3c-0.9,0.7-1.5,1.4-2,2.4c-0.7,1.3-1.3,2.6-1.9,4.1c-0.7,1.4-1.3,2.9-2.2,4.1
		c-0.5,0.7-1.1,1.3-1.9,1.8s-1.5,0.3-2-0.4c-0.4-0.7-0.8-1.5-1.1-2.3c-0.8-2.1-1.2-4.2-1.8-6.4c-0.3-1.4-0.5-2.9-0.9-4.4
		c-0.2-0.8-0.4-1.6-0.8-2.4c-0.2-0.5-0.4-1-0.8-1.4c-1-1.3-2.2-1.6-3.7-1.1c-2.5,0.9-4.3,2.6-5.6,4.9c-1.6,2.9-2.6,5.9-3.4,9.1
		c-1,4.2-1.3,8.3-1.4,12.5c-0.2,7.2-0.1,14.5-0.4,21.7c-0.2,4.6-0.1,9.1-0.4,13.7c-0.2,3.8-0.2,7.6-0.4,11.4
		c-0.2,4.1-0.3,8.1-0.8,12.2c-0.3,2.4-0.5,4.7-0.9,7.1c0,0.3-0.1,0.7-0.2,1c-0.3,0.8-0.9,1-1.6,0.7c-1.2-0.5-2.2-1.5-3-2.6
		c-1-1.3-1.8-3-2.1-4.6c-0.7-2.7-1.1-5.5-1.3-8.3c-0.4-4.4-0.2-8.8-0.4-13c-0.4-8.7-0.3-17.3-0.2-26c0.1-5.3,0.2-10.5,0.5-15.8
		c0.3-4.7,0.2-9.4-0.7-14c-0.3-1.8-0.9-3.5-1.6-5.2c-1.8-3.7-4.8-5.8-8.7-6.7c-2.4-0.5-3.9,0.1-5.4,2.3c-1,1.4-1.5,3-2,4.6
		c-0.8,2.5-1.4,5.2-2.6,7.6c-0.3,0.7-0.5,1.3-1,1.9c-1.6,2.3-5,2.3-6.6-0.1c-0.3-0.5-0.7-1.2-0.9-1.9c-0.7-2-1.3-3.8-2-5.8
		c-0.3-0.8-0.7-1.5-1-2.3c-1.3-2.7-3.9-3.4-6.6-2.6c-1.4,0.4-2.5,1.3-3.5,2.3c-1.4,1.4-2.3,3.2-3.1,5c-1,2.6-1.2,5.4-1.5,8
		c-0.4,3.5-0.9,7.1-1.2,10.7c-0.3,3.4-0.7,6.9-1,10.3c-0.4,4.5-0.7,9-0.9,13.5c-0.3,5.3-0.8,10.5-1.2,15.8
		c-0.3,4.2-0.8,8.2-1.2,12.4c-0.7,6-1.4,12.2-2.9,18.1c-0.8,3-1.8,5.9-3.1,8.8c-0.8,1.5-1.6,3-2.9,4.2c-0.3,0.3-0.5,0.7-1,0.9
		c-0.5,0.4-1.2,0.3-1.8-0.2c-0.3-0.4-0.7-0.9-1-1.4c-2.4-4.1-3.7-8.4-4.4-13.2c-1.1-7.5-1-15-0.9-22.6c0.1-6.2,0.5-12.5,0.5-18.7
		c0-4.4,0.1-8.9-0.1-13.3c-0.3-7.3-1.3-14.7-3.3-21.8c-1-3.4-2.4-6.6-4.7-9.3c-1.6-2-3.6-3.4-5.8-4.5c-1.6-0.8-2.5-0.5-3.6,1
		c-0.9,1.1-1.5,2.3-2.3,3.5c-0.9,1.5-1.6,3.1-2.5,4.6c-0.3,0.7-0.5,1.5-1.4,1.6c-1.1,0.1-1.3-1-1.6-1.6c-1.3-2.3-2.6-4.7-3.8-7
		c-0.5-1.1-1.2-2.1-1.9-3.1c-1.9-2.3-3.9-2.9-6.7-1.5c-1.6,0.8-2.6,1.9-3.2,3.6c-1.5,4.8-2.4,9.6-2.4,14.7c0,7.6-0.2,15.2-0.4,22.8
		c-0.2,6-0.4,12-0.9,17.9c-0.2,3.4-0.7,6.7-1.1,10.1c-0.1,1.1-0.2,2.2-0.4,3.4c0,0.3-0.2,0.7-0.3,1c-0.1,0.2-0.5,0.3-0.7,0.1
		c-0.1-0.2-0.3-0.4-0.4-0.8c-0.5-1.5-1-3.1-1.3-4.7c-0.4-2.1-1-4.3-1.6-6.4c-0.5-1.4-1.2-2.9-2.1-4.2c-0.8-1-1.8-1.9-2.9-2.4
		c-1.5-0.9-3-0.7-4.3,0.5c-1.1,1-1.9,2.3-2.6,3.5c-1.5,2.7-2.5,5.8-3.4,8.9c-1,3.5-2,7-3.4,10.4c-0.9,2.2-2.2,4.2-3.9,5.7
		c-0.2,0.2-0.5,0.4-0.8,0.7c-1.5,1.1-2.6,0.9-3.3-0.9c-0.9-2.2-1.5-4.5-2.1-6.8c-0.9-3.5-1.3-7-1.8-10.6c-0.8-6.8-1.1-13.6-1.3-20.4
		c-0.1-3.6-0.2-7.1-0.4-10.7c-0.2-4.4-0.1-8.8-0.4-13c-0.2-3.5-0.4-7-1.1-10.5c-1-5-3.9-8.8-8.1-11.7c-1.9-1.3-3.1-1.1-4.7,0.5
		c-1.4,1.4-2.3,3.2-3.1,5c-1,2.6-1.5,5.3-2,8c-0.8,3.8-1.1,7.8-1.4,11.7c-0.4,5.4-0.4,10.7-0.2,16c0.2,4.6,0.2,9.1,0.8,13.7
		c0.3,2.6,0.7,5.3,1,8c0.8,5.5,1.3,10.9,1.1,16.4c-0.2,3.5-1,6.9-2.6,10.1c-0.4,0.8-0.9,1.5-1.4,2.3c-0.3,0.4-0.8,0.9-1.2,1.1
		c-0.5,0.4-1.2,0.3-1.8,0c-0.7-0.3-1.1-0.9-1.4-1.5c-1.4-2-2.3-4.2-3-6.5c-1.9-6.9-3.8-13.8-5.7-20.7c-1.3-4.8-2.1-9.8-2.7-14.7
		c-0.5-4.9-1.1-9.8-2-14.6c-0.4-2.4-0.9-4.7-1.5-7c-1.3-4.3-2.5-8.7-3.8-12.9c-0.2-0.8-0.4-1.4-0.8-2.2c-0.3-0.9-0.9-1.8-1.6-2.4
		c-1.4-1.4-3.3-1.3-4.6,0.2c-0.8,0.9-1.2,2-1.5,3c-0.4,1.3-0.8,2.5-1.3,3.8c-1,2.5-1.9,2.6-3.6,0.5c-0.8-0.9-1.2-1.9-1.5-3
		c-0.7-2.5-1.1-5-1.2-7.7c-0.1-1.8-0.3-3.4-0.9-4.9c-0.2-0.5-0.4-1-0.8-1.5c-0.4-0.7-1-1-1.8-1.1c-3.1-0.2-5.6,0.2-7.1,3.9
		c-2.1,4.9-3.4,10.1-3.5,15.6c0,1.8-0.3,3.5-0.1,5.3c0.3,3.8,0.1,7.8,0.5,11.6c0.3,3.1,0.3,6.1,0.5,9.3c0.3,4.1,0.2,8.1,0.5,12.3
		c0.2,3.4,0.2,6.8,0.4,10.1c0.1,1.9,0.2,3.8,0.2,5.7c-0.1,3.5-0.1,7-0.4,10.5c-0.7,7.8-2.1,15.5-4.9,22.8c-0.7,1.6-1.3,3.3-2.4,4.7
		c-0.3,0.5-0.8,1-1.3,1.4c-1.2,0.8-2.5,0.9-3.7,0.1c-0.8-0.5-1.4-1.2-1.9-2c-1.4-2-2.1-4.3-2.5-6.7c-0.7-3.8-1.1-7.8-1.4-11.7
		c-0.3-4.4-0.7-8.7-0.9-13c-0.2-3.5-0.4-7-0.9-10.5c-0.4-3.7-1-7.6-1.4-11.3c-0.8-5.7-1.8-11.3-2.3-16.9c-0.4-3.9-0.9-8-1.3-12
		c-0.5-4.8-1-9.6-1.6-14.5c-0.5-4.2-1.5-8.1-3-12.1c-0.5-1.6-1.3-3.1-2.4-4.4c-2.2-2.4-4.9-3.6-8.1-4.1c-2.1-0.3-4.2-0.3-6.4-0.4
		c-6.7,0-12.5-2.3-17.8-6.4c-3.8-3.1-6.5-7-8.3-11.5c-0.9-2.2-1.6-4.4-2.5-6.5c-0.9-2.4-2.1-4.8-3.6-6.9c-1.1-1.5-2.4-3-4.1-4.1
		c-4.2-2.9-6.7-6.8-8.1-11.5c-0.9-3.1-1.4-6.2-1.8-9.5c-0.4-4.2-0.7-8.4-0.9-12.6c-0.4-8-0.2-15.9-0.3-23.9
		c-0.1-5-0.3-10.1-0.8-15.1c0-0.1,0-0.3,0-0.4c-0.2-4.2-0.3-8.3-0.5-12.5c-0.2-5.2-0.3-10.3-0.5-15.4
		C18.1,257.2,18.4,248.5,18.3,241.5z M31.7,288.5c0.1,5.8,0,12.1,0.3,18.3c0.3,4.8,0.7,9.5,1,14.4c0.1,1.6,0.3,3.2,0.5,4.8
		c0.3,2.7,0.8,5.6,1.1,8.3c0.4,3.6,1,7.2,1.8,10.9c0.8,3.2,1.8,6.2,3.3,9.1c1.8,3.2,4.3,5.6,7.7,7c0.3,0.1,0.7,0.3,1,0.4
		c2.1,0.8,3.6,2.2,4.6,4.2c1.1,2.2,2.2,4.4,3.2,6.7c0.9,1.9,1.8,3.8,2.6,5.8c0.8,1.6,1.6,3.1,2.7,4.5c2.9,3.6,6.6,5.4,11.1,5.7
		c2.3,0.1,4.5-0.1,6.7-0.5c1.6-0.3,3.3-0.2,4.8,0.3c2.6,0.9,4.4,2.6,5.5,5.2c1.3,3.2,1.8,6.5,2.1,9.9c0.2,2.4,0.4,4.7,0.8,7.1
		c0.8,5.9,3.2,11.1,6.7,15.7c0.2,0.2,0.3,0.4,0.5,0.7c1,0.9,2.1,0.9,3,0c0.4-0.4,0.8-1,1-1.5c0.9-2.3,1.6-4.6,1.9-7.1
		c0.1-1.4,0.3-2.9,0.5-4.2c0.8-4.1,2.1-7.9,3.8-11.6c2.1-4.4,4.7-8.4,7.8-12.3c1.5-2,3.2-3.9,4.9-5.7c2.3-2.2,3.7-2.1,5.6,0.4
		c1.2,1.6,2.3,3.3,3.2,5.3c1.5,3.6,3.1,7.2,4.6,10.9c0.8,2,1.6,3.8,2.9,5.7c0.7,1.1,1.4,2.1,2.4,2.9c2,1.5,4.6,0.9,5.6-1.4
		c0.2-0.5,0.3-1.1,0.4-1.6c0.3-1,0.5-1.9,1-2.7c0.5-1.2,1.2-1.4,2.3-0.9c1.2,0.7,2.2,1.5,3,2.6c0.7,1,1.3,2,2.1,3
		c0.5,0.7,1,1.3,1.6,2c2.1,1.9,4.5,2,6.7,0.3c1.1-0.8,2-1.9,2.7-3c0.8-1.1,1.4-2.3,2.1-3.4c1.1-1.9,2.2-3.8,3.3-5.7
		c1.2-2.1,2.7-3.9,4.6-5.5c2.2-1.9,4.2-2,6.6-0.7c0.2,0.1,0.3,0.2,0.5,0.3c3.9,2.6,7.1,5.9,9.3,10.2c2.2,3.9,3.1,8.3,3.5,12.7
		c0.3,3.1,0.4,6.1,0.5,9.3c0.1,3.1,0.3,6,0.9,9c0.9,4.9,2.7,9.4,6.1,13.3c0.7,0.7,1.3,1.3,2,1.9c2.3,1.8,4.2,1.5,6.1-0.7
		c0.8-0.9,1.3-1.8,1.9-2.7c1.3-2.3,2.3-4.8,3.2-7.3c2.1-6.2,3-12.7,3.8-19.2c0.5-4.5,1.1-9.1,2.2-13.5c0.7-2.9,1.5-5.7,3-8.3
		c1.3-2.4,3-4.6,5.3-6.2c2.7-1.9,6.5-2,9.2,0.8c1.1,1.1,2,2.4,2.9,3.7c0.9,1.5,1.9,3,2.9,4.4c0.7,1,1.5,1.9,2.5,2.5
		c2.2,1.4,5.4,1.3,7.3-0.7c1.1-1.1,2-2.4,2.6-3.8c0.7-1.4,1.4-3,2.2-4.4c0.4-0.9,1-1.6,1.9-2.3c1.6-1.2,2.5-1.4,4.2-0.1
		c0.4,0.3,0.8,0.5,1.2,0.9c4.4,3.8,6.7,8.7,7.2,14.4c0.2,2.7,0.3,5.5,0.4,8.2c0,1.1,0,2.1,0.1,3.2c0.1,1.4,0.3,3,1,4.3
		c1,1.8,3.6,3,5.8,1.1c1.9-1.5,3.3-3.3,4.2-5.5c0.4-1.3,0.9-2.6,1.2-4.1c0.8-3.8,1.4-7.8,2.1-11.6c0.4-2.7,1.1-5.4,2.2-7.9
		c1.3-3,3.3-5.6,6.1-7.3c2.4-1.5,4.9-1.4,7.3,0.2c1.5,1,2.6,2.4,3.5,3.9c0.8,1.3,1.4,2.6,2.1,3.9c1,1.9,1.8,3.6,3.1,5.3
		c0.4,0.5,0.8,1,1.3,1.3c0.7,0.3,1.2,0.3,1.8,0c0.4-0.3,0.9-0.7,1.3-1.1c1-1,1.9-2.1,2.6-3.3c1-1.3,1.9-2.6,2.9-3.9
		c0.8-1.1,1.9-2,3-2.6c1.6-1,3.4-1.2,5.3-0.3c1.2,0.5,2.3,1.3,3.3,2.3c0.8,0.8,1.5,1.6,2.3,2.5c1.3,1.4,2.6,2.7,4.3,3.7
		c3.1,1.8,6,1.3,8.3-1.1c0.9-1,1.8-2,2.6-3c0.7-0.8,1.3-1.5,2-2.2c0.4-0.4,1-0.8,1.5-1.1c1.5-0.9,3.1-0.9,4.6-0.1
		c0.9,0.4,1.5,1,2.2,1.6c1.1,1.2,2.3,2.5,3.4,3.7c0.8,0.8,1.5,1.6,2.4,2.4c1.8,1.4,3.4,1.4,5.2,0.1c0.7-0.4,1.2-1,1.8-1.5
		c2.6-2.3,5.7-2.9,9.1-1.9c1.1,0.3,2.1,0.8,3.2,1.2c2.2,0.9,2.4,1.2,2.4,3.6c0,0.2,0,0.4,0,0.7c0,3.1,0.5,6,1.6,8.9
		c1.1,2.9,3.2,4.7,6.1,5.6c2.1,0.7,3,0.3,4.1-1.5c0.8-1.3,1.5-2.5,2.3-3.8c0.4-0.7,0.9-1.2,1.4-1.8c1.4-1.4,3.7-1.3,5,0.1
		c0.5,0.5,0.9,1.2,1.3,2c0.7,1.3,1.3,2.6,2,3.9c0.5,1,1.1,1.9,1.9,2.5c1.4,1.3,3.1,1.8,4.8,1c1.3-0.4,2.3-1.4,3-2.6
		c1-1.8,1.4-3.6,1.9-5.6c0.8-3.4,0.9-6.8,1.2-10.3c0.5-4.7,1.9-9.2,4.2-13.4c1.8-3.3,4.5-5.2,8.1-5.7c1.6-0.2,3.2-0.5,4.7-0.9
		c3.6-0.8,7-2.1,10.2-3.9c2.5-1.4,4.4-3.5,5.7-6.1c0.5-1.1,1-2.2,1.3-3.3c1.2-3.5,2.3-7.1,3.5-10.6c1.4-4.5,3.1-8.9,5.4-13
		c2.1-3.8,4.9-6.9,9-8.6c1.2-0.5,2.1-1.4,2.7-2.5c0.2-0.5,0.4-1,0.7-1.5c1.4-3.2,2-6.6,2.4-10c0.5-4.5,1-9,1.4-13.4
		c0.2-1.9,0.3-3.6,0.5-5.5c0.3-3.9,0.8-7.9,1.1-11.7c0.2-2.6,0.3-5.4,0.5-8c0.2-2.2,0.3-4.4,0.4-6.6c0.3-5.8,0.8-11.6,1.1-17.4
		c0.2-3.2,0.3-6.5,0.3-9.6c0.2-5.6,0.3-11.3,0.4-16.9c0.1-2.9,0.1-5.8,0.1-8.7c0.1-4.8,0.2-9.5,0.3-14.4c0-0.5,0.1-1.2-0.1-1.6
		c-0.4-0.9-0.3-1.8-0.3-2.6c0-11.2,0.3-22.4-0.3-33.6c-0.2-3.5-0.2-7-0.3-10.5c-0.2-5.6-0.5-11.3-1.4-16.8c-0.3-2.5-0.9-5-1.6-7.5
		c-1.5-4.6-4.4-8-9.1-9.6c-1.5-0.5-2.9-1.4-4.1-2.6c-4.4-4.3-7.7-9.3-10.2-14.9c-2-4.5-3.1-9.2-3.7-14c-0.4-2.7-1.1-2.5-3.1-2.3
		c-2,0.2-3.9,0.4-5.9,0.4c-2.9,0-5.6,0-8.4,0.4c-3.1,0.4-6.1,1-9.1,1.9c-2.9,0.9-5.5,2.1-8.1,3.6c-3.3,2-6.9,2.7-10.7,2.5
		c-2.1-0.1-4.1-0.4-6-0.8c-4.8-0.9-9.1-2.7-12.9-5.8c-1.2-1-2.3-2.1-3.3-3.3c-2-2.2-4.5-3.5-7.5-4.1c-2.9-0.4-5.6-0.3-8.4-0.1
		s-5.7,0.4-8.7,0.5c-4.2,0.1-8.3,0.1-12.5,0c-4.4,0-8.9,0-13.3-0.2c-8.8-0.2-17.4,0-26.2-0.4c-5.4-0.2-10.9-0.1-16.2-0.4
		c-3.8-0.2-7.8-0.2-11.6-0.4c-4.4-0.2-8.9-0.2-13.3-0.4c-5.8-0.2-11.5-0.2-17.3-0.3c-8.8-0.3-17.5-0.1-26.4-0.4
		c-10.7-0.3-21.5-0.1-32.3-0.4c-12.2-0.3-24.3-0.1-36.5-0.4c-4.3-0.1-8.6-0.1-12.9-0.1c-0.7,0-1.4,0-2.1,0.1
		c-4.5,0.5-8.8,1.9-12.9,3.8c-2.3,1.1-4.7,2.3-7,3.4c-3.1,1.5-6.4,2.7-9.8,3.4c-3,0.5-6,0.5-9-0.1c-2.7-0.7-5.2-2-7.3-3.6
		c-1.3-1-2.5-2-4.1-2.6c-1.9-0.9-3.7-1-5.7-0.3c-0.5,0.2-1.1,0.4-1.5,0.5c-3.3,0.5-6.5,1.2-9.8,1.8c-3.7,0.5-7.5,1.2-11.2,2.2
		c-2.4,0.7-4.7,1.4-6.9,2.6c-3,1.6-5.4,3.8-7,6.9c-1.2,2.4-2.4,4.9-3.3,7.6c-3.1,8.9-6.9,17.2-12.6,24.8c-2.1,2.7-3.3,5.8-3.9,9.2
		c-0.8,3.9-0.9,8-1.1,12c-0.1,2.4-0.1,4.8-0.1,7.1c0,13.7,0.3,27.3,0.1,41c-0.1,6.6-0.3,13.3-0.7,19.8c0,0.2,0,0.4,0,0.7
		c-0.3,4.5-0.8,9-1.1,13.5c-0.3,5-0.7,10.1-1,15.1c-0.2,2.6-0.2,5.4-0.4,8c-0.4,4.8-0.4,9.6-0.7,14.6
		C31.7,278.7,31.9,283.4,31.7,288.5z"/>
	<path class="st3" d="M418.7,51.1c0.5,0,1,0,1.4,0.1c3.2,0.3,4.7,3,3.5,5.9c-0.4,1.1-1.2,1.9-2.2,2.4c-1.4,0.8-2.9,0.9-4.3,0.4
		c-3-0.8-4.4-4.6-2.6-7.1c0.7-0.9,1.5-1.4,2.6-1.6C417.7,51.1,418.2,51.1,418.7,51.1z"/>
	<path class="st3" d="M133.2,56.4c-1.2,0-2.4-0.3-3.4-1c-0.8-0.4-1.3-1.1-1.6-1.9c-0.8-1.5-0.8-3.8,1.6-5c3.1-1.5,6.5-0.2,7.6,3
		c0.7,2.2-0.1,3.9-2.4,4.6C134.3,56.3,133.7,56.3,133.2,56.4z"/>
	<path class="st3" d="M391.3,27.4c0.3,0,0.7,0,1.1,0.1c0.7,0.1,1,0.4,1.2,1.1c0.9,3.7-2.4,6.5-4.8,6.2c-0.8-0.1-1.3-0.3-1.6-1.1
		c-0.3-0.7-0.5-1.3-0.8-2c-0.4-1.4,0.1-2.5,1.2-3.3C388.6,27.6,389.8,27.3,391.3,27.4z"/>
	<path class="st3" d="M112.3,38.2c-1.3,0-2.2-0.4-3-1.4c-0.7-0.8-0.9-1.8-1-2.7c-0.1-1.2,0.5-2.2,1.8-2.6c2.9-1,5.2,1,5.7,3.2
		c0.2,0.9-0.1,1.6-0.8,2.3C114.3,37.8,113.4,38.3,112.3,38.2z"/>
	<path class="st3" d="M415.6,12.1c0,1-0.7,1.5-1.6,1.4c-0.4-0.1-1-0.2-1.4-0.4c-1.1-0.4-1.4-1.5-1.1-2.6c0.3-0.8,1-1.2,1.9-1
		C414.7,9.9,415.6,10.9,415.6,12.1z"/>
	<path class="st2" d="M31.7,288.5c0.1-5.2,0-9.8,0.2-14.4c0.2-4.8,0.2-9.8,0.7-14.6c0.2-2.6,0.2-5.4,0.4-8c0.4-5,0.7-10.1,1-15.1
		c0.3-4.5,0.8-9,1.1-13.5c0-0.2,0-0.4,0-0.7c0.2-6.6,0.5-13.3,0.7-19.8c0.1-13.7-0.2-27.3-0.1-41c0-2.4,0-4.8,0.1-7.1
		c0.2-3.9,0.3-8,1.1-12c0.7-3.4,1.9-6.5,3.9-9.2c5.6-7.6,9.5-15.9,12.6-24.8c0.9-2.6,2.1-5,3.3-7.6c1.5-3.1,3.9-5.3,7-6.9
		c2.2-1.2,4.5-2,6.9-2.6c3.7-1,7.5-1.6,11.2-2.2c3.3-0.5,6.5-1.1,9.8-1.8c0.5-0.1,1.1-0.3,1.5-0.5c2-0.8,3.8-0.5,5.7,0.3
		c1.5,0.7,2.7,1.6,4.1,2.6c2.2,1.6,4.6,3,7.3,3.6c3,0.8,6,0.7,9,0.1c3.4-0.5,6.6-1.9,9.8-3.4c2.3-1.1,4.7-2.3,7-3.4
		c4.1-2,8.3-3.3,12.9-3.8c0.7-0.1,1.4-0.1,2.1-0.1c4.3,0,8.6,0,12.9,0.1c12.2,0.3,24.3,0.1,36.5,0.4c10.7,0.3,21.5,0.1,32.3,0.4
		c8.8,0.2,17.7,0.1,26.4,0.4c5.8,0.2,11.5,0.1,17.3,0.3c4.4,0.2,8.9,0.2,13.3,0.4c3.8,0.2,7.8,0.2,11.6,0.4
		c5.4,0.3,10.9,0.2,16.2,0.4c8.8,0.4,17.4,0.2,26.2,0.4c4.4,0.1,8.9,0.1,13.3,0.2c4.2,0,8.3,0.1,12.5,0c2.9-0.1,5.7-0.3,8.7-0.5
		c2.9-0.2,5.6-0.3,8.4,0.1c3,0.5,5.5,1.9,7.5,4.1c1,1.2,2.1,2.3,3.3,3.3c3.8,3.1,8.1,4.9,12.9,5.8c2,0.3,4.1,0.7,6,0.8
		c3.8,0.2,7.5-0.5,10.7-2.5c2.5-1.5,5.3-2.7,8.1-3.6c3-0.9,6-1.5,9.1-1.9c2.9-0.3,5.6-0.4,8.4-0.4c2,0,3.9-0.2,5.9-0.4
		c1.9-0.2,2.6-0.4,3.1,2.3c0.8,4.8,1.9,9.5,3.7,14c2.4,5.6,5.7,10.6,10.2,14.9c1.2,1.1,2.5,2.1,4.1,2.6c4.6,1.6,7.6,5,9.1,9.6
		c0.8,2.4,1.3,4.9,1.6,7.5c0.9,5.6,1.2,11.2,1.4,16.8c0.1,3.5,0.1,7,0.3,10.5c0.5,11.2,0.2,22.4,0.3,33.6c0,0.9-0.1,1.8,0.3,2.6
		c0.2,0.4,0.1,1.1,0.1,1.6c-0.1,4.8-0.2,9.5-0.3,14.4c-0.1,2.9-0.1,5.8-0.1,8.7c-0.1,5.6-0.3,11.3-0.4,16.9
		c-0.1,3.3-0.2,6.5-0.3,9.6c-0.3,5.8-0.8,11.6-1.1,17.4c-0.1,2.2-0.2,4.4-0.4,6.6c-0.3,2.6-0.3,5.4-0.5,8c-0.3,3.9-0.8,7.9-1.1,11.7
		c-0.2,1.9-0.3,3.6-0.5,5.5c-0.4,4.5-0.9,9-1.4,13.4c-0.4,3.4-1.1,6.8-2.4,10c-0.2,0.5-0.4,1-0.7,1.5c-0.5,1.2-1.4,2.1-2.7,2.5
		c-4.1,1.6-6.9,4.7-9,8.6c-2.3,4.2-3.8,8.6-5.4,13c-1.2,3.5-2.3,7.1-3.5,10.6c-0.3,1.1-0.9,2.2-1.3,3.3c-1.2,2.6-3.2,4.6-5.7,6.1
		c-3.2,1.9-6.6,3.1-10.2,3.9c-1.5,0.3-3.2,0.7-4.7,0.9c-3.6,0.5-6.4,2.4-8.1,5.7c-2.3,4.2-3.6,8.7-4.2,13.4
		c-0.3,3.4-0.4,6.9-1.2,10.3c-0.4,2-0.9,3.8-1.9,5.6c-0.7,1.2-1.6,2.1-3,2.6c-1.9,0.7-3.5,0.3-4.8-1c-0.8-0.8-1.3-1.6-1.9-2.5
		c-0.7-1.3-1.3-2.6-2-3.9c-0.3-0.7-0.8-1.3-1.3-2c-1.4-1.5-3.7-1.6-5-0.1c-0.5,0.5-1,1.2-1.4,1.8c-0.8,1.2-1.5,2.5-2.3,3.8
		c-1.1,1.9-2,2.2-4.1,1.5c-3-0.9-5-2.7-6.1-5.6c-1.1-2.9-1.5-5.8-1.6-8.9c0-0.2,0-0.4,0-0.7c0-2.4-0.2-2.7-2.4-3.6
		c-1.1-0.4-2.1-0.9-3.2-1.2c-3.3-1-6.4-0.5-9.1,1.9c-0.5,0.5-1.1,1.1-1.8,1.5c-1.9,1.3-3.5,1.3-5.2-0.1c-0.9-0.7-1.6-1.5-2.4-2.4
		c-1.2-1.2-2.3-2.5-3.4-3.7c-0.7-0.7-1.3-1.2-2.2-1.6c-1.5-0.8-3.2-0.8-4.6,0.1c-0.5,0.3-1.1,0.7-1.5,1.1c-0.7,0.7-1.3,1.4-2,2.2
		c-0.9,1-1.8,2-2.6,3c-2.3,2.3-5.3,2.9-8.3,1.1c-1.6-1-3.1-2.3-4.3-3.7c-0.8-0.9-1.5-1.6-2.3-2.5c-1-1-2.1-1.8-3.3-2.3
		c-1.9-0.9-3.5-0.7-5.3,0.3c-1.2,0.7-2.2,1.5-3,2.6c-1,1.3-2,2.6-2.9,3.9c-0.8,1.2-1.6,2.3-2.6,3.3c-0.4,0.4-0.9,0.8-1.3,1.1
		c-0.5,0.4-1.2,0.3-1.8,0c-0.5-0.3-1-0.8-1.3-1.3c-1.3-1.6-2.1-3.5-3.1-5.3c-0.7-1.3-1.3-2.6-2.1-3.9c-0.9-1.5-2-2.9-3.5-3.9
		c-2.4-1.6-4.8-1.8-7.3-0.2c-2.9,1.8-4.7,4.4-6.1,7.3c-1.1,2.5-1.8,5.2-2.2,7.9c-0.7,3.8-1.3,7.8-2.1,11.6c-0.2,1.4-0.8,2.7-1.2,4.1
		c-0.8,2.3-2.3,4.1-4.2,5.5c-2.2,1.9-4.7,0.7-5.8-1.1c-0.8-1.3-0.9-2.9-1-4.3c-0.1-1.1-0.1-2.1-0.1-3.2c-0.1-2.7-0.2-5.5-0.4-8.2
		c-0.5-5.7-2.9-10.5-7.2-14.4c-0.3-0.3-0.8-0.7-1.2-0.9c-1.6-1.2-2.5-1.1-4.2,0.1c-0.8,0.7-1.4,1.4-1.9,2.3
		c-0.8,1.4-1.4,2.9-2.2,4.4c-0.7,1.4-1.5,2.6-2.6,3.8c-2.1,2-5.2,2.2-7.3,0.7c-1-0.7-1.9-1.5-2.5-2.5c-1-1.4-2-3-2.9-4.4
		c-0.8-1.3-1.8-2.5-2.9-3.7c-2.7-2.7-6.6-2.7-9.2-0.8c-2.3,1.6-3.9,3.7-5.3,6.2c-1.4,2.6-2.3,5.5-3,8.3c-1.1,4.5-1.5,9-2.2,13.5
		c-0.8,6.5-1.6,12.9-3.8,19.2c-0.9,2.5-1.9,5-3.2,7.3c-0.5,1-1.1,2-1.9,2.7c-2,2.1-3.8,2.4-6.1,0.7c-0.8-0.5-1.4-1.2-2-1.9
		c-3.4-3.7-5.3-8.2-6.1-13.3c-0.5-3-0.8-6-0.9-9c-0.1-3.1-0.2-6.1-0.5-9.3c-0.4-4.4-1.3-8.8-3.5-12.7c-2.3-4.2-5.4-7.6-9.3-10.2
		c-0.2-0.1-0.3-0.2-0.5-0.3c-2.4-1.4-4.5-1.2-6.6,0.7c-1.9,1.5-3.3,3.4-4.6,5.5c-1.1,1.9-2.2,3.7-3.3,5.7c-0.7,1.1-1.4,2.3-2.1,3.4
		c-0.8,1.1-1.6,2.1-2.7,3c-2.2,1.6-4.7,1.6-6.7-0.3c-0.7-0.5-1.1-1.3-1.6-2c-0.8-1-1.3-2-2.1-3c-0.8-1.1-1.8-2-3-2.6
		c-1.1-0.5-1.9-0.3-2.3,0.9c-0.4,0.9-0.7,1.9-1,2.7c-0.2,0.5-0.2,1.1-0.4,1.6c-1,2.3-3.6,3-5.6,1.4c-1-0.8-1.8-1.9-2.4-2.9
		c-1.1-1.8-2-3.7-2.9-5.7c-1.5-3.6-3.1-7.2-4.6-10.9c-0.8-1.9-1.9-3.6-3.2-5.3c-1.9-2.4-3.3-2.5-5.6-0.4c-1.9,1.8-3.4,3.7-4.9,5.7
		c-3.1,3.8-5.7,7.9-7.8,12.3c-1.8,3.7-3.1,7.6-3.8,11.6c-0.2,1.4-0.4,2.7-0.5,4.2c-0.2,2.5-1,4.8-1.9,7.1c-0.2,0.5-0.5,1.1-1,1.5
		c-1,0.9-2.1,0.9-3,0c-0.2-0.2-0.4-0.4-0.5-0.7c-3.5-4.7-5.9-9.9-6.7-15.7c-0.3-2.4-0.5-4.7-0.8-7.1c-0.3-3.4-0.8-6.7-2.1-9.9
		c-1-2.5-2.9-4.4-5.5-5.2c-1.5-0.4-3.2-0.7-4.8-0.3c-2.2,0.4-4.5,0.8-6.7,0.5c-4.5-0.3-8.2-2.1-11.1-5.7c-1.1-1.4-2.1-2.9-2.7-4.5
		c-0.9-1.9-1.6-3.8-2.6-5.8c-1-2.2-2.1-4.5-3.2-6.7c-1-2-2.5-3.4-4.6-4.2c-0.3-0.1-0.7-0.2-1-0.4c-3.4-1.4-5.9-3.8-7.7-7
		c-1.6-2.9-2.6-5.9-3.3-9.1c-0.9-3.5-1.3-7.1-1.8-10.9c-0.3-2.7-0.8-5.6-1.1-8.3c-0.2-1.6-0.4-3.2-0.5-4.8c-0.4-4.7-0.8-9.5-1-14.4
		C31.7,300.5,32,294.3,31.7,288.5z M420.5,407.3c0.2-0.5,0.3-0.7,0.3-0.9c0.2-1.6,0.4-3.4,0.5-5c0.2-3.6,0.8-7.1,1.8-10.6
		c1-3.6,2.4-7,4.6-10.2c1.9-2.7,4.3-4.8,7.5-6c1.4-0.5,3-0.9,4.5-1.1c3.6-0.5,7-1.3,10.3-2.9c3.3-1.5,5.6-3.8,6.5-7.3
		c0-0.1,0.1-0.2,0.1-0.4c1.5-4.7,3.1-9.5,4.6-14.3c1.3-3.8,3-7.6,5-11.1c2.4-3.9,5.6-7.2,9.8-9.4c0.2-0.1,0.5-0.2,0.8-0.4
		c0.7-0.4,1.1-0.9,1.3-1.6c0.4-1.9,1.2-3.7,1.4-5.7c0.5-4.9,1.1-9.8,1.5-14.7c0.8-7.9,1.5-15.8,2.1-23.8c0.5-7.9,1.2-15.7,1.4-23.6
		c0.1-3.4,0.3-6.8,0.4-10.1c0.3-7.3,0.7-14.8,0.7-22.1c0.1-12.3,0.1-24.7,0.1-37c0-8.9-0.2-17.8-0.8-26.6c-0.4-7.1-1-14.1-1.9-21.3
		c-0.1-1.2-0.4-2.5-0.8-3.7c-0.7-2.6-2.2-4.5-4.8-5.5c-2.3-0.9-4.4-2.3-6.1-3.9c-7.9-7.2-13.2-16-15.4-26.6c-0.1-0.4-0.2-1-0.3-1.4
		c-0.4-1.5-1.1-2.1-2.7-2c-0.4,0-1,0.1-1.4,0.2c-2.1,0.2-4.2,0.5-6.2,0.7c-4.5,0.1-8.8,1.3-12.6,3.6c-0.8,0.4-1.4,0.9-2.2,1.3
		c-2.9,1.5-5.8,2.5-9,2.6c-3.8,0.2-7.6,0.2-11.4-0.3c-6.7-1-12.7-3.5-17.9-8c-1.1-0.9-2.1-2-3.1-3c-1.8-1.8-3.7-2.6-6.2-2.6
		c-2.3,0-4.5,0.1-6.8,0.3c-2.6,0.2-5.2,0.7-7.8,0.7c-11.1,0-22.1,0.1-33.1-0.2c-10.5-0.3-21.2-0.5-31.7-0.9
		c-5.6-0.1-11.1-0.3-16.7-0.4c-8.3-0.2-16.6-0.4-24.9-0.7c-9.8-0.2-19.5-0.5-29.4-0.7c-10.3-0.2-20.5-0.3-30.8-0.4
		c-13.5-0.1-26.9-0.2-40.3-0.5c-3.7-0.1-7.5-0.1-11.2,0.3c-4.4,0.5-8.6,1.6-12.5,3.7c-0.8,0.4-1.6,0.9-2.4,1.3
		c-6.9,3.7-14.4,5.7-22.3,5.6c-5.7-0.1-10.9-2-15.4-5.7c-0.2-0.2-0.5-0.4-0.8-0.7c-0.7-0.5-1.4-0.8-2.3-0.5c-4.9,1.3-10,2-14.9,2.7
		c-3.1,0.5-6,1.1-9.1,2c-3,0.8-5.2,2.4-6.7,5c-2.3,3.8-4.3,7.8-5.7,12c-2.4,7.2-5.7,14-10.3,20.2c-3.6,4.7-5.2,10.3-5.3,16.2
		c0,3.3,0,6.5,0,9.8c0,12.3,0,24.5,0,36.7c0,11.3-0.3,22.7-1.3,34c-0.2,2.1-0.3,4.2-0.4,6.4c-0.2,4.3-0.4,8.6-0.5,12.8
		c-0.1,3.3-0.2,6.5-0.4,9.6c-0.2,3.8-0.4,7.6-0.5,11.4c0,2.2,0,4.4-0.2,6.6c-0.4,4.2-0.4,8.4-0.4,12.6c0,5.2,0.3,10.3,0.5,15.4
		c0.2,4.1,0.5,8.1,0.9,12.2c0.3,3.8,0.8,7.7,1.1,11.5c0.3,3.2,0.7,6.2,1.2,9.4c0.7,3.4,1.8,6.7,3.4,9.8c1.5,2.9,3.7,4.9,6.9,5.8
		c2.5,0.7,4.4,2.3,5.6,4.5c2.1,3.8,4.2,7.7,5.6,11.8c0.8,2.3,2.1,4.3,3.5,6.2c1.2,1.6,2.9,2.6,4.9,3c2.1,0.3,4.1,0,6-0.3
		c3.6-0.5,7-0.2,10.3,1.2c3.3,1.3,5.7,3.6,7,6.9c0.7,1.6,1.2,3.3,1.6,5c0.7,2.9,0.9,5.7,1.2,8.6c0.3,2.1,0.7,4.3,0.9,6.5
		c0.5-0.2,0.7-0.7,0.8-1.1c0.7-2,1.5-3.9,2.4-5.8c1-2.1,2-4.1,2.9-6.1c3.2-7.5,8.6-13.2,14.1-18.7c1.8-1.8,4.2-2.3,6.7-1.9
		c3.3,0.5,5.9,2.2,8,4.7c1.1,1.3,1.9,2.9,2.6,4.3c0.8,1.6,1.5,3.3,2.3,4.9c1.1,2.2,2.1,4.5,2.7,6.8c0.1,0.2,0.1,0.5,0.2,0.8
		c0.3,0.7,0.9,0.9,1.5,0.5c0.4-0.3,0.9-0.7,1.3-1c1.6-1.2,3.5-1.8,5.6-1.4c2.5,0.4,4.7,1.3,6.6,3.2c0.9,0.9,1.8,1.9,2.5,2.9
		c0.3,0.3,0.7,0.8,1,1.1c0.1,0.1,0.4,0.2,0.5,0c0.3-0.3,0.7-0.8,0.9-1.2c1.2-1.9,2.3-3.7,3.5-5.6c1.2-1.9,2.4-3.8,3.8-5.6
		c1.5-1.9,3.2-3.3,5.4-4.4c3.1-1.5,6.2-1.9,9.5-0.5c4.5,1.9,8.3,4.6,11.4,8.4c3.6,4.6,5.8,9.8,7,15.5c0.9,4.2,1.2,8.4,1.3,12.8
		c0.1,2.4,0.1,4.8,0.3,7.1c0.3,3.8,1.5,7.5,3.5,10.7c0.2,0.3,0.3,0.8,0.9,0.9c0.4-0.3,0.5-0.8,0.7-1.2c1.5-3.6,2.5-7.2,3.4-11.1
		c1-4.8,1.4-9.8,2.1-14.6c0.5-3.5,1-7.1,1.9-10.6c1.1-5,3.5-9.5,6-13.9c0.4-0.8,1.1-1.4,1.9-2c2.6-2.1,5.6-3.6,8.8-4.5
		c0.9-0.2,1.8-0.3,2.7-0.2c2.9,0.3,5.7,1.1,8.1,2.6c1.3,0.9,2.4,2,3.3,3.3c1.2,1.9,2.4,3.7,3.6,5.7c0.5,0.9,1.2,0.9,1.9,0.1
		c0.4-0.5,0.7-1.2,0.9-2c1.3-3.6,3.7-6.2,7-8.1c1.9-1.1,3.9-1.4,6.1-0.8c4.6,1.3,8.1,3.9,10.5,7.9c2.4,3.8,4.5,8,5.2,12.6
		c0.3-0.1,0.4-0.3,0.5-0.7c0.3-1.3,0.7-2.6,1-3.8c0.3-1.3,0.5-2.7,0.9-4.2c1.1-4.1,2.9-7.8,5.6-11.1c6.5-7.7,18.9-6.9,24.2,1.4
		c0.7,1,1.1,2,1.8,2.9c0.3,0.5,0.7,1.3,1.2,1.8c0.4-0.2,0.5-0.8,0.9-1.2c0.7-1.1,1.5-2.1,2.5-2.7c2.2-1.5,4.6-2.7,7.2-3.4
		c1.8-0.4,3.5-0.4,5.2,0.1c1.1,0.4,2.3,0.8,3.4,1.2c2.5,1,4.5,2.5,5.9,4.9c0.7,1.2,1.9,2,2.9,2.7c0.5,0.3,1.1,0.2,1.4-0.3
		c0.5-0.9,1.1-1.9,1.9-2.5c1.1-1.1,2.2-2.2,3.4-3.2c0.4-0.3,0.9-0.7,1.4-1c3.8-2.2,10.2-1.9,13.6,1.4c1.4,1.4,3,2.6,4.4,3.9
		c1.2,1.1,1.3,1.1,2.7,0.3c0.1-0.1,0.2-0.1,0.3-0.2c6.9-3.3,13.4-2.2,19.7,1.6c1.9,1.1,3,2.9,3.4,4.9c0.2,1.1,0.3,2.2,0.3,3.4
		c0.1,1.3,0.2,2.6,0.3,3.9c0,0.4,0.2,1.1,0.7,1.3c0.5,0.2,0.8-0.3,1.1-0.7c0.8-0.8,1.6-1.5,2.6-2.2c1.6-1.1,3.5-1.8,5.5-1.9
		c4.3-0.2,7.6,1.6,10.2,4.9C419.6,406,420,406.6,420.5,407.3z"/>
	<path class="st4" d="M420.5,407.3c-0.5-0.8-0.9-1.3-1.3-1.9c-2.6-3.3-5.9-5.2-10.2-4.9c-2.1,0.1-3.8,0.8-5.5,1.9
		c-1,0.7-1.8,1.4-2.6,2.2c-0.3,0.3-0.5,1-1.1,0.7c-0.4-0.2-0.5-0.8-0.7-1.3c-0.1-1.3-0.2-2.6-0.3-3.9c-0.1-1.1-0.1-2.2-0.3-3.4
		c-0.5-2.1-1.6-3.8-3.4-4.9c-6.2-3.8-12.8-4.9-19.7-1.6c-0.1,0.1-0.2,0.1-0.3,0.2c-1.5,0.7-1.5,0.7-2.7-0.3c-1.4-1.3-3-2.6-4.4-3.9
		c-3.4-3.3-9.8-3.6-13.6-1.4c-0.4,0.3-1,0.5-1.4,1c-1.1,1.1-2.3,2.1-3.4,3.2c-0.8,0.8-1.3,1.6-1.9,2.5c-0.3,0.5-0.9,0.8-1.4,0.3
		c-1.1-0.8-2.2-1.5-2.9-2.7c-1.4-2.3-3.4-3.8-5.9-4.9c-1.1-0.4-2.2-0.9-3.4-1.2c-1.8-0.5-3.5-0.5-5.2-0.1c-2.6,0.7-5,1.9-7.2,3.4
		c-1.1,0.8-1.9,1.6-2.5,2.7c-0.2,0.4-0.3,1-0.9,1.2c-0.5-0.4-0.9-1.1-1.2-1.8c-0.5-1-1.1-2-1.8-2.9c-5.4-8.3-17.8-9-24.2-1.4
		c-2.7,3.2-4.5,7-5.6,11.1c-0.3,1.3-0.5,2.7-0.9,4.2c-0.3,1.3-0.7,2.6-1,3.8c-0.1,0.2-0.2,0.5-0.5,0.7c-0.7-4.6-2.7-8.7-5.2-12.6
		c-2.5-3.9-6-6.6-10.5-7.9c-2.2-0.7-4.2-0.3-6.1,0.8c-3.3,1.9-5.7,4.5-7,8.1c-0.2,0.7-0.4,1.3-0.9,2c-0.5,0.8-1.3,0.8-1.9-0.1
		c-1.2-1.9-2.4-3.8-3.6-5.7c-0.9-1.3-2-2.4-3.3-3.3c-2.5-1.6-5.3-2.3-8.1-2.6c-0.9-0.1-1.9,0-2.7,0.2c-3.2,0.9-6.1,2.4-8.8,4.5
		c-0.8,0.5-1.4,1.2-1.9,2c-2.5,4.4-4.9,8.9-6,13.9c-0.8,3.5-1.3,7-1.9,10.6c-0.7,4.8-1.1,9.8-2.1,14.6c-0.8,3.8-1.9,7.5-3.4,11.1
		c-0.2,0.4-0.3,0.9-0.7,1.2c-0.5-0.1-0.7-0.5-0.9-0.9c-2-3.3-3.2-6.9-3.5-10.7c-0.2-2.4-0.3-4.8-0.3-7.1c-0.1-4.3-0.4-8.6-1.3-12.8
		c-1.2-5.7-3.5-10.9-7-15.5c-3.1-3.8-6.8-6.7-11.4-8.4c-3.3-1.3-6.5-1.1-9.5,0.5c-2.1,1.1-3.8,2.6-5.4,4.4c-1.4,1.8-2.6,3.6-3.8,5.6
		c-1.2,1.9-2.3,3.7-3.5,5.6c-0.2,0.4-0.5,0.8-0.9,1.2c-0.1,0.2-0.4,0.1-0.5,0c-0.3-0.3-0.7-0.8-1-1.1c-0.9-1-1.6-2-2.5-2.9
		c-1.9-1.8-4.1-2.7-6.6-3.2c-2.1-0.3-3.9,0.2-5.6,1.4c-0.4,0.3-0.9,0.7-1.3,1c-0.7,0.4-1.3,0.2-1.5-0.5c-0.1-0.2-0.2-0.5-0.2-0.8
		c-0.7-2.4-1.6-4.6-2.7-6.8c-0.8-1.6-1.5-3.3-2.3-4.9c-0.8-1.5-1.5-3-2.6-4.3c-2.1-2.6-4.7-4.2-8-4.7c-2.5-0.4-4.8,0.1-6.7,1.9
		c-5.6,5.6-11,11.4-14.1,18.7c-0.9,2.1-2,4.1-2.9,6.1c-0.9,1.9-1.8,3.8-2.4,5.8c-0.1,0.4-0.2,0.8-0.8,1.1c-0.3-2.2-0.7-4.3-0.9-6.5
		c-0.4-2.9-0.5-5.7-1.2-8.6c-0.4-1.8-1-3.4-1.6-5c-1.3-3.3-3.7-5.6-7-6.9c-3.3-1.4-6.8-1.8-10.3-1.2c-2,0.3-4.1,0.7-6,0.3
		c-2.1-0.3-3.7-1.3-4.9-3c-1.4-2-2.6-3.9-3.5-6.2c-1.4-4.2-3.5-8-5.6-11.8c-1.2-2.3-3.1-3.8-5.6-4.5c-3.2-0.9-5.4-3-6.9-5.8
		c-1.6-3.1-2.7-6.4-3.4-9.8c-0.7-3.1-0.9-6.2-1.2-9.4c-0.4-3.8-0.8-7.7-1.1-11.5c-0.3-4.1-0.7-8.1-0.9-12.2
		c-0.3-5.2-0.5-10.3-0.5-15.4c0-4.3,0-8.4,0.4-12.6c0.2-2.2,0.2-4.4,0.2-6.6c0.1-3.8,0.3-7.6,0.5-11.4c0.2-3.2,0.3-6.5,0.4-9.6
		c0.2-4.3,0.3-8.6,0.5-12.8c0.1-2.1,0.3-4.2,0.4-6.4c1-11.3,1.3-22.6,1.3-34c0-12.3,0-24.5,0-36.7c0-3.3,0-6.5,0-9.8
		c0.1-5.9,1.5-11.4,5.3-16.2c4.7-6.1,7.9-12.9,10.3-20.2c1.4-4.3,3.4-8.2,5.7-12c1.5-2.6,3.8-4.3,6.7-5c3-0.8,6-1.4,9.1-2
		c5-0.9,10-1.4,14.9-2.7c0.9-0.2,1.6-0.1,2.3,0.5c0.2,0.2,0.5,0.4,0.8,0.7c4.4,3.7,9.5,5.6,15.4,5.7c7.9,0.1,15.4-1.8,22.3-5.6
		c0.8-0.4,1.6-0.9,2.4-1.3c3.9-2.1,8.1-3.2,12.5-3.7c3.7-0.4,7.5-0.4,11.2-0.3c13.5,0.3,26.9,0.4,40.3,0.5
		c10.3,0.1,20.5,0.2,30.8,0.4c9.8,0.2,19.5,0.4,29.4,0.7c8.3,0.2,16.6,0.4,24.9,0.7c5.6,0.1,11.1,0.3,16.7,0.4
		c10.5,0.3,21.2,0.5,31.7,0.9c11.1,0.3,22.1,0.3,33.1,0.2c2.6,0,5.2-0.3,7.8-0.7c2.3-0.2,4.5-0.3,6.8-0.3c2.4,0,4.5,1,6.2,2.6
		c1,1,2,2,3.1,3c5.2,4.5,11.2,7,17.9,8c3.8,0.5,7.6,0.5,11.4,0.3c3.2-0.1,6.2-1.1,9-2.6c0.8-0.4,1.4-0.9,2.2-1.3
		c3.9-2.3,8.1-3.5,12.6-3.6c2.1,0,4.2-0.3,6.2-0.7c0.4-0.1,1-0.2,1.4-0.2c1.6-0.1,2.3,0.3,2.7,2c0.1,0.4,0.2,1,0.3,1.4
		c2.2,10.5,7.3,19.4,15.4,26.6c1.9,1.6,3.8,3.1,6.1,3.9c2.5,1,4.2,2.9,4.8,5.5c0.3,1.2,0.5,2.5,0.8,3.7c0.9,7,1.5,14.1,1.9,21.3
		c0.4,8.9,0.8,17.8,0.8,26.6c0,12.3,0,24.7-0.1,37c0,7.3-0.3,14.8-0.7,22.1c-0.2,3.4-0.3,6.8-0.4,10.1c-0.3,7.9-0.9,15.8-1.4,23.6
		c-0.7,7.9-1.3,15.9-2.1,23.8c-0.4,4.9-1,9.8-1.5,14.7c-0.2,2-0.9,3.8-1.4,5.7c-0.2,0.7-0.7,1.2-1.3,1.6c-0.2,0.1-0.4,0.3-0.8,0.4
		c-4.2,2.2-7.3,5.4-9.8,9.4c-2.1,3.5-3.7,7.2-5,11.1c-1.6,4.7-3.1,9.5-4.6,14.3c0,0.1-0.1,0.2-0.1,0.4c-0.9,3.5-3.2,5.8-6.5,7.3
		c-3.3,1.5-6.8,2.3-10.3,2.9c-1.5,0.2-3.1,0.5-4.5,1.1c-3.2,1.2-5.5,3.3-7.5,6c-2.1,3.1-3.6,6.6-4.6,10.2c-1,3.5-1.4,7-1.8,10.6
		c-0.1,1.6-0.3,3.4-0.5,5C420.9,406.7,420.8,406.9,420.5,407.3z M179.1,247.9c0,2.6,0.4,5.7,1.3,9c1.3,4.8,3.4,9.4,5.2,14
		c1.3,3.4,7,3.9,9,1.8c1.8-2,3.5-4.1,4.5-6.6c0.9-2.2,1.9-4.3,3-6.4c2.6-5.2,5.4-10.2,8-15.4c2.6-5,5-10.2,6.9-15.6
		c1.5-4.4,3.5-8.6,5.9-12.6c0.3-0.5,0.7-1.2,1.2-1.6c0.4-0.4,1.1-0.4,1.5,0.1c0.4,0.4,0.8,1,1.1,1.5c1,1.8,2,3.6,3,5.4
		c1.5,2.6,3.5,4.9,5.8,6.9c2.5,2.1,5.5,3.5,8.7,4.1c7.2,1.2,14.3,0.8,21.4-1.1c6.4-1.8,12.3-4.5,18-7.8c3.8-2.3,7.7-4.7,11.5-7.1
		c3-1.9,5.8-3.9,8.3-6.5c1.4-1.4,3-1.3,4.7-1c0.3,0.1,0.7,0.3,0.7,0.8c0,1.6,0.3,3.2-0.7,4.7c-0.4,0.7-0.8,1.5-1,2.3
		c-1,3.5-1.9,7-2.7,10.6c-1.2,4.6-2.1,9.3-2.3,14.1c-0.1,2.4-0.2,4.8-0.3,7.1c-0.1,2.5-0.1,5,0.3,7.6c0.4,2.6,1,5.3,2.6,7.5
		c3,4.2,7.7,5.7,12.5,3.9c3.4-1.2,5.8-3.5,7.2-6.7c1.3-3.1,2.6-6,3.8-9.1c1.4-3.7,2.6-7.6,3.3-11.5c1-5.9,2.1-12,3.1-17.9
		c0.8-4.5,1.5-9,1.4-13.6c0-0.9,0-1.6,0-2.5c0.1-2.4,0.1-4.9,0.9-7.3c0.7-2.3,0.9-4.7,1-7.1c0-1.9,0.3-3.7,0.9-5.6
		c1-3.2,1.4-6.5,1.3-9.8c0-0.7,0.1-1.4,0.2-2.1c0.4-1.8,0.1-3.4-0.5-4.9c-0.4-1.3-1.2-2.4-2.1-3.4c-1.6-2.1-3.5-3.8-5.6-5.4
		c-2.4-1.9-4.8-3.6-7.2-5.5c-0.4-0.3-1-0.7-1.4-0.9c-2.2-1.1-4.3-0.8-6,1c-0.7,0.7-1.2,1.4-1.6,2.2c-2.2,3.4-4.7,6.7-7.6,9.6
		c-4.5,4.8-9.3,9.2-14.4,13.4c-2.1,1.8-4.4,3.4-6.7,4.7c-2,1.2-3.9,2.3-5.7,3.6c-3.7,2.6-7.7,4.7-11.7,6.7c-1.3,0.7-2.7,1.1-4.3,1.2
		c-1.5,0.2-3.1,0.1-4.6-0.1c-2.6-0.3-4.4-1.8-5-4.4c-0.2-1-0.4-2.1-0.4-3.2c0.1-3.9,0-7.9,1.1-11.7c0.5-2.2,0.3-4.3-0.7-6.4
		c-2.2-4.7-5-9.1-8.2-13.3c-1.1-1.5-2.6-2.1-4.5-1.8c-0.2,0-0.4,0.1-0.7,0.1c-1.6,0.3-2.9-0.3-3.7-1.8c-0.3-0.5-0.7-1.1-0.8-1.8
		c-0.8-2.5-2.5-3.8-4.8-4.6c-1.3-0.4-2.6-0.3-3.7,0.7c-1.9,1.6-3.8,3.2-5.6,4.8c-3.3,3.1-6.1,6.6-7.9,10.9c-0.4,1.1-1.1,2-1.8,2.9
		c-3.4,4.3-6.2,8.9-8.6,13.8c-4.9,10.1-9.8,20.3-14.3,30.6c-3.5,8.1-6.7,16.2-9.6,24.6C180,240.1,179.1,244,179.1,247.9z
		 M174.9,147.5L174.9,147.5c-0.9,0-1.9-0.1-2.7,0c-4.1,0.3-8.1,0.5-12.2,1c-3.2,0.3-6.5,0.8-9.5,1.5c-4.1,0.9-8,2.3-11.8,3.7
		c-4.4,1.6-8.7,3.3-13.3,4.3c-2.5,0.5-4.9,1.3-7.2,2.1c-5.6,2.1-11.3,4.1-17,5.8c-2,0.7-4.1,1.3-6,1.9c-1.6,0.5-2.9,1.5-3.5,3.1
		c-0.4,1-0.9,2-1.1,3c-0.7,2.2-0.7,4.5,0.3,6.6c0.9,2,1.9,3.9,2.9,5.9c1.8,3.4,4.3,5.9,8.2,6.8c1.2,0.3,1.5,0.9,1.5,2.2
		c0,0.4-0.1,0.9-0.2,1.2c-0.3,2-1,3.9-1.8,5.8c-0.9,2.3-1.8,4.6-2.6,6.9c-0.2,0.5-0.4,1.1-0.7,1.5c-0.7,1-1.4,1.3-2.5,0.9
		c-0.5-0.2-1.2-0.5-1.6-0.9c-0.5-0.3-1.2-0.8-1.8-1.2c-1.2-1-2.6-1.2-4.2-0.9c-0.7,0.1-1.2,0.3-1.9,0.5c-2.5,1-4.7,2.4-6.7,4.4
		c-1.1,1.1-1.9,2.4-2.4,3.9c-0.8,2.6-1,5.3-0.4,7.9c0.9,4.4,2.9,8,6.5,10.7c0.4,0.3,0.8,0.5,1.2,0.9c1.5,1.2,2.1,2.9,1.5,4.7
		c-0.9,3-1,6.1-1.1,9.2c0,1.6-0.1,3.4-0.3,5c-0.2,1.2-0.2,2.5-0.2,3.8c0.4,8.6,7.9,13.4,14.5,13.5c2.2,0,3.8-0.9,4.8-2.9
		c1-1.9,1.6-3.8,1.6-6c0.1-4.8,0.7-9.5,2-14.1c0.7-2.4,1.4-4.7,2.6-6.9c1.8-3.2,4.4-5.3,7.9-6.1c3.4-0.8,6.7-1.5,10.1-2.1
		c6.6-1.1,13.2-2.3,19.7-3.7c4.4-1,8.9-1.8,13.4-2.2c2.1-0.2,3.7-1.1,4.9-2.7c1.2-1.6,2.5-3.2,3.7-4.8c0.3-0.4,0.8-0.9,1.1-1.3
		c0.7-1,0.9-2.1,0.4-3.2c-0.4-1.2-1.1-2.3-2.2-3.1c-0.7-0.5-1.3-1-2-1.5c-1-0.8-1.8-1.8-1.9-3c-0.1-1-0.7-1.4-1.5-1.9
		c-1.9-0.9-3.7-1.2-5.7-1.3c-3.6-0.2-7.2,0-10.7,0.5c-5.8,0.8-11.7,1.6-17.5,2.7c-1,0.2-2,0.3-3,0.4c-0.3,0-0.8-0.1-0.9-0.4
		c-0.5-1.8-1-3.5,0-5.2c1.2-1.9,1.6-4.1,1.9-6.2c0.2-1.6,0.7-3.2,1.6-4.5c1-1.4,1.5-3.2,1.9-4.9c0.2-1.3,0.4-2.6,0.3-3.9
		c0-1.6,0.8-2.9,2.3-3.5c1-0.4,2.1-1,3.1-1.4c4.3-1.8,8.7-2.9,13-4.1c5.6-1.4,11.3-2.3,17.1-2.6c2.6-0.1,5.4-0.4,8-0.8
		c2.5-0.3,5-0.5,7.6-0.3c3.8,0.3,7.6,0.1,11.3-1.1c1-0.3,2-0.7,3-1.2c3.4-2.1,4.6-6.9,1.3-9.9c-0.2-0.2-0.4-0.4-0.5-0.5
		c-3.3-3.3-6.7-6.4-10.3-9.4c-2.2-1.9-4.7-2.9-7.5-3C178.2,147.5,176.6,147.5,174.9,147.5z M447.6,148.4v-0.1
		c-1.4,0.1-2.9,0.1-4.2,0.2c-4.5,0.4-9,1-13.4,1.5c-4.7,0.5-9.3,1.3-13.9,2.4c-4.3,1.1-8.7,2-13,2.7c-4.2,0.7-8.2,1.8-12.1,3.6
		c-1.1,0.5-2.3,1-3.5,1.4c-6.7,2.5-13.7,4.3-20.7,5.8c-1.9,0.4-3.8,0.9-5.7,1.3c-2.4,0.7-3.5,2-3.7,4.5c0,0.1,0,0.3,0,0.4
		c0,5.3,1,10.2,3.5,14.8c1.4,2.6,3.4,4.6,6.1,5.8c2.6,1.2,2.9,1.9,2.2,4.6c-1,4.3-2.9,8.2-4.1,12.4c-0.4,1.5-2,2-3.2,1
		c-0.2-0.2-0.4-0.3-0.7-0.4c-1.4-1-3.1-1.4-4.8-1.3c-2.3,0.1-4.4,0.7-6.5,1.6c-1.4,0.7-2.4,1.8-3,3.2c-0.2,0.8-0.5,1.4-0.7,2.2
		c-0.9,3.9-1,8.1-1.4,12.2c-0.1,0.8,0.2,1.5,0.5,2.2c1.4,3,3.3,5.6,6.1,7.3c1,0.7,1.4,1.4,1.2,2.6c-0.7,4.1-1.1,8.2-2,12.3
		c-0.4,2.2-0.4,4.4,0,6.5c1.3,6.8,7.8,13.3,17,12.3c1.6-0.1,2.7-0.9,3.3-2.4c1-2.7,1.6-5.5,1.8-8.4c0.1-2.1,0.2-4.2,0.5-6.4
		c0.5-3.7,1.6-7.2,3.4-10.6c1.9-3.4,4.6-5.6,8.7-6c2.2-0.2,4.4-0.8,6.7-1.1c3.9-0.7,7.9-1.3,11.8-1.9c3-0.4,5.8-0.8,8.8-1.5
		c3.6-0.9,7.2-1.8,11-2c5.8-0.3,10.1-3.2,12.7-8.4c0.5-1.1,0.8-2.1,0.5-3.3c-1-5.2-3.7-9-8.2-11.7c-1.8-1.1-3.6-1.4-5.7-1.2
		c-0.9,0.1-1.6,0.2-2.5,0.2c-5,0-10.1,0.8-15.1,1.5c-3.1,0.5-6.1,0.9-9.2,1.3c-0.5,0.1-1.1,0.1-1.6,0c-1.3-0.2-1.8-0.9-1.8-2.2
		s0.4-2.6,1.2-3.7c0.8-1.2,1.1-2.4,1.1-3.7c0-2.1,0.7-4.1,1.8-5.8c1-1.5,1.5-3.2,1.9-4.9c0.2-1.2,0.3-2.4,0.4-3.5
		c0-1.9,0.9-3.2,2.6-3.9c0.9-0.3,1.6-0.8,2.5-1.1c1.8-0.8,3.6-1.2,5.5-1.6c8.6-2.1,17.1-4.1,25.9-5.4c4.9-0.8,9.9-1.4,14.9-1.8
		c4.3-0.3,8.6-0.7,12.8-0.9c2.1-0.1,3.3-1.1,3.8-3c1-3.4,0.5-6.5-2.2-8.9c-0.9-0.8-1.8-1.6-2.6-2.4c-2.6-2.3-5.3-4.5-7.7-7
		c-0.9-1-2.1-1.4-3.4-1.5C450,148.4,448.8,148.4,447.6,148.4z M280.6,321.3c0.1-0.9,0.1-1.3,0.2-1.6c0.3-1.8,1.2-3.3,2.1-4.8
		c0.5-1,1.2-2.1,1.5-3.2c0.4-1.1,0.2-2.2-0.4-3.2c-1.6-2.1-3.7-3.2-6.4-3.2c-0.9,0-1.6,0.3-2.2,1.1c-0.3,0.5-0.7,1.1-1,1.6
		c-0.5,1-1,2.1-1.4,3.1c-3.3,7.6-5.6,15.5-7.9,23.4c-0.1,0.5-0.3,1.1-0.3,1.6c-0.3,2.5-0.3,4.9,1,7.2c0.9,1.4,2,2.7,3.2,3.9
		c1.1,1.1,2,1.1,3.1-0.1c0.3-0.3,0.5-0.7,0.9-1c0.9-1.2,1.9-2.5,2.7-3.7c1.2-1.6,2.4-3.3,3.7-4.9c0.4-0.5,0.9-1.1,1.4-1.5
		c1.1-0.9,1.8-1,2.9-0.1c0.8,0.7,1.4,1.3,2.2,2.1c3.3,3.3,7.2,5.4,11.7,6.4c2.6,0.5,5.2,0.7,7.7-0.2c1.4-0.5,2.9-1.3,3.9-2.4
		c0.7-0.7,1.1-1.4,1.1-2.4c-0.1-1.5-1.2-2.9-2.6-3.2c-1-0.2-2-0.3-3-0.3c-1.9-0.1-3.8-0.2-5.7-0.4c-1.6-0.2-3.3-0.5-4.9-1.3
		c-1.9-0.9-3.3-2.1-4.4-3.8c-0.7-1.1-0.5-1.5,0.4-2.4c1.3-1.1,2.6-2.1,3.9-3.2c2.2-1.9,4.5-3.5,7.1-4.9c1.6-0.9,3.1-1.9,4.5-3.1
		c0.7-0.5,1.3-1.1,1.8-1.9c0.9-1.3,0.9-2.6-0.2-3.8c-0.8-0.9-1.6-1.5-2.6-2.1c-1.4-0.9-3-1-4.5-0.3c-1.2,0.5-2.4,1.2-3.4,2.1
		c-1.2,0.9-2.3,1.9-3.4,2.9c-1.1,0.9-2.2,1.6-3.4,2.1c-2.6,1.1-4.9,2.6-7.1,4.4C282.1,320.2,281.5,320.6,280.6,321.3z M126.3,337.5
		c0,0.2,0,0.4,0,0.7c-0.1,3.1,1.2,5.7,2.9,8.2c0.4,0.7,1,1.1,1.9,1.1c2.2,0,3.7-1.2,4.3-3.4c0.1-0.3,0.1-0.7,0.2-1
		c0.7-2.6,1.6-5,3.4-7.2c0.2-0.3,0.5-0.7,0.9-0.9c0.3-0.2,0.8-0.1,0.9,0.2c0.1,0.1,0.1,0.2,0.2,0.3c0.9,2.9,2.9,5.2,4.8,7.3
		c0.7,0.8,1.5,1.4,2.5,2c3,1.6,6.2,1.1,8.4-1.3c1.2-1.3,2.3-2.6,3.4-4.1c1.6-2.3,2.9-4.8,3.4-7.7c0.3-1.8,0.5-3.5,0.8-5.3
		c0.4-3.4,1.1-6.8,2.4-10c0.3-0.7,0.5-1.4,0.7-2.2c0.8-3.5-1.4-7.2-4.8-8.3c-1-0.3-1.8-0.1-2.4,0.8c-0.4,0.7-0.9,1.3-1.2,2
		c-1.1,2.3-1.8,4.7-2.2,7.2c-0.7,3.3-1.3,6.6-2.4,9.8c-0.5,1.6-1.3,3.1-2.3,4.5c-0.9,1.2-2,2.2-3.3,3c-0.5,0.2-1,0-1.1-0.5
		c-0.1-0.3-0.1-0.7-0.1-1.1c-0.1-1.6-0.2-3.4-0.3-5c-0.1-3.4,0-6.8,0.7-10.1c0.3-1.3,0.7-2.6,1-3.8c0.2-0.8,0.1-1.5-0.3-2.2
		c-1.4-2-3.1-3.6-5.5-4.4c-2.5-0.8-3.3-0.4-4.4,1.9c-3.5,7.5-7,14.9-10.6,22.3C126.8,332.5,126.3,334.9,126.3,337.5z M185.7,348
		L185.7,348c0.9,0,1.6,0,2.5,0c3.2-0.1,6.5-0.5,9.6-0.7c3.3-0.1,6.1-1.4,8.3-3.9c0.4-0.4,0.8-1,1.1-1.5c0.3-0.8,0.3-1.6-0.2-2.2
		c-1-1-2.1-2-3.3-2.6c-0.7-0.3-1.3-0.4-2.1-0.3c-2.1,0.4-4.2,0.5-6.2,0.8c-3.8,0.3-7.7,0.7-11.6,1c-0.2,0-0.4,0-0.7,0
		c-0.7-0.1-1-0.5-0.8-1.2c0.4-1.5,1.1-3,1.9-4.2c0.8-1.2,1.9-1.9,3.3-2.1c2.4-0.3,4.9-0.5,7.3-0.2c1,0.1,2,0,3-0.2
		c2.4-0.7,4.4-2.2,6.2-3.7c0.4-0.3,0.4-0.9,0-1.3c-0.9-0.9-1.8-1.6-2.6-2.4c-1.3-1.2-3-1.9-4.7-2.2c-1.9-0.3-3.7-0.5-5.7-0.1
		c-0.4,0.1-1,0.1-1.4,0.2c-0.9,0.1-1.2-0.1-1.5-1.1c-0.2-0.8-0.1-1.2,0.5-1.6c0.9-0.5,1.8-0.8,2.9-0.9c3.5-0.2,6.9-1.2,10.3-2.2
		c1.4-0.4,2.9-0.9,4.3-1.1c2.6-0.4,3.9-2.3,5.2-4.3c0.4-0.7,0.2-1.5-0.5-2.1c-0.5-0.4-1.1-0.9-1.6-1.3c-1-0.9-2.2-1.2-3.5-1.2
		c-3.8,0.1-7.6,0.3-11.3,1c-5.2,1-10.1,2.4-15.1,3.9c-0.4,0.1-1,0.3-1.4,0.5c-0.8,0.3-1.2,1-1.2,1.9c0.1,2.7,0.2,5.4,1.8,7.7
		c0.5,0.9,0.5,1.6,0.2,2.6c-1,2.7-2,5.5-3.7,8c-2.2,3.3-2.5,7.1-1.6,11c1,3.9,3.8,6.2,7.9,6.2C182.7,348,184.3,348,185.7,348z
		 M359.3,340.7c0,0.4,0,0.9,0,1.3c0.1,0.9,0.3,1.8,0.4,2.7c0.3,1.9,1.1,2.5,2.9,2.9c0.4,0.1,0.9,0.1,1.3,0.1c1.2,0,2.2-0.5,2.9-1.5
		c0.4-0.8,0.8-1.5,1-2.3c0.2-0.7,0.3-1.3,0.7-2c0.2-0.7,0.8-0.8,1.3-0.3c0.1,0,0.1,0.1,0.2,0.1c1.8,1.4,3.8,2.3,5.9,3.3
		c4.3,2,8.8,3.4,13.3,4.9c1.5,0.5,3.1,0.5,4.6,0.4c1,0,1.8-0.5,2.2-1.4c0.7-1.2,1-2.5,0.9-3.8c-0.1-1.3-0.7-2.3-1.8-3
		c-0.9-0.7-2-1.1-3.1-1.3c-1.4-0.3-2.9-0.7-4.4-0.9c-3.7-0.5-7.2-1.8-10.3-4.1c-0.9-0.7-0.8-1.5,0.1-2c0.5-0.3,1.1-0.3,1.6-0.3
		c2.6-0.1,4.9-1,7.1-2.3c2-1.2,3.7-2.7,5.5-4.3c1-1,1.5-2.2,1.6-3.5c0-0.8,0-1.5-0.1-2.3c-0.7-3.5-2-6.7-4.2-9.5
		c-1.4-1.9-3.1-3.5-4.9-4.9c-2.2-1.6-4.2-1.6-6.5-0.1c-0.4,0.3-0.9,0.7-1.3,1c-0.5,0.4-1,1-1.5,1.5c-1.8,1.9-3.3,3.8-4.8,5.8
		c-1.3,1.9-3,3.4-5.3,3.9c-1.1,0.2-1.3,1.1-1.5,2.1c-0.9,4.6-1.9,9.2-2.7,13.8C359.8,336.3,359.4,338.4,359.3,340.7z M327.6,348
		c1.5,0.1,3.1,0.2,4.5,0.1c2.9-0.2,5.7-0.7,8.7-0.7c3.6-0.1,6.4-2.1,8.4-4.9c0.4-0.7,0.5-1.3,0.1-2c-0.4-0.5-0.8-1.2-1.1-1.8
		c-0.9-1.4-2.1-2-3.8-1.5c-2.5,0.5-5,0.5-7.6,0.5c-2.7,0-5.5,0-8.2,0.3c-0.7,0.1-1.4,0.2-2.1,0.3c-0.8,0.1-1.2-0.4-1.1-1.1
		c0.4-3.4,2.6-5.8,5.9-6.2c1.9-0.2,3.8-0.4,5.7-0.2c3.9,0.4,7-1.4,10-3.7c0.8-0.5,0.7-1.1,0.1-1.8s-1.2-1.2-1.9-1.8
		c-1.3-1.2-2.9-2.1-4.6-2.4c-2.1-0.4-4.2-0.8-6.2-0.4c-0.5,0.1-1.1,0.1-1.6,0.2c-0.9,0-1.1-0.1-1.3-1c-0.2-0.8-0.1-1.2,0.5-1.6
		c0.8-0.5,1.6-0.9,2.6-0.8c1.3,0.1,2.6-0.2,3.9-0.4c1.2-0.3,2.4-0.7,3.6-1c2.2-0.7,4.3-1.3,6.6-1.5c2.9-0.3,4.3-2.4,5.6-4.7
		c0.3-0.5,0.2-1.1-0.3-1.5c-0.7-0.5-1.4-1.2-2.1-1.8c-0.9-0.8-1.9-1-3-0.9c-2.5,0.1-5,0.3-7.6,0.8c-6.4,1.1-12.4,3-18.6,4.7
		c-0.2,0.1-0.5,0.2-0.8,0.3c-1.5,0.7-2.2,1.9-1.9,3.6c0.4,1.8,0.8,3.4,1.4,5c0.8,2,0.7,3.8-0.3,5.7c-0.5,0.9-1.1,1.9-1.6,2.7
		c-1.2,2.1-2.4,4.2-3,6.5c-0.7,2.9-0.5,5.6,0.2,8.3c0.7,2.4,2.3,3.8,4.7,4.4c1,0.2,2,0.4,3,0.4C325.4,347.9,326.5,347.9,327.6,348z
		 M236.9,337.8v-0.1c0.4,0,1,0,1.4,0c1.2,0,2.4-0.1,3.6-0.2c1,0,1.6,0.9,1.4,1.9c-0.1,0.7-0.4,1.2-0.9,1.6c-0.3,0.3-0.7,0.8-1,1.1
		c-0.4,0.5-0.7,1.2-0.7,2c0,1.9,1.2,3.4,3.1,3.7c1.6,0.3,3.1-0.1,4.5-0.9c3.5-2.1,5.2-5.9,4.3-9.9c0-0.1,0-0.1-0.1-0.2
		c-0.4-1.6,0.1-3.1,1.4-4.1c0.4-0.3,0.8-0.5,1.2-0.9c0.3-0.3,0.8-0.7,1.1-1c0.7-0.8,0.4-1.9-0.4-2c-1.5-0.2-2.9-1.2-4.3-1.8
		c-1.3-0.5-2.1-1.5-2.4-3c-0.8-4.3-1.5-8.4-2.3-12.6c-0.2-1-0.2-2.1-0.4-3.2c-0.1-1-0.5-1.8-1.6-2c-1.5-0.3-3.1-0.7-4.6-0.7
		c-1.4,0-2.6,0.4-3.6,1.5c-0.8,0.8-1.4,1.5-2.1,2.4c-1,1.1-2.1,1.9-3.5,2.2c-2.2,0.4-3.5,1.9-4.5,3.7c-4.4,8.1-7.8,16.7-11.7,25
		c-0.1,0.1-0.1,0.2-0.2,0.4c-0.4,1.2-0.4,2.3,0.1,3.5c0.3,0.7,0.7,1.2,1,1.9c0.8,1.3,1.9,1.9,3.4,1.5c0.5-0.1,1.1-0.2,1.6-0.4
		c2.1-0.7,3.3-2,3.5-4.3c0.1-1.4,0.7-2.9,1.3-4.2c0.7-1.2,1.4-2.4,2.1-3.6c0.2-0.4,0.4-1.1,0.9-1c0.7,0.1,0.5,0.9,0.7,1.4
		c0,0.3,0.1,0.5,0.2,0.8c0.2,0.8,0.8,1.2,1.5,1.2c0.7,0.1,1.4,0.1,2.1,0.1C234.4,337.8,235.7,337.8,236.9,337.8z M435.6,313.9
		L435.6,313.9c1.8,0,3.5,0.1,5.3,0c2.3-0.1,2.7-1,1.6-3.1c0-0.1-0.1-0.1-0.1-0.2c-0.9-1.5-1.9-3.2-2.7-4.7c-0.7-1.1-1.5-1.6-2.7-1.5
		c-2.1,0-4.3,0-6.4,0c-1.8,0.1-3.5,0.2-5.2,0.8c-4.2,1.3-8.3,2.5-12.4,4.2c-2.2,0.9-4.4,1.9-6.5,3.1c-1,0.5-1.9,1.3-2.3,2.4
		c-1,1.9-1.3,3.8-0.9,5.9c0.1,0.9,0.5,1.6,1.2,2.2c2.7,2.1,5.7,3.6,9.3,3.4c2.6-0.2,5.2,0.3,7.7,1c0.7,0.2,1.3,0.4,2,0.8
		c1.2,0.7,1.8,2,1.5,3.4c-0.2,1-0.9,1.8-1.8,2.3c-2.7,1.5-5.3,3.2-8.1,4.5c-1.9,0.9-3.8,1.3-5.9,1.3c-0.7,0-1.4,0.1-2.1,0.2
		c-1.1,0.2-1.6,0.9-1.8,2.1c0,0.7,0,1.4,0.1,2.1c0.4,3,2.1,4.4,5.2,4.6c2,0.1,3.9-0.1,5.8-0.9c4.2-1.5,8-3.8,11.3-6.9
		c1.8-1.5,3-3.5,3.8-5.7c0.9-2.2,0.8-4.3-0.5-6.2c-0.8-1.2-1.5-2.4-2.3-3.5c-1.3-1.8-2.7-3.4-4.6-4.6c-1.4-0.9-2.4-2.3-4.1-3
		c-0.1,0-0.1-0.1-0.1-0.1c-0.2-0.2-0.4-0.5-0.3-1c0.1-0.2,0.3-0.4,0.5-0.5c2.4-0.7,4.9-1.3,7.3-1.9c2-0.5,4.1-0.7,6-0.4
		C434.3,313.9,434.9,313.9,435.6,313.9z M120.3,304.6c-0.8,0.1-1.5,0.1-2.3,0.2c-5,0.8-10.1,1.8-15.2,2.4c-4.5,0.7-8.7,2.5-12.4,5
		c-1.4,1-2.5,2.2-3.1,3.9c-0.4,1.8-0.4,3.5,0.1,5.2c0.3,1.3,1.2,2.2,2.4,2.7c1.3,0.5,2.6,1.1,3.9,1.3c2.4,0.4,4.8,0.8,7.3,1.1
		c1.9,0.2,3.7,0.8,5.4,1.6c2.4,1.3,2.6,2.4,0.7,4.4c-1.8,1.8-3.8,3.1-6.1,4.1c-2.1,1-4.4,1.6-6.6,2.2c-1,0.2-1.9,0.4-2.9,0.8
		c-1.6,0.7-2.2,1.4-2.2,3.2c0,1.1,0.2,2.2,0.3,3.4c0,0.2,0.1,0.4,0.1,0.7c0.3,1,0.9,1.3,1.9,1.3c0.2,0,0.4,0,0.7-0.1
		c1.4-0.4,3-0.4,4.4-0.5c7.5-0.5,12.9-4.4,17.2-10.2c2.4-3.4,2.2-7-0.4-10.3c-0.9-1.1-1.8-2.2-2.5-3.4c-1.9-2.5-3.9-4.6-7-5.5
		c-0.4-0.1-0.8-0.3-1-0.8c-0.3-0.5-0.2-1.2,0.4-1.3c2.4-0.7,4.8-1.4,7.5-1.4c2.6-0.1,5.2-0.2,7.8-0.3c1.9-0.1,3.8-0.2,5.7-0.4
		c2.5-0.2,3-1.2,1.8-3.5c-0.7-1.2-1.5-2.4-2.1-3.6C123.3,305.3,122.1,304.5,120.3,304.6z"/>
	<path class="st2" d="M179.1,247.9c0-3.9,0.9-7.8,2.2-11.5c3-8.3,6.1-16.4,9.6-24.6c4.5-10.3,9.4-20.5,14.3-30.6
		c2.4-4.9,5.2-9.5,8.6-13.8c0.7-0.9,1.3-1.9,1.8-2.9c1.8-4.3,4.5-7.8,7.9-10.9c1.8-1.6,3.7-3.2,5.6-4.8c1.1-1,2.4-1.2,3.7-0.7
		c2.3,0.8,4.2,2.1,4.8,4.6c0.2,0.5,0.4,1.2,0.8,1.8c0.9,1.4,2.1,2,3.7,1.8c0.2,0,0.4-0.1,0.7-0.1c1.9-0.3,3.3,0.2,4.5,1.8
		c3.2,4.2,6,8.4,8.2,13.3c1,2.1,1.2,4.2,0.7,6.4c-1.1,3.8-1,7.8-1.1,11.7c0,1,0.2,2.1,0.4,3.2c0.7,2.5,2.4,4.1,5,4.4
		c1.5,0.1,3.1,0.3,4.6,0.1c1.5-0.2,2.9-0.5,4.3-1.2c4.1-2,8-4.1,11.7-6.7c1.9-1.3,3.8-2.4,5.7-3.6c2.4-1.4,4.6-3,6.7-4.7
		c5-4.2,10-8.6,14.4-13.4c2.7-3,5.3-6.2,7.6-9.6c0.5-0.8,1-1.5,1.6-2.2c1.8-1.8,3.7-2.1,6-1c0.5,0.2,1,0.5,1.4,0.9
		c2.4,1.8,4.8,3.6,7.2,5.5c2.1,1.6,3.9,3.3,5.6,5.4c0.9,1.1,1.5,2.2,2.1,3.4c0.7,1.6,0.9,3.3,0.5,4.9c-0.1,0.7-0.2,1.4-0.2,2.1
		c0.1,3.3-0.4,6.6-1.3,9.8c-0.5,1.9-0.8,3.7-0.9,5.6c0,2.4-0.2,4.7-1,7.1c-0.8,2.4-0.8,4.8-0.9,7.3c0,0.9,0,1.6,0,2.5
		c0.1,4.6-0.7,9.1-1.4,13.6c-1,5.9-2.1,12-3.1,17.9c-0.7,3.9-1.9,7.8-3.3,11.5c-1.2,3.1-2.5,6.1-3.8,9.1c-1.4,3.3-3.8,5.5-7.2,6.7
		c-4.8,1.8-9.5,0.2-12.5-3.9c-1.5-2.3-2.2-4.8-2.6-7.5c-0.3-2.5-0.4-5-0.3-7.6c0.1-2.4,0.1-4.8,0.3-7.1c0.3-4.8,1.2-9.5,2.3-14.1
		c0.9-3.5,1.9-7.1,2.7-10.6c0.2-0.8,0.5-1.6,1-2.3c1-1.5,0.7-3.2,0.7-4.7c0-0.3-0.3-0.7-0.7-0.8c-1.6-0.3-3.3-0.4-4.7,1
		c-2.5,2.5-5.4,4.6-8.3,6.5c-3.8,2.4-7.6,4.8-11.5,7.1c-5.6,3.4-11.6,6.1-18,7.8c-7,1.9-14.1,2.3-21.4,1.1c-3.3-0.5-6.1-1.9-8.7-4.1
		c-2.4-2-4.3-4.3-5.8-6.9c-1.1-1.8-2-3.5-3-5.4c-0.3-0.5-0.7-1.1-1.1-1.5c-0.4-0.4-1-0.4-1.5-0.1c-0.5,0.4-0.9,1.1-1.2,1.6
		c-2.4,3.9-4.5,8.1-5.9,12.6c-1.9,5.4-4.3,10.5-6.9,15.6c-2.6,5.2-5.4,10.2-8,15.4c-1.1,2.1-2.1,4.2-3,6.4c-1,2.5-2.7,4.6-4.5,6.6
		c-2,2.2-7.7,1.6-9-1.8c-1.8-4.7-3.8-9.2-5.2-14C179.5,253.6,179.1,250.6,179.1,247.9z"/>
	<path class="st2" d="M174.9,147.5c1.6,0,3.3-0.1,4.8,0c2.9,0.1,5.4,1.1,7.5,3c3.5,3.1,7,6.1,10.3,9.4c0.2,0.2,0.4,0.4,0.5,0.5
		c3.3,3,2.1,7.9-1.3,9.9c-0.9,0.5-1.9,0.9-3,1.2c-3.7,1.1-7.5,1.4-11.3,1.1c-2.5-0.2-5,0-7.6,0.3c-2.6,0.4-5.3,0.7-8,0.8
		c-5.8,0.3-11.5,1.2-17.1,2.6c-4.4,1.1-8.9,2.2-13,4.1c-1,0.4-2.1,1-3.1,1.4c-1.5,0.7-2.3,1.8-2.3,3.5c0,1.3-0.1,2.6-0.3,3.9
		c-0.3,1.8-0.9,3.4-1.9,4.9c-0.9,1.4-1.4,2.9-1.6,4.5c-0.3,2.2-0.7,4.3-1.9,6.2c-1,1.6-0.5,3.4,0,5.2c0.1,0.3,0.4,0.5,0.9,0.4
		c1-0.1,2-0.3,3-0.4c5.8-1.1,11.6-2,17.5-2.7c3.5-0.4,7.1-0.7,10.7-0.5c2,0.1,3.9,0.4,5.7,1.3c0.8,0.3,1.4,0.8,1.5,1.9
		c0.1,1.2,0.9,2.2,1.9,3c0.7,0.5,1.3,1,2,1.5c1,0.8,1.8,1.9,2.2,3.1c0.4,1.2,0.2,2.2-0.4,3.2c-0.3,0.4-0.7,0.9-1.1,1.3
		c-1.2,1.6-2.5,3.2-3.7,4.8c-1.2,1.8-2.9,2.5-4.9,2.7c-4.5,0.4-8.9,1.2-13.4,2.2c-6.6,1.4-13,2.6-19.7,3.7
		c-3.4,0.5-6.8,1.4-10.1,2.1c-3.6,0.8-6.1,2.9-7.9,6.1c-1.2,2.2-2,4.5-2.6,6.9c-1.3,4.6-1.9,9.4-2,14.1c0,2.2-0.7,4.2-1.6,6
		s-2.6,2.9-4.8,2.9c-6.6-0.1-13.9-4.9-14.5-13.5c-0.1-1.3,0-2.5,0.2-3.8c0.3-1.6,0.3-3.4,0.3-5c0.1-3.1,0.2-6.1,1.1-9.2
		c0.5-1.9,0-3.5-1.5-4.7c-0.3-0.3-0.8-0.7-1.2-0.9c-3.6-2.7-5.6-6.4-6.5-10.7c-0.5-2.7-0.3-5.4,0.4-7.9c0.4-1.5,1.2-2.9,2.4-3.9
		c2-2,4.2-3.4,6.7-4.4c0.5-0.2,1.2-0.4,1.9-0.5c1.5-0.3,3-0.1,4.2,0.9c0.5,0.4,1.1,0.9,1.8,1.2c0.5,0.3,1.1,0.7,1.6,0.9
		c1.1,0.3,2,0.1,2.5-0.9c0.3-0.4,0.4-1,0.7-1.5c0.9-2.3,1.8-4.6,2.6-6.9c0.8-1.9,1.4-3.8,1.8-5.8c0.1-0.4,0.1-0.9,0.2-1.2
		c0-1.2-0.3-1.9-1.5-2.2c-3.8-0.9-6.4-3.4-8.2-6.8c-1-2-2-3.9-2.9-5.9c-1-2.2-0.9-4.4-0.3-6.6c0.3-1,0.8-2,1.1-3
		c0.7-1.5,1.9-2.6,3.5-3.1c2-0.7,4.1-1.3,6-1.9c5.7-1.8,11.3-3.7,17-5.8c2.4-0.9,4.8-1.5,7.2-2.1c4.5-1,8.9-2.6,13.3-4.3
		c3.8-1.4,7.8-2.9,11.8-3.7c3.2-0.7,6.4-1.2,9.5-1.5c4.1-0.4,8.1-0.7,12.2-1C173.1,147.5,174.1,147.5,174.9,147.5L174.9,147.5z"/>
	<path class="st2" d="M447.6,148.4c1.2,0,2.4,0,3.6,0c1.3,0.1,2.4,0.5,3.4,1.5c2.4,2.5,5,4.7,7.7,7c0.9,0.8,1.8,1.5,2.6,2.4
		c2.6,2.5,3.1,5.6,2.2,8.9c-0.5,1.9-1.9,2.9-3.8,3c-4.3,0.2-8.6,0.5-12.8,0.9c-4.9,0.4-10,1.1-14.9,1.8c-8.7,1.3-17.3,3.2-25.9,5.4
		c-1.9,0.4-3.7,1-5.5,1.6c-0.9,0.3-1.6,0.8-2.5,1.1c-1.8,0.8-2.6,2.1-2.6,3.9c0,1.2-0.2,2.4-0.4,3.5c-0.2,1.8-0.9,3.4-1.9,4.9
		c-1.2,1.8-1.8,3.6-1.8,5.8c0,1.4-0.3,2.6-1.1,3.7c-0.8,1.1-1.2,2.4-1.2,3.7s0.4,2,1.8,2.2c0.5,0.1,1.1,0.1,1.6,0
		c3.1-0.4,6.1-0.8,9.2-1.3c5-0.9,10-1.6,15.1-1.5c0.9,0,1.6,0,2.5-0.2c2.1-0.3,3.9,0.1,5.7,1.2c4.4,2.7,7.1,6.7,8.2,11.7
		c0.2,1.2,0,2.2-0.5,3.3c-2.6,5.3-6.9,8.1-12.7,8.4c-3.7,0.2-7.3,1.1-11,2c-2.9,0.8-5.8,1.2-8.8,1.5c-3.9,0.5-7.9,1.2-11.8,1.9
		c-2.2,0.3-4.4,0.9-6.7,1.1c-3.9,0.4-6.8,2.5-8.7,6c-1.8,3.3-2.9,6.9-3.4,10.6c-0.3,2.1-0.4,4.2-0.5,6.4c-0.1,3-0.8,5.7-1.8,8.4
		c-0.5,1.5-1.6,2.3-3.3,2.4c-9.1,0.9-15.7-5.5-17-12.3c-0.4-2.2-0.4-4.4,0-6.5c0.9-4.1,1.2-8.2,2-12.3c0.2-1.2-0.1-2-1.2-2.6
		c-2.9-1.8-4.7-4.4-6.1-7.3c-0.3-0.8-0.7-1.4-0.5-2.2c0.4-4.1,0.5-8.1,1.4-12.2c0.2-0.8,0.4-1.5,0.7-2.2c0.5-1.4,1.5-2.5,3-3.2
		c2.1-1,4.2-1.6,6.5-1.6c1.8,0,3.3,0.4,4.8,1.3c0.2,0.1,0.4,0.3,0.7,0.4c1.2,1,2.7,0.5,3.2-1c1.3-4.2,3.2-8.1,4.1-12.4
		c0.7-2.9,0.4-3.4-2.2-4.6c-2.7-1.3-4.7-3.3-6.1-5.8c-2.5-4.6-3.5-9.6-3.5-14.8c0-0.1,0-0.3,0-0.4c0.2-2.5,1.3-3.8,3.7-4.5
		c1.9-0.5,3.8-0.9,5.7-1.3c7-1.6,13.9-3.3,20.7-5.8c1.2-0.4,2.4-0.9,3.5-1.4c3.8-1.9,7.9-3,12.1-3.6c4.4-0.8,8.7-1.6,13-2.7
		c4.6-1.1,9.2-1.9,13.9-2.4c4.5-0.5,9-1.1,13.4-1.5c1.4-0.1,2.9-0.1,4.2-0.2C447.6,148.4,447.6,148.4,447.6,148.4z"/>
	<path class="st2" d="M280.6,321.3c0.9-0.7,1.4-1.1,2-1.5c2.2-1.8,4.5-3.3,7.1-4.4c1.2-0.5,2.3-1.3,3.4-2.1c1.1-0.9,2.3-1.9,3.4-2.9
		c1.1-0.9,2.2-1.5,3.4-2.1c1.5-0.7,3.1-0.5,4.5,0.3c1,0.5,1.9,1.2,2.6,2.1c1.1,1.2,1.1,2.5,0.2,3.8c-0.4,0.7-1.1,1.3-1.8,1.9
		c-1.4,1.2-3,2.2-4.5,3.1c-2.5,1.4-4.8,3.1-7.1,4.9c-1.3,1.1-2.6,2.1-3.9,3.2c-1,0.8-1.1,1.3-0.4,2.4c1.1,1.8,2.5,3,4.4,3.8
		c1.5,0.7,3.2,1.1,4.9,1.3c1.9,0.2,3.8,0.3,5.7,0.4c1,0.1,2,0.1,3,0.3c1.4,0.4,2.5,1.8,2.6,3.2c0,1-0.3,1.8-1.1,2.4
		c-1.1,1.1-2.5,1.9-3.9,2.4c-2.5,0.9-5.2,0.9-7.7,0.2c-4.5-1.1-8.4-3.2-11.7-6.4c-0.7-0.7-1.4-1.4-2.2-2.1c-1.1-0.9-1.8-0.9-2.9,0.1
		c-0.5,0.4-1,1-1.4,1.5c-1.2,1.6-2.5,3.3-3.7,4.9c-0.9,1.2-1.9,2.5-2.7,3.7c-0.2,0.3-0.5,0.7-0.9,1c-1.1,1.1-2,1.2-3.1,0.1
		c-1.2-1.2-2.3-2.5-3.2-3.9c-1.3-2.3-1.3-4.7-1-7.2c0.1-0.5,0.2-1.1,0.3-1.6c2.3-7.9,4.6-15.8,7.9-23.4c0.4-1,0.9-2.1,1.4-3.1
		c0.3-0.5,0.7-1.1,1-1.6c0.5-0.8,1.3-1.1,2.2-1.1c2.6,0,4.7,1.1,6.4,3.2c0.8,1,0.9,2.1,0.4,3.2s-1,2.2-1.5,3.2
		c-0.9,1.5-1.6,3.1-2.1,4.8C280.7,320.1,280.7,320.5,280.6,321.3z"/>
	<path class="st2" d="M126.3,337.5c0-2.6,0.5-5,1.6-7.3c3.5-7.5,7.1-14.8,10.6-22.3c1.1-2.2,1.8-2.6,4.4-1.9
		c2.4,0.8,4.1,2.4,5.5,4.4c0.4,0.7,0.5,1.4,0.3,2.2c-0.3,1.3-0.8,2.5-1,3.8c-0.8,3.3-0.9,6.7-0.7,10.1c0.1,1.6,0.2,3.4,0.3,5
		c0,0.3,0,0.7,0.1,1.1c0.1,0.5,0.7,0.8,1.1,0.5c1.3-0.8,2.4-1.8,3.3-3c1-1.3,1.8-2.9,2.3-4.5c1.2-3.2,1.9-6.5,2.4-9.8
		c0.4-2.5,1-4.9,2.2-7.2c0.3-0.7,0.8-1.4,1.2-2c0.7-0.9,1.4-1.1,2.4-0.8c3.4,1.2,5.6,4.8,4.8,8.3c-0.1,0.8-0.3,1.5-0.7,2.2
		c-1.3,3.2-2,6.6-2.4,10c-0.2,1.8-0.4,3.5-0.8,5.3c-0.5,2.9-1.6,5.4-3.4,7.7c-1.1,1.4-2.2,2.7-3.4,4.1c-2.3,2.4-5.5,3-8.4,1.3
		c-1-0.5-1.8-1.2-2.5-2c-2-2.2-3.9-4.5-4.8-7.3c0-0.1-0.1-0.2-0.2-0.3c-0.2-0.3-0.7-0.4-0.9-0.2c-0.3,0.2-0.7,0.5-0.9,0.9
		c-1.8,2.1-2.7,4.6-3.4,7.2c-0.1,0.3-0.1,0.7-0.2,1c-0.5,2.2-2,3.3-4.3,3.4c-0.9,0-1.5-0.4-1.9-1.1c-1.6-2.5-3-5.2-2.9-8.2
		C126.3,337.9,126.3,337.7,126.3,337.5z"/>
	<path class="st2" d="M185.7,348c-1.4,0-3,0-4.4,0c-4.1,0-7-2.4-7.9-6.2s-0.5-7.6,1.6-11c1.6-2.5,2.6-5.3,3.7-8
		c0.3-0.9,0.3-1.8-0.2-2.6c-1.5-2.3-1.8-5-1.8-7.7c0-0.9,0.4-1.4,1.2-1.9c0.4-0.2,0.9-0.3,1.4-0.5c4.9-1.5,10-3,15.1-3.9
		c3.7-0.7,7.6-0.9,11.3-1c1.3,0,2.5,0.3,3.5,1.2c0.5,0.4,1.1,0.9,1.6,1.3c0.8,0.5,1,1.3,0.5,2.1c-1.2,2-2.5,3.9-5.2,4.3
		c-1.4,0.2-2.9,0.7-4.3,1.1c-3.4,1-6.8,1.9-10.3,2.2c-1,0.1-2,0.3-2.9,0.9c-0.7,0.4-0.9,0.9-0.5,1.6c0.3,1,0.7,1.2,1.5,1.1
		c0.4,0,1-0.1,1.4-0.2c1.9-0.4,3.8-0.2,5.7,0.1c1.8,0.3,3.4,1,4.7,2.2c0.9,0.8,1.8,1.5,2.6,2.4c0.4,0.4,0.4,1,0,1.3
		c-1.9,1.5-3.8,3.1-6.2,3.7c-1,0.2-1.9,0.3-3,0.2c-2.4-0.3-4.9-0.1-7.3,0.2c-1.4,0.2-2.5,0.9-3.3,2.1c-0.9,1.3-1.4,2.7-1.9,4.2
		c-0.2,0.7,0.1,1.1,0.8,1.2c0.2,0,0.4,0,0.7,0c3.8-0.3,7.7-0.7,11.6-1c2.1-0.2,4.2-0.2,6.2-0.8c0.7-0.1,1.4-0.1,2.1,0.3
		c1.2,0.7,2.3,1.6,3.3,2.6c0.7,0.5,0.5,1.4,0.2,2.2c-0.3,0.5-0.7,1.1-1.1,1.5c-2.2,2.5-5,3.7-8.3,3.9c-3.3,0.1-6.5,0.5-9.6,0.7
		C187.4,348,186.6,348,185.7,348L185.7,348z"/>
	<path class="st2" d="M359.3,340.7c0-2.2,0.5-4.3,1-6.5c0.9-4.6,1.9-9.2,2.7-13.8c0.2-1,0.4-1.8,1.5-2.1c2.3-0.5,3.9-2.1,5.3-3.9
		c1.5-2.1,3.2-3.9,4.8-5.8c0.4-0.5,1-1,1.5-1.5c0.4-0.3,0.9-0.8,1.3-1c2.3-1.5,4.3-1.5,6.5,0.1c1.9,1.3,3.5,3,4.9,4.9
		c2.2,2.9,3.5,6.1,4.2,9.5c0.1,0.8,0.1,1.5,0.1,2.3c0,1.4-0.5,2.6-1.6,3.5c-1.8,1.5-3.5,3.1-5.5,4.3c-2.2,1.4-4.5,2.2-7.1,2.3
		c-0.5,0-1.1,0-1.6,0.3c-0.9,0.5-0.9,1.4-0.1,2c3.1,2.3,6.6,3.5,10.3,4.1c1.4,0.2,2.9,0.5,4.4,0.9c1.1,0.2,2.2,0.7,3.1,1.3
		c1,0.8,1.6,1.8,1.8,3c0.1,1.3-0.2,2.6-0.9,3.8c-0.4,0.9-1.2,1.4-2.2,1.4c-1.5,0.1-3.1,0.1-4.6-0.4c-4.5-1.5-9-3-13.3-4.9
		c-2.1-0.9-4.2-1.8-5.9-3.3c0,0-0.1-0.1-0.2-0.1c-0.7-0.3-1.1-0.2-1.3,0.3c-0.2,0.7-0.4,1.3-0.7,2c-0.2,0.8-0.5,1.6-1,2.3
		c-0.7,1-1.5,1.5-2.9,1.5c-0.4,0-0.9,0-1.3-0.1c-1.9-0.2-2.5-1-2.9-2.9c-0.1-0.9-0.3-1.8-0.4-2.7C359.3,341.4,359.3,341,359.3,340.7
		z M374.3,324.8c0.1,0,0.3,0,0.5-0.1c2.7-0.7,5.4-1.5,7.9-3c0.7-0.3,0.9-0.9,0.7-1.5c-0.5-1.9-1.9-3.1-3.5-3.9
		c-0.3-0.2-0.8-0.1-1,0.1c-2,1.9-3.9,3.7-5.3,6.2c-0.1,0.3-0.3,0.7-0.3,1C373.1,324.2,373.5,324.8,374.3,324.8z"/>
	<path class="st2" d="M327.6,348c-1.1,0-2.2-0.1-3.3-0.1c-1,0-2-0.2-3-0.4c-2.4-0.5-3.9-2.1-4.7-4.4c-0.8-2.7-0.9-5.5-0.2-8.3
		c0.5-2.3,1.6-4.5,3-6.5c0.5-0.9,1.1-1.8,1.6-2.7c1-1.9,1.1-3.7,0.3-5.7c-0.7-1.6-1-3.4-1.4-5c-0.4-1.8,0.2-2.9,1.9-3.6
		c0.2-0.1,0.5-0.2,0.8-0.3c6.1-1.8,12.3-3.6,18.6-4.7c2.5-0.4,5-0.7,7.6-0.8c1.1,0,2.1,0.2,3,0.9c0.7,0.5,1.4,1.2,2.1,1.8
		c0.5,0.4,0.7,1,0.3,1.5c-1.3,2.2-2.6,4.4-5.6,4.7c-2.3,0.2-4.4,1-6.6,1.5c-1.2,0.3-2.4,0.8-3.6,1c-1.3,0.3-2.6,0.5-3.9,0.4
		c-1-0.1-1.8,0.2-2.6,0.8c-0.7,0.4-0.8,0.9-0.5,1.6c0.2,0.9,0.5,1.1,1.3,1c0.5,0,1.1-0.1,1.6-0.2c2.1-0.3,4.2,0,6.2,0.4
		c1.8,0.3,3.3,1.2,4.6,2.4c0.7,0.5,1.2,1.1,1.9,1.8c0.7,0.7,0.7,1.2-0.1,1.8c-3,2.3-6,4.3-10,3.7c-1.9-0.2-3.8,0-5.7,0.2
		c-3.3,0.4-5.5,2.9-5.9,6.2c-0.1,0.8,0.3,1.2,1.1,1.1c0.7-0.1,1.4-0.2,2.1-0.3c2.7-0.3,5.5-0.3,8.2-0.3c2.5,0,5,0,7.6-0.5
		c1.6-0.3,2.9,0.2,3.8,1.5c0.4,0.5,0.8,1.2,1.1,1.8c0.4,0.7,0.4,1.3-0.1,2c-2.1,2.9-4.8,4.7-8.4,4.9c-2.9,0.1-5.7,0.4-8.7,0.7
		C330.6,348.1,329.1,348.1,327.6,348z"/>
	<path class="st2" d="M236.9,337.8c-1.3,0-2.5,0-3.8,0c-0.7,0-1.4,0-2.1-0.1c-0.8-0.1-1.3-0.5-1.5-1.2c-0.1-0.2-0.1-0.5-0.2-0.8
		c-0.1-0.5,0-1.3-0.7-1.4c-0.5-0.1-0.7,0.7-0.9,1c-0.7,1.2-1.4,2.4-2.1,3.6c-0.7,1.3-1.2,2.7-1.3,4.2c-0.2,2.3-1.5,3.5-3.5,4.3
		c-0.5,0.2-1.1,0.3-1.6,0.4c-1.4,0.3-2.6-0.2-3.4-1.5c-0.3-0.7-0.7-1.2-1-1.9c-0.5-1.1-0.5-2.3-0.1-3.5c0-0.1,0.1-0.2,0.2-0.4
		c3.8-8.3,7.3-16.9,11.7-25c1-2,2.4-3.3,4.5-3.7c1.4-0.3,2.5-1.1,3.5-2.2c0.7-0.8,1.4-1.5,2.1-2.4c1-1.1,2.2-1.5,3.6-1.5
		c1.5,0,3.1,0.3,4.6,0.7c1,0.2,1.4,1.1,1.6,2c0.2,1,0.2,2.1,0.4,3.2c0.8,4.2,1.5,8.4,2.3,12.6c0.2,1.4,1,2.4,2.4,3
		c1.4,0.5,2.6,1.5,4.3,1.8c1,0.2,1.2,1.2,0.4,2c-0.3,0.3-0.7,0.7-1.1,1c-0.3,0.3-0.8,0.5-1.2,0.9c-1.4,1-1.9,2.4-1.4,4.1
		c0,0.1,0,0.1,0.1,0.2c1,4.1-0.7,7.9-4.3,9.9c-1.4,0.8-2.9,1.2-4.5,0.9c-1.9-0.4-3.1-1.9-3.1-3.7c0-0.8,0.2-1.4,0.7-2
		c0.3-0.3,0.7-0.8,1-1.1c0.4-0.5,0.7-1.1,0.9-1.6c0.2-1-0.3-1.9-1.4-1.9c-1.2,0-2.4,0.1-3.6,0.2c-0.4,0-1,0-1.4,0
		C236.9,337.8,236.9,337.8,236.9,337.8z M234.6,329.3L234.6,329.3c0.9,0,1.6,0,2.5,0c0.7,0,1.4-0.1,2.1-0.2c0.7-0.1,0.9-0.5,0.9-1.2
		c0-0.2,0-0.4-0.1-0.7c-0.4-2.1-0.9-4.2-1.4-6.1c-0.1-0.2-0.2-0.5-0.3-0.8c-0.1-0.3-0.7-0.4-0.9-0.2c-0.2,0.2-0.4,0.3-0.7,0.5
		c-2,2.3-3.8,4.7-5.4,7.2c-0.2,0.3-0.3,0.7-0.4,1c-0.1,0.3,0.1,0.5,0.4,0.5C232.5,329.3,233.5,329.3,234.6,329.3z"/>
	<path class="st2" d="M435.6,313.9c-0.7,0-1.4,0.1-2.1,0c-2.1-0.2-4.1,0-6,0.4c-2.4,0.7-4.9,1.2-7.3,1.9c-0.3,0.1-0.5,0.3-0.5,0.5
		c-0.1,0.3,0.1,0.7,0.3,1l0.1,0.1c1.6,0.5,2.7,2,4.1,3c1.9,1.2,3.4,2.9,4.6,4.6c0.8,1.1,1.5,2.3,2.3,3.5c1.3,2,1.4,4.1,0.5,6.2
		c-0.9,2.2-2.1,4.2-3.8,5.7c-3.3,3-7.1,5.3-11.3,6.9c-1.9,0.7-3.8,1-5.8,0.9c-3-0.2-4.6-1.6-5.2-4.6c-0.1-0.7-0.1-1.4-0.1-2.1
		c0.1-1.1,0.7-1.8,1.8-2.1c0.7-0.1,1.4-0.2,2.1-0.2c2.1,0,4.1-0.5,5.9-1.3c2.9-1.2,5.5-3,8.1-4.5c0.9-0.5,1.5-1.3,1.8-2.3
		c0.3-1.4-0.2-2.7-1.5-3.4c-0.7-0.3-1.3-0.5-2-0.8c-2.5-0.7-5-1.1-7.7-1c-3.6,0.2-6.6-1.3-9.3-3.4c-0.7-0.5-1.1-1.3-1.2-2.2
		c-0.4-2.1-0.1-4.1,0.9-5.9c0.5-1,1.3-1.8,2.3-2.4c2.1-1.2,4.2-2.2,6.5-3.1c4.1-1.5,8.2-2.7,12.4-4.2c1.6-0.5,3.4-0.8,5.2-0.8
		c2.1-0.1,4.3,0,6.4,0c1.2,0,2.2,0.5,2.7,1.5c0.9,1.5,1.9,3.2,2.7,4.7c0,0.1,0.1,0.1,0.1,0.2c1.1,2,0.7,2.9-1.6,3.1
		C439.2,314,437.3,313.9,435.6,313.9L435.6,313.9z"/>
	<path class="st2" d="M120.3,304.6c1.8-0.2,3,0.5,3.7,2.2c0.5,1.3,1.4,2.4,2.1,3.6c1.3,2.3,0.9,3.3-1.8,3.5
		c-1.9,0.2-3.8,0.3-5.7,0.4c-2.6,0.1-5.2,0.3-7.8,0.3c-2.5,0.1-4.9,0.8-7.5,1.4c-0.7,0.2-0.8,0.8-0.4,1.3c0.2,0.3,0.5,0.7,1,0.8
		c3.1,0.9,5.2,3,7,5.5c0.9,1.1,1.8,2.2,2.5,3.4c2.5,3.4,2.9,6.9,0.4,10.3c-4.2,5.8-9.8,9.6-17.2,10.2c-1.4,0.1-3,0.1-4.4,0.5
		c-0.2,0.1-0.4,0.1-0.7,0.1c-1.1,0-1.5-0.3-1.9-1.3c-0.1-0.2-0.1-0.4-0.1-0.7c-0.1-1.1-0.3-2.2-0.3-3.4c0-1.9,0.4-2.5,2.2-3.2
		c0.9-0.3,1.9-0.5,2.9-0.8c2.3-0.5,4.5-1.2,6.6-2.2c2.3-1,4.3-2.3,6.1-4.1c2-2,1.8-3-0.7-4.4c-1.6-0.9-3.5-1.4-5.4-1.6
		c-2.4-0.3-4.9-0.7-7.3-1.1c-1.4-0.3-2.7-0.8-3.9-1.3c-1.2-0.5-2.1-1.4-2.4-2.7c-0.4-1.8-0.5-3.5-0.1-5.2c0.4-1.6,1.5-3,3.1-3.9
		c3.8-2.5,7.9-4.4,12.4-5c5-0.7,10.1-1.6,15.2-2.4C118.8,304.8,119.6,304.7,120.3,304.6z"/>
	<path class="st5" d="M374.3,324.8c-0.8,0-1.2-0.4-1.1-1.2c0.1-0.3,0.2-0.7,0.3-1c1.3-2.4,3.3-4.4,5.3-6.2c0.2-0.2,0.7-0.3,1-0.1
		c1.6,0.9,3,2.1,3.5,3.9c0.2,0.8,0.1,1.2-0.7,1.5c-2.5,1.3-5.2,2.3-7.9,3C374.7,324.7,374.5,324.7,374.3,324.8z"/>
	<path class="st5" d="M234.6,329.3c-1.1,0-2.1,0-3.2,0c-0.3,0-0.5-0.2-0.4-0.5s0.2-0.7,0.4-1c1.5-2.6,3.4-5,5.4-7.2
		c0.2-0.2,0.4-0.4,0.7-0.5c0.2-0.2,0.8-0.1,0.9,0.2c0.1,0.2,0.2,0.5,0.3,0.8c0.4,2.1,0.9,4.2,1.4,6.1c0,0.2,0,0.4,0.1,0.7
		c0,0.7-0.2,1.1-0.9,1.2c-0.7,0.1-1.4,0.2-2.1,0.2C236.2,329.3,235.5,329.3,234.6,329.3L234.6,329.3z"/>
	<path class="st2" d="M130.6,60.6c-0.7,0-1.9-0.1-3-0.5c-3.1-1.2-5.2-3.3-5.6-6.7c-0.3-2.1,0.3-4.1,1.6-5.7
		c4.2-5.4,12.8-5.2,16.8,0.4c3,4.1,1.2,10.6-4.3,12.1C134.6,60.4,132.9,60.8,130.6,60.6z M133.2,56.4c0.5-0.1,1.1-0.1,1.6-0.2
		c2.2-0.7,3.1-2.4,2.4-4.6c-1-3.2-4.5-4.6-7.6-3c-2.3,1.2-2.3,3.5-1.6,5c0.3,0.8,1,1.4,1.6,1.9C130.9,56,132,56.4,133.2,56.4z"/>
	<path class="st2" d="M390,39.4c-4.5,0-7.3-2.2-8-6.1c-0.5-3.2,0.2-6,2.4-8.4c1.4-1.5,3.3-2.4,5.4-2.7c1.2-0.2,2.4,0.1,3.4,0.8
		c0.8,0.4,1.3,1,1.9,1.6c1.9,2.2,2.9,4.8,3.2,7.7c0.2,1.6-0.2,3-1.4,3.9C394.7,38.3,392.1,39.3,390,39.4z M391.3,27.4
		c-1.4-0.1-2.6,0.2-3.7,1.1c-1.1,0.9-1.6,1.9-1.2,3.3c0.2,0.7,0.4,1.3,0.8,2c0.3,0.7,0.9,1,1.6,1.1c2.4,0.2,5.7-2.5,4.8-6.2
		c-0.1-0.5-0.5-1-1.2-1.1C391.9,27.4,391.6,27.4,391.3,27.4z"/>
	<path class="st2" d="M413.2,4.7c2.6,0.1,4.7,1.3,5.9,3.6c0.8,1.4,1.1,3.1,1,4.7c-0.2,2.2-1.3,3.8-3.4,4.6c-4.6,1.6-8.1-0.9-9.4-4.4
		c-0.4-1.3-0.7-2.7-0.3-4.2c0.5-2.2,1.9-3.6,3.9-4.2C411.6,4.8,412.3,4.7,413.2,4.7z M415.6,12.1c0-1.3-0.9-2.3-2.3-2.6
		c-0.9-0.2-1.5,0.1-1.9,1c-0.4,1.1,0,2.2,1.1,2.6c0.4,0.2,0.9,0.3,1.4,0.4C415,13.7,415.6,13.1,415.6,12.1z"/>
	<path class="st2" d="M427.7,58.1c-0.1,0.8-0.2,1.6-0.3,2.6c-0.4,4.8-5.9,7.9-10.5,5.8c-0.5-0.2-1.1-0.5-1.6-1
		c-3.3-2.5-5.3-5.8-5.8-9.9c-0.3-2.5,0.4-4.7,1.9-6.8c0.9-1.2,2-2,3.4-2.3c2.3-0.7,4.6-0.5,6.9,0.2c2.4,0.9,4.1,2.4,4.9,4.8
		C427.3,53.7,427.7,55.8,427.7,58.1z M418.7,51.1c-0.4,0-1,0-1.5,0.1c-1.1,0.1-2,0.7-2.6,1.6c-1.8,2.6-0.4,6.4,2.6,7.1
		c1.4,0.3,3,0.3,4.3-0.4c1-0.5,1.8-1.4,2.2-2.4c1.2-3-0.3-5.6-3.5-5.9C419.7,51.1,419.2,51.1,418.7,51.1z"/>
</g>
</svg>
