<?xml version="1.0" encoding="utf-8"?>
<!-- Generator: Adobe Illustrator 23.0.5, SVG Export Plug-In . SVG Version: 6.00 Build 0)  -->
<svg version="1.1" id="Layer_1" xmlns="http://www.w3.org/2000/svg" xmlns:xlink="http://www.w3.org/1999/xlink" x="0px" y="0px"
	 viewBox="0 0 516 566" style="enable-background:new 0 0 516 566;" xml:space="preserve">
<style type="text/css">
	.st0{fill:#FFFFFF;}
	.st1{fill:#FA3127;}
	.st2{fill:#1D1D1D;}
	.st3{fill:#FC0001;}
	.st4{fill:#FFF700;}
	.st5{fill:#F0E413;}
</style>
<title>Artboard 3</title>
<g>
	<path class="st0" d="M405.7,109.3c-4.3,0-8.4-0.9-12.4-2.7c-2.2-1-4.2-2.2-6-3.6c-7.9-6.1-13-14.8-14.2-24.6
		c-1-7.8,1-15.5,5.6-22.3c3.9-5.6,9.7-9.7,16.3-11.4c2.9-0.8,5.8-1.1,8.7-1.1c3.8,0,7.5,0.6,11.1,1.9c8.8,3.1,15.4,9.5,18.7,18.2
		c1.7,4.5,2.5,9.1,2.5,14v1.2l-0.2,1.9c0,0.5-0.1,1-0.2,1.5c-0.7,7.7-4.5,14.8-10.5,19.8C419.8,106.8,412.9,109.3,405.7,109.3z"/>
	<path class="st0" d="M143,103.2c-0.7,0-1.4,0-2.1-0.1c-2.5-0.1-6.1-0.6-10-2.1c-10.9-4.2-18.3-13.5-19.8-24.7
		c-1.1-8,1.1-16,6.1-22.5c6.2-8,15.6-12.6,25.9-12.6c10.7,0,20.7,5.1,26.8,13.8c5.8,8.1,7.2,18.7,3.7,28.1
		c-3.4,9.3-11.2,16.3-20.8,18.8C150.6,102.5,147.3,103.2,143,103.2z"/>
	<path class="st0" d="M378.3,560.2c-7,0-13.6-2.8-18.7-7.8c-5.7-5.7-9.4-12.7-10.9-20.9c-0.7-3.7-0.8-7-1-9.6l-0.1-1.1
		c-0.2-3.9-0.4-7.9-0.5-12.1c-1.9,0.4-3.9,0.6-5.9,0.6c-1.4,0-2.9-0.1-4.4-0.3c-2-0.3-3.6-0.8-4.2-1h-0.1c-9.8-3-17.6-9.8-21.8-19.1
		c-0.1-0.3-0.3-0.6-0.4-0.8c-0.7,2.9-1.5,5.7-2.4,8.4c-1.8,5.4-4.4,10.4-7.8,14.7c-5.9,7.6-14.5,11.9-24,12.1c-0.2,0-0.4,0-0.6,0
		c-11.3,0-21.4-5.9-27-15.8c-1.8-3.1-2.9-6.1-3.7-8.3c-0.7-1.9-1.3-3.8-1.8-5.8c-4.2,3.1-9.2,4.8-14.5,4.8c-2.8,0-5.6-0.5-8.3-1.4
		c-0.2,0.2-0.4,0.4-0.6,0.6c-1.5,1.3-3.5,2.9-6.3,4.4c-3.8,2-8,3-12.2,3c-3.3,0-6.6-0.6-9.6-1.9c-3.2,2.6-6.9,4.6-11.1,6.1
		c-2.9,1-5.9,1.5-8.9,1.5c-6.5,0-12.8-2.4-17.8-6.8c-1.4-1.2-2.6-2.5-3.8-3.9c-0.3,1.1-0.7,2.3-1.1,3.4c-2.7,8.1-7.4,14.7-13.9,19.8
		c-3.6,2.8-7.5,4.7-11.6,5.7c-2.3,0.6-4.6,0.9-6.9,0.9c-6.2,0-12.2-2.1-17.2-6c-3.1-2.4-5.6-5.3-7.8-9c-2.3-4-4-8.4-5.1-13.4
		c-0.8-3.5-1.1-6.8-1.3-9.4c0-0.5-0.1-0.9-0.1-1.4c-0.6-5.5-1.1-10.5-1.5-15.2c-0.4-4.1-0.7-8.3-0.9-12.3c-0.2-3.9-0.7-7.3-1.4-10.4
		c-1.1-4.6-1.6-8.9-2-12.8c-0.2-2-0.4-3.9-0.5-5.9c-0.4-4.1-0.8-8.4-1.2-12.6c-0.1-0.8-0.2-1.6-0.3-2.3c-2.6-0.9-5.3-1.9-8-2.8
		l-1.9-0.6c-2.7-1-5.2-2-7.7-3.3c-12.9-6.6-21.8-17.3-25.8-31c-8.3-5.1-14.3-12.9-17.4-22.6C13.2,349,12.2,340,13,331
		c0.4-4.6,0.2-9.8,0-15.3l-0.1-1.5c-0.2-3.6-0.3-7.2-0.4-10.8l-0.2-4.8c-0.1-2.6-0.2-5.3-0.3-7.9c-0.3-6.1-0.5-12.4-0.7-18.6
		c-0.1-2.7-0.2-5.4-0.3-8.2c-0.3-6-0.6-12.2-0.5-18.6c0.1-7.3,0.3-13.9,0.4-20.1c0.2-6.2,0.1-12.6-0.4-19.6
		c-0.2-3.6-0.5-7.1-0.7-10.7l-0.2-3.8c-0.1-1.6-0.2-3.1-0.3-4.7c-0.2-3.4-0.5-7-0.7-10.6c-0.5-9.3-0.5-16.5,0-23.4
		c0.6-8.2,1.7-14.8,3.5-21.1c1.2-4,2.6-7.8,4.4-11.4c3.5-7.1,8.8-12.7,15.5-16.3c0.1-0.3,0.2-0.7,0.4-1.2c0.7-2.6,1.6-5.1,2.6-7.5
		c4.6-11,12.7-19.6,23.6-24.8c5.1-2.4,10.6-4.1,17.4-5.3c5.1-0.9,10.4-1.5,16.9-1.9c4.1-0.3,8.1-0.6,12.4-0.9l1.5-0.1
		c0.2,0,0.6-0.1,1-0.1c0.7-0.1,1.5-0.2,2.2-0.3c1.2-0.1,2.4-0.2,3.5-0.2c3.5,0,6.5,0.6,9.1,1.4c4.5,0.6,8.9,2.1,13.1,4.5
		c2.6-1.1,5.3-2,8-2.6c3.9-1,8-1.4,12.1-1.4c1.3,0,2.5,0,3.8,0.1c0.9,0.1,1.8,0.1,2.8,0.1c2.8,0,5.8-0.2,9.5-0.6
		c3.5-0.3,8.1-0.7,13-0.7c1.3,0,2.7,0,3.9,0.1c3.3,0.1,6.6,0.6,9.8,1.3c1.2,0.3,2.6,0.4,4.5,0.4c0.6,0,1.2,0,1.8,0
		c2.7-0.1,5.4-0.2,8.3-0.4c2.5-0.1,5.1-0.3,7.8-0.4c2.9-0.1,5.6-0.2,8.3-0.2c1.2,0,2.4-0.1,3.5-0.1c8.7-0.2,17.3-0.2,23.8-0.2
		c3.3,0,6.5,0,9.8,0h3.2c10.6,0,21.6-0.3,32.1-0.6h0.4c3.7-0.1,7.5-0.2,11.2-0.2c4.8,0,9.7,0.1,14.4,0.3c2.4,0.1,4.8,0.2,7.3,0.2
		c3,0.1,6.2,0.2,9.4,0.3c6.1,0.3,12.3,0.6,18.3,0.9l2.8,0.1c0.5,0,1,0,1.5,0.1c2.1,0.1,4.5,0.2,7.2,0.5c9.9,1.1,19.1,4,27.3,8.6
		c5.3-3,11.2-4.6,17.3-4.6c1.7,0,3.5,0.1,5.2,0.4c4.2,0.6,8.1,2,11.4,4.2c1.4-0.1,2.8-0.1,4.4-0.1c0.3,0,0.6,0,0.9,0
		c5.9,0.1,11.6,1.5,17,4.1c9.6,4.8,16.5,12.7,19.8,22.9c1.1,3.3,1.8,6.7,2.1,10.3c0.3,0.2,0.7,0.5,1,0.7c1.7,1.2,3.3,2.5,4.8,3.7
		c7.5,2.8,13.2,9.1,15.5,17.6c0.8,2.9,1.4,5.6,2,8.2c1.2,6,1.9,12.5,2.4,20.4c0.6,10.1,1,20.2,1.4,29.2c0.1,2.3,0.1,4.6,0.2,6.7
		c0,1.7,0.1,3.3,0.1,4.8c0.3,8.3,0.2,16.5,0.2,24.4v0.7c0,3.6-0.1,7.2-0.2,10.7c0,2.1-0.1,4.2-0.1,6.3c0,2.3,0.2,4.9,0.5,7.7
		c0.4,4.5,0.4,8.7,0.3,12.3c-0.1,6-0.6,12.3-1.7,19.8c-0.4,2.8-0.8,5.6-1.3,8.4c-0.7,4.3-1.3,8.3-1.8,12.4
		c-1.2,8.5-1.9,16.1-2.3,23.3c-0.5,8.9-1.8,16.3-4.3,23.2c-0.2,0.6-0.4,1.1-0.6,1.7l-0.1,0.3c-3.4,9-9.7,16.1-18.3,20.4
		c-0.4,2.2-0.9,4.7-1.6,7.3l-0.1,0.2c-0.1,0.5-0.3,1.1-0.5,1.6c-3.9,12.5-13,21.6-25.7,25.5c-2,0.6-3.8,1-5.4,1.3
		c-0.2,2.4-0.3,4.8-0.4,7.1c-0.1,2.3-0.3,4.5-0.4,6.8c-0.2,3.6-0.7,9.1-2.3,15c-0.5,1.8-1,3.3-1.4,4.3c-4,10.5-13.2,17.4-24.2,18.3
		c-0.1,1.7-0.2,3.3-0.2,5.1c-0.1,2.7-0.2,5.3-0.4,8c-0.3,4.8-0.6,9.5-0.9,14.1l-0.1,1.1c-0.3,3.5-0.6,7.6-1,11.7
		c-0.3,3.2-0.7,6.4-1,9.5c-0.1,1.1-0.2,2.2-0.4,3.3c-0.6,5.1-1.2,9.3-1.9,13.3c-0.5,2.6-1,5.1-1.5,7.5c-0.2,1-0.4,2-0.6,3
		c-1.1,5.4-3.7,10.3-7.5,14.2c-3.4,3.4-7.3,6.1-11.7,7.8C385,559.6,381.7,560.2,378.3,560.2z M183.6,373.8c3.7,0,9.4,0.9,15.3,5
		c5.1,3.5,9.1,7.9,12.1,12.8c2.8-6.9,8-12.3,14.9-15.3c3.9-1.7,7.9-2.6,11.9-2.6c4.4,0,8.7,1.1,12.6,3.1c1.8-0.4,3.6-0.6,5.5-0.6
		c4,0,8,1,11.8,2.9c3,1.5,5.7,3.2,8.1,5.3c0.8-1,1.6-1.9,2.4-2.8c3.9-4.1,8.4-6.9,13.5-8.4c2.8-0.8,5.6-1.2,8.5-1.2
		c2.7,0,5.3,0.4,7.8,1.1c4.3-2.7,9.2-4.2,14.5-4.2c2.2,0,4.4,0.3,6.6,0.8c4.3,1,8.3,2.7,11.8,5c1.6-0.9,3.2-1.7,5-2.3
		c3-1.1,6.1-1.7,9.3-1.7c5.6,0,10.9,1.8,15.2,5c1.3-0.2,2.6-0.3,3.9-0.3c5.4,0,10.7,1.6,15.3,4.6c2.4,1.6,4.6,3.5,6.5,5.7
		c0.1-0.4,0.2-0.7,0.2-1c2.9-12,11.8-20.8,24.1-23.5c3.1-0.7,5.9-1,8.2-1.3c0.1,0,0.1,0,0.2,0c0.5-8.5,4.1-16.4,10.3-22.3
		c2.5-2.4,5.4-4.5,8.7-6.2c0.2-0.1,0.4-0.2,0.5-0.3c0.6-2.8,1.1-5.9,1.5-9.3c0.1-1.3,0.3-2.5,0.4-3.8c0.2-1.6,0.3-3.3,0.5-5.1
		c0.3-3,0.7-6.4,0.6-9.6v-0.7c0-0.3,0-0.8,0-1.1c-0.8-4.4-0.5-8.1-0.2-10.8c0-0.3,0.1-0.7,0.2-1c0.2-2.4,1.2-13.4,1.2-13.4
		c0.1-1.3,0.2-2.6,0.4-3.8c0,0,0.3-2.9,0.4-4c0.2-2.2,0.4-4.4,0.7-6.5c0.1-1.4,0.2-2.7,0.4-4.1c0.2-2,0.3-4.1,0.6-6.3
		c0.1-1.4,0.3-2.9,0.5-4.3c0.3-2.3,0.5-4.5,0.7-6.6c0.1-1,0.1-2,0.2-3c0.1-0.8,0.1-1.7,0.2-2.5c0.1-1,0.2-2.1,0.2-3.1
		c0.2-2.4,0.4-4.8,0.5-7.1c0-0.2,0-0.6-0.1-1.2l-0.1-0.6c-0.3-2.1-0.5-4.3-0.8-6.6c-0.4-3.8-0.3-7.7,0.4-11.5c-0.8-5-1.1-9.7-1.3-14
		l-0.1-1.1c-0.2-3.3-0.3-6.5-0.4-9.6c0-1.3-0.1-2.6-0.1-3.8v-0.4l-0.7-12.8c-0.1-1-0.1-2.1-0.1-3.1c-0.1-1.9-0.1-3.7-0.3-5.2
		c0-0.4-0.1-0.8-0.1-1.2c-1.9-1.4-3.6-2.8-5.3-4.1c-3.6-2.8-6.8-6.1-9.4-9.7c-3.5-4.8-5.9-10.2-7.3-16.2c-2.4,0-4.9-0.3-7.2-0.8
		c-1.7-0.4-3.3-0.9-4.9-1.5c-1.4,0.8-2.9,1.7-4.7,2.5c-4.3,1.9-8.8,2.8-13.3,2.8c-5,0-10-1.2-14.6-3.5c-3.3-1.6-6.3-3.8-9.1-6.4
		c-0.4-0.4-1.2-1-2.9-1.5c-1.7-0.5-3.7-0.8-6.2-0.9l-1.6-0.1c-3.2-0.2-6.3-0.4-9.1-0.4h-0.7c-1.2,0-2.4,0-3.8-0.1
		c-1.6-0.1-3.2-0.2-4.8-0.2c-2.5-0.1-4.9-0.3-7.4-0.4c-1.7-0.1-3.5-0.1-5.5-0.1c-2.1,0-4.2-0.1-6.4-0.2c-2.4-0.1-4.9-0.1-7.6-0.2
		c-2.6,0-5.3-0.1-8.1-0.2c-3.4-0.1-6.1-0.2-8.7-0.2c-3.4,0-6.4,0.1-9.2,0.3c-1.9,0.2-3.7,0.2-5.5,0.3c-1.2,0.1-2.4,0.1-3.6,0.2
		c-1.6,0.1-3.2,0.2-4.8,0.4c-2.8,0.2-5.6,0.5-8.6,0.6c-2.1,0.1-4.3,0.2-6.5,0.2c-4.7,0-9.5-0.3-14.3-0.8c-1.8-0.2-3.5-0.4-4.8-0.4
		c-0.4,0-0.8,0-1.2,0c-3.3,0-6.8,0.2-10.7,0.6c-4.7,0.5-9.6,0.9-14.6,1.2c-0.7,0-1.3,0.1-2,0.1c-3.3,0.2-6.9,0.5-10.8,0.5h-0.2h-0.1
		c-0.7,0-1.8,0.1-3.1,0.1h-0.3c-1.3,0-2.4-0.1-3.2-0.1c-0.2,0-0.5,0-0.7,0c-3.8-0.1-7.4-0.5-10.2-0.9l-1.1-0.2
		c-2.3-0.3-4.4-0.6-5.8-0.6h-0.2c-0.7,0-1.4,0-2.1,0c-1.2,0-2.4,0-3.5,0c-0.6,0-1.1,0-1.7,0c-1.5,0-3.1,0-4.6,0
		c-3.9,0-8.5,0.1-12.9,0.7c-1.4,0.2-3,0.4-4.2,0.8c-5.7,4.7-12.6,7.1-19.8,7.1c-3.3,0-6.5-0.5-9.7-1.5c-3.7-1.2-7.1-3-10.3-5.5
		c-0.3-0.2-0.6-0.4-0.8-0.7c-0.7-0.6-1.6-1.2-2.5-2c-0.2,0-0.5,0-0.7,0c-3,0-6,0.2-8.9,0.6l-3.9,0.6c-2.8,0.4-5.6,0.8-8.3,1.3
		c-2.3,0.4-4.7,0.7-6.8,1.2c-0.1,0.3-0.2,0.5-0.3,0.8c-0.9,2.1-1.8,4.1-2.4,5.9c-3.2,8.6-8.5,15.6-15.4,20.7
		c-0.1,1.4-0.1,2.8-0.1,4.1c0,0.1,0,0.6,0,0.9c0,0.6,0.1,1.4,0.1,2.3c0,1.4,0.1,2.7,0.1,4.1c0.1,3.3,0.1,6.4,0.3,9.4
		c0.1,2.5,0.1,4.9,0.1,6.9c0,0.9,0,1.8,0,2.7c0,4.4-0.4,8.4-1.4,12.4c-0.4,1.7-0.6,4.6-0.7,7.6v0.1c-0.2,4.3-0.3,9-0.2,14.3
		c0,2.6,0.1,5.3,0.2,8.1c0.1,2.2,0.1,4.4,0.2,6.7c0.1,4.7,0.1,9.5,0.1,14.4c0,2.2,0,4.5,0,6.9c0,2.2,0,4.4,0,6.8
		c0,4.8,0,9.8,0.3,14.7c0.2,3.1,0.2,6.2,0.3,9.2c0.1,1.7,0.1,3.4,0.2,5.2c0.1,2.6,0.2,5.2,0.3,7.8l0.1,3.3c0.4,5.3,0.6,10.3,0.7,15
		c0,2.7,0,5.4,0,8c0,4.5,0,8.8,0.2,12.9c0.2,3.4,0.4,7,0.7,10.2c0.1,1,0.3,2.4,0.5,3.6c2.9,2.2,5.5,4.9,7.8,8.1
		c2.5,3.4,4.5,7.2,6.2,11.7c0.2,0.6,0.5,1.3,0.7,1.9c0.5,1.2,0.9,2.4,1.3,3.4c0.4,0.9,0.7,1.2,0.7,1.2c0.9,0.7,1.4,0.7,1.9,0.8
		c2.3,0,5.4,0.1,8.9,0.6c11,1.6,17.8,7.1,21.6,11.4c0.1,0.1,0.1,0.1,0.2,0.2c5-4.2,11.4-6.5,18.6-6.5c1,0,2,0,3.1,0.1
		c7,0.6,13.4,4,17.7,9.5c2.3,0.5,4.4,1.4,6.5,2.5c1.1-1.5,2.3-2.9,3.6-4.3C171.4,375.2,178.6,373.8,183.6,373.8z"/>
	<path class="st1" d="M379.3,534c-0.8,0-1.5-0.3-2-0.8c-0.6-0.6-1-1.2-1.3-1.8l-0.1-0.1l0-0.1c-0.9-2-1.5-3.9-1.9-5.8
		c-0.5-2.3-0.7-4.7-0.9-7.1c-0.3-2.8-0.4-5.6-0.5-8.3c0-1.4-0.1-2.7-0.2-4.1c-0.1-2.6-0.2-5.2,0.1-7.8c0.1-1.1,0.1-2.5,0.1-3.8
		c0.1-4.5,0.3-8.2,0.7-11.7l0.9-9.4c0.2-2.3,0.5-4.7,0.8-7c0.4-2.6,0.6-5.5,0.7-8.8c0.1-1.9,0-3.7-0.1-5.6c-0.1-1.5-0.2-3.1-0.2-4.7
		c0-0.9,0-1.9,0-2.8c0-1.9,0-3.9,0-5.8c0.2-3.9,0.4-7.9,0.9-12.1c0.3-2.3,0.7-4.7,1.1-6.9c0.3-1.5,0.5-3,0.8-4.5
		c0.3-2.3,0.7-5.1,0.5-7.7c-0.1-1.5-0.3-3.4-1.2-5c-0.5-1-1-1.5-1.7-2c-0.5-0.4-1.1-0.5-1.6-0.5c-0.8,0-1.4,0.4-1.8,0.7
		c-0.6,0.5-1,0.9-1.2,1.5l-0.1,0.1c-0.6,1.2-1.1,2.3-1.6,3.5l-0.1,0.1c-0.6,1.4-1.3,2.8-2.2,4l-0.1,0.1c-0.5,0.7-1.2,1.5-2.2,2.1
		c-0.6,0.3-1.2,0.5-1.8,0.5c-1.1,0-2.1-0.6-2.7-1.6c-0.4-0.6-0.7-1.4-1-2l-0.2-0.5c-0.6-1.6-1-3.2-1.4-4.8l-0.3-1.2
		c-0.2-0.8-0.3-1.5-0.5-2.3c-0.1-0.6-0.2-1.1-0.3-1.7l-0.1-0.3c-0.2-0.5-0.3-1.1-0.5-1.6c-0.2-0.4-0.3-0.7-0.5-0.9
		c-0.3-0.4-0.5-0.4-0.6-0.4c-0.1,0-0.3,0-0.5,0.1c-1.7,0.6-3,1.7-4,3.6c-1.2,2.1-2.1,4.5-2.9,7.8c-0.7,3.1-1.1,6.5-1.2,11
		c-0.1,2.8-0.1,5.7-0.1,8.4c0,3.7-0.1,7.6-0.3,11.4c-0.1,1.8-0.1,3.6-0.1,5.3c0,2.4-0.1,4.8-0.3,7.2c-0.1,1.7-0.1,3.4-0.2,5.1
		c0,1.7-0.1,3.5-0.2,5.2c0,0.9-0.1,1.8-0.1,2.8c-0.1,2.8-0.3,5.6-0.6,8.4c-0.2,1.1-0.3,2.2-0.4,3.3c-0.1,1.1-0.2,2.1-0.4,3.2
		c0,0.5-0.2,1-0.3,1.4l0,0.1l0,0.1c-0.5,1.2-1.6,1.9-2.8,1.9c-0.4,0-0.9-0.1-1.4-0.3c-1.4-0.6-2.5-1.7-3.6-3.1
		c-1.1-1.4-1.9-3.2-2.2-5c-0.6-2.6-1-5.2-1.2-7.8c-0.2-2.4-0.3-4.9-0.3-7.3c0-1.6,0-3.1-0.1-4.6c-0.4-7.9-0.3-16-0.2-23.8l0-0.1
		c0.1-4.7,0.2-9.6,0.5-14.4c0.3-4.6,0.1-8.6-0.6-12.3c-0.3-1.5-0.7-2.9-1.3-4.2c-1.2-2.6-3.4-4.3-6.5-5c-0.3-0.1-0.6-0.1-0.9-0.1
		c-0.5,0-1.1,0.1-1.9,1.4c-0.7,1-1.1,2-1.5,3.6c-0.1,0.5-0.3,0.9-0.4,1.3c-0.6,2-1.2,4-2.1,5.9c-0.1,0.1-0.1,0.3-0.2,0.4
		c-0.2,0.5-0.5,1-0.9,1.6c-1.1,1.5-2.8,2.4-4.6,2.4c-1.9,0-3.7-1-4.7-2.6c-0.3-0.5-0.7-1.3-1-2.1c-0.3-0.9-0.6-1.8-0.9-2.6
		c-0.3-0.9-0.6-1.7-0.9-2.6l-0.9-2c-0.5-1-1.2-1.5-2.3-1.5c-0.4,0-0.8,0.1-1.3,0.2c-0.8,0.2-1.5,0.7-2.3,1.6
		c-1.1,1.1-1.8,2.6-2.4,3.9c-0.7,1.8-0.9,3.7-1.1,5.8l-0.1,1c-0.4,2.9-0.8,6.3-1.1,9.7l-0.9,9.4c-0.4,4.1-0.6,8.2-0.8,12.2
		c-0.3,4.9-0.7,9.8-1.1,14.5c-0.3,3.5-0.6,6.8-1,10.3l-0.1,1.1c-0.6,5.1-1.3,11-2.6,16.8c-0.8,3.1-1.8,5.8-2.9,8.4
		c-0.9,1.9-1.9,3.3-3,4.4l-0.2,0.2c-0.2,0.2-0.6,0.6-1.1,0.9c-0.5,0.4-1.1,0.6-1.7,0.6c-0.9,0-1.7-0.4-2.4-1l-0.1-0.1l-0.1-0.1
		c-0.3-0.4-0.7-0.9-1-1.5c-2.2-3.7-3.6-7.8-4.3-12.8c-1-6.9-0.9-14-0.8-20.9c0-2.5,0.1-5,0.2-7.4c0.1-3.2,0.3-6.5,0.3-9.7
		c0-1,0-2,0-3c0-3,0-6-0.1-9c-0.3-7.1-1.3-13.5-2.9-19.5c-0.9-3.2-2.2-5.7-3.9-7.7c-1.2-1.5-2.7-2.6-4.7-3.6
		c-0.2-0.1-0.3-0.1-0.4-0.2c-0.1,0.1-0.2,0.2-0.4,0.4l-0.1,0.1c-0.5,0.6-0.9,1.3-1.4,2.1c-0.2,0.3-0.4,0.6-0.6,0.9
		c-0.3,0.6-0.7,1.3-1.1,2c-0.4,0.7-0.7,1.4-1.1,2.1c0,0.1-0.1,0.1-0.1,0.2c-0.3,0.6-0.9,2.1-2.7,2.3c-0.2,0-0.3,0-0.4,0
		c-2,0-2.8-1.7-3.1-2.4c0-0.1-0.1-0.1-0.1-0.2c-1.2-2-2.4-4.3-3.5-6.4c-0.4-0.9-1-1.7-1.5-2.5c-0.9-1.1-1.6-1.2-2-1.2
		c-0.4,0-1,0.1-1.6,0.4c-1,0.5-1.5,1-1.9,2.1c-1.4,4.5-2.1,8.6-2.1,12.8c0,7-0.2,14.4-0.4,20.9c-0.2,5.4-0.4,10.9-0.8,16.4
		c-0.2,3-0.6,5.8-0.9,8.8l-0.1,0.5c-0.1,0.9-0.2,2-0.4,3.1c0,0.5-0.2,0.9-0.3,1.2l-0.1,0.1l0,0.1L230,465c-0.4,0.8-1.3,1.3-2.2,1.3
		c-0.9,0-1.6-0.5-2-1.2c-0.1-0.2-0.4-0.5-0.5-1c-0.5-1.5-1-3-1.3-4.5c-0.4-2-0.9-3.9-1.4-5.5c-0.5-1.3-1-2.4-1.6-3.3
		c-0.6-0.7-1.2-1.3-1.9-1.6l-0.1-0.1c-0.3-0.1-0.5-0.2-0.7-0.2c-0.3,0-0.5,0.2-0.9,0.5c-0.7,0.6-1.2,1.5-1.8,2.4l-0.2,0.3
		c-1.3,2.3-2.2,5-2.9,7.6c-0.9,3.2-1.8,6.5-3.2,9.7c-0.9,2.3-2.3,4.3-4.1,5.9c-0.1,0.1-0.3,0.3-0.5,0.4c-0.1,0.1-0.1,0.1-0.2,0.2
		l-0.1,0.1l-0.1,0.1c-0.9,0.7-1.8,1-2.7,1c-0.9,0-2.5-0.4-3.4-2.7c-0.7-1.8-1.4-3.9-2-6.4c-0.8-3.4-1.3-6.9-1.6-9.9
		c-0.8-6.6-1-13.2-1.2-18.8c-0.1-3-0.2-6.4-0.4-9.7c-0.1-1.8-0.1-3.5-0.2-5.2c0-2.3-0.1-4.5-0.2-6.7c-0.2-3.3-0.4-6.3-1-9.4
		c-0.7-3.7-2.9-6.8-6.6-9.4c-0.6-0.4-0.8-0.4-0.8-0.4c0,0-0.2,0-0.9,0.7c-1.1,1.1-1.8,2.5-2.4,3.9c-0.9,2.4-1.3,4.8-1.7,6.9
		c-0.7,3.5-1,7.1-1.3,10.5c-0.4,4.3-0.4,9-0.2,14.4c0.1,1.2,0.1,2.4,0.1,3.6c0.1,3,0.2,5.9,0.5,8.8c0.3,2.4,0.6,4.8,0.9,7.3
		c0.6,4.4,1.2,9.8,1,15.3c-0.2,3.8-1.1,7.1-2.6,10c-0.5,0.8-0.9,1.6-1.4,2.3c-0.4,0.5-0.9,1.1-1.7,1.5c-0.5,0.4-1.2,0.6-1.8,0.6
		c-0.6,0-1.2-0.2-1.8-0.5c-0.9-0.4-1.5-1.2-2-2.1c-1.2-1.8-2.2-3.8-2.9-6.4c-0.9-3.2-1.7-6.3-2.6-9.5c-0.9-3.2-1.8-6.3-2.6-9.5
		c-1.3-4.6-2-9.3-2.6-13.7c-0.5-4.1-1-8.7-1.8-13.2c-0.4-2.1-0.8-4.2-1.4-6.2c-0.6-1.9-1.2-3.9-1.7-5.9c-0.6-2-1.1-3.9-1.7-5.9
		c-0.2-0.7-0.4-1.2-0.6-1.8c-0.2-0.6-0.6-1.1-1-1.5l-0.1-0.1c-0.2-0.2-0.4-0.3-0.6-0.3c-0.2,0-0.4,0.2-0.7,0.4c-0.5,0.6-0.8,1.3-1,2
		c-0.1,0.3-0.2,0.7-0.3,1c-0.3,0.8-0.5,1.7-0.9,2.6c-0.3,0.8-1.2,3.1-3.3,3.1c-1.4,0-2.5-1-3.3-2c-1-1.2-1.5-2.5-1.8-3.4
		c-0.7-2.7-1.1-5.1-1.2-7.5c-0.1-1.7-0.3-2.9-0.7-3.9c-0.1-0.3-0.3-0.6-0.5-1c0,0,0,0,0,0c0,0,0,0,0,0s0,0-0.1,0c-0.3,0-0.6,0-0.9,0
		c-1.7,0-2.7,0.4-3.6,2.4c-2,4.7-3,9.1-3,13.5c0,0.6,0,1.3-0.1,1.9c-0.1,0.9-0.1,1.8,0,2.6c0.2,1.7,0.2,3.4,0.2,5
		c0,1.9,0.1,3.8,0.3,5.6c0.2,1.8,0.3,3.5,0.3,5.3c0,1.1,0.1,2.2,0.2,3.3c0.2,1.9,0.2,3.8,0.3,5.7c0,1.8,0.1,3.7,0.2,5.5
		c0.1,1.6,0.2,3.2,0.2,4.7c0.1,1.6,0.1,3.1,0.2,4.5c0.1,1.8,0.2,3.6,0.2,5.3c0,0.9,0,1.7-0.1,2.5c-0.1,2.4-0.1,4.9-0.3,7.3
		c-0.7,8.1-2.2,15.1-4.6,21.3c-0.6,1.6-1.3,3.2-2.4,4.7c-0.4,0.6-0.9,1.2-1.6,1.7l-0.1,0.1l-0.1,0.1c-0.9,0.6-1.9,0.9-2.9,0.9
		c-0.9,0-1.8-0.3-2.7-0.8l-0.1-0.1c-1-0.7-1.7-1.5-2.2-2.3c-1.6-2.3-2.2-4.8-2.6-6.8c-0.5-3.2-1-6.8-1.3-10.9l-0.1-0.8
		c-0.3-3.8-0.6-7.4-0.7-11.1c-0.2-3.1-0.4-6.3-0.8-9.5c-0.2-1.7-0.4-3.4-0.6-5.1c-0.2-1.7-0.5-3.5-0.7-5.2c-0.2-1.8-0.5-3.6-0.8-5.4
		c-0.5-3.3-1-6.7-1.3-10.1l-1.2-10.9c-0.2-1.5-0.3-2.9-0.5-4.4c-0.3-2.9-0.6-5.8-1-8.7c-0.5-3.6-1.3-7.1-2.6-10.6
		c-0.4-1.3-1-2.4-1.9-3.4c-1.5-1.7-3.5-2.6-6.1-3c-1.4-0.2-2.7-0.3-4.2-0.3c-0.5,0-1,0-1.5-0.1c0,0,0,0,0,0c-6.2,0-11.9-2-17.3-6.2
		c-3.6-2.9-6.2-6.5-8.2-11.3c-0.4-0.9-0.7-1.7-1-2.6c-0.4-1.1-0.8-2.2-1.3-3.3c-0.8-2.3-1.9-4.3-3.1-5.9c-1-1.4-2-2.5-3.2-3.2
		c-4-2.7-6.7-6.5-8.2-11.6c-0.8-2.8-1.3-5.8-1.7-9.1c-0.4-3.8-0.6-7.6-0.8-11.3l0-0.3c-0.3-4.9-0.3-9.9-0.3-14.6c0-2.4,0-4.8,0-7.2
		c-0.1-5.1-0.3-9.6-0.7-13.7l0-0.1v-0.4c-0.1-1.9-0.2-3.8-0.2-5.7c-0.1-1.9-0.1-3.8-0.2-5.7c-0.1-2.3-0.2-4.7-0.2-7
		c-0.1-2.3-0.1-4.6-0.2-6.9c-0.9-6.4-0.9-12.8-1-18.5c0-1.3,0-2.6,0-3.8c0-2.9,0-5.5,0-8c0-4.6,0-8.9,0-13.1c0-2.4-0.1-4.9-0.2-7.4
		c-0.1-2.5-0.1-5-0.2-7.4c-0.1-4.3-0.1-10,0.2-16c0.2-4.1,0.4-8.4,1.5-12.8c0.4-1.8,0.6-3.7,0.6-5.8c0-0.7,0-1.5,0-2.2
		c0-2.2,0-4.3-0.1-6.4c-0.2-4.8-0.3-9.6-0.4-14.2c0-1.1-0.1-2.2-0.2-3.3l0-0.3V148c0-3.7,0.2-7.4,0.6-11.2c0-0.4,0.1-0.9,0.1-1.4
		c0-0.5,0.1-1.1,0.1-1.6c0.1-2.7,1.3-4.9,3.5-6.5l0.5-0.4c1-0.7,2-1.5,3.3-2c4.3-2.1,7.4-5.7,9.2-10.7c1-2.6,2-5,3.1-7.6l0.6-1.4
		c2.8-6.7,8-11.1,15.5-13.1c3.5-1,7.1-1.5,10.2-1.9c4-0.6,8.2-1.2,12.4-1.9c4.4-0.6,8.7-0.9,12.9-0.9c1.5,0,3,0,4.5,0.1
		c4.2,0.2,7.7,1.7,10.7,4.4c1,1,2.2,1.8,3.2,2.7l0.9,0.7c0.8,0.6,1.6,1,2.3,1.2l0.1,0c0.7,0.2,1.4,0.3,2,0.3c1.4,0,2.8-0.6,4.2-1.7
		c2.2-1.9,4.7-3.2,7.8-4.2c3.1-0.9,6.2-1.4,8.6-1.8c6-0.9,11.8-1,16.2-1c1.7,0,3.4,0,5.1,0c0,0,0,0,0,0c1.1,0,2.2,0,3.3,0.1
		c1.1,0,2.1,0,3.1,0c0.2,0,0.5,0,0.8,0c2.7,0,5.4,0.3,7.9,0.7c0.7,0.1,1.5,0.2,2.2,0.3l1.4,0.2c2,0.3,4.1,0.5,6.1,0.5
		c0.7,0,1.3,0.1,1.9,0.1c0.6,0,1.2,0.1,1.8,0.1c0.5,0,0.9,0,1.4,0c0.6,0,1.1-0.1,1.7-0.1c3.8,0,7.8-0.3,11.5-0.6
		c4.6-0.3,9.2-0.7,13.7-1.2c4.9-0.5,9-0.7,12.9-0.7c0.6,0,1.3,0,1.9,0c0,0,0,0,0,0c2.4,0,4.6,0.3,7,0.6l0.3,0
		c4.2,0.4,7.9,0.7,11.4,0.7c1.8,0,3.5-0.1,5.2-0.2c2.7-0.1,5.3-0.4,7.9-0.6c1.7-0.2,3.4-0.3,5.1-0.4c1.5-0.1,3-0.2,4.4-0.3
		c1.5-0.1,2.9-0.1,4.4-0.2c3.8-0.3,7.6-0.4,11.7-0.4c2.9,0,5.9,0.1,9.1,0.2c2.6,0.1,5.3,0.1,7.9,0.2c2.6,0,5.3,0.1,7.9,0.2
		c2,0.1,4,0.1,5.9,0.1c2,0,4,0.1,6,0.2c0,0,12.3,0.6,12.4,0.6c0.4,0,0.9,0,1.4,0.1c0.4,0,0.9,0,1.3,0c3.2,0,6.3,0.2,9.4,0.3
		c1.1,0.1,2.1,0.1,3.2,0.2c4.4,0.2,8.1,0.8,11.7,1.9c5.1,1.4,9.5,3.9,13.2,7.2c1.1,1,2.1,1.7,3.1,2.2c1.2,0.6,2.3,0.9,3.5,0.9
		c1,0,2-0.2,3.1-0.7c1.4-0.6,2.8-1.6,4-2.5c0.8-0.5,1.4-1.1,2.1-1.6c0.7-0.5,1.4-1.1,2.1-1.6c0.9-0.7,2.1-1.3,3.2-1.7
		c0.9-0.3,1.8-0.5,2.8-0.5c1.3,0,2.5,0.3,3.6,0.9c1,0.5,1.8,1.1,2.5,1.7l0.5,0.4c1.3,1.2,2.7,1.9,4.3,2.3c0.7,0.2,1.4,0.3,2.2,0.3
		c0.6,0,1.3-0.1,2-0.2c1.4-0.2,2.8-0.3,4.1-0.3c3.2,0,6.3,0.6,9.4,1.9c3.7,1.6,6,4.3,7,8.1c0.6,2.5,0.9,5,1.2,7.4
		c0.5,4.1,1.7,7.2,3.6,9.8c1.3,1.7,2.7,3.2,4.4,4.5c3,2.4,6.1,4.7,9.2,7c2.9,2.2,4.7,5,5.3,8.8c0.2,1.2,0.2,2.4,0.3,3.5
		c0.1,1.1,0.1,2.2,0.3,3.2c0.3,3.2,0.4,6.4,0.5,9.5l0,0.1c0.2,4.2,0.4,8.5,0.7,12.8l0,0.1v0.6c0.1,1.3,0.1,2.8,0.2,4.2
		c0.1,2.8,0.2,5.7,0.4,8.5c0.1,1,0.1,2,0.2,3c0.3,4.3,0.6,8.7,1.5,12.9l0,0.1c0.2,1.1,0.1,2-0.2,2.9c-0.6,2.1-0.8,4.3-0.6,6.7
		c0.2,2.1,0.5,4.4,0.8,6.6c0.2,2.2,0.3,4.2,0.2,6c-0.1,1.8-0.2,3.5-0.4,5.2c-0.1,1.7-0.2,3.4-0.3,5.2c-0.1,1.9-0.2,3.8-0.4,5.9
		c-0.2,2.5-0.5,5-0.8,7.4c-0.1,1.3-0.3,2.6-0.4,3.9l-0.9,10.2c-0.1,1.6-0.3,3.2-0.5,4.7c-0.2,1.7-0.4,3.5-0.5,5.3
		c0,0.7-0.1,1.5-0.2,2.2c-0.1,0.7-0.1,1.4-0.2,2.1c-0.2,2.4-0.4,4.7-0.7,7c-0.2,2.3-0.4,4.5-0.6,6.8c0,0.7-0.1,1.3-0.2,1.8
		c-0.2,1.1-0.2,1.9,0,2.6c0.5,2.1,0.5,4.1,0.5,6.1c0.1,4.5-0.4,9.1-0.8,12.9l-0.9,8.8c-0.7,6.7-1.7,12.1-3.2,17l-0.6,1.9
		c-1.4,3.8-4,6.7-7.6,8.4c-1.3,0.5-2.6,1.2-4,2c-1,0.5-1.9,1.2-2.9,2c-1.7,1.7-2.5,3.5-2.6,5.8c-0.1,3.8-0.9,7.4-2.5,11
		c-0.3,0.7-0.6,1.4-1,2.2c-0.3,0.7-0.6,1.4-0.9,2c-1.9,4.1-5.1,6.5-9.6,7.1l-6.9,0.9l-0.5,0.1c-2.3,0.3-4.7,0.6-7,1
		c-2.7,0.6-4.2,2-4.8,4.6c-0.8,3.2-1.2,5.8-1.2,8.3c-0.1,3-0.3,6-0.6,8.9c-0.1,1.5-0.2,2.9-0.3,4.4c0,1.1-0.1,2.3-0.1,3.5
		c0,1.2-0.1,2.4-0.1,3.6c0,2.7-0.4,5.5-1.3,8.3c-0.5,1.5-1.1,2.8-2,4.1c-0.1,0.1-0.2,0.3-0.3,0.4l0,0.1l-0.1,0.2l-0.2,0.2
		c-0.6,0.7-1.5,1.2-2.4,1.2c-1.1,0-2.1-0.7-2.7-1.8c-0.3-0.5-0.5-1.1-0.6-1.5l-3.3-10.4c-0.5-1.7-1.2-3.4-2.2-4.8
		c-0.6-0.8-1.2-1.4-2-1.8c-0.5-0.2-1-0.4-1.5-0.4c-0.7,0-1.5,0.3-2.2,0.9c-1.1,0.9-1.8,2.3-2.2,3.5c-0.5,1.1-0.8,2.3-1,3.9
		c-0.3,1.9-0.6,3.8-0.8,5.6c-0.1,0.9-0.2,1.9-0.4,2.8c-0.5,3.5-1,7.2-1.4,10.8l-0.9,8.6c-0.4,3.8-0.7,7.8-1,11.6v0.5
		c-0.1,2.2-0.1,4.3-0.2,6.5c-0.1,2.1-0.1,4.2-0.2,6.3c-0.1,2.2-0.2,4.3-0.2,6.4c-0.1,2.2-0.2,4.3-0.3,6.5c-0.2,3.8-0.4,7.7-0.8,11.4
		l-0.2,2.6c-0.3,3.7-0.6,7.6-1.2,11.5c-0.7,5.1-1.4,10.2-2.1,15.2c0,0.3-0.1,0.5-0.1,0.7c-0.2,0.9-0.3,2-0.8,3.1
		c-0.6,1.5-1.7,2.7-3,3.4l-0.1,0l-0.1,0C380.2,533.9,379.7,534,379.3,534z M210.5,431.3c0.6,0.6,1.1,1.1,1.6,1.5
		c0.5,0.4,1,0.6,1.3,0.6c0.5,0,1.1-0.5,1.5-1c0.6-0.7,1-1.3,1.4-2.1c1.2-2.1,2.1-4.5,2.8-6.4c1.8-5.5,2.6-11.4,3.4-17.1l0-0.3
		c0.5-4,1-8.2,2-12.3c0.8-3.3,1.7-5.8,2.9-8.1c1.5-2.8,3.3-4.9,5.4-6.4c1.6-1.1,3.3-1.6,5-1.6c2.2,0,4.3,0.9,5.9,2.5
		c1.1,1.1,2,2.4,2.8,3.7l0.1,0.1c0.8,1.3,1.6,2.5,2.5,3.8c0.5,0.7,1.1,1.3,1.8,1.8c0.5,0.3,1.2,0.5,1.9,0.5c0.9,0,1.7-0.3,2.3-0.9
		c0.8-0.8,1.5-1.8,2-2.9c0.6-1.3,1.3-2.8,2.1-4.1c0.6-1.1,1.3-2,2.3-2.8c0.9-0.7,2-1.3,3.2-1.3c1.3,0,2.4,0.7,3,1.3
		c0.1,0.1,0.3,0.2,0.5,0.3c0.2,0.1,0.4,0.3,0.6,0.4l0.1,0.1c4.3,3.7,6.7,8.6,7.3,14.4c0.2,2.6,0.3,5.1,0.4,7.6c0,1,0,1.9,0.1,2.8
		c0.1,1,0.2,2.3,0.7,3.2c0.2,0.3,0.7,0.7,1.3,0.7c0.3,0,0.6-0.1,0.9-0.4c1.6-1.3,2.6-2.6,3.2-4.2c0.4-1.2,0.8-2.3,1-3.5
		c0.6-3,1.1-6.1,1.6-9.1l0.2-1.4c0.5-2.9,1.2-5.4,2.1-7.7c1.5-3.4,3.6-5.9,6.4-7.6c1.3-0.8,2.8-1.3,4.2-1.3c1.6,0,3.2,0.5,4.7,1.5
		c1.4,0.9,2.7,2.3,3.8,4.3c0.7,1.2,1.3,2.5,2,3.7c0.2,0.3,0.4,0.7,0.5,1.1c0.6,1.3,1.2,2.4,2,3.4l0.1,0.1c0.2,0.2,0.3,0.3,0.4,0.4
		c0.2-0.2,0.4-0.3,0.6-0.5c0.8-0.8,1.5-1.7,2.1-2.7l0.1-0.1c0.4-0.6,0.9-1.2,1.3-1.8c0.4-0.6,0.9-1.2,1.3-1.8
		c0.7-1.1,1.9-2.1,3.3-2.9c1.2-0.7,2.4-1.1,3.7-1.1c1,0,2,0.2,3,0.7c1.3,0.6,2.5,1.4,3.6,2.5c0.7,0.7,1.5,1.6,2.2,2.4
		c1.2,1.3,2.2,2.3,3.4,3c0.8,0.4,1.6,0.7,2.3,0.7c1,0,2-0.5,2.8-1.4l2.4-2.6c0.6-0.7,1.2-1.4,1.9-2.1c0.6-0.6,1.2-1,1.8-1.3
		c1.1-0.6,2.1-0.9,3.2-0.9c1,0,2,0.2,2.9,0.7c1.1,0.6,1.9,1.3,2.5,1.9l3.2,3.5c0.2,0.2,0.4,0.4,0.7,0.7c0.4,0.5,0.9,1,1.4,1.4
		c0.4,0.3,0.8,0.5,1.1,0.5c0.3,0,0.7-0.2,1.1-0.5l0.1-0.1c0.4-0.3,0.9-0.7,1.3-1.1l0.1-0.1c2-1.7,4.3-2.6,6.8-2.6
		c1.1,0,2.2,0.2,3.4,0.5c0.9,0.3,1.7,0.6,2.4,0.9l0.7,0.3c2.7,1.1,3.5,2.2,3.5,5.2v0.6c0,2.5,0.5,5,1.4,7.4c0.8,2,2.2,3.3,4.3,3.9
		c0.6,0.2,0.8,0.2,0.9,0.2c0,0,0,0,0,0c0,0,0.2-0.1,0.5-0.7c0.4-0.6,0.7-1.2,1.1-1.8c0.3-0.6,0.7-1.1,1-1.7l0.1-0.1
		c0.5-0.7,1-1.3,1.5-1.9c1-1,2.3-1.5,3.7-1.5c1.5,0,2.8,0.6,3.8,1.7c0.6,0.6,0.9,1.2,1.3,1.9l0.2,0.4l1.8,3.6
		c0.4,0.7,0.8,1.3,1.2,1.7c0.6,0.5,1.1,0.8,1.5,0.8c0.2,0,0.5-0.1,0.8-0.2l0.1,0l0.1,0c0.8-0.3,1.3-0.9,1.6-1.5
		c0.7-1.3,1.1-2.7,1.5-4.6c0.5-2.2,0.7-4.5,0.9-6.8c0.1-0.8,0.1-1.6,0.2-2.3c0.6-4.8,1.9-9.1,4-13c1.9-3.5,4.9-5.6,8.9-6.2
		c1.4-0.2,2.8-0.5,4.1-0.8c3.1-0.7,6-1.8,8.7-3.4c1.9-1.1,3.4-2.6,4.4-4.8c0.4-0.9,0.8-1.8,1.1-2.7c0.6-1.7,1.1-3.3,1.6-4.9
		c0.5-1.6,1.1-3.3,1.6-4.9c1.6-5,3.1-8.8,5-12.2c2.3-4.2,5.4-7.1,9.2-8.7c0.6-0.3,1-0.7,1.5-1.4c0.1-0.2,0.2-0.4,0.3-0.6
		c0.1-0.2,0.2-0.4,0.3-0.6c1.2-2.8,1.7-5.8,2.1-8.6c0.5-3.7,0.8-7.5,1.2-11.1l0.1-1c0.1-0.9,0.2-1.7,0.2-2.5
		c0.1-0.8,0.2-1.7,0.3-2.6c0.2-1.8,0.3-3.7,0.5-5.6c0.2-1.7,0.3-3.4,0.5-5c0.1-1.2,0.2-2.4,0.2-3.6c0.1-1.2,0.2-2.5,0.3-3.7
		c0.2-2,0.3-4,0.4-5.9c0.2-2.7,0.3-5.4,0.5-8c0.2-2.6,0.3-5.3,0.5-7.9c0.2-2.9,0.3-5.8,0.3-8.7c0.2-5,0.3-10.1,0.4-15l0-0.4
		c0.1-2.6,0.1-5.3,0.1-7.9l0.3-13.1c0-0.1,0-0.3,0-0.4c0-0.1,0-0.2,0-0.3c-0.5-1-0.4-2-0.4-2.8l0-0.4c0-2.6,0-5.1,0-7.7
		c0.1-7.5,0.1-15.2-0.3-22.8c-0.1-2.2-0.2-4.3-0.2-6.5c0-1.1,0-2.1-0.1-3.2c-0.2-4.9-0.5-10.1-1.3-15c-0.3-2.3-0.8-4.5-1.4-6.5
		c-1.3-3.8-3.6-6.3-7.1-7.5c-1.7-0.6-3.1-1.5-4.5-2.9c-4-3.9-7.2-8.5-9.7-14.2c-1.7-3.9-2.9-8.2-3.6-13.4c0-0.2-0.1-0.3-0.1-0.4
		c-0.1,0-0.5,0.1-0.5,0.1c-1.8,0.2-3.7,0.4-5.6,0.4c-2.5,0-4.9,0-7.4,0.4c-3.3,0.5-5.8,1-8,1.6c-2.3,0.7-4.6,1.7-7,3.1
		c-2.9,1.7-6.1,2.6-9.7,2.6c-0.4,0-0.8,0-1.3,0c-2-0.1-3.9-0.4-5.7-0.7c-4.9-0.9-9-2.8-12.7-5.7c-1.2-1-2.3-2.1-3.3-3.3
		c-1.4-1.6-3.3-2.6-5.6-3c-1-0.2-2.2-0.2-3.5-0.2c-1.3,0-2.7,0.1-3.7,0.2c-2.6,0.2-5.2,0.4-8,0.5c-1.9,0.1-3.9,0.1-5.8,0.1
		c-1.9,0-3.8,0-5.8-0.1c-0.2,0-0.4,0-0.6,0c-3.8,0-7.7,0-11.5-0.2c-3.1-0.1-6.4-0.1-9.5-0.1c-4.7,0-9.6,0-14.4-0.3
		c-2.1-0.1-4.2-0.1-6.3-0.1c-2.8,0-5.7-0.1-8.6-0.3c-1.7-0.1-3.5-0.1-5.2-0.2c-1.8,0-3.6-0.1-5.4-0.2c-2-0.1-4-0.1-6-0.2
		c-2,0-4.1-0.1-6.1-0.2c-3.5-0.1-7-0.2-10.5-0.2c-1.7,0-3.5,0-5.3-0.1c-4-0.1-8.1-0.2-12-0.2c-4,0-8.1-0.1-12.1-0.2
		c-4.9-0.1-9.8-0.2-14.7-0.2c-4.8,0-9.9-0.1-14.8-0.2c-5.5-0.1-11.2-0.2-16.6-0.2c-5.5,0-11.1,0-16.7-0.2c-3.9-0.1-7.7-0.1-11.7-0.1
		c-0.5,0-1.1,0-1.6,0.1c-3.9,0.5-7.5,1.6-11.3,3.3c-1,0.5-2.1,1-3.2,1.5c-1.1,0.5-2.2,1.1-3.2,1.6c-3.1,1.6-6.3,2.7-9.4,3.3
		c-1.4,0.3-2.9,0.4-4.3,0.4c-1.6,0-3.2-0.2-4.7-0.5c-2.6-0.6-5-1.8-7.5-3.7l-0.5-0.3c-1-0.7-1.8-1.4-2.8-1.8
		c-0.8-0.4-1.5-0.5-2.1-0.5c-0.5,0-1,0.1-1.6,0.3c-0.5,0.2-1.1,0.4-1.6,0.6l-0.1,0l-0.1,0c-1.5,0.2-2.9,0.5-4.4,0.8
		c-1.5,0.3-3,0.6-4.5,0.8c-4.1,0.6-7.2,1.2-10,2c-1.8,0.5-3.9,1.1-5.8,2.2c-2.5,1.4-4.4,3.2-5.6,5.5c-1,1.9-2.1,4.2-2.9,6.6
		c-3.3,9.5-7,16.8-11.8,23.2c-1.6,2.1-2.7,4.6-3.2,7.6c-0.6,2.9-0.7,6-0.9,9l-0.1,1.6c-0.1,2.1-0.1,4.3-0.1,6.4c0,4.7,0,9.4,0.1,14
		c0.1,7.7,0.1,15.6,0,23.4c-0.1,6.1-0.3,12.2-0.6,18.2l0,0.6l0,0.1c-0.2,2.1-0.3,4.1-0.5,6.2c-0.2,2-0.3,4.1-0.5,6.1L54.2,255
		c-0.1,1.2-0.1,2.4-0.2,3.6c0,1.2-0.1,2.5-0.2,3.7c-0.3,2.9-0.3,5.7-0.4,8.8c0,1.4-0.1,2.8-0.1,4.3c0.4,3.1,0.6,7.2,0.5,12.4
		c0,1.7,0,3.5,0.1,5.4c0,3.6,0,7.4,0.2,11.2l0.9,13.1c0.1,1.3,0.2,2.5,0.4,3.8l0.1,0.5c0.2,1.3,0.3,2.5,0.5,3.8
		c0.2,1.3,0.4,2.6,0.5,3.8c0.4,3.6,1,6.8,1.6,9.7c0.8,3.1,1.7,5.6,2.8,7.8c1.4,2.6,3.4,4.4,6,5.5c0.2,0.1,0.4,0.2,0.6,0.3
		c0.1,0,0.1,0.1,0.2,0.1c2.4,0.9,4.2,2.5,5.3,4.8c1,2,2,4.1,2.9,6.2c0.8,1.6,1.6,3.5,2.4,5.3c0.6,1.3,1.3,2.5,2.3,3.7
		c2.1,2.7,5,4.2,8.7,4.4c0.3,0,0.6,0,0.9,0c1.5,0,3-0.2,4.6-0.5c0.7-0.1,1.4-0.2,2.1-0.2c1.2,0,2.3,0.2,3.4,0.6
		c2.8,0.9,4.9,2.9,6.2,5.8c1.4,3.3,1.8,6.5,2.1,9.6c0.2,2.2,0.4,4.3,0.7,6.4c0.6,4.7,2.5,9.1,5.6,13.3c0.1,0.1,0.2,0.3,0.3,0.4l0,0
		c0.2-0.2,0.3-0.4,0.4-0.6c0.8-2.1,1.4-4,1.6-5.9c0.1-1.4,0.3-2.7,0.5-4c0.7-3.8,1.9-7.4,3.7-11.1c1.9-4,4.3-7.8,7.3-11.6
		c1.7-2.2,3.2-3.9,4.6-5.4c1-1,2.3-2,4-2c2,0,3.3,1.5,4.1,2.6c1.1,1.5,2.2,3.1,3.1,5.2l4.2,9.9c0.8,2,1.5,3.5,2.4,4.9
		c0.6,1,1.1,1.6,1.7,2.1c0.3,0.2,0.6,0.3,0.9,0.3c0.5,0,0.9-0.3,1.1-0.8c0.1-0.3,0.2-0.7,0.3-1.1l0-0.1c0,0,0.2-0.5,0.2-0.8
		c0.2-0.7,0.4-1.4,0.8-2.1c0.8-1.8,2.1-2.2,3-2.2c0.6,0,1.2,0.2,1.8,0.5c1.4,0.8,2.6,1.8,3.4,3c0.6,0.9,1.2,1.8,1.8,2.6
		c0.1,0.2,0.3,0.4,0.5,0.6c0.3,0.4,0.5,0.7,0.8,1c0.6,0.5,1.2,0.8,1.8,0.8c0.5,0,1.1-0.2,1.7-0.7c0.9-0.6,1.5-1.5,2.1-2.2
		c0.5-0.7,0.9-1.4,1.3-2.1c0.2-0.3,0.3-0.6,0.5-0.8c0.5-0.8,1-1.7,1.5-2.6c0.5-0.9,1-1.8,1.5-2.6c1.2-2.1,2.8-4,4.7-5.5
		c1.5-1.2,3-1.9,4.6-1.9c1.2,0,2.4,0.3,3.7,1c0.1,0.1,0.3,0.1,0.4,0.2l0.1,0.1l0.1,0.1c4.1,2.7,7.1,6,9.2,10.1
		c1.8,3.3,2.9,7.1,3.4,12.3c0.3,2.9,0.4,5.8,0.5,8.6c0.1,3.2,0.4,5.7,0.8,7.9C206.2,424.7,207.8,428.3,210.5,431.3z"/>
	<path class="st2" d="M353.4,400.2c-1,0.6-1.3,1.4-1.6,2.2c-0.9,2.5-1.6,5-2.1,7.6c-0.7,3.5-1,7.1-1.1,10.7
		c-0.4,12.6-0.8,25.2-1.2,37.7c-0.1,4.6-0.3,9.2-0.5,13.9c-0.1,3.2-0.5,6.4-1.4,9.5c-0.2,0.7-0.5,1.5-0.8,2.1
		c-0.9,1.7-2.3,2.3-4.2,2c-0.3,0-0.6-0.2-0.9-0.2c-3.5-1.1-6.1-3.3-7.6-6.6c-1.1-2.4-1.6-5-1.9-7.6c-0.8-5.6-1.2-11.2-1.2-16.9
		c0-7.3-0.1-14.6,0.2-22c0.2-5.2,0.3-10.4,0.3-15.6c0-3.5,0-7.1-0.5-10.6c-0.2-1.8-0.5-3.6-1.2-5.2s-1.6-2.9-2.9-4
		c-1-0.8-1.6-0.8-2.5,0.2c-0.8,0.9-1.4,2-1.9,3.1c-0.4,1.1-0.8,2.3-1.2,3.5c-0.3,0.9-0.5,1.9-0.8,2.8c-0.3,1.1-0.8,2.1-1.6,3.1
		c-1.6,2.1-4.4,3.3-7.6,2.3c-1.4-0.5-2.7-1.3-3.7-2.3c-2.4-2.3-3.9-5.1-4.9-8.2c-0.1-0.4-0.2-0.9-0.4-1.3c-0.2-0.5-0.8-0.7-1.3-0.4
		c-0.7,0.4-0.9,1.1-1.2,1.7c-0.9,2.2-1.6,4.5-2.1,6.8c-1.1,5-1.5,10.2-1.5,15.3c0,4.8-0.3,9.6-0.8,14.4c-0.2,2-0.5,4-0.9,5.9
		c-0.6,3-0.9,6-1,9c-0.2,6.4-0.7,12.7-1.6,19c-0.8,5.8-2.1,11.5-3.9,17c-0.9,2.8-2.2,5.3-4,7.6c-1.6,2-3.6,3.1-6.1,3.2
		c-3.1,0.1-5.5-1.3-7-4c-0.9-1.5-1.5-3.1-2.1-4.7c-1.5-4.1-2.3-8.4-2.7-12.8c-0.7-7.1-0.2-14.2,0.3-21.4c0.6-7.5,1.1-15,0.9-22.5
		c-0.2-6.9-1-13.7-2.7-20.4c-0.4-1.7-1-3.4-1.8-5.1c-0.5-1.1-1.2-2.1-1.9-3.1c-1.4-2.1-2.2-1.6-3.5,0c-0.6,0.8-1,1.7-1.3,2.5
		c-0.4,1-0.9,2-1.4,3c-1.5,2.6-4.2,3.2-6.8,1.8c-0.8-0.5-1.5-1.2-2.1-2c-0.8-1.1-1.4-2.3-2-3.5c-0.8-1.6-1.6-3.2-2.7-4.7
		c-0.2-0.2-0.3-0.4-0.4-0.6c-1-1.2-1.9-1.1-2.5,0.5c-0.7,2-1.2,4.1-1.3,6.2c-0.4,5.3-0.5,10.5-0.6,15.8c-0.1,7.9-0.2,15.8-0.3,23.7
		c-0.1,3.5-0.2,6.9-0.3,10.4c-0.2,3.5-0.6,6.9-1.5,10.3c-0.4,1.5-1.1,2.9-1.9,4.2c-0.2,0.4-0.5,0.7-0.9,1c-0.4,0.4-0.9,0.5-1.4,0.2
		c-0.4-0.2-0.9-0.5-1.3-0.9c-1.7-1.6-3.1-3.4-3.9-5.7c-0.4-1.2-0.8-2.4-1.1-3.7c-0.8-3.4-1.9-6.7-3-10c-0.1-0.3-0.2-0.6-0.3-0.9
		c-0.3-0.5-1-0.5-1.3-0.1c-0.2,0.3-0.4,0.6-0.6,0.9c-1.8,2.8-2.9,5.8-3.9,9c-0.8,2.5-1.6,5-2.4,7.5c-1.2,3.5-3.1,6.5-5.8,8.9
		c-0.5,0.5-1.1,0.9-1.7,1.3c-1,0.5-2,0.5-2.9-0.2c-0.6-0.4-1.1-0.9-1.5-1.5c-2.5-2.9-4.1-6.2-4.9-9.9c-0.6-2.6-0.9-5.2-1.1-7.8
		c-0.6-7.1-1.1-14.2-1.7-21.3c-0.7-8.8-1.2-17.7-1.3-26.5c0-2.5-0.3-4.9-1.3-7.2c-0.5-1.2-1.1-2.3-1.9-3.3c-0.3-0.4-0.6-0.8-1.1-1.1
		c-0.8-0.5-1.5-0.3-2,0.5c-0.2,0.3-0.3,0.7-0.4,1.1c-2.3,6.5-3.2,13.2-3.1,20.1c0,3.2,0,6.4,0,9.6c0,4.4,0.5,8.8,1,13.2
		c0.7,5.7,1.5,11.5,2,17.2c0.4,4.2,0.4,8.3-0.7,12.4c-0.3,1.4-0.7,2.7-1.4,4c-1.5,3.2-4,5.3-7.3,6.4c-1.4,0.5-2.6,0.2-3.7-0.7
		c-2.3-2.1-3.9-4.6-4.9-7.5c-0.6-1.8-1-3.7-1.4-5.6c-1.1-5.2-2.7-10.3-4.2-15.4c-1-3.3-2-6.6-2.9-10c-1.2-4.5-1.8-9.2-2.4-13.8
		c-0.7-5.8-1.5-11.6-3.1-17.2c-0.4-1.5-1-3-1.5-4.6c-0.1-0.3-0.3-0.4-0.6-0.5s-0.6,0.1-0.8,0.4c-0.1,0.2-0.2,0.5-0.3,0.7
		c-0.4,1-0.6,2.1-0.7,3.2c0,0.8,0,1.5-0.1,2.3c-0.1,0.9-0.1,1.8-0.2,2.7c-0.2,1.6-0.9,2-2.4,1.4c-1.9-0.7-3.5-1.9-4.7-3.5
		c-0.9-1.3-1.6-2.6-2.2-4.1c-1.1-2.8-2.1-5.7-3.1-8.5c-0.1-0.4-0.3-0.7-0.4-1.1c-0.2-0.4-0.9-0.4-1.1,0c-0.2,0.3-0.3,0.6-0.3,0.9
		c-0.6,3.1-1.2,6.3-1.5,9.5c-1.1,10.5-0.9,21-0.5,31.6c0.3,9.2,0.8,18.4,0.5,27.5c-0.2,7.2-1.2,14.2-3.5,21
		c-1.2,3.6-3.2,6.6-6.2,8.9c-0.9,0.7-1.9,1.3-3.1,1.6c-1.6,0.4-2.9,0-4.2-0.9c-0.8-0.6-1.4-1.5-2-2.4c-1.2-2-1.9-4.2-2.4-6.5
		c-0.6-2.8-0.8-5.6-1.1-8.4c-0.5-4.9-1-9.8-1.5-14.8c-0.3-3.8-0.6-7.7-0.8-11.5c-0.3-4.9-0.9-9.8-2.1-14.7c-0.8-3.1-1.1-6.2-1.4-9.3
		c-0.6-6.2-1.1-12.4-1.7-18.6c-0.4-4.5-1.3-8.9-2.6-13.2c-0.1-0.3-0.2-0.6-0.3-0.9c-0.6-2-1.8-3.3-3.7-4.2c-2.7-1.3-5.4-2.4-8.2-3.4
		c-3.6-1.3-7.2-2.6-10.9-3.8c-1.6-0.6-3.2-1.2-4.8-2c-7.3-3.7-12-9.5-14.2-17.3c-0.5-1.7-1-3.3-1.8-4.8c-1.6-3.1-3.9-5.6-7-7.3
		c-4.4-2.3-7.2-5.9-8.7-10.6c-1.9-6-2.9-12.1-2.3-18.4c0.6-6.7,0.3-13.3,0-20c-0.2-5.2-0.4-10.4-0.6-15.6c-0.4-8.8-0.8-17.6-1-26.4
		c-0.3-8.6-0.9-17.2-0.8-25.8c0.1-6.6,0.2-13.2,0.4-19.8c0.2-7.3,0-14.5-0.4-21.7c-0.3-4.9-0.6-9.7-0.9-14.6c-0.3-5-0.7-10-1-15
		c-0.4-6.9-0.5-13.7-0.1-20.6c0.4-5.4,1.1-10.9,2.6-16.1c0.8-2.7,1.8-5.2,3-7.7c1.4-2.9,3.4-5,6.3-6.5c4.3-2.1,7.2-5.5,9.2-9.8
		c0.8-1.8,1.4-3.6,1.9-5.4c0.4-1.6,1-3.2,1.6-4.7c2.4-5.8,6.5-10.1,12.2-12.8c3.6-1.7,7.5-2.7,11.4-3.4c4.7-0.8,9.5-1.3,14.3-1.6
		c4.7-0.3,9.5-0.7,14.2-1.1c1.2-0.1,2.4-0.3,3.6-0.4c1.5-0.1,3-0.1,4.3,0.8c0.5,0.3,1.1,0.4,1.7,0.4c2.6-0.1,4.9,0.8,7,2.3
		c1.4,0.9,2.6,2.1,3.9,3.1c0.8,0.7,1.7,1.4,2.5,2.1c1.4,1.1,2.9,1.2,4.5,0.3c0.9-0.5,1.8-1.1,2.6-1.6c3.2-2.2,6.7-3.8,10.5-4.7
		c2.9-0.7,5.8-0.9,8.8-0.7c5.4,0.4,10.8,0,16.2-0.5c4.6-0.4,9.2-0.7,13.9-0.5c1.9,0.1,3.8,0.3,5.7,0.7c4,0.9,8.1,1.1,12.3,0.9
		c5.4-0.2,10.8-0.5,16.2-0.7c3.8-0.2,7.7-0.2,11.6-0.3c11.6-0.3,23.2-0.2,34.9-0.2c11.5,0,23-0.3,34.5-0.6c8-0.2,16-0.2,24.1,0.1
		c5.5,0.2,11,0.3,16.6,0.5c7,0.3,14,0.6,21,1c2.4,0.1,4.9,0.2,7.3,0.4c8.3,0.9,15.9,3.6,22.7,8.4c1.2,0.8,2.4,1.6,3.6,2.3
		c0.7,0.4,1.5,0.7,2.3,1c1.8,0.7,3.5,0.5,5.2-0.4c1.5-0.8,2.8-1.8,4.1-2.9c0.9-0.7,1.8-1.5,2.7-2.1c2.6-1.8,5.5-2.5,8.6-2
		c1,0.1,1.9,0.4,2.6,1.1c3.3,3.1,7.2,3.6,11.5,3.4c1.9-0.1,3.7-0.2,5.6-0.2c2.5,0,4.8,0.6,7,1.7c3.9,1.9,6.6,5,7.9,9.2
		c0.7,2.1,1,4.2,1.1,6.4c0.1,1.5,0.4,3.1,0.8,4.5c1.1,4,3.3,7.2,6.6,9.6c1.1,0.8,2.2,1.5,3.3,2.3c2,1.4,3.9,2.9,5.5,4.8
		c0.8,0.9,1.7,1.4,3,1.4c1.6,0,2.3,0.5,2.7,2.2c0.6,2.2,1.1,4.3,1.6,6.5c1.1,5.7,1.7,11.5,2,17.4c0.6,9.5,1,19.1,1.3,28.7
		c0.1,3.8,0.1,7.6,0.3,11.4c0.3,8.1,0.2,16.2,0.2,24.3c0,5.6-0.2,11.2-0.3,16.8c0,3.4,0.2,6.8,0.6,10.2c0.3,3.3,0.3,6.5,0.2,9.8
		c-0.1,5.6-0.7,11.1-1.5,16.7c-1,7-2.2,14-3.1,20.9c-1.2,8.4-2.1,16.8-2.5,25.3c-0.3,5.7-1.1,11.2-3,16.6c-0.2,0.5-0.4,1.1-0.6,1.6
		c-1.4,3.7-3.8,6.3-7.4,8c-1.7,0.8-3.4,1.7-5.2,2.5c-2.8,1.3-4.6,3.4-5.5,6.3c-0.5,1.7-0.7,3.5-1,5.3c-0.4,2.5-0.8,5.1-1.5,7.5
		c-0.1,0.4-0.2,0.7-0.3,1.1c-1.6,5.2-5.1,8.6-10.4,10.2c-1.8,0.6-3.6,0.8-5.5,1.1c-3.1,0.5-6.2,1.1-9.2,1.9c-2.5,0.6-4,2.1-4.8,4.5
		c-1,3-1.6,6.1-1.8,9.2c-0.5,6.4-0.8,12.8-1.2,19.2c-0.2,3.5-0.6,7-1.5,10.5c-0.2,0.7-0.4,1.3-0.7,2c-0.9,2.4-2.7,3.5-5.2,3.5
		c-1.9,0-3.8-0.3-5.7-1c-1.6-0.5-2.6-1.6-3.2-3.1c-0.5-1.5-0.8-3-1.1-4.5c-0.3-2-0.5-4-0.8-5.9c-0.2-1.3-0.5-2.5-0.8-3.8
		c-0.1-0.6-0.5-1.2-1-1.6c-0.8-0.7-1.9-0.6-2.5,0.3c-0.4,0.6-0.6,1.3-0.8,1.9c-0.8,2.9-1.4,5.9-1.9,8.8c-1.2,7.3-1.9,14.6-2.4,22
		c-0.5,7.2-0.7,14.5-1.1,21.7c-0.3,4.9-0.6,9.9-1,14.8c-0.3,3.7-0.6,7.4-0.9,11.1c-0.4,4.2-0.9,8.3-1.4,12.4
		c-0.4,3.9-1,7.8-1.7,11.6c-0.6,3.4-1.3,6.8-2,10.2c-0.2,1-0.6,1.8-1.3,2.5c-1,1.1-2.3,1.9-3.6,2.5c-1.4,0.5-2.6,0.4-3.7-0.7
		c-2.4-2.4-3.8-5.3-4.4-8.6c-0.5-2.6-0.5-5.2-0.7-7.9c-0.6-11-0.6-22.1-0.3-33.1c0.2-7.6,0.7-15.1,1.3-22.7
		c0.4-5.1,0.7-10.1,0.9-15.2c0.2-5.5,0.6-10.9,0.9-16.3c0.3-5.6,0.6-11.2,0.5-16.7c-0.1-2.6-0.4-5.2-0.9-7.8
		c-0.1-0.3-0.1-0.6-0.3-0.9c-0.1-0.2-0.3-0.4-0.6-0.4c-0.3,0-0.5,0.1-0.6,0.3c-0.5,1.1-0.9,2.3-1.4,3.4c-0.4,1-0.8,2-1.3,3
		c-1.6,2.9-4.8,3.6-6.9,3c-1-0.3-1.9-0.8-2.7-1.5c-1-0.9-1.7-2-2.3-3.1c-1.2-2.1-1.9-4.5-2.6-6.8
		C354.3,403.2,353.9,401.7,353.4,400.2z M39.4,244.9c0.1,6.4-0.1,14.4,0.3,22.5c0.2,4.7,0.3,9.4,0.5,14c0.1,3.8,0.3,7.6,0.5,11.4
		c0,0.1,0,0.3,0,0.4c0.4,4.6,0.6,9.2,0.7,13.8c0.1,7.3-0.1,14.5,0.3,21.8c0.2,3.8,0.4,7.7,0.8,11.5c0.3,2.9,0.8,5.9,1.6,8.7
		c1.3,4.3,3.6,7.9,7.4,10.5c1.5,1,2.6,2.2,3.7,3.7c1.4,1.9,2.4,4.1,3.3,6.3c0.8,2,1.5,4,2.3,5.9c1.7,4.1,4.1,7.7,7.6,10.5
		c4.7,3.8,10.1,5.8,16.2,5.8c1.9,0,3.8,0.1,5.8,0.4c2.9,0.4,5.4,1.5,7.4,3.7c1,1.2,1.7,2.6,2.2,4c1.3,3.6,2.2,7.3,2.7,11
		c0.6,4.4,1,8.8,1.5,13.2c0.4,3.6,0.8,7.3,1.2,10.9c0.5,5.2,1.5,10.3,2.1,15.4c0.4,3.4,1,6.9,1.3,10.3c0.3,3.2,0.6,6.4,0.8,9.6
		c0.2,4,0.5,7.9,0.8,11.9c0.3,3.6,0.7,7.2,1.3,10.7c0.4,2.2,1,4.2,2.3,6.1c0.5,0.7,1,1.3,1.7,1.8c1.1,0.7,2.4,0.7,3.4-0.1
		c0.5-0.3,0.8-0.8,1.2-1.3c0.9-1.3,1.6-2.8,2.2-4.3c2.6-6.7,3.9-13.7,4.5-20.8c0.3-3.2,0.3-6.4,0.4-9.6c0-1.7-0.1-3.5-0.2-5.2
		c-0.1-3.1-0.1-6.2-0.4-9.2c-0.2-3.7-0.2-7.4-0.5-11.2c-0.2-2.8-0.2-5.6-0.5-8.5c-0.4-3.5-0.2-7.1-0.5-10.6
		c-0.1-1.6,0.1-3.2,0.1-4.8c0.1-5,1.3-9.6,3.2-14.2c1.4-3.4,3.7-3.8,6.5-3.6c0.7,0.1,1.2,0.4,1.6,1c0.3,0.4,0.5,0.9,0.7,1.4
		c0.5,1.5,0.8,3,0.8,4.5c0.1,2.4,0.5,4.7,1.1,7c0.3,1,0.7,1.9,1.4,2.7c1.6,1.9,2.4,1.8,3.3-0.5c0.4-1.1,0.8-2.3,1.2-3.5
		c0.3-1,0.7-1.9,1.4-2.7c1.2-1.4,2.9-1.5,4.2-0.2c0.7,0.6,1.1,1.4,1.5,2.2c0.3,0.7,0.5,1.3,0.7,2c1.2,3.9,2.4,7.9,3.5,11.8
		c0.6,2.1,1.1,4.2,1.4,6.4c0.8,4.4,1.3,8.9,1.8,13.3c0.5,4.5,1.3,9,2.5,13.4c1.7,6.3,3.4,12.6,5.2,18.9c0.6,2.1,1.5,4.1,2.7,5.9
		c0.4,0.5,0.8,1,1.3,1.4c0.6,0.3,1.1,0.3,1.6,0c0.4-0.3,0.8-0.6,1.1-1c0.5-0.7,1-1.4,1.3-2.1c1.5-2.9,2.3-6,2.4-9.2
		c0.3-5-0.3-10-1-15c-0.3-2.4-0.6-4.8-0.9-7.3c-0.5-4.1-0.5-8.3-0.7-12.5c-0.2-4.9-0.2-9.7,0.2-14.6c0.3-3.6,0.7-7.2,1.3-10.7
		c0.5-2.5,0.9-4.9,1.8-7.3c0.6-1.7,1.5-3.3,2.8-4.6c1.5-1.5,2.6-1.6,4.3-0.5c3.8,2.6,6.4,6.1,7.4,10.7c0.7,3.2,0.8,6.4,1,9.6
		c0.2,4,0.1,8,0.4,11.9c0.2,3.3,0.2,6.5,0.4,9.8c0.2,6.2,0.5,12.4,1.2,18.6c0.4,3.3,0.8,6.5,1.6,9.7c0.5,2.1,1.2,4.2,1.9,6.2
		c0.6,1.6,1.6,1.8,3,0.8c0.3-0.2,0.5-0.4,0.7-0.6c1.6-1.4,2.7-3.2,3.6-5.2c1.3-3.1,2.2-6.3,3.1-9.5c0.8-2.8,1.6-5.5,3.1-8.1
		c0.7-1.2,1.4-2.3,2.4-3.2c1.2-1.2,2.4-1.3,3.9-0.5c1,0.6,1.9,1.3,2.6,2.2c0.9,1.1,1.5,2.4,1.9,3.8c0.7,1.9,1.1,3.8,1.5,5.8
		c0.3,1.4,0.7,2.9,1.2,4.3c0.1,0.2,0.2,0.5,0.4,0.7c0.1,0.2,0.6,0.1,0.6-0.1c0.1-0.3,0.2-0.6,0.3-0.9c0.1-1,0.2-2,0.4-3.1
		c0.3-3.1,0.8-6.1,1-9.2c0.3-5.4,0.6-10.9,0.8-16.3c0.2-6.9,0.3-13.9,0.4-20.8c0-4.6,0.8-9,2.2-13.4c0.5-1.6,1.4-2.6,2.9-3.3
		c2.5-1.1,4.5-0.7,6.1,1.4c0.7,0.9,1.2,1.8,1.7,2.8c1.1,2.2,2.3,4.3,3.5,6.4c0.4,0.6,0.6,1.6,1.5,1.5c0.8-0.1,1-0.9,1.3-1.5
		c0.8-1.4,1.5-2.8,2.3-4.2c0.6-1.1,1.3-2.2,2.1-3.2c1-1.4,1.8-1.6,3.3-0.9c2,1,3.8,2.3,5.3,4.1c2.1,2.5,3.4,5.4,4.3,8.5
		c1.9,6.5,2.8,13.2,3,19.9c0.2,4,0.1,8.1,0.1,12.1c0.1,5.7-0.4,11.4-0.5,17.1c-0.1,6.9-0.2,13.7,0.8,20.6c0.6,4.2,1.8,8.3,4,12
		c0.3,0.4,0.5,0.9,0.9,1.3c0.4,0.5,1,0.5,1.6,0.2c0.3-0.2,0.6-0.5,0.9-0.8c1.1-1.1,1.9-2.4,2.6-3.8c1.2-2.5,2.1-5.2,2.8-8
		c1.4-5.4,2-11,2.6-16.5c0.4-3.8,0.8-7.5,1.1-11.3c0.4-4.8,0.8-9.6,1.1-14.4c0.3-4.1,0.5-8.2,0.8-12.3c0.3-3.1,0.6-6.3,0.9-9.4
		c0.3-3.3,0.7-6.5,1.1-9.8c0.3-2.5,0.6-5,1.4-7.3c0.6-1.7,1.5-3.3,2.8-4.6c0.9-0.9,1.9-1.7,3.2-2.1c2.4-0.7,4.8-0.2,6,2.4
		c0.3,0.7,0.6,1.4,0.9,2.1c0.6,1.8,1.2,3.5,1.8,5.3c0.2,0.6,0.4,1.2,0.8,1.7c1.4,2.2,4.5,2.3,6,0.1c0.4-0.5,0.6-1.1,0.9-1.7
		c1-2.2,1.7-4.6,2.4-6.9c0.4-1.5,1-2.9,1.8-4.2c1.3-2,2.7-2.6,4.9-2.1c3.6,0.8,6.3,2.7,7.9,6.1c0.7,1.5,1.2,3.1,1.5,4.7
		c0.9,4.3,0.9,8.6,0.6,12.8c-0.3,4.8-0.4,9.6-0.5,14.4c-0.1,7.9-0.2,15.8,0.2,23.7c0.2,4,0,8,0.4,11.9c0.2,2.6,0.6,5.1,1.2,7.6
		c0.4,1.5,1,2.9,1.9,4.2c0.7,1,1.6,1.8,2.7,2.4c0.8,0.3,1.3,0.2,1.5-0.6c0.1-0.3,0.2-0.6,0.2-0.9c0.3-2.2,0.5-4.3,0.8-6.5
		c0.5-3.7,0.5-7.4,0.7-11.1c0.2-3.5,0.2-6.9,0.4-10.4c0.2-4.2,0.2-8.3,0.4-12.5c0.3-6.6,0.1-13.2,0.4-19.8c0.1-3.9,0.4-7.7,1.3-11.4
		c0.7-2.9,1.7-5.7,3.1-8.3c1.2-2.1,2.8-3.7,5.1-4.5c1.4-0.5,2.5-0.2,3.4,1c0.3,0.4,0.6,0.9,0.7,1.3c0.3,0.7,0.5,1.5,0.7,2.2
		c0.3,1.3,0.6,2.6,0.8,4c0.4,1.9,0.9,3.9,1.6,5.8c0.3,0.7,0.6,1.4,1,2.1c0.5,0.7,1.1,0.8,1.8,0.4c0.7-0.4,1.2-0.9,1.7-1.6
		c0.8-1.1,1.4-2.4,2-3.7c0.6-1.2,1.1-2.4,1.7-3.7c0.4-0.9,1.1-1.6,1.8-2.2c1.6-1.3,3.8-1.6,5.7-0.3c1.1,0.7,1.8,1.6,2.4,2.7
		c1,1.8,1.2,3.8,1.4,5.8c0.2,2.8-0.2,5.5-0.5,8.2c-0.5,3.8-1.4,7.6-1.9,11.4c-0.5,4-0.7,7.9-0.9,11.9c-0.1,2.8-0.1,5.6,0,8.5
		c0,3.5,0.4,6.9,0.3,10.4c-0.1,3-0.3,6-0.7,9c-0.3,2.3-0.6,4.6-0.8,6.9c-0.3,3.1-0.6,6.3-0.9,9.4c-0.4,3.8-0.7,7.7-0.7,11.5
		c0,1.3,0,2.7-0.1,4c-0.2,2.5-0.2,5-0.1,7.5c0.2,4.1,0.2,8.2,0.6,12.3c0.2,2.3,0.4,4.6,0.9,6.9c0.4,1.8,0.9,3.6,1.7,5.3
		c0.3,0.5,0.5,1,1,1.4c0.4,0.3,0.8,0.4,1.2,0.1c1-0.5,1.7-1.4,2.1-2.4s0.6-2.1,0.8-3.2c0.7-5.1,1.4-10.2,2.1-15.2
		c0.7-4.6,1-9.3,1.4-14c0.3-3.8,0.6-7.6,0.8-11.3c0.2-4.3,0.3-8.6,0.5-12.9c0.2-4.2,0.3-8.5,0.4-12.7c0-0.2,0-0.4,0-0.6
		c0.3-3.9,0.7-7.8,1-11.7c0.3-2.9,0.6-5.7,0.9-8.6c0.4-3.6,0.9-7.2,1.4-10.9c0.4-2.8,0.8-5.6,1.2-8.4c0.2-1.5,0.6-2.9,1.1-4.3
		c0.7-1.6,1.5-3.2,2.8-4.3c1.8-1.5,3.8-1.8,5.9-0.8c1.1,0.5,2,1.4,2.7,2.4c1.2,1.6,1.9,3.5,2.5,5.4c1.1,3.5,2.2,7,3.3,10.5
		c0.1,0.4,0.2,0.7,0.4,1.1c0.4,0.9,1.2,1,1.8,0.3c0.2-0.2,0.3-0.4,0.4-0.6c0.7-1.1,1.3-2.3,1.8-3.6c0.8-2.5,1.2-5.1,1.2-7.8
		c0-2.4,0-4.8,0.2-7.1c0.3-4.4,0.7-8.8,0.9-13.2c0.1-3,0.6-5.9,1.3-8.7c0.8-3.4,3-5.4,6.4-6.1c2.5-0.5,5.1-0.8,7.6-1.1
		c2.3-0.3,4.6-0.5,6.9-0.9c3.7-0.6,6.4-2.5,8-5.9c0.6-1.4,1.3-2.8,1.9-4.2c1.4-3.3,2.2-6.7,2.3-10.3c0.1-2.8,1.2-5.2,3.2-7.2
		c1-0.9,2.1-1.7,3.3-2.3c1.4-0.7,2.7-1.4,4.1-2c3.2-1.5,5.4-3.9,6.6-7.2c0.2-0.6,0.4-1.2,0.6-1.8c1.5-5.4,2.5-11,3.1-16.6
		c0.3-2.9,0.5-5.9,0.9-8.8c0.5-4.2,0.8-8.4,0.8-12.7c0-1.9,0-3.7-0.4-5.6c-0.2-1.1-0.1-2.3,0-3.5c0.1-0.5,0.2-1,0.2-1.5
		c0.4-4.6,0.9-9.2,1.3-13.8c0.1-1.5,0.3-2.9,0.4-4.4c0.3-3.3,0.7-6.6,1-10s0.6-6.8,0.9-10.2c0.4-3.8,0.9-7.5,1.2-11.3
		c0.2-1.9,0.3-3.8,0.4-5.8c0.3-3.5,0.5-6.9,0.7-10.4c0.1-1.9,0-3.7-0.2-5.6c-0.3-2.2-0.6-4.5-0.8-6.7c-0.3-2.5,0-5,0.7-7.4
		c0.2-0.7,0.3-1.4,0.1-2.1c-1.1-5.4-1.4-10.8-1.7-16.2c-0.3-4.3-0.4-8.6-0.6-12.9c0-0.2,0-0.4,0-0.6c-0.2-4.3-0.4-8.6-0.7-12.9
		c-0.2-3.1-0.2-6.3-0.5-9.4c-0.2-2.2-0.3-4.5-0.6-6.7c-0.4-3.2-1.9-5.6-4.5-7.5c-3.1-2.3-6.1-4.7-9.2-7c-1.8-1.4-3.5-3.1-4.8-4.9
		c-2.3-3.2-3.5-6.8-4-10.7c-0.3-2.4-0.6-4.8-1.2-7.2c-0.8-3.2-2.8-5.4-5.8-6.7c-4-1.7-8.1-2.2-12.4-1.4c-1.7,0.3-3.3,0.3-5-0.1
		c-1.9-0.4-3.6-1.4-5.1-2.7c-0.8-0.7-1.7-1.4-2.7-1.9c-1.6-0.8-3.2-0.9-4.8-0.3c-1,0.3-1.9,0.8-2.7,1.4c-1.4,1-2.8,2.1-4.2,3.1
		c-1.4,1-2.8,2.1-4.4,2.8c-2.8,1.2-5.5,1.2-8.2-0.2c-1.3-0.7-2.5-1.5-3.6-2.5c-3.5-3.3-7.7-5.5-12.4-6.8c-3.7-1.1-7.4-1.6-11.2-1.8
		c-4.2-0.3-8.3-0.6-12.5-0.5c-1,0-1.9,0-2.9-0.1c-4.1-0.2-8.2-0.4-12.3-0.6c-4-0.2-8-0.1-11.9-0.3c-5.3-0.2-10.5-0.2-15.8-0.4
		c-6.9-0.3-13.7-0.3-20.6,0.2c-2.9,0.2-5.9,0.3-8.8,0.5c-4.4,0.3-8.7,0.7-13,1c-5.6,0.3-11.3,0.1-16.9-0.5c-2.4-0.3-4.7-0.5-7.1-0.6
		c-4.9-0.1-9.7,0.2-14.6,0.7c-4.6,0.5-9.2,0.9-13.8,1.2c-3.9,0.3-7.8,0.6-11.7,0.6c-1,0-2,0.1-3.1,0.1c-1.2,0-2.4-0.1-3.7-0.2
		c-2.6,0-5.1-0.4-7.7-0.7c-3.6-0.5-7.1-1-10.7-0.9c-2.2,0-4.4,0-6.5-0.1c-7-0.1-14-0.1-21,0.9c-2.8,0.4-5.6,0.9-8.3,1.7
		c-2.6,0.8-5,2-7.1,3.8c-2.4,2-5.1,2.7-8.1,1.7c-1.1-0.4-2.1-0.9-3-1.6c-1.5-1.1-3-2.2-4.3-3.5c-2.7-2.5-5.8-3.7-9.4-3.9
		c-5.7-0.3-11.3-0.1-16.9,0.8c-4.1,0.6-8.2,1.2-12.4,1.9c-3.4,0.5-6.7,1.1-10,1.9c-6.6,1.7-11.4,5.6-14.2,12
		c-1.3,2.9-2.6,5.9-3.7,8.9c-1.9,5.2-5.2,9.2-10.2,11.8c-1.2,0.6-2.3,1.4-3.4,2.2c-1.7,1.3-2.6,3-2.7,5.1c0,1-0.1,2.1-0.2,3.1
		c-0.4,3.6-0.6,7.3-0.6,11c0,1.2,0.1,2.4,0.2,3.7c0.1,4.7,0.2,9.4,0.4,14.1c0.1,2.9,0,5.8,0.1,8.7c0,2.1-0.2,4.2-0.7,6.3
		c-1.1,4.1-1.2,8.2-1.4,12.4c-0.3,5.3-0.3,10.5-0.2,15.8c0.1,4.9,0.3,9.9,0.4,14.8C39.5,230.3,39.4,236.8,39.4,244.9z"/>
	<path class="st0" d="M378.3,83.9c-15.4,0-27.5-9.9-30.2-24.7c-1.8-9.9,1.1-19.9,7.8-27.3c4.9-5.4,11.3-8.8,18.7-9.9
		c1.3-0.2,2.7-0.3,4.1-0.3c5.3,0,10.5,1.5,15,4.4c2.7,1.7,5.2,3.9,7.3,6.5c4.2,5.2,6.8,11.3,7.9,18.3c1.3,9-1.8,17.8-8.5,24
		c-5.9,5.5-13.4,8.7-21.1,9h-0.5H378.3z"/>
	<path class="st0" d="M124.4,87.1c-3.1,0-6.2-0.5-9.1-1.3c-12.8-3.9-21-15.5-20.9-29.5v-0.8l0.1-0.8c0.7-8.8,4.9-17.3,11.7-23.2
		c6.8-6,13.9-7.3,18.6-7.3c4.9,0,9.5,1.3,14.2,3.9c11.3,6.3,17.8,19.8,15.8,32.8c-0.3,2.1-1,5.3-2.7,8.9
		c-4.6,9.6-13.3,15.9-23.8,17.1C127,87,125.7,87.1,124.4,87.1z"/>
	<path class="st2" d="M117.7,56.4c0.2-2.5,1.4-5.3,3.8-7.4c2.4-2.1,4.1-1.7,6.2-0.6c2.9,1.6,4.7,5.4,4.1,8.9
		c-0.1,0.8-0.3,1.6-0.7,2.4c-1.1,2.4-2.9,3.8-5.6,4.1c-1.2,0.1-2.3,0.1-3.4-0.3C119.3,62.7,117.7,60.2,117.7,56.4z M125.2,59.5
		c1,0,1.8-0.4,2.5-1.1c0.5-0.6,0.8-1.3,0.7-2.1c-0.5-2-2.5-3.8-5.2-2.9c-1,0.3-1.7,1.3-1.6,2.4c0.1,0.9,0.3,1.8,0.9,2.5
		C123.2,59.1,124.1,59.6,125.2,59.5z"/>
	<path class="st0" d="M400.2,64.6c-12.6,0-23.5-7.7-27.9-19.7c-2-5.5-2.4-11.4-1.1-16.9c2.4-10.4,9.9-18.2,20.1-21.1
		c2.8-0.8,5.4-1.1,8.1-1.1c0.3,0,0.6,0,0.8,0h0.1c10.8,0.4,20.2,6.3,25.2,15.7c2.8,5.2,4,11.2,3.5,17.1c-0.9,11.2-8,20.5-18.5,24.2
		C407.1,64,403.6,64.6,400.2,64.6z"/>
	<path class="st1" d="M39.4,244.9c0-8.1,0.1-14.6,0-21.1c-0.1-4.9-0.3-9.9-0.4-14.8c-0.1-5.3-0.1-10.5,0.2-15.8
		c0.2-4.2,0.4-8.3,1.4-12.4c0.5-2.1,0.7-4.2,0.7-6.3c0-2.9,0.1-5.8-0.1-8.7c-0.2-4.7-0.3-9.4-0.4-14.1c0-1.2-0.1-2.4-0.2-3.7
		c0-3.7,0.2-7.3,0.6-11c0.1-1,0.1-2.1,0.2-3.1c0.1-2.1,1-3.8,2.7-5.1c1.1-0.8,2.1-1.6,3.4-2.2c5-2.5,8.3-6.6,10.2-11.8
		c1.1-3,2.4-5.9,3.7-8.9c2.7-6.4,7.6-10.2,14.2-12c3.3-0.9,6.6-1.4,10-1.9c4.1-0.6,8.2-1.2,12.4-1.9c5.6-0.8,11.2-1.1,16.9-0.8
		c3.6,0.2,6.7,1.4,9.4,3.9c1.4,1.3,2.9,2.4,4.3,3.5c0.9,0.7,1.9,1.3,3,1.6c3,1,5.7,0.3,8.1-1.7c2.1-1.8,4.5-3,7.1-3.8
		c2.7-0.8,5.5-1.3,8.3-1.7c7-1,14-1,21-0.9c2.2,0,4.4,0.1,6.5,0.1c3.6-0.1,7.2,0.5,10.7,0.9c2.5,0.3,5.1,0.7,7.7,0.7
		c1.2,0,2.4,0.2,3.7,0.2c1,0,2-0.1,3.1-0.1c3.9,0,7.8-0.3,11.7-0.6c4.6-0.3,9.2-0.7,13.8-1.2c4.9-0.5,9.7-0.8,14.6-0.7
		c2.4,0,4.7,0.3,7.1,0.6c5.6,0.6,11.3,0.9,16.9,0.5c4.4-0.2,8.7-0.7,13-1c2.9-0.2,5.9-0.3,8.8-0.5c6.9-0.5,13.7-0.5,20.6-0.2
		c5.3,0.2,10.5,0.2,15.8,0.4c4,0.2,8,0.1,11.9,0.3c4.1,0.2,8.2,0.4,12.3,0.6c1,0,1.9,0.1,2.9,0.1c4.2,0,8.3,0.3,12.5,0.5
		c3.8,0.2,7.5,0.7,11.2,1.8c4.6,1.3,8.8,3.5,12.4,6.8c1.1,1,2.3,1.9,3.6,2.5c2.7,1.3,5.4,1.4,8.2,0.2c1.6-0.7,3-1.7,4.4-2.8
		c1.4-1,2.8-2.1,4.2-3.1c0.8-0.6,1.8-1.1,2.7-1.4c1.7-0.6,3.3-0.5,4.8,0.3c1,0.5,1.8,1.2,2.7,1.9c1.5,1.3,3.1,2.2,5.1,2.7
		c1.7,0.4,3.3,0.4,5,0.1c4.3-0.7,8.4-0.2,12.4,1.4c3.1,1.3,5,3.5,5.8,6.7c0.6,2.4,0.9,4.8,1.2,7.2c0.5,3.9,1.6,7.5,4,10.7
		c1.4,1.9,3,3.5,4.8,4.9c3,2.4,6.1,4.7,9.2,7c2.6,1.9,4,4.4,4.5,7.5c0.3,2.2,0.3,4.5,0.6,6.7c0.3,3.1,0.4,6.3,0.5,9.4
		c0.2,4.3,0.4,8.6,0.7,12.9c0,0.2,0,0.4,0,0.6c0.2,4.3,0.3,8.6,0.6,12.9c0.4,5.4,0.6,10.9,1.7,16.2c0.1,0.7,0.1,1.4-0.1,2.1
		c-0.7,2.4-0.9,4.9-0.7,7.4c0.2,2.2,0.5,4.5,0.8,6.7c0.2,1.8,0.3,3.7,0.2,5.6c-0.2,3.5-0.5,6.9-0.7,10.4c-0.1,1.9-0.2,3.8-0.4,5.8
		c-0.3,3.8-0.8,7.5-1.2,11.3c-0.3,3.4-0.6,6.8-0.9,10.2c-0.3,3.3-0.7,6.6-1,10c-0.1,1.5-0.3,2.9-0.4,4.4c-0.4,4.6-0.9,9.2-1.3,13.8
		c0,0.5-0.1,1-0.2,1.5c-0.2,1.1-0.3,2.3,0,3.5c0.4,1.8,0.4,3.7,0.4,5.6c0.1,4.2-0.3,8.5-0.8,12.7c-0.3,2.9-0.6,5.9-0.9,8.8
		c-0.6,5.6-1.5,11.2-3.1,16.6c-0.2,0.6-0.4,1.2-0.6,1.8c-1.2,3.3-3.4,5.7-6.6,7.2c-1.4,0.6-2.8,1.3-4.1,2c-1.2,0.6-2.3,1.4-3.3,2.3
		c-2,2-3.1,4.3-3.2,7.2c-0.1,3.6-0.9,7-2.3,10.3c-0.6,1.4-1.3,2.8-1.9,4.2c-1.6,3.5-4.3,5.4-8,5.9c-2.3,0.3-4.6,0.6-6.9,0.9
		c-2.5,0.3-5.1,0.6-7.6,1.1c-3.4,0.7-5.6,2.7-6.4,6.1c-0.7,2.9-1.2,5.7-1.3,8.7c-0.1,4.4-0.6,8.8-0.9,13.2c-0.1,2.4-0.1,4.7-0.2,7.1
		c0,2.6-0.4,5.2-1.2,7.8c-0.4,1.3-1,2.5-1.8,3.6c-0.1,0.2-0.3,0.4-0.4,0.6c-0.6,0.7-1.4,0.6-1.8-0.3c-0.2-0.3-0.3-0.7-0.4-1.1
		c-1.1-3.5-2.2-7-3.3-10.5c-0.6-1.9-1.3-3.8-2.5-5.4c-0.7-1-1.6-1.8-2.7-2.4c-2.1-1-4.1-0.7-5.9,0.8c-1.4,1.1-2.2,2.7-2.8,4.3
		c-0.6,1.4-0.9,2.8-1.1,4.3c-0.5,2.8-0.8,5.6-1.2,8.4c-0.5,3.6-1,7.2-1.4,10.9c-0.3,2.9-0.6,5.7-0.9,8.6c-0.4,3.9-0.7,7.8-1,11.7
		c0,0.2,0,0.4,0,0.6c-0.1,4.2-0.3,8.5-0.4,12.7c-0.2,4.3-0.3,8.6-0.5,12.9c-0.2,3.8-0.4,7.6-0.8,11.3c-0.4,4.7-0.7,9.3-1.4,14
		c-0.7,5.1-1.4,10.2-2.1,15.2c-0.2,1.1-0.3,2.2-0.8,3.2c-0.4,1-1.1,1.9-2.1,2.4c-0.5,0.2-0.9,0.2-1.2-0.1c-0.4-0.4-0.7-0.9-1-1.4
		c-0.8-1.7-1.4-3.5-1.7-5.3c-0.5-2.3-0.7-4.6-0.9-6.9c-0.4-4.1-0.4-8.2-0.6-12.3c-0.1-2.5-0.2-5,0.1-7.5c0.1-1.3,0.1-2.7,0.1-4
		c0.1-3.9,0.3-7.7,0.7-11.5c0.3-3.1,0.6-6.3,0.9-9.4c0.2-2.3,0.5-4.6,0.8-6.9c0.4-3,0.6-6,0.7-9c0.1-3.5-0.3-6.9-0.3-10.4
		c0-2.8-0.1-5.7,0-8.5c0.2-4,0.4-7.9,0.9-11.9c0.5-3.8,1.3-7.6,1.9-11.4c0.4-2.7,0.7-5.5,0.5-8.2c-0.1-2-0.4-4-1.4-5.8
		c-0.6-1.1-1.3-2-2.4-2.7c-2-1.3-4.1-1-5.7,0.3c-0.8,0.6-1.4,1.3-1.8,2.2c-0.6,1.2-1.2,2.4-1.7,3.7c-0.6,1.3-1.2,2.6-2,3.7
		c-0.5,0.6-1,1.2-1.7,1.6s-1.4,0.3-1.8-0.4c-0.4-0.6-0.7-1.4-1-2.1c-0.7-1.9-1.1-3.8-1.6-5.8c-0.3-1.3-0.5-2.6-0.8-4
		c-0.2-0.7-0.4-1.5-0.7-2.2c-0.2-0.5-0.4-0.9-0.7-1.3c-0.9-1.2-2-1.5-3.4-1c-2.3,0.8-3.9,2.4-5.1,4.5c-1.5,2.6-2.4,5.4-3.1,8.3
		c-0.9,3.8-1.2,7.6-1.3,11.4c-0.2,6.6-0.1,13.2-0.4,19.8c-0.2,4.2-0.1,8.3-0.4,12.5c-0.2,3.5-0.2,6.9-0.4,10.4
		c-0.2,3.7-0.3,7.4-0.7,11.1c-0.3,2.2-0.5,4.3-0.8,6.5c0,0.3-0.1,0.6-0.2,0.9c-0.3,0.7-0.8,0.9-1.5,0.6c-1.1-0.5-2-1.4-2.7-2.4
		c-0.9-1.2-1.6-2.7-1.9-4.2c-0.6-2.5-1-5-1.2-7.6c-0.4-4-0.2-8-0.4-11.9c-0.4-7.9-0.3-15.8-0.2-23.7c0.1-4.8,0.2-9.6,0.5-14.4
		c0.3-4.3,0.2-8.6-0.6-12.8c-0.3-1.6-0.8-3.2-1.5-4.7c-1.6-3.4-4.4-5.3-7.9-6.1c-2.2-0.5-3.6,0.1-4.9,2.1c-0.9,1.3-1.4,2.7-1.8,4.2
		c-0.7,2.3-1.3,4.7-2.4,6.9c-0.3,0.6-0.5,1.2-0.9,1.7c-1.5,2.1-4.6,2.1-6-0.1c-0.3-0.5-0.6-1.1-0.8-1.7c-0.6-1.8-1.2-3.5-1.8-5.3
		c-0.3-0.7-0.6-1.4-0.9-2.1c-1.2-2.5-3.6-3.1-6-2.4c-1.3,0.4-2.3,1.2-3.2,2.1c-1.3,1.3-2.1,2.9-2.8,4.6c-0.9,2.4-1.1,4.9-1.4,7.3
		c-0.4,3.2-0.8,6.5-1.1,9.8c-0.3,3.1-0.6,6.3-0.9,9.4c-0.4,4.1-0.6,8.2-0.8,12.3c-0.3,4.8-0.7,9.6-1.1,14.4
		c-0.3,3.8-0.7,7.5-1.1,11.3c-0.6,5.5-1.3,11.1-2.6,16.5c-0.7,2.7-1.6,5.4-2.8,8c-0.7,1.4-1.5,2.7-2.6,3.8c-0.3,0.3-0.5,0.6-0.9,0.8
		c-0.5,0.4-1.1,0.3-1.6-0.2c-0.3-0.4-0.6-0.8-0.9-1.3c-2.2-3.7-3.4-7.7-4-12c-1-6.8-0.9-13.7-0.8-20.6c0.1-5.7,0.5-11.4,0.5-17.1
		c0-4,0.1-8.1-0.1-12.1c-0.3-6.7-1.2-13.4-3-19.9c-0.9-3.1-2.2-6-4.3-8.5c-1.5-1.8-3.3-3.1-5.3-4.1c-1.5-0.7-2.3-0.5-3.3,0.9
		c-0.8,1-1.4,2.1-2.1,3.2c-0.8,1.4-1.5,2.8-2.3,4.2c-0.3,0.6-0.5,1.4-1.3,1.5c-1,0.1-1.2-0.9-1.5-1.5c-1.2-2.1-2.4-4.3-3.5-6.4
		c-0.5-1-1.1-1.9-1.7-2.8c-1.7-2.1-3.6-2.6-6.1-1.4c-1.5,0.7-2.4,1.7-2.9,3.3c-1.4,4.4-2.2,8.8-2.2,13.4c0,6.9-0.2,13.9-0.4,20.8
		c-0.2,5.5-0.4,10.9-0.8,16.3c-0.2,3.1-0.6,6.1-1,9.2c-0.1,1-0.2,2-0.4,3.1c0,0.3-0.2,0.6-0.3,0.9c-0.1,0.2-0.5,0.3-0.6,0.1
		c-0.1-0.2-0.3-0.4-0.4-0.7c-0.5-1.4-0.9-2.8-1.2-4.3c-0.4-1.9-0.9-3.9-1.5-5.8c-0.5-1.3-1.1-2.6-1.9-3.8c-0.7-0.9-1.6-1.7-2.6-2.2
		c-1.4-0.8-2.7-0.6-3.9,0.5c-1,0.9-1.7,2.1-2.4,3.2c-1.4,2.5-2.3,5.3-3.1,8.1c-0.9,3.2-1.8,6.4-3.1,9.5c-0.8,2-2,3.8-3.6,5.2
		c-0.2,0.2-0.5,0.4-0.7,0.6c-1.4,1-2.4,0.8-3-0.8c-0.8-2-1.4-4.1-1.9-6.2c-0.8-3.2-1.2-6.4-1.6-9.7c-0.7-6.2-1-12.4-1.2-18.6
		c-0.1-3.3-0.2-6.5-0.4-9.8c-0.2-4-0.1-8-0.4-11.9c-0.2-3.2-0.4-6.4-1-9.6c-0.9-4.6-3.6-8-7.4-10.7c-1.7-1.2-2.8-1-4.3,0.5
		c-1.3,1.3-2.1,2.9-2.8,4.6c-0.9,2.4-1.4,4.8-1.8,7.3c-0.7,3.5-1,7.1-1.3,10.7c-0.4,4.9-0.4,9.8-0.2,14.6c0.2,4.2,0.2,8.3,0.7,12.5
		c0.3,2.4,0.6,4.8,0.9,7.3c0.7,5,1.2,9.9,1,15c-0.2,3.2-0.9,6.3-2.4,9.2c-0.4,0.7-0.8,1.4-1.3,2.1c-0.3,0.4-0.7,0.8-1.1,1
		c-0.5,0.4-1.1,0.3-1.6,0c-0.6-0.3-1-0.8-1.3-1.4c-1.3-1.8-2.1-3.8-2.7-5.9c-1.7-6.3-3.5-12.6-5.2-18.9c-1.2-4.4-1.9-8.9-2.5-13.4
		c-0.5-4.5-1-8.9-1.8-13.3c-0.4-2.2-0.8-4.3-1.4-6.4c-1.2-3.9-2.3-7.9-3.5-11.8c-0.2-0.7-0.4-1.3-0.7-2c-0.3-0.8-0.8-1.6-1.5-2.2
		c-1.3-1.3-3-1.2-4.2,0.2c-0.7,0.8-1.1,1.8-1.4,2.7c-0.4,1.2-0.7,2.3-1.2,3.5c-0.9,2.3-1.7,2.4-3.3,0.5c-0.7-0.8-1.1-1.7-1.4-2.7
		c-0.6-2.3-1-4.6-1.1-7c-0.1-1.6-0.3-3.1-0.8-4.5c-0.2-0.5-0.4-0.9-0.7-1.4c-0.4-0.6-0.9-0.9-1.6-1c-2.8-0.2-5.1,0.2-6.5,3.6
		c-1.9,4.5-3.1,9.2-3.2,14.2c0,1.6-0.3,3.2-0.1,4.8c0.3,3.5,0.1,7.1,0.5,10.6c0.3,2.8,0.3,5.6,0.5,8.5c0.3,3.7,0.2,7.4,0.5,11.2
		c0.2,3.1,0.2,6.2,0.4,9.2c0.1,1.7,0.2,3.5,0.2,5.2c-0.1,3.2-0.1,6.4-0.4,9.6c-0.6,7.1-1.9,14.1-4.5,20.8c-0.6,1.5-1.2,3-2.2,4.3
		c-0.3,0.5-0.7,0.9-1.2,1.3c-1.1,0.7-2.3,0.8-3.4,0.1c-0.7-0.5-1.3-1.1-1.7-1.8c-1.3-1.8-1.9-3.9-2.3-6.1c-0.6-3.5-1-7.1-1.3-10.7
		c-0.3-4-0.6-7.9-0.8-11.9c-0.2-3.2-0.4-6.4-0.8-9.6c-0.4-3.4-0.9-6.9-1.3-10.3c-0.7-5.2-1.6-10.3-2.1-15.4
		c-0.4-3.6-0.8-7.3-1.2-10.9c-0.5-4.4-0.9-8.8-1.5-13.2c-0.5-3.8-1.4-7.4-2.7-11c-0.5-1.5-1.2-2.8-2.2-4c-2-2.2-4.5-3.3-7.4-3.7
		c-1.9-0.3-3.8-0.3-5.8-0.4c-6.1,0-11.4-2.1-16.2-5.8c-3.5-2.8-5.9-6.4-7.6-10.5c-0.8-2-1.5-4-2.3-5.9c-0.8-2.2-1.9-4.4-3.3-6.3
		c-1-1.4-2.2-2.7-3.7-3.7c-3.8-2.6-6.1-6.2-7.4-10.5c-0.8-2.8-1.3-5.7-1.6-8.7c-0.4-3.8-0.6-7.7-0.8-11.5
		c-0.4-7.3-0.2-14.5-0.3-21.8c-0.1-4.6-0.3-9.2-0.7-13.8c0-0.1,0-0.3,0-0.4c-0.2-3.8-0.3-7.6-0.5-11.4c-0.2-4.7-0.3-9.4-0.5-14
		C39.3,259.3,39.5,251.3,39.4,244.9z M51.7,287.8c0.1,5.3,0,11,0.3,16.7c0.3,4.4,0.6,8.7,0.9,13.1c0.1,1.5,0.3,2.9,0.5,4.4
		c0.3,2.5,0.7,5.1,1,7.6c0.4,3.3,0.9,6.6,1.6,9.9c0.7,2.9,1.6,5.7,3,8.3c1.6,2.9,3.9,5.1,7,6.4c0.3,0.1,0.6,0.3,0.9,0.4
		c1.9,0.7,3.3,2,4.2,3.8c1,2,2,4,2.9,6.1c0.8,1.7,1.6,3.5,2.4,5.3c0.7,1.5,1.5,2.8,2.5,4.1c2.6,3.3,6,4.9,10.1,5.2
		c2.1,0.1,4.1-0.1,6.1-0.5c1.5-0.3,3-0.2,4.4,0.3c2.4,0.8,4,2.4,5,4.7c1.2,2.9,1.6,5.9,1.9,9c0.2,2.2,0.4,4.3,0.7,6.5
		c0.7,5.4,2.9,10.1,6.1,14.3c0.2,0.2,0.3,0.4,0.5,0.6c0.9,0.8,1.9,0.8,2.7,0c0.4-0.4,0.7-0.9,0.9-1.4c0.8-2.1,1.5-4.2,1.7-6.5
		c0.1-1.3,0.3-2.6,0.5-3.8c0.7-3.7,1.9-7.2,3.5-10.6c1.9-4,4.3-7.7,7.1-11.2c1.4-1.8,2.9-3.6,4.5-5.2c2.1-2,3.4-1.9,5.1,0.4
		c1.1,1.5,2.1,3,2.9,4.8c1.4,3.3,2.8,6.6,4.2,9.9c0.7,1.8,1.5,3.5,2.6,5.2c0.6,1,1.3,1.9,2.2,2.6c1.8,1.4,4.2,0.8,5.1-1.3
		c0.2-0.5,0.3-1,0.4-1.5c0.3-0.9,0.5-1.7,0.9-2.5c0.5-1.1,1.1-1.3,2.1-0.8c1.1,0.6,2,1.4,2.7,2.4c0.6,0.9,1.2,1.8,1.9,2.7
		c0.5,0.6,0.9,1.2,1.5,1.8c1.9,1.7,4.1,1.8,6.1,0.3c1-0.7,1.8-1.7,2.5-2.7s1.3-2.1,1.9-3.1c1-1.7,2-3.5,3-5.2c1.1-1.9,2.5-3.6,4.2-5
		c2-1.7,3.8-1.8,6-0.6c0.2,0.1,0.3,0.2,0.5,0.3c3.6,2.4,6.5,5.4,8.5,9.3c2,3.6,2.8,7.6,3.2,11.6c0.3,2.8,0.4,5.6,0.5,8.5
		c0.1,2.8,0.3,5.5,0.8,8.2c0.8,4.5,2.5,8.6,5.6,12.1c0.6,0.6,1.2,1.2,1.8,1.7c2.1,1.6,3.8,1.4,5.6-0.6c0.7-0.8,1.2-1.6,1.7-2.5
		c1.2-2.1,2.1-4.4,2.9-6.7c1.9-5.7,2.7-11.6,3.5-17.5c0.5-4.1,1-8.3,2-12.3c0.6-2.6,1.4-5.2,2.7-7.6c1.2-2.2,2.7-4.2,4.8-5.7
		c2.5-1.7,5.9-1.8,8.4,0.7c1,1,1.8,2.2,2.6,3.4c0.8,1.4,1.7,2.7,2.6,4c0.6,0.9,1.4,1.7,2.3,2.3c2,1.3,4.9,1.2,6.7-0.6
		c1-1,1.8-2.2,2.4-3.5s1.3-2.7,2-4c0.4-0.8,0.9-1.5,1.7-2.1c1.5-1.1,2.3-1.3,3.8-0.1c0.4,0.3,0.7,0.5,1.1,0.8
		c4,3.5,6.1,7.9,6.6,13.1c0.2,2.5,0.3,5,0.4,7.5c0,1,0,1.9,0.1,2.9c0.1,1.3,0.3,2.7,0.9,3.9c0.9,1.6,3.3,2.7,5.3,1
		c1.7-1.4,3-3,3.8-5c0.4-1.2,0.8-2.4,1.1-3.7c0.7-3.5,1.3-7.1,1.9-10.6c0.4-2.5,1-4.9,2-7.2c1.2-2.7,3-5.1,5.6-6.7
		c2.2-1.4,4.5-1.3,6.7,0.2c1.4,0.9,2.4,2.2,3.2,3.6c0.7,1.2,1.3,2.4,1.9,3.6c0.9,1.7,1.6,3.3,2.8,4.8c0.4,0.5,0.7,0.9,1.2,1.2
		c0.6,0.3,1.1,0.3,1.6,0c0.4-0.3,0.8-0.6,1.2-1c0.9-0.9,1.7-1.9,2.4-3c0.9-1.2,1.7-2.4,2.6-3.6c0.7-1,1.7-1.8,2.7-2.4
		c1.5-0.9,3.1-1.1,4.8-0.3c1.1,0.5,2.1,1.2,3,2.1c0.7,0.7,1.4,1.5,2.1,2.3c1.2,1.3,2.4,2.5,3.9,3.4c2.8,1.6,5.5,1.2,7.6-1
		c0.8-0.9,1.6-1.8,2.4-2.7c0.6-0.7,1.2-1.4,1.8-2c0.4-0.4,0.9-0.7,1.4-1c1.4-0.8,2.8-0.8,4.2-0.1c0.8,0.4,1.4,0.9,2,1.5
		c1,1.1,2.1,2.3,3.1,3.4c0.7,0.7,1.4,1.5,2.2,2.2c1.6,1.3,3.1,1.3,4.7,0.1c0.6-0.4,1.1-0.9,1.6-1.4c2.4-2.1,5.2-2.6,8.3-1.7
		c1,0.3,1.9,0.7,2.9,1.1c2,0.8,2.2,1.1,2.2,3.3c0,0.2,0,0.4,0,0.6c0,2.8,0.5,5.5,1.5,8.1s2.9,4.3,5.6,5.1c1.9,0.6,2.7,0.3,3.7-1.4
		c0.7-1.2,1.4-2.3,2.1-3.5c0.4-0.6,0.8-1.1,1.3-1.6c1.3-1.3,3.4-1.2,4.6,0.1c0.5,0.5,0.8,1.1,1.2,1.8c0.6,1.2,1.2,2.4,1.8,3.6
		c0.5,0.9,1,1.7,1.7,2.3c1.3,1.2,2.8,1.6,4.4,0.9c1.2-0.4,2.1-1.3,2.7-2.4c0.9-1.6,1.3-3.3,1.7-5.1c0.7-3.1,0.8-6.2,1.1-9.4
		c0.5-4.3,1.7-8.4,3.8-12.2c1.6-3,4.1-4.7,7.4-5.2c1.5-0.2,2.9-0.5,4.3-0.8c3.3-0.7,6.4-1.9,9.3-3.6c2.3-1.3,4-3.2,5.2-5.6
		c0.5-1,0.9-2,1.2-3c1.1-3.2,2.1-6.5,3.2-9.7c1.3-4.1,2.8-8.1,4.9-11.9c1.9-3.5,4.5-6.3,8.2-7.8c1.1-0.5,1.9-1.3,2.5-2.3
		c0.2-0.5,0.4-0.9,0.6-1.4c1.3-2.9,1.8-6,2.2-9.1c0.5-4.1,0.9-8.2,1.3-12.2c0.2-1.7,0.3-3.3,0.5-5c0.3-3.6,0.7-7.2,1-10.7
		c0.2-2.4,0.3-4.9,0.5-7.3c0.2-2,0.3-4,0.4-6c0.3-5.3,0.7-10.6,1-15.9c0.2-2.9,0.3-5.9,0.3-8.8c0.2-5.1,0.3-10.3,0.4-15.4
		c0.1-2.6,0.1-5.3,0.1-7.9c0.1-4.4,0.2-8.7,0.3-13.1c0-0.5,0.1-1.1-0.1-1.5c-0.4-0.8-0.3-1.6-0.3-2.4c0-10.2,0.3-20.4-0.3-30.6
		c-0.2-3.2-0.2-6.4-0.3-9.6c-0.2-5.1-0.5-10.3-1.3-15.3c-0.3-2.3-0.8-4.6-1.5-6.8c-1.4-4.2-4-7.3-8.3-8.8c-1.4-0.5-2.6-1.3-3.7-2.4
		c-4-3.9-7-8.5-9.3-13.6c-1.8-4.1-2.8-8.4-3.4-12.8c-0.4-2.5-1-2.3-2.8-2.1c-1.8,0.2-3.6,0.4-5.4,0.4c-2.6,0-5.1,0-7.7,0.4
		c-2.8,0.4-5.6,0.9-8.3,1.7c-2.6,0.8-5,1.9-7.4,3.3c-3,1.8-6.3,2.5-9.8,2.3c-1.9-0.1-3.7-0.4-5.5-0.7c-4.4-0.8-8.3-2.5-11.8-5.3
		c-1.1-0.9-2.1-1.9-3-3c-1.8-2-4.1-3.2-6.8-3.7c-2.6-0.4-5.1-0.3-7.7-0.1c-2.6,0.2-5.2,0.4-7.9,0.5c-3.8,0.1-7.6,0.1-11.4,0
		c-4,0-8.1,0-12.1-0.2c-8-0.2-15.9,0-23.9-0.4c-4.9-0.2-9.9-0.1-14.8-0.4c-3.5-0.2-7.1-0.2-10.6-0.4c-4-0.2-8.1-0.2-12.1-0.4
		c-5.3-0.2-10.5-0.2-15.8-0.3c-8-0.3-16-0.1-24.1-0.4c-9.8-0.3-19.6-0.1-29.5-0.4c-11.1-0.3-22.2-0.1-33.3-0.4
		c-3.9-0.1-7.8-0.1-11.8-0.1c-0.6,0-1.3,0-1.9,0.1c-4.1,0.5-8,1.7-11.8,3.5c-2.1,1-4.3,2.1-6.4,3.1c-2.8,1.4-5.8,2.5-8.9,3.1
		c-2.7,0.5-5.5,0.5-8.2-0.1c-2.5-0.6-4.7-1.8-6.7-3.3c-1.2-0.9-2.3-1.8-3.7-2.4c-1.7-0.8-3.4-0.9-5.2-0.3c-0.5,0.2-1,0.4-1.4,0.5
		c-3,0.5-5.9,1.1-8.9,1.6c-3.4,0.5-6.8,1.1-10.2,2c-2.2,0.6-4.3,1.3-6.3,2.4c-2.7,1.5-4.9,3.5-6.4,6.3c-1.1,2.2-2.2,4.5-3,6.9
		c-2.8,8.1-6.3,15.7-11.5,22.6c-1.9,2.5-3,5.3-3.6,8.4c-0.7,3.6-0.8,7.3-1,10.9c-0.1,2.2-0.1,4.4-0.1,6.5c0,12.5,0.3,24.9,0.1,37.4
		c-0.1,6-0.3,12.1-0.6,18.1c0,0.2,0,0.4,0,0.6c-0.3,4.1-0.7,8.2-1,12.3c-0.3,4.6-0.6,9.2-0.9,13.8c-0.2,2.4-0.2,4.9-0.4,7.3
		c-0.4,4.4-0.4,8.8-0.6,13.3C51.7,278.9,51.8,283.2,51.7,287.8z"/>
	<path class="st3" d="M404.6,71.3c0.5,0,0.9,0,1.3,0.1c2.9,0.3,4.3,2.7,3.2,5.4c-0.4,1-1.1,1.7-2,2.2c-1.3,0.7-2.6,0.8-3.9,0.4
		c-2.7-0.7-4-4.2-2.4-6.5c0.6-0.8,1.4-1.3,2.4-1.5C403.7,71.3,404.2,71.3,404.6,71.3z"/>
	<path class="st3" d="M144.2,76.1c-1.1,0-2.2-0.3-3.1-0.9c-0.7-0.4-1.2-1-1.5-1.7c-0.7-1.4-0.7-3.5,1.5-4.6c2.8-1.4,5.9-0.2,6.9,2.7
		c0.6,2-0.1,3.6-2.2,4.2C145.2,76,144.7,76,144.2,76.1z"/>
	<path class="st3" d="M379.6,49.7c0.3,0,0.6,0,1,0.1c0.6,0.1,0.9,0.4,1.1,1c0.8,3.4-2.2,5.9-4.4,5.7c-0.7-0.1-1.2-0.3-1.5-1
		c-0.3-0.6-0.5-1.2-0.7-1.8c-0.4-1.3,0.1-2.3,1.1-3C377.2,49.9,378.3,49.6,379.6,49.7z"/>
	<path class="st3" d="M125.2,59.5c-1.2,0-2-0.4-2.7-1.3c-0.6-0.7-0.8-1.6-0.9-2.5c-0.1-1.1,0.5-2,1.6-2.4c2.6-0.9,4.7,0.9,5.2,2.9
		c0.2,0.8-0.1,1.5-0.7,2.1C127,59.2,126.2,59.6,125.2,59.5z"/>
	<path class="st3" d="M401.8,35.7c0,0.9-0.6,1.4-1.5,1.3c-0.4-0.1-0.9-0.2-1.3-0.4c-1-0.4-1.3-1.4-1-2.4c0.3-0.7,0.9-1.1,1.7-0.9
		C401,33.7,401.8,34.6,401.8,35.7z"/>
	<path class="st2" d="M51.7,287.8c0.1-4.7,0-8.9,0.2-13.1c0.2-4.4,0.2-8.9,0.6-13.3c0.2-2.4,0.2-4.9,0.4-7.3
		c0.4-4.6,0.6-9.2,0.9-13.8c0.3-4.1,0.7-8.2,1-12.3c0-0.2,0-0.4,0-0.6c0.2-6,0.5-12.1,0.6-18.1c0.1-12.5-0.2-24.9-0.1-37.4
		c0-2.2,0-4.4,0.1-6.5c0.2-3.6,0.3-7.3,1-10.9c0.6-3.1,1.7-5.9,3.6-8.4c5.1-6.9,8.7-14.5,11.5-22.6c0.8-2.4,1.9-4.6,3-6.9
		c1.4-2.8,3.6-4.8,6.4-6.3c2-1.1,4.1-1.8,6.3-2.4c3.4-0.9,6.8-1.5,10.2-2c3-0.5,5.9-1,8.9-1.6c0.5-0.1,1-0.3,1.4-0.5
		c1.8-0.7,3.5-0.5,5.2,0.3c1.4,0.6,2.5,1.5,3.7,2.4c2,1.5,4.2,2.7,6.7,3.3c2.7,0.7,5.5,0.6,8.2,0.1c3.1-0.5,6-1.7,8.9-3.1
		c2.1-1,4.3-2.1,6.4-3.1c3.7-1.8,7.6-3,11.8-3.5c0.6-0.1,1.3-0.1,1.9-0.1c3.9,0,7.8,0,11.8,0.1c11.1,0.3,22.2,0.1,33.3,0.4
		c9.8,0.3,19.6,0.1,29.5,0.4c8,0.2,16.1,0.1,24.1,0.4c5.3,0.2,10.5,0.1,15.8,0.3c4,0.2,8.1,0.2,12.1,0.4c3.5,0.2,7.1,0.2,10.6,0.4
		c4.9,0.3,9.9,0.2,14.8,0.4c8,0.4,15.9,0.2,23.9,0.4c4,0.1,8.1,0.1,12.1,0.2c3.8,0,7.6,0.1,11.4,0c2.6-0.1,5.2-0.3,7.9-0.5
		c2.6-0.2,5.1-0.3,7.7,0.1c2.7,0.5,5,1.7,6.8,3.7c0.9,1.1,1.9,2.1,3,3c3.5,2.8,7.4,4.5,11.8,5.3c1.8,0.3,3.7,0.6,5.5,0.7
		c3.5,0.2,6.8-0.5,9.8-2.3c2.3-1.4,4.8-2.5,7.4-3.3c2.7-0.8,5.5-1.4,8.3-1.7c2.6-0.3,5.1-0.4,7.7-0.4c1.8,0,3.6-0.2,5.4-0.4
		c1.7-0.2,2.4-0.4,2.8,2.1c0.7,4.4,1.7,8.7,3.4,12.8c2.2,5.1,5.2,9.7,9.3,13.6c1.1,1,2.3,1.9,3.7,2.4c4.2,1.5,6.9,4.6,8.3,8.8
		c0.7,2.2,1.2,4.5,1.5,6.8c0.8,5.1,1.1,10.2,1.3,15.3c0.1,3.2,0.1,6.4,0.3,9.6c0.5,10.2,0.2,20.4,0.3,30.6c0,0.8-0.1,1.6,0.3,2.4
		c0.2,0.4,0.1,1,0.1,1.5c-0.1,4.4-0.2,8.7-0.3,13.1c-0.1,2.6-0.1,5.3-0.1,7.9c-0.1,5.1-0.3,10.3-0.4,15.4c-0.1,3-0.2,5.9-0.3,8.8
		c-0.3,5.3-0.7,10.6-1,15.9c-0.1,2-0.2,4-0.4,6c-0.3,2.4-0.3,4.9-0.5,7.3c-0.3,3.6-0.7,7.2-1,10.7c-0.2,1.7-0.3,3.3-0.5,5
		c-0.4,4.1-0.8,8.2-1.3,12.2c-0.4,3.1-1,6.2-2.2,9.1c-0.2,0.5-0.4,0.9-0.6,1.4c-0.5,1.1-1.3,1.9-2.5,2.3c-3.7,1.5-6.3,4.3-8.2,7.8
		c-2.1,3.8-3.5,7.8-4.9,11.9c-1.1,3.2-2.1,6.5-3.2,9.7c-0.3,1-0.8,2-1.2,3c-1.1,2.4-2.9,4.2-5.2,5.6c-2.9,1.7-6,2.8-9.3,3.6
		c-1.4,0.3-2.9,0.6-4.3,0.8c-3.3,0.5-5.8,2.2-7.4,5.2c-2.1,3.8-3.3,7.9-3.8,12.2c-0.3,3.1-0.4,6.3-1.1,9.4c-0.4,1.8-0.8,3.5-1.7,5.1
		c-0.6,1.1-1.5,1.9-2.7,2.4c-1.7,0.6-3.2,0.3-4.4-0.9c-0.7-0.7-1.2-1.5-1.7-2.3c-0.6-1.2-1.2-2.4-1.8-3.6c-0.3-0.6-0.7-1.2-1.2-1.8
		c-1.3-1.4-3.4-1.5-4.6-0.1c-0.5,0.5-0.9,1.1-1.3,1.6c-0.7,1.1-1.4,2.3-2.1,3.5c-1,1.7-1.8,2-3.7,1.4c-2.7-0.8-4.6-2.5-5.6-5.1
		s-1.4-5.3-1.5-8.1c0-0.2,0-0.4,0-0.6c0-2.2-0.2-2.5-2.2-3.3c-1-0.4-1.9-0.8-2.9-1.1c-3-0.9-5.8-0.5-8.3,1.7c-0.5,0.5-1,1-1.6,1.4
		c-1.7,1.2-3.2,1.2-4.7-0.1c-0.8-0.6-1.5-1.4-2.2-2.2c-1.1-1.1-2.1-2.3-3.1-3.4c-0.6-0.6-1.2-1.1-2-1.5c-1.4-0.7-2.9-0.7-4.2,0.1
		c-0.5,0.3-1,0.6-1.4,1c-0.6,0.6-1.2,1.3-1.8,2c-0.8,0.9-1.6,1.8-2.4,2.7c-2.1,2.1-4.8,2.6-7.6,1c-1.5-0.9-2.8-2.1-3.9-3.4
		c-0.7-0.8-1.4-1.5-2.1-2.3c-0.9-0.9-1.9-1.6-3-2.1c-1.7-0.8-3.2-0.6-4.8,0.3c-1.1,0.6-2,1.4-2.7,2.4c-0.9,1.2-1.8,2.4-2.6,3.6
		c-0.7,1.1-1.5,2.1-2.4,3c-0.4,0.4-0.8,0.7-1.2,1c-0.5,0.4-1.1,0.3-1.6,0s-0.9-0.7-1.2-1.2c-1.2-1.5-1.9-3.2-2.8-4.8
		c-0.6-1.2-1.2-2.4-1.9-3.6c-0.8-1.4-1.8-2.6-3.2-3.6c-2.2-1.5-4.4-1.6-6.7-0.2c-2.6,1.6-4.3,4-5.6,6.7c-1,2.3-1.6,4.7-2,7.2
		c-0.6,3.5-1.2,7.1-1.9,10.6c-0.2,1.3-0.7,2.5-1.1,3.7c-0.7,2.1-2.1,3.7-3.8,5c-2,1.7-4.3,0.6-5.3-1c-0.7-1.2-0.8-2.6-0.9-3.9
		c-0.1-1-0.1-1.9-0.1-2.9c-0.1-2.5-0.2-5-0.4-7.5c-0.5-5.2-2.6-9.6-6.6-13.1c-0.3-0.3-0.7-0.6-1.1-0.8c-1.5-1.1-2.3-1-3.8,0.1
		c-0.7,0.6-1.3,1.3-1.7,2.1c-0.7,1.3-1.3,2.6-2,4c-0.6,1.3-1.4,2.4-2.4,3.5c-1.9,1.8-4.7,2-6.7,0.6c-0.9-0.6-1.7-1.4-2.3-2.3
		c-0.9-1.3-1.8-2.7-2.6-4c-0.7-1.2-1.6-2.3-2.6-3.4c-2.5-2.5-6-2.5-8.4-0.7c-2.1,1.5-3.6,3.4-4.8,5.7c-1.3,2.4-2.1,5-2.7,7.6
		c-1,4.1-1.4,8.2-2,12.3c-0.7,5.9-1.5,11.8-3.5,17.5c-0.8,2.3-1.7,4.6-2.9,6.7c-0.5,0.9-1,1.8-1.7,2.5c-1.8,1.9-3.5,2.2-5.6,0.6
		c-0.7-0.5-1.3-1.1-1.8-1.7c-3.1-3.4-4.8-7.5-5.6-12.1c-0.5-2.7-0.7-5.5-0.8-8.2c-0.1-2.8-0.2-5.6-0.5-8.5c-0.4-4-1.2-8-3.2-11.6
		c-2.1-3.8-4.9-6.9-8.5-9.3c-0.2-0.1-0.3-0.2-0.5-0.3c-2.2-1.3-4.1-1.1-6,0.6c-1.7,1.4-3,3.1-4.2,5c-1,1.7-2,3.4-3,5.2
		c-0.6,1-1.3,2.1-1.9,3.1c-0.7,1-1.5,1.9-2.5,2.7c-2,1.5-4.3,1.5-6.1-0.3c-0.6-0.5-1-1.2-1.5-1.8c-0.7-0.9-1.2-1.8-1.9-2.7
		c-0.7-1-1.6-1.8-2.7-2.4c-1-0.5-1.7-0.3-2.1,0.8c-0.4,0.8-0.6,1.7-0.9,2.5c-0.2,0.5-0.2,1-0.4,1.5c-0.9,2.1-3.3,2.7-5.1,1.3
		c-0.9-0.7-1.6-1.7-2.2-2.6c-1-1.6-1.8-3.4-2.6-5.2c-1.4-3.3-2.8-6.6-4.2-9.9c-0.7-1.7-1.7-3.3-2.9-4.8c-1.7-2.2-3-2.3-5.1-0.4
		c-1.7,1.6-3.1,3.4-4.5,5.2c-2.8,3.5-5.2,7.2-7.1,11.2c-1.6,3.4-2.8,6.9-3.5,10.6c-0.2,1.3-0.4,2.5-0.5,3.8
		c-0.2,2.3-0.9,4.4-1.7,6.5c-0.2,0.5-0.5,1-0.9,1.4c-0.9,0.8-1.9,0.8-2.7,0c-0.2-0.2-0.4-0.4-0.5-0.6c-3.2-4.3-5.4-9-6.1-14.3
		c-0.3-2.2-0.5-4.3-0.7-6.5c-0.3-3.1-0.7-6.1-1.9-9c-0.9-2.3-2.6-4-5-4.7c-1.4-0.4-2.9-0.6-4.4-0.3c-2,0.4-4.1,0.7-6.1,0.5
		c-4.1-0.3-7.5-1.9-10.1-5.2c-1-1.3-1.9-2.6-2.5-4.1c-0.8-1.7-1.5-3.5-2.4-5.3c-0.9-2-1.9-4.1-2.9-6.1c-0.9-1.8-2.3-3.1-4.2-3.8
		c-0.3-0.1-0.6-0.2-0.9-0.4c-3.1-1.3-5.4-3.5-7-6.4c-1.5-2.6-2.4-5.4-3-8.3c-0.8-3.2-1.2-6.5-1.6-9.9c-0.3-2.5-0.7-5.1-1-7.6
		c-0.2-1.5-0.4-2.9-0.5-4.4c-0.4-4.3-0.7-8.7-0.9-13.1C51.7,298.8,51.9,293.1,51.7,287.8z M406.3,396.2c0.2-0.5,0.3-0.6,0.3-0.8
		c0.2-1.5,0.4-3.1,0.5-4.6c0.2-3.3,0.7-6.5,1.6-9.7c0.9-3.3,2.2-6.4,4.2-9.3c1.7-2.5,3.9-4.4,6.8-5.5c1.3-0.5,2.7-0.8,4.1-1
		c3.3-0.5,6.4-1.2,9.4-2.6s5.1-3.5,5.9-6.7c0-0.1,0.1-0.2,0.1-0.4c1.4-4.3,2.8-8.7,4.2-13c1.2-3.5,2.7-6.9,4.6-10.1
		c2.2-3.6,5.1-6.6,8.9-8.6c0.2-0.1,0.5-0.2,0.7-0.4c0.6-0.4,1-0.8,1.2-1.5c0.4-1.7,1.1-3.4,1.3-5.2c0.5-4.5,1-8.9,1.4-13.4
		c0.7-7.2,1.4-14.4,1.9-21.7c0.5-7.2,1.1-14.3,1.3-21.5c0.1-3.1,0.3-6.2,0.4-9.2c0.3-6.7,0.6-13.5,0.6-20.2
		c0.1-11.2,0.1-22.5,0.1-33.7c0-8.1-0.2-16.2-0.7-24.3c-0.4-6.5-0.9-12.9-1.7-19.4c-0.1-1.1-0.4-2.3-0.7-3.4c-0.6-2.4-2-4.1-4.4-5
		c-2.1-0.8-4-2.1-5.6-3.6c-7.2-6.6-12-14.6-14-24.3c-0.1-0.4-0.2-0.9-0.3-1.3c-0.4-1.4-1-1.9-2.5-1.8c-0.4,0-0.9,0.1-1.3,0.2
		c-1.9,0.2-3.8,0.5-5.7,0.6c-4.1,0.1-8,1.2-11.5,3.3c-0.7,0.4-1.3,0.8-2,1.2c-2.6,1.4-5.3,2.3-8.2,2.4c-3.5,0.2-6.9,0.2-10.4-0.3
		c-6.1-0.9-11.6-3.2-16.3-7.3c-1-0.8-1.9-1.8-2.8-2.7c-1.6-1.6-3.4-2.4-5.7-2.4c-2.1,0-4.1,0.1-6.2,0.3c-2.4,0.2-4.7,0.6-7.1,0.6
		c-10.1,0-20.2,0.1-30.2-0.2c-9.6-0.3-19.3-0.5-28.9-0.8c-5.1-0.1-10.1-0.3-15.2-0.4c-7.6-0.2-15.1-0.4-22.7-0.6
		c-8.9-0.2-17.8-0.5-26.8-0.6c-9.4-0.2-18.7-0.3-28.1-0.4c-12.3-0.1-24.5-0.2-36.8-0.5c-3.4-0.1-6.8-0.1-10.2,0.3
		c-4,0.5-7.8,1.5-11.4,3.4c-0.7,0.4-1.5,0.8-2.2,1.2c-6.3,3.4-13.1,5.2-20.3,5.1c-5.2-0.1-9.9-1.8-14-5.2c-0.2-0.2-0.5-0.4-0.7-0.6
		c-0.6-0.5-1.3-0.7-2.1-0.5c-4.5,1.2-9.1,1.8-13.6,2.5c-2.8,0.5-5.5,1-8.3,1.8c-2.7,0.7-4.7,2.2-6.1,4.6c-2.1,3.5-3.9,7.1-5.2,10.9
		c-2.2,6.6-5.2,12.8-9.4,18.4c-3.3,4.3-4.7,9.4-4.8,14.8c0,3,0,5.9,0,8.9c0,11.2,0,22.3,0,33.5c0,10.3-0.3,20.7-1.2,31
		c-0.2,1.9-0.3,3.8-0.4,5.8c-0.2,3.9-0.4,7.8-0.5,11.7c-0.1,3-0.2,5.9-0.4,8.8c-0.2,3.5-0.4,6.9-0.5,10.4c0,2,0,4-0.2,6
		c-0.4,3.8-0.4,7.7-0.4,11.5c0,4.7,0.3,9.4,0.5,14c0.2,3.7,0.5,7.4,0.8,11.1c0.3,3.5,0.7,7,1,10.5c0.3,2.9,0.6,5.7,1.1,8.6
		c0.6,3.1,1.6,6.1,3.1,8.9c1.4,2.6,3.4,4.5,6.3,5.3c2.3,0.6,4,2.1,5.1,4.1c1.9,3.5,3.8,7,5.1,10.8c0.7,2.1,1.9,3.9,3.2,5.7
		c1.1,1.5,2.6,2.4,4.5,2.7c1.9,0.3,3.7,0,5.5-0.3c3.3-0.5,6.4-0.2,9.4,1.1c3,1.2,5.2,3.3,6.4,6.3c0.6,1.5,1.1,3,1.5,4.6
		c0.6,2.6,0.8,5.2,1.1,7.8c0.3,1.9,0.6,3.9,0.8,5.9c0.5-0.2,0.6-0.6,0.7-1c0.6-1.8,1.4-3.6,2.2-5.3c0.9-1.9,1.8-3.7,2.6-5.6
		c2.9-6.8,7.8-12,12.9-17.1c1.6-1.6,3.8-2.1,6.1-1.7c3,0.5,5.4,2,7.3,4.3c1,1.2,1.7,2.6,2.4,3.9c0.7,1.5,1.4,3,2.1,4.5
		c1,2,1.9,4.1,2.5,6.2c0.1,0.2,0.1,0.5,0.2,0.7c0.3,0.6,0.8,0.8,1.4,0.5c0.4-0.3,0.8-0.6,1.2-0.9c1.5-1.1,3.2-1.6,5.1-1.3
		c2.3,0.4,4.3,1.2,6,2.9c0.8,0.8,1.6,1.7,2.3,2.6c0.3,0.3,0.6,0.7,0.9,1c0.1,0.1,0.4,0.2,0.5,0c0.3-0.3,0.6-0.7,0.8-1.1
		c1.1-1.7,2.1-3.4,3.2-5.1c1.1-1.7,2.2-3.5,3.5-5.1c1.4-1.7,2.9-3,4.9-4c2.8-1.4,5.7-1.7,8.7-0.5c4.1,1.7,7.6,4.2,10.4,7.7
		c3.3,4.2,5.3,8.9,6.4,14.1c0.8,3.8,1.1,7.7,1.2,11.7c0.1,2.2,0.1,4.4,0.3,6.5c0.3,3.5,1.4,6.8,3.2,9.8c0.2,0.3,0.3,0.7,0.8,0.8
		c0.4-0.3,0.5-0.7,0.6-1.1c1.4-3.3,2.3-6.6,3.1-10.1c0.9-4.4,1.3-8.9,1.9-13.3c0.5-3.2,0.9-6.5,1.7-9.7c1-4.6,3.2-8.7,5.5-12.7
		c0.4-0.7,1-1.3,1.7-1.8c2.4-1.9,5.1-3.3,8-4.1c0.8-0.2,1.6-0.3,2.5-0.2c2.6,0.3,5.2,1,7.4,2.4c1.2,0.8,2.2,1.8,3,3
		c1.1,1.7,2.2,3.4,3.3,5.2c0.5,0.8,1.1,0.8,1.7,0.1c0.4-0.5,0.6-1.1,0.8-1.8c1.2-3.3,3.4-5.7,6.4-7.4c1.7-1,3.6-1.3,5.6-0.7
		c4.2,1.2,7.4,3.6,9.6,7.2c2.2,3.5,4.1,7.3,4.7,11.5c0.3-0.1,0.4-0.3,0.5-0.6c0.3-1.2,0.6-2.4,0.9-3.5c0.3-1.2,0.5-2.5,0.8-3.8
		c1-3.7,2.6-7.1,5.1-10.1c5.9-7,17.2-6.3,22.1,1.3c0.6,0.9,1,1.8,1.6,2.6c0.3,0.5,0.6,1.2,1.1,1.6c0.4-0.2,0.5-0.7,0.8-1.1
		c0.6-1,1.4-1.9,2.3-2.5c2-1.4,4.2-2.5,6.6-3.1c1.6-0.4,3.2-0.4,4.7,0.1c1,0.4,2.1,0.7,3.1,1.1c2.3,0.9,4.1,2.3,5.4,4.5
		c0.6,1.1,1.7,1.8,2.6,2.5c0.5,0.3,1,0.2,1.3-0.3c0.5-0.8,1-1.7,1.7-2.3c1-1,2-2,3.1-2.9c0.4-0.3,0.8-0.6,1.3-0.9
		c3.5-2,9.3-1.7,12.4,1.3c1.3,1.3,2.7,2.4,4,3.6c1.1,1,1.2,1,2.5,0.3c0.1-0.1,0.2-0.1,0.3-0.2c6.3-3,12.2-2,18,1.5
		c1.7,1,2.7,2.6,3.1,4.5c0.2,1,0.3,2,0.3,3.1c0.1,1.2,0.2,2.4,0.3,3.6c0,0.4,0.2,1,0.6,1.2c0.5,0.2,0.7-0.3,1-0.6
		c0.7-0.7,1.5-1.4,2.4-2c1.5-1,3.2-1.6,5-1.7c3.9-0.2,6.9,1.5,9.3,4.5C405.4,395,405.8,395.5,406.3,396.2z"/>
	<path class="st4" d="M406.3,396.2c-0.5-0.7-0.8-1.2-1.2-1.7c-2.4-3-5.4-4.7-9.3-4.5c-1.9,0.1-3.5,0.7-5,1.7c-0.9,0.6-1.6,1.3-2.4,2
		c-0.3,0.3-0.5,0.9-1,0.6c-0.4-0.2-0.5-0.7-0.6-1.2c-0.1-1.2-0.2-2.4-0.3-3.6c-0.1-1-0.1-2-0.3-3.1c-0.5-1.9-1.5-3.5-3.1-4.5
		c-5.7-3.5-11.7-4.5-18-1.5c-0.1,0.1-0.2,0.1-0.3,0.2c-1.4,0.6-1.4,0.6-2.5-0.3c-1.3-1.2-2.7-2.4-4-3.6c-3.1-3-8.9-3.3-12.4-1.3
		c-0.4,0.3-0.9,0.5-1.3,0.9c-1,1-2.1,1.9-3.1,2.9c-0.7,0.7-1.2,1.5-1.7,2.3c-0.3,0.5-0.8,0.7-1.3,0.3c-1-0.7-2-1.4-2.6-2.5
		c-1.3-2.1-3.1-3.5-5.4-4.5c-1-0.4-2-0.8-3.1-1.1c-1.6-0.5-3.2-0.5-4.7-0.1c-2.4,0.6-4.6,1.7-6.6,3.1c-1,0.7-1.7,1.5-2.3,2.5
		c-0.2,0.4-0.3,0.9-0.8,1.1c-0.5-0.4-0.8-1-1.1-1.6c-0.5-0.9-1-1.8-1.6-2.6c-4.9-7.6-16.2-8.2-22.1-1.3c-2.5,2.9-4.1,6.4-5.1,10.1
		c-0.3,1.2-0.5,2.5-0.8,3.8c-0.3,1.2-0.6,2.4-0.9,3.5c-0.1,0.2-0.2,0.5-0.5,0.6c-0.6-4.2-2.5-7.9-4.7-11.5c-2.3-3.6-5.5-6-9.6-7.2
		c-2-0.6-3.8-0.3-5.6,0.7c-3,1.7-5.2,4.1-6.4,7.4c-0.2,0.6-0.4,1.2-0.8,1.8c-0.5,0.7-1.2,0.7-1.7-0.1c-1.1-1.7-2.2-3.5-3.3-5.2
		c-0.8-1.2-1.8-2.2-3-3c-2.3-1.5-4.8-2.1-7.4-2.4c-0.8-0.1-1.7,0-2.5,0.2c-2.9,0.8-5.6,2.2-8,4.1c-0.7,0.5-1.3,1.1-1.7,1.8
		c-2.3,4-4.5,8.1-5.5,12.7c-0.7,3.2-1.2,6.4-1.7,9.7c-0.6,4.4-1,8.9-1.9,13.3c-0.7,3.5-1.7,6.8-3.1,10.1c-0.2,0.4-0.3,0.8-0.6,1.1
		c-0.5-0.1-0.6-0.5-0.8-0.8c-1.8-3-2.9-6.3-3.2-9.8c-0.2-2.2-0.3-4.4-0.3-6.5c-0.1-3.9-0.4-7.8-1.2-11.7c-1.1-5.2-3.2-9.9-6.4-14.1
		c-2.8-3.5-6.2-6.1-10.4-7.7c-3-1.2-5.9-1-8.7,0.5c-1.9,1-3.5,2.4-4.9,4c-1.3,1.6-2.4,3.3-3.5,5.1c-1.1,1.7-2.1,3.4-3.2,5.1
		c-0.2,0.4-0.5,0.7-0.8,1.1c-0.1,0.2-0.4,0.1-0.5,0c-0.3-0.3-0.6-0.7-0.9-1c-0.8-0.9-1.5-1.8-2.3-2.6c-1.7-1.6-3.7-2.5-6-2.9
		c-1.9-0.3-3.6,0.2-5.1,1.3c-0.4,0.3-0.8,0.6-1.2,0.9c-0.6,0.4-1.2,0.2-1.4-0.5c-0.1-0.2-0.2-0.5-0.2-0.7c-0.6-2.2-1.5-4.2-2.5-6.2
		c-0.7-1.5-1.4-3-2.1-4.5c-0.7-1.4-1.4-2.7-2.4-3.9c-1.9-2.4-4.3-3.8-7.3-4.3c-2.3-0.4-4.4,0.1-6.1,1.7c-5.1,5.1-10,10.4-12.9,17.1
		c-0.8,1.9-1.8,3.7-2.6,5.6c-0.8,1.7-1.6,3.5-2.2,5.3c-0.1,0.4-0.2,0.7-0.7,1c-0.3-2-0.6-3.9-0.8-5.9c-0.4-2.6-0.5-5.2-1.1-7.8
		c-0.4-1.6-0.9-3.1-1.5-4.6c-1.2-3-3.4-5.1-6.4-6.3c-3-1.3-6.2-1.6-9.4-1.1c-1.8,0.3-3.7,0.6-5.5,0.3c-1.9-0.3-3.4-1.2-4.5-2.7
		c-1.3-1.8-2.4-3.6-3.2-5.7c-1.3-3.8-3.2-7.3-5.1-10.8c-1.1-2.1-2.8-3.5-5.1-4.1c-2.9-0.8-4.9-2.7-6.3-5.3c-1.5-2.8-2.5-5.8-3.1-8.9
		c-0.6-2.8-0.8-5.7-1.1-8.6c-0.4-3.5-0.7-7-1-10.5c-0.3-3.7-0.6-7.4-0.8-11.1c-0.3-4.7-0.5-9.4-0.5-14c0-3.9,0-7.7,0.4-11.5
		c0.2-2,0.2-4,0.2-6c0.1-3.5,0.3-6.9,0.5-10.4c0.2-2.9,0.3-5.9,0.4-8.8c0.2-3.9,0.3-7.8,0.5-11.7c0.1-1.9,0.3-3.8,0.4-5.8
		c0.9-10.3,1.2-20.6,1.2-31c0-11.2,0-22.3,0-33.5c0-3,0-5.9,0-8.9c0.1-5.4,1.4-10.4,4.8-14.8c4.3-5.6,7.2-11.8,9.4-18.4
		c1.3-3.9,3.1-7.5,5.2-10.9c1.4-2.4,3.5-3.9,6.1-4.6c2.7-0.7,5.5-1.3,8.3-1.8c4.6-0.8,9.1-1.3,13.6-2.5c0.8-0.2,1.5-0.1,2.1,0.5
		c0.2,0.2,0.5,0.4,0.7,0.6c4,3.4,8.7,5.1,14,5.2c7.2,0.1,14-1.6,20.3-5.1c0.7-0.4,1.5-0.8,2.2-1.2c3.6-1.9,7.4-2.9,11.4-3.4
		c3.4-0.4,6.8-0.4,10.2-0.3c12.3,0.3,24.5,0.4,36.8,0.5c9.4,0.1,18.7,0.2,28.1,0.4c8.9,0.2,17.8,0.4,26.8,0.6
		c7.6,0.2,15.1,0.4,22.7,0.6c5.1,0.1,10.1,0.3,15.2,0.4c9.6,0.3,19.3,0.5,28.9,0.8c10.1,0.3,20.2,0.3,30.2,0.2
		c2.4,0,4.7-0.3,7.1-0.6c2.1-0.2,4.1-0.3,6.2-0.3c2.2,0,4.1,0.9,5.7,2.4c0.9,0.9,1.8,1.8,2.8,2.7c4.7,4.1,10.2,6.4,16.3,7.3
		c3.5,0.5,6.9,0.5,10.4,0.3c2.9-0.1,5.7-1,8.2-2.4c0.7-0.4,1.3-0.8,2-1.2c3.6-2.1,7.4-3.2,11.5-3.3c1.9,0,3.8-0.3,5.7-0.6
		c0.4-0.1,0.9-0.2,1.3-0.2c1.5-0.1,2.1,0.3,2.5,1.8c0.1,0.4,0.2,0.9,0.3,1.3c2,9.6,6.7,17.7,14,24.3c1.7,1.5,3.5,2.8,5.6,3.6
		c2.3,0.9,3.8,2.6,4.4,5c0.3,1.1,0.5,2.3,0.7,3.4c0.8,6.4,1.4,12.9,1.7,19.4c0.4,8.1,0.7,16.2,0.7,24.3c0,11.2,0,22.5-0.1,33.7
		c0,6.7-0.3,13.5-0.6,20.2c-0.2,3.1-0.3,6.2-0.4,9.2c-0.3,7.2-0.8,14.4-1.3,21.5c-0.6,7.2-1.2,14.5-1.9,21.7
		c-0.4,4.5-0.9,8.9-1.4,13.4c-0.2,1.8-0.8,3.5-1.3,5.2c-0.2,0.6-0.6,1.1-1.2,1.5c-0.2,0.1-0.4,0.3-0.7,0.4c-3.8,2-6.7,4.9-8.9,8.6
		c-1.9,3.2-3.4,6.6-4.6,10.1c-1.5,4.3-2.8,8.7-4.2,13c0,0.1-0.1,0.2-0.1,0.4c-0.8,3.2-2.9,5.3-5.9,6.7c-3,1.4-6.2,2.1-9.4,2.6
		c-1.4,0.2-2.8,0.5-4.1,1c-2.9,1.1-5,3-6.8,5.5c-1.9,2.8-3.3,6-4.2,9.3c-0.9,3.2-1.3,6.4-1.6,9.7c-0.1,1.5-0.3,3.1-0.5,4.6
		C406.6,395.6,406.5,395.8,406.3,396.2z M186.1,250.8c0,2.4,0.4,5.2,1.2,8.2c1.2,4.4,3.1,8.6,4.7,12.8c1.2,3.1,6.4,3.6,8.2,1.6
		c1.6-1.8,3.2-3.7,4.1-6c0.8-2,1.7-3.9,2.7-5.8c2.4-4.7,4.9-9.3,7.3-14c2.4-4.6,4.6-9.3,6.3-14.2c1.4-4,3.2-7.8,5.4-11.5
		c0.3-0.5,0.6-1.1,1.1-1.5c0.4-0.4,1-0.4,1.4,0.1c0.4,0.4,0.7,0.9,1,1.4c0.9,1.6,1.8,3.3,2.7,4.9c1.4,2.4,3.2,4.5,5.3,6.3
		c2.3,1.9,5,3.2,7.9,3.7c6.6,1.1,13,0.7,19.5-1c5.8-1.6,11.2-4.1,16.4-7.1c3.5-2.1,7-4.3,10.5-6.5c2.7-1.7,5.3-3.6,7.6-5.9
		c1.3-1.3,2.7-1.2,4.3-0.9c0.3,0.1,0.6,0.3,0.6,0.7c0,1.5,0.3,2.9-0.6,4.3c-0.4,0.6-0.7,1.4-0.9,2.1c-0.9,3.2-1.7,6.4-2.5,9.7
		c-1.1,4.2-1.9,8.5-2.1,12.9c-0.1,2.2-0.2,4.4-0.3,6.5c-0.1,2.3-0.1,4.6,0.3,6.9c0.4,2.4,0.9,4.8,2.4,6.8c2.7,3.8,7,5.2,11.4,3.6
		c3.1-1.1,5.3-3.2,6.6-6.1c1.2-2.8,2.4-5.5,3.5-8.3c1.3-3.4,2.4-6.9,3-10.5c0.9-5.4,1.9-10.9,2.8-16.3c0.7-4.1,1.4-8.2,1.3-12.4
		c0-0.8,0-1.5,0-2.3c0.1-2.2,0.1-4.5,0.8-6.7c0.6-2.1,0.8-4.3,0.9-6.5c0-1.7,0.3-3.4,0.8-5.1c0.9-2.9,1.3-5.9,1.2-8.9
		c0-0.6,0.1-1.3,0.2-1.9c0.4-1.6,0.1-3.1-0.5-4.5c-0.4-1.2-1.1-2.2-1.9-3.1c-1.5-1.9-3.2-3.5-5.1-4.9c-2.2-1.7-4.4-3.3-6.6-5
		c-0.4-0.3-0.9-0.6-1.3-0.8c-2-1-3.9-0.7-5.5,0.9c-0.6,0.6-1.1,1.3-1.5,2c-2,3.1-4.3,6.1-6.9,8.8c-4.1,4.4-8.5,8.4-13.1,12.2
		c-1.9,1.6-4,3.1-6.1,4.3c-1.8,1.1-3.6,2.1-5.2,3.3c-3.4,2.4-7,4.3-10.7,6.1c-1.2,0.6-2.5,1-3.9,1.1c-1.4,0.2-2.8,0.1-4.2-0.1
		c-2.4-0.3-4-1.6-4.6-4c-0.2-0.9-0.4-1.9-0.4-2.9c0.1-3.6,0-7.2,1-10.7c0.5-2,0.3-3.9-0.6-5.8c-2-4.3-4.6-8.3-7.5-12.1
		c-1-1.4-2.4-1.9-4.1-1.6c-0.2,0-0.4,0.1-0.6,0.1c-1.5,0.3-2.6-0.3-3.4-1.6c-0.3-0.5-0.6-1-0.7-1.6c-0.7-2.3-2.3-3.5-4.4-4.2
		c-1.2-0.4-2.4-0.3-3.4,0.6c-1.7,1.5-3.5,2.9-5.1,4.4c-3,2.8-5.6,6-7.2,9.9c-0.4,1-1,1.8-1.6,2.6c-3.1,3.9-5.7,8.1-7.8,12.6
		c-4.5,9.2-8.9,18.5-13,27.9c-3.2,7.4-6.1,14.8-8.8,22.4C186.9,243.7,186.1,247.2,186.1,250.8z M182.3,159.2L182.3,159.2
		c-0.8,0-1.7-0.1-2.5,0c-3.7,0.3-7.4,0.5-11.1,0.9c-2.9,0.3-5.9,0.7-8.7,1.4c-3.7,0.8-7.3,2.1-10.8,3.4c-4,1.5-7.9,3-12.1,3.9
		c-2.3,0.5-4.5,1.2-6.6,1.9c-5.1,1.9-10.3,3.7-15.5,5.3c-1.8,0.6-3.7,1.2-5.5,1.7c-1.5,0.5-2.6,1.4-3.2,2.8c-0.4,0.9-0.8,1.8-1,2.7
		c-0.6,2-0.6,4.1,0.3,6c0.8,1.8,1.7,3.6,2.6,5.4c1.6,3.1,3.9,5.4,7.5,6.2c1.1,0.3,1.4,0.8,1.4,2c0,0.4-0.1,0.8-0.2,1.1
		c-0.3,1.8-0.9,3.6-1.6,5.3c-0.8,2.1-1.6,4.2-2.4,6.3c-0.2,0.5-0.4,1-0.6,1.4c-0.6,0.9-1.3,1.2-2.3,0.8c-0.5-0.2-1.1-0.5-1.5-0.8
		c-0.5-0.3-1.1-0.7-1.6-1.1c-1.1-0.9-2.4-1.1-3.8-0.8c-0.6,0.1-1.1,0.3-1.7,0.5c-2.3,0.9-4.3,2.2-6.1,4c-1,1-1.7,2.2-2.2,3.6
		c-0.7,2.4-0.9,4.8-0.4,7.2c0.8,4,2.6,7.3,5.9,9.8c0.4,0.3,0.7,0.5,1.1,0.8c1.4,1.1,1.9,2.6,1.4,4.3c-0.8,2.7-0.9,5.6-1,8.4
		c0,1.5-0.1,3.1-0.3,4.6c-0.2,1.1-0.2,2.3-0.2,3.5c0.4,7.8,7.2,12.2,13.2,12.3c2,0,3.5-0.8,4.4-2.6c0.9-1.7,1.5-3.5,1.5-5.5
		c0.1-4.4,0.6-8.7,1.8-12.9c0.6-2.2,1.3-4.3,2.4-6.3c1.6-2.9,4-4.8,7.2-5.6c3.1-0.7,6.1-1.4,9.2-1.9c6-1,12-2.1,18-3.4
		c4-0.9,8.1-1.6,12.2-2c1.9-0.2,3.4-1,4.5-2.5s2.3-2.9,3.4-4.4c0.3-0.4,0.7-0.8,1-1.2c0.6-0.9,0.8-1.9,0.4-2.9c-0.4-1.1-1-2.1-2-2.8
		c-0.6-0.5-1.2-0.9-1.8-1.4c-0.9-0.7-1.6-1.6-1.7-2.7c-0.1-0.9-0.6-1.3-1.4-1.7c-1.7-0.8-3.4-1.1-5.2-1.2c-3.3-0.2-6.6,0-9.8,0.5
		c-5.3,0.7-10.7,1.5-16,2.5c-0.9,0.2-1.8,0.3-2.7,0.4c-0.3,0-0.7-0.1-0.8-0.4c-0.5-1.6-0.9-3.2,0-4.7c1.1-1.7,1.5-3.7,1.7-5.7
		c0.2-1.5,0.6-2.9,1.5-4.1c0.9-1.3,1.4-2.9,1.7-4.5c0.2-1.2,0.4-2.4,0.3-3.6c0-1.5,0.7-2.6,2.1-3.2c0.9-0.4,1.9-0.9,2.8-1.3
		c3.9-1.6,7.9-2.6,11.9-3.7c5.1-1.3,10.3-2.1,15.6-2.4c2.4-0.1,4.9-0.4,7.3-0.7c2.3-0.3,4.6-0.5,6.9-0.3c3.5,0.3,6.9,0.1,10.3-1
		c0.9-0.3,1.8-0.6,2.7-1.1c3.1-1.9,4.2-6.3,1.2-9c-0.2-0.2-0.4-0.4-0.5-0.5c-3-3-6.1-5.8-9.4-8.6c-2-1.7-4.3-2.6-6.8-2.7
		C185.3,159.2,183.8,159.2,182.3,159.2z M431,160v-0.1c-1.3,0.1-2.6,0.1-3.8,0.2c-4.1,0.4-8.2,0.9-12.2,1.4
		c-4.3,0.5-8.5,1.2-12.7,2.2c-3.9,1-7.9,1.8-11.9,2.5c-3.8,0.6-7.5,1.6-11,3.3c-1,0.5-2.1,0.9-3.2,1.3c-6.1,2.3-12.5,3.9-18.9,5.3
		c-1.7,0.4-3.5,0.8-5.2,1.2c-2.2,0.6-3.2,1.8-3.4,4.1c0,0.1,0,0.3,0,0.4c0,4.8,0.9,9.3,3.2,13.5c1.3,2.4,3.1,4.2,5.6,5.3
		c2.4,1.1,2.6,1.7,2,4.2c-0.9,3.9-2.6,7.5-3.7,11.3c-0.4,1.4-1.8,1.8-2.9,0.9c-0.2-0.2-0.4-0.3-0.6-0.4c-1.3-0.9-2.8-1.3-4.4-1.2
		c-2.1,0.1-4,0.6-5.9,1.5c-1.3,0.6-2.2,1.6-2.7,2.9c-0.2,0.7-0.5,1.3-0.6,2c-0.8,3.6-0.9,7.4-1.3,11.1c-0.1,0.7,0.2,1.4,0.5,2
		c1.3,2.7,3,5.1,5.6,6.7c0.9,0.6,1.3,1.3,1.1,2.4c-0.6,3.7-1,7.5-1.8,11.2c-0.4,2-0.4,4,0,5.9c1.2,6.2,7.1,12.1,15.5,11.2
		c1.5-0.1,2.5-0.8,3-2.2c0.9-2.5,1.5-5,1.6-7.7c0.1-1.9,0.2-3.8,0.5-5.8c0.5-3.4,1.5-6.6,3.1-9.7c1.7-3.1,4.2-5.1,7.9-5.5
		c2-0.2,4-0.7,6.1-1c3.6-0.6,7.2-1.2,10.8-1.7c2.7-0.4,5.3-0.7,8-1.4c3.3-0.8,6.6-1.6,10-1.8c5.3-0.3,9.2-2.9,11.6-7.7
		c0.5-1,0.7-1.9,0.5-3c-0.9-4.7-3.4-8.2-7.5-10.7c-1.6-1-3.3-1.3-5.2-1.1c-0.8,0.1-1.5,0.2-2.3,0.2c-4.6,0-9.2,0.7-13.8,1.4
		c-2.8,0.5-5.6,0.8-8.4,1.2c-0.5,0.1-1,0.1-1.5,0c-1.2-0.2-1.6-0.8-1.6-2s0.4-2.4,1.1-3.4c0.7-1.1,1-2.2,1-3.4
		c0-1.9,0.6-3.7,1.6-5.3c0.9-1.4,1.4-2.9,1.7-4.5c0.2-1.1,0.3-2.2,0.4-3.2c0-1.7,0.8-2.9,2.4-3.6c0.8-0.3,1.5-0.7,2.3-1
		c1.6-0.7,3.3-1.1,5-1.5c7.8-1.9,15.6-3.7,23.6-4.9c4.5-0.7,9-1.3,13.6-1.6c3.9-0.3,7.8-0.6,11.7-0.8c1.9-0.1,3-1,3.5-2.7
		c0.9-3.1,0.5-5.9-2-8.1c-0.8-0.7-1.6-1.5-2.4-2.2c-2.4-2.1-4.8-4.1-7-6.4c-0.8-0.9-1.9-1.3-3.1-1.4C433.2,160,432.1,160,431,160z
		 M278.7,317.7c0.1-0.8,0.1-1.2,0.2-1.5c0.3-1.6,1.1-3,1.9-4.4c0.5-0.9,1.1-1.9,1.4-2.9c0.4-1,0.2-2-0.4-2.9
		c-1.5-1.9-3.4-2.9-5.8-2.9c-0.8,0-1.5,0.3-2,1c-0.3,0.5-0.6,1-0.9,1.5c-0.5,0.9-0.9,1.9-1.3,2.8c-3,6.9-5.1,14.1-7.2,21.3
		c-0.1,0.5-0.3,1-0.3,1.5c-0.3,2.3-0.3,4.5,0.9,6.6c0.8,1.3,1.8,2.5,2.9,3.6c1,1,1.8,1,2.8-0.1c0.3-0.3,0.5-0.6,0.8-0.9
		c0.8-1.1,1.7-2.3,2.5-3.4c1.1-1.5,2.2-3,3.4-4.5c0.4-0.5,0.8-1,1.3-1.4c1-0.8,1.6-0.9,2.6-0.1c0.7,0.6,1.3,1.2,2,1.9
		c3,3,6.6,4.9,10.7,5.8c2.4,0.5,4.7,0.6,7-0.2c1.3-0.5,2.6-1.2,3.6-2.2c0.6-0.6,1-1.3,1-2.2c-0.1-1.4-1.1-2.6-2.4-2.9
		c-0.9-0.2-1.8-0.3-2.7-0.3c-1.7-0.1-3.5-0.2-5.2-0.4c-1.5-0.2-3-0.5-4.5-1.2c-1.7-0.8-3-1.9-4-3.5c-0.6-1-0.5-1.4,0.4-2.2
		c1.2-1,2.4-1.9,3.6-2.9c2-1.7,4.1-3.2,6.5-4.5c1.5-0.8,2.8-1.7,4.1-2.8c0.6-0.5,1.2-1,1.6-1.7c0.8-1.2,0.8-2.4-0.2-3.5
		c-0.7-0.8-1.5-1.4-2.4-1.9c-1.3-0.8-2.7-0.9-4.1-0.3c-1.1,0.5-2.2,1.1-3.1,1.9c-1.1,0.8-2.1,1.7-3.1,2.6c-1,0.8-2,1.5-3.1,1.9
		c-2.4,1-4.5,2.4-6.5,4C280,316.7,279.5,317.1,278.7,317.7z M137.9,332.5c0,0.2,0,0.4,0,0.6c-0.1,2.8,1.1,5.2,2.6,7.5
		c0.4,0.6,0.9,1,1.7,1c2,0,3.4-1.1,3.9-3.1c0.1-0.3,0.1-0.6,0.2-0.9c0.6-2.4,1.5-4.6,3.1-6.6c0.2-0.3,0.5-0.6,0.8-0.8
		c0.3-0.2,0.7-0.1,0.8,0.2c0.1,0.1,0.1,0.2,0.2,0.3c0.8,2.6,2.6,4.7,4.4,6.7c0.6,0.7,1.4,1.3,2.3,1.8c2.7,1.5,5.7,1,7.7-1.2
		c1.1-1.2,2.1-2.4,3.1-3.7c1.5-2.1,2.6-4.4,3.1-7c0.3-1.6,0.5-3.2,0.7-4.8c0.4-3.1,1-6.2,2.2-9.1c0.3-0.6,0.5-1.3,0.6-2
		c0.7-3.2-1.3-6.6-4.4-7.6c-0.9-0.3-1.6-0.1-2.2,0.7c-0.4,0.6-0.8,1.2-1.1,1.8c-1,2.1-1.6,4.3-2,6.6c-0.6,3-1.2,6-2.2,8.9
		c-0.5,1.5-1.2,2.8-2.1,4.1c-0.8,1.1-1.8,2-3,2.7c-0.5,0.2-0.9,0-1-0.5c-0.1-0.3-0.1-0.6-0.1-1c-0.1-1.5-0.2-3.1-0.3-4.6
		c-0.1-3.1,0-6.2,0.6-9.2c0.3-1.2,0.6-2.4,0.9-3.5c0.2-0.7,0.1-1.4-0.3-2c-1.3-1.8-2.8-3.3-5-4c-2.3-0.7-3-0.4-4,1.7
		c-3.2,6.8-6.4,13.6-9.7,20.3C138.4,327.9,137.9,330.1,137.9,332.5z M192.1,342.1L192.1,342.1c0.8,0,1.5,0,2.3,0
		c2.9-0.1,5.9-0.5,8.8-0.6c3-0.1,5.6-1.3,7.6-3.6c0.4-0.4,0.7-0.9,1-1.4c0.3-0.7,0.3-1.5-0.2-2c-0.9-0.9-1.9-1.8-3-2.4
		c-0.6-0.3-1.2-0.4-1.9-0.3c-1.9,0.4-3.8,0.5-5.7,0.7c-3.5,0.3-7,0.6-10.6,0.9c-0.2,0-0.4,0-0.6,0c-0.6-0.1-0.9-0.5-0.7-1.1
		c0.4-1.4,1-2.7,1.7-3.8c0.7-1.1,1.7-1.7,3-1.9c2.2-0.3,4.5-0.5,6.7-0.2c0.9,0.1,1.8,0,2.7-0.2c2.2-0.6,4-2,5.7-3.4
		c0.4-0.3,0.4-0.8,0-1.2c-0.8-0.8-1.6-1.5-2.4-2.2c-1.2-1.1-2.7-1.7-4.3-2c-1.7-0.3-3.4-0.5-5.2-0.1c-0.4,0.1-0.9,0.1-1.3,0.2
		c-0.8,0.1-1.1-0.1-1.4-1c-0.2-0.7-0.1-1.1,0.5-1.5c0.8-0.5,1.6-0.7,2.6-0.8c3.2-0.2,6.3-1.1,9.4-2c1.3-0.4,2.6-0.8,3.9-1
		c2.4-0.4,3.6-2.1,4.7-3.9c0.4-0.6,0.2-1.4-0.5-1.9c-0.5-0.4-1-0.8-1.5-1.2c-0.9-0.8-2-1.1-3.2-1.1c-3.5,0.1-6.9,0.3-10.3,0.9
		c-4.7,0.9-9.2,2.2-13.8,3.6c-0.4,0.1-0.9,0.3-1.3,0.5c-0.7,0.3-1.1,0.9-1.1,1.7c0.1,2.5,0.2,4.9,1.6,7c0.5,0.8,0.5,1.5,0.2,2.4
		c-0.9,2.5-1.8,5-3.4,7.3c-2,3-2.3,6.5-1.5,10c0.9,3.6,3.5,5.7,7.2,5.7C189.4,342.1,190.8,342.1,192.1,342.1z M350.4,335.4
		c0,0.4,0,0.8,0,1.2c0.1,0.8,0.3,1.6,0.4,2.5c0.3,1.7,1,2.3,2.6,2.6c0.4,0.1,0.8,0.1,1.2,0.1c1.1,0,2-0.5,2.6-1.4
		c0.4-0.7,0.7-1.4,0.9-2.1c0.2-0.6,0.3-1.2,0.6-1.8c0.2-0.6,0.7-0.7,1.2-0.3c0.1,0,0.1,0.1,0.2,0.1c1.6,1.3,3.5,2.1,5.4,3
		c3.9,1.8,8,3.1,12.1,4.5c1.4,0.5,2.8,0.5,4.2,0.4c0.9,0,1.6-0.5,2-1.3c0.6-1.1,0.9-2.3,0.8-3.5s-0.6-2.1-1.6-2.7
		c-0.8-0.6-1.8-1-2.8-1.2c-1.3-0.3-2.6-0.6-4-0.8c-3.4-0.5-6.6-1.6-9.4-3.7c-0.8-0.6-0.7-1.4,0.1-1.8c0.5-0.3,1-0.3,1.5-0.3
		c2.4-0.1,4.5-0.9,6.5-2.1c1.8-1.1,3.4-2.5,5-3.9c0.9-0.9,1.4-2,1.5-3.2c0-0.7,0-1.4-0.1-2.1c-0.6-3.2-1.8-6.1-3.8-8.7
		c-1.3-1.7-2.8-3.2-4.5-4.5c-2-1.5-3.8-1.5-5.9-0.1c-0.4,0.3-0.8,0.6-1.2,0.9c-0.5,0.4-0.9,0.9-1.4,1.4c-1.6,1.7-3,3.5-4.4,5.3
		c-1.2,1.7-2.7,3.1-4.8,3.6c-1,0.2-1.2,1-1.4,1.9c-0.8,4.2-1.7,8.4-2.5,12.6C350.9,331.4,350.5,333.3,350.4,335.4z M321.5,342.1
		c1.4,0.1,2.8,0.2,4.1,0.1c2.6-0.2,5.2-0.6,7.9-0.6c3.3-0.1,5.8-1.9,7.7-4.5c0.4-0.6,0.5-1.2,0.1-1.8c-0.4-0.5-0.7-1.1-1-1.6
		c-0.8-1.3-1.9-1.8-3.5-1.4c-2.3,0.5-4.6,0.5-6.9,0.5c-2.5,0-5,0-7.5,0.3c-0.6,0.1-1.3,0.2-1.9,0.3c-0.7,0.1-1.1-0.4-1-1
		c0.4-3.1,2.4-5.3,5.4-5.7c1.7-0.2,3.5-0.4,5.2-0.2c3.6,0.4,6.4-1.3,9.1-3.4c0.7-0.5,0.6-1,0.1-1.6s-1.1-1.1-1.7-1.6
		c-1.2-1.1-2.6-1.9-4.2-2.2c-1.9-0.4-3.8-0.7-5.7-0.4c-0.5,0.1-1,0.1-1.5,0.2c-0.8,0-1-0.1-1.2-0.9c-0.2-0.7-0.1-1.1,0.5-1.5
		c0.7-0.5,1.5-0.8,2.4-0.7c1.2,0.1,2.4-0.2,3.6-0.4c1.1-0.3,2.2-0.6,3.3-0.9c2-0.6,3.9-1.2,6-1.4c2.6-0.3,3.9-2.2,5.1-4.3
		c0.3-0.5,0.2-1-0.3-1.4c-0.6-0.5-1.3-1.1-1.9-1.6c-0.8-0.7-1.7-0.9-2.7-0.8c-2.3,0.1-4.6,0.3-6.9,0.7c-5.8,1-11.3,2.7-17,4.3
		c-0.2,0.1-0.5,0.2-0.7,0.3c-1.4,0.6-2,1.7-1.7,3.3c0.4,1.6,0.7,3.1,1.3,4.6c0.7,1.8,0.6,3.5-0.3,5.2c-0.5,0.8-1,1.7-1.5,2.5
		c-1.1,1.9-2.2,3.8-2.7,5.9c-0.6,2.6-0.5,5.1,0.2,7.6c0.6,2.2,2.1,3.5,4.3,4c0.9,0.2,1.8,0.4,2.7,0.4
		C319.5,342,320.5,342,321.5,342.1z M238.8,332.8v-0.1c0.4,0,0.9,0,1.3,0c1.1,0,2.2-0.1,3.3-0.2c0.9,0,1.5,0.8,1.3,1.7
		c-0.1,0.6-0.4,1.1-0.8,1.5c-0.3,0.3-0.6,0.7-0.9,1c-0.4,0.5-0.6,1.1-0.6,1.8c0,1.7,1.1,3.1,2.8,3.4c1.5,0.3,2.8-0.1,4.1-0.8
		c3.2-1.9,4.7-5.4,3.9-9c0-0.1,0-0.1-0.1-0.2c-0.4-1.5,0.1-2.8,1.3-3.7c0.4-0.3,0.7-0.5,1.1-0.8c0.3-0.3,0.7-0.6,1-0.9
		c0.6-0.7,0.4-1.7-0.4-1.8c-1.4-0.2-2.6-1.1-3.9-1.6c-1.2-0.5-1.9-1.4-2.2-2.7c-0.7-3.9-1.4-7.7-2.1-11.5c-0.2-0.9-0.2-1.9-0.4-2.9
		c-0.1-0.9-0.5-1.6-1.5-1.8c-1.4-0.3-2.8-0.6-4.2-0.6c-1.3,0-2.4,0.4-3.3,1.4c-0.7,0.7-1.3,1.4-1.9,2.2c-0.9,1-1.9,1.7-3.2,2
		c-2,0.4-3.2,1.7-4.1,3.4c-4,7.4-7.1,15.2-10.7,22.8c-0.1,0.1-0.1,0.2-0.2,0.4c-0.4,1.1-0.4,2.1,0.1,3.2c0.3,0.6,0.6,1.1,0.9,1.7
		c0.7,1.2,1.7,1.7,3.1,1.4c0.5-0.1,1-0.2,1.5-0.4c1.9-0.6,3-1.8,3.2-3.9c0.1-1.3,0.6-2.6,1.2-3.8c0.6-1.1,1.3-2.2,1.9-3.3
		c0.2-0.4,0.4-1,0.8-0.9c0.6,0.1,0.5,0.8,0.6,1.3c0,0.3,0.1,0.5,0.2,0.7c0.2,0.7,0.7,1.1,1.4,1.1c0.6,0.1,1.3,0.1,1.9,0.1
		C236.5,332.8,237.7,332.8,238.8,332.8z M420,311L420,311c1.6,0,3.2,0.1,4.8,0c2.1-0.1,2.5-0.9,1.5-2.8c0-0.1-0.1-0.1-0.1-0.2
		c-0.8-1.4-1.7-2.9-2.5-4.3c-0.6-1-1.4-1.5-2.5-1.4c-1.9,0-3.9,0-5.8,0c-1.6,0.1-3.2,0.2-4.7,0.7c-3.8,1.2-7.6,2.3-11.3,3.8
		c-2,0.8-4,1.7-5.9,2.8c-0.9,0.5-1.7,1.2-2.1,2.2c-0.9,1.7-1.2,3.5-0.8,5.4c0.1,0.8,0.5,1.5,1.1,2c2.5,1.9,5.2,3.3,8.5,3.1
		c2.4-0.2,4.7,0.3,7,0.9c0.6,0.2,1.2,0.4,1.8,0.7c1.1,0.6,1.6,1.8,1.4,3.1c-0.2,0.9-0.8,1.6-1.6,2.1c-2.5,1.4-4.8,2.9-7.4,4.1
		c-1.7,0.8-3.5,1.2-5.4,1.2c-0.6,0-1.3,0.1-1.9,0.2c-1,0.2-1.5,0.8-1.6,1.9c0,0.6,0,1.3,0.1,1.9c0.4,2.7,1.9,4,4.7,4.2
		c1.8,0.1,3.6-0.1,5.3-0.8c3.8-1.4,7.3-3.5,10.3-6.3c1.6-1.4,2.7-3.2,3.5-5.2s0.7-3.9-0.5-5.7c-0.7-1.1-1.4-2.2-2.1-3.2
		c-1.2-1.6-2.5-3.1-4.2-4.2c-1.3-0.8-2.2-2.1-3.7-2.7c-0.1,0-0.1-0.1-0.1-0.1c-0.2-0.2-0.4-0.5-0.3-0.9c0.1-0.2,0.3-0.4,0.5-0.5
		c2.2-0.6,4.5-1.2,6.7-1.7c1.8-0.5,3.7-0.6,5.5-0.4C418.8,311,419.4,311,420,311z M132.5,302.5c-0.7,0.1-1.4,0.1-2.1,0.2
		c-4.6,0.7-9.2,1.6-13.9,2.2c-4.1,0.6-7.9,2.3-11.3,4.6c-1.3,0.9-2.3,2-2.8,3.6c-0.4,1.6-0.4,3.2,0.1,4.7c0.3,1.2,1.1,2,2.2,2.5
		c1.2,0.5,2.4,1,3.6,1.2c2.2,0.4,4.4,0.7,6.7,1c1.7,0.2,3.4,0.7,4.9,1.5c2.2,1.2,2.4,2.2,0.6,4c-1.6,1.6-3.5,2.8-5.6,3.7
		c-1.9,0.9-4,1.5-6,2c-0.9,0.2-1.7,0.4-2.6,0.7c-1.5,0.6-2,1.3-2,2.9c0,1,0.2,2,0.3,3.1c0,0.2,0.1,0.4,0.1,0.6
		c0.3,0.9,0.8,1.2,1.7,1.2c0.2,0,0.4,0,0.6-0.1c1.3-0.4,2.7-0.4,4-0.5c6.8-0.5,11.8-4,15.7-9.3c2.2-3.1,2-6.4-0.4-9.4
		c-0.8-1-1.6-2-2.3-3.1c-1.7-2.3-3.6-4.2-6.4-5c-0.4-0.1-0.7-0.3-0.9-0.7c-0.3-0.5-0.2-1.1,0.4-1.2c2.2-0.6,4.4-1.3,6.8-1.3
		c2.4-0.1,4.7-0.2,7.1-0.3c1.7-0.1,3.5-0.2,5.2-0.4c2.3-0.2,2.7-1.1,1.6-3.2c-0.6-1.1-1.4-2.2-1.9-3.3
		C135.2,303.1,134.1,302.4,132.5,302.5z"/>
	<path class="st2" d="M186.1,250.8c0-3.6,0.8-7.1,2-10.5c2.7-7.6,5.6-15,8.8-22.4c4.1-9.4,8.6-18.7,13-27.9
		c2.2-4.5,4.7-8.7,7.8-12.6c0.6-0.8,1.2-1.7,1.6-2.6c1.6-3.9,4.1-7.1,7.2-9.9c1.6-1.5,3.4-2.9,5.1-4.4c1-0.9,2.2-1.1,3.4-0.6
		c2.1,0.7,3.8,1.9,4.4,4.2c0.2,0.5,0.4,1.1,0.7,1.6c0.8,1.3,1.9,1.8,3.4,1.6c0.2,0,0.4-0.1,0.6-0.1c1.7-0.3,3,0.2,4.1,1.6
		c2.9,3.8,5.5,7.7,7.5,12.1c0.9,1.9,1.1,3.8,0.6,5.8c-1,3.5-0.9,7.1-1,10.7c0,0.9,0.2,1.9,0.4,2.9c0.6,2.3,2.2,3.7,4.6,4
		c1.4,0.1,2.8,0.3,4.2,0.1c1.4-0.2,2.6-0.5,3.9-1.1c3.7-1.8,7.3-3.7,10.7-6.1c1.7-1.2,3.5-2.2,5.2-3.3c2.2-1.3,4.2-2.7,6.1-4.3
		c4.6-3.8,9.1-7.8,13.1-12.2c2.5-2.7,4.8-5.7,6.9-8.8c0.5-0.7,0.9-1.4,1.5-2c1.6-1.6,3.4-1.9,5.5-0.9c0.5,0.2,0.9,0.5,1.3,0.8
		c2.2,1.6,4.4,3.3,6.6,5c1.9,1.5,3.6,3,5.1,4.9c0.8,1,1.4,2,1.9,3.1c0.6,1.5,0.8,3,0.5,4.5c-0.1,0.6-0.2,1.3-0.2,1.9
		c0.1,3-0.4,6-1.2,8.9c-0.5,1.7-0.7,3.4-0.8,5.1c0,2.2-0.2,4.3-0.9,6.5c-0.7,2.2-0.7,4.4-0.8,6.7c0,0.8,0,1.5,0,2.3
		c0.1,4.2-0.6,8.3-1.3,12.4c-0.9,5.4-1.9,10.9-2.8,16.3c-0.6,3.6-1.7,7.1-3,10.5c-1.1,2.8-2.3,5.6-3.5,8.3c-1.3,3-3.5,5-6.6,6.1
		c-4.4,1.6-8.7,0.2-11.4-3.6c-1.4-2.1-2-4.4-2.4-6.8c-0.3-2.3-0.4-4.6-0.3-6.9c0.1-2.2,0.1-4.4,0.3-6.5c0.3-4.4,1.1-8.7,2.1-12.9
		c0.8-3.2,1.7-6.5,2.5-9.7c0.2-0.7,0.5-1.5,0.9-2.1c0.9-1.4,0.6-2.9,0.6-4.3c0-0.3-0.3-0.6-0.6-0.7c-1.5-0.3-3-0.4-4.3,0.9
		c-2.3,2.3-4.9,4.2-7.6,5.9c-3.5,2.2-6.9,4.4-10.5,6.5c-5.1,3.1-10.6,5.6-16.4,7.1c-6.4,1.7-12.9,2.1-19.5,1c-3-0.5-5.6-1.7-7.9-3.7
		c-2.2-1.8-3.9-3.9-5.3-6.3c-1-1.6-1.8-3.2-2.7-4.9c-0.3-0.5-0.6-1-1-1.4s-0.9-0.4-1.4-0.1c-0.5,0.4-0.8,1-1.1,1.5
		c-2.2,3.6-4.1,7.4-5.4,11.5c-1.7,4.9-3.9,9.6-6.3,14.2c-2.4,4.7-4.9,9.3-7.3,14c-1,1.9-1.9,3.8-2.7,5.8c-0.9,2.3-2.5,4.2-4.1,6
		c-1.8,2-7,1.5-8.2-1.6c-1.6-4.3-3.5-8.4-4.7-12.8C186.5,256,186.1,253.2,186.1,250.8z"/>
	<path class="st2" d="M182.3,159.2c1.5,0,3-0.1,4.4,0c2.6,0.1,4.9,1,6.8,2.7c3.2,2.8,6.4,5.6,9.4,8.6c0.2,0.2,0.4,0.4,0.5,0.5
		c3,2.7,1.9,7.2-1.2,9c-0.8,0.5-1.7,0.8-2.7,1.1c-3.4,1-6.8,1.3-10.3,1c-2.3-0.2-4.6,0-6.9,0.3c-2.4,0.4-4.8,0.6-7.3,0.7
		c-5.3,0.3-10.5,1.1-15.6,2.4c-4,1-8.1,2-11.9,3.7c-0.9,0.4-1.9,0.9-2.8,1.3c-1.4,0.6-2.1,1.6-2.1,3.2c0,1.2-0.1,2.4-0.3,3.6
		c-0.3,1.6-0.8,3.1-1.7,4.5c-0.8,1.3-1.3,2.6-1.5,4.1c-0.3,2-0.6,3.9-1.7,5.7c-0.9,1.5-0.5,3.1,0,4.7c0.1,0.3,0.4,0.5,0.8,0.4
		c0.9-0.1,1.8-0.3,2.7-0.4c5.3-1,10.6-1.8,16-2.5c3.2-0.4,6.5-0.6,9.8-0.5c1.8,0.1,3.6,0.4,5.2,1.2c0.7,0.3,1.3,0.7,1.4,1.7
		c0.1,1.1,0.8,2,1.7,2.7c0.6,0.5,1.2,0.9,1.8,1.4c0.9,0.7,1.6,1.7,2,2.8s0.2,2-0.4,2.9c-0.3,0.4-0.6,0.8-1,1.2
		c-1.1,1.5-2.3,2.9-3.4,4.4c-1.1,1.6-2.6,2.3-4.5,2.5c-4.1,0.4-8.1,1.1-12.2,2c-6,1.3-11.9,2.4-18,3.4c-3.1,0.5-6.2,1.3-9.2,1.9
		c-3.3,0.7-5.6,2.6-7.2,5.6c-1.1,2-1.8,4.1-2.4,6.3c-1.2,4.2-1.7,8.6-1.8,12.9c0,2-0.6,3.8-1.5,5.5s-2.4,2.6-4.4,2.6
		c-6-0.1-12.7-4.5-13.2-12.3c-0.1-1.2,0-2.3,0.2-3.5c0.3-1.5,0.3-3.1,0.3-4.6c0.1-2.8,0.2-5.6,1-8.4c0.5-1.7,0-3.2-1.4-4.3
		c-0.3-0.3-0.7-0.6-1.1-0.8c-3.3-2.5-5.1-5.8-5.9-9.8c-0.5-2.5-0.3-4.9,0.4-7.2c0.4-1.4,1.1-2.6,2.2-3.6c1.8-1.8,3.8-3.1,6.1-4
		c0.5-0.2,1.1-0.4,1.7-0.5c1.4-0.3,2.7-0.1,3.8,0.8c0.5,0.4,1,0.8,1.6,1.1c0.5,0.3,1,0.6,1.5,0.8c1,0.3,1.8,0.1,2.3-0.8
		c0.3-0.4,0.4-0.9,0.6-1.4c0.8-2.1,1.6-4.2,2.4-6.3c0.7-1.7,1.3-3.5,1.6-5.3c0.1-0.4,0.1-0.8,0.2-1.1c0-1.1-0.3-1.7-1.4-2
		c-3.5-0.8-5.8-3.1-7.5-6.2c-0.9-1.8-1.8-3.6-2.6-5.4c-0.9-2-0.8-4-0.3-6c0.3-0.9,0.7-1.8,1-2.7c0.6-1.4,1.7-2.4,3.2-2.8
		c1.8-0.6,3.7-1.2,5.5-1.7c5.2-1.6,10.3-3.4,15.5-5.3c2.2-0.8,4.4-1.4,6.6-1.9c4.1-0.9,8.1-2.4,12.1-3.9c3.5-1.3,7.1-2.6,10.8-3.4
		c2.9-0.6,5.8-1.1,8.7-1.4c3.7-0.4,7.4-0.6,11.1-0.9C180.6,159.2,181.5,159.2,182.3,159.2L182.3,159.2z"/>
	<path class="st2" d="M431,160c1.1,0,2.2,0,3.3,0c1.2,0.1,2.2,0.5,3.1,1.4c2.2,2.3,4.6,4.3,7,6.4c0.8,0.7,1.6,1.4,2.4,2.2
		c2.4,2.3,2.8,5.1,2,8.1c-0.5,1.7-1.7,2.6-3.5,2.7c-3.9,0.2-7.8,0.5-11.7,0.8c-4.5,0.4-9.1,1-13.6,1.6c-7.9,1.2-15.8,2.9-23.6,4.9
		c-1.7,0.4-3.4,0.9-5,1.5c-0.8,0.3-1.5,0.7-2.3,1c-1.6,0.7-2.4,1.9-2.4,3.6c0,1.1-0.2,2.2-0.4,3.2c-0.2,1.6-0.8,3.1-1.7,4.5
		c-1.1,1.6-1.6,3.3-1.6,5.3c0,1.3-0.3,2.4-1,3.4s-1.1,2.2-1.1,3.4s0.4,1.8,1.6,2c0.5,0.1,1,0.1,1.5,0c2.8-0.4,5.6-0.7,8.4-1.2
		c4.6-0.8,9.1-1.5,13.8-1.4c0.8,0,1.5,0,2.3-0.2c1.9-0.3,3.6,0.1,5.2,1.1c4,2.5,6.5,6.1,7.5,10.7c0.2,1.1,0,2-0.5,3
		c-2.4,4.8-6.3,7.4-11.6,7.7c-3.4,0.2-6.7,1-10,1.8c-2.6,0.7-5.3,1.1-8,1.4c-3.6,0.5-7.2,1.1-10.8,1.7c-2,0.3-4,0.8-6.1,1
		c-3.6,0.4-6.2,2.3-7.9,5.5c-1.6,3-2.6,6.3-3.1,9.7c-0.3,1.9-0.4,3.8-0.5,5.8c-0.1,2.7-0.7,5.2-1.6,7.7c-0.5,1.4-1.5,2.1-3,2.2
		c-8.3,0.8-14.3-5-15.5-11.2c-0.4-2-0.4-4,0-5.9c0.8-3.7,1.1-7.5,1.8-11.2c0.2-1.1-0.1-1.8-1.1-2.4c-2.6-1.6-4.3-4-5.6-6.7
		c-0.3-0.7-0.6-1.3-0.5-2c0.4-3.7,0.5-7.4,1.3-11.1c0.2-0.7,0.4-1.4,0.6-2c0.5-1.3,1.4-2.3,2.7-2.9c1.9-0.9,3.8-1.5,5.9-1.5
		c1.6,0,3,0.4,4.4,1.2c0.2,0.1,0.4,0.3,0.6,0.4c1.1,0.9,2.5,0.5,2.9-0.9c1.2-3.8,2.9-7.4,3.7-11.3c0.6-2.6,0.4-3.1-2-4.2
		c-2.5-1.2-4.3-3-5.6-5.3c-2.3-4.2-3.2-8.8-3.2-13.5c0-0.1,0-0.3,0-0.4c0.2-2.3,1.2-3.5,3.4-4.1c1.7-0.5,3.5-0.8,5.2-1.2
		c6.4-1.5,12.7-3,18.9-5.3c1.1-0.4,2.2-0.8,3.2-1.3c3.5-1.7,7.2-2.7,11-3.3c4-0.7,7.9-1.5,11.9-2.5c4.2-1,8.4-1.7,12.7-2.2
		c4.1-0.5,8.2-1,12.2-1.4c1.3-0.1,2.6-0.1,3.8-0.2C431,160,431,160,431,160z"/>
	<path class="st2" d="M278.7,317.7c0.8-0.6,1.3-1,1.8-1.4c2-1.6,4.1-3,6.5-4c1.1-0.5,2.1-1.2,3.1-1.9c1-0.8,2.1-1.7,3.1-2.6
		c1-0.8,2-1.4,3.1-1.9c1.4-0.6,2.8-0.5,4.1,0.3c0.9,0.5,1.7,1.1,2.4,1.9c1,1.1,1,2.3,0.2,3.5c-0.4,0.6-1,1.2-1.6,1.7
		c-1.3,1.1-2.7,2-4.1,2.8c-2.3,1.3-4.4,2.8-6.5,4.5c-1.2,1-2.4,1.9-3.6,2.9c-0.9,0.7-1,1.2-0.4,2.2c1,1.6,2.3,2.7,4,3.5
		c1.4,0.6,2.9,1,4.5,1.2c1.7,0.2,3.5,0.3,5.2,0.4c0.9,0.1,1.8,0.1,2.7,0.3c1.3,0.4,2.3,1.6,2.4,2.9c0,0.9-0.3,1.6-1,2.2
		c-1,1-2.3,1.7-3.6,2.2c-2.3,0.8-4.7,0.8-7,0.2c-4.1-1-7.7-2.9-10.7-5.8c-0.6-0.6-1.3-1.3-2-1.9c-1-0.8-1.6-0.8-2.6,0.1
		c-0.5,0.4-0.9,0.9-1.3,1.4c-1.1,1.5-2.3,3-3.4,4.5c-0.8,1.1-1.7,2.3-2.5,3.4c-0.2,0.3-0.5,0.6-0.8,0.9c-1,1-1.8,1.1-2.8,0.1
		c-1.1-1.1-2.1-2.3-2.9-3.6c-1.2-2.1-1.2-4.3-0.9-6.6c0.1-0.5,0.2-1,0.3-1.5c2.1-7.2,4.2-14.4,7.2-21.3c0.4-0.9,0.8-1.9,1.3-2.8
		c0.3-0.5,0.6-1,0.9-1.5c0.5-0.7,1.2-1,2-1c2.4,0,4.3,1,5.8,2.9c0.7,0.9,0.8,1.9,0.4,2.9s-0.9,2-1.4,2.9c-0.8,1.4-1.5,2.8-1.9,4.4
		C278.8,316.6,278.8,317,278.7,317.7z"/>
	<path class="st2" d="M137.9,332.5c0-2.4,0.5-4.6,1.5-6.7c3.2-6.8,6.5-13.5,9.7-20.3c1-2,1.6-2.4,4-1.7c2.2,0.7,3.7,2.2,5,4
		c0.4,0.6,0.5,1.3,0.3,2c-0.3,1.2-0.7,2.3-0.9,3.5c-0.7,3-0.8,6.1-0.6,9.2c0.1,1.5,0.2,3.1,0.3,4.6c0,0.3,0,0.6,0.1,1
		c0.1,0.5,0.6,0.7,1,0.5c1.2-0.7,2.2-1.6,3-2.7c0.9-1.2,1.6-2.6,2.1-4.1c1.1-2.9,1.7-5.9,2.2-8.9c0.4-2.3,0.9-4.5,2-6.6
		c0.3-0.6,0.7-1.3,1.1-1.8c0.6-0.8,1.3-1,2.2-0.7c3.1,1.1,5.1,4.4,4.4,7.6c-0.1,0.7-0.3,1.4-0.6,2c-1.2,2.9-1.8,6-2.2,9.1
		c-0.2,1.6-0.4,3.2-0.7,4.8c-0.5,2.6-1.5,4.9-3.1,7c-1,1.3-2,2.5-3.1,3.7c-2.1,2.2-5,2.7-7.7,1.2c-0.9-0.5-1.6-1.1-2.3-1.8
		c-1.8-2-3.6-4.1-4.4-6.7c0-0.1-0.1-0.2-0.2-0.3c-0.2-0.3-0.6-0.4-0.8-0.2c-0.3,0.2-0.6,0.5-0.8,0.8c-1.6,1.9-2.5,4.2-3.1,6.6
		c-0.1,0.3-0.1,0.6-0.2,0.9c-0.5,2-1.8,3-3.9,3.1c-0.8,0-1.4-0.4-1.7-1c-1.5-2.3-2.7-4.7-2.6-7.5
		C137.9,332.9,137.9,332.7,137.9,332.5z"/>
	<path class="st2" d="M192.1,342.1c-1.3,0-2.7,0-4,0c-3.7,0-6.4-2.2-7.2-5.7s-0.5-6.9,1.5-10c1.5-2.3,2.4-4.8,3.4-7.3
		c0.3-0.8,0.3-1.6-0.2-2.4c-1.4-2.1-1.6-4.6-1.6-7c0-0.8,0.4-1.3,1.1-1.7c0.4-0.2,0.8-0.3,1.3-0.5c4.5-1.4,9.1-2.7,13.8-3.6
		c3.4-0.6,6.9-0.8,10.3-0.9c1.2,0,2.3,0.3,3.2,1.1c0.5,0.4,1,0.8,1.5,1.2c0.7,0.5,0.9,1.2,0.5,1.9c-1.1,1.8-2.3,3.6-4.7,3.9
		c-1.3,0.2-2.6,0.6-3.9,1c-3.1,0.9-6.2,1.7-9.4,2c-0.9,0.1-1.8,0.3-2.6,0.8c-0.6,0.4-0.8,0.8-0.5,1.5c0.3,0.9,0.6,1.1,1.4,1
		c0.4,0,0.9-0.1,1.3-0.2c1.7-0.4,3.5-0.2,5.2,0.1c1.6,0.3,3.1,0.9,4.3,2c0.8,0.7,1.6,1.4,2.4,2.2c0.4,0.4,0.4,0.9,0,1.2
		c-1.7,1.4-3.5,2.8-5.7,3.4c-0.9,0.2-1.7,0.3-2.7,0.2c-2.2-0.3-4.5-0.1-6.7,0.2c-1.3,0.2-2.3,0.8-3,1.9c-0.8,1.2-1.3,2.5-1.7,3.8
		c-0.2,0.6,0.1,1,0.7,1.1c0.2,0,0.4,0,0.6,0c3.5-0.3,7-0.6,10.6-0.9c1.9-0.2,3.8-0.2,5.7-0.7c0.6-0.1,1.3-0.1,1.9,0.3
		c1.1,0.6,2.1,1.5,3,2.4c0.6,0.5,0.5,1.3,0.2,2c-0.3,0.5-0.6,1-1,1.4c-2,2.3-4.6,3.4-7.6,3.6c-3,0.1-5.9,0.5-8.8,0.6
		C193.7,342.1,192.9,342.1,192.1,342.1L192.1,342.1z"/>
	<path class="st2" d="M350.4,335.4c0-2,0.5-3.9,0.9-5.9c0.8-4.2,1.7-8.4,2.5-12.6c0.2-0.9,0.4-1.6,1.4-1.9c2.1-0.5,3.6-1.9,4.8-3.6
		c1.4-1.9,2.9-3.6,4.4-5.3c0.4-0.5,0.9-0.9,1.4-1.4c0.4-0.3,0.8-0.7,1.2-0.9c2.1-1.4,3.9-1.4,5.9,0.1c1.7,1.2,3.2,2.7,4.5,4.5
		c2,2.6,3.2,5.6,3.8,8.7c0.1,0.7,0.1,1.4,0.1,2.1c0,1.3-0.5,2.4-1.5,3.2c-1.6,1.4-3.2,2.8-5,3.9c-2,1.3-4.1,2-6.5,2.1
		c-0.5,0-1,0-1.5,0.3c-0.8,0.5-0.8,1.3-0.1,1.8c2.8,2.1,6,3.2,9.4,3.7c1.3,0.2,2.6,0.5,4,0.8c1,0.2,2,0.6,2.8,1.2
		c0.9,0.7,1.5,1.6,1.6,2.7c0.1,1.2-0.2,2.4-0.8,3.5c-0.4,0.8-1.1,1.3-2,1.3c-1.4,0.1-2.8,0.1-4.2-0.4c-4.1-1.4-8.2-2.7-12.1-4.5
		c-1.9-0.8-3.8-1.6-5.4-3c0,0-0.1-0.1-0.2-0.1c-0.6-0.3-1-0.2-1.2,0.3c-0.2,0.6-0.4,1.2-0.6,1.8c-0.2,0.7-0.5,1.5-0.9,2.1
		c-0.6,0.9-1.4,1.4-2.6,1.4c-0.4,0-0.8,0-1.2-0.1c-1.7-0.2-2.3-0.9-2.6-2.6c-0.1-0.8-0.3-1.6-0.4-2.5
		C350.4,336.1,350.4,335.7,350.4,335.4z M364.1,320.9c0.1,0,0.3,0,0.5-0.1c2.5-0.6,4.9-1.4,7.2-2.7c0.6-0.3,0.8-0.8,0.6-1.4
		c-0.5-1.7-1.7-2.8-3.2-3.6c-0.3-0.2-0.7-0.1-0.9,0.1c-1.8,1.7-3.6,3.4-4.8,5.7c-0.1,0.3-0.3,0.6-0.3,0.9
		C363,320.4,363.4,320.9,364.1,320.9z"/>
	<path class="st2" d="M321.5,342.1c-1,0-2-0.1-3-0.1c-0.9,0-1.8-0.2-2.7-0.4c-2.2-0.5-3.6-1.9-4.3-4c-0.7-2.5-0.8-5-0.2-7.6
		c0.5-2.1,1.5-4.1,2.7-5.9c0.5-0.8,1-1.6,1.5-2.5c0.9-1.7,1-3.4,0.3-5.2c-0.6-1.5-0.9-3.1-1.3-4.6c-0.4-1.6,0.2-2.6,1.7-3.3
		c0.2-0.1,0.5-0.2,0.7-0.3c5.6-1.6,11.2-3.3,17-4.3c2.3-0.4,4.6-0.6,6.9-0.7c1,0,1.9,0.2,2.7,0.8c0.6,0.5,1.3,1.1,1.9,1.6
		c0.5,0.4,0.6,0.9,0.3,1.4c-1.2,2-2.4,4-5.1,4.3c-2.1,0.2-4,0.9-6,1.4c-1.1,0.3-2.2,0.7-3.3,0.9c-1.2,0.3-2.4,0.5-3.6,0.4
		c-0.9-0.1-1.6,0.2-2.4,0.7c-0.6,0.4-0.7,0.8-0.5,1.5c0.2,0.8,0.5,1,1.2,0.9c0.5,0,1-0.1,1.5-0.2c1.9-0.3,3.8,0,5.7,0.4
		c1.6,0.3,3,1.1,4.2,2.2c0.6,0.5,1.1,1,1.7,1.6s0.6,1.1-0.1,1.6c-2.7,2.1-5.5,3.9-9.1,3.4c-1.7-0.2-3.5,0-5.2,0.2
		c-3,0.4-5,2.6-5.4,5.7c-0.1,0.7,0.3,1.1,1,1c0.6-0.1,1.3-0.2,1.9-0.3c2.5-0.3,5-0.3,7.5-0.3c2.3,0,4.6,0,6.9-0.5
		c1.5-0.3,2.6,0.2,3.5,1.4c0.4,0.5,0.7,1.1,1,1.6c0.4,0.6,0.4,1.2-0.1,1.8c-1.9,2.6-4.4,4.3-7.7,4.5c-2.6,0.1-5.2,0.4-7.9,0.6
		C324.3,342.2,322.9,342.2,321.5,342.1z"/>
	<path class="st2" d="M238.8,332.8c-1.2,0-2.3,0-3.5,0c-0.6,0-1.3,0-1.9-0.1c-0.7-0.1-1.2-0.5-1.4-1.1c-0.1-0.2-0.1-0.5-0.2-0.7
		c-0.1-0.5,0-1.2-0.6-1.3c-0.5-0.1-0.6,0.6-0.8,0.9c-0.6,1.1-1.3,2.2-1.9,3.3c-0.6,1.2-1.1,2.5-1.2,3.8c-0.2,2.1-1.4,3.2-3.2,3.9
		c-0.5,0.2-1,0.3-1.5,0.4c-1.3,0.3-2.4-0.2-3.1-1.4c-0.3-0.6-0.6-1.1-0.9-1.7c-0.5-1-0.5-2.1-0.1-3.2c0-0.1,0.1-0.2,0.2-0.4
		c3.5-7.6,6.7-15.4,10.7-22.8c0.9-1.8,2.2-3,4.1-3.4c1.3-0.3,2.3-1,3.2-2c0.6-0.7,1.3-1.4,1.9-2.2c0.9-1,2-1.4,3.3-1.4
		c1.4,0,2.8,0.3,4.2,0.6c0.9,0.2,1.3,1,1.5,1.8c0.2,0.9,0.2,1.9,0.4,2.9c0.7,3.8,1.4,7.7,2.1,11.5c0.2,1.3,0.9,2.2,2.2,2.7
		s2.4,1.4,3.9,1.6c0.9,0.2,1.1,1.1,0.4,1.8c-0.3,0.3-0.6,0.6-1,0.9c-0.3,0.3-0.7,0.5-1.1,0.8c-1.3,0.9-1.7,2.2-1.3,3.7
		c0,0.1,0,0.1,0.1,0.2c0.9,3.7-0.6,7.2-3.9,9c-1.3,0.7-2.6,1.1-4.1,0.8c-1.7-0.4-2.8-1.7-2.8-3.4c0-0.7,0.2-1.3,0.6-1.8
		c0.3-0.3,0.6-0.7,0.9-1c0.4-0.5,0.6-1,0.8-1.5c0.2-0.9-0.3-1.7-1.3-1.7c-1.1,0-2.2,0.1-3.3,0.2c-0.4,0-0.9,0-1.3,0
		C238.8,332.8,238.8,332.8,238.8,332.8z M236.7,325L236.7,325c0.8,0,1.5,0,2.3,0c0.6,0,1.3-0.1,1.9-0.2c0.6-0.1,0.8-0.5,0.8-1.1
		c0-0.2,0-0.4-0.1-0.6c-0.4-1.9-0.8-3.8-1.3-5.6c-0.1-0.2-0.2-0.5-0.3-0.7c-0.1-0.3-0.6-0.4-0.8-0.2c-0.2,0.2-0.4,0.3-0.6,0.5
		c-1.8,2.1-3.5,4.3-4.9,6.6c-0.2,0.3-0.3,0.6-0.4,0.9c-0.1,0.3,0.1,0.5,0.4,0.5C234.8,325,235.7,325,236.7,325z"/>
	<path class="st2" d="M420,311c-0.6,0-1.3,0.1-1.9,0c-1.9-0.2-3.7,0-5.5,0.4c-2.2,0.6-4.5,1.1-6.7,1.7c-0.3,0.1-0.5,0.3-0.5,0.5
		c-0.1,0.3,0.1,0.6,0.3,0.9l0.1,0.1c1.5,0.5,2.5,1.8,3.7,2.7c1.7,1.1,3.1,2.6,4.2,4.2c0.7,1,1.4,2.1,2.1,3.2
		c1.2,1.8,1.3,3.7,0.5,5.7s-1.9,3.8-3.5,5.2c-3,2.7-6.5,4.8-10.3,6.3c-1.7,0.6-3.5,0.9-5.3,0.8c-2.7-0.2-4.2-1.5-4.7-4.2
		c-0.1-0.6-0.1-1.3-0.1-1.9c0.1-1,0.6-1.6,1.6-1.9c0.6-0.1,1.3-0.2,1.9-0.2c1.9,0,3.7-0.5,5.4-1.2c2.6-1.1,5-2.7,7.4-4.1
		c0.8-0.5,1.4-1.2,1.6-2.1c0.3-1.3-0.2-2.5-1.4-3.1c-0.6-0.3-1.2-0.5-1.8-0.7c-2.3-0.6-4.6-1-7-0.9c-3.3,0.2-6-1.2-8.5-3.1
		c-0.6-0.5-1-1.2-1.1-2c-0.4-1.9-0.1-3.7,0.8-5.4c0.5-0.9,1.2-1.6,2.1-2.2c1.9-1.1,3.8-2,5.9-2.8c3.7-1.4,7.5-2.5,11.3-3.8
		c1.5-0.5,3.1-0.7,4.7-0.7c1.9-0.1,3.9,0,5.8,0c1.1,0,2,0.5,2.5,1.4c0.8,1.4,1.7,2.9,2.5,4.3c0,0.1,0.1,0.1,0.1,0.2
		c1,1.8,0.6,2.6-1.5,2.8C423.3,311.1,421.6,311,420,311L420,311z"/>
	<path class="st2" d="M132.5,302.5c1.6-0.2,2.7,0.5,3.4,2c0.5,1.2,1.3,2.2,1.9,3.3c1.2,2.1,0.8,3-1.6,3.2c-1.7,0.2-3.5,0.3-5.2,0.4
		c-2.4,0.1-4.7,0.3-7.1,0.3c-2.3,0.1-4.5,0.7-6.8,1.3c-0.6,0.2-0.7,0.7-0.4,1.2c0.2,0.3,0.5,0.6,0.9,0.7c2.8,0.8,4.7,2.7,6.4,5
		c0.8,1,1.6,2,2.3,3.1c2.3,3.1,2.6,6.3,0.4,9.4c-3.8,5.3-8.9,8.8-15.7,9.3c-1.3,0.1-2.7,0.1-4,0.5c-0.2,0.1-0.4,0.1-0.6,0.1
		c-1,0-1.4-0.3-1.7-1.2c-0.1-0.2-0.1-0.4-0.1-0.6c-0.1-1-0.3-2-0.3-3.1c0-1.7,0.4-2.3,2-2.9c0.8-0.3,1.7-0.5,2.6-0.7
		c2.1-0.5,4.1-1.1,6-2c2.1-0.9,3.9-2.1,5.6-3.7c1.8-1.8,1.6-2.7-0.6-4c-1.5-0.8-3.2-1.3-4.9-1.5c-2.2-0.3-4.5-0.6-6.7-1
		c-1.3-0.3-2.5-0.7-3.6-1.2s-1.9-1.3-2.2-2.5c-0.4-1.6-0.5-3.2-0.1-4.7s1.4-2.7,2.8-3.6c3.5-2.3,7.2-4,11.3-4.6
		c4.6-0.6,9.2-1.5,13.9-2.2C131.1,302.7,131.8,302.6,132.5,302.5z"/>
	<path class="st5" d="M364.1,320.9c-0.7,0-1.1-0.4-1-1.1c0.1-0.3,0.2-0.6,0.3-0.9c1.2-2.2,3-4,4.8-5.7c0.2-0.2,0.6-0.3,0.9-0.1
		c1.5,0.8,2.7,1.9,3.2,3.6c0.2,0.7,0.1,1.1-0.6,1.4c-2.3,1.2-4.7,2.1-7.2,2.7C364.5,320.8,364.3,320.8,364.1,320.9z"/>
	<path class="st5" d="M236.7,325c-1,0-1.9,0-2.9,0c-0.3,0-0.5-0.2-0.4-0.5s0.2-0.6,0.4-0.9c1.4-2.4,3.1-4.6,4.9-6.6
		c0.2-0.2,0.4-0.4,0.6-0.5c0.2-0.2,0.7-0.1,0.8,0.2c0.1,0.2,0.2,0.5,0.3,0.7c0.4,1.9,0.8,3.8,1.3,5.6c0,0.2,0,0.4,0.1,0.6
		c0,0.6-0.2,1-0.8,1.1s-1.3,0.2-1.9,0.2C238.2,325,237.5,325,236.7,325L236.7,325z"/>
	<path class="st2" d="M141.9,80c-0.6,0-1.7-0.1-2.7-0.5c-2.8-1.1-4.7-3-5.1-6.1c-0.3-1.9,0.3-3.7,1.5-5.2c3.8-4.9,11.7-4.7,15.3,0.4
		c2.7,3.7,1.1,9.7-3.9,11C145.5,79.8,144,80.1,141.9,80z M144.2,76.1c0.5-0.1,1-0.1,1.5-0.2c2-0.6,2.8-2.2,2.2-4.2
		c-0.9-2.9-4.1-4.2-6.9-2.7c-2.1,1.1-2.1,3.2-1.5,4.6c0.3,0.7,0.9,1.3,1.5,1.7C142.1,75.8,143.1,76.1,144.2,76.1z"/>
	<path class="st2" d="M378.4,60.6c-4.1,0-6.7-2-7.3-5.6c-0.5-2.9,0.2-5.5,2.2-7.7c1.3-1.4,3-2.2,4.9-2.5c1.1-0.2,2.2,0.1,3.1,0.7
		c0.7,0.4,1.2,0.9,1.7,1.5c1.7,2,2.6,4.4,2.9,7c0.2,1.5-0.2,2.7-1.3,3.6C382.7,59.6,380.4,60.5,378.4,60.6z M379.6,49.7
		c-1.3-0.1-2.4,0.2-3.4,1s-1.5,1.7-1.1,3c0.2,0.6,0.4,1.2,0.7,1.8c0.3,0.6,0.8,0.9,1.5,1c2.2,0.2,5.2-2.3,4.4-5.7
		c-0.1-0.5-0.5-0.9-1.1-1C380.2,49.7,379.9,49.7,379.6,49.7z"/>
	<path class="st2" d="M399.6,29c2.4,0.1,4.3,1.2,5.4,3.3c0.7,1.3,1,2.8,0.9,4.3c-0.2,2-1.2,3.5-3.1,4.2c-4.2,1.5-7.4-0.8-8.6-4
		c-0.4-1.2-0.6-2.5-0.3-3.8c0.5-2,1.7-3.3,3.6-3.8C398.1,29.1,398.8,29,399.6,29z M401.8,35.7c0-1.2-0.8-2.1-2.1-2.4
		c-0.8-0.2-1.4,0.1-1.7,0.9c-0.4,1,0,2,1,2.4c0.4,0.2,0.8,0.3,1.3,0.4C401.2,37.2,401.8,36.6,401.8,35.7z"/>
	<path class="st2" d="M412.8,77.7c-0.1,0.7-0.2,1.5-0.3,2.4c-0.4,4.4-5.4,7.2-9.6,5.3c-0.5-0.2-1-0.5-1.5-0.9c-3-2.3-4.8-5.3-5.3-9
		c-0.3-2.3,0.4-4.3,1.7-6.2c0.8-1.1,1.8-1.8,3.1-2.1c2.1-0.6,4.2-0.5,6.3,0.2c2.2,0.8,3.7,2.2,4.5,4.4
		C412.5,73.7,412.8,75.6,412.8,77.7z M404.6,71.3c-0.4,0-0.9,0-1.4,0.1c-1,0.1-1.8,0.6-2.4,1.5c-1.6,2.4-0.4,5.8,2.4,6.5
		c1.3,0.3,2.7,0.3,3.9-0.4c0.9-0.5,1.6-1.3,2-2.2c1.1-2.7-0.3-5.1-3.2-5.4C405.5,71.3,405.1,71.3,404.6,71.3z"/>
</g>
</svg>
