<svg xmlns="http://www.w3.org/2000/svg" viewBox="0 0 383.59 198.76"><title>logo-red</title><path d="M2950.91,555.42c4.17-9.59,8.6-19.1,10.66-29.43a52.73,52.73,0,0,0,1.1-14.07,4.83,4.83,0,0,1,.39-2.53,30,30,0,0,0,2.67-14.88c-.16-3.53-.17-7,1.34-10.37a15.05,15.05,0,0,0,.6-9.7c-.31-1.31.06-2,1.51-1.81a16.89,16.89,0,0,0,1.76,0c-.93-3.08-2.41-5.8-2.35-8.94,0-.47-.75-.95-1.16-1.43a9.29,9.29,0,0,1-1.65-2c-1.46-3.39-3.42-6.29-6.9-7.92a1.72,1.72,0,0,1-.8-.84c-1.46-4.29-5.54-4.71-9-6.11-.13-.06-.22-.22-.33-.33h-4.9a5.2,5.2,0,0,0-2.7,2.93c-2.72,6.66-7.53,11.73-12.83,16.4-6,5.32-12.12,10.6-18.26,15.78-3.12,2.62-7.25,4.17-10.78,6.44a12.41,12.41,0,0,1-8.26,2.15c-6.58-.84-5.94-3-5.5-9.26.11-1.52.41-2.91-.36-4.31a3.48,3.48,0,0,1,0-3,12.28,12.28,0,0,0-1-10.15c-1.93-3.69-4.43-7-6.51-10.59a2.9,2.9,0,0,0-2.16-1.24c-2.06-.41-4.08-1-6.09-1.59a2,2,0,0,1-1.62-1.56c-.3-3.31-2.87-4.6-5.25-6.08a3.29,3.29,0,0,0-3.27,0c-8.22,3.66-11.77,11.39-16.26,18.38-12.37,19.25-20.29,40.61-29.38,61.42-1.47,3.35-3.17,6.67-3.79,10.3a48,48,0,0,0,2.66,25.23,40,40,0,0,0,2.16,4.93c1.39,2.63,2.81,5.34,6.45,5.27l2.89,0a8.69,8.69,0,0,0,6.2-4.9c1.71-3.3,3.88-6.38,3.95-10.41.05-2.64,2-4.51,4-6.15a3.08,3.08,0,0,0,1.24-3.4,8,8,0,0,1,2.76-7.44c2.83-2.65,3.7-5.77,4.37-9.39a40.86,40.86,0,0,1,6.06-14.9,13.54,13.54,0,0,1,1.95-3.4c1.93,3.43,3.54,6.78,5.85,9.72a24.26,24.26,0,0,0,16,9.55,2.88,2.88,0,0,1,.83.4l7.91,0a75.36,75.36,0,0,0,18.22-5.72c9.78-4.43,18.62-10.43,27.37-16.56a11.82,11.82,0,0,0,1.72-1.87,2.43,2.43,0,0,1,3-.24c.85.67.64,2.24.24,3.12-2.62,5.82-3.57,12.08-4.84,18.24a84.83,84.83,0,0,0-1.8,20.86c.27,6.88,2.31,12.9,7.32,17.76a9.34,9.34,0,0,0,3.25,0c3.39-1.37,6.26-3.81,9.85-4.78C2950.29,556.87,2950.6,556.12,2950.91,555.42Z" transform="translate(-2708.21 -440.62)" style="fill:#c70039"/><path d="M2797.75,504a2.62,2.62,0,0,1-.43-.18c.72-1.49-1.1-3,.08-4.49-5.34-.51-10.64.55-16,.44-3.24.59-6.46,1.37-9.73,1.73-3.72.41-7.41,1.28-11.2,1.14-1.28.91-1.85.44-2.22-1s-.61-2.71.19-3.86c1.33-1.9,1.53-4.09,1.88-6.24a8.61,8.61,0,0,1,1.41-3.92c2-2.75,2.31-6,2.44-9.16a3.08,3.08,0,0,1,2-3c5.86-3.12,12.24-4.6,18.65-5.94,7.52-1.57,15.07-3,22.79-3.12l16.44-.55a8.72,8.72,0,0,1,3.74-1.73,3.58,3.58,0,0,0,2.46-2.3c.83-2.24.48-7.05-1.87-9.14-3.21-2.85-6.67-5.45-9.53-8.7-1.85-2.11-4.62-2.46-7.17-3.15-5-.39-10,.2-15,.44-3.52.62-7.06,1.18-10.57,1.87a138.16,138.16,0,0,0-18.66,4.61c-3.14,1.09-6.53,1.11-9.46,2.32-5.58,2.3-11.44,3.65-17.06,5.79-4.89,1.86-10,3.2-15,4.75-3.41,1-6,5.7-4.81,9,.49,1.39.9,2.63-.11,3.95a1,1,0,0,0,.33,1.6c2.48,1.41,3.45,4,4.89,6.23,1.55,2.39,3.2,4.39,6.4,4.59,1.62.1,2.56.87,2,3.12-1,4.2-2.76,8.1-3.94,12.21-.69,2.41-1.89,2.68-3.84,1.19l-2.46-1.9a6.13,6.13,0,0,0-4.12-.06c-2.87,1.22-5.92,2-8.27,4.28-3.61,3.5-4.85,7.58-3.35,12.43,1.61,5.22,4,9.94,8.85,12.89,1,.58.85,1.17.62,2.14-1,4.32-2.92,8.43-3.17,12.95s.07,8.69,3.32,12.15a1.53,1.53,0,0,1,.22.42c1.93,3.51,4.62,6.06,8.68,6.89a4.39,4.39,0,0,1,2.11.94h3.27a14.71,14.71,0,0,0,7.17-11,8,8,0,0,0-.57-3.47c-1-3.46.62-6.12,2.37-8.78.13-.19.36-.42.33-.59-.69-3.35,2.37-5.44,2.82-8.47.35-2.37,2.78-2.86,4.59-3,8-.64,15.58-3.22,23.52-4.08a63.1,63.1,0,0,0,12.68-2.22,21,21,0,0,1,5.85-.58c1-.31,2,.52,3,0,2.09-3.5,4.9-6.44,7.31-9.7,1.68-2.26,1.88-4.05.08-6.08C2800.67,506.27,2799.81,504.43,2797.75,504Z" transform="translate(-2708.21 -440.62)" style="fill:#c70039"/><path d="M3089.94,453.68a61.74,61.74,0,0,0-7.9-7.07c-1.53-1.11-2.42-2.92-4.08-3.88a22,22,0,0,0-5.46-1.85l-9.63,0c-3.48.46-7,.8-10.44,1.4-9.23,1.62-18.48,3.22-27.22,6.8-1.32.54-2.65.07-3.94.5-6.8,2.25-13.61,4.43-20.41,6.68-4.44,1.46-8.87,3-13.4,4.15a7.86,7.86,0,0,0-5.16,10.26c.18.49.78,1,.34,1.53-1.87,2.07-.27,2.95,1.1,4.33a35.1,35.1,0,0,1,3.74,5.41c1.43,2.14,3,3.94,5.89,4.12,1.74.11,2.55.9,2.12,3.28-.76,4.2-2.8,7.89-3.84,12-.7,2.75-2.06,3-4.16,1.09l-2.26-1.67c-1.35-.69-2.73-.33-4.1-.07-3.39,1.39-6.93,2.47-9.36,5.53a11.17,11.17,0,0,0-2.39,10.07c1.36,5.78,4,10.67,9,14,.72.48.92.81.68,1.83-1,4-2.57,7.85-3.13,12-.62,4.58-.37,8.92,2.69,12.71a4.43,4.43,0,0,1,.36.59c2.12,3.85,5,6.74,9.53,7.54a6.44,6.44,0,0,1,1.63.83h3.35c4.73-3.16,7.84-7.48,6.65-13.24a13.94,13.94,0,0,1,1-8.25c1.46-3.85,3-7.66,4.64-11.45.83-2,2.9-2.3,4.54-2.49,9.86-1.15,19.44-3.9,29.32-4.91a51.76,51.76,0,0,0,7.58-1.47,9.37,9.37,0,0,1,3.48-.31l4.31-.12c2.45-3.16,4.86-6.34,7.35-9.47,2-2.46,1.92-4.55-.25-6.86-1.1-1.17-1.84-2.78-3.67-3.12a1.44,1.44,0,0,1-.53-.34c.91-1.45-1-2.89,0-4.33l-10.27,0c-3.09.44-6.17.91-9.27,1.29-5.68.68-11.28,1.95-17,2.09-1.33,1-2,.24-2.37-1-.3-1.05-.68-2.33-.05-3.23,2.79-4,1.6-9.3,4.89-13.26,1.33-1.6,1-4.66,1.19-7.07a2.57,2.57,0,0,1,1.62-2.51c8.94-4.45,18.62-6.19,28.35-7.73,4.41-.7,8.8-1.69,13.32-1.38,5.54-.38,11.08-.64,16.63-.62a17.78,17.78,0,0,1,2.42-1.31A6.69,6.69,0,0,0,3089.94,453.68Z" transform="translate(-2708.21 -440.62)" style="fill:#c70039"/><path d="M2930.36,624.13c-3.48,0-6.94-.06-10-2.08a8.18,8.18,0,0,1-1.81-1.49c-1.69-2-1.42-2.17.6-4,4.24-3.8,9.26-6.43,13.77-9.79,4.15-3.09,4-5.28-.4-8.15a4.3,4.3,0,0,1-1.52-1.38c-1-1.21-1.87.06-2.8.11-2.94,2.6-6.68,4-9.68,6.5s-6.15,4.62-9.26,6.93c-.52-1.29.25-2.22.87-3.18a14.79,14.79,0,0,1,2.14-4.75,4.25,4.25,0,0,0-1.68-6.31,29.79,29.79,0,0,1-2.88-1.78c-1.1-.27-2.2-.89-3.27.05-4.51,6.61-6.09,14.45-9.12,21.68a43.12,43.12,0,0,0-2.81,10.93,10.93,10.93,0,0,0,3.77,10,2.28,2.28,0,0,0,2.91,0c3-2.07,4.59-5.26,6.71-8,1-1.29,1.64-2.88,3.18-3.7.92-.91,1.84-1.5,3-.21a25.66,25.66,0,0,0,14.24,8.35c.42.09.29.5.36.78,1.59.27,3.13-.19,4.7-.31a6.54,6.54,0,0,0,4.08-1.39c3.69-2.85,3.75-5.14.09-8.65C2933.85,623.17,2932.06,624.78,2930.36,624.13Z" transform="translate(-2708.21 -440.62)" style="fill:#c70039"/><path d="M2796.61,597.28a10.54,10.54,0,0,1-3.11-2.39c-1-.12-2-1.8-2.95,0a47,47,0,0,1-2,6c-1,2.6-1.08,5.5-1.6,8.26-.72,3.87-1.8,7.59-4.26,10.79a10.41,10.41,0,0,1-3.36,2.8,2.71,2.71,0,0,1-.37-2.32c-.15-4.59-.56-9.11,1.11-13.65s.66-7-3.53-9.85l-2.48-1.69c-1,.14-1.92-1.8-2.87,0-4,9.4-8.58,18.49-13.12,27.62-1.36,2.75-1,5.16-.09,7.72a19.3,19.3,0,0,0,3.8,6.39,4.92,4.92,0,0,0,2.87,0c2.26-1.87,2.84-4.53,3.55-7.18a4.35,4.35,0,0,1,2-2.72,2.57,2.57,0,0,1,.1-.7c.35-.76.39-2,1.34-2s.83,1.13,1.15,1.79a23.2,23.2,0,0,0,8.51,9.59,5.2,5.2,0,0,0,3.48,0,25.74,25.74,0,0,0,10.75-19.82,36.42,36.42,0,0,1,3.36-12.44A5.13,5.13,0,0,0,2796.61,597.28Z" transform="translate(-2708.21 -440.62)" style="fill:#c70039"/><path d="M3017.24,629.5c-4.57-1-9.25-1.6-13.13-4.58-.47-.37-1.36-.42-1.28-1.19s.87-.73,1.44-1c3.53-1.43,7.35-2.18,10.59-4.29,4.31-2.81,5.16-6.32,3.51-11.13-1.9-5.56-5.47-9.65-10.07-13-1.14-.9-2.31-.24-3.48-.09-3.35,1.82-5.42,4.89-7.61,7.84-.6.81-1.32,1.55-1.9,2.38-1,1.47-2.19,1.7-3.63.64-.49.12-1.11-.05-1.36.62-1.26,4.14-2.09,8.41-3,12.62s-2.12,8.39-1.85,12.66c.13,2.07.47,4.58,2.56,6.06,1.09.37,2.17.83,3.23,0,2.27-1,2.47-3.34,3.46-5.17,0-.69-.37-1.54.39-2s1.14.53,1.62.93c5.37,4.52,11.92,6.38,18.49,8.18a5.46,5.46,0,0,1,.81.39l3,0c3.63-1.51,4.46-3.62,3.22-7.31C3021.35,629.44,3019.09,629.9,3017.24,629.5Zm-17.8-15.79c.56-3,2.82-4.69,4.76-6.65.68-1.47,1.54-1.41,2.71-.46a8.46,8.46,0,0,1,2,2.32c.8,1.39.55,2.39-1.15,2.93-2.07.66-4.07,1.5-6.13,2.19C3000.87,614.27,3000,614.79,2999.44,613.71Z" transform="translate(-2708.21 -440.62)" style="fill:#c70039"/><path d="M2825.5,607.12h0l0,0Z" transform="translate(-2708.21 -440.62)" style="fill:#c70039"/><path d="M2840,596.83a6.3,6.3,0,0,1-2.37-2.21,76,76,0,0,0-11.85,1.15c-4.07,1-8.18,1.84-12.21,3-7.72,2.17-7.23,3.19-4.73,10.33a5.69,5.69,0,0,1-.19,4.91c-1.46,3-2.94,5.95-4.38,8.93-2.48,5.12.63,12.44,6,14.2.5.16.57.45.56.87,4.84-.53,9.75-.12,14.57-1,2.12-.45,4.27-.79,6.34-1.4a10.07,10.07,0,0,0,5.49-3.79c1.23-1.7.53-2.86-.73-3.76a7,7,0,0,1-2.18-2.39c-1.06-.87-2.15-.28-3.22-.09-4.86,1.68-9.91,1.81-15,2-.39,0-.78,0-1.16,0-1.7.14-2.11-.48-1.24-2a17.4,17.4,0,0,0,1.11-2.3,3.42,3.42,0,0,1,4.41-2.29l7.55-.15a26.06,26.06,0,0,0,6.89-3.66c1.63-1.3,1.61-2.22-.18-3.33-1.37-.85-2.81-1.63-3.34-3.32-2.72-.62-5.35.73-8.07.33-.67-.07-1.35-.17-2-.2-1.16,0-1-1.09-1.22-1.71-.33-.77.5-.68.92-1,1.77-1.16,3.73-.85,5.64-.88,1.93-1.83,4.48-1.87,6.86-2.35,3-.6,6-.94,8.24-3.45C2842.25,599.44,2842.17,598,2840,596.83Z" transform="translate(-2708.21 -440.62)" style="fill:#c70039"/><path d="M2964.75,607.13h0l0,0Z" transform="translate(-2708.21 -440.62)" style="fill:#c70039"/><path d="M2979.31,596.82a5.42,5.42,0,0,1-2.35-2.22c-2.75.57-5.63-.44-8.32.7-5.66,1-11.25,2.34-16.82,3.76a14.14,14.14,0,0,0-2.22.75c-2.68,1.19-3,2.17-2.59,5.12a12.25,12.25,0,0,0,1.85,5.49c.66.9,0,1.67-.31,2.41a94.74,94.74,0,0,1-4.5,9.29c-1.69,2.78-.79,5.47-.54,8.23.42,4.76,3.69,6.48,7.79,7.3,4.52,0,9,.13,13.53-.65,2-.45,4.07-.85,6.08-1.36a9.73,9.73,0,0,0,5.15-3c1.69-2,1.52-3.22-.48-4.9a22,22,0,0,1-1.92-2.05c-1-1-2.14-.14-3.22-.08-4.81,1.72-9.85,1.75-14.86,1.95-3.39.08-3.33.11-1.87-3,1-2.18,2-4.3,5-3.5l7.51-.15a26.43,26.43,0,0,0,6.92-3.67c1.5-1.18,1.57-2.22,0-3.23-1.38-.88-2.77-1.71-3.26-3.41-2.73-.56-5.4.64-8.12.33-.95-.62-2.29.85-3.1-.57-.72-1.26.35-2.78,2.36-3.09a25.9,25.9,0,0,1,3.74-.07c2.73-2.28,6.24-2,9.42-2.82,2.25-.57,4.36-1.23,5.88-3.14S2981.31,597.9,2979.31,596.82Z" transform="translate(-2708.21 -440.62)" style="fill:#c70039"/><path d="M2883.34,617.05a1.22,1.22,0,0,1-.83-1.28,3.16,3.16,0,0,0-.43-.16c-2.56,1-3.46-.4-3.86-2.66-.72-4.14-1.86-8.24-2.21-12.41-.26-3.2-1.8-4.39-4.57-4.83a5.87,5.87,0,0,1-1.28-.53c-1,.08-2.06-1.7-3,.08a16.73,16.73,0,0,1-4.33,5.23c-.65.54-1.55,1.34-2.19,1.22-2.27-.43-3.39.85-4.2,2.51-4.28,8.74-8.8,17.38-12.08,26.58-.71,2,.6,3.55,1.57,5.11a11.35,11.35,0,0,0,1.42,1.53,6.72,6.72,0,0,0,2.79-.06c2.12-1.4,4-2.83,4.18-5.79a6.05,6.05,0,0,1,2.16-4.53c-.34-1.54,1.66-2.07,1.54-3.63.93,1.6,1.1,3.55,2.64,4.71,2.88.23,5.7-.39,8.54-.63,1.08-.85,2.56-1.35,3.2,0s-.3,2.77-1.93,3.13c-2.49.54-2.48,1.42-.68,3,1.22,1.06.86,3.31,2.79,3.91a6.74,6.74,0,0,0,3.25,0,25.36,25.36,0,0,0,4-3.1,8,8,0,0,0,1.9-8c-.38-1.46-.23-2.57,1.32-3.18a3.74,3.74,0,0,0,.8-.51C2887.26,619.93,2887.17,619,2883.34,617.05Zm-15.26,1.44c-2.11.17-4.2.74-6.35.52-.59-.07-1.49,0-.76-1,1.32-1.9,2.25-4.08,4-5.72.72-.92,1.45-1.83,2.34-2.95a57.26,57.26,0,0,1,2.12,8.06C2869.64,618.55,2868.67,618.45,2868.08,618.49Z" transform="translate(-2708.21 -440.62)" style="fill:#c70039"/><path d="M2736.72,606.15c2.54-.78,5.05-1.8,7.8-1.32l12.53-.15c2.17-1.26,2.19-2.57,1-4.89-1.79-3.55-4-5.89-8.12-5.88h-2.84c-5.41.87-10.57,2.67-15.8,4.19a37.73,37.73,0,0,0-8.16,3.54c-3.37,1.92-5,6.34-3.49,9.73,1.27,2.88,4.18,3.49,7,3.85,1.75.21,3.55.18,5.19,1l-.06,0c3.06-.47,5.57,1.19,8.2,2.25,1.71.69.91,1.89.19,2.88-2.3,3.13-5.85,4.32-9.19,5.79a16.37,16.37,0,0,1-8.21,1.42c-1.82,3.41-.94,6.51,1.11,9.47l4.51,0a35.12,35.12,0,0,0,12.54-5.32,18,18,0,0,0,5.84-6.37c2.52-5.06,1-7.66-1.69-11.14-.23-.3-.8-.49-.82-.77-.4-4.11-4-4.68-6.76-6.23-.33-.19-.75-.22-1.06-.43s-.85-.54-.74-1.1S2736.38,606.25,2736.72,606.15Z" transform="translate(-2708.21 -440.62)" style="fill:#c70039"/><path d="M2722.79,628.5h0l0,0Z" transform="translate(-2708.21 -440.62)" style="fill:#c70039"/><path d="M3059,593.91h-2.9c-5.48.85-10.7,2.7-16,4.23a34,34,0,0,0-8.1,3.61,7.67,7.67,0,0,0-3.43,9.4c1.1,3,4.05,3.63,6.87,4.05,1.81.26,3.69.19,5.4,1l-.06,0c3.07-.47,5.56,1.26,8.24,2.23,1.25.45,1.22,1.44.59,2.27a10.73,10.73,0,0,1-2.89,3.06c-4.62,2.65-9.31,5.23-14.94,4.8-1.73,3.41-.93,6.51,1.16,9.45l4.45,0c5.59-1.35,10.87-3.38,15.14-7.41,2.71-2.56,4.67-5.49,4.47-9.48a6.6,6.6,0,0,0-1-3.29c-1.16-1.87-2.59-3.51-3.47-5.63-.95-2.31-3.67-3-5.82-3.94-.89-.4-1.74-.59-2.11-1.76,3-.74,5.75-2.14,8.91-1.6l12.49-.15c2.64-1.87,2.39-1.76,1.07-4.74C3065.4,596.29,3063.16,593.89,3059,593.91Z" transform="translate(-2708.21 -440.62)" style="fill:#c70039"/><path d="M3031.7,628.52h0s0,0,0,0Z" transform="translate(-2708.21 -440.62)" style="fill:#c70039"/></svg>