<?xml version="1.0" encoding="utf-8"?>
<!-- Generator: Adobe Illustrator 23.0.5, SVG Export Plug-In . SVG Version: 6.00 Build 0)  -->
<svg version="1.1" id="Layer_1" xmlns="http://www.w3.org/2000/svg" xmlns:xlink="http://www.w3.org/1999/xlink" x="0px" y="0px"
	 viewBox="0 0 1000 1000" style="enable-background:new 0 0 1000 1000;" xml:space="preserve">
<style type="text/css">
	.st0{fill:#FDFC00;}
	.st1{fill:#FC0001;}
</style>
<rect class="st0" width="1000" height="1000"/>
<g>
	<path d="M599.43,550.07c-2.28,0.41-4.62,0.41-6.9,0c-10.62-10.32-14.97-23.11-15.55-37.72c-0.54-14.87,0.75-29.75,3.82-44.3
		c2.7-13.08,4.72-26.36,10.28-38.74c0.85-1.87,1.3-5.2-0.51-6.63c-1.99-1.32-4.62-1.11-6.37,0.51c-1.07,1.46-2.29,2.79-3.65,3.97
		c-18.58,13.02-37.36,25.76-58.13,35.19c-12.34,5.66-25.34,9.75-38.7,12.15h-16.8c-0.53-0.38-1.12-0.66-1.74-0.85
		c-13.57-1.97-25.8-9.27-33.98-20.28c-4.93-6.24-8.35-13.38-12.42-20.67c-1.77,2.19-3.2,4.63-4.25,7.24
		c-6.35,9.58-10.73,20.33-12.89,31.63c-1.42,7.71-3.27,14.34-9.28,19.96c-4.61,3.85-6.83,9.85-5.86,15.78
		c0.79,2.72-0.28,5.64-2.63,7.22c-4.12,3.5-8.3,7.45-8.39,13.08c-0.17,8.5-4.78,15.08-8.5,22.11c-2.47,5.37-7.37,9.24-13.17,10.39
		h-6.12c-7.75,0.17-10.75-5.59-13.72-11.19c-1.76-3.38-3.3-6.88-4.59-10.47c-6.65-17.03-8.61-35.54-5.65-53.59
		c1.32-7.69,4.95-14.87,8.05-21.88c19.31-44.2,36.11-89.54,62.4-130.45c9.54-14.87,17.1-31.24,34.53-39.04
		c2.16-1.24,4.81-1.24,6.97,0c5.03,3.14,10.49,5.88,11.13,12.89c0.17,1.87,1.87,2.85,3.44,3.33c4.25,1.27,8.5,2.48,12.93,3.38
		c1.85,0.13,3.54,1.1,4.59,2.63c4.42,7.6,9.73,14.63,13.83,22.47c3.8,6.54,4.57,14.4,2.12,21.56c-0.95,2.02-0.95,4.35,0,6.37
		c1.64,2.99,1.02,5.93,0.79,9.15c-0.96,13.21-2.29,17.9,11.66,19.69c6.21,0.59,12.42-1.03,17.54-4.59
		c7.5-4.82,16.29-8.09,22.9-13.68c13.04-11,25.98-22.17,38.8-33.49c11.26-9.92,21.45-20.71,27.23-34.85
		c1.02-2.75,3.08-4.98,5.73-6.22h10.41c0.23,0.25,0.42,0.59,0.7,0.7c7.26,2.97,15.93,3.87,19.12,12.98c0.32,0.79,0.93,1.42,1.7,1.78
		c7.37,3.48,11.53,9.64,14.63,16.84c0.96,1.58,2.14,3.01,3.5,4.25c0.87,1.02,2.49,2.12,2.46,3.04c-0.13,6.67,3.02,12.47,5.01,19.12
		c-1.25,0.07-2.51,0.07-3.76,0c-3.08-0.38-3.87,1.06-3.21,3.82c1.87,6.82,1.42,14.07-1.27,20.6c-3.21,7.18-3.19,14.53-2.85,22.02
		c0.86,10.85-1.09,21.75-5.67,31.63c-0.76,1.68-1.04,3.53-0.83,5.35c0.56,10.02-0.22,20.07-2.34,29.88
		c-4.38,21.96-13.78,42.14-22.64,62.51c-0.66,1.51-1.32,3.08-3.14,3.59C612.75,541.98,606.69,547.18,599.43,550.07z"/>
	<path d="M293.98,290.24c10.62-0.51,21.24-1.74,31.86-0.93c5.39,1.49,11.28,2.23,15.21,6.69c6.07,6.92,13.42,12.42,20.24,18.48
		c4.99,4.44,5.73,14.65,3.97,19.43c-0.81,2.39-2.76,4.22-5.2,4.86c-2.91,0.58-5.64,1.84-7.96,3.7l-34.92,1.17
		c-16.4,0.21-32.43,3.29-48.4,6.63c-13.61,2.82-27.14,5.99-39.61,12.59c-2.63,1-4.33,3.56-4.25,6.37
		c-0.25,6.78-0.89,13.59-5.18,19.43c-1.65,2.51-2.67,5.37-2.99,8.35c-0.72,4.55-1.15,9.2-3.97,13.23c-1.72,2.46-1.17,5.35-0.42,8.22
		c0.74,2.87,2,3.99,4.74,2.12c8.03,0.3,15.87-1.57,23.79-2.44c6.92-0.76,13.76-2.42,20.64-3.67c11.32,0.23,22.58-2.02,33.98-0.91
		c-2.51,3.12,1.36,6.37-0.15,9.52c0.28,0.16,0.58,0.3,0.89,0.4c4.38,0.91,6.2,4.8,8.77,7.69c3.8,4.25,3.38,8.11-0.19,12.91
		c-5.1,6.92-11.09,13.19-15.53,20.6c-2.12,1.21-4.25-0.55-6.37,0c-4.18-0.16-8.36,0.25-12.42,1.23c-8.83,2.5-17.89,4.08-27.04,4.72
		c-16.86,1.83-33.03,7.31-49.95,8.67c-3.82,0.32-9.01,1.36-9.75,6.37c-0.93,6.37-7.45,10.85-5.99,17.97c0,0.36-0.42,0.85-0.7,1.25
		c-3.72,5.67-7.14,11.32-5.01,18.67c0.93,2.34,1.34,4.86,1.19,7.37c-1.13,9.75-6.77,18.4-15.23,23.36h-6.95
		c-1.29-1.04-2.84-1.73-4.48-2c-8.5-1.76-14.34-7.16-18.41-14.63c-0.13-0.31-0.28-0.61-0.47-0.89c-6.92-7.35-7.58-16.38-7.07-25.78
		c0.51-9.41,4.52-18.33,6.73-27.61c0.49-2.12,0.76-3.31-1.32-4.57c-10.39-6.27-15.38-16.29-18.8-27.38
		c-3.16-10.3-0.55-18.97,7.12-26.38c4.99-4.82,11.49-6.52,17.56-9.09c2.85-1,5.96-0.95,8.77,0.13l5.05,4.25
		c4.14,3.19,6.69,2.61,8.16-2.51c2.51-8.73,6.37-16.99,8.37-25.95c1.13-4.78-0.87-6.37-4.25-6.63c-6.82-0.4-10.32-4.67-13.61-9.75
		c-3.04-4.72-5.12-10.24-10.39-13.21c-1.08-0.46-1.58-1.71-1.12-2.79c0.1-0.23,0.24-0.45,0.42-0.63c2.12-2.78,1.27-5.42,0.23-8.39
		c-2.46-7.05,2.97-16.99,10.22-19.12c10.62-3.29,21.41-6.14,31.86-10.09c11.94-4.55,24.38-7.39,36.23-12.28
		c6.24-2.57,13.42-2.63,20.09-4.95c12.97-4.18,26.21-7.45,39.63-9.77C278.99,292.77,286.51,291.56,293.98,290.24z"/>
	<path d="M906.11,342.47c-11.81,0-23.58,0.49-35.34,1.3c-9.6-0.66-18.92,1.44-28.29,2.93c-20.67,3.29-41.23,6.97-60.21,16.42
		c-2.16,0.86-3.54,3-3.44,5.33c-0.36,5.14,0.3,11.62-2.53,15.02c-6.99,8.5-4.46,19.73-10.36,28.18c-1.36,1.91-0.55,4.61,0,6.84
		c0.74,2.57,2.12,4.25,5.05,2.12c12.19-0.32,24.11-2.99,36.11-4.46c6.58-0.79,13.13-1.81,19.69-2.72h21.81
		c-2.02,3.04,1.98,6.1,0,9.18c0.32,0.32,0.7,0.58,1.13,0.74c3.89,0.7,5.46,4.12,7.82,6.63c4.61,4.91,4.65,9.35,0.51,14.55
		c-5.27,6.65-10.41,13.4-15.61,20.11l-9.15,0.25c-2.48-0.23-4.99,0-7.39,0.68c-5.28,1.43-10.65,2.47-16.08,3.12
		c-21.01,2.12-41.35,7.99-62.29,10.43c-3.46,0.4-7.88,1.15-9.64,5.29c-3.4,8.05-6.75,16.12-9.85,24.3
		c-2.47,5.49-3.21,11.6-2.12,17.52c2.53,12.25-4.08,21.41-14.12,28.14h-7.01c-1.07-0.74-2.23-1.33-3.46-1.76
		c-9.66-1.7-15.74-7.82-20.22-15.99c-0.23-0.44-0.49-0.87-0.79-1.27c-6.48-8.03-7.03-17.25-5.71-26.99
		c1.19-8.75,4.59-16.99,6.65-25.49c0.53-2.12,0-2.87-1.44-3.89c-10.75-7.12-16.31-17.48-19.12-29.73
		c-1.92-7.53-0.03-15.52,5.05-21.39c5.16-6.52,12.74-8.81,19.88-11.75c2.91-0.55,5.84-1.34,8.73,0.15l4.78,3.53
		c4.46,3.99,7.35,3.53,8.84-2.32c2.12-8.62,6.54-16.48,8.16-25.49c0.93-5.05-0.81-6.71-4.5-6.95c-6.2-0.4-9.47-4.25-12.51-8.77
		c-2.27-4.07-4.93-7.92-7.94-11.49c-2.89-2.93-6.37-4.78-2.34-9.2c0.93-1.04-0.34-2.12-0.72-3.23c-3.2-8.65,1.22-18.25,9.86-21.45
		c0.36-0.13,0.73-0.25,1.1-0.36c9.64-2.48,19.12-5.69,28.46-8.81c14.44-4.78,28.93-9.41,43.35-14.19c2.76-0.91,5.59,0,8.5-1.06
		c18.54-7.6,38.23-10.98,57.81-14.42c7.33-1.3,14.76-2.02,22.15-2.97h20.47c4.02,0.78,7.91,2.09,11.58,3.91
		c3.55,2.12,5.42,5.88,8.67,8.24c6.01,4.53,11.62,9.56,16.78,15.04c5.41,5.7,5.18,14.71-0.52,20.12c-1.42,1.35-3.1,2.39-4.94,3.05
		C909.53,340.29,907.77,341.31,906.11,342.47z"/>
	<path d="M577.69,678.52c3.63,1.38,7.41-2.12,11,0.38c7.77,7.45,7.62,12.3-0.21,18.35c-2.47,1.94-5.52,2.99-8.67,2.97
		c-3.31,0.23-6.61,1.21-9.98,0.64c-0.15-0.59,0.13-1.44-0.76-1.66c-11.76-2.42-22.39-8.65-30.24-17.73
		c-2.38-2.72-4.25-1.47-6.37,0.47c-3.27,1.72-4.65,5.1-6.75,7.84c-4.5,5.9-7.94,12.74-14.25,16.99c-1.79,1.49-4.39,1.49-6.18,0
		c-6.18-5.21-9.21-13.25-8.01-21.24c0.97-7.96,2.98-15.77,5.97-23.21c6.37-15.36,9.79-32.01,19.37-46.05c2.29-2,4.63-0.66,6.95-0.11
		c1.97,1.37,4.01,2.64,6.12,3.8c4.52,2.1,6.49,7.47,4.39,11.99c-0.23,0.5-0.5,0.97-0.82,1.41c-2.1,3.06-3.64,6.47-4.55,10.07
		c-1.32,2.12-2.95,4.01-1.85,6.75c6.61-4.89,13.44-9.43,19.67-14.7c6.22-5.27,14.34-8.3,20.56-13.83c1.98,0,3.87-2.78,5.97-0.23
		c0.82,1.23,1.92,2.24,3.21,2.95c9.3,6.1,9.69,10.75,0.87,17.31c-9.6,7.14-20.26,12.74-29.25,20.77c-4.25,3.87-4.89,4.25-1.3,8.5
		c1.13,1.23,2.42,2.29,3.84,3.16C562.95,678.39,570.3,678.58,577.69,678.52z"/>
	<path d="M280.75,616.52c2.12-3.91,4.25-0.34,6.27-0.11c1.87,2.1,4.12,3.83,6.63,5.1c4.63,2.58,6.74,8.12,4.99,13.13
		c-3.95,8.31-6.37,17.27-7.16,26.44c-0.72,16.8-9.15,32.33-22.83,42.1c-2.39,0.85-5,0.85-7.39,0c-7.81-4.96-14.07-12.01-18.07-20.35
		c-0.68-1.4-0.66-3.91-2.44-3.82s-2.12,2.68-2.85,4.25c-0.14,0.48-0.21,0.98-0.21,1.49c-2.13,1.28-3.67,3.36-4.25,5.78
		c-1.53,5.65-2.76,11.28-7.54,15.25c-1.99,0.62-4.11,0.62-6.1,0c-3.55-3.95-6.3-8.55-8.09-13.55c-1.98-5.46-2.7-10.62,0.21-16.42
		c9.64-19.37,19.46-38.7,27.87-58.66c2.02-3.82,4.06,0.28,6.07,0l5.27,3.57c8.9,6.07,11.04,11.36,7.52,20.92
		c-3.53,9.56-2.74,19.24-2.44,29.08c-0.5,1.67-0.21,3.48,0.79,4.91c2.77-1.45,5.2-3.47,7.14-5.93c5.25-6.82,7.52-14.72,9.05-22.94
		c1.1-5.86,1.38-12.02,3.4-17.54C278.24,625.07,279.64,620.83,280.75,616.52z"/>
	<path d="M735.84,615.03c2.49-0.32,4.99-1.74,7.39,0.19c9.77,7.18,17.35,15.87,21.39,27.61c3.5,10.24,1.7,17.67-7.45,23.64
		c-6.88,4.48-14.99,6.07-22.47,9.11c-1.23,0.49-2.93,0.51-3.08,2.12c-0.15,1.61,1.72,1.76,2.72,2.53c8.24,6.37,18.2,7.62,27.91,9.73
		c3.91,0.85,8.71-0.13,10.62,5.44c2.63,7.82,0.87,12.3-6.84,15.53h-6.37c-0.55-0.32-1.13-0.59-1.72-0.81
		c-13.95-3.84-27.87-7.79-39.27-17.39c-1-0.83-1.66-2.93-3.42-1.98c-1.76,0.96-0.87,2.7-0.83,4.14c-2.12,3.89-2.55,8.92-7.37,10.98
		c-2.25,1.87-4.55,0.89-6.84,0.13c-4.46-3.16-5.18-8.5-5.46-12.89c-0.57-9.07,2.12-18.07,3.93-26.89c1.81-8.81,3.7-18.01,6.37-26.8
		c0.53-1.42,1.85-1.04,2.91-1.3c3.04,2.23,5.54,1.76,7.71-1.36c1.21-1.78,2.74-3.33,4.01-5.08
		C724.35,625.4,728.72,618.88,735.84,615.03z M724.41,656.39c1.19,2.32,3.06,1.19,4.55,0.7c4.38-1.44,8.64-3.25,13.02-4.63
		c3.63-1.15,4.14-3.27,2.44-6.24c-1.06-1.88-2.47-3.55-4.14-4.91c-2.48-2.12-4.25-2.12-5.76,0.96
		C730.4,646.42,725.58,650.12,724.41,656.39L724.41,656.39z"/>
	<path d="M354.96,705.85c-10.26,1.83-20.67,0.96-30.97,2.12c0.17-0.84-0.36-1.66-1.19-1.85c-11.47-3.74-18.07-19.26-12.74-30.14
		c3.06-6.37,6.22-12.74,9.3-18.99c1.72-3.23,1.87-7.06,0.4-10.41c-5.31-15.16-6.37-17.35,10.05-21.94
		c8.5-2.42,17.29-4.25,25.95-6.37c8.31-1.47,16.71-2.29,25.15-2.44c1.25,1.98,2.98,3.6,5.03,4.72c4.52,2.46,4.69,5.52,1.17,9.54
		c-4.69,5.31-11.15,6.03-17.5,7.33c-5.08,1.02-10.62,1.08-14.61,5.01l0,0c-4.1,0-8.24-0.57-12.02,1.87
		c-0.87,0.59-2.63,0.38-1.93,2.02c0.7,1.64,0.13,3.55,2.57,3.65c1.44,0,2.89,0.25,4.25,0.4c5.76,0.87,11.36-2,17.14-0.7
		c1.13,3.59,4.25,5.25,7.09,7.05c3.78,2.36,3.84,4.25,0.38,7.09c-4.47,3.3-9.41,5.91-14.65,7.75l-16.04,0.34
		c-3.77-1.32-7.91,0.66-9.23,4.44c-0.05,0.14-0.09,0.28-0.13,0.43c-0.67,1.68-1.45,3.31-2.34,4.89c-1.85,3.16-1,4.48,2.61,4.25
		c0.83,0,1.66,0,2.48,0c10.73-0.3,21.45-0.59,31.86-4.14c2.29-0.42,4.61-1.66,6.84,0.17c1.13,2.03,2.71,3.77,4.63,5.08
		c2.7,1.93,4.25,4.4,1.55,7.99c-2.86,3.93-6.97,6.77-11.66,8.05C364.01,704.17,359.44,704.87,354.96,705.85z"/>
	<path d="M659,617.28c5.71-2.42,11.83-0.28,17.67-1.47c1.15,2.04,2.89,3.68,4.99,4.72c4.25,2.27,4.63,5.35,1.57,9.22
		c-3.06,3.87-7.71,5.48-12.49,6.67c-6.78,1.72-14.25,1.15-20.05,6.05l0,0c-2.65-0.15-5.3-0.11-7.94,0.13
		c-4.25,0.66-6.56,3.89-5.01,6.58c1.55,2.7,4.55-0.13,6.56,1.19c5.8,0.66,11.45-1.87,17.25-0.7c1.06,3.63,4.01,5.39,6.92,7.26
		c3.36,2.12,3.21,4.35,0,6.84c-4.47,3.33-9.42,5.96-14.68,7.79l-15.97,0.34c-6.37-1.7-8.5,2.78-10.62,7.41
		c-3.12,6.67-3.23,6.63,3.95,6.37c10.62-0.4,21.35-0.49,31.58-4.12c2.27-0.15,4.61-1.93,6.82,0.17c1.27,1.53,2.63,2.99,4.08,4.35
		c4.25,3.55,4.63,6.22,1.04,10.39c-2.9,3.21-6.73,5.44-10.96,6.37c-4.25,1.1-8.6,1.93-12.89,2.89c-9.54,1.66-19.12,1.32-28.76,1.38
		c-8.71-1.74-15.65-5.39-16.55-15.48c-0.53-5.88-2.42-11.6,1.15-17.5c3.55-6.38,6.75-12.97,9.56-19.71
		c0.72-1.57,2.12-3.21,0.66-5.14c-2.23-3.51-3.57-7.5-3.93-11.64c-0.98-6.27-0.17-8.35,5.5-10.9c1.52-0.66,3.1-1.19,4.72-1.57
		C635.1,622.27,647,619.49,659,617.28z"/>
	<path d="M407.29,706.68c-1.95,0.45-3.96,0.49-5.93,0.13c-1.11-1-2.13-2.09-3.04-3.27c-2.12-3.29-4.84-6.61-3.33-10.85
		c6.97-19.52,16.59-37.87,25.66-56.45c1.72-3.5,4.1-6.22,8.92-5.31c1.36,0.25,3.27-1.44,4.65-2.59c3.78-3.05,6.91-6.82,9.2-11.11
		c2.12-3.78,4.25,0,6.37-0.19c0.86,0.49,1.77,0.86,2.72,1.13c5.88,0.96,9.15,3.48,9.73,10.26c0.72,8.86,3.14,17.56,4.69,26.38
		c0.83,4.8,2.74,7.69,8.18,5.63c0.32,0.09,0.62,0.21,0.91,0.36c-0.11,1.21,0.62,2.33,1.76,2.72c8.16,4.08,8.33,6.12,1.08,11.85
		c-0.51,0.45-1.08,0.81-1.7,1.08c-3.29,1.3-3.61,3.67-2.78,6.78c1.89,5.98,0.33,12.51-4.06,16.99c-2.59,2.49-5.44,4.69-8.5,6.58
		c-2.27,0.56-4.64,0.56-6.9,0c-4.1-1.27-3.33-6.07-5.93-8.3c-3.82-3.29-3.84-5.18,1.47-6.37c3.44-0.74,5.59-3.61,4.1-6.65
		c-1.49-3.04-4.52-1.7-6.82,0.11c-6.03,0.51-12.02,1.85-18.14,1.34c-3.27-2.44-3.63-6.58-5.61-9.98c0.28,3.29-3.99,4.42-3.27,7.69
		c-2.83,2.41-4.5,5.91-4.59,9.62C415.77,700.65,411.77,703.68,407.29,706.68z M431.95,667.66c4.55,0.45,8.98-0.74,13.47-1.1
		c1.25-0.11,3.33,0.13,2.78-2.34c-1.07-5.81-2.58-11.53-4.5-17.12c-1.89,2.38-3.42,4.25-4.97,6.37c-3.63,3.48-5.59,8.11-8.5,12.15
		C428.76,667.75,430.68,667.49,431.95,667.66z"/>
	<path d="M148.83,707.85h-9.58c-4.25-6.37-6.24-12.93-2.32-20.2l0,0c6.01,0.52,12.04-0.53,17.52-3.04c7.07-3.1,14.61-5.65,19.5-12.3
		c1.53-2.12,3.23-4.65-0.4-6.12c-5.59-2.25-10.9-5.78-17.42-4.76h0.13c-3.48-1.7-7.31-1.64-11.02-2.12
		c-6.05-0.74-12.23-2.12-14.87-8.16c-3.21-7.22,0.25-16.61,7.41-20.69c5.46-3.17,11.28-5.69,17.33-7.5
		c11.11-3.25,22.09-7.07,33.56-8.92h6.05c8.79,0,13.44,4.93,17.22,12.47c2.46,4.95,2.42,7.71-2.12,10.39l-26.59,0.34
		c-5.86-1.04-11.17,1.13-16.59,2.78c-0.72,0.21-1.83-0.19-2.12,0.91c-0.3,1.1,0.76,1.81,1.55,2.34c0.79,0.53,1.55,0.51,2.25,0.91
		c5.8,3.29,13.51,4.5,14.36,13.23c0,0.59,1.25,1,1.74,1.64c5.84,7.41,8.96,12.93,3.59,23.68c-2.97,5.57-7.28,10.31-12.53,13.81
		C167.43,702.03,158.38,705.87,148.83,707.85z"/>
	<path d="M844.65,614.31h6.24c8.94,0,13.72,5.08,17.14,12.74c2.8,6.37,3.33,6.1-2.27,10.07l-26.53,0.34
		c-6.69-1.17-12.59,1.81-18.92,3.38c0.79,2.51,2.61,2.89,4.48,3.74c4.59,2.12,10.34,3.46,12.38,8.37c1.85,4.5,4.88,8.01,7.35,11.96
		c1.32,2.1,2.05,4.51,2.12,6.99c0.4,8.5-3.76,14.7-9.52,20.13c-9.07,8.5-20.26,12.87-32.16,15.74h-9.45
		c-4.46-6.37-6.14-12.91-2.42-20.18h-0.11c11.98,0.96,21.98-4.55,31.86-10.17c2.45-1.75,4.54-3.96,6.16-6.5
		c1.32-1.78,1.38-3.87-1.27-4.84c-5.69-2.12-10.96-5.73-17.5-4.74h0.13c-3.63-1.72-7.6-1.57-11.47-2.12
		c-5.99-0.87-12.23-2.12-14.59-8.6c-2.83-7.53,0.26-16.01,7.28-19.94c5.37-3.31,11.15-5.89,17.2-7.67
		C821.92,620.04,833.01,616.12,844.65,614.31z"/>
	<path class="st1" d="M597.25,546.3c7.22-2.89,13.32-8.09,20.94-10.13c1.83-0.51,2.48-2.12,3.14-3.59
		c8.86-20.37,18.27-40.55,22.64-62.51c2.12-9.81,2.9-19.86,2.34-29.88c-0.21-1.83,0.07-3.68,0.83-5.35
		c4.58-9.88,6.53-20.77,5.67-31.63c-0.34-7.5-0.36-14.87,2.85-22.02c2.7-6.54,3.15-13.78,1.27-20.6c-0.66-2.76,0.13-4.25,3.21-3.82
		c1.25,0.07,2.51,0.07,3.76,0c-2-6.54-5.14-12.34-5.01-19.12c0-1-1.59-2.02-2.46-3.04c-1.37-1.24-2.55-2.67-3.5-4.25
		c-3.1-7.2-7.26-13.36-14.63-16.84c-0.77-0.36-1.38-1-1.7-1.78c-3.12-9.11-11.79-10-19.12-12.98c-0.28-0.11-0.47-0.45-0.7-0.7
		c9.28-1.34,16.55,3.82,24.26,7.48c1.21,7.75,8.5,9.71,13.36,13.95c2.76,2.42,2.51,6.73,5.05,9.09c6.01,5.61,7.6,13.04,9.39,20.52
		c0.79,2.7,1.73,5.35,2.82,7.94c-2.32,1.38-4.38-0.45-6.58-0.11c-0.69,2.06-0.72,4.29-0.11,6.37c1.37,5.06,0.98,10.43-1.13,15.23
		c-3.09,7.7-4.17,16.06-3.16,24.3c0.96,7.88-1.4,15.57-2.12,23.36l0,0c-1.15-0.34-0.81,0.53-0.85,1.08
		c-1.47,2.72-3.06,5.33-4.25,8.22c-2.7,6.37-0.74,12.49,0.25,18.71c-1.81,24.26-11.45,46.17-20.41,68.3
		c-3.21,7.96-6.78,15.19-16.29,17.39c-3.27,0.76-6.14,3.29-9.26,4.86C604.55,546.53,600.82,547.07,597.25,546.3z"/>
	<path class="st1" d="M351.77,556.41c5.8-1.15,10.7-5.01,13.17-10.39c3.63-7.03,8.24-13.57,8.5-22.11c0-5.63,4.25-9.58,8.39-13.08
		c2.35-1.58,3.42-4.5,2.63-7.22c-0.97-5.93,1.26-11.93,5.86-15.78c6.01-5.63,7.86-12.25,9.28-19.96
		c2.16-11.29,6.54-22.04,12.89-31.63c1.82,1.89,3.15,4.19,3.89,6.71c-5.56,10.87-10.07,22.11-10.81,34.47
		c-0.21,1.82-1.18,3.47-2.68,4.55c-4.33,3.96-7.75,8.82-10.02,14.23c-0.98,2.57-2.29,5.1-0.74,8.13c0.86,1.94,0.15,4.22-1.66,5.33
		c-6.86,5.2-8.39,12.74-10.62,20.58c-3.04,10.24-6.37,21.81-18.9,25.83C357.94,556.77,354.83,556.89,351.77,556.41z"/>
	<path class="st1" d="M494.22,391.13c-13.95-1.78-12.62-6.48-11.66-19.69c0.23-3.23,0.85-6.16-0.79-9.15
		c-0.95-2.02-0.95-4.35,0-6.37c2.45-7.15,1.67-15.02-2.12-21.56c-4.1-7.84-9.41-14.87-13.83-22.47c-1.05-1.53-2.74-2.5-4.59-2.63
		c-4.38-0.89-8.67-2.12-12.93-3.38c-1.57-0.49-3.27-1.47-3.44-3.33c-0.64-7.01-6.1-9.75-11.13-12.89
		c6.92-2.12,16.59,3.21,17.97,10.47c0.34,3.05,2.7,5.49,5.73,5.95c4.25,1.1,8.64,2.25,13.02,3.23c0.98,0.18,1.83,0.79,2.32,1.66
		c4.99,8.26,10.85,15.97,15.12,24.7c3.06,6.37,2.8,12.47,2,19.35c-1.08,9.39,0,19.12,0.17,28.59c0.11,3.5,3.23,4.69,5.67,6.37
		C495.14,390.22,494.25,390.07,494.22,391.13z"/>
	<path class="st1" d="M711.88,554.42c10.05-6.73,16.65-15.89,14.12-28.14c-1.08-5.92-0.34-12.03,2.12-17.52
		c3.1-8.18,6.37-16.25,9.85-24.3c1.76-4.14,6.18-4.89,9.64-5.29c20.94-2.44,41.29-8.3,62.29-10.43c5.43-0.65,10.8-1.69,16.08-3.12
		c2.4-0.68,4.91-0.91,7.39-0.68c-3.82,3.23-8.71,2.97-13.19,3.74c-17.69,3.04-35.66,4.38-52.97,9.75
		c-5.29,1.64-11.32-0.21-16.72,2.36c-1.36,0.64-3.25,0.83-3.78,2.12c-2.55,6.37-7.05,12.04-7.37,19.29c0,0.81,0.15,1.95-0.3,2.4
		c-6.37,6.37-7.28,13.64-4.91,22.19c2.48,8.94-6.24,24.23-14.87,27.38C716.87,554.78,714.34,554.86,711.88,554.42z"/>
	<path class="st1" d="M157.95,554.42c8.46-4.96,14.1-13.62,15.23-23.36c0.15-2.51-0.26-5.03-1.19-7.37c-2.12-7.35,1.3-13,5.01-18.67
		c0.28-0.4,0.76-0.89,0.7-1.25c-1.47-7.12,5.05-11.55,5.99-17.97c0.74-5.05,5.93-6.1,9.75-6.37c16.99-1.36,33.09-6.84,49.95-8.67
		c9.11-0.65,18.14-2.23,26.93-4.72c4.07-0.98,8.25-1.4,12.42-1.23c-9.69,4.01-20.13,4.35-30.29,6.07
		c-12.74,2.12-25.74,3.4-38.23,7.43c-5.01,1.64-10.28,0-15.38,1.7c-4.52,1.51-7.58,3.65-8.5,8.5c-1.08,5.29-5.84,9.32-5.16,15.42
		c0.17,1.64-3.1,2.34-3.57,4.8c-1.1,5.84-3.23,11-1.68,17.71c2.42,10.62-2.93,19.43-11.43,26.19
		C165.27,555.14,161.62,554.67,157.95,554.42z"/>
	<path class="st1" d="M765.94,710.88c7.71-3.23,9.47-7.71,6.84-15.53c-1.87-5.56-6.67-4.59-10.62-5.44
		c-9.71-2.12-19.67-3.4-27.91-9.73c-1-0.76-2.89-0.89-2.72-2.53c0.17-1.64,1.85-1.55,3.08-2.12c7.48-3.04,15.59-4.63,22.47-9.11
		c9.15-5.97,10.96-13.4,7.45-23.64c-4.04-11.79-11.62-20.47-21.39-27.61c1.53-1.42,3.85-1.56,5.54-0.34
		c8.5,5.37,15.84,12.06,19.73,21.62c1.61,3.97,3.97,7.75,4.25,12.17c0.72,9.81-4.1,16.76-14.42,20.94c-3.4,1.38-6.8,2.68-10.24,3.91
		c-3.44,1.23-6.84,2.29-10.79,3.61c4.96,4.7,11.09,7.99,17.76,9.52c5.84,1.21,11.51,3.21,17.61,3.38c4.65,0.15,6.63,3.46,7.16,7.67
		C781.16,708.06,777.49,711.52,765.94,710.88z"/>
	<path class="st1" d="M771.01,420.57c-2.85,2.12-4.25,0.49-5.05-2.12c-0.64-2.12-1.44-4.93,0-6.84c5.9-8.5,3.38-19.75,10.36-28.18
		c2.82-3.4,2.12-9.88,2.53-15.02c-0.1-2.33,1.28-4.47,3.44-5.33c18.99-9.45,39.55-13.13,60.21-16.42
		c9.37-1.49,18.69-3.59,28.29-2.93c-8.5,1.3-17.12,2.44-25.61,3.95c-18.67,3.31-37.34,6.61-54.52,15.27
		c-2.29,0.9-3.85,3.05-4.01,5.5c-1.15,7.09-0.98,14.63-5.97,20.86c-1.91,2.78-2.9,6.08-2.82,9.45c0,3.73-1.15,7.36-3.29,10.41
		c-2.07,2.95-2.31,6.8-0.64,9.98C773.01,419.91,771.14,418.44,771.01,420.57z"/>
	<path class="st1" d="M216.95,420.5c-2.74,1.93-3.95,0.91-4.74-2.12c-0.79-3.04-1.3-5.76,0.42-8.22c2.82-4.04,3.25-8.69,3.97-13.23
		c0.32-2.98,1.35-5.84,2.99-8.35c4.25-5.84,4.93-12.74,5.18-19.43c-0.09-2.81,1.62-5.37,4.25-6.37c12.47-6.61,26-9.77,39.61-12.59
		c15.97-3.33,32.01-6.37,48.4-6.63c-6.54,1.02-13.06,2.12-19.62,3.04c-17.9,2.47-35.53,6.62-52.65,12.4
		c-3.54,1.45-6.99,3.1-10.32,4.97c-1.27,0.58-1.96,1.95-1.68,3.31c0.38,3.4-1.4,6.56-1.36,9.85c0,6.61-5.5,10.87-6.65,16.84
		c-1.15,5.97-1.68,12.49-5.31,17.88c-1.72,2.55,0.36,4.82,0.21,7.24C218.92,419.87,217.2,418.61,216.95,420.5z"/>
	<path class="st1" d="M268.64,703.17c13.69-9.77,22.11-25.3,22.83-42.1c0.8-9.17,3.24-18.13,7.2-26.44
		c1.74-5.01-0.36-10.54-4.99-13.13c-2.51-1.27-4.76-2.99-6.63-5.1c0.59-1.74,1.59-2.53,3.33-1.36c4.25,2.93,9.09,5.22,12.74,9.18
		c3.93,3.71,4.44,9.78,1.19,14.1c-4.38,6.24-4.12,13.51-5.71,20.35c-1.49,6.37-1.4,13.08-3.91,19.41
		c-3.8,9.58-9.07,17.88-17.67,23.77C274.44,703.56,271.77,705.11,268.64,703.17z"/>
	<path class="st1" d="M804.91,707.85c11.89-2.87,23.09-7.16,32.16-15.74c5.76-5.44,9.92-11.66,9.52-20.13
		c-0.07-2.48-0.81-4.89-2.12-6.99c-2.46-3.95-5.5-7.45-7.35-11.96c-2.12-4.91-7.79-6.37-12.38-8.37c-1.87-0.85-3.7-1.23-4.48-3.74
		c6.37-1.57,12.23-4.55,18.92-3.38l-9.52,2.85c-0.85,0.25-2.12-0.38-2.32,1.13c-0.01,1.06,0.76,1.97,1.81,2.12
		c3.59,0.87,6.37,3.12,9.66,4.72c2.35,0.91,4.23,2.72,5.22,5.03c1.26,3.35,3.08,6.47,5.37,9.22c5.42,7.48,4.99,15.04,0.19,22.34
		c-8.13,12.4-20.58,18.46-34.45,22.02C811.85,708.07,808.34,708.37,804.91,707.85z"/>
	<path class="st1" d="M148.83,707.85c9.54-1.97,18.6-5.81,26.66-11.3c5.16-3.43,9.41-8.07,12.38-13.51
		c5.37-10.75,2.25-16.27-3.59-23.68c-0.49-0.64-1.68-1.04-1.74-1.64c-0.85-8.73-8.5-9.94-14.36-13.23c-0.7-0.4-1.59-0.47-2.25-0.91
		c-0.66-0.45-1.81-1.15-1.55-2.34c0.25-1.19,1.32-0.7,2.12-0.91c5.42-1.66,10.62-3.82,16.59-2.78l-9.47,2.85
		c-0.85,0.25-2.12-0.38-2.32,1.15c-0.01,1.07,0.77,1.97,1.83,2.12c3.61,0.85,6.37,3.12,9.69,4.72c2.34,0.93,4.23,2.75,5.25,5.05
		c1.01,2.75,2.44,5.33,4.25,7.65c8.01,10.62,4.91,20.33-0.93,26.99C180.84,700.66,165.25,707.91,148.83,707.85z"/>
	<path class="st1" d="M906.11,342.47c1.62-1.07,3.34-2,5.12-2.78c7.39-2.67,11.22-10.82,8.56-18.22c-0.67-1.85-1.71-3.53-3.05-4.96
		c-5.16-5.48-10.77-10.51-16.78-15.04c-3.25-2.36-5.12-6.18-8.67-8.24c-3.67-1.82-7.56-3.13-11.58-3.91
		c10.3-0.7,18.61,1.95,26.08,10.28c4.99,5.36,10.48,10.23,16.4,14.55c6.07,4.52,7.99,16.57,3.12,22.05
		c-3.76,4.25-9.39,5.18-14.68,6.37C909.13,342.74,907.61,342.7,906.11,342.47z"/>
	<path class="st1" d="M352.03,342.47c2.32-1.85,5.05-3.12,7.96-3.7c2.44-0.65,4.39-2.47,5.2-4.86c1.76-4.78,1.02-14.99-3.97-19.43
		c-6.82-6.05-14.17-11.55-20.24-18.48c-3.93-4.46-9.81-5.2-15.21-6.69c9.75-1.24,19.47,2.53,25.83,10.02
		c4.82,5.1,10.07,9.77,15.7,13.98c6.18,4.8,7.82,11.11,6.07,18.69c-0.7,3.84-3.66,6.87-7.48,7.67
		C361.33,341.03,357.1,343.75,352.03,342.47z"/>
	<path class="st1" d="M577.69,678.52c-7.39,0-14.74-0.13-21.24-4.4c-1.42-0.87-2.72-1.94-3.84-3.16c-3.59-4.25-3.02-4.63,1.3-8.5
		c8.98-8.07,19.65-13.64,29.25-20.77c8.81-6.56,8.5-11.21-0.87-17.31c-1.29-0.71-2.39-1.72-3.21-2.95c2.12,0.34,4.01-2.61,6.05-0.45
		c3.5,3.7,9.01,5.61,10.83,10.62c1.06,2.95-0.93,5.84-3.31,7.88c-2.35,2.13-4.9,4.02-7.62,5.65c-9.41,5.18-17.59,12.02-26.06,18.48
		c-1.75,0.97-2.39,3.18-1.41,4.94c0.2,0.36,0.45,0.67,0.76,0.95c3.82,4.75,9.43,7.72,15.5,8.22
		C575.14,677.86,576.57,677.48,577.69,678.52z"/>
	<path class="st1" d="M842.55,464.68c5.2-6.71,10.34-13.47,15.61-20.11c4.14-5.2,4.1-9.64-0.51-14.55
		c-2.36-2.51-3.93-5.93-7.82-6.63c-0.42-0.17-0.81-0.42-1.13-0.74c1.93-3.08-2.12-6.14,0-9.18c0.83,0,1.66-0.15,2.51-0.17
		c4.52,0,6.67,2.46,5.33,6.75c-0.66,2.12-0.15,2.68,1.74,3.55c4.17,2.16,7.51,5.64,9.49,9.9c1.74,2.97,1.41,6.71-0.83,9.32
		c-5.48,7.14-10.87,14.34-16.5,21.37C848.17,467,845.14,463.81,842.55,464.68z"/>
	<path class="st1" d="M289.1,464.6c4.44-7.41,10.43-13.68,15.53-20.6c3.57-4.8,3.99-8.5,0.19-12.91c-2.57-2.89-4.4-6.78-8.77-7.69
		c-0.31-0.1-0.61-0.24-0.89-0.4c1.51-3.14-2.36-6.37,0.15-9.52c0.85,0,1.68-0.15,2.51-0.17c2.57-0.34,4.93,1.46,5.28,4.03
		c0.11,0.79,0.01,1.6-0.28,2.34c-0.62,2.29-0.11,3.21,2.12,4.25c4.12,1.78,6.52,5.56,8.73,9.2c2.02,3.02,1.83,7.01-0.47,9.83
		c-5.39,7.08-10.8,14.07-16.21,20.98C294.58,466.78,291.67,464.04,289.1,464.6z"/>
	<path class="st1" d="M581.94,419.42c0.11,2.97,0.81,6.07-2,8.35c-19.99,13.68-40.25,26.91-63.08,35.51
		c-11.41,4.25-22.92,8.24-35.41,7.45c13.36-2.4,26.36-6.48,38.7-12.15c20.77-9.43,39.55-22.17,58.13-35.19
		C579.65,422.21,580.88,420.88,581.94,419.42z"/>
	<path class="st1" d="M262.27,660.68c-0.81,3.93-2.95,7.47-6.05,10.02c-0.32-9.75-1.19-19.37,2.38-29.01
		c3.57-9.64,1.38-14.87-7.52-20.92l-5.27-3.57c0.74-1.1,1.21-2.12,3.1-1.4c6.48,2.3,12.08,6.54,16.06,12.15
		c2.29,3.31,1.61,6.86,0.81,10.62C264.18,645.83,260.64,652.86,262.27,660.68z"/>
	<path class="st1" d="M461.83,706.87c3.05-1.89,5.9-4.1,8.5-6.58c4.38-4.48,5.94-11.01,4.06-16.99c-0.83-3.1-0.51-5.48,2.78-6.78
		c0.62-0.27,1.19-0.64,1.7-1.08c7.24-5.73,7.07-7.77-1.08-11.85c-1.15-0.39-1.88-1.51-1.76-2.72c6.37-1.55,9.92,3.46,14.57,5.95
		c1.1,0.59,0.7,1.87,0,2.65c-1.49,2-2.44,4.61-4.86,5.65c-5.46,2.4-5.37,6.37-4.25,11.41c2.12,9.43-8.9,21.86-18.46,21.11
		C462.73,707.59,462.22,707.1,461.83,706.87z"/>
	<path class="st1" d="M475.15,660.42c-5.44,2.12-7.35-0.83-8.18-5.63c-1.55-8.81-3.97-17.52-4.69-26.38
		c-0.57-6.78-3.84-9.3-9.73-10.26c-0.95-0.26-1.86-0.64-2.72-1.13c0.57-0.55,1.42-1.72,1.68-1.61c4.8,2.12,10.62,1.98,14.74,5.52
		c3.67,3.19,2.89,8.5,3.44,12.74C471.04,642.68,472.87,651.61,475.15,660.42z"/>
	<path class="st1" d="M650.69,642.47c5.8-4.91,13.27-4.25,20.05-6.05c4.78-1.19,9.28-2.59,12.49-6.67c3.21-4.08,2.68-6.95-1.57-9.22
		c-2.1-1.03-3.84-2.68-4.99-4.72c6.05-1.38,9.79,3.12,13.91,5.99c2.97,2.12,1.36,5.39-0.49,7.9c-3.65,4.95-9.22,6.5-14.87,7.5
		c-6.26,0.75-12.4,2.36-18.22,4.78C655.28,642.86,652.84,642.35,650.69,642.47z"/>
	<path class="st1" d="M354.92,642.43c4.1-3.93,9.54-3.99,14.61-5.01c6.37-1.3,12.74-2.02,17.5-7.33c3.53-4.01,3.36-7.07-1.17-9.54
		c-2.05-1.11-3.79-2.74-5.03-4.72c5.8-1.23,9.6,2.78,13.34,5.82c3.02,2.42,1.66,6.07-0.62,8.84c-3.48,4.25-8.5,5.61-13.59,6.58
		c-6.5,1.23-13.04,2-19.12,5.01C359.21,642.92,356.91,642.37,354.92,642.43z"/>
	<path class="st1" d="M544.69,636.29c-3,2.78-6.33,5.18-9.92,7.14c0.91-3.6,2.45-7.01,4.55-10.07c2.88-4.07,1.92-9.7-2.15-12.58
		c-0.45-0.32-0.92-0.59-1.41-0.82c-2.1-1.16-4.15-2.43-6.12-3.8c1.22-1.2,3.08-1.45,4.57-0.59c9.66,3.4,15.1,6.58,13.08,18.54l0,0
		C545.05,633.26,544.92,634.85,544.69,636.29z"/>
	<path class="st1" d="M650.93,705.85c4.25-0.96,8.62-1.78,12.89-2.89c4.23-0.93,8.06-3.16,10.96-6.37
		c3.59-4.25,3.23-6.84-1.04-10.39c-1.45-1.37-2.81-2.82-4.08-4.35c2.23-1.75,5.46-1.37,7.22,0.86c0.2,0.25,0.37,0.51,0.51,0.79
		c0.36,0.56,0.79,1.07,1.27,1.53c7.24,6.16,7.24,8.98-0.74,14.57C669.94,705.19,660.42,705.81,650.93,705.85z"/>
	<path class="st1" d="M388.11,690.73c0.76,1.59-1.17,2.46-1.02,3.89c-8.39,10.43-20.26,10.83-32.13,11.24
		c4.48-0.98,9.05-1.68,13.44-2.99c4.69-1.28,8.8-4.12,11.66-8.05c2.61-3.59,1.15-6.05-1.55-7.99c-1.92-1.31-3.5-3.05-4.63-5.08
		c1.95-1.66,4.87-1.42,6.53,0.52c0.13,0.15,0.25,0.31,0.35,0.47C383.06,685.55,387.03,686.82,388.11,690.73z"/>
	<path class="st1" d="M865.76,637.21c5.61-3.97,5.08-3.74,2.27-10.07c-3.42-7.73-8.2-12.85-17.14-12.74
		c4.8-0.45,9.65-0.1,14.34,1.02c4.82,0.91,5.44,5.78,7.94,8.86c0.59,0.72,0.53,1.98,1.13,2.7c1.87,2.12,4.06,4.59,1.89,7.41
		c-2.05,2.77-5.6,3.98-8.92,3.06C866.69,637.27,866.18,637.27,865.76,637.21z"/>
	<path class="st1" d="M209.6,637.21c4.61-2.68,4.65-5.44,2.12-10.39c-3.78-7.54-8.5-12.51-17.22-12.47
		c4.47-0.44,8.98-0.16,13.36,0.83c2.62,0.23,4.92,1.85,6.01,4.25c1.78,3.34,3.76,6.58,5.93,9.68c2.8,4.38-0.98,7.22-5.8,8.3
		C212.53,637.55,211.05,637.48,209.6,637.21z"/>
	<path class="st1" d="M511.53,706.85c6.37-4.4,9.75-11.17,14.25-16.99c2.12-2.74,3.48-6.12,6.75-7.84l3.1,3.72
		c-3.99,5.48-7.94,11-11.98,16.42C519.99,707,515.78,708.59,511.53,706.85z"/>
	<path class="st1" d="M357.91,671.49c5.24-1.84,10.18-4.45,14.65-7.75c3.46-2.76,3.4-4.74-0.38-7.09c-2.93-1.81-5.97-3.46-7.09-7.05
		c3.74-0.64,7.05-0.49,9.26,3.46c0.99,1.6,2.49,2.82,4.25,3.48c3.38,1.42,4.12,4.8,1.25,6.86
		C373.29,668.11,366.64,672.91,357.91,671.49z"/>
	<path class="st1" d="M653.88,671.49c5.26-1.84,10.21-4.47,14.68-7.79c3.19-2.48,3.33-4.69,0-6.84c-2.91-1.87-5.86-3.63-6.92-7.26
		c3.21-1.11,6.76,0.27,8.37,3.27c1.12,1.69,2.73,3,4.61,3.76c3.59,1.68,4.12,4.57,1.06,6.84
		C669.26,668.19,662.65,672.87,653.88,671.49z"/>
	<path class="st1" d="M407.29,706.68c4.48-2.99,8.5-6.03,8.86-12.32c0.09-3.71,1.76-7.21,4.59-9.62c0.74,1.47,2.26,2.38,3.91,2.34
		c-0.53,4.63-2.59,8.84-3.44,13.42C420.59,703.85,411.99,707.19,407.29,706.68z"/>
	<path class="st1" d="M598.15,681.04l1.02,12.87c-5.25,5.67-11.49,8.28-19.24,6.37c3.14,0.02,6.2-1.03,8.67-2.97
		c7.84-6.05,7.99-10.9,0.21-18.35C592.62,676.09,595.11,679.54,598.15,681.04z"/>
	<path class="st1" d="M237.68,684.78l2.44,4.84c-0.81,3.16-1.53,6.37-2.44,9.45c-1.21,5.02-6.27,8.1-11.28,6.88
		c-0.18-0.04-0.37-0.09-0.55-0.15c4.78-3.97,6.01-9.6,7.54-15.25C233.98,688.13,235.53,686.05,237.68,684.78z"/>
	<path class="st1" d="M335.27,685.72c-0.83,0-1.66,0-2.48,0c-3.61,0.3-4.46-1.02-2.61-4.25c0.89-1.58,1.67-3.21,2.34-4.89
		c1.09-3.85,5.09-6.09,8.94-5c0.14,0.04,0.29,0.09,0.43,0.14c-1.87,4.38-5.22,8.07-6.01,12.93L335.27,685.72z"/>
	<path class="st1" d="M631.26,685.72c-7.18,0.19-7.07,0.23-3.95-6.37c2.12-4.63,4.14-9.11,10.62-7.41
		c-1.98,4.38-5.27,8.11-6.37,12.98C631.36,685.13,631.25,685.42,631.26,685.72z"/>
	<path class="st1" d="M714.41,694.85c1.96,0.91,3.7,2.24,5.08,3.91c-4.08,7.96-6.78,9.49-12.45,7.07
		C711.86,703.79,712.29,698.76,714.41,694.85z"/>
	<path class="st1" d="M644.36,650.25c-2.02-1.32-4.84,1.81-6.56-1.19c-1.72-2.99,0.72-5.93,5.01-6.58c2.64-0.23,5.3-0.28,7.94-0.13
		c-0.28,0.74-0.91,0.87-1.59,0.89C644.51,643.58,642.75,645.72,644.36,650.25z"/>
	<path class="st1" d="M347.95,650.25c-1.44-0.15-2.89-0.36-4.25-0.4c-2.44-0.11-2.02-2.34-2.57-3.65s1.06-1.42,1.93-2.02
		c3.78-2.44,7.92-1.81,12.02-1.87c-0.25,0.63-0.9,1.01-1.57,0.93C348.78,643.45,347.1,646,347.95,650.25z"/>
	<path class="st1" d="M146.86,416.28l-1.1,4.06l-5.2-4.01C142.7,414.49,144.78,415.15,146.86,416.28z"/>
	<path class="st1" d="M700.54,416.62c-0.49,1.13,0,2.65-1.51,3.38l-4.78-3.53C696.07,414.88,698.8,414.94,700.54,416.62z"/>
	<path class="st1" d="M734.52,642.26c1.59,0.8,2.69,2.33,2.93,4.1c-2.3,1.7-4.05,4.03-5.03,6.71l-8.01,3.31
		C725.58,650.12,730.4,646.42,734.52,642.26z"/>
	<path class="st1" d="M436.73,666.47c-1.53,0.68-3.53-0.59-4.78,1.19c-1.27-0.17-3.19,0-1.64-2.12c2.82-4.04,4.78-8.67,8.5-12.15
		c1.24,2.13,1.88,4.56,1.85,7.03C438.93,662.13,437.59,664.2,436.73,666.47z"/>
	<path class="st0" d="M354.92,642.43L354.92,642.43L354.92,642.43z"/>
	<path class="st0" d="M650.69,642.47L650.69,642.47L650.69,642.47z"/>
</g>
</svg>
