<svg xmlns="http://www.w3.org/2000/svg" viewBox="0 0 1080 1080"><title>Artboard 2</title><g style="opacity:0.8"><path d="M218.47,155.94c.58-1.67-.54-2.64-1.78-3.41a20.87,20.87,0,0,1-5.67-5.61,27.51,27.51,0,0,0-17.18-11c-1.08-.22-2.24-.69-2,1.22.12,1.18-.75,1.2-1.57,1.32-2.13.31-4.36-.48-6.33-.09a33.57,33.57,0,0,0-15.26,7.4c-1.1.93-.88,1.72-.08,2.65,1.56,1.8,1.2,3.33-.91,4.26-1.47.64-2.23,2.75-4.38,2.08-.46-.15-.79.62-.43.94,1.85,1.68.39,3.07-.56,4.14-2,2.22-1.66,4.75-1.56,7.33s-.66,3.36-3.1,2.81a20.9,20.9,0,0,0-8.34.28c-2.91.51-5.55.88-7.47-2.23-.8-1.28-1.28-2.76-.67-3.69,2-3,1.87-6.47,2.79-9.69.42-1.45.92-2.21,2.54-1.87,1.95.41,1.77-1.17,1.18-1.87-2-2.4-.08-3.58,1.37-4.63a8.78,8.78,0,0,0,2.25-3c2.88-4.59,3.31-10.5,8.58-13.92a34.68,34.68,0,0,1,13.93-5.54c1.5-.23,3.52-2.33,4.82.53.11.24.77.16.84-.26.3-1.8,2.3-1.75,3.17-3,1.13-1.66,2.51-1.71,3.21.53.55,1.77,1.32,2.16,2.69.67,1-1.13,2.55-.62,3.81-.85,5.55-1,11.17-2.09,16.72-.24,11.31,3.76,18.63,10.23,20.6,22a3.57,3.57,0,0,0,.75,1.87,15.72,15.72,0,0,1,3.33,7.81,8.1,8.1,0,0,0,3.52,5.89c1.19.86.71,2.07.38,3.07-.4,1.27-.32,3.15-2.29,3.16a3.86,3.86,0,0,0-3.32,1.29c-.47.57-1.15.36-1.72,0a4.84,4.84,0,0,0-2.84-.56c-1.31.08-2.49,0-3-1.61-.26-.84-1.19-1-1.89-1.4A6.89,6.89,0,0,1,218.47,155.94Z" style="fill:#474747"/><path d="M221.61,107.72c.12,5.88-6,8.89-11.73,5.61a55,55,0,0,1-9.26-7.28c-.53-.48-1-1-1.52-1.51-3.54-3.54-5.13-3.24-7.39,1.42a21.78,21.78,0,0,1-2.29,3.93c-1.5,1.92-3.69,2.94-5.58,1.82S181.67,108,182.1,106a13.91,13.91,0,0,0,.35-5.18c-.36-2.36.74-4.57,1.67-6.69s1.24-3.87-1.27-5.5a18.41,18.41,0,0,1-6-6.8c-2.77-5.17-.14-9.42,5.76-9.22a12.52,12.52,0,0,1,9,3.67c1.73,1.83,3.31,1.69,4.81.16s4.1-2.2,3.33-5.14c0-.17.39-.54.67-.71,2-1.16,3.88-2.43,5.95-3.39a4.07,4.07,0,0,1,4.05,0c1.34.88,1.12,2.43,1.47,3.73.06.23,0,.72-.13.75-2.92.88-1.34,3.13-1.45,4.81-.19,3.21-2.08,5.71-3.64,8.25-1.28,2.11-.8,3.39.71,4.87,3.65,3.57,7.25,7.17,10.85,10.77C220.25,102.44,221.76,104.7,221.61,107.72Z" style="fill:#474747"/><path d="M140.1,115.56c0-5.12,1.83-9.23,3.63-13.31.71-1.6.5-2.39-1-3.18a38.1,38.1,0,0,1-11.1-9c-1.21-1.41-1-3.33-.52-4.9s2-1.82,3.71-1.88c5.56-.2,10.46,1.63,15.16,4.3,1.43.81,2.11.28,2.94-1,2.52-4,4.87-8.19,9.81-9.82,1-.31,1.8-1,2.4.38.22.5.55.5,1.06.39,2.77-.62,3.88.75,3.61,3.53-.35,3.5-2.47,6-4.08,8.87a7.25,7.25,0,0,1-.49.64c-2.21,3.15-2.19,3.13.81,5.41,3.43,2.62,6.7,5.46,10.29,7.82,1.57,1,3.71,1.06,4.49,3.27.86,2.44-.17,4.67-.51,7-.08.56-.74.75-1.31.67-2.61-.37-5.28-.07-7.79-1.32-4.72-2.36-9.94-3.46-14.73-5.73-2.39-1.13-3.86,1.13-4.91,3-1.58,2.8-2.93,5.72-5.31,8-1,1-1.86,2.34-3.58,1.8s-2.34-2.06-2.51-3.76C140.11,116.12,140.1,115.59,140.1,115.56Z" style="fill:#474747"/></g><g style="opacity:0.8"><path d="M660.1,380.06c4.95.05,9.7.81,14,3.52a5.64,5.64,0,0,0,4.84.57c1.77-.56,2.83-.19,3.82,1.66,1.36,2.53,4,4,6.64,4.82,3.59,1.08,5.9,3.61,7.92,6.27a47.07,47.07,0,0,1,6,11.3c.17.43.42,1,.77,1.14,3.67,1.51,3.66,5.06,4.43,8.08.32,1.28.43,2.93-1.42,3.6a.86.86,0,0,0-.6,1.14.91.91,0,0,0,.93.63c2.42-.07,3.1.95,2.24,3.23-.48,1.28.22,2.63-1.3,4-2.14,1.9-4.19,1.33-6.36,1-5.11-.7-7.48-4.52-9.6-8.6-.34-.66-.15-1.08.64-1.11.48,0,1.09.05,1.13-.58s-.7-.74-1.2-.89a4.85,4.85,0,0,1-3.53-4.36c-.06-.39.07-1.05-.12-1.15-2.22-1.16-2.18-3.85-3.81-5.46-2.64-2.6-5.63-5-6.74-8.77-.3-1-1.35,0-2.06-.65-5.59-4.93-12.39-5.1-19.28-4.59a30.35,30.35,0,0,0-5.87,1.16c-3.81,1-6.08,3.85-7.67,7.24-.89,1.9-5,3.8-7.66,3.1a24.53,24.53,0,0,1-5.07-2,2.17,2.17,0,0,1-1-2.71c4-8.68,8-17.54,18.11-20.86,2.55-.84,5.5-.5,8.27-.66C657.7,380.06,658.9,380.08,660.1,380.06Z" style="fill:#474747"/><path d="M696.7,386c-2.07-.16-4.23-.08-5.56-2.17-.23-.37-.69-.15-1.06-.19a2.46,2.46,0,0,1-1.66-4.21c1.92-1.93,3.05-4.64,5.8-5.79.94-.39,1.87-.75,2.8-1.12a26.53,26.53,0,0,0,6.2-3.46c.73-.56.17-2.08-.05-3.2-.39-2-2.12-3.84-.89-6.09a.5.5,0,0,0-.13-.4c-2.84-3-.25-5.23,1.22-7.55a1.33,1.33,0,0,1,2.25-.15c1.16,1.2,3,2.46,3.12,3.8.26,3.71,4.07,5,4.8,8.27.29,1.27,1.23,1.54,2.42,1.19a16.09,16.09,0,0,1,5.94-.45,5.5,5.5,0,0,0,3-.57,6.27,6.27,0,0,1,8.91,4.38c.4,1.74-.18,3.43-1.93,3.79-4.48.93-7.1,5.16-11.49,6.17-1,.22-.73,1.17-.55,1.83.77,2.91,1.31,5.91,2.88,8.53,1.74,2.9,1.41,4.32-1.52,5.83-5.23,2.7-5.77,2.58-8.65-2.76-1.27-2.34-2.9-4.4-4.37-6.57a2.66,2.66,0,0,0-3.49-1.07C702.06,384.88,699.63,386.51,696.7,386Z" style="fill:#474747"/><path d="M674.62,375.71c-1.72.26-2.72-.8-3.26-2.52-.94-3.06-3-5.66-3.66-8.82a1.83,1.83,0,0,0-2.31-1.52c-1.9.27-3.82.42-5.7.73-4.3.71-7.65-.86-10.29-4.17-1-1.32.05-3.55,2.23-4.16,3.13-.87,6.31-1.64,9.5-2.26,3.42-.66,3.51-.58,2.75-3.89-.54-2.33-1.25-4.62-2-6.9-.49-1.54-1.33-3.21,0-4.5a5.75,5.75,0,0,1,5.1-1.23c3.62.59,5.22,3.45,6.8,6.21a22.57,22.57,0,0,1,2.07,5.09c.42,1.51,1,1.55,2.4,1.19a30.76,30.76,0,0,1,10.69-.8c1.42.13,2.85.4,3.28,1.9a3.82,3.82,0,0,1-1.06,4.15c-2.8,2.58-6.24,3.82-9.73,5-1.57.52-2.07,1.22-1.75,3a49.68,49.68,0,0,1,.77,8.08C680.55,373.93,678.36,376,674.62,375.71Z" style="fill:#474747"/></g><g style="opacity:0.8"><path d="M216.69,610.82c1.87.23,4.1-1.91,4.63.28.38,1.55-1.76,2.45-3.46,3.1-7.91,3-15.51,6.7-22.13,12.37-2.83,2.43-5.49,4.87-6.73,8.57-.86,2.6-2.29,2.22-3.46.43a14.42,14.42,0,0,0-5-5c-5.76-3.17-11.5-1.65-17.21,4.26-.73.76-1.15,2.48-2.52,2s-1.64-2.05-1.51-3.57c.36-4.08,2.48-7.25,5.4-10.08,2.54-2.46,5.62-4.31,7.58-7.41a6,6,0,0,0,1.11-2.62c1.09-11.1,2.21-22.19,3.36-33.71-1.76,1.37-3.33,2.62-4.95,3.81-.61.45-1.4.64-1.89,0s-.62-1.49.06-1.94c5.41-3.56,9.21-9.27,15.24-12,1.62-.74,1.9.34,2.71,1.16,4.44,4.46,3.73,9.87,2.14,15.66-2.51,9.12-2.3,18.53-4.81,27.67-.21.77,4.54,5.29,5.26,5.08s.76-.7.84-1.39A243.12,243.12,0,0,1,196.77,586a8.19,8.19,0,0,1,3.11-4.74c6.14-4.81,11.52-10.53,17.22-15.86,1.52-1.42,3.32-2.86,4.66-.47,2.44,4.3,5.44,8.17,8.05,12.33,1.12,1.78,1.16,3.4-1.72,3.69-1.87.2-5.15.1-5.36.75-.79,2.46-1.68,5-2.22,7.5a43.47,43.47,0,0,0-.7,5.67C219.4,600.19,217.13,605.31,216.69,610.82ZM181.1,596c1.41-.92,1-4.94,4.28-2.72.58.4.71-.42.75-.8.5-4.51,2.38-8.9,2.39-13.43,0-2.75-1.88-4.92-3.58-6.44-1.23-1.11-2.53,1.88-4,2.82a35.54,35.54,0,0,0-4,3.7c3.7-.66,2.41,1.65,2.26,3.07-.51,4.8-2.47,9.81,1.31,13.86a3.82,3.82,0,0,0,0,.81C181.3,596.88,181.12,596.38,181.1,596Zm45.64-17c-2.6-3.83-5.25-6.81-7-10.41-.44-.88-1-1.19-1.91-.33-4.07,3.91-8.16,7.8-12.89,12.32,7.18-1.51,8.75.22,7,6.34-.57,2-1.12,4-1.71,5.93a1.71,1.71,0,0,0,.59,2.16c.59.41,1.59.81,1.88.26,1-1.94,4-2.21,4.07-5,.06-2.4,1.12-4.63,2-6.9C220.56,579,221.66,578.19,226.74,579Zm-20.51,17.55c-8.93.59-9.83,1.44-10.83,10.11-.15,1.29-.38,2.58-.58,3.88,8.24-.28,9.43-1.32,10.57-9.06C205.63,599.82,205.94,598.19,206.23,596.54ZM208.87,583c-.58-.08-1-.18-1.5-.2-2.69-.13-4.74,2.1-7.38,2.55-1.27.22-1,2.76-1.35,4.24-1.42,6.13-1.38,6.14,4.51,4.68a8.54,8.54,0,0,0,6-10C209,583.83,208.94,583.38,208.87,583ZM193.31,624.2c.32,0,.69.14.9,0,3-2,6.21-3.87,8.91-6.28,1.64-1.46.57-3.93.31-5.74-.17-1.19-2.24-.23-3.4,0-6.46,1.44-6.45,1.48-7,8.16a15.82,15.82,0,0,0-.25,2.13A6.13,6.13,0,0,0,193.31,624.2Z" style="fill:#474747"/><path d="M297.61,557.53c2.06-1.71,4.51-1.73,7.41-2.3-1.75,3.62-5.33,5.3-6.87,8.5-1.14,1.6-2.8,3.07-3.34,4.82-1.94,6.2-5.3,7.71-11.59,7.07-10.13-1-16.53,3.45-19.67,11.87a49.06,49.06,0,0,0-1.32,5.47c4.34-2.05,8.32-4,12.63-4.26,7.14-.47,13.73-2.45,19.57-7.37,1.34-1.13,3-2.81,5.08-1.66l0,.21c-3.73,10.64-11.9,15.42-22,17.5-4.8,1-9.65,1.61-14.47,2.45a8.41,8.41,0,0,0-6.1,3.63c-2.74,4.39-4.73,9.17-7.73,13.55,5.14-2.15,10.14-1.84,15.21-1.91,6.37-.08,12.78-1,18.85-3.89a59.19,59.19,0,0,0,13.29-9.14c1.32-1.16,2.46-1.45,3.87-.07s1.1,2.56-.17,3.9a1.27,1.27,0,0,0-1,1.14l-.91,1.16-2,2.17a48.26,48.26,0,0,1-29.29,17.32c-3.19.6-6.29.22-9.43.26a39.34,39.34,0,0,0-19.75,6c-1.15.68-2.35,2.08-3.43.9s-.33-2.83.53-4.28c2.22-3.71,5.1-6.89,7.83-10.2a100.85,100.85,0,0,0,18-33.3,44.07,44.07,0,0,1,12.48-18.41l1.79-1.32,1.76-1.15,8.49-2.88,1.54-.41,1-.29,1.5-.52a.72.72,0,0,0,1-.26C293.21,561.21,295.44,559.42,297.61,557.53Zm-2.18,5.23c-7.68,4.86-18.14,3.3-24.74,12.52,4.88-2.33,9.43-3.85,13.66-3.18,4.8.76,6.81-1.8,8.82-5.25C294,565.51,294.68,564.13,295.43,562.76ZM287.05,589c-2.17.65-4,1.26-5.94,1.76-1.19.31-2.13,1.12-2,2.18.19,1.37,1.55,1,2.55.75A7.43,7.43,0,0,0,287.05,589Z" style="fill:#474747"/><path d="M110.73,579.24c6.48-8.18,13.51-5.83,19.38-.32,4.81,4.52,4.57,4.78,9.2-.55,6.52-7.51,18.6-8.1,24.27-1,3.7,4.64,2.46,10.25.83,15.68-3.62,12.08-10.77,22.32-18.9,31.89-3.52,4.14-7.84,7.61-11.82,11.36-1.21,1.14-2.43,1.64-3.57.07-5.59-7.67-12.11-14.66-16.61-23.12-3.41-6.41-7.85-12.43-7.88-20.45C105.61,587.22,106.86,583.64,110.73,579.24Zm23.68,23.53c1.85.07,3.75-1.45,4.74.61.87,1.81-.52,3.1-1.53,4.51a33.34,33.34,0,0,0-4.7,9.32c4.78-1.06,5.06-.75,3.7,3.85-.59,2-1.25,3.93-1.84,5.9-.24.79-.85,1.79,0,2.29s1.76-.39,2.31-1.14c.92-1.25,1.57-2.71,2.56-3.89A144.82,144.82,0,0,0,151.83,608c3.12-5,6.36-9.9,8.21-15.52,2.15-6.52.56-11.09-4.72-13.1-8.57-3.28-20.29,4.19-22.06,14.22,1-.39,1.86-.7,2.72-1.12,1.29-.62,2.72-1.84,3.77-.3.88,1.29,0,2.65-.95,3.91C137.21,598.14,135.08,599.87,134.41,602.77Zm-1.89-4.08c-4.57.55-5.56-.75-3.72-5.08.72-1.67,1.78-3.22,2.65-4.83.46-.87,1-1.71,0-2.54-2.06-1.79-3.84-4-6.13-5.42-5.09-3.19-8.54-3-11.4,1.49-4.12,6.41-5.09,13.3-1.59,20.05a218.61,218.61,0,0,0,13.81,22.94c1.32,1.93,2.35,4.11,4.6,5.67,1-3.15,1.84-6,2.74-9-5.68.24-6.51-1.2-3.9-6,1.44-2.63,2.76-5.32,4.13-8l-.34-.88a4.86,4.86,0,0,1-1.34.65c-1.21.14-2.66,1-3.48-.5s.28-2.54,1-3.88C130.38,601.74,132.39,600.78,132.52,598.69Z" style="fill:#474747"/><path d="M270,568.67a65.08,65.08,0,0,1-4.25,5.09c-6.86,6.73-10.84,15-14.46,23.64-2.19,5.27-3.46,10.83-6.26,15.9a61.73,61.73,0,0,1-20.91,21.9c-1.48,1-3.06,1.93-4.1-.28-.94-2,0-3,1.92-3.87,4.46-2,7.22-6.17,9.45-10.06,3.1-5.43,6-11.21,6.32-17.84-3.32.55-6.42,1.05-9.05,3.39-.61.54-1.48,1.07-2.23.36a1.91,1.91,0,0,1-.22-2c1.58-5,3.59-10,9-11.85,5-1.74,8.08-5.28,10.72-9.45,4-6.27,10.13-9.64,16.08-13.27a29,29,0,0,1,3.94-2.27C267.4,567.67,268.91,567.23,270,568.67Zm-13.72,8.8c-6.88,7.08-10.13,17.31-20.38,21.51,3.23.33,6.91-.22,7.71,4.45C245.24,593.45,250.24,585.26,256.28,577.47Z" style="fill:#474747"/><path d="M97,617.74c-1.33,9-12.07,17.58-20.67,16.72-2.9-.29-5.75-.91-8.65-1.21-3.57-.37-7,0-10.07,2.72-1,.92-2.22,1.9-3.37.66s-.33-2.4.48-3.59c3.82-5.55,9.33-6.87,15.18-6.93,7.87-.09,15.56-.71,22.61-5.66C93.87,619.5,94.9,617.85,97,617.74Z" style="fill:#474747"/><path d="M69.4,595.37c-3.75,5.08-5.51,10.88-6.71,16.81-1.08,5.35-3.77,9.94-6.84,14.4-.59.87-1.39,2.16-2.55,1.58s-.26-1.9,0-2.88c.75-3,1.6-6.07,2.3-9.12.21-.92,1-2.29-.75-2.51A2.45,2.45,0,0,0,52,615.29a10.38,10.38,0,0,1-.67,2,1.58,1.58,0,0,1-1.83.83c-.62-.22-.74-.81-.66-1.44.58-4.63.9-9.23,5.57-12.4,3.57-2.43,6.26-6,8.65-9.52,2.52-3.73,5.22-6.34,9.82-5.43.69,1.7-1.57,2.29-1.62,3.71-.84.26-1,1.06-1.37,1.69Zm-6.15,6a10.76,10.76,0,0,0-3.74,6.61A15,15,0,0,0,63.25,601.33Z" style="fill:#474747"/><path d="M76.57,576.33c-5.41,5.88-11.29,9.17-18.79,8-4.41-.67-8.14.85-11.07,4.7-.73,1-1.56,2.74-3.05,1.68-1.23-.89.21-2.08.51-3.17.82-2.93,2.77-5.21,4.47-7.58,2.9-4.07,7.18-4.09,11.34-4.1,5.85,0,11.59-.55,16.57-4.72.83-.7,1.65-1.15,2.51-.34s.28,1.4-.22,2.2A13.49,13.49,0,0,1,76.57,576.33Zm-24.25,4.36-.25-.39c0,.08,0,.2,0,.21a1.41,1.41,0,0,0,.31.1l8-.8a7.61,7.61,0,0,0,6.63-1.4l-6.59.57C57.65,579,54.73,577.9,52.32,580.69Z" style="fill:#474747"/><path d="M262.47,566a25.13,25.13,0,0,1-16.6,8.83,8.82,8.82,0,0,0-6.58,4.09c-1,1.6-2.15,1.69-3.53.78s-.51-2.13,0-3.07c3.39-5.87,8.12-10,14.61-12,4.66-1.43,9.63-2.15,13.28-6.21a1.57,1.57,0,0,1,2-.31c.55.36.39,1.06.22,1.62-.33,1.14-.74,2.26-1.12,3.38A9,9,0,0,0,262.47,566Zm-2.26-1.36c-3.53,1.21-6.37,2.17-9.2,3.15s-5.85,1.73-8.49,4.88C248.89,570.44,255.47,571,260.21,564.68Z" style="fill:#474747"/></g><g style="opacity:0.8"><path d="M427.82,368.39a21.5,21.5,0,0,1,6.1-3.88c3.38-1.31,5.06-.43,5.53,3a36.28,36.28,0,0,1-5.9,25.64,66.19,66.19,0,0,1-6.56,8.69c-1.75,1.89-3.22,1.64-4.37-.6-.71-1.38-1.25-2.87-2.05-4.2-2.08-3.47-1.95-3.55,1.13-6.26,2.16-1.9,3.65-3.14,4.6.85.26,1.08,1.44,1.44,2.55,1.53s1.21-.94,1.45-1.68c.92-2.76,3.38-4.77,2.76-8.34-.45-2.55-1.09-1.91-2.42-1.17-2.19,1.21-4.22,2.76-6.82,3.11-1.55.21-2.54-.24-2.41-1.93C421.85,377.48,423.07,372.15,427.82,368.39Zm5.57,2.23c-3.93,4.05-5.5,7-5.12,9.49C434.67,378.52,433.35,379.51,433.39,370.62Z" style="fill:#474747"/><path d="M456.85,379.63a14.23,14.23,0,0,0-7.67,3.33c-.65.52-1.22,1.24-2.19.75s-.59-1.44-.63-2.24a19.6,19.6,0,0,1,5.86-14.86c2-2.05,5-3.08,7.57-4.63,1.39-.84,1.51.2,1.88,1.09a22.14,22.14,0,0,1,.94,13.91c-2.25,9.13-7.6,16.77-13.23,24.15-1.48,1.93-2.9,1.5-3.74-.85-.39-1.08-.67-2.21-1.09-3.27-2.18-5.51-2-5.85,3.06-8.85,1.43-.85,1.77-.12,2.28.95.92,1.9,2,2.09,2.94,0C454.24,386.14,456.44,383.5,456.85,379.63Zm.25-10.33c-4.34,2.48-6.46,5.78-6.16,9.34C457.67,375.34,457.67,375.34,457.1,369.3Z" style="fill:#474747"/><path d="M479.11,375.71c-2.76.9-4.57,2.65-6.58,4.1-1.2.87-2.37,2.9-3.91,1.88s-1.87-3.47-1.6-5.1c1.32-7.85,5.25-13.95,12.79-17.36,1.36-.62,1.56.06,2,1a26.21,26.21,0,0,1,1.4,18,55.19,55.19,0,0,1-11.42,20.95c-2.36,2.8-3,2.75-4.2-.58a42.84,42.84,0,0,1-2.1-7.52c-.43-2.54,2.31-2.95,3.69-4.12,1.23-1,1.46.84,2,1.58.75,1,1.51,2.36,2.8,2.18.62-.08,1.13-1.56,1.55-2.48C477.34,384.42,479.23,380.57,479.11,375.71Zm-6.05.53c8-4.85,6.81-3.35,4.28-9.07C473.36,370.81,472.6,372.36,473.06,376.24Z" style="fill:#474747"/><path d="M437.93,344.83c-2.72,2.31-3.78-.32-4.66-1.88a12,12,0,0,1-1.79-7.09l-5.27,6.57c-.45.57-.87,1.18-1.35,1.73-1.43,1.68-3.59,3.61-5.29,3.12-2.18-.62-1.3-3.57-1.45-5.6a39.74,39.74,0,0,1,.26-8.79c.24-1.59.57-3.62,3.16-2.47,1.63,2.6,0,5.54.84,8.24.25.77.08,1.67.72,2.49,2.7-2.19,4.41-5.2,6.72-7.67,1.74-1.86,2.6-1.67,3.85.56a30.9,30.9,0,0,1,3.32,7.41c2.5-5.36,5.84-10.08,9.06-14.93,1,.66,2.19,1.43,1.29,2.92C444.23,334.59,441.8,340.15,437.93,344.83Z" style="fill:#474747"/><path d="M448,346.73c-1.58-.43-1.84-1.59-1.54-2.94,1.12-4.87,2.4-9.69,3.37-14.59.46-2.31,2.42-2.34,3.8-2.77a18,18,0,0,1,8-.66c4.25.65,5,1.92,3.57,6-.2.59-.52,1.15-.7,1.75-.67,2.24-4.14,2.43-4.16,4.17s2.43,3.21,2.07,5.56c-.15,1,.62,2.1-.67,2.81-1,.57-2,1.48-2.14-.79a8.43,8.43,0,0,0-2.66-5.66c-1.59-1.52-3.63-.93-5.4-.91-1,0-.89,1.85-1.23,2.86-.6,1.82-.57,3.9-2.37,5.17Zm12.2-11.88c.78-1.66,2.46-2.71,1.71-4.49-.66-1.57-2.25-1.26-3.57-1.25a29.48,29.48,0,0,0-3.11.3c-1.38.16-3.84,4.59-3.21,5.81.13.24.46.57.66.55C455.21,335.49,457.77,335.15,460.16,334.85Z" style="fill:#474747"/><path d="M496.49,342a14.85,14.85,0,0,1-9.55,4.62c-3.19.41-4.06-.56-3.59-3.65.72-4.73,1.58-9.44,2.28-14.18.16-1.11.66-2.05,1.62-1.94,3.93.45,8.18.19,11.23,3.38s2.66,7.74-.73,10.69Zm-9.18,2a15.57,15.57,0,0,0,9.32-6c2-2.6,1.59-3.84-1.33-5.23-1.22-.58-2.52-1-3.71-1.66-1.94-1.07-2.84-.07-2.85,1.64C488.73,336.43,487.87,340,487.31,344Z" style="fill:#474747"/><path d="M479.47,345.59c-1.25,1.63-3.14.93-4.67,1a34.09,34.09,0,0,1-7.16-.62,2,2,0,0,1-1.77-2.73c1.47-4.72.62-9.73,1.95-14.49.45-1.61.91-2.2,2.58-2.24,2.12-.05,1.46,1.63,1.47,2.42.05,3.69-1.12,7.22-2.24,10.65-.87,2.68.29,2.9,2.17,2.68a16.18,16.18,0,0,1,7.08.8c.64.22,1.6,0,1.66,1C480.58,344.85,480,345.23,479.47,345.59Z" style="fill:#474747"/><path d="M509.13,329.89a2.89,2.89,0,0,1-.29-.55c-.25-.69,2.66-7.85,3.33-8.27s1.29-.5,1.72,0c.58.71,1.46,1.63,1,2.51-1.21,2.16-2.63,4.2-4.05,6.23A1.11,1.11,0,0,1,509.13,329.89Z" style="fill:#474747"/><path d="M505.48,328.66c-.87.65-1.22,1.43-1.94,1.09s-.68-1.28-.37-1.93q1.68-3.61,3.51-7.17a1.33,1.33,0,0,1,1.61-.68c.84.25.58,1,.6,1.59C509.05,324.75,506.47,326.55,505.48,328.66Z" style="fill:#474747"/><path d="M411.68,330.5c-1.71,1-1.55,2.84-1.65,4.42a2.54,2.54,0,0,1-2.72,2.69c-1.53-.18-.63-1.83-.64-2.88,0-1.41.76-2.56,1.27-3.81,1-2.47,2.22-2.79,3.73-.39Z" style="fill:#474747"/><path d="M411.67,330.53c1.59.05,1.77-3.16,3.42-1.9,1.09.83.45,2.91.46,4.44s-.55,2.8-2.34,2.62c-2.13-.21-1.42-1.75-1.31-3.09.05-.66,1.46-1.61-.22-2.1Z" style="fill:#474747"/><path d="M502.86,369.74l.05.26,0-.26Z" style="fill:#474747"/></g><g style="opacity:0.8"><path d="M863.75,1038.47a12.53,12.53,0,0,1,3.52-2.24c2-.75,2.92-.25,3.18,1.72a20.89,20.89,0,0,1-3.39,14.78,38.67,38.67,0,0,1-3.78,5c-1,1.09-1.86.94-2.53-.35-.41-.8-.72-1.65-1.18-2.42-1.2-2-1.12-2,.66-3.61,1.24-1.09,2.1-1.8,2.65.49.15.63.83.83,1.47.88s.69-.54.83-1c.53-1.58,2-2.74,1.59-4.8-.26-1.47-.63-1.1-1.39-.68a11.42,11.42,0,0,1-3.93,1.8c-.9.12-1.47-.14-1.39-1.11C860.31,1043.71,861,1040.64,863.75,1038.47Zm3.21,1.29c-2.26,2.33-3.17,4-3,5.47C867.7,1044.31,866.94,1044.88,867,1039.76Z" style="fill:#474747"/><path d="M880.49,1045a8.12,8.12,0,0,0-4.42,1.92c-.38.3-.71.71-1.27.43s-.34-.83-.36-1.29a11.25,11.25,0,0,1,3.38-8.56c1.15-1.19,2.9-1.78,4.36-2.67.8-.49.87.11,1.08.62a12.81,12.81,0,0,1,.55,8c-1.3,5.26-4.39,9.67-7.63,13.92-.85,1.11-1.67.87-2.16-.49-.22-.62-.38-1.27-.63-1.89-1.25-3.17-1.16-3.37,1.77-5.1.82-.49,1-.06,1.31.55.53,1.1,1.13,1.21,1.7,0C879,1048.7,880.25,1047.18,880.49,1045Zm.14-6c-2.5,1.44-3.72,3.34-3.55,5.39C881,1042.48,881,1042.48,880.63,1039Z" style="fill:#474747"/><path d="M893.32,1042.69a13.54,13.54,0,0,0-3.8,2.36c-.69.51-1.37,1.67-2.25,1.09a3.08,3.08,0,0,1-.92-2.94c.75-4.53,3-8,7.37-10,.78-.36.9,0,1.14.58a15.1,15.1,0,0,1,.8,10.39,31.54,31.54,0,0,1-6.58,12.07c-1.36,1.62-1.73,1.59-2.42-.33a26.27,26.27,0,0,1-1.21-4.33c-.24-1.47,1.34-1.7,2.13-2.38s.84.49,1.16.91c.43.58.87,1.36,1.61,1.26.36,0,.65-.9.9-1.43C892.29,1047.71,893.39,1045.49,893.32,1042.69Zm-3.49.31c4.63-2.8,3.92-1.94,2.47-5.23C890,1039.87,889.56,1040.76,889.83,1043Z" style="fill:#474747"/><path d="M869.58,1024.89c-1.57,1.33-2.18-.18-2.69-1.08a7,7,0,0,1-1-4.09l-3,3.79c-.27.33-.51.68-.78,1-.83,1-2.07,2.07-3,1.8-1.26-.36-.75-2.06-.84-3.23a23.84,23.84,0,0,1,.15-5.07c.14-.92.33-2.09,1.82-1.42.94,1.5,0,3.19.49,4.74.14.45,0,1,.41,1.44,1.56-1.26,2.55-3,3.88-4.42,1-1.07,1.49-1,2.22.32a18.16,18.16,0,0,1,1.91,4.27,67.44,67.44,0,0,1,5.22-8.6c.6.38,1.26.82.74,1.68C873.21,1019,871.81,1022.2,869.58,1024.89Z" style="fill:#474747"/><path d="M875.36,1026c-.91-.24-1.06-.91-.88-1.69.64-2.8,1.38-5.59,1.93-8.41.27-1.33,1.4-1.35,2.2-1.59a10.26,10.26,0,0,1,4.61-.38c2.45.37,2.86,1.1,2.06,3.45-.12.34-.3.66-.41,1-.38,1.3-2.38,1.41-2.39,2.41s1.4,1.85,1.19,3.2c-.08.56.36,1.21-.38,1.62s-1.15.86-1.24-.45a4.84,4.84,0,0,0-1.53-3.26c-.92-.88-2.09-.54-3.11-.53-.6,0-.52,1.07-.71,1.65-.35,1-.33,2.25-1.37,3Zm7-6.84c.45-1,1.42-1.56,1-2.59s-1.3-.73-2.06-.72a17.77,17.77,0,0,0-1.79.17c-.8.09-2.22,2.65-1.85,3.35.07.14.26.33.38.32C879.54,1019.51,881,1019.31,882.39,1019.14Z" style="fill:#474747"/><path d="M903.33,1023.27a8.54,8.54,0,0,1-5.51,2.67c-1.83.23-2.33-.32-2.06-2.1.41-2.73.91-5.45,1.31-8.18.09-.64.38-1.18.94-1.11,2.26.26,4.71.1,6.47,1.94a4.13,4.13,0,0,1-.42,6.17Zm-5.29,1.15a8.93,8.93,0,0,0,5.37-3.47c1.13-1.49.92-2.21-.76-3-.71-.34-1.46-.58-2.14-1-1.12-.62-1.64,0-1.64.95A48.67,48.67,0,0,1,898,1024.42Z" style="fill:#474747"/><path d="M893.52,1025.33c-.72.94-1.81.54-2.69.6a19.94,19.94,0,0,1-4.13-.36,1.14,1.14,0,0,1-1-1.57c.85-2.72.36-5.61,1.13-8.35.26-.93.52-1.27,1.48-1.3,1.23,0,.84.95.85,1.4a19,19,0,0,1-1.29,6.14c-.5,1.54.17,1.67,1.25,1.54a9.4,9.4,0,0,1,4.08.46c.37.13.92,0,1,.61C894.16,1024.9,893.83,1025.12,893.52,1025.33Z" style="fill:#474747"/><path d="M910.62,1016.28a2.38,2.38,0,0,1-.17-.31,15.82,15.82,0,0,1,1.92-4.77c.34-.22.74-.29,1,0s.84.94.56,1.45a42.2,42.2,0,0,1-2.33,3.58A.64.64,0,0,1,910.62,1016.28Z" style="fill:#474747"/><path d="M908.51,1015.57c-.5.38-.7.83-1.11.63s-.4-.74-.22-1.11q1-2.08,2-4.14a.78.78,0,0,1,.93-.39c.49.15.33.59.35.92C910.57,1013.32,909.09,1014.35,908.51,1015.57Z" style="fill:#474747"/><path d="M854.45,1016.63c-1,.6-.9,1.64-1,2.55a1.46,1.46,0,0,1-1.57,1.55c-.88-.1-.36-1.06-.37-1.66a5.72,5.72,0,0,1,.73-2.2c.58-1.42,1.29-1.61,2.16-.22Z" style="fill:#474747"/><path d="M854.45,1016.65c.91,0,1-1.82,2-1.1.62.48.26,1.68.26,2.56s-.32,1.62-1.35,1.51c-1.23-.12-.81-1-.75-1.78,0-.38.84-.92-.13-1.21Z" style="fill:#474747"/><path d="M907,1039.25l0,.15,0-.15Z" style="fill:#474747"/></g><g style="opacity:0.8"><path d="M996.44,823.81l1.18,1.43c-1.93,3.91-4.78,7.12-7.7,10.29-2.14,2.33-3,4.35-.15,7.34,3.93,4.18.5,8.07-2,11.51-2.18,3-4.28,2.79-7.65.42s-5.11,2.31-6.78,4.51c-1.82,2.41.6,7.55-3.54,8.25s-2.4-5.63-5.77-6.76a21.09,21.09,0,0,1-5.38-2.28c-5.27-3.94-5.28-4.61-.1-8.32,5.62-4,6.12-5.43,3.31-9.49-2.44-3.1-6.89-5.24-5-10.41a7.64,7.64,0,0,1,5.93-6.29c4-1.07,7.63-3.12,11.52-4.45,3.43.2,5.27-2.85,8.06-4,5-.44,7.58,3.73,11.22,5.9A18.11,18.11,0,0,1,996.44,823.81Z" style="fill:#474747"/><path d="M946.7,803.06c-.64-3.89,1.54-7.43,1.19-11.41-.32-3.66,3.61-1.61,5.3-2.78,2.29-.13,4.93-1.75,6.41,1.52a5.51,5.51,0,0,0,3.35,1.94c.57.46,1.35.44,1.92.88a22.5,22.5,0,0,1,3.65,4.48,22.12,22.12,0,0,1,3.3,6.95,21.4,21.4,0,0,1,.25,3.92c-1.31,11.41-7.69,16.21-23,17.05,3.22.84,7.32-.56,7.91,4.26A53.77,53.77,0,0,1,944.06,845a4.81,4.81,0,0,1-2.95-.76,18.35,18.35,0,0,1-2.89-2.39c-1.38-1.38-2.73-2.78-4.17-4.1a14.82,14.82,0,0,1-2.51-2.62l-7.32-7c-.81-2.26-.76-4.38,1-6.22,2.4-5.24,5.54-9.73,11.63-11.12l8.69,0c2.14-1.77,4.32-1.21,6.51-.14,1.65-.43,3.06-1.12,3.37-3-.71-2-2.29-2.49-4.23-2.5C949.44,805.08,947.55,805.17,946.7,803.06Z" style="fill:#474747"/><path d="M931.54,835.12c1.55-.65,2.27.34,2.91,1.48a10,10,0,0,1-.25,1.43c-.34,2.67-2.25,5.42.43,8,2-.4,1.62-2.54,2.64-3.64a2.32,2.32,0,0,1,2-1l1.93,1.67c1.36,4.74,2.28,4.82,7.39.59,2-1.89,4.34-3.18,6.53-4.74,1.6-1.14,3.31-2.51,5.25-.62,2.19,2.14.63,3.89-.74,5.6-.34.42-.72.8-1.09,1.19a97.1,97.1,0,0,1-10.42,7.72c-1.7,1.11-4.58,1.72-3.4,4.62s3.58,5,7.14,4.72c2.13-.17,4-1.66,6.31-1.21,1.38.56,2.68,1.16,1.5,3-8.62,8.29-14.46,7.47-20.35-3.09a18.41,18.41,0,0,0-7.16-7.57C925.89,849.7,925.87,840.88,931.54,835.12Z" style="fill:#de6f36"/><path d="M996.44,823.81a2.9,2.9,0,0,1-2.68-.82c-.8-2-.64-4.19-.77-6.31a6.51,6.51,0,0,0-4.58-6c-3.13-1.1-2.89,2.3-4.12,3.73-.58.67-1.2,1.3-1.8,2-2.33,1.47-3.2,5.53-7.19,4-.48-3.44,1.67-6,3-8.77.5-1.5,2.26-3.57-1.45-3.09-1.56.21-3.14.16-4.69.46a1.49,1.49,0,0,1-1.31-.42l-.24-4.25c.57-1.74,2.16-2.29,3.54-3.12,1-.63,2.62-1,2.24-2.63s-2-1.82-3.49-1.95c-2-.17-3.9.62-5.86.86l-2.81-3.9c2.55-4.52,7.13-5.72,11.61-7a2.37,2.37,0,0,1,3.3,1.8l.09,1.84c2.72,3.16,6.36,5.6,7.38,10,.41,1.76,2.45,1.87,3.57,2.95l0,0c4.71,1.13,7.81,3.85,8.61,8.8C999.46,816.2,998.19,820.05,996.44,823.81Z" style="fill:#e07e3a"/><path d="M942.63,814.92a28.54,28.54,0,0,0,9.9.42c4.37-.62,7.48-3.29,8.16-7.58.63-4-1.66-7.06-5.55-8.19-2.79-.81-2.88-2.21-1.94-4.34,1.14-2.56,2.94-2.13,4.87-1,4.73,2.71,8.9,11.3,7.62,15.69-1.6,5.48-7.1,9.23-13.85,9.21-3.84,0-7.66,0-11.13,1.8-3.63,1.85-3.69,4.53-.37,6.77a49.54,49.54,0,0,0,5.45,3.52c2.06,1,1.54,2.13.39,3.31-.95,1-1.27,3.46-3.58,1.55-3.48-2.86-7-5.64-10.54-8.45-1.35-1.08-2.44-2.11-1.09-4C935.13,817.66,936.54,814.64,942.63,814.92Z" style="fill:#f2f0e8"/><path d="M983.14,822.13a15,15,0,0,1,6.72,5.16c1.46,1.84-1.72,2.59-2.53,4a39.85,39.85,0,0,1-3.69,5.36c-2.39,3-2.88,5.65.83,8,1.64,1,2.5,2.47,1.41,4.57s-2,3.74-4,.9c-2.82-4.05-5-3-7.34.56-1.69,2.52-4,4.58-5.88,7-1.54,2.07-2.81.82-4.11,0-1.51-1-1.75-2.21-.31-3.52a2.29,2.29,0,0,0,.36-.4c2.19-3.44,7.16-5.7,6.81-9.93-.32-3.88-4.85-6-7.7-8.72-2.6-2.42-1.64-4,.64-4.72,6.21-2,11.87-5.13,17.7-7.93C982.35,822.37,982.71,822.28,983.14,822.13Z" style="fill:#f4f1ea"/><path d="M979.76,828c1.73.21,3.71-.77,4.59,1s-1.29,2.26-2,3.37c-.51.74-.93,1.54-1.49,2.23-1.05,1.29,1,4.63-2.5,4.15-2.28-.33-6.38-6.86-5.54-8.55C974.34,827.07,977.59,828.88,979.76,828Z" style="fill:#474747"/></g><g style="opacity:0.8"><path d="M140.88,310.45l1.2-1a37.66,37.66,0,0,1,8.65,6.47c2,1.8,3.66,2.49,6.17.12,3.51-3.3,6.78-.41,9.67,1.67,2.54,1.83,2.35,3.6.36,6.43s1.94,4.29,3.79,5.7c2,1.53,6.35-.5,6.93,3s-4.73,2-5.68,4.85a17.61,17.61,0,0,1-1.92,4.51c-3.31,4.44-3.87,4.45-7,.09-3.37-4.72-4.57-5.14-8-2.78-2.6,2.05-4.4,5.79-8.74,4.16a6.43,6.43,0,0,1-5.3-5c-.9-3.39-2.62-6.41-3.74-9.68.17-2.88-2.39-4.43-3.33-6.77-.37-4.21,3.13-6.38,4.95-9.43A15.77,15.77,0,0,1,140.88,310.45Z" style="fill:#474747"/><path d="M123.43,352.27c-3.27.54-6.24-1.3-9.59-1-3.08.27-1.35-3-2.34-4.46-.1-1.92-1.46-4.14,1.28-5.38a4.64,4.64,0,0,0,1.64-2.82c.38-.48.36-1.13.73-1.61a18.84,18.84,0,0,1,3.77-3.07,18.45,18.45,0,0,1,5.84-2.77,17.33,17.33,0,0,1,3.3-.22c9.59,1.11,13.62,6.47,14.33,19.37.7-2.71-.47-6.16,3.58-6.66a45.29,45.29,0,0,1,12.71,10.84A4.11,4.11,0,0,1,158,357a15,15,0,0,1-2,2.43c-1.16,1.16-2.33,2.3-3.44,3.51a12.56,12.56,0,0,1-2.21,2.1l-5.92,6.16a4.67,4.67,0,0,1-5.23-.85c-4.41-2-8.18-4.66-9.35-9.78q0-3.66,0-7.3c-1.48-1.8-1-3.63-.11-5.48-.36-1.38-.95-2.57-2.55-2.83-1.7.6-2.09,1.93-2.1,3.55S125.21,351.56,123.43,352.27Z" style="fill:#474747"/><path d="M150.38,365c-.55-1.3.29-1.9,1.24-2.44a8.28,8.28,0,0,1,1.21.21c2.24.28,4.55,1.89,6.72-.37-.34-1.68-2.14-1.36-3.06-2.21a1.91,1.91,0,0,1-.8-1.68l1.4-1.62c4-1.14,4-1.92.5-6.21a45.76,45.76,0,0,1-4-5.49c-1-1.34-2.11-2.79-.51-4.42,1.79-1.83,3.26-.53,4.7.63.35.28.67.61,1,.91a84,84,0,0,1,6.49,8.76c.93,1.43,1.44,3.85,3.89,2.86s4.21-3,4-6c-.14-1.79-1.4-3.39-1-5.3.47-1.16,1-2.25,2.51-1.27,7,7.25,6.28,12.16-2.6,17.11a15.4,15.4,0,0,0-6.36,6C162.64,369.76,155.22,369.78,150.38,365Z" style="fill:#de6f36"/><path d="M140.88,310.45a2.46,2.46,0,0,1-.69,2.26c-1.72.67-3.53.54-5.31.65a5.47,5.47,0,0,0-5,3.85c-.92,2.63,1.93,2.43,3.13,3.46.57.49,1.1,1,1.64,1.52,1.24,1.95,4.65,2.68,3.38,6-2.89.4-5-1.41-7.37-2.54-1.26-.42-3-1.9-2.59,1.22.17,1.31.13,2.64.38,3.94a1.21,1.21,0,0,1-.35,1.1l-3.58.21c-1.45-.49-1.92-1.82-2.62-3-.52-.87-.88-2.21-2.21-1.89s-1.53,1.72-1.64,2.94c-.14,1.7.52,3.28.73,4.92l-3.28,2.37c-3.81-2.15-4.81-6-5.93-9.76A2,2,0,0,1,111,325l1.55-.07c2.66-2.29,4.71-5.35,8.44-6.21,1.48-.34,1.58-2.05,2.48-3l0,0c1-4,3.23-6.57,7.39-7.24C134.48,307.92,137.72,309,140.88,310.45Z" style="fill:#e07e3a"/><path d="M133.4,355.69a23.69,23.69,0,0,0,.35-8.32c-.52-3.68-2.76-6.29-6.36-6.86-3.36-.53-5.94,1.4-6.89,4.67-.68,2.34-1.86,2.42-3.65,1.62-2.15-.95-1.79-2.47-.86-4.09,2.28-4,9.5-7.48,13.2-6.4,4.6,1.34,7.75,6,7.74,11.64,0,3.22,0,6.44,1.51,9.35s3.8,3.11,5.69.31a41.09,41.09,0,0,0,3-4.58c.87-1.72,1.79-1.29,2.78-.32.82.79,2.91,1.07,1.31,3-2.41,2.92-4.75,5.9-7.11,8.86-.91,1.13-1.78,2.05-3.39.91C135.71,362,133.17,360.81,133.4,355.69Z" style="fill:#f2f0e8"/><path d="M139.47,321.64A12.67,12.67,0,0,1,143.8,316c1.55-1.21,2.18,1.45,3.4,2.14a32.11,32.11,0,0,1,4.5,3.1c2.53,2,4.76,2.42,6.76-.7.89-1.38,2.08-2.1,3.84-1.19s3.15,1.72.76,3.39c-3.4,2.37-2.5,4.17.47,6.17,2.12,1.42,3.85,3.4,5.91,4.94,1.73,1.3.68,2.36,0,3.45-.83,1.27-1.86,1.48-3,.27a1.43,1.43,0,0,0-.34-.31c-2.89-1.84-4.79-6-8.34-5.73-3.26.27-5.09,4.09-7.33,6.48-2,2.18-3.35,1.38-4-.54-1.69-5.22-4.32-10-6.66-14.88A8.19,8.19,0,0,1,139.47,321.64Z" style="fill:#f4f1ea"/><path d="M144.39,324.48c.18-1.45-.65-3.12.87-3.86s1.9,1.09,2.83,1.72c.62.42,1.29.78,1.87,1.25,1.09.88,3.9-.82,3.49,2.1-.27,1.92-5.77,5.36-7.19,4.65C143.62,329,145.13,326.3,144.39,324.48Z" style="fill:#474747"/></g><g style="opacity:0.8"><path d="M913,164c7.09-2.72,10.83-9,14.56-14.8,4.23-6.61,9.54-7.9,16.32-5.5,7.93,2.82,16.37,4.37,23.71,8.58,5.59,3.2,5.54,6.69.33,10.72-8,6.2-14,13.67-15.81,23.9-2.11,4.06.87,10.19-3.35,12.63-3.19,1.84-8.11.44-12.14,1.17s-8.22,2.32-12.32,3.53a46.67,46.67,0,0,0-11.52,9.52c-4.08,5.81-6.38,4.6-10.69-.83-8.22-10.36-27.86-15.21-38.89-3a41.07,41.07,0,0,1-4.38,4.37c-1.94,1.58-4,.44-5.82-.39-2.08-1-1.91-2.88-1.26-4.76l15.51-44.67a5.14,5.14,0,0,1,6.25-1.55C886.6,168.65,899.76,167.9,913,164Z" style="fill:#474747"/><path d="M798.54,113.56c7.46.65,10,4.43,10,12.12.06,17.18,13.05,23.32,26.62,28.17,6.42,2.29,13.15,3.72,19.69,5.7,4,1.22,5.69,3.35,4.25,8.13-3.88,12.91-7.09,26-10.67,39-.57,2-.64,5-3.89,4.74a5.21,5.21,0,0,1-4.9-4.09c-.93-3.05-1.82-6.25-3.51-8.89-6.8-10.6-18.64-13.16-30-6.73-2,1.13-3.75,2.65-5.75,3.76-4,2.26-6.07,1.06-5.77-3.66,1.1-17.06-9.62-29.28-28-28.54-1.94.08-4.28.58-5.46-1.85-.88-1.82.24-3,1.39-4.17,14.6-15.26,15.15-20.4,4.27-38.74a22.55,22.55,0,0,1-2.47-4.87c-1.51-5.14,1.66-8.4,6.91-7.35,6.25,1.25,12.52,2.45,18.78,3.68C794.27,107.92,795.67,112.47,798.54,113.56Z" style="fill:#474747"/><path d="M861.18,201.32c3-8.57,6.73-16.65,8.74-25.28,1.07-4.57,2.51-4.72,6.84-3.26,16.77,5.65,32.94,5.12,47-7.24a46.25,46.25,0,0,0,9.81-12.33c1.66-3,3.49-3.91,6.64-3,6.12,1.86,12.25,3.72,18.42,5.39,4.61,1.26,3.56,2.93.75,5.23-9,7.34-14.25,16.65-14.46,28.42-.05,3-1.47,3.12-3.85,3.26-12,.71-23.13,3.64-31.18,13.51-2.26,2.76-3.57.86-5.5-.59-10.06-7.57-20.85-12.26-33.89-8.39A46.35,46.35,0,0,0,861.18,201.32Z" style="fill:#f5f3ee"/><path d="M843.6,198.2c-4.63-4.65-6.58-10.67-12-13.68-9.09-5-18-4.53-26.7.82-3.27,2-4.4,1.82-5-2.42-2.1-15.1-10.63-24.42-26.89-27.14,11.14-14.14,8.27-27.9-1.64-43,10.32,2.85,19.31,3.47,27.69,7.2,2.51,1.12,2.49,3,2.59,5,1,19.48,13.48,28.75,30.2,34.61,5.89,2.07,12,2.88,18,4.44,1.91.49,3.69.36,2.89,3.09Z" style="fill:#f6f5f1"/><path d="M936.76,167.59c1,4.83,2.36,11.29,3.55,17.79a2.09,2.09,0,0,1-2.25,2.7c-1.37-.05-2.95,0-3.34-1.71-1.42-6.25-2.81-12.5-4-18.8a2.51,2.51,0,0,1,2.22-3C934.25,164.37,935.1,165.08,936.76,167.59Z" style="fill:#474747"/><path d="M917.31,185.07c.66,1.71.54,3.5-.91,4.38-4.89,3-5,10.65-11.48,11.71-1.44.24-3-2-1.9-4.21a34.21,34.21,0,0,1,10.71-12.33A2.41,2.41,0,0,1,917.31,185.07Z" style="fill:#474747"/><path d="M807.79,177.5a2.83,2.83,0,0,1-3.17.5,2.43,2.43,0,0,1-1.62-2.69c.33-5,.65-10.08,1.09-15.1a2.89,2.89,0,0,1,2.6-2.79,3.29,3.29,0,0,1,2.25,1.14C809.82,159.51,808.64,176.65,807.79,177.5Z" style="fill:#474747"/><path d="M795.87,139.11c-3.21,4.8-6.35,9.64-9.65,14.37a2.49,2.49,0,0,1-3.66.49,2.8,2.8,0,0,1-.77-3.68C784.72,144.88,788,139.8,795.87,139.11Z" style="fill:#474747"/></g><g style="opacity:0.8"><path d="M954.66,367.24c-3.74-3.64-7.44-7.33-11.25-10.91-4-3.74-8-7.5-12.88-10.07-.66-.35-1.71-.67-1.09-1.69s1.42-.43,2.11,0a65.41,65.41,0,0,1,10.68,7.88c2.54,2.38,5,4.84,7.43,7.33,2.09,2.16,4.25,4.3,4.94,7.4Z" style="fill:#361917"/><path d="M902.5,395c-8.56-6.92-17.54-13.48-21.75-24.36A222.44,222.44,0,0,0,902.5,395Z" style="fill:#361917"/><path d="M905.33,336.39c-2.25-.46-4-1.83-5.73-3.05a70.28,70.28,0,0,0-19.13-9.71c-.83-.26-2-.42-1.74-1.62.21-1,1.16-.52,1.77-.34C890,324.5,898.07,329.79,905.33,336.39Z" style="fill:#361917"/><path d="M856,330l-.15-1c.28-.47.68-1.42,1.18-.51,3.68,6.6,10.76,9.36,15.92,14.26,1.51,1.43,3.35,2.64,3.93,5.7-4.53-4.82-9.4-8-14.2-11.27a21.58,21.58,0,0,1-6.47-6.54.2.2,0,0,0-.32.08c.06-.07.16-.14.17-.22A4.53,4.53,0,0,0,856,330Z" style="fill:#361917"/><path d="M918.91,427a39.56,39.56,0,0,1-16.64-15.85c-.28-.49-.72-1.1,0-1.56.55-.35.91.17,1.19.55A103.21,103.21,0,0,0,918.91,427Z" style="fill:#361917"/><path d="M954.6,367.17l.1,0s-.05.1,0,.11Z" style="fill:#361917"/><path d="M956.29,411c1.16,3.52,1.12,3.56-3,2.8-.51-1.08,1.18-2.35-.26-3.5Z" style="fill:#361917"/><path d="M959.29,445.78c-.35-.21-.57-.44-.26-.68a1,1,0,0,1,.8-.17.37.37,0,0,1,.17.65C959.82,445.74,959.49,445.73,959.29,445.78Z" style="fill:#361917"/><path d="M958.6,409c.39.3,1.37.08,1.12.93s-.92.42-1.46.25Z" style="fill:#361917"/><path d="M950.43,417v.19a.59.59,0,0,1-.23,0s0-.12,0-.18Z" style="fill:#361917"/><path d="M950.34,419.31l-.54-.26.23-.23.35.46Z" style="fill:#361917"/><path d="M950.38,419.28a3.5,3.5,0,0,0,.55.17h0c-.26.22-.48.25-.6-.14Z" style="fill:#361917"/><path d="M963.75,412.23l-.34,1.28-.85-.6C962.8,412.41,962.71,411.34,963.75,412.23Z" style="fill:#361917"/><path d="M956.84,415.44l.22.33a2.8,2.8,0,0,1-.5,0s-.09-.14-.13-.21Z" style="fill:#361917"/><path d="M962.82,416.7a1.16,1.16,0,0,1,1.44-.67C964,416.8,963.45,416.81,962.82,416.7Z" style="fill:#361917"/><path d="M1019.67,478.91v0h0Z" style="fill:#361917"/><path d="M940.36,417.4h0v0Z" style="fill:#361917"/><path d="M1024.8,493c-1-4.92-4.47-8.95-5.13-14-1.94-1.88-3.41-4.27-6.25-5.16-1.74-.55-3.29-1.11-5.18-.53a7.07,7.07,0,0,1-7.65-1.93c-.2-.22-.4-.6-.63-.62-5.36-.44-4.12-5.76-6.3-8.54a22.91,22.91,0,0,1-4.36-11.27c-.33-2.27-1.93-4.89-1.82-6.6.17-2.52-.43-5.25.51-7.75a88.35,88.35,0,0,0-3.74-12.25c-.84-2-1.33-4.21-3.53-5.28a.86.86,0,0,0-.17-1.19l-.43-.73-.34-.84-.45-.8a2.24,2.24,0,0,1-1,1.27c-.15.1-.3.2-.46.29-.32.18-.64.36-.94.57.3-.21.62-.39.94-.57.16-.09.31-.19.46-.29a2.24,2.24,0,0,0,1-1.27c-.4-2.56-2-4.53-3.64-6.3-1.16-1.26-2.89-2.66-2.36-4s2.76-.46,4.25-.48l.54-.94c-1.9-.57-4.22.35-5.74-1.59-1.76-2.68-3.49-5.58-6.48-6.86a3.56,3.56,0,0,1-2.53-3.19c-.14-2.1-1.7-2.42-3.09-3.08-.44-.21-.82.26-1.47-.3a16.19,16.19,0,0,0-6.1-3.71c-1.68-.47-3.65-1.89-3.25-3.63,1.16-5-.07-9.38-2.57-13.61-1.34-2.28-4.93-4.12-7.37-3.63-.89.18-1.53.26-1.85-.8a13.58,13.58,0,0,0-5-6.56c-4.22-3.27-8.14-7.42-14.3-6.54-.74.1-.93-.64-1.34-1-3.4-3.3-4.61-3.42-8.38-.68a10.48,10.48,0,0,0-2.91,2.56c-2.07,3.38-6.3,6.31-3.07,11.08,1.46,2.17,2.43,4.19,2,7a8.09,8.09,0,0,0,1.86,5.87,35,35,0,0,0,11.93,10.7c.75.39,1.58.46,1.83,1.66,1.48,7.19,6.29,10.29,13.37,9a2.84,2.84,0,0,1,3,.94c.25,1.72,1.49,2.95,2.18,4.45a5.25,5.25,0,0,0,2.67,4.11l.09-.05-.1.05c-.53.3-1.37,0-1.63.84,1,1,0,1.7-.26,2.55-.31,1.12-1.67,1.7-1.49,3,1.87.7,2.18,2.39,2.54,4,.43.12,1.07.11.92.78s-.73.3-1.15.34c-1.81,3.94,3,6.19,2,9.94,1.14,0,1.63.17,1.46.61.37.3,1.15.14,1,.89a6.3,6.3,0,0,1-1.27,0c1.35,2.05,2.57,4.2,4.08,6.13a21.32,21.32,0,0,1,5,12.33,4.31,4.31,0,0,0,2.61,3.5c-2.43,1.39-2.17,5.81.1,7.07,1,.55,2.23.93-.16,1-.82,0-.37.95-.23,1.44.46,1.72,1,3.42,1.49,5.12.36.78,1.45.69,1.72,1.8,1.28,5.29,5.16,8.93,8.78,12.57,2.82,2.83,6.32,4.43,6.71,9.56.92,12,5.27,22.64,14.54,31a24.53,24.53,0,0,1,7.93,12.73c.13.55.29,1.09.46,1.63l29.19-41.35C1025.39,492.86,1025.08,492.56,1024.8,493ZM905.89,363c-2.55-3.51-2.54-5-.13-8.11,1.87-2.44,3.52-5,7.08-5.85,2.65,1.07,4.1,1.73,1.74,3.54C911,355.32,908.8,359.32,905.89,363Zm9.63,17.85a12.23,12.23,0,0,1-3.28-3c-6.54-8.49-7.09-8.41-2-17a29,29,0,0,1,6.32-7.53,4.25,4.25,0,0,1,4.48-.89,31,31,0,0,1,14.64,11.8c.84,1.2.64,1.88-.56,2.58-6.3,3.66-10.24,9.4-13.41,15.71C920.21,385.54,919.55,383.31,915.52,380.84Zm8,10.7a6,6,0,0,1-1.24-4.91c4.65-8.61,9.52-17.24,20.3-20.61,4,5.14,2.3,5.12,1.41,5.71a59.16,59.16,0,0,0-18,19.57C925,392.83,924.25,392.51,923.5,391.54Zm22.15-13c-6,2.9-10.48,7.16-11.85,13.93-.52,2.62-1.75,3.1-3.95,2.15-2.6-.27-3-1.15-1.32-3.34,4.65-6,9.27-12,15.35-16.65.68-.53,1.36-1.59,2.24-1.12,1.19.65.78,2.12,1,3.26S946.5,378.15,945.65,378.56ZM950.2,417h.23a1.21,1.21,0,0,1,0,.19.59.59,0,0,1-.23,0S950.2,417.06,950.2,417Zm.13,2.31-.53-.26.23-.23.35.46a3.5,3.5,0,0,0,.55.17h0C950.67,419.67,950.45,419.7,950.33,419.31Zm4.66-5.22-1.74-.29c-.52-1.07,1.16-2.36-.29-3.5l3.32.68c.06.19.12.36.18.53A13.06,13.06,0,0,0,955,414.09Zm1.58-3.44a2.1,2.1,0,0,1,.33-.26A2.1,2.1,0,0,0,956.57,410.65Zm1.94-1.33.09-.29a.6.6,0,0,0,.16.08Zm16.18,16.91a2.93,2.93,0,0,1,1.07-.28l.14,0h0l-.14,0A2.93,2.93,0,0,0,974.69,426.23Zm1.6,2.92-.17-.3.19.29Z" style="fill:#361917"/><path d="M975.9,425.93l-.14,0,.14,0Z" style="fill:#361917"/><circle cx="1015" cy="509" r="31" style="fill:#361917"/></g><g style="opacity:0.8"><path d="M167.08,851.56c-.34-.46-1.09-.69-.8-1.49,1.81-3.17.73-5.52-3-6.38a11.18,11.18,0,0,0-5.49,3.11,71.11,71.11,0,0,1-17.34,12.8,17,17,0,0,0-7,7.49c-.55,1.1-1.12,1.76-2.19,1.37-1.48-.55-.6-1.73-.25-2.51,2-4.21,5.14-7.14,9.06-9.69,5-3.25,10.39-6,14.57-10.54,3.25-3.53,7.47-5.61,12.6-4a6,6,0,0,1,1.62.74c1.84,1.33,3.13,9.28,2.28,11.39a29.08,29.08,0,0,0-1.89,7.33c-.27,2.29-.61,4.33-2.63,5.71a3.2,3.2,0,0,0-1.17,1.65c-.82,2.25-2.64,3.3-4.82,4.11a25.73,25.73,0,0,0-7.66,4.29c-3.84,3.18-8.4,5.29-13.66,5-3.11-.16-6.36-3.61-6.51-6.83,0-.62-.13-1.29.63-1.46a1.32,1.32,0,0,1,1.41.88c.75,1.51,1.18,3.23,2.61,4.31s2.65,1.45,2.44-1.16c3.16,1.53,3.16,1.53,5.6,1.22-.78-1.06-1.78-2-.87-3.74,1.14,1.4,2.36,2.75,4.33,1.83.69-.32,2.07-.22,1-1.67-.61-.8.17-1.11.72-1.14,3-.18,5-2.27,7.47-3.53,1.22-.63,2.9.6,3.25-.59.86-2.93,3.32-4.28,5.2-6.23.33-.34.78-1.62-.73-1.52-2.42.17-1.85-.7-.67-1.85.79-.77,1.52-1.59,2.27-2.38,2.21-1.09-1.54-2.33.12-3.56,1.17-.86,2.32-1.91,2.18-3.63,0-.38-.06-.77-.56-.85Z" style="fill:#474747"/><path d="M117.74,889.34a4.8,4.8,0,0,0-4.83.2c-2.42,1.28-5.35-.18-8.1.08-1,.09-1.89-.11-2.65.67-1.68.43-3-.66-4.42-1.13-4.15-1.32-8.15-2.76-11.68-5.5-1.7-1.32-3.86-1.83-3.94-4.57,0-.68-1-1.48-1.73-2-2.8-1.89-1.8-4.26-.83-6.52.87-2,2.49-2.51,4.75-2.74a18.27,18.27,0,0,1,7.48.67c3.95,1.21,7.95.28,11.8-.47,6.28-1.22,12.46-2.32,18.84-.75a4.08,4.08,0,0,1,1.73.91c.92.79,3,1.29,2.24,2.69-.84,1.56-2.21-.09-3.27-.54-5.95-2.53-11.93-1.33-17.87-.11-4.8,1-9.53,1.78-14.33.06a13,13,0,0,0-6.43-.19c-1.67.27-3.23,1-3.54,2.77s1.12,2.85,2.43,3.8c.31.22.77.24,1.09.47.79.55,2.38,0,2.49,1.16.17,1.73-1.89.84-2.6,1.66.37,1.15,1.29,1.26,2.2,1.18,1.25-.1,1.77,0,2.45,1.52,1.09,2.46,2.23-.52,3.46-.71.12.11.37.25.36.32-.94,3.69-.92,3.4,2.8,3.69,1.48.12,4.59-1.94,4.75,2.16,0,.65,1.57-.5,2.42-.77s1.73-3.67,2.9-.06c.26.8,2.49.73,3.07-.92.3-.87.42-2,1.48-1.8.77.12.25,1.17.36,1.79.25,1.37,1.37,1.26,2.37.84,1.52-.63,3-1.74,4.58-.16.16.16.57.09.87.08,2.67-.14,4.3-2.44,6.7-3.37s3.25-4,2.21-6.86c-.16-.46-.31-1.1.28-1.28A1.54,1.54,0,0,1,129,876a4.54,4.54,0,0,1,1.17,2.65c.25,3.9-3.17,8.51-7.07,9C121.14,887.86,119.67,889.26,117.74,889.34Z" style="fill:#474747"/></g><g style="opacity:0.8"><path d="M587.08,72.56c-.34-.46-1.09-.69-.8-1.49,1.81-3.17.73-5.52-3-6.38a11.18,11.18,0,0,0-5.49,3.11,71.11,71.11,0,0,1-17.34,12.8,17,17,0,0,0-7,7.49c-.55,1.1-1.12,1.76-2.19,1.37-1.48-.55-.6-1.73-.25-2.51,2-4.21,5.14-7.14,9.06-9.69,5-3.25,10.39-6,14.57-10.54,3.25-3.53,7.47-5.61,12.6-4a6,6,0,0,1,1.62.74c1.84,1.33,3.13,9.28,2.28,11.39a29.08,29.08,0,0,0-1.89,7.33c-.27,2.29-.61,4.33-2.63,5.71a3.2,3.2,0,0,0-1.17,1.65c-.82,2.25-2.64,3.3-4.82,4.11A25.73,25.73,0,0,0,573,97.91c-3.84,3.18-8.4,5.29-13.66,5-3.11-.16-6.36-3.61-6.51-6.83,0-.62-.13-1.29.63-1.46a1.32,1.32,0,0,1,1.41.88c.75,1.51,1.18,3.23,2.61,4.31s2.65,1.45,2.44-1.16c3.16,1.53,3.16,1.53,5.6,1.22-.78-1.06-1.78-2.05-.87-3.74,1.14,1.4,2.36,2.75,4.33,1.83.69-.32,2.07-.22,1-1.67-.61-.8.17-1.11.72-1.14,3-.18,5-2.27,7.47-3.53,1.22-.63,2.9.6,3.25-.59.86-2.93,3.32-4.28,5.2-6.23.33-.34.78-1.62-.73-1.52-2.42.17-1.85-.7-.67-1.85.79-.77,1.52-1.59,2.27-2.38,2.21-1.09-1.54-2.33.12-3.56,1.17-.86,2.32-1.91,2.18-3.63,0-.38-.06-.77-.56-.85Z" style="fill:#474747"/><path d="M537.74,110.34a4.8,4.8,0,0,0-4.83.2c-2.42,1.28-5.35-.18-8.1.08-1,.09-1.89-.11-2.65.67-1.68.43-3-.66-4.42-1.13-4.15-1.32-8.15-2.76-11.68-5.5-1.7-1.32-3.86-1.83-3.94-4.57,0-.68-1-1.48-1.73-2-2.8-1.89-1.8-4.26-.83-6.52.87-2,2.49-2.51,4.75-2.74a18.27,18.27,0,0,1,7.48.67c3.95,1.21,7.95.28,11.8-.47,6.28-1.22,12.46-2.32,18.84-.75a4.08,4.08,0,0,1,1.73.91c.92.79,3,1.29,2.24,2.69-.84,1.56-2.21-.09-3.27-.54-6-2.53-11.93-1.33-17.87-.11-4.8,1-9.53,1.78-14.33.06a13,13,0,0,0-6.43-.19c-1.67.27-3.23,1-3.54,2.77s1.12,2.85,2.43,3.8c.31.22.77.24,1.09.47.79.55,2.38,0,2.49,1.16.17,1.73-1.89.84-2.6,1.66.37,1.15,1.29,1.26,2.2,1.18,1.25-.1,1.77,0,2.45,1.52,1.09,2.46,2.23-.52,3.46-.71.12.11.37.25.36.32-.94,3.69-.92,3.4,2.8,3.69,1.48.12,4.59-1.94,4.75,2.16,0,.65,1.57-.5,2.42-.77s1.73-3.67,2.9-.06c.26.8,2.49.73,3.07-.92.3-.87.42-2,1.48-1.8.77.12.25,1.17.36,1.79.25,1.37,1.37,1.26,2.37.84,1.52-.63,3-1.74,4.58-.16.16.16.57.09.87.08,2.67-.14,4.3-2.44,6.7-3.37s3.25-4,2.21-6.86c-.16-.46-.31-1.1.28-1.28A1.54,1.54,0,0,1,549,97a4.54,4.54,0,0,1,1.17,2.65c.25,3.9-3.17,8.51-7.07,9C541.14,108.86,539.67,110.26,537.74,110.34Z" style="fill:#474747"/></g><g style="opacity:0.8"><path d="M1020.93,46.31c.06-.36-.18-.82.32-1.05,2.31-.63,2.89-2.22,1.58-4.32a7.25,7.25,0,0,0-4-1.1,46.26,46.26,0,0,1-13.93-2.1,11.21,11.21,0,0,0-6.71.22c-.76.25-1.33.3-1.64-.38-.44-.93.51-1.07,1-1.27a15.21,15.21,0,0,1,8.67-.29c3.81.81,7.57,2,11.61,1.86,3.13-.13,6,.86,7.68,4a3.7,3.7,0,0,1,.41,1.09c.23,1.47-2.84,5.74-4.21,6.32a19.12,19.12,0,0,0-4.27,2.52c-1.18.93-2.27,1.72-3.85,1.42a2.13,2.13,0,0,0-1.3.22,4.62,4.62,0,0,1-4.13-.33,17,17,0,0,0-5.52-1.55,12.89,12.89,0,0,1-8.64-4,5.08,5.08,0,0,1,.14-6.17c.27-.3.54-.66,1-.38a.85.85,0,0,1,.24,1,7,7,0,0,0-.78,3.2c.16,1.17.55,1.9,1.66.6.76,2.16.76,2.16,2,3.15.13-.85.12-1.77,1.32-2.13-.12,1.17-.18,2.36,1.16,2.85.47.17,1.06.85,1.23-.32.09-.65.59-.43.86-.2,1.45,1.29,3.38,1.29,5.08,1.83.86.27,1.07,1.62,1.78,1.23,1.75-1,3.51-.45,5.28-.48.31,0,1.11-.39.37-1-1.2-1-.53-1.18.54-1.16.72,0,1.44,0,2.16,0,1.52.51.36-1.79,1.69-1.59a2.7,2.7,0,0,0,2.69-.67c.16-.19.33-.39.13-.66Z" style="fill:#474747"/><path d="M980.66,41a3.12,3.12,0,0,0-2.33-2.15c-1.71-.52-2.39-2.55-3.78-3.7-.49-.42-.82-.93-1.53-.92-1-.58-1.07-1.67-1.53-2.56a23.74,23.74,0,0,1-2.85-7.95c-.18-1.39-.94-2.63.29-3.93.3-.33.22-1.16.11-1.71-.42-2.17,1.14-2.8,2.63-3.4,1.33-.53,2.31,0,3.47.93a12,12,0,0,1,3.14,3.77c1.27,2.38,3.55,3.8,5.67,5.24,3.47,2.33,6.84,4.68,9.06,8.36a2.58,2.58,0,0,1,.38,1.21c.06.8.79,2-.21,2.29s-1-1.07-1.26-1.77c-1.58-3.91-4.9-6.12-8.21-8.31-2.68-1.76-5.23-3.58-6.65-6.59a8.39,8.39,0,0,0-2.89-3.06,2.41,2.41,0,0,0-2.91-.36c-1,.68-.8,1.84-.64,2.88,0,.25.25.47.29.72.11.62,1.12,1.08.61,1.69-.72.88-1.26-.48-2-.44-.36.71,0,1.18.48,1.57.62.53.83.79.43,1.83-.64,1.64,1.27.79,1.92,1.27,0,.11.06.29,0,.31-2.14,1.28-2,1.15-.41,3,.63.74,3,1.22,1.2,3.19-.29.32,1,.5,1.47.76s2.5-.89,1.37,1.32c-.25.49.82,1.49,1.85,1,.54-.26,1.1-.71,1.51-.15s-.42.66-.66,1c-.52.75,0,1.22.71,1.49,1,.4,2.18.56,2.19,2,0,.14.22.3.36.43,1.31,1.17,3.12.87,4.66,1.55s3.33-.34,4.19-2.15c.14-.29.37-.66.72-.47A1,1,0,0,1,992,40a3,3,0,0,1-.68,1.76c-1.69,1.93-5.4,2.48-7.43.9C982.92,41.86,981.59,41.83,980.66,41Z" style="fill:#474747"/></g><g style="opacity:0.8"><path d="M559,815.48c-2.08,1-5.31,1.11-6.21,4.54,0,.12-.07.34-.13.35-6.51,1.11-11.14,6.92-18.09,7.1-5.23.14-12.84-6-13.5-11.19-.94-7.39.14-14.25,5.09-20.16,3.22-3.85,7.38-5.81,12.25-4.86,3.75.73,8,.38,11,3.7.9,1,2,1.9,1,3.16a2.55,2.55,0,0,1-3.7.56c-6.45-5.28-12.18-1.92-17.89,1.37a6.16,6.16,0,0,0-3.37,6.23c.18,2.37.19,4.74.58,7.09,1.26,7.54,8,10.72,14.88,7.35,6.1-3,11.43-7.15,17.35-10.38,2.68-1.47,1.8-4.41,1.89-6.39.22-4.94,1.82-9.61,2.15-14.5.09-1.36,0-3.69,1.81-3.72a6.12,6.12,0,0,1,5.11,2.48,23.15,23.15,0,0,1,3.64,8.53c.75,3.28,2.26,3.88,5,1.79a4.53,4.53,0,0,1,6.94,2.92,2.9,2.9,0,0,1-2,3c-2.54,1-3.39,3.59-5.12,5.34a2.26,2.26,0,0,0-.42,2.41,75.21,75.21,0,0,0,4.58,14.6,9.6,9.6,0,0,1,.86,2.09c.21,1.22.53,2.66-1.17,3.11-1.38.36-2-.63-2.49-1.76l-6-15c-.57-1.42-.5-3.43-3.14-2.49-1.93.69-4.12,0-4.11,3.68,0,7.51-1.41,15-1.44,22.53,0,1.67-.51,3.65-2.6,3.46-1.81-.17-2.92-1.53-2.89-3.72C559.11,830.88,559,823.15,559,815.48Zm8.13-22c-.26,3.75-.52,7.5-.8,11.49C570.19,803,570.42,800.37,567.17,793.52Z" style="fill:#474747"/><path d="M505.94,721l1.95,5.35c-1.51.07-1.69-1.54-2.85-1.74-.07,0-.41.14-.41.24.18,3.71-2.71,4-4.85,3.35-6.79-1.92-13.44-4-18.29-10-3.13-3.88-6.11-7.46-6.25-13,1.89.55,2.78,2.08,4.07,3,4.72,3.43,9.36,7.17,15.39,8.4,2.53.52,4,.58,3.1-2.49,1.62-.49,1.8,1.51,3.21,1.3,0-.28.2-.66.08-.89-.77-1.56-.8-3.21.83-3.9,1.36-.58,3.2-.92,4.49.61.91,1.07,1.41,2,3.06.44,1.06-1,3.21-.38,4.51.71,1.71,1.43,2.26,1.35,2.8-1,1.27-5.55,1.82-10.67-2.28-15.61-1.78-2.15-1.83-5.49-4.48-7.56-1.8-1.4-2.84-1.19-4.91-.74-5.28,1.15-10.42,2.66-15.56,4.26-4.47,1.39-8,3.59-9.74,8.16-.27.73,0,2.62-1.52,1.88-1.19-.57-2.77-1.6-2.36-3.43A57.17,57.17,0,0,1,484.06,680c1.53-2.38,4.14-3.12,6.95-2.92a33.73,33.73,0,0,1,24.15,12.24c3.32,4,6.14,9.46,6.42,15.37.25,5.19-2.29,9.4-4.55,13.73-.3.57-.66,1.24-1.39.85-1.87-1-2.68.51-3.84,1.38C510.24,721.81,508.67,723.25,505.94,721Zm-4.46-38.64c-9.54-4.4-14.82-3.43-16.51,2.62Zm1.65,2.85c-3.2-.63-6.26,0-9.32.42s-6.49.63-9.55,1.86c-.89.36-1.93.93-1.47,2.21a1.46,1.46,0,0,0,1.82,1A159.45,159.45,0,0,1,503.13,685.19Zm-6.58,34.26c-6.08-.37-10.44-4.05-15.54-6.89.2.67.2,1.05.39,1.27,3,3.58,7.53,5.17,11,8.21C494.65,724,496,722.11,496.55,719.45Z" style="fill:#474747"/><path d="M550.85,669c4.53-.28,7,2.91,9.11,7.6a42.79,42.79,0,0,1,3.7,14,22.28,22.28,0,0,1-6.76,18.23c-3.3,3.17-7.33,4.06-11.39,5.16-2.63.71-5.22-.35-7.19-1.62-9.47-6.14-15.32-20-12.64-29.29s5.58-10.92,13-11a12,12,0,0,0,7.15-1.86A9.27,9.27,0,0,1,550.85,669Zm-20.13,23.78c-.4,8.34,3.73,14.84,10.64,17.56,2.21.87,4.17-.07,6.15-.73,1.23-.4.65-1.4.49-2.23a16.75,16.75,0,0,1,8.77-17.61c1.67-.81,2-1.69,1.44-3.18-1.88-5.17-5.79-8.12-10.93-9.4-3.94-1-8.14-2.52-10.75,2.66-.56,1.1-2.1,1.71-3.17,2.56a7.87,7.87,0,0,0-3,5.84A25.4,25.4,0,0,0,530.72,692.76ZM556,676.44c-2.41-5.28-4.67-6.19-9.57-3.88Z" style="fill:#474747"/><path d="M583.27,671.28a88,88,0,0,0,9.87-10.17,14.43,14.43,0,0,1,4.35-3.53,2.47,2.47,0,0,1,2.85.24c.77.88-.11,1.88-.75,2.63q-6.71,7.88-13.46,15.71a7.4,7.4,0,0,0-2.12,4.71c-.06,4.62,1,5.65,6.25,6.59q10.74,1.92,21.45,4a11.25,11.25,0,0,1,7.46,5.14A47.49,47.49,0,0,1,601,694.8c-.36-.1-.94-.33-1.08-.19-3.36,3.54-6.35.28-9.33-.63-4-1.24-4.61-1-4.21,3.31.36,3.87.88,7.73,1,11.6,0,1.15,1.23,3.39-1.34,3.53-2,.12-3.69-.73-4-3.06-.43-3-.83-6-1.32-9-.32-2-.7-3.95-1.19-5.89-.78-3.11-3.58-4.36-6.27-2.61-1.36.89-2.62,1.25-3.73.21-1.49-1.39.45-2,1-3a13.7,13.7,0,0,1,4.52-5.42,2.9,2.9,0,0,0,1.39-3.26c-1.61-4.94-.61-9.89-.19-14.84a10.62,10.62,0,0,0,0-1.87c-.12-1.19-1.8-2.62.46-3.41,1.87-.66,2.26,1.22,3.12,2.12C582,664.71,581.63,668.06,583.27,671.28Z" style="fill:#474747"/><path d="M507.31,903.42c0,4.66-.1,8.81,0,13,.07,2.23,1.12,3.44,3.43,1.93,1.06-.7,2.54-1.87,3.12-.28.73,2-1.32.91-2.16,1.14-1.24.34-1.22,1.35-1.51,2.32-.89,3-.36,6-.46,9-.05,1.53.06,3.47-1.9,3.51s-1.2-2-1.19-3c0-4.54-1.12-9-2-13.31a46.64,46.64,0,0,1-.76-11.89c-2.47.82-3.76,3.29-6.61,2.81.93-1.61,2.34-2.94.3-4.8-1.33-1.22.41-2.08,1.48-1.95,3,.38,3.48-1.61,3.69-3.64.55-5.23,1.06-10.42-.43-15.68-.62-2.17-1.33-2.27-3-1.73-1.42.44-2.75,1.29-4.33,1.17-1.15-.09-2.41-.15-2.68-1.55s.88-1.57,1.82-2c5.37-2.46,11.16-3.43,16.81-4.94a89,89,0,0,1,18.13-2.92c.86,0,1.86-.54,2.28.58.33.88-.69,1.2-1.13,1.76-1.36,1.7-3.26,2.22-5.32,2.4A76.84,76.84,0,0,0,507.69,879c-1.14.37-2.3.58-1.91,2.52,1.15,5.61.5,11.51,2.76,17,.34.83.14,1.77,1.41,1.6,4-.51,7.95,1.08,12,.66,1.24-.13,3,.12,3.62-.58,2.77-3.09,5.3-.86,8-.09,1.23.36,1.53.95.61,1.77a27.43,27.43,0,0,1-6,4.48,2.29,2.29,0,0,1-3-.86c-1.32-2.49-3-1.49-5-1.23C516.14,904.79,512,906.06,507.31,903.42Z" style="fill:#474747"/><path d="M591.08,729.29c-.7,6.6-4.13,12.62-.27,19.15.74,1.24.51,3.81-1.19,4.49s-2.08-1.56-2.56-2.65c-1.86-4.12-4.57-7.67-7.1-11.35-.42-.62-.79-1.46-1.64-1.36-1.27.14-.71,1.38-1,2.11-1.11,2.47-.27,5,0,7.42.84,7.72,1.94,15.4,2.89,23.11.3,2.44-3.46,5.54-6,5.06-1.24-.23-.93-1.15-1.08-2-1-5.75-.1-11.49,0-17.22.19-7.57,0-15-2-22.41-.27-1-1-2.26.29-3.08a3.61,3.61,0,0,1,3.57,0c4.57,2,7.53,6,11.29,9.48,1-5.54,1.92-10.75,2.81-16,.15-.87,0-2,1.24-1.92a2.58,2.58,0,0,1,2.23,1.17c7.27,12.32,17.1,23,23,36.18.45,1,1.53,2.15.23,3-1.54,1-2-.48-2.66-1.58-3.71-5.79-7.95-11.27-10.37-17.83-1-2.67-3.17-4.55-5.19-6.38C595.29,734.63,594.7,731.13,591.08,729.29Z" style="fill:#474747"/><path d="M554,780.72a7.25,7.25,0,0,1-6.31-4.16c-2.53-4.51-4.21-9.28-6.16-14-3.77-9.05.83-22,10.67-25.17a5.53,5.53,0,0,1,5.78,1.09c3.69,2.86,7.51,5.34,9,10.17.92,3,2,5.84,1.23,9.15-1.07,4.78-.19,9.87-1.79,14.59C564.89,776.9,559.24,780.71,554,780.72Zm-7.26-20c.16,2.61-.52,5.6,3.65,5.15.46,0,1.05.6,1.5,1,1.54,1.38,3.5,3.28,5.27,2,2.11-1.53,4.21,0,6.05-1a1.86,1.86,0,0,0,.78-1.17c1.35-7.56,3.08-15.1-2.59-21.91-2.6-3.13-4.53-3.34-6.78-.13-1.51,2.16-3.11,4.25-4.64,6.39A15.94,15.94,0,0,0,546.76,760.69Zm6.76-19.07c-5.47-.12-10.7,8.61-9.34,15.77C546.25,751.16,550,746.61,553.52,741.62Z" style="fill:#474747"/><path d="M495.91,745.88c-4.3,10.43-8,20.88-9.88,31.75-.64,3.7.07,7.89.05,11.85,0,1.28.83,3.62-1.49,3.5a3.65,3.65,0,0,1-3.24-3.64,115.22,115.22,0,0,1,3.47-27.85c1.44-6.17,4.89-11.54,7.19-17.36.79-2,2.66-2.91,3.75-4.61.87-1.37,2.72-1,3.06.81.45,2.34,1.93,3.74,3.57,5.11,4,3.36,5.54,7.91,6,13.07,4.43-2.25,2.86-6.92,4.41-10.21,1.47,0,1.11,1.48,1.82,2,.57.06.53-.37.55-.72.2-4.36.89-8.51,5-11,1.56-1,2.88-2.52,2.88,1.43,0,2.82,2,5.77,2.3,8.9,0,.44,0,.89,0,1.61-4.77-5.7-4.62-5.6-8.71.69-2.25,3.45-2.45,7.67-5,11-1.41,1.85-3.42,1.8-4.94,3-.47.36-1.23-.35-1.34-1-.91-5.27-4.11-9.25-7.24-13.33C497.16,749.56,496.74,747.76,495.91,745.88Z" style="fill:#474747"/><path d="M430.56,698.21c3.13-2,5.28-.6,7.45-.43.55,0,.9.25.84.92-1,11.17,1,22.18,1.74,33.26.2,3,.48,4.55,4,2.59,4.93-2.73,10.37-4.41,15.2-7.43s10.71-2.38,16-4c2-.62,1.78,2.33,1.37,3.6a5.23,5.23,0,0,1-4.6,4c-10.39.52-19.32,5.09-28.16,9.94a4.44,4.44,0,0,1-1.36.64c-2,.3-3.83,6.68-6.08.23-6.18.79-3.72-3.45-3.53-6.2a306.1,306.1,0,0,0,.77-31.62C434.16,701.5,434.23,699,430.56,698.21Z" style="fill:#474747"/><path d="M588.16,867.33c2.53,2.66,3.23,6,4.73,8.81s3.72,4.32,5.73,6.32c1.84,1.82,5.26-.54,6.74,2.53.17.34,3.52-3.84,3-4.54-2.43-3.51.63-5.91,1.89-8.4.91-1.8,2-3.38,2.09-5.46,0-.71.2-1.71.68-2,1.37-1,2.67-3.08,4.47-2.06,1.63.93.4,2.9.13,4.39-1.5,8.21-5.9,15.32-8.71,23a26.85,26.85,0,0,0-1,16.24c1,4.07,2.17,8.31,1.59,12.58-.16,1.26.92,4.09-1.7,3.71-1.92-.27-4.33-1.28-4.37-4.26,0-3.26-.59-6.54-.41-9.78.52-8.83-2.88-16.28-8-23.09a68.25,68.25,0,0,0-6.82-8.44C584.58,873.21,584.68,871.71,588.16,867.33Z" style="fill:#474747"/><path d="M605.29,806.77c.93-8.64-.33-17.2,1.52-25.63.33-1.53.5-3.62,2.16-3.39,1.88.25,1.6,2.26,1.47,4-.77,10.15-1.74,20.32.46,30.43a7.77,7.77,0,0,1,.08,2.26c-.08,1-.05,2.13-1.28,2.48s-1.87-.45-2.5-1.29c-2.22-3-3.4-6.56-5.92-9.47-3.94-4.56-6-10.34-9.25-16.48a26.66,26.66,0,0,0,.65,11.71c1.26,5.26,2.52,10.53,2.37,16,0,1.57.18,3.78-2,3.68-1.71-.08-2.86-1.56-3.11-3.65-1.32-11-3.08-21.9-3.61-33a5.07,5.07,0,0,0-.93-3.18c-.73-.91-1.06-1.95.64-2.61,1.31-.51,2.22-.78,3.2.58a91.51,91.51,0,0,1,10.33,18.3C601,801,603.59,803.53,605.29,806.77Z" style="fill:#474747"/><path d="M577.1,908.43c4.26-.55,8.54-1,12.79-1.67a3.63,3.63,0,0,1,2.89.33,13.39,13.39,0,0,1,1.28,1.22,7.51,7.51,0,0,1-1.28,1.3c-8.12,5.06-17.53,6.15-26.57,8.1-3.24.69-6.74.61-10,1.69-2.24.73-3-.31-2.54-2.53.63-2.75.57-5.32-1.26-7.76-1.4-1.87-1.28-4.25-1.21-6.49.13-3.9.24-7.82-.74-11.61-.44-1.68-.06-2.31,1.54-2.58s2.45.23,2.62,1.83c.56,5.16,2.82,10,2.17,15.43-.17,1.33.35,3.24,2.71,2.14,1-.44,2,0,2.94,0,2.29.07,4.47.25,6.73-1.28,3.73-2.52,8.69-1.86,12.7-4.1a2,2,0,0,1,2.9,1.5c.16,1.36-.89,1.78-2.17,2-1.91.36-3.76,1-5.63,1.56Zm-10.8,4.13c-2.65-1.13-5.17,0-7.72,0-1.37,0-2,.29-1.83,1.51.14,1.41,1.32,2.12,2.4,1.42A27.37,27.37,0,0,1,566.3,912.56Z" style="fill:#474747"/><path d="M480.85,845.13c4.84-2.85,10.37.63,15.29-2.2,1.16-.66,2.46.21,3,1.58.41,1.09-.58,1.4-1.22,1.47-5.57.63-10,4.59-15.62,5.15-1.27.13-2.71.6-3.66-.17-3-2.47-6.08-1.84-9.22-.46-3.71,1.64-7.54-.94-11.27.35a1.2,1.2,0,0,1-1.47-.9c-.19-.71.29-1.13.86-1.48a85.31,85.31,0,0,1,15.62-7.87c1.6-.57,3.17-1,2.81-3.26-.21-1.35.19-2.79,1.68-2.91,1.81-.14,1.17,1.53,1.24,2.52.14,2.18,1.57,1.09,2.44.91,3.56-.71,6.91-2.38,10.64-2.32,1.16,0,2.76-.5,2.85,1.45.07,1.53-1.3,1.44-2.33,1.87-4,1.68-7.91,3.54-11.85,5.34Z" style="fill:#474747"/><path d="M490.86,799.84c-1.11-.63-1.83,0-2.44.6-3.1,2.86-7.1,3.39-10.95,4.19-1.71.35-2.6,1.1-2.47,2.65.2,2.18-.68,4.53.76,6.51.71,1,.42,1.94-.29,2.27-1.39.63,0-1.25-1.05-1.39-3.46-.46-3.11-3.26-3.41-5.69-.22-1.74-.51-3.11-3.06-2.17-3.4,1.24-7.05,1.79-10.49,2.93-2,.65-3.81.73-4.37-1.3-.39-1.44.53-3.3,1.89-4.38,1.58-1.26,3.68-1.48,5.48-2.3,9.55-4.37,19.74-5.34,30-6a2.66,2.66,0,0,1,3.09,2.24A2,2,0,0,1,490.86,799.84Z" style="fill:#474747"/><path d="M529.68,753.3c3.63,4.63,6.12,9.56,6.45,15.41.22,3.88-.33,7.8.85,11.62a2,2,0,0,1-1.11,2.53c-1.19.48-1.13-1.13-1.73-1.45-2.37-1.3-1.9-3.25-1.87-5.39.09-5.22-2.2-10-3.59-14.89C527.87,758.29,527.86,755.93,529.68,753.3Z" style="fill:#474747"/><path d="M436.67,688.38c0,2.06-1.13,4.12.13,6.17.41.67.09,1.23-.73,1.24-1.12,0-2.23,0-2.93-1.19-.9-1.44-.15-7.36,1.12-8.48.48-.42,1-.76,1.67-.4C437,686.34,436.65,687.43,436.67,688.38Z" style="fill:#474747"/><path d="M471.33,826.66c1-1.83-1.48-5.38,1.75-5.8,1.36-.18.78,3.61.64,5.62-.08,1.13.67,1.86,1,2.77.29.71,1.21,1.45.06,2.26-.72.52-1.37,1.19-2.36.83s-1.2-1.13-1.14-2.12S471.33,828,471.33,826.66Z" style="fill:#474747"/><path d="M549.93,873.35c4,5.79,3.94,6.87-.36,8.77C549.1,879.23,548.55,876.43,549.93,873.35Z" style="fill:#474747"/><path d="M555.6,885.74c-1.72.5-3.28,3-4.87.37-.58-1-.78-2.25.45-3C554,881.4,553.89,885.12,555.6,885.74Z" style="fill:#474747"/></g><g style="opacity:0.8"><path d="M816.52,698.63a43.79,43.79,0,0,0,.42-9.29,15.9,15.9,0,0,0-.93-4.08,1.39,1.39,0,0,1-.11-.75,9.06,9.06,0,0,0-.56-4.46,6.51,6.51,0,0,1-.54-3.06,4.4,4.4,0,0,0-.69-2.8c-.2-.34-.15-.57.27-.65a4.13,4.13,0,0,0,.5-.15,8.79,8.79,0,0,1-1.45-2.33c0-.13-.3-.2-.46-.3a2.72,2.72,0,0,1-.64-.42,4.29,4.29,0,0,0-2.66-1.64.55.55,0,0,1-.3-.16c-.79-1.09-2-.85-3.09-.94a.37.37,0,0,1-.12-.07l-1.39.44a1.51,1.51,0,0,0-.51,1.07,13.34,13.34,0,0,1-2.19,5.78c-1.23,2-2.5,4.07-3.78,6.09a30.51,30.51,0,0,1-2.49,2.77,3.62,3.62,0,0,1-2.15,1.34c-1.94.35-1.95-.32-2.38-2.14a2.13,2.13,0,0,0-.48-1.19,1,1,0,0,1-.26-.85,3.71,3.71,0,0,0-1.19-2.79c-.87-.87-1.87-1.59-2.78-2.42a.85.85,0,0,0-.72-.16c-.62.06-1.24.07-1.87.08a.57.57,0,0,1-.59-.29c-.38-.92-1.22-1.06-2-1.26a1,1,0,0,0-.92.28c-2,1.77-2.34,4.27-3,6.65-1.81,6.55-2.16,13.31-2.9,20a13.65,13.65,0,0,0-.17,3.25,14.22,14.22,0,0,0,3,6.92,12,12,0,0,0,1,1.21c.63.62,1.27,1.26,2.3.92l.82-.25a2.59,2.59,0,0,0,1.32-1.94,6.82,6.82,0,0,0,.2-3.3,2.58,2.58,0,0,1,.59-2.1.9.9,0,0,0,0-1.07,2.38,2.38,0,0,1,.13-2.35,4.61,4.61,0,0,0,.41-3.05,12.14,12.14,0,0,1,.4-4.76,4.08,4.08,0,0,1,.25-1.14,21.76,21.76,0,0,0,2.52,2.24,7.22,7.22,0,0,0,5.38,1.3.63.63,0,0,1,.27,0l2.24-.7a22.41,22.41,0,0,0,4.66-3.23,51.35,51.35,0,0,0,6.3-7.12,3.26,3.26,0,0,0,.32-.68.71.71,0,0,1,.83-.33c.3.11.38.58.34.86a25.59,25.59,0,0,0,.24,5.6,24.79,24.79,0,0,0,1.34,6.07,7.36,7.36,0,0,0,3.64,4.39,2.74,2.74,0,0,0,.92-.29,26.16,26.16,0,0,1,2.37-2.22C816.47,699.09,816.49,698.85,816.52,698.63Z" style="fill:#474747"/><path d="M768.56,697.58h-.14c.07-.48-.58-.75-.38-1.28-1.55.33-3,1.1-4.49,1.54-.87.45-1.71,1-2.61,1.35a21.79,21.79,0,0,1-3.07,1.31c-.28.37-.49.29-.72-.08a1.36,1.36,0,0,1-.29-1.12,4.06,4.06,0,0,0,0-1.93,2.61,2.61,0,0,1,.06-1.24,4.8,4.8,0,0,0-.12-2.81.93.93,0,0,1,.3-1,20.91,20.91,0,0,1,4.76-3.33,36.34,36.34,0,0,1,6.19-2.9l4.61-1.6a2.39,2.39,0,0,1,.91-.82,1.07,1.07,0,0,0,.49-.87,2.88,2.88,0,0,0-1.34-2.43,32.14,32.14,0,0,1-3.47-1.62,3.87,3.87,0,0,0-2.31-.26,35.48,35.48,0,0,0-4.21,1.45c-.94.48-1.9,1-2.83,1.46a39.62,39.62,0,0,0-4.88,3c-.8.58-1.76.89-2.48,1.49-1.38,1.14-2.92,2.05-4.33,3.15-1.22,1-2.55,1.79-3.83,2.67a2.29,2.29,0,0,0-.57,3,1.09,1.09,0,0,1,.32,1.13.29.29,0,0,0,.14.39.17.17,0,0,0,.1,0,4.79,4.79,0,0,1,1.93,1.33,2.37,2.37,0,0,0,2.22.74c.47-.11.81,0,.85.71.08,1.28-.07,2.54,0,3.81,0,.74-.3.92-1,.67l-.86-.32a1.8,1.8,0,0,0-1.17.35,7.27,7.27,0,0,0-2,1.94,3.39,3.39,0,0,0,.15,3.82,6.35,6.35,0,0,0,3.65,2.88c.33.07.34.25.36.55a22.73,22.73,0,0,0,.25,4,4.45,4.45,0,0,0,2,3.15l.1.1a3.78,3.78,0,0,0,3.07,1.19,1.21,1.21,0,0,1,.68.08l.93-.29a4.4,4.4,0,0,0,1.06-3.75,2.45,2.45,0,0,0-.47-.94,3,3,0,0,1-.1-2.7c0-.06.06-.15,0-.19-.49-.89.19-1.75.05-2.65-.11-.71.53-1.06,1-1.26,2.21-.89,4.13-2.29,6.3-3.23a19.5,19.5,0,0,0,3.4-1.75,6.21,6.21,0,0,1,1.61-.69c.25-.17.61,0,.85-.26.28-1.18.82-2.26,1.21-3.4a1.24,1.24,0,0,0-.51-1.73C769.58,698,769.18,697.52,768.56,697.58Z" style="fill:#474747"/><path d="M846.94,657.5a18.44,18.44,0,0,0-2.86-1.3c-.53-.18-1-.62-1.5-.74a6.53,6.53,0,0,0-1.71-.05l-2.73.86c-.95.43-1.92.84-2.84,1.31a38.87,38.87,0,0,0-7.11,4.34c-.33.27-.75.25-1.08.49l-5.19,3.69c-1.13.81-2.25,1.64-3.43,2.37a2.32,2.32,0,0,0-.65,3.23l.09.13c.09.12.31.21.23.4-.35.76.18.86.7,1.13a11.15,11.15,0,0,1,1.53,1.21,2.22,2.22,0,0,0,2,.64c.5-.12.8,0,.89.75.15,1.25-.1,2.48,0,3.74,0,.84-.32,1-1.08.67l-.79-.27a1.81,1.81,0,0,0-1.17.34,6.16,6.16,0,0,0-2.16,2.4,3.29,3.29,0,0,0,.21,3.06,6.45,6.45,0,0,0,3.79,3.18c.24.07.33.15.35.46a34.67,34.67,0,0,0,.17,3.67,4.65,4.65,0,0,0,1.89,3.37,1,1,0,0,1,.15.14A4,4,0,0,0,828,698a2.54,2.54,0,0,1,.54.09l1-.29c1.06-1.32,1.56-2.82.71-4.34a4.11,4.11,0,0,1-.44-2.43q.11-1.83.3-3.66c.06-.64.62-.91,1.07-1.1,2.69-1.2,5.16-2.83,7.87-4a15,15,0,0,0,2-1.08,2.88,2.88,0,0,1,1-.4l1.21-.41c.42-1.12.82-2.23,1.25-3.34a1.35,1.35,0,0,0-.68-1.92c-.41-.24-.76-.63-1.31-.56a.35.35,0,0,1-.18-.05c.13-.49-.54-.73-.38-1.23l-2.92.91c-.83.4-1.67.8-2.51,1.18-1.55.7-3,1.55-4.63,2.1-.29.4-.55.24-.77-.08s-.39-.6-.29-.91c.43-1.38-.37-2.77.21-4.19.24-.57-.13-1.41-.29-2.11a.77.77,0,0,1,.24-.85,28.66,28.66,0,0,1,7.35-4.7,18,18,0,0,1,3.66-1.57c1.54-.59,3.08-1.16,4.66-1.64a4.53,4.53,0,0,1,.57-.59,2,2,0,0,0,.42-2.77A2.07,2.07,0,0,0,846.94,657.5Z" style="fill:#474747"/></g><g style="opacity:0.8"><path d="M186.52,1043.63a43.79,43.79,0,0,0,.42-9.29,15.9,15.9,0,0,0-.93-4.08,1.39,1.39,0,0,1-.11-.75,9.06,9.06,0,0,0-.56-4.46,6.51,6.51,0,0,1-.54-3.06,4.4,4.4,0,0,0-.69-2.8c-.2-.34-.15-.57.27-.65a4.13,4.13,0,0,0,.5-.15,8.79,8.79,0,0,1-1.45-2.33c-.05-.13-.3-.2-.46-.3a2.72,2.72,0,0,1-.64-.42,4.29,4.29,0,0,0-2.66-1.64.55.55,0,0,1-.3-.16c-.79-1.09-2-.85-3.09-.94a.37.37,0,0,1-.12-.07l-1.39.44a1.51,1.51,0,0,0-.51,1.07,13.34,13.34,0,0,1-2.19,5.78c-1.23,2-2.5,4.07-3.78,6.09a30.51,30.51,0,0,1-2.49,2.77,3.62,3.62,0,0,1-2.15,1.34c-1.94.35-2-.32-2.38-2.14a2.13,2.13,0,0,0-.48-1.19,1,1,0,0,1-.26-.85,3.71,3.71,0,0,0-1.19-2.79c-.87-.87-1.87-1.59-2.78-2.42a.85.85,0,0,0-.72-.16c-.62.06-1.24.07-1.87.08a.57.57,0,0,1-.59-.29c-.38-.92-1.22-1.06-2-1.26a1,1,0,0,0-.92.28c-2,1.77-2.34,4.27-3,6.65-1.81,6.55-2.16,13.31-2.9,20a13.65,13.65,0,0,0-.17,3.25,14.22,14.22,0,0,0,3,6.92,12,12,0,0,0,1,1.21c.63.62,1.27,1.26,2.3.92l.82-.25a2.59,2.59,0,0,0,1.32-1.94,6.82,6.82,0,0,0,.2-3.3,2.58,2.58,0,0,1,.59-2.1.9.9,0,0,0,.05-1.07,2.38,2.38,0,0,1,.13-2.35,4.61,4.61,0,0,0,.41-3,12.14,12.14,0,0,1,.4-4.76,4.08,4.08,0,0,1,.25-1.14,21.76,21.76,0,0,0,2.52,2.24,7.22,7.22,0,0,0,5.38,1.3.63.63,0,0,1,.27,0l2.24-.7a22.41,22.41,0,0,0,4.66-3.23,51.35,51.35,0,0,0,6.3-7.12,3.26,3.26,0,0,0,.32-.68.71.71,0,0,1,.83-.33c.3.11.38.58.34.86a25.59,25.59,0,0,0,.24,5.6,24.79,24.79,0,0,0,1.34,6.07,7.36,7.36,0,0,0,3.64,4.39,2.74,2.74,0,0,0,.92-.29,26.16,26.16,0,0,1,2.37-2.22C186.47,1044.09,186.49,1043.85,186.52,1043.63Z" style="fill:#474747"/><path d="M138.56,1042.58h-.14c.07-.48-.58-.75-.38-1.28-1.55.33-3,1.1-4.49,1.54-.87.45-1.71,1-2.61,1.35a21.79,21.79,0,0,1-3.07,1.31c-.28.37-.49.29-.72-.08a1.36,1.36,0,0,1-.29-1.12,4.06,4.06,0,0,0,0-1.93,2.61,2.61,0,0,1,.06-1.24,4.8,4.8,0,0,0-.12-2.81.93.93,0,0,1,.3-1,20.91,20.91,0,0,1,4.76-3.33,36.34,36.34,0,0,1,6.19-2.9l4.61-1.6a2.39,2.39,0,0,1,.91-.82,1.07,1.07,0,0,0,.49-.87,2.88,2.88,0,0,0-1.34-2.43,32.14,32.14,0,0,1-3.47-1.62,3.87,3.87,0,0,0-2.31-.26,35.48,35.48,0,0,0-4.21,1.45c-.94.48-1.9.95-2.83,1.46a39.62,39.62,0,0,0-4.88,3c-.8.58-1.76.89-2.48,1.49-1.38,1.14-2.92,2-4.33,3.15-1.22,1-2.55,1.79-3.83,2.67a2.29,2.29,0,0,0-.57,3,1.09,1.09,0,0,1,.32,1.13.29.29,0,0,0,.14.39.17.17,0,0,0,.1,0,4.79,4.79,0,0,1,1.93,1.33,2.37,2.37,0,0,0,2.22.74c.47-.11.81,0,.85.71.08,1.28-.07,2.54,0,3.81,0,.74-.3.92-1,.67l-.86-.32a1.8,1.8,0,0,0-1.17.35,7.27,7.27,0,0,0-2,1.94,3.39,3.39,0,0,0,.15,3.82,6.35,6.35,0,0,0,3.65,2.88c.33.07.34.25.36.55a22.73,22.73,0,0,0,.25,3.95,4.45,4.45,0,0,0,2,3.15l.1.1a3.78,3.78,0,0,0,3.07,1.19,1.21,1.21,0,0,1,.68.08l.93-.29a4.4,4.4,0,0,0,1.06-3.75,2.45,2.45,0,0,0-.47-.94,3,3,0,0,1-.1-2.7c0-.06.06-.15,0-.19-.49-.89.19-1.75,0-2.65-.11-.71.53-1.06,1-1.26,2.21-.89,4.13-2.29,6.3-3.23a19.5,19.5,0,0,0,3.4-1.75,6.21,6.21,0,0,1,1.61-.69c.25-.17.61,0,.85-.26.28-1.18.82-2.26,1.21-3.4a1.24,1.24,0,0,0-.51-1.73C139.58,1043,139.18,1042.52,138.56,1042.58Z" style="fill:#474747"/><path d="M216.94,1002.5a18.44,18.44,0,0,0-2.86-1.3c-.53-.18-1-.62-1.5-.74a6.53,6.53,0,0,0-1.71-.05l-2.73.86c-.95.43-1.92.84-2.84,1.31a38.87,38.87,0,0,0-7.11,4.34c-.33.27-.75.25-1.08.49l-5.19,3.69c-1.13.81-2.25,1.64-3.43,2.37a2.32,2.32,0,0,0-.65,3.23l.09.13c.09.12.31.21.23.4-.35.76.18.86.7,1.13a11.15,11.15,0,0,1,1.53,1.21,2.22,2.22,0,0,0,2,.64c.5-.12.8,0,.89.75.15,1.25-.1,2.48,0,3.74,0,.84-.32,1-1.08.67l-.79-.27a1.81,1.81,0,0,0-1.17.34,6.16,6.16,0,0,0-2.16,2.4,3.29,3.29,0,0,0,.21,3.06,6.45,6.45,0,0,0,3.79,3.18c.24.07.33.15.35.46a34.67,34.67,0,0,0,.17,3.67,4.65,4.65,0,0,0,1.89,3.37,1,1,0,0,1,.15.14A4,4,0,0,0,198,1043a2.54,2.54,0,0,1,.54.09l.95-.29c1.06-1.32,1.56-2.82.71-4.34a4.11,4.11,0,0,1-.44-2.43q.1-1.83.3-3.66c.06-.64.62-.91,1.07-1.1,2.69-1.2,5.16-2.83,7.87-4a15,15,0,0,0,2-1.08,2.88,2.88,0,0,1,1-.4l1.21-.41c.42-1.12.82-2.23,1.25-3.34a1.35,1.35,0,0,0-.68-1.92c-.41-.24-.76-.63-1.31-.56a.35.35,0,0,1-.18-.05c.13-.49-.54-.73-.38-1.23l-2.92.91c-.83.4-1.67.8-2.51,1.18-1.55.7-3,1.55-4.63,2.1-.29.4-.55.24-.77-.08s-.39-.6-.29-.91c.43-1.38-.37-2.77.21-4.19.24-.57-.13-1.41-.29-2.11a.77.77,0,0,1,.24-.85,28.66,28.66,0,0,1,7.35-4.7,18,18,0,0,1,3.66-1.57c1.54-.59,3.08-1.16,4.66-1.64a4.53,4.53,0,0,1,.57-.59,2,2,0,0,0,.42-2.77A2.07,2.07,0,0,0,216.94,1002.5Z" style="fill:#474747"/></g></svg>